<?xml version="1.0" encoding="UTF-8" standalone="no"?><svg xmlns="http://www.w3.org/2000/svg" xmlns:xlink="http://www.w3.org/1999/xlink" contentScriptType="application/ecmascript" contentStyleType="text/css" height="924px" preserveAspectRatio="none" style="width:1016px;height:924px;" version="1.1" viewBox="0 0 1016 924" width="1016px" zoomAndPan="magnify"><defs/><g><!--MD5=[43faeb760e7b9692ab91f636f0cf3388]
cluster external.terminalapplication--><polygon fill="#3399FF" points="98,24,300,24,307,47.6094,310,47.6094,310,124,98,124,98,24" style="stroke: #000000; stroke-width: 1.5;"/><line style="stroke: #000000; stroke-width: 1.5;" x1="98" x2="307" y1="47.6094" y2="47.6094"/><text fill="#000000" font-family="sans-serif" font-size="14" font-weight="bold" lengthAdjust="spacingAndGlyphs" textLength="196" x="102" y="40.5332">external.terminalapplication</text><!--MD5=[2bcc54f38766b998c5e88efdbc7d1696]
cluster org.eclipse.keyple.core.seproxy--><polygon fill="#FFFFFF" points="22,174,253,174,260,197.6094,994,197.6094,994,698,22,698,22,174" style="stroke: #000000; stroke-width: 1.5;"/><line style="stroke: #000000; stroke-width: 1.5;" x1="22" x2="260" y1="197.6094" y2="197.6094"/><text fill="#000000" font-family="sans-serif" font-size="14" font-weight="bold" lengthAdjust="spacingAndGlyphs" textLength="225" x="26" y="190.5332">org.eclipse.keyple.core.seproxy</text><!--MD5=[fcbadcad9a28152c89ed5c4d71dbb045]
cluster plugin.specific--><polygon fill="#D7BDE2" points="67,748,176,748,183,771.6094,739,771.6094,739,912,67,912,67,748" style="stroke: #000000; stroke-width: 1.5;"/><line style="stroke: #000000; stroke-width: 1.5;" x1="67" x2="183" y1="771.6094" y2="771.6094"/><text fill="#000000" font-family="sans-serif" font-size="14" font-weight="bold" lengthAdjust="spacingAndGlyphs" textLength="103" x="71" y="764.5332">plugin.specific</text><!--MD5=[36749fbd9f1718a5265922a19e14c350]
class SpecificTerminal--><rect fill="#FEFECE" height="48" id="SpecificTerminal" style="stroke: #D4AC0D; stroke-width: 1.5;" width="124" x="142" y="60"/><ellipse cx="157" cy="76" fill="#ADD1B2" rx="11" ry="11" style="stroke: #ADD1B2; stroke-width: 1.0;"/><path d="M159,72.5 Q159.2031,72 159.4375,71.75 Q159.6719,71.5 159.9375,71.5 Q160.4063,71.5 160.7031,71.7813 Q161,72.0625 161,72.7188 L161,74.2813 Q161,74.9375 160.7188,75.2188 Q160.4375,75.5 160,75.5 Q159.6094,75.5 159.3594,75.3281 Q159.1094,75.1563 159,74.7031 Q158.9531,74.3906 158.7813,74.2188 Q158.4688,73.8906 157.9063,73.7031 Q157.3438,73.5 156.7813,73.5 Q156.0781,73.5 155.4844,73.7813 Q154.9063,74.0625 154.4531,74.6875 Q154,75.3125 154,76.1719 L154,77.0938 Q154,78.125 154.8438,78.8125 Q155.6875,79.5 157.1875,79.5 Q158.0781,79.5 158.7031,79.2969 Q159.0625,79.1875 159.4688,78.8281 Q159.7344,78.625 159.875,78.5625 Q160.0156,78.5 160.1875,78.5 Q160.5156,78.5 160.75,78.7656 Q161,79.0156 161,79.375 Q161,79.7188 160.6563,80.125 Q160.1563,80.7188 159.3594,81.0469 Q158.3125,81.5 157.0313,81.5 Q155.5313,81.5 154.3281,80.9063 Q153.3594,80.4375 152.6719,79.4219 Q152,78.4063 152,77.2031 L152,76.1094 Q152,74.8594 152.5938,73.7656 Q153.2031,72.6719 154.25,72.0938 Q155.3125,71.5 156.5,71.5 Q157.2188,71.5 157.8438,71.75 Q158.4688,72 159,72.5 Z "/><text fill="#000000" font-family="sans-serif" font-size="12" lengthAdjust="spacingAndGlyphs" textLength="92" x="171" y="80.9102">SpecificTerminal</text><line style="stroke: #D4AC0D; stroke-width: 1.5;" x1="143" x2="265" y1="92" y2="92"/><line style="stroke: #D4AC0D; stroke-width: 1.5;" x1="143" x2="265" y1="100" y2="100"/><!--MD5=[f0c44d4c6fb415056b2c0aabd573961b]
class SeProxyService--><rect fill="#FEFECE" height="208.3828" id="SeProxyService" style="stroke: #D4AC0D; stroke-width: 1.5;" width="298" x="55" y="210"/><ellipse cx="138.75" cy="230.0938" fill="#ADD1B2" rx="11" ry="11" style="stroke: #ADD1B2; stroke-width: 1.0;"/><path d="M140.75,226.5938 Q140.9531,226.0938 141.1875,225.8438 Q141.4219,225.5938 141.6875,225.5938 Q142.1563,225.5938 142.4531,225.875 Q142.75,226.1563 142.75,226.8125 L142.75,228.375 Q142.75,229.0313 142.4688,229.3125 Q142.1875,229.5938 141.75,229.5938 Q141.3594,229.5938 141.1094,229.4219 Q140.8594,229.25 140.75,228.7969 Q140.7031,228.4844 140.5313,228.3125 Q140.2188,227.9844 139.6563,227.7969 Q139.0938,227.5938 138.5313,227.5938 Q137.8281,227.5938 137.2344,227.875 Q136.6563,228.1563 136.2031,228.7813 Q135.75,229.4063 135.75,230.2656 L135.75,231.1875 Q135.75,232.2188 136.5938,232.9063 Q137.4375,233.5938 138.9375,233.5938 Q139.8281,233.5938 140.4531,233.3906 Q140.8125,233.2813 141.2188,232.9219 Q141.4844,232.7188 141.625,232.6563 Q141.7656,232.5938 141.9375,232.5938 Q142.2656,232.5938 142.5,232.8594 Q142.75,233.1094 142.75,233.4688 Q142.75,233.8125 142.4063,234.2188 Q141.9063,234.8125 141.1094,235.1406 Q140.0625,235.5938 138.7813,235.5938 Q137.2813,235.5938 136.0781,235 Q135.1094,234.5313 134.4219,233.5156 Q133.75,232.5 133.75,231.2969 L133.75,230.2031 Q133.75,228.9531 134.3438,227.8594 Q134.9531,226.7656 136,226.1875 Q137.0625,225.5938 138.25,225.5938 Q138.9688,225.5938 139.5938,225.8438 Q140.2188,226.0938 140.75,226.5938 Z "/><text fill="#000000" font-family="sans-serif" font-size="12" font-style="italic" lengthAdjust="spacingAndGlyphs" textLength="66" x="187.25" y="227.457">«Singleton»</text><ellipse cx="164.25" cy="237.1406" fill="#84BE84" rx="3" ry="3" style="stroke: #038048; stroke-width: 1.0;"/><text fill="#000000" font-family="sans-serif" font-size="12" font-weight="bold" lengthAdjust="spacingAndGlyphs" textLength="24" x="170.25" y="242.5508">final</text><text fill="#000000" font-family="sans-serif" font-size="12" lengthAdjust="spacingAndGlyphs" textLength="84" x="197.25" y="242.5508">SeProxyService</text><line style="stroke: #D4AC0D; stroke-width: 1.5;" x1="56" x2="352" y1="250.1875" y2="250.1875"/><rect fill="none" height="6" style="stroke: #C82930; stroke-width: 1.0;" width="6" x="63" y="258.1875"/><text fill="#000000" font-family="sans-serif" font-size="11" font-weight="bold" lengthAdjust="spacingAndGlyphs" text-decoration="underline" textLength="23" x="75" y="265.6064">final</text><text fill="#000000" font-family="sans-serif" font-size="11" lengthAdjust="spacingAndGlyphs" text-decoration="underline" textLength="154" x="101" y="265.6064">SeProxyService uniqueInstance</text><rect fill="none" height="6" style="stroke: #C82930; stroke-width: 1.0;" width="6" x="63" y="272.0234"/><text fill="#000000" font-family="sans-serif" font-size="11" font-weight="bold" lengthAdjust="spacingAndGlyphs" textLength="23" x="75" y="279.4424">final</text><text fill="#000000" font-family="sans-serif" font-size="11" lengthAdjust="spacingAndGlyphs" textLength="220" x="101" y="279.4424">ConcurrentMap&lt;String, ReaderPlugin&gt; plugins</text><line style="stroke: #D4AC0D; stroke-width: 1.5;" x1="56" x2="352" y1="285.8594" y2="285.8594"/><ellipse cx="66" cy="296.8594" fill="#84BE84" rx="3" ry="3" style="stroke: #038048; stroke-width: 1.0;"/><text fill="#000000" font-family="sans-serif" font-size="11" lengthAdjust="spacingAndGlyphs" text-decoration="underline" textLength="145" x="75" y="301.2783">SeProxyService getInstance()</text><ellipse cx="66" cy="310.6953" fill="#84BE84" rx="3" ry="3" style="stroke: #038048; stroke-width: 1.0;"/><text fill="#000000" font-family="sans-serif" font-size="11" lengthAdjust="spacingAndGlyphs" textLength="92" x="75" y="315.1143">String getVersion()</text><text fill="#000000" font-family="sans-serif" font-size="11" lengthAdjust="spacingAndGlyphs" textLength="0" x="78" y="328.9502"/><ellipse cx="66" cy="338.3672" fill="#84BE84" rx="3" ry="3" style="stroke: #038048; stroke-width: 1.0;"/><text fill="#000000" font-family="sans-serif" font-size="11" lengthAdjust="spacingAndGlyphs" textLength="272" x="75" y="342.7861">ReaderPlugin registerPlugin(PluginFactory pluginFactory)</text><ellipse cx="66" cy="352.2031" fill="#84BE84" rx="3" ry="3" style="stroke: #038048; stroke-width: 1.0;"/><text fill="#000000" font-family="sans-serif" font-size="11" lengthAdjust="spacingAndGlyphs" textLength="195" x="75" y="356.6221">boolean isRegistered(String pluginName)</text><ellipse cx="66" cy="366.0391" fill="#84BE84" rx="3" ry="3" style="stroke: #038048; stroke-width: 1.0;"/><text fill="#000000" font-family="sans-serif" font-size="11" lengthAdjust="spacingAndGlyphs" textLength="212" x="75" y="370.458">boolean unregisterPlugin(String pluginName)</text><text fill="#000000" font-family="sans-serif" font-size="11" lengthAdjust="spacingAndGlyphs" textLength="0" x="78" y="384.2939"/><ellipse cx="66" cy="393.7109" fill="#84BE84" rx="3" ry="3" style="stroke: #038048; stroke-width: 1.0;"/><text fill="#000000" font-family="sans-serif" font-size="11" lengthAdjust="spacingAndGlyphs" textLength="174" x="75" y="398.1299">ReaderPlugin getPlugin(String name)</text><ellipse cx="66" cy="407.5469" fill="#84BE84" rx="3" ry="3" style="stroke: #038048; stroke-width: 1.0;"/><text fill="#000000" font-family="sans-serif" font-size="11" lengthAdjust="spacingAndGlyphs" textLength="243" x="75" y="411.9658">ConcurrentMap&lt;String, ReaderPlugin&gt; getPlugins()</text><!--MD5=[5c68026ea752d2e8f1e184b2d7c89ced]
class PluginFactory--><rect fill="#FEFECE" height="75.6719" id="PluginFactory" style="stroke: #D4AC0D; stroke-width: 1.5;" width="184" x="38" y="551"/><ellipse cx="82.75" cy="567" fill="#B4A7E5" rx="11" ry="11" style="stroke: #B4A7E5; stroke-width: 1.0;"/><path d="M83.75,564 L83.75,570 L85.75,570 L86.2344,570 L86.75,570.625 L86.75,571 L86.75,571.375 L86.2344,572 L85.75,572 L79.75,572 L79.2656,572 L78.75,571.375 L78.75,571 L78.75,570.625 L79.2656,570 L79.75,570 L81.75,570 L81.75,564 L79.75,564 L79.2656,564 L78.75,563.375 L78.75,563 L78.75,562.625 L79.2656,562 L79.75,562 L85.75,562 L86.2344,562 L86.75,562.625 L86.75,563 L86.75,563.375 L86.2344,564 L85.75,564 L83.75,564 Z "/><ellipse cx="108.25" cy="566.5" fill="#84BE84" rx="3" ry="3" style="stroke: #038048; stroke-width: 1.0;"/><text fill="#000000" font-family="sans-serif" font-size="12" font-style="italic" lengthAdjust="spacingAndGlyphs" textLength="75" x="114.25" y="571.9102">PluginFactory</text><line style="stroke: #D4AC0D; stroke-width: 1.5;" x1="39" x2="221" y1="583" y2="583"/><line style="stroke: #D4AC0D; stroke-width: 1.5;" x1="39" x2="221" y1="591" y2="591"/><ellipse cx="49" cy="602" fill="#84BE84" rx="3" ry="3" style="stroke: #038048; stroke-width: 1.0;"/><text fill="#000000" font-family="sans-serif" font-size="11" lengthAdjust="spacingAndGlyphs" textLength="109" x="58" y="606.4189">String getPluginName()</text><ellipse cx="49" cy="615.8359" fill="#84BE84" rx="3" ry="3" style="stroke: #038048; stroke-width: 1.0;"/><text fill="#000000" font-family="sans-serif" font-size="11" lengthAdjust="spacingAndGlyphs" textLength="158" x="58" y="620.2549">ReaderPlugin getPluginInstance()</text><!--MD5=[a0e88443257adb8def549c32ec694d43]
class ReaderPlugin--><rect fill="#FEFECE" height="172.5234" id="ReaderPlugin" style="stroke: #D4AC0D; stroke-width: 1.5;" width="256" x="302" y="502.5"/><ellipse cx="382.25" cy="518.5" fill="#B4A7E5" rx="11" ry="11" style="stroke: #B4A7E5; stroke-width: 1.0;"/><path d="M383.25,515.5 L383.25,521.5 L385.25,521.5 L385.7344,521.5 L386.25,522.125 L386.25,522.5 L386.25,522.875 L385.7344,523.5 L385.25,523.5 L379.25,523.5 L378.7656,523.5 L378.25,522.875 L378.25,522.5 L378.25,522.125 L378.7656,521.5 L379.25,521.5 L381.25,521.5 L381.25,515.5 L379.25,515.5 L378.7656,515.5 L378.25,514.875 L378.25,514.5 L378.25,514.125 L378.7656,513.5 L379.25,513.5 L385.25,513.5 L385.7344,513.5 L386.25,514.125 L386.25,514.5 L386.25,514.875 L385.7344,515.5 L385.25,515.5 L383.25,515.5 Z "/><ellipse cx="407.75" cy="518" fill="#84BE84" rx="3" ry="3" style="stroke: #038048; stroke-width: 1.0;"/><text fill="#000000" font-family="sans-serif" font-size="12" font-style="italic" lengthAdjust="spacingAndGlyphs" textLength="76" x="413.75" y="523.4102">ReaderPlugin</text><line style="stroke: #D4AC0D; stroke-width: 1.5;" x1="303" x2="557" y1="534.5" y2="534.5"/><line style="stroke: #D4AC0D; stroke-width: 1.5;" x1="303" x2="557" y1="542.5" y2="542.5"/><ellipse cx="313" cy="553.5" fill="#84BE84" rx="3" ry="3" style="stroke: #038048; stroke-width: 1.0;"/><text fill="#000000" font-family="sans-serif" font-size="11" lengthAdjust="spacingAndGlyphs" textLength="81" x="322" y="557.9189">String getName()</text><text fill="#000000" font-family="sans-serif" font-size="11" lengthAdjust="spacingAndGlyphs" textLength="0" x="325" y="571.7549"/><ellipse cx="313" cy="581.1719" fill="#84BE84" rx="3" ry="3" style="stroke: #038048; stroke-width: 1.0;"/><text fill="#000000" font-family="sans-serif" font-size="11" lengthAdjust="spacingAndGlyphs" textLength="175" x="322" y="585.5908">Map&lt;String, String&gt; getParameters()</text><ellipse cx="313" cy="595.0078" fill="#84BE84" rx="3" ry="3" style="stroke: #038048; stroke-width: 1.0;"/><text fill="#000000" font-family="sans-serif" font-size="11" lengthAdjust="spacingAndGlyphs" textLength="183" x="322" y="599.4268">setParameter(String key, String value)</text><ellipse cx="313" cy="608.8438" fill="#84BE84" rx="3" ry="3" style="stroke: #038048; stroke-width: 1.0;"/><text fill="#000000" font-family="sans-serif" font-size="11" lengthAdjust="spacingAndGlyphs" textLength="230" x="322" y="613.2627">setParameters(Map&lt;String, String&gt; parameters)</text><text fill="#000000" font-family="sans-serif" font-size="11" lengthAdjust="spacingAndGlyphs" textLength="0" x="325" y="627.0986"/><ellipse cx="313" cy="636.5156" fill="#84BE84" rx="3" ry="3" style="stroke: #038048; stroke-width: 1.0;"/><text fill="#000000" font-family="sans-serif" font-size="11" lengthAdjust="spacingAndGlyphs" textLength="181" x="322" y="640.9346">Map&lt;String, SeReader&gt; getReaders()</text><ellipse cx="313" cy="650.3516" fill="#84BE84" rx="3" ry="3" style="stroke: #038048; stroke-width: 1.0;"/><text fill="#000000" font-family="sans-serif" font-size="11" lengthAdjust="spacingAndGlyphs" textLength="150" x="322" y="654.7705">Set&lt;String&gt; getReaderNames()</text><ellipse cx="313" cy="664.1875" fill="#84BE84" rx="3" ry="3" style="stroke: #038048; stroke-width: 1.0;"/><text fill="#000000" font-family="sans-serif" font-size="11" lengthAdjust="spacingAndGlyphs" textLength="166" x="322" y="668.6064">SeReader getReader(String name)</text><!--MD5=[dd49942b1f02350b5568646d3da64c49]
class SeReader--><rect fill="#FEFECE" height="186.3594" id="SeReader" style="stroke: #D4AC0D; stroke-width: 1.5;" width="340" x="638" y="496"/><ellipse cx="770.25" cy="512" fill="#B4A7E5" rx="11" ry="11" style="stroke: #B4A7E5; stroke-width: 1.0;"/><path d="M771.25,509 L771.25,515 L773.25,515 L773.7344,515 L774.25,515.625 L774.25,516 L774.25,516.375 L773.7344,517 L773.25,517 L767.25,517 L766.7656,517 L766.25,516.375 L766.25,516 L766.25,515.625 L766.7656,515 L767.25,515 L769.25,515 L769.25,509 L767.25,509 L766.7656,509 L766.25,508.375 L766.25,508 L766.25,507.625 L766.7656,507 L767.25,507 L773.25,507 L773.7344,507 L774.25,507.625 L774.25,508 L774.25,508.375 L773.7344,509 L773.25,509 L771.25,509 Z "/><ellipse cx="795.75" cy="511.5" fill="#84BE84" rx="3" ry="3" style="stroke: #038048; stroke-width: 1.0;"/><text fill="#000000" font-family="sans-serif" font-size="12" font-style="italic" lengthAdjust="spacingAndGlyphs" textLength="56" x="801.75" y="516.9102">SeReader</text><line style="stroke: #D4AC0D; stroke-width: 1.5;" x1="639" x2="977" y1="528" y2="528"/><line style="stroke: #D4AC0D; stroke-width: 1.5;" x1="639" x2="977" y1="536" y2="536"/><ellipse cx="649" cy="547" fill="#84BE84" rx="3" ry="3" style="stroke: #038048; stroke-width: 1.0;"/><text fill="#000000" font-family="sans-serif" font-size="11" lengthAdjust="spacingAndGlyphs" textLength="81" x="658" y="551.4189">String getName()</text><text fill="#000000" font-family="sans-serif" font-size="11" lengthAdjust="spacingAndGlyphs" textLength="0" x="661" y="565.2549"/><ellipse cx="649" cy="574.6719" fill="#84BE84" rx="3" ry="3" style="stroke: #038048; stroke-width: 1.0;"/><text fill="#000000" font-family="sans-serif" font-size="11" lengthAdjust="spacingAndGlyphs" textLength="175" x="658" y="579.0908">Map&lt;String, String&gt; getParameters()</text><ellipse cx="649" cy="588.5078" fill="#84BE84" rx="3" ry="3" style="stroke: #038048; stroke-width: 1.0;"/><text fill="#000000" font-family="sans-serif" font-size="11" lengthAdjust="spacingAndGlyphs" textLength="183" x="658" y="592.9268">setParameter(String key, String value)</text><ellipse cx="649" cy="602.3438" fill="#84BE84" rx="3" ry="3" style="stroke: #038048; stroke-width: 1.0;"/><text fill="#000000" font-family="sans-serif" font-size="11" lengthAdjust="spacingAndGlyphs" textLength="230" x="658" y="606.7627">setParameters(Map&lt;String, String&gt; parameters)</text><text fill="#000000" font-family="sans-serif" font-size="11" lengthAdjust="spacingAndGlyphs" textLength="0" x="661" y="620.5986"/><ellipse cx="649" cy="630.0156" fill="#84BE84" rx="3" ry="3" style="stroke: #038048; stroke-width: 1.0;"/><text fill="#000000" font-family="sans-serif" font-size="11" lengthAdjust="spacingAndGlyphs" textLength="107" x="658" y="634.4346">boolean isSePresent()</text><ellipse cx="649" cy="643.8516" fill="#84BE84" rx="3" ry="3" style="stroke: #038048; stroke-width: 1.0;"/><text fill="#000000" font-family="sans-serif" font-size="11" lengthAdjust="spacingAndGlyphs" textLength="314" x="658" y="648.2705">addSeProtocolSetting(SeProtocol seProtocol, String protocolRule)</text><ellipse cx="649" cy="657.6875" fill="#84BE84" rx="3" ry="3" style="stroke: #038048; stroke-width: 1.0;"/><text fill="#000000" font-family="sans-serif" font-size="11" lengthAdjust="spacingAndGlyphs" textLength="301" x="658" y="662.1064">setSeProtocolSetting(Map&lt;SeProtocol, String&gt; protocolSetting)</text><ellipse cx="649" cy="671.5234" fill="#84BE84" rx="3" ry="3" style="stroke: #038048; stroke-width: 1.0;"/><text fill="#000000" font-family="sans-serif" font-size="11" lengthAdjust="spacingAndGlyphs" textLength="206" x="658" y="675.9424">TransmissionMode getTransmissionMode()</text><!--MD5=[273228bd21fa37477fe0813cbe95870a]
class SpecificPluginFactory--><rect fill="#FEFECE" height="75.6719" id="SpecificPluginFactory" style="stroke: #D4AC0D; stroke-width: 1.5;" width="187" x="83.5" y="802"/><ellipse cx="98.5" cy="818" fill="#ADD1B2" rx="11" ry="11" style="stroke: #ADD1B2; stroke-width: 1.0;"/><path d="M100.5,814.5 Q100.7031,814 100.9375,813.75 Q101.1719,813.5 101.4375,813.5 Q101.9063,813.5 102.2031,813.7813 Q102.5,814.0625 102.5,814.7188 L102.5,816.2813 Q102.5,816.9375 102.2188,817.2188 Q101.9375,817.5 101.5,817.5 Q101.1094,817.5 100.8594,817.3281 Q100.6094,817.1563 100.5,816.7031 Q100.4531,816.3906 100.2813,816.2188 Q99.9688,815.8906 99.4063,815.7031 Q98.8438,815.5 98.2813,815.5 Q97.5781,815.5 96.9844,815.7813 Q96.4063,816.0625 95.9531,816.6875 Q95.5,817.3125 95.5,818.1719 L95.5,819.0938 Q95.5,820.125 96.3438,820.8125 Q97.1875,821.5 98.6875,821.5 Q99.5781,821.5 100.2031,821.2969 Q100.5625,821.1875 100.9688,820.8281 Q101.2344,820.625 101.375,820.5625 Q101.5156,820.5 101.6875,820.5 Q102.0156,820.5 102.25,820.7656 Q102.5,821.0156 102.5,821.375 Q102.5,821.7188 102.1563,822.125 Q101.6563,822.7188 100.8594,823.0469 Q99.8125,823.5 98.5313,823.5 Q97.0313,823.5 95.8281,822.9063 Q94.8594,822.4375 94.1719,821.4219 Q93.5,820.4063 93.5,819.2031 L93.5,818.1094 Q93.5,816.8594 94.0938,815.7656 Q94.7031,814.6719 95.75,814.0938 Q96.8125,813.5 98,813.5 Q98.7188,813.5 99.3438,813.75 Q99.9688,814 100.5,814.5 Z "/><ellipse cx="117.5" cy="817.5" fill="#84BE84" rx="3" ry="3" style="stroke: #038048; stroke-width: 1.0;"/><text fill="#000000" font-family="sans-serif" font-size="12" font-weight="bold" lengthAdjust="spacingAndGlyphs" textLength="24" x="123.5" y="822.9102">final</text><text fill="#000000" font-family="sans-serif" font-size="12" lengthAdjust="spacingAndGlyphs" textLength="117" x="150.5" y="822.9102">SpecificPluginFactory</text><line style="stroke: #D4AC0D; stroke-width: 1.5;" x1="84.5" x2="269.5" y1="834" y2="834"/><line style="stroke: #D4AC0D; stroke-width: 1.5;" x1="84.5" x2="269.5" y1="842" y2="842"/><polygon fill="#FFFF44" points="94.5,848,98.5,852,94.5,856,90.5,852" style="stroke: #B38D22; stroke-width: 1.0;"/><text fill="#000000" font-family="sans-serif" font-size="11" lengthAdjust="spacingAndGlyphs" textLength="109" x="103.5" y="857.4189">String getPluginName()</text><polygon fill="#FFFF44" points="94.5,861.8359,98.5,865.8359,94.5,869.8359,90.5,865.8359" style="stroke: #B38D22; stroke-width: 1.0;"/><text fill="#000000" font-family="sans-serif" font-size="11" lengthAdjust="spacingAndGlyphs" textLength="158" x="103.5" y="871.2549">ReaderPlugin getPluginInstance()</text><!--MD5=[0f8b8cab079f94c46492aeaa0dde1551]
class SpecificPlugin--><rect fill="#FEFECE" height="111.5313" id="SpecificPlugin" style="stroke: #D4AC0D; stroke-width: 1.5;" width="160" x="350" y="784"/><ellipse cx="382.55" cy="804.0938" fill="#ADD1B2" rx="11" ry="11" style="stroke: #ADD1B2; stroke-width: 1.0;"/><path d="M384.55,800.5938 Q384.7531,800.0938 384.9875,799.8438 Q385.2219,799.5938 385.4875,799.5938 Q385.9563,799.5938 386.2531,799.875 Q386.55,800.1563 386.55,800.8125 L386.55,802.375 Q386.55,803.0313 386.2688,803.3125 Q385.9875,803.5938 385.55,803.5938 Q385.1594,803.5938 384.9094,803.4219 Q384.6594,803.25 384.55,802.7969 Q384.5031,802.4844 384.3313,802.3125 Q384.0188,801.9844 383.4563,801.7969 Q382.8938,801.5938 382.3313,801.5938 Q381.6281,801.5938 381.0344,801.875 Q380.4563,802.1563 380.0031,802.7813 Q379.55,803.4063 379.55,804.2656 L379.55,805.1875 Q379.55,806.2188 380.3938,806.9063 Q381.2375,807.5938 382.7375,807.5938 Q383.6281,807.5938 384.2531,807.3906 Q384.6125,807.2813 385.0188,806.9219 Q385.2844,806.7188 385.425,806.6563 Q385.5656,806.5938 385.7375,806.5938 Q386.0656,806.5938 386.3,806.8594 Q386.55,807.1094 386.55,807.4688 Q386.55,807.8125 386.2063,808.2188 Q385.7063,808.8125 384.9094,809.1406 Q383.8625,809.5938 382.5813,809.5938 Q381.0813,809.5938 379.8781,809 Q378.9094,808.5313 378.2219,807.5156 Q377.55,806.5 377.55,805.2969 L377.55,804.2031 Q377.55,802.9531 378.1438,801.8594 Q378.7531,800.7656 379.8,800.1875 Q380.8625,799.5938 382.05,799.5938 Q382.7688,799.5938 383.3938,799.8438 Q384.0188,800.0938 384.55,800.5938 Z "/><text fill="#000000" font-family="sans-serif" font-size="12" font-style="italic" lengthAdjust="spacingAndGlyphs" textLength="66" x="411.95" y="801.457">«Singleton»</text><polygon fill="#4177AF" points="405.45,807.1406,401.45,813.1406,409.45,813.1406" style="stroke: #1963A0; stroke-width: 1.0;"/><text fill="#000000" font-family="sans-serif" font-size="12" lengthAdjust="spacingAndGlyphs" textLength="78" x="411.45" y="816.5508">SpecificPlugin</text><line style="stroke: #D4AC0D; stroke-width: 1.5;" x1="351" x2="509" y1="824.1875" y2="824.1875"/><rect fill="none" height="6" style="stroke: #C82930; stroke-width: 1.0;" width="6" x="358" y="832.1875"/><text fill="#000000" font-family="sans-serif" font-size="11" lengthAdjust="spacingAndGlyphs" textLength="57" x="370" y="839.6064">String name</text><line style="stroke: #D4AC0D; stroke-width: 1.5;" x1="351" x2="509" y1="846.0234" y2="846.0234"/><rect fill="#F24D5C" height="6" style="stroke: #C82930; stroke-width: 1.0;" width="6" x="358" y="854.0234"/><text fill="#000000" font-family="sans-serif" font-size="11" lengthAdjust="spacingAndGlyphs" textLength="75" x="370" y="861.4424">SpecificPlugin()</text><ellipse cx="361" cy="870.8594" fill="#84BE84" rx="3" ry="3" style="stroke: #038048; stroke-width: 1.0;"/><text fill="#000000" font-family="sans-serif" font-size="11" lengthAdjust="spacingAndGlyphs" text-decoration="underline" textLength="134" x="370" y="875.2783">SpecificPlugin getInstance()</text><ellipse cx="361" cy="884.6953" fill="#84BE84" rx="3" ry="3" style="stroke: #038048; stroke-width: 1.0;"/><text fill="#000000" font-family="sans-serif" font-size="11" font-weight="bold" lengthAdjust="spacingAndGlyphs" textLength="23" x="370" y="889.1143">final</text><text fill="#000000" font-family="sans-serif" font-size="11" lengthAdjust="spacingAndGlyphs" textLength="81" x="396" y="889.1143">String getName()</text><!--MD5=[4ab0a37e4eea002adccb7015b38062eb]
class SpecificReader--><rect fill="#FEFECE" height="89.5078" id="SpecificReader" style="stroke: #D4AC0D; stroke-width: 1.5;" width="133" x="589.5" y="795"/><ellipse cx="607.2" cy="811" fill="#ADD1B2" rx="11" ry="11" style="stroke: #ADD1B2; stroke-width: 1.0;"/><path d="M609.2,807.5 Q609.4031,807 609.6375,806.75 Q609.8719,806.5 610.1375,806.5 Q610.6063,806.5 610.9031,806.7813 Q611.2,807.0625 611.2,807.7188 L611.2,809.2813 Q611.2,809.9375 610.9188,810.2188 Q610.6375,810.5 610.2,810.5 Q609.8094,810.5 609.5594,810.3281 Q609.3094,810.1563 609.2,809.7031 Q609.1531,809.3906 608.9813,809.2188 Q608.6688,808.8906 608.1063,808.7031 Q607.5438,808.5 606.9813,808.5 Q606.2781,808.5 605.6844,808.7813 Q605.1063,809.0625 604.6531,809.6875 Q604.2,810.3125 604.2,811.1719 L604.2,812.0938 Q604.2,813.125 605.0438,813.8125 Q605.8875,814.5 607.3875,814.5 Q608.2781,814.5 608.9031,814.2969 Q609.2625,814.1875 609.6688,813.8281 Q609.9344,813.625 610.075,813.5625 Q610.2156,813.5 610.3875,813.5 Q610.7156,813.5 610.95,813.7656 Q611.2,814.0156 611.2,814.375 Q611.2,814.7188 610.8563,815.125 Q610.3563,815.7188 609.5594,816.0469 Q608.5125,816.5 607.2313,816.5 Q605.7313,816.5 604.5281,815.9063 Q603.5594,815.4375 602.8719,814.4219 Q602.2,813.4063 602.2,812.2031 L602.2,811.1094 Q602.2,809.8594 602.7938,808.7656 Q603.4031,807.6719 604.45,807.0938 Q605.5125,806.5 606.7,806.5 Q607.4188,806.5 608.0438,806.75 Q608.6688,807 609.2,807.5 Z "/><polygon fill="#4177AF" points="626.8,806.5,622.8,812.5,630.8,812.5" style="stroke: #1963A0; stroke-width: 1.0;"/><text fill="#000000" font-family="sans-serif" font-size="12" lengthAdjust="spacingAndGlyphs" textLength="84" x="632.8" y="815.9102">SpecificReader</text><line style="stroke: #D4AC0D; stroke-width: 1.5;" x1="590.5" x2="721.5" y1="827" y2="827"/><rect fill="none" height="6" style="stroke: #C82930; stroke-width: 1.0;" width="6" x="597.5" y="835"/><text fill="#000000" font-family="sans-serif" font-size="11" lengthAdjust="spacingAndGlyphs" textLength="57" x="609.5" y="842.4189">String name</text><line style="stroke: #D4AC0D; stroke-width: 1.5;" x1="590.5" x2="721.5" y1="848.8359" y2="848.8359"/><polygon fill="#FFFF44" points="600.5,854.8359,604.5,858.8359,600.5,862.8359,596.5,858.8359" style="stroke: #B38D22; stroke-width: 1.0;"/><text fill="#000000" font-family="sans-serif" font-size="11" lengthAdjust="spacingAndGlyphs" textLength="82" x="609.5" y="864.2549">SpecificReader()</text><ellipse cx="600.5" cy="873.6719" fill="#84BE84" rx="3" ry="3" style="stroke: #038048; stroke-width: 1.0;"/><text fill="#000000" font-family="sans-serif" font-size="11" font-weight="bold" lengthAdjust="spacingAndGlyphs" textLength="23" x="609.5" y="878.0908">final</text><text fill="#000000" font-family="sans-serif" font-size="11" lengthAdjust="spacingAndGlyphs" textLength="81" x="635.5" y="878.0908">String getName()</text><!--MD5=[98fb93546a7dc75f66b7a26283e02bb5]
link SeProxyService to ReaderPlugin--><path d="M297.0931,427.4537 C297.0931,427.4537 333.746,471.728 350.866,492.408 " fill="none" id="SeProxyService-ReaderPlugin" style="stroke: #A80036; stroke-width: 1.0;"/><polygon fill="#A80036" points="359.17,502.44,356.5115,492.9567,355.9814,498.5887,350.3494,498.0586,359.17,502.44" style="stroke: #A80036; stroke-width: 1.0;"/><line style="stroke: #A80036; stroke-width: 1.0;" x1="355.9814" x2="350.8805" y1="498.5887" y2="492.4265"/><polygon fill="#A80036" points="289.441,418.21,290.1858,425.3825,297.0931,427.4537,296.3483,420.2811,289.441,418.21" style="stroke: #A80036; stroke-width: 1.0;"/><text fill="#000000" font-family="sans-serif" font-size="13" lengthAdjust="spacingAndGlyphs" textLength="41" x="325" y="462.4951">plugins</text><text fill="#000000" font-family="sans-serif" font-size="13" lengthAdjust="spacingAndGlyphs" textLength="7" x="288.4585" y="439.9444">1</text><text fill="#000000" font-family="sans-serif" font-size="13" lengthAdjust="spacingAndGlyphs" textLength="5" x="347.639" y="491.5502">*</text><!--MD5=[c88fac8de0d16551763276c4b9088a93]
link ReaderPlugin to SeReader--><path d="M570.237,589 C570.237,589 606.769,589 624.744,589 " fill="none" id="ReaderPlugin-SeReader" style="stroke: #A80036; stroke-width: 1.0;"/><polygon fill="#A80036" points="637.812,589,628.812,585,632.812,589,628.812,593,637.812,589" style="stroke: #A80036; stroke-width: 1.0;"/><line style="stroke: #A80036; stroke-width: 1.0;" x1="632.812" x2="624.812" y1="589" y2="589"/><polygon fill="#A80036" points="558.237,589,564.237,593,570.237,589,564.237,585,558.237,589" style="stroke: #A80036; stroke-width: 1.0;"/><text fill="#000000" font-family="sans-serif" font-size="13" lengthAdjust="spacingAndGlyphs" textLength="43" x="576.5" y="582.4951">readers</text><text fill="#000000" font-family="sans-serif" font-size="13" lengthAdjust="spacingAndGlyphs" textLength="7" x="565.853" y="586.0566">1</text><text fill="#000000" font-family="sans-serif" font-size="13" lengthAdjust="spacingAndGlyphs" textLength="5" x="624.9871" y="586.1324">*</text><!--MD5=[ac58f1a34eb5ab4662271d4b6552ae6b]
link SeProxyService to PluginFactory--><path d="M172.8842,429.792 C172.8842,429.792 151.686,507.996 143.533,538.076 " fill="none" id="SeProxyService-PluginFactory" style="stroke: #A80036; stroke-width: 1.0;"/><polygon fill="#A80036" points="140.093,550.764,146.3085,543.1241,141.4012,545.9382,138.5872,541.0309,140.093,550.764" style="stroke: #A80036; stroke-width: 1.0;"/><line style="stroke: #A80036; stroke-width: 1.0;" x1="141.4012" x2="143.4945" y1="545.9382" y2="538.2175"/><polygon fill="#A80036" points="176.024,418.21,170.5935,422.9544,172.8842,429.792,178.3148,425.0476,176.024,418.21" style="stroke: #A80036; stroke-width: 1.0;"/><text fill="#000000" font-family="sans-serif" font-size="13" lengthAdjust="spacingAndGlyphs" textLength="50" x="168" y="462.4951">registers</text><text fill="#000000" font-family="sans-serif" font-size="13" lengthAdjust="spacingAndGlyphs" textLength="7" x="166.7125" y="439.9444">1</text><text fill="#000000" font-family="sans-serif" font-size="13" lengthAdjust="spacingAndGlyphs" textLength="5" x="136.4455" y="540.0839">*</text><!--MD5=[8119e6da521221a00c7048597420cfa4]
link PluginFactory to ReaderPlugin--><path d="M222.049,589 C245.705,589 271.633,589 296.912,589 " fill="none" id="PluginFactory-&gt;ReaderPlugin" style="stroke: #A80036; stroke-width: 1.0;"/><polygon fill="#A80036" points="301.958,589,292.958,585,296.958,589,292.958,593,301.958,589" style="stroke: #A80036; stroke-width: 1.0;"/><text fill="#000000" font-family="sans-serif" font-size="13" lengthAdjust="spacingAndGlyphs" textLength="43" x="240.5" y="582.4951">creates</text><text fill="#000000" font-family="sans-serif" font-size="13" lengthAdjust="spacingAndGlyphs" textLength="7" x="229.9617" y="585.8608">1</text><text fill="#000000" font-family="sans-serif" font-size="13" lengthAdjust="spacingAndGlyphs" textLength="7" x="286.9422" y="586.0328">1</text><!--MD5=[606af266cb1c3ee5489afec7c4e81055]
link SpecificPluginFactory to SpecificPlugin--><path d="M270.848,840 C295.005,840 320.868,840 344.572,840 " fill="none" id="SpecificPluginFactory-&gt;SpecificPlugin" style="stroke: #A80036; stroke-width: 1.0;"/><polygon fill="#A80036" points="349.596,840,340.596,836,344.596,840,340.596,844,349.596,840" style="stroke: #A80036; stroke-width: 1.0;"/><text fill="#000000" font-family="sans-serif" font-size="13" lengthAdjust="spacingAndGlyphs" textLength="43" x="288.75" y="833.4951">creates</text><text fill="#000000" font-family="sans-serif" font-size="13" lengthAdjust="spacingAndGlyphs" textLength="7" x="278.6054" y="836.8847">1</text><text fill="#000000" font-family="sans-serif" font-size="13" lengthAdjust="spacingAndGlyphs" textLength="7" x="335.1233" y="836.8191">1</text><!--MD5=[c0f848f1ce686e4cacbc8a0551faf0fe]
link SpecificPlugin to SpecificReader--><path d="M522.315,840 C522.315,840 559.219,840 576.27,840 " fill="none" id="SpecificPlugin-SpecificReader" style="stroke: #A80036; stroke-width: 1.0;"/><polygon fill="#A80036" points="589.367,840,580.367,836,584.367,840,580.367,844,589.367,840" style="stroke: #A80036; stroke-width: 1.0;"/><line style="stroke: #A80036; stroke-width: 1.0;" x1="584.367" x2="576.367" y1="840" y2="839.9999"/><polygon fill="#A80036" points="510.315,840,516.315,844,522.315,840,516.315,836,510.315,840" style="stroke: #A80036; stroke-width: 1.0;"/><text fill="#000000" font-family="sans-serif" font-size="13" lengthAdjust="spacingAndGlyphs" textLength="43" x="528.25" y="833.4951">readers</text><text fill="#000000" font-family="sans-serif" font-size="13" lengthAdjust="spacingAndGlyphs" textLength="7" x="518.0417" y="836.7954">1</text><text fill="#000000" font-family="sans-serif" font-size="13" lengthAdjust="spacingAndGlyphs" textLength="5" x="576.3735" y="836.6189">*</text><!--MD5=[f8c43c6217b3f7a11e63ade92879ea46]
link SpecificTerminal to SeProxyService--><path d="M204,108.117 C204,131.154 204,168.243 204,204.576 " fill="none" id="SpecificTerminal-&gt;SeProxyService" style="stroke: #A80036; stroke-width: 1.0;"/><polygon fill="#A80036" points="204,209.929,208,200.929,204,204.929,200,200.929,204,209.929" style="stroke: #A80036; stroke-width: 1.0;"/><text fill="#000000" font-family="sans-serif" font-size="13" lengthAdjust="spacingAndGlyphs" textLength="28" x="205" y="154.4951">uses</text><polygon fill="#000000" points="214.5,163.3516,217.5,169.3516,220.5,163.3516,214.5,163.3516" style="stroke: #000000; stroke-width: 1.0;"/><!--MD5=[136abeb6498542290e7ac248186897f6]
reverse link PluginFactory to SpecificPluginFactory--><path d="M140.707,646.722 C149.679,694.257 162.231,760.753 169.976,801.788 " fill="none" id="PluginFactory&lt;-SpecificPluginFactory" style="stroke: #A80036; stroke-width: 1.0; stroke-dasharray: 7.0,7.0;"/><polygon fill="none" points="133.817,647.96,136.986,627.009,147.574,645.364,133.817,647.96" style="stroke: #A80036; stroke-width: 1.0;"/><text fill="#000000" font-family="sans-serif" font-size="13" lengthAdjust="spacingAndGlyphs" textLength="67" x="158" y="728.4951">implements</text><!--MD5=[7c148b1c73f50606d6f270d6e2289f39]
reverse link ReaderPlugin to SpecificPlugin--><path d="M430,695.848 C430,726.191 430,758.046 430,783.983 " fill="none" id="ReaderPlugin&lt;-SpecificPlugin" style="stroke: #A80036; stroke-width: 1.0; stroke-dasharray: 7.0,7.0;"/><polygon fill="none" points="423,695.692,430,675.692,437,695.692,423,695.692" style="stroke: #A80036; stroke-width: 1.0;"/><text fill="#000000" font-family="sans-serif" font-size="13" lengthAdjust="spacingAndGlyphs" textLength="67" x="431" y="728.4951">implements</text><!--MD5=[4afba5938fcadf10f22a5ff47d317fb7]
reverse link SeReader to SpecificReader--><path d="M741.216,699.403 C720.693,733.023 699.26,768.134 683.023,794.733 " fill="none" id="SeReader&lt;-SpecificReader" style="stroke: #A80036; stroke-width: 1.0; stroke-dasharray: 7.0,7.0;"/><polygon fill="none" points="735.437,695.434,751.833,682.011,747.387,702.729,735.437,695.434" style="stroke: #A80036; stroke-width: 1.0;"/><text fill="#000000" font-family="sans-serif" font-size="13" lengthAdjust="spacingAndGlyphs" textLength="67" x="733" y="728.4951">implements</text><!--MD5=[3ce4bdc0a58355db93a14e09b0fe45df]
@startuml
skinparam ClassBorderColor #D4AC0D
skinparam stereotypeABorderColor #A9DCDF
skinparam stereotypeIBorderColor #B4A7E5
skinparam stereotypeCBorderColor #ADD1B2
skinparam stereotypeEBorderColor #EB93DF
skinparam shadowing false

skinparam StateBorderColor #D4AC0D
skinparam ActivityBorderColor #D4AC0D

skinparam ClassBackgroundColor<<red>> #FDEDEC
skinparam ClassBorderColor<<red>> #E74C3C
hide <<red>> stereotype
skinparam ClassBackgroundColor<<purple>> #F4ECF7
skinparam ClassBorderColor<<purple>> #8E44AD
hide <<purple>> stereotype
skinparam ClassBackgroundColor<<blue>> #EBF5FB
skinparam ClassBorderColor<<blue>> #3498DB
hide <<blue>> stereotype
skinparam ClassBackgroundColor<<green>> #EAFAF1
skinparam ClassBorderColor<<green>> #2ECC71
hide <<green>> stereotype

skinparam ClassBackgroundColor<<orange>> #FDF2E9
skinparam ClassBorderColor<<orange>> #E67E22
hide <<orange>> stereotype

skinparam ClassBackgroundColor<<grey>> #EAECEE
skinparam ClassBorderColor<<grey>> #2C3E50
hide <<grey>> stereotype

package external.terminalapplication #3399FF {
  class SpecificTerminal
}

package org.eclipse.keyple.core.seproxy #FFFFFF {
+class "<b>final</b> SeProxyService" as SeProxyService << Singleton >> {
  -<b>final</b> {static}SeProxyService uniqueInstance
  -<b>final</b> ConcurrentMap<String, ReaderPlugin> plugins
  +{static}SeProxyService getInstance()
  +String getVersion()

  +ReaderPlugin registerPlugin(PluginFactory pluginFactory)
  +boolean isRegistered(String pluginName)
  +boolean unregisterPlugin(String pluginName)

  +ReaderPlugin getPlugin(String name)
  +ConcurrentMap<String, ReaderPlugin> getPlugins()
}
+interface PluginFactory {
  +String getPluginName()
  +ReaderPlugin getPluginInstance()
}
+interface ReaderPlugin {
  +String getName()

  +Map<String, String> getParameters()
  +setParameter(String key, String value)
  +setParameters(Map<String, String> parameters)

  +Map<String, SeReader> getReaders()
  +Set<String> getReaderNames()
  +SeReader getReader(String name)
}
+interface SeReader {
  +String getName()

  +Map<String, String> getParameters()
  +setParameter(String key, String value)
  +setParameters(Map<String, String> parameters)

  +boolean isSePresent()
  +addSeProtocolSetting(SeProtocol seProtocol, String protocolRule)
  +setSeProtocolSetting(Map<SeProtocol, String> protocolSetting)
  +TransmissionMode getTransmissionMode()
}

  SeProxyService "1" *-down-> "*" ReaderPlugin : plugins
  ReaderPlugin "1" *-right-> "*" SeReader : readers

  SeProxyService "1" *- -> "*" PluginFactory : registers
  PluginFactory "1" -right-> "1" ReaderPlugin : creates
}

package plugin.specific #D7BDE2 {
  +class "<b>final</b> SpecificPluginFactory" as SpecificPluginFactory {
    #String getPluginName()
    #ReaderPlugin getPluginInstance()
  }

  ~class SpecificPlugin << Singleton >> {
    -String name
    -SpecificPlugin()
    +{static} SpecificPlugin getInstance()
    +<b>final</b> String getName()
  }

  ~class SpecificReader {
    -String name
    #SpecificReader()
    +<b>final</b> String getName()
  }

  SpecificPluginFactory "1" -right-> "1" SpecificPlugin : creates
  SpecificPlugin "1" *-right-> "*" SpecificReader : readers
}

SpecificTerminal -down-> SeProxyService : uses >

PluginFactory <|.down. SpecificPluginFactory : implements
ReaderPlugin <|.. SpecificPlugin : implements
SeReader <|.. SpecificReader : implements
@enduml

PlantUML version 1.2020.09(Sun May 10 14:51:06 MUT 2020)
(GPL source distribution)
Java Runtime: OpenJDK Runtime Environment
JVM: OpenJDK 64-Bit Server VM
Java Version: 11.0.7+10-b765.64
Operating System: Windows 10
Default Encoding: Cp1252
Language: fr
Country: FR
--></g></svg>