<?xml version="1.0" encoding="UTF-8" standalone="no"?><svg xmlns="http://www.w3.org/2000/svg" xmlns:xlink="http://www.w3.org/1999/xlink" contentScriptType="application/ecmascript" contentStyleType="text/css" height="801px" preserveAspectRatio="none" style="width:1092px;height:801px;" version="1.1" viewBox="0 0 1092 801" width="1092px" zoomAndPan="magnify"><defs/><g><!--MD5=[2bcc54f38766b998c5e88efdbc7d1696]
cluster org.eclipse.keyple.core.seproxy--><polygon fill="#FFFFFF" points="22,24,253,24,260,47.6094,1070,47.6094,1070,789,22,789,22,24" style="stroke: #000000; stroke-width: 1.5;"/><line style="stroke: #000000; stroke-width: 1.5;" x1="22" x2="260" y1="47.6094" y2="47.6094"/><text fill="#000000" font-family="sans-serif" font-size="14" font-weight="bold" lengthAdjust="spacingAndGlyphs" textLength="225" x="26" y="40.5332">org.eclipse.keyple.core.seproxy</text><!--MD5=[2e31800f208179cab94650aeb782e4d8]
cluster event--><polygon fill="#FFFFFF" points="324,513,371,513,378,536.6094,1046,536.6094,1046,765,324,765,324,513" style="stroke: #000000; stroke-width: 1.5;"/><line style="stroke: #000000; stroke-width: 1.5;" x1="324" x2="378" y1="536.6094" y2="536.6094"/><text fill="#000000" font-family="sans-serif" font-size="14" font-weight="bold" lengthAdjust="spacingAndGlyphs" textLength="41" x="328" y="529.5332">event</text><!--MD5=[f0c44d4c6fb415056b2c0aabd573961b]
class SeProxyService--><rect fill="#FEFECE" height="208.3828" id="SeProxyService" style="stroke: #D4AC0D; stroke-width: 1.5;" width="298" x="156" y="60"/><ellipse cx="239.75" cy="80.0938" fill="#ADD1B2" rx="11" ry="11" style="stroke: #ADD1B2; stroke-width: 1.0;"/><path d="M241.75,76.5938 Q241.9531,76.0938 242.1875,75.8438 Q242.4219,75.5938 242.6875,75.5938 Q243.1563,75.5938 243.4531,75.875 Q243.75,76.1563 243.75,76.8125 L243.75,78.375 Q243.75,79.0313 243.4688,79.3125 Q243.1875,79.5938 242.75,79.5938 Q242.3594,79.5938 242.1094,79.4219 Q241.8594,79.25 241.75,78.7969 Q241.7031,78.4844 241.5313,78.3125 Q241.2188,77.9844 240.6563,77.7969 Q240.0938,77.5938 239.5313,77.5938 Q238.8281,77.5938 238.2344,77.875 Q237.6563,78.1563 237.2031,78.7813 Q236.75,79.4063 236.75,80.2656 L236.75,81.1875 Q236.75,82.2188 237.5938,82.9063 Q238.4375,83.5938 239.9375,83.5938 Q240.8281,83.5938 241.4531,83.3906 Q241.8125,83.2813 242.2188,82.9219 Q242.4844,82.7188 242.625,82.6563 Q242.7656,82.5938 242.9375,82.5938 Q243.2656,82.5938 243.5,82.8594 Q243.75,83.1094 243.75,83.4688 Q243.75,83.8125 243.4063,84.2188 Q242.9063,84.8125 242.1094,85.1406 Q241.0625,85.5938 239.7813,85.5938 Q238.2813,85.5938 237.0781,85 Q236.1094,84.5313 235.4219,83.5156 Q234.75,82.5 234.75,81.2969 L234.75,80.2031 Q234.75,78.9531 235.3438,77.8594 Q235.9531,76.7656 237,76.1875 Q238.0625,75.5938 239.25,75.5938 Q239.9688,75.5938 240.5938,75.8438 Q241.2188,76.0938 241.75,76.5938 Z "/><text fill="#000000" font-family="sans-serif" font-size="12" font-style="italic" lengthAdjust="spacingAndGlyphs" textLength="66" x="288.25" y="77.457">«Singleton»</text><ellipse cx="265.25" cy="87.1406" fill="#84BE84" rx="3" ry="3" style="stroke: #038048; stroke-width: 1.0;"/><text fill="#000000" font-family="sans-serif" font-size="12" font-weight="bold" lengthAdjust="spacingAndGlyphs" textLength="24" x="271.25" y="92.5508">final</text><text fill="#000000" font-family="sans-serif" font-size="12" lengthAdjust="spacingAndGlyphs" textLength="84" x="298.25" y="92.5508">SeProxyService</text><line style="stroke: #D4AC0D; stroke-width: 1.5;" x1="157" x2="453" y1="100.1875" y2="100.1875"/><rect fill="none" height="6" style="stroke: #C82930; stroke-width: 1.0;" width="6" x="164" y="108.1875"/><text fill="#000000" font-family="sans-serif" font-size="11" font-weight="bold" lengthAdjust="spacingAndGlyphs" text-decoration="underline" textLength="23" x="176" y="115.6064">final</text><text fill="#000000" font-family="sans-serif" font-size="11" lengthAdjust="spacingAndGlyphs" text-decoration="underline" textLength="154" x="202" y="115.6064">SeProxyService uniqueInstance</text><rect fill="none" height="6" style="stroke: #C82930; stroke-width: 1.0;" width="6" x="164" y="122.0234"/><text fill="#000000" font-family="sans-serif" font-size="11" font-weight="bold" lengthAdjust="spacingAndGlyphs" textLength="23" x="176" y="129.4424">final</text><text fill="#000000" font-family="sans-serif" font-size="11" lengthAdjust="spacingAndGlyphs" textLength="220" x="202" y="129.4424">ConcurrentMap&lt;String, ReaderPlugin&gt; plugins</text><line style="stroke: #D4AC0D; stroke-width: 1.5;" x1="157" x2="453" y1="135.8594" y2="135.8594"/><ellipse cx="167" cy="146.8594" fill="#84BE84" rx="3" ry="3" style="stroke: #038048; stroke-width: 1.0;"/><text fill="#000000" font-family="sans-serif" font-size="11" lengthAdjust="spacingAndGlyphs" text-decoration="underline" textLength="145" x="176" y="151.2783">SeProxyService getInstance()</text><ellipse cx="167" cy="160.6953" fill="#84BE84" rx="3" ry="3" style="stroke: #038048; stroke-width: 1.0;"/><text fill="#000000" font-family="sans-serif" font-size="11" lengthAdjust="spacingAndGlyphs" textLength="92" x="176" y="165.1143">String getVersion()</text><text fill="#000000" font-family="sans-serif" font-size="11" lengthAdjust="spacingAndGlyphs" textLength="0" x="179" y="178.9502"/><ellipse cx="167" cy="188.3672" fill="#84BE84" rx="3" ry="3" style="stroke: #038048; stroke-width: 1.0;"/><text fill="#000000" font-family="sans-serif" font-size="11" lengthAdjust="spacingAndGlyphs" textLength="272" x="176" y="192.7861">ReaderPlugin registerPlugin(PluginFactory pluginFactory)</text><ellipse cx="167" cy="202.2031" fill="#84BE84" rx="3" ry="3" style="stroke: #038048; stroke-width: 1.0;"/><text fill="#000000" font-family="sans-serif" font-size="11" lengthAdjust="spacingAndGlyphs" textLength="195" x="176" y="206.6221">boolean isRegistered(String pluginName)</text><ellipse cx="167" cy="216.0391" fill="#84BE84" rx="3" ry="3" style="stroke: #038048; stroke-width: 1.0;"/><text fill="#000000" font-family="sans-serif" font-size="11" lengthAdjust="spacingAndGlyphs" textLength="212" x="176" y="220.458">boolean unregisterPlugin(String pluginName)</text><text fill="#000000" font-family="sans-serif" font-size="11" lengthAdjust="spacingAndGlyphs" textLength="0" x="179" y="234.2939"/><ellipse cx="167" cy="243.7109" fill="#84BE84" rx="3" ry="3" style="stroke: #038048; stroke-width: 1.0;"/><text fill="#000000" font-family="sans-serif" font-size="11" lengthAdjust="spacingAndGlyphs" textLength="174" x="176" y="248.1299">ReaderPlugin getPlugin(String name)</text><ellipse cx="167" cy="257.5469" fill="#84BE84" rx="3" ry="3" style="stroke: #038048; stroke-width: 1.0;"/><text fill="#000000" font-family="sans-serif" font-size="11" lengthAdjust="spacingAndGlyphs" textLength="243" x="176" y="261.9658">ConcurrentMap&lt;String, ReaderPlugin&gt; getPlugins()</text><!--MD5=[f32ad7e99aabd41d9b4c18d27e28445d]
class ProxyElement--><rect fill="#FEFECE" height="117.1797" id="ProxyElement" style="stroke: #D4AC0D; stroke-width: 1.5;" width="256" x="514" y="105.5"/><ellipse cx="593.75" cy="121.5" fill="#B4A7E5" rx="11" ry="11" style="stroke: #B4A7E5; stroke-width: 1.0;"/><path d="M594.75,118.5 L594.75,124.5 L596.75,124.5 L597.2344,124.5 L597.75,125.125 L597.75,125.5 L597.75,125.875 L597.2344,126.5 L596.75,126.5 L590.75,126.5 L590.2656,126.5 L589.75,125.875 L589.75,125.5 L589.75,125.125 L590.2656,124.5 L590.75,124.5 L592.75,124.5 L592.75,118.5 L590.75,118.5 L590.2656,118.5 L589.75,117.875 L589.75,117.5 L589.75,117.125 L590.2656,116.5 L590.75,116.5 L596.75,116.5 L597.2344,116.5 L597.75,117.125 L597.75,117.5 L597.75,117.875 L597.2344,118.5 L596.75,118.5 L594.75,118.5 Z "/><polygon fill="#4177AF" points="619.25,117,615.25,123,623.25,123" style="stroke: #1963A0; stroke-width: 1.0;"/><text fill="#000000" font-family="sans-serif" font-size="12" font-style="italic" lengthAdjust="spacingAndGlyphs" textLength="77" x="625.25" y="126.4102">ProxyElement</text><line style="stroke: #D4AC0D; stroke-width: 1.5;" x1="515" x2="769" y1="137.5" y2="137.5"/><line style="stroke: #D4AC0D; stroke-width: 1.5;" x1="515" x2="769" y1="145.5" y2="145.5"/><ellipse cx="525" cy="156.5" fill="#84BE84" rx="3" ry="3" style="stroke: #038048; stroke-width: 1.0;"/><text fill="#000000" font-family="sans-serif" font-size="11" lengthAdjust="spacingAndGlyphs" textLength="81" x="534" y="160.9189">String getName()</text><text fill="#000000" font-family="sans-serif" font-size="11" lengthAdjust="spacingAndGlyphs" textLength="0" x="537" y="174.7549"/><ellipse cx="525" cy="184.1719" fill="#84BE84" rx="3" ry="3" style="stroke: #038048; stroke-width: 1.0;"/><text fill="#000000" font-family="sans-serif" font-size="11" lengthAdjust="spacingAndGlyphs" textLength="175" x="534" y="188.5908">Map&lt;String, String&gt; getParameters()</text><ellipse cx="525" cy="198.0078" fill="#84BE84" rx="3" ry="3" style="stroke: #038048; stroke-width: 1.0;"/><text fill="#000000" font-family="sans-serif" font-size="11" lengthAdjust="spacingAndGlyphs" textLength="183" x="534" y="202.4268">setParameter(String key, String value)</text><ellipse cx="525" cy="211.8438" fill="#84BE84" rx="3" ry="3" style="stroke: #038048; stroke-width: 1.0;"/><text fill="#000000" font-family="sans-serif" font-size="11" lengthAdjust="spacingAndGlyphs" textLength="230" x="534" y="216.2627">setParameters(Map&lt;String, String&gt; parameters)</text><!--MD5=[5c68026ea752d2e8f1e184b2d7c89ced]
class PluginFactory--><rect fill="#FEFECE" height="75.6719" id="PluginFactory" style="stroke: #D4AC0D; stroke-width: 1.5;" width="184" x="105" y="359.5"/><ellipse cx="149.75" cy="375.5" fill="#B4A7E5" rx="11" ry="11" style="stroke: #B4A7E5; stroke-width: 1.0;"/><path d="M150.75,372.5 L150.75,378.5 L152.75,378.5 L153.2344,378.5 L153.75,379.125 L153.75,379.5 L153.75,379.875 L153.2344,380.5 L152.75,380.5 L146.75,380.5 L146.2656,380.5 L145.75,379.875 L145.75,379.5 L145.75,379.125 L146.2656,378.5 L146.75,378.5 L148.75,378.5 L148.75,372.5 L146.75,372.5 L146.2656,372.5 L145.75,371.875 L145.75,371.5 L145.75,371.125 L146.2656,370.5 L146.75,370.5 L152.75,370.5 L153.2344,370.5 L153.75,371.125 L153.75,371.5 L153.75,371.875 L153.2344,372.5 L152.75,372.5 L150.75,372.5 Z "/><ellipse cx="175.25" cy="375" fill="#84BE84" rx="3" ry="3" style="stroke: #038048; stroke-width: 1.0;"/><text fill="#000000" font-family="sans-serif" font-size="12" font-style="italic" lengthAdjust="spacingAndGlyphs" textLength="75" x="181.25" y="380.4102">PluginFactory</text><line style="stroke: #D4AC0D; stroke-width: 1.5;" x1="106" x2="288" y1="391.5" y2="391.5"/><line style="stroke: #D4AC0D; stroke-width: 1.5;" x1="106" x2="288" y1="399.5" y2="399.5"/><ellipse cx="116" cy="410.5" fill="#84BE84" rx="3" ry="3" style="stroke: #038048; stroke-width: 1.0;"/><text fill="#000000" font-family="sans-serif" font-size="11" lengthAdjust="spacingAndGlyphs" textLength="109" x="125" y="414.9189">String getPluginName()</text><ellipse cx="116" cy="424.3359" fill="#84BE84" rx="3" ry="3" style="stroke: #038048; stroke-width: 1.0;"/><text fill="#000000" font-family="sans-serif" font-size="11" lengthAdjust="spacingAndGlyphs" textLength="158" x="125" y="428.7549">ReaderPlugin getPluginInstance()</text><!--MD5=[a0e88443257adb8def549c32ec694d43]
class ReaderPlugin--><rect fill="#F0FFFF" height="89.5078" id="ReaderPlugin" style="stroke: #0000FF; stroke-width: 1.5;" width="207" x="368.5" y="352.5"/><ellipse cx="424.25" cy="368.5" fill="#B4A7E5" rx="11" ry="11" style="stroke: #B4A7E5; stroke-width: 1.0;"/><path d="M425.25,365.5 L425.25,371.5 L427.25,371.5 L427.7344,371.5 L428.25,372.125 L428.25,372.5 L428.25,372.875 L427.7344,373.5 L427.25,373.5 L421.25,373.5 L420.7656,373.5 L420.25,372.875 L420.25,372.5 L420.25,372.125 L420.7656,371.5 L421.25,371.5 L423.25,371.5 L423.25,365.5 L421.25,365.5 L420.7656,365.5 L420.25,364.875 L420.25,364.5 L420.25,364.125 L420.7656,363.5 L421.25,363.5 L427.25,363.5 L427.7344,363.5 L428.25,364.125 L428.25,364.5 L428.25,364.875 L427.7344,365.5 L427.25,365.5 L425.25,365.5 Z "/><ellipse cx="449.75" cy="368" fill="#84BE84" rx="3" ry="3" style="stroke: #038048; stroke-width: 1.0;"/><text fill="#000000" font-family="sans-serif" font-size="12" font-style="italic" lengthAdjust="spacingAndGlyphs" textLength="76" x="455.75" y="373.4102">ReaderPlugin</text><line style="stroke: #0000FF; stroke-width: 1.5;" x1="369.5" x2="574.5" y1="384.5" y2="384.5"/><line style="stroke: #0000FF; stroke-width: 1.5;" x1="369.5" x2="574.5" y1="392.5" y2="392.5"/><ellipse cx="379.5" cy="403.5" fill="#84BE84" rx="3" ry="3" style="stroke: #038048; stroke-width: 1.0;"/><text fill="#000000" font-family="sans-serif" font-size="11" lengthAdjust="spacingAndGlyphs" textLength="181" x="388.5" y="407.9189">Map&lt;String, SeReader&gt; getReaders()</text><ellipse cx="379.5" cy="417.3359" fill="#84BE84" rx="3" ry="3" style="stroke: #038048; stroke-width: 1.0;"/><text fill="#000000" font-family="sans-serif" font-size="11" lengthAdjust="spacingAndGlyphs" textLength="150" x="388.5" y="421.7549">Set&lt;String&gt; getReaderNames()</text><ellipse cx="379.5" cy="431.1719" fill="#84BE84" rx="3" ry="3" style="stroke: #038048; stroke-width: 1.0;"/><text fill="#000000" font-family="sans-serif" font-size="11" lengthAdjust="spacingAndGlyphs" textLength="166" x="388.5" y="435.5908">SeReader getReader(String name)</text><!--MD5=[dd49942b1f02350b5568646d3da64c49]
class SeReader--><rect fill="#EEFFEE" height="103.3438" id="SeReader" style="stroke: #008000; stroke-width: 1.5;" width="340" x="655" y="346"/><ellipse cx="787.25" cy="362" fill="#B4A7E5" rx="11" ry="11" style="stroke: #B4A7E5; stroke-width: 1.0;"/><path d="M788.25,359 L788.25,365 L790.25,365 L790.7344,365 L791.25,365.625 L791.25,366 L791.25,366.375 L790.7344,367 L790.25,367 L784.25,367 L783.7656,367 L783.25,366.375 L783.25,366 L783.25,365.625 L783.7656,365 L784.25,365 L786.25,365 L786.25,359 L784.25,359 L783.7656,359 L783.25,358.375 L783.25,358 L783.25,357.625 L783.7656,357 L784.25,357 L790.25,357 L790.7344,357 L791.25,357.625 L791.25,358 L791.25,358.375 L790.7344,359 L790.25,359 L788.25,359 Z "/><ellipse cx="812.75" cy="361.5" fill="#84BE84" rx="3" ry="3" style="stroke: #038048; stroke-width: 1.0;"/><text fill="#000000" font-family="sans-serif" font-size="12" font-style="italic" lengthAdjust="spacingAndGlyphs" textLength="56" x="818.75" y="366.9102">SeReader</text><line style="stroke: #008000; stroke-width: 1.5;" x1="656" x2="994" y1="378" y2="378"/><line style="stroke: #008000; stroke-width: 1.5;" x1="656" x2="994" y1="386" y2="386"/><ellipse cx="666" cy="397" fill="#84BE84" rx="3" ry="3" style="stroke: #038048; stroke-width: 1.0;"/><text fill="#000000" font-family="sans-serif" font-size="11" lengthAdjust="spacingAndGlyphs" textLength="107" x="675" y="401.4189">boolean isSePresent()</text><ellipse cx="666" cy="410.8359" fill="#84BE84" rx="3" ry="3" style="stroke: #038048; stroke-width: 1.0;"/><text fill="#000000" font-family="sans-serif" font-size="11" lengthAdjust="spacingAndGlyphs" textLength="314" x="675" y="415.2549">addSeProtocolSetting(SeProtocol seProtocol, String protocolRule)</text><ellipse cx="666" cy="424.6719" fill="#84BE84" rx="3" ry="3" style="stroke: #038048; stroke-width: 1.0;"/><text fill="#000000" font-family="sans-serif" font-size="11" lengthAdjust="spacingAndGlyphs" textLength="301" x="675" y="429.0908">setSeProtocolSetting(Map&lt;SeProtocol, String&gt; protocolSetting)</text><ellipse cx="666" cy="438.5078" fill="#84BE84" rx="3" ry="3" style="stroke: #038048; stroke-width: 1.0;"/><text fill="#000000" font-family="sans-serif" font-size="11" lengthAdjust="spacingAndGlyphs" textLength="206" x="675" y="442.9268">TransmissionMode getTransmissionMode()</text><!--MD5=[ec495f5f6ae18812fb155b23e8e93f55]
class ReaderPoolPlugin--><rect fill="#F0FFFF" height="89.5078" id="ReaderPoolPlugin" style="stroke: #0000FF; stroke-width: 1.5;" width="267" x="38.5" y="604"/><ellipse cx="111.75" cy="620" fill="#B4A7E5" rx="11" ry="11" style="stroke: #B4A7E5; stroke-width: 1.0;"/><path d="M112.75,617 L112.75,623 L114.75,623 L115.2344,623 L115.75,623.625 L115.75,624 L115.75,624.375 L115.2344,625 L114.75,625 L108.75,625 L108.2656,625 L107.75,624.375 L107.75,624 L107.75,623.625 L108.2656,623 L108.75,623 L110.75,623 L110.75,617 L108.75,617 L108.2656,617 L107.75,616.375 L107.75,616 L107.75,615.625 L108.2656,615 L108.75,615 L114.75,615 L115.2344,615 L115.75,615.625 L115.75,616 L115.75,616.375 L115.2344,617 L114.75,617 L112.75,617 Z "/><ellipse cx="137.25" cy="619.5" fill="#84BE84" rx="3" ry="3" style="stroke: #038048; stroke-width: 1.0;"/><text fill="#000000" font-family="sans-serif" font-size="12" font-style="italic" lengthAdjust="spacingAndGlyphs" textLength="101" x="143.25" y="624.9102">ReaderPoolPlugin</text><line style="stroke: #0000FF; stroke-width: 1.5;" x1="39.5" x2="304.5" y1="636" y2="636"/><line style="stroke: #0000FF; stroke-width: 1.5;" x1="39.5" x2="304.5" y1="644" y2="644"/><ellipse cx="49.5" cy="655" fill="#84BE84" rx="3" ry="3" style="stroke: #038048; stroke-width: 1.0;"/><text fill="#000000" font-family="sans-serif" font-size="11" lengthAdjust="spacingAndGlyphs" textLength="236" x="58.5" y="659.4189">SortedSet&lt;String&gt; getReaderGroupReferences()</text><ellipse cx="49.5" cy="668.8359" fill="#84BE84" rx="3" ry="3" style="stroke: #038048; stroke-width: 1.0;"/><text fill="#000000" font-family="sans-serif" font-size="11" lengthAdjust="spacingAndGlyphs" textLength="241" x="58.5" y="673.2549">SeReader allocateReader(String groupReference)</text><ellipse cx="49.5" cy="682.6719" fill="#84BE84" rx="3" ry="3" style="stroke: #038048; stroke-width: 1.0;"/><text fill="#000000" font-family="sans-serif" font-size="11" lengthAdjust="spacingAndGlyphs" textLength="177" x="58.5" y="687.0908">releaseReader(SeReader seReader)</text><!--MD5=[1fa9a61019755e60a0cb03f0bc3590aa]
class ObservablePlugin--><rect fill="#F0FFFF" height="103.3438" id="ObservablePlugin" style="stroke: #0000FF; stroke-width: 1.5;" width="263" x="340.5" y="597.5"/><ellipse cx="412.25" cy="613.5" fill="#B4A7E5" rx="11" ry="11" style="stroke: #B4A7E5; stroke-width: 1.0;"/><path d="M413.25,610.5 L413.25,616.5 L415.25,616.5 L415.7344,616.5 L416.25,617.125 L416.25,617.5 L416.25,617.875 L415.7344,618.5 L415.25,618.5 L409.25,618.5 L408.7656,618.5 L408.25,617.875 L408.25,617.5 L408.25,617.125 L408.7656,616.5 L409.25,616.5 L411.25,616.5 L411.25,610.5 L409.25,610.5 L408.7656,610.5 L408.25,609.875 L408.25,609.5 L408.25,609.125 L408.7656,608.5 L409.25,608.5 L415.25,608.5 L415.7344,608.5 L416.25,609.125 L416.25,609.5 L416.25,609.875 L415.7344,610.5 L415.25,610.5 L413.25,610.5 Z "/><ellipse cx="437.75" cy="613" fill="#84BE84" rx="3" ry="3" style="stroke: #038048; stroke-width: 1.0;"/><text fill="#000000" font-family="sans-serif" font-size="12" font-style="italic" lengthAdjust="spacingAndGlyphs" textLength="100" x="443.75" y="618.4102">ObservablePlugin</text><line style="stroke: #0000FF; stroke-width: 1.5;" x1="341.5" x2="602.5" y1="629.5" y2="629.5"/><line style="stroke: #0000FF; stroke-width: 1.5;" x1="341.5" x2="602.5" y1="637.5" y2="637.5"/><ellipse cx="351.5" cy="648.5" fill="#84BE84" rx="3" ry="3" style="stroke: #038048; stroke-width: 1.0;"/><text fill="#000000" font-family="sans-serif" font-size="11" lengthAdjust="spacingAndGlyphs" textLength="68" x="360.5" y="652.9189">addObserver(</text><text fill="#000000" font-family="sans-serif" font-size="11" font-weight="bold" lengthAdjust="spacingAndGlyphs" textLength="23" x="428.5" y="652.9189">final</text><text fill="#000000" font-family="sans-serif" font-size="11" lengthAdjust="spacingAndGlyphs" textLength="125" x="454.5" y="652.9189">PluginObserver observer)</text><ellipse cx="351.5" cy="662.3359" fill="#84BE84" rx="3" ry="3" style="stroke: #038048; stroke-width: 1.0;"/><text fill="#000000" font-family="sans-serif" font-size="11" lengthAdjust="spacingAndGlyphs" textLength="86" x="360.5" y="666.7549">removeObserver(</text><text fill="#000000" font-family="sans-serif" font-size="11" font-weight="bold" lengthAdjust="spacingAndGlyphs" textLength="23" x="446.5" y="666.7549">final</text><text fill="#000000" font-family="sans-serif" font-size="11" lengthAdjust="spacingAndGlyphs" textLength="125" x="472.5" y="666.7549">PluginObserver observer)</text><ellipse cx="351.5" cy="676.1719" fill="#84BE84" rx="3" ry="3" style="stroke: #038048; stroke-width: 1.0;"/><text fill="#000000" font-family="sans-serif" font-size="11" lengthAdjust="spacingAndGlyphs" textLength="84" x="360.5" y="680.5908">clearObservers()</text><ellipse cx="351.5" cy="690.0078" fill="#84BE84" rx="3" ry="3" style="stroke: #038048; stroke-width: 1.0;"/><text fill="#000000" font-family="sans-serif" font-size="11" lengthAdjust="spacingAndGlyphs" textLength="101" x="360.5" y="694.4268">int countObservers()</text><!--MD5=[e2341a3d5316e117132fc49473ae3219]
class ObservableReader--><rect fill="#EEFFEE" height="200.1953" id="ObservableReader" style="stroke: #008000; stroke-width: 1.5;" width="391" x="638.5" y="549"/><ellipse cx="771.25" cy="565" fill="#B4A7E5" rx="11" ry="11" style="stroke: #B4A7E5; stroke-width: 1.0;"/><path d="M772.25,562 L772.25,568 L774.25,568 L774.7344,568 L775.25,568.625 L775.25,569 L775.25,569.375 L774.7344,570 L774.25,570 L768.25,570 L767.7656,570 L767.25,569.375 L767.25,569 L767.25,568.625 L767.7656,568 L768.25,568 L770.25,568 L770.25,562 L768.25,562 L767.7656,562 L767.25,561.375 L767.25,561 L767.25,560.625 L767.7656,560 L768.25,560 L774.25,560 L774.7344,560 L775.25,560.625 L775.25,561 L775.25,561.375 L774.7344,562 L774.25,562 L772.25,562 Z "/><ellipse cx="796.75" cy="564.5" fill="#84BE84" rx="3" ry="3" style="stroke: #038048; stroke-width: 1.0;"/><text fill="#000000" font-family="sans-serif" font-size="12" font-style="italic" lengthAdjust="spacingAndGlyphs" textLength="106" x="802.75" y="569.9102">ObservableReader</text><line style="stroke: #008000; stroke-width: 1.5;" x1="639.5" x2="1028.5" y1="581" y2="581"/><line style="stroke: #008000; stroke-width: 1.5;" x1="639.5" x2="1028.5" y1="589" y2="589"/><ellipse cx="649.5" cy="600" fill="#84BE84" rx="3" ry="3" style="stroke: #038048; stroke-width: 1.0;"/><text fill="#000000" font-family="sans-serif" font-size="11" lengthAdjust="spacingAndGlyphs" textLength="68" x="658.5" y="604.4189">addObserver(</text><text fill="#000000" font-family="sans-serif" font-size="11" font-weight="bold" lengthAdjust="spacingAndGlyphs" textLength="23" x="726.5" y="604.4189">final</text><text fill="#000000" font-family="sans-serif" font-size="11" lengthAdjust="spacingAndGlyphs" textLength="132" x="752.5" y="604.4189">ReaderObserver observer)</text><ellipse cx="649.5" cy="613.8359" fill="#84BE84" rx="3" ry="3" style="stroke: #038048; stroke-width: 1.0;"/><text fill="#000000" font-family="sans-serif" font-size="11" lengthAdjust="spacingAndGlyphs" textLength="86" x="658.5" y="618.2549">removeObserver(</text><text fill="#000000" font-family="sans-serif" font-size="11" font-weight="bold" lengthAdjust="spacingAndGlyphs" textLength="23" x="744.5" y="618.2549">final</text><text fill="#000000" font-family="sans-serif" font-size="11" lengthAdjust="spacingAndGlyphs" textLength="132" x="770.5" y="618.2549">ReaderObserver observer)</text><ellipse cx="649.5" cy="627.6719" fill="#84BE84" rx="3" ry="3" style="stroke: #038048; stroke-width: 1.0;"/><text fill="#000000" font-family="sans-serif" font-size="11" lengthAdjust="spacingAndGlyphs" textLength="84" x="658.5" y="632.0908">clearObservers()</text><ellipse cx="649.5" cy="641.5078" fill="#84BE84" rx="3" ry="3" style="stroke: #038048; stroke-width: 1.0;"/><text fill="#000000" font-family="sans-serif" font-size="11" lengthAdjust="spacingAndGlyphs" textLength="101" x="658.5" y="645.9268">int countObservers()</text><text fill="#000000" font-family="sans-serif" font-size="11" lengthAdjust="spacingAndGlyphs" textLength="0" x="661.5" y="659.7627"/><ellipse cx="649.5" cy="669.1797" fill="#84BE84" rx="3" ry="3" style="stroke: #038048; stroke-width: 1.0;"/><text fill="#000000" font-family="sans-serif" font-size="11" lengthAdjust="spacingAndGlyphs" textLength="365" x="658.5" y="673.5986">setDefaultSelectionRequest(AbstractDefaultSelectionsRequest selectionsR,</text><text fill="#000000" font-family="sans-serif" font-size="11" lengthAdjust="spacingAndGlyphs" textLength="273" x="658.5" y="687.4346">NotificationMode notificationM, PollingMode[0..1] pollingM)</text><text fill="#000000" font-family="sans-serif" font-size="11" lengthAdjust="spacingAndGlyphs" textLength="0" x="661.5" y="701.2705"/><ellipse cx="649.5" cy="710.6875" fill="#84BE84" rx="3" ry="3" style="stroke: #038048; stroke-width: 1.0;"/><text fill="#000000" font-family="sans-serif" font-size="11" lengthAdjust="spacingAndGlyphs" textLength="203" x="658.5" y="715.1064">startSeDetection(PollingMode pollingMode)</text><ellipse cx="649.5" cy="724.5234" fill="#84BE84" rx="3" ry="3" style="stroke: #038048; stroke-width: 1.0;"/><text fill="#000000" font-family="sans-serif" font-size="11" lengthAdjust="spacingAndGlyphs" textLength="87" x="658.5" y="728.9424">stopSeDetection()</text><ellipse cx="649.5" cy="738.3594" fill="#84BE84" rx="3" ry="3" style="stroke: #038048; stroke-width: 1.0;"/><text fill="#000000" font-family="sans-serif" font-size="11" lengthAdjust="spacingAndGlyphs" textLength="109" x="658.5" y="742.7783">finalizeSeProcessing()</text><!--MD5=[ac58f1a34eb5ab4662271d4b6552ae6b]
link SeProxyService to PluginFactory--><path d="M251.7701,279.1 C251.7701,279.1 229.066,327.766 219.801,347.625 " fill="none" id="SeProxyService-PluginFactory" style="stroke: #A80036; stroke-width: 1.0;"/><polygon fill="#A80036" points="214.291,359.437,221.7216,352.9728,216.4054,354.9061,214.4721,349.5898,214.291,359.437" style="stroke: #A80036; stroke-width: 1.0;"/><line style="stroke: #A80036; stroke-width: 1.0;" x1="216.4054" x2="219.787" y1="354.9061" y2="347.656"/><polygon fill="#A80036" points="256.843,268.225,250.6816,271.9715,251.7701,279.1,257.9316,275.3535,256.843,268.225" style="stroke: #A80036; stroke-width: 1.0;"/><text fill="#000000" font-family="sans-serif" font-size="13" lengthAdjust="spacingAndGlyphs" textLength="50" x="243" y="312.4951">registers</text><text fill="#000000" font-family="sans-serif" font-size="13" lengthAdjust="spacingAndGlyphs" textLength="7" x="246.0494" y="289.9605">1</text><text fill="#000000" font-family="sans-serif" font-size="13" lengthAdjust="spacingAndGlyphs" textLength="5" x="212.0181" y="348.5019">*</text><!--MD5=[98fb93546a7dc75f66b7a26283e02bb5]
link SeProxyService to ReaderPlugin--><path d="M386.4847,277.9569 C386.4847,277.9569 418.765,322.705 432.386,341.586 " fill="none" id="SeProxyService-ReaderPlugin" style="stroke: #A80036; stroke-width: 1.0;"/><polygon fill="#A80036" points="440.137,352.331,438.1155,342.6918,437.2117,348.276,431.6275,347.3723,440.137,352.331" style="stroke: #A80036; stroke-width: 1.0;"/><line style="stroke: #A80036; stroke-width: 1.0;" x1="437.2117" x2="432.532" y1="348.276" y2="341.788"/><polygon fill="#A80036" points="379.464,268.225,379.7304,275.4312,386.4847,277.9569,386.2183,270.7507,379.464,268.225" style="stroke: #A80036; stroke-width: 1.0;"/><text fill="#000000" font-family="sans-serif" font-size="13" lengthAdjust="spacingAndGlyphs" textLength="41" x="414" y="312.4951">plugins</text><text fill="#000000" font-family="sans-serif" font-size="13" lengthAdjust="spacingAndGlyphs" textLength="7" x="377.6754" y="289.9605">1</text><text fill="#000000" font-family="sans-serif" font-size="13" lengthAdjust="spacingAndGlyphs" textLength="5" x="429.8752" y="341.7492">*</text><!--MD5=[8119e6da521221a00c7048597420cfa4]
link PluginFactory to ReaderPlugin--><path d="M289.336,397.5 C312.935,397.5 338.531,397.5 362.885,397.5 " fill="none" id="PluginFactory-&gt;ReaderPlugin" style="stroke: #A80036; stroke-width: 1.0;"/><polygon fill="#A80036" points="368.062,397.5,359.062,393.5,363.062,397.5,359.062,401.5,368.062,397.5" style="stroke: #A80036; stroke-width: 1.0;"/><text fill="#000000" font-family="sans-serif" font-size="13" lengthAdjust="spacingAndGlyphs" textLength="43" x="307.25" y="390.9951">creates</text><text fill="#000000" font-family="sans-serif" font-size="13" lengthAdjust="spacingAndGlyphs" textLength="7" x="296.9729" y="394.3847">1</text><text fill="#000000" font-family="sans-serif" font-size="13" lengthAdjust="spacingAndGlyphs" textLength="7" x="353.5078" y="394.4623">1</text><!--MD5=[c88fac8de0d16551763276c4b9088a93]
link ReaderPlugin to SeReader--><path d="M587.526,397.5 C587.526,397.5 623.616,397.5 641.659,397.5 " fill="none" id="ReaderPlugin-SeReader" style="stroke: #A80036; stroke-width: 1.0;"/><polygon fill="#A80036" points="654.803,397.5,645.803,393.5,649.803,397.5,645.803,401.5,654.803,397.5" style="stroke: #A80036; stroke-width: 1.0;"/><line style="stroke: #A80036; stroke-width: 1.0;" x1="649.803" x2="641.803" y1="397.5" y2="397.5"/><polygon fill="#A80036" points="575.526,397.5,581.526,401.5,587.526,397.5,581.526,393.5,575.526,397.5" style="stroke: #A80036; stroke-width: 1.0;"/><text fill="#000000" font-family="sans-serif" font-size="13" lengthAdjust="spacingAndGlyphs" textLength="43" x="593.75" y="390.9951">readers</text><text fill="#000000" font-family="sans-serif" font-size="13" lengthAdjust="spacingAndGlyphs" textLength="7" x="583.3857" y="394.4386">1</text><text fill="#000000" font-family="sans-serif" font-size="13" lengthAdjust="spacingAndGlyphs" textLength="5" x="641.9777" y="394.6328">*</text><!--MD5=[bc25a197e36279471f37427b8b5d69b0]
reverse link ReaderPlugin to ReaderPoolPlugin--><path d="M390.419,454.298 C368.419,470.123 344.926,487.753 324,505 C285.976,536.34 245.454,574.739 215.82,603.853 " fill="none" id="ReaderPlugin&lt;-ReaderPoolPlugin" style="stroke: #A80036; stroke-width: 1.0;"/><polygon fill="none" points="386.529,448.475,406.883,442.585,394.644,459.882,386.529,448.475" style="stroke: #A80036; stroke-width: 1.0;"/><text fill="#000000" font-family="sans-serif" font-size="13" lengthAdjust="spacingAndGlyphs" textLength="46" x="356" y="493.4951">extends</text><!--MD5=[a087c8f219181ff1dbe7adabc28b3231]
reverse link ReaderPlugin to ObservablePlugin--><path d="M472,462.565 C472,504.378 472,558.217 472,597.1 " fill="none" id="ReaderPlugin&lt;-ObservablePlugin" style="stroke: #A80036; stroke-width: 1.0;"/><polygon fill="none" points="465,462.531,472,442.531,479,462.531,465,462.531" style="stroke: #A80036; stroke-width: 1.0;"/><text fill="#000000" font-family="sans-serif" font-size="13" lengthAdjust="spacingAndGlyphs" textLength="46" x="473" y="493.4951">extends</text><!--MD5=[9bde350185f61a8992bbce085951af21]
reverse link SeReader to ObservableReader--><path d="M827.562,469.512 C828.451,494.175 829.466,522.302 830.422,548.819 " fill="none" id="SeReader&lt;-ObservableReader" style="stroke: #A80036; stroke-width: 1.0;"/><polygon fill="none" points="820.558,469.53,826.832,449.291,834.549,469.025,820.558,469.53" style="stroke: #A80036; stroke-width: 1.0;"/><text fill="#000000" font-family="sans-serif" font-size="13" lengthAdjust="spacingAndGlyphs" textLength="46" x="829" y="493.4951">extends</text><!--MD5=[6ff42eee2d93b23b3557b0570faf0c26]
reverse link ProxyElement to ReaderPlugin--><path d="M587.748,238.879 C560.307,276.247 527.924,320.344 504.399,352.38 " fill="none" id="ProxyElement&lt;-ReaderPlugin" style="stroke: #A80036; stroke-width: 1.0;"/><polygon fill="none" points="582.279,234.499,599.759,222.522,593.563,242.786,582.279,234.499" style="stroke: #A80036; stroke-width: 1.0;"/><text fill="#000000" font-family="sans-serif" font-size="13" lengthAdjust="spacingAndGlyphs" textLength="46" x="542" y="312.4951">extends</text><!--MD5=[e474867e38445a864bdbc7a2e090866a]
reverse link ProxyElement to SeReader--><path d="M700.209,238.636 C727.865,273.621 760.219,314.55 785.052,345.965 " fill="none" id="ProxyElement&lt;-SeReader" style="stroke: #A80036; stroke-width: 1.0;"/><polygon fill="none" points="694.382,242.553,687.471,222.522,705.365,233.871,694.382,242.553" style="stroke: #A80036; stroke-width: 1.0;"/><text fill="#000000" font-family="sans-serif" font-size="13" lengthAdjust="spacingAndGlyphs" textLength="46" x="761" y="312.4951">extends</text><!--MD5=[8215875691f16a78c3673c553753307f]
@startuml
skinparam ClassBorderColor #D4AC0D
skinparam stereotypeABorderColor #A9DCDF
skinparam stereotypeIBorderColor #B4A7E5
skinparam stereotypeCBorderColor #ADD1B2
skinparam stereotypeEBorderColor #EB93DF
skinparam shadowing false

skinparam StateBorderColor #D4AC0D
skinparam ActivityBorderColor #D4AC0D

skinparam ClassBackgroundColor<<red>> #FDEDEC
skinparam ClassBorderColor<<red>> #E74C3C
hide <<red>> stereotype
skinparam ClassBackgroundColor<<purple>> #F4ECF7
skinparam ClassBorderColor<<purple>> #8E44AD
hide <<purple>> stereotype
skinparam ClassBackgroundColor<<blue>> #EBF5FB
skinparam ClassBorderColor<<blue>> #3498DB
hide <<blue>> stereotype
skinparam ClassBackgroundColor<<green>> #EAFAF1
skinparam ClassBorderColor<<green>> #2ECC71
hide <<green>> stereotype

skinparam ClassBackgroundColor<<orange>> #FDF2E9
skinparam ClassBorderColor<<orange>> #E67E22
hide <<orange>> stereotype

skinparam ClassBackgroundColor<<grey>> #EAECEE
skinparam ClassBorderColor<<grey>> #2C3E50
hide <<grey>> stereotype

package org.eclipse.keyple.core.seproxy #FFFFFF {
+class "<b>final</b> SeProxyService" as SeProxyService << Singleton >> {
  -<b>final</b> {static}SeProxyService uniqueInstance
  -<b>final</b> ConcurrentMap<String, ReaderPlugin> plugins
  +{static}SeProxyService getInstance()
  +String getVersion()

  +ReaderPlugin registerPlugin(PluginFactory pluginFactory)
  +boolean isRegistered(String pluginName)
  +boolean unregisterPlugin(String pluginName)

  +ReaderPlugin getPlugin(String name)
  +ConcurrentMap<String, ReaderPlugin> getPlugins()
}
~interface ProxyElement {
  +String getName()

  +Map<String, String> getParameters()
  +setParameter(String key, String value)
  +setParameters(Map<String, String> parameters)
}

+interface PluginFactory {
  +String getPluginName()
  +ReaderPlugin getPluginInstance()
}
+interface ReaderPlugin {
  +Map<String, SeReader> getReaders()
  +Set<String> getReaderNames()
  +SeReader getReader(String name)
}
+interface SeReader {
  +boolean isSePresent()
  +addSeProtocolSetting(SeProtocol seProtocol, String protocolRule)
  +setSeProtocolSetting(Map<SeProtocol, String> protocolSetting)
  +TransmissionMode getTransmissionMode()
}

  SeProxyService "1" *- -> "*" PluginFactory : registers
  SeProxyService "1" *-down-> "*" ReaderPlugin : plugins
  PluginFactory "1" -right-> "1" ReaderPlugin : creates
  ReaderPlugin "1" *-right-> "*" SeReader : readers

+interface ReaderPoolPlugin {
  +SortedSet<String> getReaderGroupReferences()
  +SeReader allocateReader(String groupReference)
  +releaseReader(SeReader seReader)
}
  ReaderPlugin <|- - ReaderPoolPlugin : extends

  package event #FFFFFF {
+interface ObservablePlugin {
  +addObserver(<b>final</b> PluginObserver observer)
  +removeObserver(<b>final</b> PluginObserver observer)
  +clearObservers()
  +int countObservers()
}
+interface ObservableReader {
  +addObserver(<b>final</b> ReaderObserver observer)
  +removeObserver(<b>final</b> ReaderObserver observer)
  +clearObservers()
  +int countObservers()

  +setDefaultSelectionRequest(AbstractDefaultSelectionsRequest selectionsR,
    NotificationMode notificationM, PollingMode[0..1] pollingM)

  +startSeDetection(PollingMode pollingMode)
  +stopSeDetection()
  +finalizeSeProcessing()
}
  }
  ReaderPlugin <|- - ObservablePlugin : extends
  SeReader <|- - ObservableReader : extends
}

ProxyElement <|- - ReaderPlugin : extends
ProxyElement <|- - SeReader : extends

interface ReaderPlugin <<Plugin>>
interface ObservablePlugin <<Plugin>>
interface ReaderPoolPlugin <<Plugin>>
hide <<Plugin>> stereotype

interface SeReader <<Reader>>
interface ObservableReader <<Reader>>
hide <<Reader>> stereotype

skinparam class {
  BackgroundColor<<Plugin>> Azure
  BorderColor<<Plugin>> Blue
  BackgroundColor<<Reader>> #EEFFEE
  BorderColor<<Reader>> Green
}
@enduml

PlantUML version 1.2020.09(Sun May 10 14:51:06 MUT 2020)
(GPL source distribution)
Java Runtime: OpenJDK Runtime Environment
JVM: OpenJDK 64-Bit Server VM
Java Version: 11.0.7+10-b765.64
Operating System: Windows 10
Default Encoding: Cp1252
Language: fr
Country: FR
--></g></svg>