<?xml version="1.0" encoding="UTF-8" standalone="no"?><svg xmlns="http://www.w3.org/2000/svg" xmlns:xlink="http://www.w3.org/1999/xlink" contentScriptType="application/ecmascript" contentStyleType="text/css" height="1059px" preserveAspectRatio="none" style="width:1349px;height:1059px;" version="1.1" viewBox="0 0 1349 1059" width="1349px" zoomAndPan="magnify"><defs/><g><!--MD5=[2bcc54f38766b998c5e88efdbc7d1696]
cluster org.eclipse.keyple.core.seproxy--><polygon fill="#FFFFFF" points="22,24,253,24,260,47.6094,1327,47.6094,1327,1047,22,1047,22,24" style="stroke: #000000; stroke-width: 1.5;"/><line style="stroke: #000000; stroke-width: 1.5;" x1="22" x2="260" y1="47.6094" y2="47.6094"/><text fill="#000000" font-family="sans-serif" font-size="14" font-weight="bold" lengthAdjust="spacingAndGlyphs" textLength="225" x="26" y="40.5332">org.eclipse.keyple.core.seproxy</text><!--MD5=[59e9faf83e5ffb743ef5750f57e8e967]
cluster protocol--><polygon fill="#FFFFFF" points="355,68,420,68,427,91.6094,1303,91.6094,1303,457,355,457,355,68" style="stroke: #000000; stroke-width: 1.5;"/><line style="stroke: #000000; stroke-width: 1.5;" x1="355" x2="427" y1="91.6094" y2="91.6094"/><text fill="#000000" font-family="sans-serif" font-size="14" font-weight="bold" lengthAdjust="spacingAndGlyphs" textLength="59" x="359" y="84.5332">protocol</text><!--MD5=[2e31800f208179cab94650aeb782e4d8]
cluster event--><polygon fill="#FFFFFF" points="324,771,371,771,378,794.6094,1046,794.6094,1046,1023,324,1023,324,771" style="stroke: #000000; stroke-width: 1.5;"/><line style="stroke: #000000; stroke-width: 1.5;" x1="324" x2="378" y1="794.6094" y2="794.6094"/><text fill="#000000" font-family="sans-serif" font-size="14" font-weight="bold" lengthAdjust="spacingAndGlyphs" textLength="41" x="328" y="787.5332">event</text><!--MD5=[f0c44d4c6fb415056b2c0aabd573961b]
class SeProxyService--><rect fill="#FEFECE" height="208.3828" id="SeProxyService" style="stroke: #D4AC0D; stroke-width: 1.5;" width="298" x="38" y="168.5"/><ellipse cx="121.75" cy="188.5938" fill="#ADD1B2" rx="11" ry="11" style="stroke: #ADD1B2; stroke-width: 1.0;"/><path d="M123.75,185.0938 Q123.9531,184.5938 124.1875,184.3438 Q124.4219,184.0938 124.6875,184.0938 Q125.1563,184.0938 125.4531,184.375 Q125.75,184.6563 125.75,185.3125 L125.75,186.875 Q125.75,187.5313 125.4688,187.8125 Q125.1875,188.0938 124.75,188.0938 Q124.3594,188.0938 124.1094,187.9219 Q123.8594,187.75 123.75,187.2969 Q123.7031,186.9844 123.5313,186.8125 Q123.2188,186.4844 122.6563,186.2969 Q122.0938,186.0938 121.5313,186.0938 Q120.8281,186.0938 120.2344,186.375 Q119.6563,186.6563 119.2031,187.2813 Q118.75,187.9063 118.75,188.7656 L118.75,189.6875 Q118.75,190.7188 119.5938,191.4063 Q120.4375,192.0938 121.9375,192.0938 Q122.8281,192.0938 123.4531,191.8906 Q123.8125,191.7813 124.2188,191.4219 Q124.4844,191.2188 124.625,191.1563 Q124.7656,191.0938 124.9375,191.0938 Q125.2656,191.0938 125.5,191.3594 Q125.75,191.6094 125.75,191.9688 Q125.75,192.3125 125.4063,192.7188 Q124.9063,193.3125 124.1094,193.6406 Q123.0625,194.0938 121.7813,194.0938 Q120.2813,194.0938 119.0781,193.5 Q118.1094,193.0313 117.4219,192.0156 Q116.75,191 116.75,189.7969 L116.75,188.7031 Q116.75,187.4531 117.3438,186.3594 Q117.9531,185.2656 119,184.6875 Q120.0625,184.0938 121.25,184.0938 Q121.9688,184.0938 122.5938,184.3438 Q123.2188,184.5938 123.75,185.0938 Z "/><text fill="#000000" font-family="sans-serif" font-size="12" font-style="italic" lengthAdjust="spacingAndGlyphs" textLength="66" x="170.25" y="185.957">«Singleton»</text><ellipse cx="147.25" cy="195.6406" fill="#84BE84" rx="3" ry="3" style="stroke: #038048; stroke-width: 1.0;"/><text fill="#000000" font-family="sans-serif" font-size="12" font-weight="bold" lengthAdjust="spacingAndGlyphs" textLength="24" x="153.25" y="201.0508">final</text><text fill="#000000" font-family="sans-serif" font-size="12" lengthAdjust="spacingAndGlyphs" textLength="84" x="180.25" y="201.0508">SeProxyService</text><line style="stroke: #D4AC0D; stroke-width: 1.5;" x1="39" x2="335" y1="208.6875" y2="208.6875"/><rect fill="none" height="6" style="stroke: #C82930; stroke-width: 1.0;" width="6" x="46" y="216.6875"/><text fill="#000000" font-family="sans-serif" font-size="11" font-weight="bold" lengthAdjust="spacingAndGlyphs" text-decoration="underline" textLength="23" x="58" y="224.1064">final</text><text fill="#000000" font-family="sans-serif" font-size="11" lengthAdjust="spacingAndGlyphs" text-decoration="underline" textLength="154" x="84" y="224.1064">SeProxyService uniqueInstance</text><rect fill="none" height="6" style="stroke: #C82930; stroke-width: 1.0;" width="6" x="46" y="230.5234"/><text fill="#000000" font-family="sans-serif" font-size="11" font-weight="bold" lengthAdjust="spacingAndGlyphs" textLength="23" x="58" y="237.9424">final</text><text fill="#000000" font-family="sans-serif" font-size="11" lengthAdjust="spacingAndGlyphs" textLength="220" x="84" y="237.9424">ConcurrentMap&lt;String, ReaderPlugin&gt; plugins</text><line style="stroke: #D4AC0D; stroke-width: 1.5;" x1="39" x2="335" y1="244.3594" y2="244.3594"/><ellipse cx="49" cy="255.3594" fill="#84BE84" rx="3" ry="3" style="stroke: #038048; stroke-width: 1.0;"/><text fill="#000000" font-family="sans-serif" font-size="11" lengthAdjust="spacingAndGlyphs" text-decoration="underline" textLength="145" x="58" y="259.7783">SeProxyService getInstance()</text><ellipse cx="49" cy="269.1953" fill="#84BE84" rx="3" ry="3" style="stroke: #038048; stroke-width: 1.0;"/><text fill="#000000" font-family="sans-serif" font-size="11" lengthAdjust="spacingAndGlyphs" textLength="92" x="58" y="273.6143">String getVersion()</text><text fill="#000000" font-family="sans-serif" font-size="11" lengthAdjust="spacingAndGlyphs" textLength="0" x="61" y="287.4502"/><ellipse cx="49" cy="296.8672" fill="#84BE84" rx="3" ry="3" style="stroke: #038048; stroke-width: 1.0;"/><text fill="#000000" font-family="sans-serif" font-size="11" lengthAdjust="spacingAndGlyphs" textLength="272" x="58" y="301.2861">ReaderPlugin registerPlugin(PluginFactory pluginFactory)</text><ellipse cx="49" cy="310.7031" fill="#84BE84" rx="3" ry="3" style="stroke: #038048; stroke-width: 1.0;"/><text fill="#000000" font-family="sans-serif" font-size="11" lengthAdjust="spacingAndGlyphs" textLength="195" x="58" y="315.1221">boolean isRegistered(String pluginName)</text><ellipse cx="49" cy="324.5391" fill="#84BE84" rx="3" ry="3" style="stroke: #038048; stroke-width: 1.0;"/><text fill="#000000" font-family="sans-serif" font-size="11" lengthAdjust="spacingAndGlyphs" textLength="212" x="58" y="328.958">boolean unregisterPlugin(String pluginName)</text><text fill="#000000" font-family="sans-serif" font-size="11" lengthAdjust="spacingAndGlyphs" textLength="0" x="61" y="342.7939"/><ellipse cx="49" cy="352.2109" fill="#84BE84" rx="3" ry="3" style="stroke: #038048; stroke-width: 1.0;"/><text fill="#000000" font-family="sans-serif" font-size="11" lengthAdjust="spacingAndGlyphs" textLength="174" x="58" y="356.6299">ReaderPlugin getPlugin(String name)</text><ellipse cx="49" cy="366.0469" fill="#84BE84" rx="3" ry="3" style="stroke: #038048; stroke-width: 1.0;"/><text fill="#000000" font-family="sans-serif" font-size="11" lengthAdjust="spacingAndGlyphs" textLength="243" x="58" y="370.4658">ConcurrentMap&lt;String, ReaderPlugin&gt; getPlugins()</text><!--MD5=[5c68026ea752d2e8f1e184b2d7c89ced]
class PluginFactory--><rect fill="#FEFECE" height="75.6719" id="PluginFactory" style="stroke: #D4AC0D; stroke-width: 1.5;" width="184" x="38" y="576"/><ellipse cx="82.75" cy="592" fill="#B4A7E5" rx="11" ry="11" style="stroke: #B4A7E5; stroke-width: 1.0;"/><path d="M83.75,589 L83.75,595 L85.75,595 L86.2344,595 L86.75,595.625 L86.75,596 L86.75,596.375 L86.2344,597 L85.75,597 L79.75,597 L79.2656,597 L78.75,596.375 L78.75,596 L78.75,595.625 L79.2656,595 L79.75,595 L81.75,595 L81.75,589 L79.75,589 L79.2656,589 L78.75,588.375 L78.75,588 L78.75,587.625 L79.2656,587 L79.75,587 L85.75,587 L86.2344,587 L86.75,587.625 L86.75,588 L86.75,588.375 L86.2344,589 L85.75,589 L83.75,589 Z "/><ellipse cx="108.25" cy="591.5" fill="#84BE84" rx="3" ry="3" style="stroke: #038048; stroke-width: 1.0;"/><text fill="#000000" font-family="sans-serif" font-size="12" font-style="italic" lengthAdjust="spacingAndGlyphs" textLength="75" x="114.25" y="596.9102">PluginFactory</text><line style="stroke: #D4AC0D; stroke-width: 1.5;" x1="39" x2="221" y1="608" y2="608"/><line style="stroke: #D4AC0D; stroke-width: 1.5;" x1="39" x2="221" y1="616" y2="616"/><ellipse cx="49" cy="627" fill="#84BE84" rx="3" ry="3" style="stroke: #038048; stroke-width: 1.0;"/><text fill="#000000" font-family="sans-serif" font-size="11" lengthAdjust="spacingAndGlyphs" textLength="109" x="58" y="631.4189">String getPluginName()</text><ellipse cx="49" cy="640.8359" fill="#84BE84" rx="3" ry="3" style="stroke: #038048; stroke-width: 1.0;"/><text fill="#000000" font-family="sans-serif" font-size="11" lengthAdjust="spacingAndGlyphs" textLength="158" x="58" y="645.2549">ReaderPlugin getPluginInstance()</text><!--MD5=[a0e88443257adb8def549c32ec694d43]
class ReaderPlugin--><rect fill="#F0FFFF" height="172.5234" id="ReaderPlugin" style="stroke: #0000FF; stroke-width: 1.5;" width="256" x="302" y="527.5"/><ellipse cx="382.25" cy="543.5" fill="#B4A7E5" rx="11" ry="11" style="stroke: #B4A7E5; stroke-width: 1.0;"/><path d="M383.25,540.5 L383.25,546.5 L385.25,546.5 L385.7344,546.5 L386.25,547.125 L386.25,547.5 L386.25,547.875 L385.7344,548.5 L385.25,548.5 L379.25,548.5 L378.7656,548.5 L378.25,547.875 L378.25,547.5 L378.25,547.125 L378.7656,546.5 L379.25,546.5 L381.25,546.5 L381.25,540.5 L379.25,540.5 L378.7656,540.5 L378.25,539.875 L378.25,539.5 L378.25,539.125 L378.7656,538.5 L379.25,538.5 L385.25,538.5 L385.7344,538.5 L386.25,539.125 L386.25,539.5 L386.25,539.875 L385.7344,540.5 L385.25,540.5 L383.25,540.5 Z "/><ellipse cx="407.75" cy="543" fill="#84BE84" rx="3" ry="3" style="stroke: #038048; stroke-width: 1.0;"/><text fill="#000000" font-family="sans-serif" font-size="12" font-style="italic" lengthAdjust="spacingAndGlyphs" textLength="76" x="413.75" y="548.4102">ReaderPlugin</text><line style="stroke: #0000FF; stroke-width: 1.5;" x1="303" x2="557" y1="559.5" y2="559.5"/><line style="stroke: #0000FF; stroke-width: 1.5;" x1="303" x2="557" y1="567.5" y2="567.5"/><ellipse cx="313" cy="578.5" fill="#84BE84" rx="3" ry="3" style="stroke: #038048; stroke-width: 1.0;"/><text fill="#000000" font-family="sans-serif" font-size="11" lengthAdjust="spacingAndGlyphs" textLength="81" x="322" y="582.9189">String getName()</text><text fill="#000000" font-family="sans-serif" font-size="11" lengthAdjust="spacingAndGlyphs" textLength="0" x="325" y="596.7549"/><ellipse cx="313" cy="606.1719" fill="#84BE84" rx="3" ry="3" style="stroke: #038048; stroke-width: 1.0;"/><text fill="#000000" font-family="sans-serif" font-size="11" lengthAdjust="spacingAndGlyphs" textLength="175" x="322" y="610.5908">Map&lt;String, String&gt; getParameters()</text><ellipse cx="313" cy="620.0078" fill="#84BE84" rx="3" ry="3" style="stroke: #038048; stroke-width: 1.0;"/><text fill="#000000" font-family="sans-serif" font-size="11" lengthAdjust="spacingAndGlyphs" textLength="183" x="322" y="624.4268">setParameter(String key, String value)</text><ellipse cx="313" cy="633.8438" fill="#84BE84" rx="3" ry="3" style="stroke: #038048; stroke-width: 1.0;"/><text fill="#000000" font-family="sans-serif" font-size="11" lengthAdjust="spacingAndGlyphs" textLength="230" x="322" y="638.2627">setParameters(Map&lt;String, String&gt; parameters)</text><text fill="#000000" font-family="sans-serif" font-size="11" lengthAdjust="spacingAndGlyphs" textLength="0" x="325" y="652.0986"/><ellipse cx="313" cy="661.5156" fill="#84BE84" rx="3" ry="3" style="stroke: #038048; stroke-width: 1.0;"/><text fill="#000000" font-family="sans-serif" font-size="11" lengthAdjust="spacingAndGlyphs" textLength="181" x="322" y="665.9346">Map&lt;String, SeReader&gt; getReaders()</text><ellipse cx="313" cy="675.3516" fill="#84BE84" rx="3" ry="3" style="stroke: #038048; stroke-width: 1.0;"/><text fill="#000000" font-family="sans-serif" font-size="11" lengthAdjust="spacingAndGlyphs" textLength="150" x="322" y="679.7705">Set&lt;String&gt; getReaderNames()</text><ellipse cx="313" cy="689.1875" fill="#84BE84" rx="3" ry="3" style="stroke: #038048; stroke-width: 1.0;"/><text fill="#000000" font-family="sans-serif" font-size="11" lengthAdjust="spacingAndGlyphs" textLength="166" x="322" y="693.6064">SeReader getReader(String name)</text><!--MD5=[dd49942b1f02350b5568646d3da64c49]
class SeReader--><rect fill="#EEFFEE" height="186.3594" id="SeReader" style="stroke: #008000; stroke-width: 1.5;" width="340" x="638" y="521"/><ellipse cx="770.25" cy="537" fill="#B4A7E5" rx="11" ry="11" style="stroke: #B4A7E5; stroke-width: 1.0;"/><path d="M771.25,534 L771.25,540 L773.25,540 L773.7344,540 L774.25,540.625 L774.25,541 L774.25,541.375 L773.7344,542 L773.25,542 L767.25,542 L766.7656,542 L766.25,541.375 L766.25,541 L766.25,540.625 L766.7656,540 L767.25,540 L769.25,540 L769.25,534 L767.25,534 L766.7656,534 L766.25,533.375 L766.25,533 L766.25,532.625 L766.7656,532 L767.25,532 L773.25,532 L773.7344,532 L774.25,532.625 L774.25,533 L774.25,533.375 L773.7344,534 L773.25,534 L771.25,534 Z "/><ellipse cx="795.75" cy="536.5" fill="#84BE84" rx="3" ry="3" style="stroke: #038048; stroke-width: 1.0;"/><text fill="#000000" font-family="sans-serif" font-size="12" font-style="italic" lengthAdjust="spacingAndGlyphs" textLength="56" x="801.75" y="541.9102">SeReader</text><line style="stroke: #008000; stroke-width: 1.5;" x1="639" x2="977" y1="553" y2="553"/><line style="stroke: #008000; stroke-width: 1.5;" x1="639" x2="977" y1="561" y2="561"/><ellipse cx="649" cy="572" fill="#84BE84" rx="3" ry="3" style="stroke: #038048; stroke-width: 1.0;"/><text fill="#000000" font-family="sans-serif" font-size="11" lengthAdjust="spacingAndGlyphs" textLength="81" x="658" y="576.4189">String getName()</text><text fill="#000000" font-family="sans-serif" font-size="11" lengthAdjust="spacingAndGlyphs" textLength="0" x="661" y="590.2549"/><ellipse cx="649" cy="599.6719" fill="#84BE84" rx="3" ry="3" style="stroke: #038048; stroke-width: 1.0;"/><text fill="#000000" font-family="sans-serif" font-size="11" lengthAdjust="spacingAndGlyphs" textLength="175" x="658" y="604.0908">Map&lt;String, String&gt; getParameters()</text><ellipse cx="649" cy="613.5078" fill="#84BE84" rx="3" ry="3" style="stroke: #038048; stroke-width: 1.0;"/><text fill="#000000" font-family="sans-serif" font-size="11" lengthAdjust="spacingAndGlyphs" textLength="183" x="658" y="617.9268">setParameter(String key, String value)</text><ellipse cx="649" cy="627.3438" fill="#84BE84" rx="3" ry="3" style="stroke: #038048; stroke-width: 1.0;"/><text fill="#000000" font-family="sans-serif" font-size="11" lengthAdjust="spacingAndGlyphs" textLength="230" x="658" y="631.7627">setParameters(Map&lt;String, String&gt; parameters)</text><text fill="#000000" font-family="sans-serif" font-size="11" lengthAdjust="spacingAndGlyphs" textLength="0" x="661" y="645.5986"/><ellipse cx="649" cy="655.0156" fill="#84BE84" rx="3" ry="3" style="stroke: #038048; stroke-width: 1.0;"/><text fill="#000000" font-family="sans-serif" font-size="11" lengthAdjust="spacingAndGlyphs" textLength="107" x="658" y="659.4346">boolean isSePresent()</text><ellipse cx="649" cy="668.8516" fill="#84BE84" rx="3" ry="3" style="stroke: #038048; stroke-width: 1.0;"/><text fill="#000000" font-family="sans-serif" font-size="11" lengthAdjust="spacingAndGlyphs" textLength="314" x="658" y="673.2705">addSeProtocolSetting(SeProtocol seProtocol, String protocolRule)</text><ellipse cx="649" cy="682.6875" fill="#84BE84" rx="3" ry="3" style="stroke: #038048; stroke-width: 1.0;"/><text fill="#000000" font-family="sans-serif" font-size="11" lengthAdjust="spacingAndGlyphs" textLength="301" x="658" y="687.1064">setSeProtocolSetting(Map&lt;SeProtocol, String&gt; protocolSetting)</text><ellipse cx="649" cy="696.5234" fill="#84BE84" rx="3" ry="3" style="stroke: #038048; stroke-width: 1.0;"/><text fill="#000000" font-family="sans-serif" font-size="11" lengthAdjust="spacingAndGlyphs" textLength="206" x="658" y="700.9424">TransmissionMode getTransmissionMode()</text><!--MD5=[ec495f5f6ae18812fb155b23e8e93f55]
class ReaderPoolPlugin--><rect fill="#F0FFFF" height="89.5078" id="ReaderPoolPlugin" style="stroke: #0000FF; stroke-width: 1.5;" width="267" x="38.5" y="862"/><ellipse cx="111.75" cy="878" fill="#B4A7E5" rx="11" ry="11" style="stroke: #B4A7E5; stroke-width: 1.0;"/><path d="M112.75,875 L112.75,881 L114.75,881 L115.2344,881 L115.75,881.625 L115.75,882 L115.75,882.375 L115.2344,883 L114.75,883 L108.75,883 L108.2656,883 L107.75,882.375 L107.75,882 L107.75,881.625 L108.2656,881 L108.75,881 L110.75,881 L110.75,875 L108.75,875 L108.2656,875 L107.75,874.375 L107.75,874 L107.75,873.625 L108.2656,873 L108.75,873 L114.75,873 L115.2344,873 L115.75,873.625 L115.75,874 L115.75,874.375 L115.2344,875 L114.75,875 L112.75,875 Z "/><ellipse cx="137.25" cy="877.5" fill="#84BE84" rx="3" ry="3" style="stroke: #038048; stroke-width: 1.0;"/><text fill="#000000" font-family="sans-serif" font-size="12" font-style="italic" lengthAdjust="spacingAndGlyphs" textLength="101" x="143.25" y="882.9102">ReaderPoolPlugin</text><line style="stroke: #0000FF; stroke-width: 1.5;" x1="39.5" x2="304.5" y1="894" y2="894"/><line style="stroke: #0000FF; stroke-width: 1.5;" x1="39.5" x2="304.5" y1="902" y2="902"/><ellipse cx="49.5" cy="913" fill="#84BE84" rx="3" ry="3" style="stroke: #038048; stroke-width: 1.0;"/><text fill="#000000" font-family="sans-serif" font-size="11" lengthAdjust="spacingAndGlyphs" textLength="236" x="58.5" y="917.4189">SortedSet&lt;String&gt; getReaderGroupReferences()</text><ellipse cx="49.5" cy="926.8359" fill="#84BE84" rx="3" ry="3" style="stroke: #038048; stroke-width: 1.0;"/><text fill="#000000" font-family="sans-serif" font-size="11" lengthAdjust="spacingAndGlyphs" textLength="241" x="58.5" y="931.2549">SeReader allocateReader(String groupReference)</text><ellipse cx="49.5" cy="940.6719" fill="#84BE84" rx="3" ry="3" style="stroke: #038048; stroke-width: 1.0;"/><text fill="#000000" font-family="sans-serif" font-size="11" lengthAdjust="spacingAndGlyphs" textLength="177" x="58.5" y="945.0908">releaseReader(SeReader seReader)</text><!--MD5=[389c8dd8ff10073965d91444c463f0b3]
class TransmissionMode--><rect fill="#FEFECE" height="75.6719" id="TransmissionMode" style="stroke: #D4AC0D; stroke-width: 1.5;" width="150" x="371" y="234.5"/><ellipse cx="386" cy="250.5" fill="#EB937F" rx="11" ry="11" style="stroke: #EB93DF; stroke-width: 1.0;"/><path d="M384.5,251.5 L384.5,253.5 L388.5,253.5 L388.5,252.5 L388.5,252.0156 L389.125,251.5 L389.5,251.5 L389.875,251.5 L390.5,252.0156 L390.5,252.5 L390.5,255.5 L382.5,255.5 L382.0156,255.5 L381.5,254.875 L381.5,254.5 L381.5,254.125 L382.0156,253.5 L382.5,253.5 L382.5,253.5 L382.5,247.5 L382.5,247.5 L382.0156,247.5 L381.5,246.875 L381.5,246.5 L381.5,246.125 L382.0156,245.5 L382.5,245.5 L390.5,245.5 L390.5,248.5 L390.5,248.9844 L389.875,249.5 L389.5,249.5 L389.125,249.5 L388.5,248.9844 L388.5,248.5 L388.5,247.5 L384.5,247.5 L384.5,249.5 L385.5,249.5 L385.5,249.0156 L385.5,249.0156 L386.125,248.5 L386.5,248.5 L386.875,248.5 L387.5,249.0156 L387.5,249.5 L387.5,251.5 L387.5,251.9844 L386.875,252.5 L386.875,252.5 L386.5,252.5 L386.125,252.5 L385.5,251.9844 L385.5,251.9844 L385.5,251.5 L384.5,251.5 Z "/><ellipse cx="405" cy="250" fill="#84BE84" rx="3" ry="3" style="stroke: #038048; stroke-width: 1.0;"/><text fill="#000000" font-family="sans-serif" font-size="12" lengthAdjust="spacingAndGlyphs" textLength="107" x="411" y="255.4102">TransmissionMode</text><line style="stroke: #D4AC0D; stroke-width: 1.5;" x1="372" x2="520" y1="266.5" y2="266.5"/><text fill="#000000" font-family="sans-serif" font-size="11" lengthAdjust="spacingAndGlyphs" textLength="56" x="377" y="281.9189">CONTACTS</text><text fill="#000000" font-family="sans-serif" font-size="11" lengthAdjust="spacingAndGlyphs" textLength="75" x="377" y="295.7549">CONTACTLESS</text><line style="stroke: #D4AC0D; stroke-width: 1.5;" x1="372" x2="520" y1="302.1719" y2="302.1719"/><!--MD5=[029eeeb5f037d1cad7d1ad059afd3aa0]
class SeProtocol--><rect fill="#FEFECE" height="75.6719" id="SeProtocol" style="stroke: #D4AC0D; stroke-width: 1.5;" width="232" x="556" y="234.5"/><ellipse cx="632.25" cy="250.5" fill="#B4A7E5" rx="11" ry="11" style="stroke: #B4A7E5; stroke-width: 1.0;"/><path d="M633.25,247.5 L633.25,253.5 L635.25,253.5 L635.7344,253.5 L636.25,254.125 L636.25,254.5 L636.25,254.875 L635.7344,255.5 L635.25,255.5 L629.25,255.5 L628.7656,255.5 L628.25,254.875 L628.25,254.5 L628.25,254.125 L628.7656,253.5 L629.25,253.5 L631.25,253.5 L631.25,247.5 L629.25,247.5 L628.7656,247.5 L628.25,246.875 L628.25,246.5 L628.25,246.125 L628.7656,245.5 L629.25,245.5 L635.25,245.5 L635.7344,245.5 L636.25,246.125 L636.25,246.5 L636.25,246.875 L635.7344,247.5 L635.25,247.5 L633.25,247.5 Z "/><ellipse cx="657.75" cy="250" fill="#84BE84" rx="3" ry="3" style="stroke: #038048; stroke-width: 1.0;"/><text fill="#000000" font-family="sans-serif" font-size="12" font-style="italic" lengthAdjust="spacingAndGlyphs" textLength="60" x="663.75" y="255.4102">SeProtocol</text><line style="stroke: #D4AC0D; stroke-width: 1.5;" x1="557" x2="787" y1="266.5" y2="266.5"/><line style="stroke: #D4AC0D; stroke-width: 1.5;" x1="557" x2="787" y1="274.5" y2="274.5"/><ellipse cx="567" cy="285.5" fill="#84BE84" rx="3" ry="3" style="stroke: #038048; stroke-width: 1.0;"/><text fill="#000000" font-family="sans-serif" font-size="11" lengthAdjust="spacingAndGlyphs" textLength="81" x="576" y="289.9189">String getName()</text><ellipse cx="567" cy="299.3359" fill="#84BE84" rx="3" ry="3" style="stroke: #038048; stroke-width: 1.0;"/><text fill="#000000" font-family="sans-serif" font-size="11" lengthAdjust="spacingAndGlyphs" textLength="206" x="576" y="303.7549">TransmissionMode getTransmissionMode()</text><!--MD5=[102d0f3d638ad6309248ed4bfa481bde]
class SeCommonProtocols--><rect fill="#FEFECE" height="336.7188" id="SeCommonProtocols" style="stroke: #D4AC0D; stroke-width: 1.5;" width="395" x="891.5" y="104"/><ellipse cx="1025.25" cy="120" fill="#EB937F" rx="11" ry="11" style="stroke: #EB93DF; stroke-width: 1.0;"/><path d="M1023.75,121 L1023.75,123 L1027.75,123 L1027.75,122 L1027.75,121.5156 L1028.375,121 L1028.75,121 L1029.125,121 L1029.75,121.5156 L1029.75,122 L1029.75,125 L1021.75,125 L1021.2656,125 L1020.75,124.375 L1020.75,124 L1020.75,123.625 L1021.2656,123 L1021.75,123 L1021.75,123 L1021.75,117 L1021.75,117 L1021.2656,117 L1020.75,116.375 L1020.75,116 L1020.75,115.625 L1021.2656,115 L1021.75,115 L1029.75,115 L1029.75,118 L1029.75,118.4844 L1029.125,119 L1028.75,119 L1028.375,119 L1027.75,118.4844 L1027.75,118 L1027.75,117 L1023.75,117 L1023.75,119 L1024.75,119 L1024.75,118.5156 L1024.75,118.5156 L1025.375,118 L1025.75,118 L1026.125,118 L1026.75,118.5156 L1026.75,119 L1026.75,121 L1026.75,121.4844 L1026.125,122 L1026.125,122 L1025.75,122 L1025.375,122 L1024.75,121.4844 L1024.75,121.4844 L1024.75,121 L1023.75,121 Z "/><text fill="#000000" font-family="sans-serif" font-size="12" lengthAdjust="spacingAndGlyphs" textLength="119" x="1045.75" y="124.9102">SeCommonProtocols</text><line style="stroke: #D4AC0D; stroke-width: 1.5;" x1="892.5" x2="1285.5" y1="136" y2="136"/><text fill="#000000" font-family="sans-serif" font-size="11" lengthAdjust="spacingAndGlyphs" textLength="278" x="897.5" y="169.2549">PROTOCOL_ISO14443_4("ISO 14443-4", CONTACTLESS)</text><text fill="#000000" font-family="sans-serif" font-size="11" lengthAdjust="spacingAndGlyphs" textLength="294" x="897.5" y="183.0908">PROTOCOL_ISO15693("ISO 15693 Type V", CONTACTLESS)</text><line style="stroke: #D4AC0D; stroke-width: 1.0; stroke-dasharray: 1.0,2.0;" x1="892.5" x2="989.5" y1="150.918" y2="150.918"/><text fill="#000000" font-family="sans-serif" font-size="11" lengthAdjust="spacingAndGlyphs" textLength="199" x="989.5" y="154.9189">contactless ISO standard / NFC compliant</text><line style="stroke: #D4AC0D; stroke-width: 1.0; stroke-dasharray: 1.0,2.0;" x1="1188.5" x2="1285.5" y1="150.918" y2="150.918"/><text fill="#000000" font-family="sans-serif" font-size="11" lengthAdjust="spacingAndGlyphs" textLength="324" x="897.5" y="214.7627">PROTOCOL_ISO14443_3A("ISO 14443-3 Type A", CONTACTLESS)</text><text fill="#000000" font-family="sans-serif" font-size="11" lengthAdjust="spacingAndGlyphs" textLength="322" x="897.5" y="228.5986">PROTOCOL_ISO14443_3B("ISO 14443-3 Type B", CONTACTLESS)</text><text fill="#000000" font-family="sans-serif" font-size="11" lengthAdjust="spacingAndGlyphs" textLength="297" x="897.5" y="242.4346">PROTOCOL_JIS_6319_4("JIS 6319-4 Felica", CONTACTLESS)</text><text fill="#000000" font-family="sans-serif" font-size="11" lengthAdjust="spacingAndGlyphs" textLength="259" x="897.5" y="256.2705">PROTOCOL_NDEF("NFC NDEF TAG", CONTACTLESS)</text><text fill="#000000" font-family="sans-serif" font-size="11" lengthAdjust="spacingAndGlyphs" textLength="383" x="897.5" y="270.1064">PROTOCOL_NDEF_FORMATABLE("NFC NDEF FORMATABLE", CONTACTLESS)</text><text fill="#000000" font-family="sans-serif" font-size="11" lengthAdjust="spacingAndGlyphs" textLength="304" x="897.5" y="283.9424">PROTOCOL_NFC_BARCODE("NFC BARCODE, CONTACTLESS)</text><text fill="#000000" font-family="sans-serif" font-size="11" lengthAdjust="spacingAndGlyphs" textLength="296" x="897.5" y="297.7783">PROTOCOL_MIFARE_UL("Mifare Ultra Light", CONTACTLESS)</text><text fill="#000000" font-family="sans-serif" font-size="11" lengthAdjust="spacingAndGlyphs" textLength="314" x="897.5" y="311.6143">PROTOCOL_MIFARE_CLASSIC("Mifare Classic", CONTACTLESS)</text><text fill="#000000" font-family="sans-serif" font-size="11" lengthAdjust="spacingAndGlyphs" textLength="314" x="897.5" y="325.4502">PROTOCOL_MIFARE_DESFIRE("Mifare DESFire", CONTACTLESS)</text><line style="stroke: #D4AC0D; stroke-width: 1.0; stroke-dasharray: 1.0,2.0;" x1="892.5" x2="997.5" y1="196.4258" y2="196.4258"/><text fill="#000000" font-family="sans-serif" font-size="11" lengthAdjust="spacingAndGlyphs" textLength="183" x="997.5" y="200.4268">contactless proprietary NFC compliant</text><line style="stroke: #D4AC0D; stroke-width: 1.0; stroke-dasharray: 1.0,2.0;" x1="1180.5" x2="1285.5" y1="196.4258" y2="196.4258"/><text fill="#000000" font-family="sans-serif" font-size="11" lengthAdjust="spacingAndGlyphs" textLength="323" x="897.5" y="357.1221">PROTOCOL_B_PRIME("Old Calypso card B prime", CONTACTLESS)</text><text fill="#000000" font-family="sans-serif" font-size="11" lengthAdjust="spacingAndGlyphs" textLength="301" x="897.5" y="370.958">PROTOCOL_MEMORY_ST25("Memory ST25", CONTACTLESS)</text><line style="stroke: #D4AC0D; stroke-width: 1.0; stroke-dasharray: 1.0,2.0;" x1="892.5" x2="988.5" y1="338.7852" y2="338.7852"/><text fill="#000000" font-family="sans-serif" font-size="11" lengthAdjust="spacingAndGlyphs" textLength="201" x="988.5" y="342.7861">contactless proprietary not NFC compliant</text><line style="stroke: #D4AC0D; stroke-width: 1.0; stroke-dasharray: 1.0,2.0;" x1="1189.5" x2="1285.5" y1="338.7852" y2="338.7852"/><text fill="#000000" font-family="sans-serif" font-size="11" lengthAdjust="spacingAndGlyphs" textLength="247" x="897.5" y="402.6299">PROTOCOL_ISO7816_3("ISO 7816-3", CONTACTS)</text><line style="stroke: #D4AC0D; stroke-width: 1.0; stroke-dasharray: 1.0,2.0;" x1="892.5" x2="1035" y1="384.293" y2="384.293"/><text fill="#000000" font-family="sans-serif" font-size="11" lengthAdjust="spacingAndGlyphs" textLength="108" x="1035" y="388.2939">contacts ISO standard</text><line style="stroke: #D4AC0D; stroke-width: 1.0; stroke-dasharray: 1.0,2.0;" x1="1143" x2="1285.5" y1="384.293" y2="384.293"/><text fill="#000000" font-family="sans-serif" font-size="11" lengthAdjust="spacingAndGlyphs" textLength="267" x="897.5" y="434.3018">PROTOCOL_HSP("Old Calypso SAM HSP", CONTACTS)</text><line style="stroke: #D4AC0D; stroke-width: 1.0; stroke-dasharray: 1.0,2.0;" x1="892.5" x2="1040" y1="415.9648" y2="415.9648"/><text fill="#000000" font-family="sans-serif" font-size="11" lengthAdjust="spacingAndGlyphs" textLength="98" x="1040" y="419.9658">contacts proprietary</text><line style="stroke: #D4AC0D; stroke-width: 1.0; stroke-dasharray: 1.0,2.0;" x1="1138" x2="1285.5" y1="415.9648" y2="415.9648"/><!--MD5=[1fa9a61019755e60a0cb03f0bc3590aa]
class ObservablePlugin--><rect fill="#F0FFFF" height="103.3438" id="ObservablePlugin" style="stroke: #0000FF; stroke-width: 1.5;" width="263" x="340.5" y="855.5"/><ellipse cx="412.25" cy="871.5" fill="#B4A7E5" rx="11" ry="11" style="stroke: #B4A7E5; stroke-width: 1.0;"/><path d="M413.25,868.5 L413.25,874.5 L415.25,874.5 L415.7344,874.5 L416.25,875.125 L416.25,875.5 L416.25,875.875 L415.7344,876.5 L415.25,876.5 L409.25,876.5 L408.7656,876.5 L408.25,875.875 L408.25,875.5 L408.25,875.125 L408.7656,874.5 L409.25,874.5 L411.25,874.5 L411.25,868.5 L409.25,868.5 L408.7656,868.5 L408.25,867.875 L408.25,867.5 L408.25,867.125 L408.7656,866.5 L409.25,866.5 L415.25,866.5 L415.7344,866.5 L416.25,867.125 L416.25,867.5 L416.25,867.875 L415.7344,868.5 L415.25,868.5 L413.25,868.5 Z "/><ellipse cx="437.75" cy="871" fill="#84BE84" rx="3" ry="3" style="stroke: #038048; stroke-width: 1.0;"/><text fill="#000000" font-family="sans-serif" font-size="12" font-style="italic" lengthAdjust="spacingAndGlyphs" textLength="100" x="443.75" y="876.4102">ObservablePlugin</text><line style="stroke: #0000FF; stroke-width: 1.5;" x1="341.5" x2="602.5" y1="887.5" y2="887.5"/><line style="stroke: #0000FF; stroke-width: 1.5;" x1="341.5" x2="602.5" y1="895.5" y2="895.5"/><ellipse cx="351.5" cy="906.5" fill="#84BE84" rx="3" ry="3" style="stroke: #038048; stroke-width: 1.0;"/><text fill="#000000" font-family="sans-serif" font-size="11" lengthAdjust="spacingAndGlyphs" textLength="68" x="360.5" y="910.9189">addObserver(</text><text fill="#000000" font-family="sans-serif" font-size="11" font-weight="bold" lengthAdjust="spacingAndGlyphs" textLength="23" x="428.5" y="910.9189">final</text><text fill="#000000" font-family="sans-serif" font-size="11" lengthAdjust="spacingAndGlyphs" textLength="125" x="454.5" y="910.9189">PluginObserver observer)</text><ellipse cx="351.5" cy="920.3359" fill="#84BE84" rx="3" ry="3" style="stroke: #038048; stroke-width: 1.0;"/><text fill="#000000" font-family="sans-serif" font-size="11" lengthAdjust="spacingAndGlyphs" textLength="86" x="360.5" y="924.7549">removeObserver(</text><text fill="#000000" font-family="sans-serif" font-size="11" font-weight="bold" lengthAdjust="spacingAndGlyphs" textLength="23" x="446.5" y="924.7549">final</text><text fill="#000000" font-family="sans-serif" font-size="11" lengthAdjust="spacingAndGlyphs" textLength="125" x="472.5" y="924.7549">PluginObserver observer)</text><ellipse cx="351.5" cy="934.1719" fill="#84BE84" rx="3" ry="3" style="stroke: #038048; stroke-width: 1.0;"/><text fill="#000000" font-family="sans-serif" font-size="11" lengthAdjust="spacingAndGlyphs" textLength="84" x="360.5" y="938.5908">clearObservers()</text><ellipse cx="351.5" cy="948.0078" fill="#84BE84" rx="3" ry="3" style="stroke: #038048; stroke-width: 1.0;"/><text fill="#000000" font-family="sans-serif" font-size="11" lengthAdjust="spacingAndGlyphs" textLength="101" x="360.5" y="952.4268">int countObservers()</text><!--MD5=[e2341a3d5316e117132fc49473ae3219]
class ObservableReader--><rect fill="#EEFFEE" height="200.1953" id="ObservableReader" style="stroke: #008000; stroke-width: 1.5;" width="391" x="638.5" y="807"/><ellipse cx="771.25" cy="823" fill="#B4A7E5" rx="11" ry="11" style="stroke: #B4A7E5; stroke-width: 1.0;"/><path d="M772.25,820 L772.25,826 L774.25,826 L774.7344,826 L775.25,826.625 L775.25,827 L775.25,827.375 L774.7344,828 L774.25,828 L768.25,828 L767.7656,828 L767.25,827.375 L767.25,827 L767.25,826.625 L767.7656,826 L768.25,826 L770.25,826 L770.25,820 L768.25,820 L767.7656,820 L767.25,819.375 L767.25,819 L767.25,818.625 L767.7656,818 L768.25,818 L774.25,818 L774.7344,818 L775.25,818.625 L775.25,819 L775.25,819.375 L774.7344,820 L774.25,820 L772.25,820 Z "/><ellipse cx="796.75" cy="822.5" fill="#84BE84" rx="3" ry="3" style="stroke: #038048; stroke-width: 1.0;"/><text fill="#000000" font-family="sans-serif" font-size="12" font-style="italic" lengthAdjust="spacingAndGlyphs" textLength="106" x="802.75" y="827.9102">ObservableReader</text><line style="stroke: #008000; stroke-width: 1.5;" x1="639.5" x2="1028.5" y1="839" y2="839"/><line style="stroke: #008000; stroke-width: 1.5;" x1="639.5" x2="1028.5" y1="847" y2="847"/><ellipse cx="649.5" cy="858" fill="#84BE84" rx="3" ry="3" style="stroke: #038048; stroke-width: 1.0;"/><text fill="#000000" font-family="sans-serif" font-size="11" lengthAdjust="spacingAndGlyphs" textLength="68" x="658.5" y="862.4189">addObserver(</text><text fill="#000000" font-family="sans-serif" font-size="11" font-weight="bold" lengthAdjust="spacingAndGlyphs" textLength="23" x="726.5" y="862.4189">final</text><text fill="#000000" font-family="sans-serif" font-size="11" lengthAdjust="spacingAndGlyphs" textLength="132" x="752.5" y="862.4189">ReaderObserver observer)</text><ellipse cx="649.5" cy="871.8359" fill="#84BE84" rx="3" ry="3" style="stroke: #038048; stroke-width: 1.0;"/><text fill="#000000" font-family="sans-serif" font-size="11" lengthAdjust="spacingAndGlyphs" textLength="86" x="658.5" y="876.2549">removeObserver(</text><text fill="#000000" font-family="sans-serif" font-size="11" font-weight="bold" lengthAdjust="spacingAndGlyphs" textLength="23" x="744.5" y="876.2549">final</text><text fill="#000000" font-family="sans-serif" font-size="11" lengthAdjust="spacingAndGlyphs" textLength="132" x="770.5" y="876.2549">ReaderObserver observer)</text><ellipse cx="649.5" cy="885.6719" fill="#84BE84" rx="3" ry="3" style="stroke: #038048; stroke-width: 1.0;"/><text fill="#000000" font-family="sans-serif" font-size="11" lengthAdjust="spacingAndGlyphs" textLength="84" x="658.5" y="890.0908">clearObservers()</text><ellipse cx="649.5" cy="899.5078" fill="#84BE84" rx="3" ry="3" style="stroke: #038048; stroke-width: 1.0;"/><text fill="#000000" font-family="sans-serif" font-size="11" lengthAdjust="spacingAndGlyphs" textLength="101" x="658.5" y="903.9268">int countObservers()</text><text fill="#000000" font-family="sans-serif" font-size="11" lengthAdjust="spacingAndGlyphs" textLength="0" x="661.5" y="917.7627"/><ellipse cx="649.5" cy="927.1797" fill="#84BE84" rx="3" ry="3" style="stroke: #038048; stroke-width: 1.0;"/><text fill="#000000" font-family="sans-serif" font-size="11" lengthAdjust="spacingAndGlyphs" textLength="365" x="658.5" y="931.5986">setDefaultSelectionRequest(AbstractDefaultSelectionsRequest selectionsR,</text><text fill="#000000" font-family="sans-serif" font-size="11" lengthAdjust="spacingAndGlyphs" textLength="273" x="658.5" y="945.4346">NotificationMode notificationM, PollingMode[0..1] pollingM)</text><text fill="#000000" font-family="sans-serif" font-size="11" lengthAdjust="spacingAndGlyphs" textLength="0" x="661.5" y="959.2705"/><ellipse cx="649.5" cy="968.6875" fill="#84BE84" rx="3" ry="3" style="stroke: #038048; stroke-width: 1.0;"/><text fill="#000000" font-family="sans-serif" font-size="11" lengthAdjust="spacingAndGlyphs" textLength="203" x="658.5" y="973.1064">startSeDetection(PollingMode pollingMode)</text><ellipse cx="649.5" cy="982.5234" fill="#84BE84" rx="3" ry="3" style="stroke: #038048; stroke-width: 1.0;"/><text fill="#000000" font-family="sans-serif" font-size="11" lengthAdjust="spacingAndGlyphs" textLength="87" x="658.5" y="986.9424">stopSeDetection()</text><ellipse cx="649.5" cy="996.3594" fill="#84BE84" rx="3" ry="3" style="stroke: #038048; stroke-width: 1.0;"/><text fill="#000000" font-family="sans-serif" font-size="11" lengthAdjust="spacingAndGlyphs" textLength="109" x="658.5" y="1000.7783">finalizeSeProcessing()</text><!--MD5=[ff74b0b77f3b262d69cca47f472c8f44]
link TransmissionMode to SeProtocol--><path d="M521.039,272.5 C528.287,272.5 535.536,272.5 542.784,272.5 " fill="none" id="TransmissionMode-&gt;SeProtocol" style="stroke: #A80036; stroke-width: 1.0;"/><polygon fill="#FFFFFF" points="555.831,272.5,549.831,268.5,543.831,272.5,549.831,276.5,555.831,272.5" style="stroke: #A80036; stroke-width: 1.0;"/><text fill="#000000" font-family="sans-serif" font-size="13" lengthAdjust="spacingAndGlyphs" textLength="7" x="529.1383" y="269.2052">1</text><!--MD5=[009dd821b618541acedfd889e51c7fb4]
reverse link SeProtocol to SeCommonProtocols--><path d="M808.498,272.5 C834.974,272.5 863.216,272.5 891.2,272.5 " fill="none" id="SeProtocol&lt;-SeCommonProtocols" style="stroke: #A80036; stroke-width: 1.0; stroke-dasharray: 7.0,7.0;"/><polygon fill="none" points="808.158,279.5,788.158,272.5,808.158,265.5,808.158,279.5" style="stroke: #A80036; stroke-width: 1.0;"/><text fill="#000000" font-family="sans-serif" font-size="13" lengthAdjust="spacingAndGlyphs" textLength="67" x="806.25" y="265.9951">implements</text><!--MD5=[ac58f1a34eb5ab4662271d4b6552ae6b]
link SeProxyService to PluginFactory--><path d="M167.6789,388.5783 C167.6789,388.5783 146.054,517.381 138.42,562.846 " fill="none" id="SeProxyService-PluginFactory" style="stroke: #A80036; stroke-width: 1.0;"/><polygon fill="#A80036" points="136.231,575.886,141.6654,567.6721,137.0585,570.955,133.7757,566.3481,136.231,575.886" style="stroke: #A80036; stroke-width: 1.0;"/><line style="stroke: #A80036; stroke-width: 1.0;" x1="137.0585" x2="138.384" y1="570.955" y2="563.065"/><polygon fill="#A80036" points="169.666,376.744,164.7277,381.9988,167.6789,388.5783,172.6172,383.3235,169.666,376.744" style="stroke: #A80036; stroke-width: 1.0;"/><text fill="#000000" font-family="sans-serif" font-size="13" lengthAdjust="spacingAndGlyphs" textLength="50" x="155" y="487.4951">registers</text><text fill="#000000" font-family="sans-serif" font-size="13" lengthAdjust="spacingAndGlyphs" textLength="7" x="161.136" y="398.4809">1</text><text fill="#000000" font-family="sans-serif" font-size="13" lengthAdjust="spacingAndGlyphs" textLength="5" x="131.8956" y="565.2276">*</text><!--MD5=[98fb93546a7dc75f66b7a26283e02bb5]
link SeProxyService to ReaderPlugin--><path d="M267.8818,386.5024 C267.8818,386.5024 332.263,476.449 361.102,516.741 " fill="none" id="SeProxyService-ReaderPlugin" style="stroke: #A80036; stroke-width: 1.0;"/><polygon fill="#A80036" points="368.71,527.37,366.7249,517.7233,365.8001,523.304,360.2193,522.3792,368.71,527.37" style="stroke: #A80036; stroke-width: 1.0;"/><line style="stroke: #A80036; stroke-width: 1.0;" x1="365.8001" x2="361.143" y1="523.304" y2="516.799"/><polygon fill="#A80036" points="260.898,376.744,261.1371,383.9511,267.8818,386.5024,267.6427,379.2952,260.898,376.744" style="stroke: #A80036; stroke-width: 1.0;"/><text fill="#000000" font-family="sans-serif" font-size="13" lengthAdjust="spacingAndGlyphs" textLength="41" x="341" y="487.4951">plugins</text><text fill="#000000" font-family="sans-serif" font-size="13" lengthAdjust="spacingAndGlyphs" textLength="7" x="259.0679" y="398.4809">1</text><text fill="#000000" font-family="sans-serif" font-size="13" lengthAdjust="spacingAndGlyphs" textLength="5" x="358.228" y="516.7684">*</text><!--MD5=[8119e6da521221a00c7048597420cfa4]
link PluginFactory to ReaderPlugin--><path d="M222.049,614 C245.705,614 271.633,614 296.912,614 " fill="none" id="PluginFactory-&gt;ReaderPlugin" style="stroke: #A80036; stroke-width: 1.0;"/><polygon fill="#A80036" points="301.958,614,292.958,610,296.958,614,292.958,618,301.958,614" style="stroke: #A80036; stroke-width: 1.0;"/><text fill="#000000" font-family="sans-serif" font-size="13" lengthAdjust="spacingAndGlyphs" textLength="43" x="240.5" y="607.4951">creates</text><text fill="#000000" font-family="sans-serif" font-size="13" lengthAdjust="spacingAndGlyphs" textLength="7" x="229.9617" y="610.8608">1</text><text fill="#000000" font-family="sans-serif" font-size="13" lengthAdjust="spacingAndGlyphs" textLength="7" x="286.9422" y="611.0328">1</text><!--MD5=[c88fac8de0d16551763276c4b9088a93]
link ReaderPlugin to SeReader--><path d="M570.237,614 C570.237,614 606.769,614 624.744,614 " fill="none" id="ReaderPlugin-SeReader" style="stroke: #A80036; stroke-width: 1.0;"/><polygon fill="#A80036" points="637.812,614,628.812,610,632.812,614,628.812,618,637.812,614" style="stroke: #A80036; stroke-width: 1.0;"/><line style="stroke: #A80036; stroke-width: 1.0;" x1="632.812" x2="624.812" y1="614" y2="614"/><polygon fill="#A80036" points="558.237,614,564.237,618,570.237,614,564.237,610,558.237,614" style="stroke: #A80036; stroke-width: 1.0;"/><text fill="#000000" font-family="sans-serif" font-size="13" lengthAdjust="spacingAndGlyphs" textLength="43" x="576.5" y="607.4951">readers</text><text fill="#000000" font-family="sans-serif" font-size="13" lengthAdjust="spacingAndGlyphs" textLength="7" x="565.853" y="611.0566">1</text><text fill="#000000" font-family="sans-serif" font-size="13" lengthAdjust="spacingAndGlyphs" textLength="5" x="624.9871" y="611.1324">*</text><!--MD5=[bc25a197e36279471f37427b8b5d69b0]
reverse link ReaderPlugin to ReaderPoolPlugin--><path d="M340.547,715.894 C296.451,765.63 245.531,823.064 211.299,861.675 " fill="none" id="ReaderPlugin&lt;-ReaderPoolPlugin" style="stroke: #A80036; stroke-width: 1.0;"/><polygon fill="none" points="335.481,711.057,353.987,700.736,345.957,720.345,335.481,711.057" style="stroke: #A80036; stroke-width: 1.0;"/><text fill="#000000" font-family="sans-serif" font-size="13" lengthAdjust="spacingAndGlyphs" textLength="46" x="317" y="751.4951">extends</text><!--MD5=[a087c8f219181ff1dbe7adabc28b3231]
reverse link ReaderPlugin to ObservablePlugin--><path d="M445.255,720.695 C451.888,766.651 459.349,818.347 464.702,855.436 " fill="none" id="ReaderPlugin&lt;-ObservablePlugin" style="stroke: #A80036; stroke-width: 1.0;"/><polygon fill="none" points="438.303,721.531,442.374,700.736,452.16,719.531,438.303,721.531" style="stroke: #A80036; stroke-width: 1.0;"/><text fill="#000000" font-family="sans-serif" font-size="13" lengthAdjust="spacingAndGlyphs" textLength="46" x="450" y="751.4951">extends</text><!--MD5=[9bde350185f61a8992bbce085951af21]
reverse link SeReader to ObservableReader--><path d="M818.031,727.27 C820.378,753.537 822.861,781.331 825.152,806.973 " fill="none" id="SeReader&lt;-ObservableReader" style="stroke: #A80036; stroke-width: 1.0;"/><polygon fill="none" points="811.034,727.618,816.227,707.074,824.979,726.372,811.034,727.618" style="stroke: #A80036; stroke-width: 1.0;"/><text fill="#000000" font-family="sans-serif" font-size="13" lengthAdjust="spacingAndGlyphs" textLength="46" x="821" y="751.4951">extends</text><!--MD5=[0792e7b782cf21020a104f3021a6265b]
reverse link SeReader to TransmissionMode--><path d="M626.545,533.465 C594.841,514.171 564.046,491.354 539,465 C496.48,420.259 469.859,352.398 456.488,310.621 " fill="none" id="SeReader&lt;-TransmissionMode" style="stroke: #A80036; stroke-width: 1.0;"/><polygon fill="#FFFFFF" points="637.789,540.143,634.6729,533.6399,627.4716,534.0151,630.5877,540.5182,637.789,540.143" style="stroke: #A80036; stroke-width: 1.0;"/><text fill="#000000" font-family="sans-serif" font-size="13" lengthAdjust="spacingAndGlyphs" textLength="7" x="450.6454" y="331.8112">1</text><!--MD5=[5f561221c67ad9ce74db8bc976609eb0]
link SeProtocol to SeReader--><path d="M686.943,310.804 C707.023,360.929 743.383,451.695 771.031,520.713 " fill="none" id="SeProtocol-SeReader" style="stroke: #A80036; stroke-width: 1.0;"/><text fill="#000000" font-family="sans-serif" font-size="13" lengthAdjust="spacingAndGlyphs" textLength="5" x="683.9261" y="331.733">*</text><!--MD5=[5f7a4c15bb82b87ed736212d93ab2985]
@startuml
skinparam ClassBorderColor #D4AC0D
skinparam stereotypeABorderColor #A9DCDF
skinparam stereotypeIBorderColor #B4A7E5
skinparam stereotypeCBorderColor #ADD1B2
skinparam stereotypeEBorderColor #EB93DF
skinparam shadowing false

skinparam StateBorderColor #D4AC0D
skinparam ActivityBorderColor #D4AC0D

skinparam ClassBackgroundColor<<red>> #FDEDEC
skinparam ClassBorderColor<<red>> #E74C3C
hide <<red>> stereotype
skinparam ClassBackgroundColor<<purple>> #F4ECF7
skinparam ClassBorderColor<<purple>> #8E44AD
hide <<purple>> stereotype
skinparam ClassBackgroundColor<<blue>> #EBF5FB
skinparam ClassBorderColor<<blue>> #3498DB
hide <<blue>> stereotype
skinparam ClassBackgroundColor<<green>> #EAFAF1
skinparam ClassBorderColor<<green>> #2ECC71
hide <<green>> stereotype

skinparam ClassBackgroundColor<<orange>> #FDF2E9
skinparam ClassBorderColor<<orange>> #E67E22
hide <<orange>> stereotype

skinparam ClassBackgroundColor<<grey>> #EAECEE
skinparam ClassBorderColor<<grey>> #2C3E50
hide <<grey>> stereotype

package org.eclipse.keyple.core.seproxy #FFFFFF {
+class "<b>final</b> SeProxyService" as SeProxyService << Singleton >> {
  -<b>final</b> {static}SeProxyService uniqueInstance
  -<b>final</b> ConcurrentMap<String, ReaderPlugin> plugins
  +{static}SeProxyService getInstance()
  +String getVersion()

  +ReaderPlugin registerPlugin(PluginFactory pluginFactory)
  +boolean isRegistered(String pluginName)
  +boolean unregisterPlugin(String pluginName)

  +ReaderPlugin getPlugin(String name)
  +ConcurrentMap<String, ReaderPlugin> getPlugins()
}
+interface PluginFactory {
  +String getPluginName()
  +ReaderPlugin getPluginInstance()
}
+interface ReaderPlugin {
  +String getName()

  +Map<String, String> getParameters()
  +setParameter(String key, String value)
  +setParameters(Map<String, String> parameters)

  +Map<String, SeReader> getReaders()
  +Set<String> getReaderNames()
  +SeReader getReader(String name)
}
+interface SeReader {
  +String getName()

  +Map<String, String> getParameters()
  +setParameter(String key, String value)
  +setParameters(Map<String, String> parameters)

  +boolean isSePresent()
  +addSeProtocolSetting(SeProtocol seProtocol, String protocolRule)
  +setSeProtocolSetting(Map<SeProtocol, String> protocolSetting)
  +TransmissionMode getTransmissionMode()
}

  package protocol #FFFFFF {
+enum TransmissionMode {
  CONTACTS
  CONTACTLESS
}
+interface SeProtocol {
  +String getName()
  +TransmissionMode getTransmissionMode()
}

enum SeCommonProtocols {
  .. contactless ISO standard / NFC compliant ..
  PROTOCOL_ISO14443_4("ISO 14443-4", CONTACTLESS)
  PROTOCOL_ISO15693("ISO 15693 Type V", CONTACTLESS)
  .. contactless proprietary NFC compliant ..
  PROTOCOL_ISO14443_3A("ISO 14443-3 Type A", CONTACTLESS)
  PROTOCOL_ISO14443_3B("ISO 14443-3 Type B", CONTACTLESS)
  PROTOCOL_JIS_6319_4("JIS 6319-4 Felica", CONTACTLESS)
  PROTOCOL_NDEF("NFC NDEF TAG", CONTACTLESS)
  PROTOCOL_NDEF_FORMATABLE("NFC NDEF FORMATABLE", CONTACTLESS)
  PROTOCOL_NFC_BARCODE("NFC BARCODE, CONTACTLESS)
  PROTOCOL_MIFARE_UL("Mifare Ultra Light", CONTACTLESS)
  PROTOCOL_MIFARE_CLASSIC("Mifare Classic", CONTACTLESS)
  PROTOCOL_MIFARE_DESFIRE("Mifare DESFire", CONTACTLESS)
  .. contactless proprietary not NFC compliant ..
  PROTOCOL_B_PRIME("Old Calypso card B prime", CONTACTLESS)
  PROTOCOL_MEMORY_ST25("Memory ST25", CONTACTLESS)
  .. contacts ISO standard ..
  PROTOCOL_ISO7816_3("ISO 7816-3", CONTACTS)
  .. contacts proprietary  ..
  PROTOCOL_HSP("Old Calypso SAM HSP", CONTACTS)
}

    SeProtocol o-left- "1" TransmissionMode 
    SeProtocol <|.right. SeCommonProtocols : implements
  }

  SeProxyService "1" *- -> "*" PluginFactory : registers
  SeProxyService "1" *-down-> "*" ReaderPlugin : plugins
  PluginFactory "1" -right-> "1" ReaderPlugin : creates
  ReaderPlugin "1" *-right-> "*" SeReader : readers

+interface ReaderPoolPlugin {
  +SortedSet<String> getReaderGroupReferences()
  +SeReader allocateReader(String groupReference)
  +releaseReader(SeReader seReader)
}
  ReaderPlugin <|- - ReaderPoolPlugin : extends

  package event #FFFFFF {
+interface ObservablePlugin {
  +addObserver(<b>final</b> PluginObserver observer)
  +removeObserver(<b>final</b> PluginObserver observer)
  +clearObservers()
  +int countObservers()
}
+interface ObservableReader {
  +addObserver(<b>final</b> ReaderObserver observer)
  +removeObserver(<b>final</b> ReaderObserver observer)
  +clearObservers()
  +int countObservers()

  +setDefaultSelectionRequest(AbstractDefaultSelectionsRequest selectionsR,
    NotificationMode notificationM, PollingMode[0..1] pollingM)

  +startSeDetection(PollingMode pollingMode)
  +stopSeDetection()
  +finalizeSeProcessing()
}
  }
  ReaderPlugin <|- - ObservablePlugin : extends
  SeReader <|- - ObservableReader : extends
}


TransmissionMode "1" -down-o SeReader
SeProtocol "*" -down- SeReader

interface ReaderPlugin <<Plugin>>
interface ObservablePlugin <<Plugin>>
interface ReaderPoolPlugin <<Plugin>>
hide <<Plugin>> stereotype

interface SeReader <<Reader>>
interface ObservableReader <<Reader>>
hide <<Reader>> stereotype

skinparam class {
  BackgroundColor<<Plugin>> Azure
  BorderColor<<Plugin>> Blue
  BackgroundColor<<Reader>> #EEFFEE
  BorderColor<<Reader>> Green
}
@enduml

PlantUML version 1.2020.09(Sun May 10 14:51:06 MUT 2020)
(GPL source distribution)
Java Runtime: OpenJDK Runtime Environment
JVM: OpenJDK 64-Bit Server VM
Java Version: 11.0.7+10-b765.64
Operating System: Windows 10
Default Encoding: Cp1252
Language: fr
Country: FR
--></g></svg>