<?xml version="1.0" encoding="UTF-8" standalone="no"?><svg xmlns="http://www.w3.org/2000/svg" xmlns:xlink="http://www.w3.org/1999/xlink" contentScriptType="application/ecmascript" contentStyleType="text/css" height="926px" preserveAspectRatio="none" style="width:769px;height:926px;" version="1.1" viewBox="0 0 769 926" width="769px" zoomAndPan="magnify"><defs/><g><!--MD5=[3f544705c2d16c925a2869dc8b1fd45c]
cluster org.eclipse.keyple.core.seproxy.event--><polygon fill="#FFFFFF" points="22,24,298,24,305,47.6094,747,47.6094,747,914,22,914,22,24" style="stroke: #000000; stroke-width: 1.5;"/><line style="stroke: #000000; stroke-width: 1.5;" x1="22" x2="305" y1="47.6094" y2="47.6094"/><text fill="#000000" font-family="sans-serif" font-size="14" font-weight="bold" lengthAdjust="spacingAndGlyphs" textLength="270" x="26" y="40.5332">org.eclipse.keyple.core.seproxy.event</text><!--MD5=[071fb05b602bfdbfba7de3999663c7de]
class EventType_Reader--><rect fill="#FEFECE" height="131.0156" id="EventType_Reader" style="stroke: #D4AC0D; stroke-width: 1.5;" width="142" x="390" y="60"/><ellipse cx="424.35" cy="76" fill="#EB937F" rx="11" ry="11" style="stroke: #EB93DF; stroke-width: 1.0;"/><path d="M422.85,77 L422.85,79 L426.85,79 L426.85,78 L426.85,77.5156 L427.475,77 L427.85,77 L428.225,77 L428.85,77.5156 L428.85,78 L428.85,81 L420.85,81 L420.3656,81 L419.85,80.375 L419.85,80 L419.85,79.625 L420.3656,79 L420.85,79 L420.85,79 L420.85,73 L420.85,73 L420.3656,73 L419.85,72.375 L419.85,72 L419.85,71.625 L420.3656,71 L420.85,71 L428.85,71 L428.85,74 L428.85,74.4844 L428.225,75 L427.85,75 L427.475,75 L426.85,74.4844 L426.85,74 L426.85,73 L422.85,73 L422.85,75 L423.85,75 L423.85,74.5156 L423.85,74.5156 L424.475,74 L424.85,74 L425.225,74 L425.85,74.5156 L425.85,75 L425.85,77 L425.85,77.4844 L425.225,78 L425.225,78 L424.85,78 L424.475,78 L423.85,77.4844 L423.85,77.4844 L423.85,77 L422.85,77 Z "/><ellipse cx="447.65" cy="75.5" fill="#84BE84" rx="3" ry="3" style="stroke: #038048; stroke-width: 1.0;"/><text fill="#000000" font-family="sans-serif" font-size="12" lengthAdjust="spacingAndGlyphs" textLength="56" x="453.65" y="80.9102">EventType</text><line style="stroke: #D4AC0D; stroke-width: 1.5;" x1="391" x2="531" y1="92" y2="92"/><text fill="#000000" font-family="sans-serif" font-size="11" lengthAdjust="spacingAndGlyphs" textLength="51" x="396" y="107.4189">IO_ERROR</text><text fill="#000000" font-family="sans-serif" font-size="11" lengthAdjust="spacingAndGlyphs" textLength="67" x="396" y="121.2549">SE_INSERTED</text><text fill="#000000" font-family="sans-serif" font-size="11" lengthAdjust="spacingAndGlyphs" textLength="68" x="396" y="135.0908">SE_MATCHED</text><text fill="#000000" font-family="sans-serif" font-size="11" lengthAdjust="spacingAndGlyphs" textLength="70" x="396" y="148.9268">SE_REMOVAL</text><line style="stroke: #D4AC0D; stroke-width: 1.5;" x1="391" x2="531" y1="155.3438" y2="155.3438"/><ellipse cx="401" cy="166.3438" fill="#84BE84" rx="3" ry="3" style="stroke: #038048; stroke-width: 1.0;"/><text fill="#000000" font-family="sans-serif" font-size="11" lengthAdjust="spacingAndGlyphs" textLength="116" x="410" y="170.7627">EventType(String name)</text><ellipse cx="401" cy="180.1797" fill="#84BE84" rx="3" ry="3" style="stroke: #038048; stroke-width: 1.0;"/><text fill="#000000" font-family="sans-serif" font-size="11" lengthAdjust="spacingAndGlyphs" textLength="81" x="410" y="184.5986">String getName()</text><!--MD5=[9a5f54023274c57ee24edb1ade6872b1]
class ReaderEvent--><rect fill="#FEFECE" height="172.5234" id="ReaderEvent" style="stroke: #D4AC0D; stroke-width: 1.5;" width="379" x="271.5" y="269"/><ellipse cx="402.25" cy="285" fill="#ADD1B2" rx="11" ry="11" style="stroke: #ADD1B2; stroke-width: 1.0;"/><path d="M404.25,281.5 Q404.4531,281 404.6875,280.75 Q404.9219,280.5 405.1875,280.5 Q405.6563,280.5 405.9531,280.7813 Q406.25,281.0625 406.25,281.7188 L406.25,283.2813 Q406.25,283.9375 405.9688,284.2188 Q405.6875,284.5 405.25,284.5 Q404.8594,284.5 404.6094,284.3281 Q404.3594,284.1563 404.25,283.7031 Q404.2031,283.3906 404.0313,283.2188 Q403.7188,282.8906 403.1563,282.7031 Q402.5938,282.5 402.0313,282.5 Q401.3281,282.5 400.7344,282.7813 Q400.1563,283.0625 399.7031,283.6875 Q399.25,284.3125 399.25,285.1719 L399.25,286.0938 Q399.25,287.125 400.0938,287.8125 Q400.9375,288.5 402.4375,288.5 Q403.3281,288.5 403.9531,288.2969 Q404.3125,288.1875 404.7188,287.8281 Q404.9844,287.625 405.125,287.5625 Q405.2656,287.5 405.4375,287.5 Q405.7656,287.5 406,287.7656 Q406.25,288.0156 406.25,288.375 Q406.25,288.7188 405.9063,289.125 Q405.4063,289.7188 404.6094,290.0469 Q403.5625,290.5 402.2813,290.5 Q400.7813,290.5 399.5781,289.9063 Q398.6094,289.4375 397.9219,288.4219 Q397.25,287.4063 397.25,286.2031 L397.25,285.1094 Q397.25,283.8594 397.8438,282.7656 Q398.4531,281.6719 399.5,281.0938 Q400.5625,280.5 401.75,280.5 Q402.4688,280.5 403.0938,280.75 Q403.7188,281 404.25,281.5 Z "/><ellipse cx="427.75" cy="284.5" fill="#84BE84" rx="3" ry="3" style="stroke: #038048; stroke-width: 1.0;"/><text fill="#000000" font-family="sans-serif" font-size="12" font-weight="bold" lengthAdjust="spacingAndGlyphs" textLength="24" x="433.75" y="289.9102">final</text><text fill="#000000" font-family="sans-serif" font-size="12" lengthAdjust="spacingAndGlyphs" textLength="71" x="460.75" y="289.9102">ReaderEvent</text><line style="stroke: #D4AC0D; stroke-width: 1.5;" x1="272.5" x2="649.5" y1="301" y2="301"/><line style="stroke: #D4AC0D; stroke-width: 1.5;" x1="272.5" x2="649.5" y1="309" y2="309"/><ellipse cx="282.5" cy="320" fill="#84BE84" rx="3" ry="3" style="stroke: #038048; stroke-width: 1.0;"/><text fill="#000000" font-family="sans-serif" font-size="11" lengthAdjust="spacingAndGlyphs" textLength="305" x="291.5" y="324.4189">ReaderEvent(String pluginName, String readerName, EventType</text><text fill="#000000" font-family="sans-serif" font-size="11" lengthAdjust="spacingAndGlyphs" textLength="353" x="291.5" y="338.2549">eventType, DefaultSelectionsResponse[0..1] defaultSelectionsResponse)</text><text fill="#000000" font-family="sans-serif" font-size="11" lengthAdjust="spacingAndGlyphs" textLength="0" x="294.5" y="352.0908"/><ellipse cx="282.5" cy="361.5078" fill="#84BE84" rx="3" ry="3" style="stroke: #038048; stroke-width: 1.0;"/><text fill="#000000" font-family="sans-serif" font-size="11" lengthAdjust="spacingAndGlyphs" textLength="128" x="291.5" y="365.9268">EventType getEventType()</text><text fill="#000000" font-family="sans-serif" font-size="11" lengthAdjust="spacingAndGlyphs" textLength="0" x="294.5" y="379.7627"/><ellipse cx="282.5" cy="389.1797" fill="#84BE84" rx="3" ry="3" style="stroke: #038048; stroke-width: 1.0;"/><text fill="#000000" font-family="sans-serif" font-size="11" lengthAdjust="spacingAndGlyphs" textLength="109" x="291.5" y="393.5986">String getPluginName()</text><ellipse cx="282.5" cy="403.0156" fill="#84BE84" rx="3" ry="3" style="stroke: #038048; stroke-width: 1.0;"/><text fill="#000000" font-family="sans-serif" font-size="11" lengthAdjust="spacingAndGlyphs" textLength="116" x="291.5" y="407.4346">String getReaderName()</text><text fill="#000000" font-family="sans-serif" font-size="11" lengthAdjust="spacingAndGlyphs" textLength="0" x="294.5" y="421.2705"/><ellipse cx="282.5" cy="430.6875" fill="#84BE84" rx="3" ry="3" style="stroke: #038048; stroke-width: 1.0;"/><text fill="#000000" font-family="sans-serif" font-size="11" lengthAdjust="spacingAndGlyphs" textLength="334" x="291.5" y="435.1064">AbstractDefaultSelectionsResponse getDefaultSelectionsResponse()</text><!--MD5=[35b709ead7a86e7b2780a25fdb99ded4]
class ReaderObserver--><rect fill="#FEFECE" height="61.8359" id="ReaderObserver" style="stroke: #D4AC0D; stroke-width: 1.5;" width="159" x="154.5" y="94.5"/><ellipse cx="180.3" cy="110.5" fill="#B4A7E5" rx="11" ry="11" style="stroke: #B4A7E5; stroke-width: 1.0;"/><path d="M181.3,107.5 L181.3,113.5 L183.3,113.5 L183.7844,113.5 L184.3,114.125 L184.3,114.5 L184.3,114.875 L183.7844,115.5 L183.3,115.5 L177.3,115.5 L176.8156,115.5 L176.3,114.875 L176.3,114.5 L176.3,114.125 L176.8156,113.5 L177.3,113.5 L179.3,113.5 L179.3,107.5 L177.3,107.5 L176.8156,107.5 L176.3,106.875 L176.3,106.5 L176.3,106.125 L176.8156,105.5 L177.3,105.5 L183.3,105.5 L183.7844,105.5 L184.3,106.125 L184.3,106.5 L184.3,106.875 L183.7844,107.5 L183.3,107.5 L181.3,107.5 Z "/><ellipse cx="201.7" cy="110" fill="#84BE84" rx="3" ry="3" style="stroke: #038048; stroke-width: 1.0;"/><text fill="#000000" font-family="sans-serif" font-size="12" font-style="italic" lengthAdjust="spacingAndGlyphs" textLength="92" x="207.7" y="115.4102">ReaderObserver</text><line style="stroke: #D4AC0D; stroke-width: 1.5;" x1="155.5" x2="312.5" y1="126.5" y2="126.5"/><line style="stroke: #D4AC0D; stroke-width: 1.5;" x1="155.5" x2="312.5" y1="134.5" y2="134.5"/><ellipse cx="165.5" cy="145.5" fill="#84BE84" rx="3" ry="3" style="stroke: #038048; stroke-width: 1.0;"/><text fill="#000000" font-family="sans-serif" font-size="11" lengthAdjust="spacingAndGlyphs" textLength="133" x="174.5" y="149.9189">update(ReaderEvent event)</text><!--MD5=[b4b6a5721e02f7cea6ba89274ea67351]
class NotificationMode--><rect fill="#FEFECE" height="117.1797" id="NotificationMode" style="stroke: #D4AC0D; stroke-width: 1.5;" width="188" x="62" y="781"/><ellipse cx="101.3" cy="797" fill="#EB937F" rx="11" ry="11" style="stroke: #EB93DF; stroke-width: 1.0;"/><path d="M99.8,798 L99.8,800 L103.8,800 L103.8,799 L103.8,798.5156 L104.425,798 L104.8,798 L105.175,798 L105.8,798.5156 L105.8,799 L105.8,802 L97.8,802 L97.3156,802 L96.8,801.375 L96.8,801 L96.8,800.625 L97.3156,800 L97.8,800 L97.8,800 L97.8,794 L97.8,794 L97.3156,794 L96.8,793.375 L96.8,793 L96.8,792.625 L97.3156,792 L97.8,792 L105.8,792 L105.8,795 L105.8,795.4844 L105.175,796 L104.8,796 L104.425,796 L103.8,795.4844 L103.8,795 L103.8,794 L99.8,794 L99.8,796 L100.8,796 L100.8,795.5156 L100.8,795.5156 L101.425,795 L101.8,795 L102.175,795 L102.8,795.5156 L102.8,796 L102.8,798 L102.8,798.4844 L102.175,799 L102.175,799 L101.8,799 L101.425,799 L100.8,798.4844 L100.8,798.4844 L100.8,798 L99.8,798 Z "/><ellipse cx="125.7" cy="796.5" fill="#84BE84" rx="3" ry="3" style="stroke: #038048; stroke-width: 1.0;"/><text fill="#000000" font-family="sans-serif" font-size="12" lengthAdjust="spacingAndGlyphs" textLength="91" x="131.7" y="801.9102">NotificationMode</text><line style="stroke: #D4AC0D; stroke-width: 1.5;" x1="63" x2="249" y1="813" y2="813"/><text fill="#000000" font-family="sans-serif" font-size="11" lengthAdjust="spacingAndGlyphs" textLength="47" x="68" y="828.4189">ALWAYS</text><text fill="#000000" font-family="sans-serif" font-size="11" lengthAdjust="spacingAndGlyphs" textLength="84" x="68" y="842.2549">MATCHED_ONLY</text><line style="stroke: #D4AC0D; stroke-width: 1.5;" x1="63" x2="249" y1="848.6719" y2="848.6719"/><ellipse cx="73" cy="859.6719" fill="#84BE84" rx="3" ry="3" style="stroke: #038048; stroke-width: 1.0;"/><text fill="#000000" font-family="sans-serif" font-size="11" lengthAdjust="spacingAndGlyphs" textLength="144" x="82" y="864.0908">NotificationMode(String name)</text><ellipse cx="73" cy="873.5078" fill="#84BE84" rx="3" ry="3" style="stroke: #038048; stroke-width: 1.0;"/><text fill="#000000" font-family="sans-serif" font-size="11" lengthAdjust="spacingAndGlyphs" textLength="81" x="82" y="877.9268">String getName()</text><ellipse cx="73" cy="887.3438" fill="#84BE84" rx="3" ry="3" style="stroke: #038048; stroke-width: 1.0;"/><text fill="#000000" font-family="sans-serif" font-size="11" lengthAdjust="spacingAndGlyphs" text-decoration="underline" textLength="162" x="82" y="891.7627">NotificationMode get(String name)</text><!--MD5=[4db98615c12e554c8946e39d7c0e78ca]
class PollingMode--><rect fill="#FEFECE" height="75.6719" id="PollingMode" style="stroke: #D4AC0D; stroke-width: 1.5;" width="111" x="285.5" y="801.5"/><ellipse cx="300.5" cy="817.5" fill="#EB937F" rx="11" ry="11" style="stroke: #EB93DF; stroke-width: 1.0;"/><path d="M299,818.5 L299,820.5 L303,820.5 L303,819.5 L303,819.0156 L303.625,818.5 L304,818.5 L304.375,818.5 L305,819.0156 L305,819.5 L305,822.5 L297,822.5 L296.5156,822.5 L296,821.875 L296,821.5 L296,821.125 L296.5156,820.5 L297,820.5 L297,820.5 L297,814.5 L297,814.5 L296.5156,814.5 L296,813.875 L296,813.5 L296,813.125 L296.5156,812.5 L297,812.5 L305,812.5 L305,815.5 L305,815.9844 L304.375,816.5 L304,816.5 L303.625,816.5 L303,815.9844 L303,815.5 L303,814.5 L299,814.5 L299,816.5 L300,816.5 L300,816.0156 L300,816.0156 L300.625,815.5 L301,815.5 L301.375,815.5 L302,816.0156 L302,816.5 L302,818.5 L302,818.9844 L301.375,819.5 L301.375,819.5 L301,819.5 L300.625,819.5 L300,818.9844 L300,818.9844 L300,818.5 L299,818.5 Z "/><ellipse cx="319.5" cy="817" fill="#84BE84" rx="3" ry="3" style="stroke: #038048; stroke-width: 1.0;"/><text fill="#000000" font-family="sans-serif" font-size="12" lengthAdjust="spacingAndGlyphs" textLength="68" x="325.5" y="822.4102">PollingMode</text><line style="stroke: #D4AC0D; stroke-width: 1.5;" x1="286.5" x2="395.5" y1="833.5" y2="833.5"/><text fill="#000000" font-family="sans-serif" font-size="11" lengthAdjust="spacingAndGlyphs" textLength="56" x="291.5" y="848.9189">REPEATING</text><text fill="#000000" font-family="sans-serif" font-size="11" lengthAdjust="spacingAndGlyphs" textLength="64" x="291.5" y="862.7549">SINGLESHOT</text><line style="stroke: #D4AC0D; stroke-width: 1.5;" x1="286.5" x2="395.5" y1="869.1719" y2="869.1719"/><!--MD5=[e2341a3d5316e117132fc49473ae3219]
class ObservableReader--><rect fill="#FEFECE" height="200.1953" id="ObservableReader" style="stroke: #D4AC0D; stroke-width: 1.5;" width="391" x="38.5" y="503"/><ellipse cx="171.25" cy="519" fill="#B4A7E5" rx="11" ry="11" style="stroke: #B4A7E5; stroke-width: 1.0;"/><path d="M172.25,516 L172.25,522 L174.25,522 L174.7344,522 L175.25,522.625 L175.25,523 L175.25,523.375 L174.7344,524 L174.25,524 L168.25,524 L167.7656,524 L167.25,523.375 L167.25,523 L167.25,522.625 L167.7656,522 L168.25,522 L170.25,522 L170.25,516 L168.25,516 L167.7656,516 L167.25,515.375 L167.25,515 L167.25,514.625 L167.7656,514 L168.25,514 L174.25,514 L174.7344,514 L175.25,514.625 L175.25,515 L175.25,515.375 L174.7344,516 L174.25,516 L172.25,516 Z "/><ellipse cx="196.75" cy="518.5" fill="#84BE84" rx="3" ry="3" style="stroke: #038048; stroke-width: 1.0;"/><text fill="#000000" font-family="sans-serif" font-size="12" font-style="italic" lengthAdjust="spacingAndGlyphs" textLength="106" x="202.75" y="523.9102">ObservableReader</text><line style="stroke: #D4AC0D; stroke-width: 1.5;" x1="39.5" x2="428.5" y1="535" y2="535"/><line style="stroke: #D4AC0D; stroke-width: 1.5;" x1="39.5" x2="428.5" y1="543" y2="543"/><ellipse cx="49.5" cy="554" fill="#84BE84" rx="3" ry="3" style="stroke: #038048; stroke-width: 1.0;"/><text fill="#000000" font-family="sans-serif" font-size="11" lengthAdjust="spacingAndGlyphs" textLength="200" x="58.5" y="558.4189">addObserver(ReaderObserver observer)</text><ellipse cx="49.5" cy="567.8359" fill="#84BE84" rx="3" ry="3" style="stroke: #038048; stroke-width: 1.0;"/><text fill="#000000" font-family="sans-serif" font-size="11" lengthAdjust="spacingAndGlyphs" textLength="218" x="58.5" y="572.2549">removeObserver(ReaderObserver observer)</text><text fill="#000000" font-family="sans-serif" font-size="11" lengthAdjust="spacingAndGlyphs" textLength="0" x="61.5" y="586.0908"/><ellipse cx="49.5" cy="595.5078" fill="#84BE84" rx="3" ry="3" style="stroke: #038048; stroke-width: 1.0;"/><text fill="#000000" font-family="sans-serif" font-size="11" lengthAdjust="spacingAndGlyphs" textLength="179" x="58.5" y="599.9268">notifyObservers(ReaderEvent event)</text><text fill="#000000" font-family="sans-serif" font-size="11" lengthAdjust="spacingAndGlyphs" textLength="0" x="61.5" y="613.7627"/><ellipse cx="49.5" cy="623.1797" fill="#84BE84" rx="3" ry="3" style="stroke: #038048; stroke-width: 1.0;"/><text fill="#000000" font-family="sans-serif" font-size="11" lengthAdjust="spacingAndGlyphs" textLength="365" x="58.5" y="627.5986">setDefaultSelectionRequest(AbstractDefaultSelectionsRequest selectionsR,</text><text fill="#000000" font-family="sans-serif" font-size="11" lengthAdjust="spacingAndGlyphs" textLength="273" x="58.5" y="641.4346">NotificationMode notificationM, PollingMode[0..1] pollingM)</text><text fill="#000000" font-family="sans-serif" font-size="11" lengthAdjust="spacingAndGlyphs" textLength="0" x="61.5" y="655.2705"/><ellipse cx="49.5" cy="664.6875" fill="#84BE84" rx="3" ry="3" style="stroke: #038048; stroke-width: 1.0;"/><text fill="#000000" font-family="sans-serif" font-size="11" lengthAdjust="spacingAndGlyphs" textLength="203" x="58.5" y="669.1064">startSeDetection(PollingMode pollingMode)</text><ellipse cx="49.5" cy="678.5234" fill="#84BE84" rx="3" ry="3" style="stroke: #038048; stroke-width: 1.0;"/><text fill="#000000" font-family="sans-serif" font-size="11" lengthAdjust="spacingAndGlyphs" textLength="87" x="58.5" y="682.9424">stopSeDetection()</text><ellipse cx="49.5" cy="692.3594" fill="#84BE84" rx="3" ry="3" style="stroke: #038048; stroke-width: 1.0;"/><text fill="#000000" font-family="sans-serif" font-size="11" lengthAdjust="spacingAndGlyphs" textLength="100" x="58.5" y="696.7783">notifySeProcessed()</text><ellipse cx="234" cy="355.5" fill="#000000" rx="2" ry="2" style="stroke: none; stroke-width: 1.0;"/><!--MD5=[cfa5e1a9c30861ac5ad043f1201ace69]
class AbstractDefaultSelectionsRequest--><rect fill="#FEFECE" height="48" id="AbstractDefaultSelectionsRequest" style="stroke: #D4AC0D; stroke-width: 1.5;" width="220" x="511" y="579"/><ellipse cx="526" cy="595" fill="#ADD1B2" rx="11" ry="11" style="stroke: #ADD1B2; stroke-width: 1.0;"/><path d="M528,591.5 Q528.2031,591 528.4375,590.75 Q528.6719,590.5 528.9375,590.5 Q529.4063,590.5 529.7031,590.7813 Q530,591.0625 530,591.7188 L530,593.2813 Q530,593.9375 529.7188,594.2188 Q529.4375,594.5 529,594.5 Q528.6094,594.5 528.3594,594.3281 Q528.1094,594.1563 528,593.7031 Q527.9531,593.3906 527.7813,593.2188 Q527.4688,592.8906 526.9063,592.7031 Q526.3438,592.5 525.7813,592.5 Q525.0781,592.5 524.4844,592.7813 Q523.9063,593.0625 523.4531,593.6875 Q523,594.3125 523,595.1719 L523,596.0938 Q523,597.125 523.8438,597.8125 Q524.6875,598.5 526.1875,598.5 Q527.0781,598.5 527.7031,598.2969 Q528.0625,598.1875 528.4688,597.8281 Q528.7344,597.625 528.875,597.5625 Q529.0156,597.5 529.1875,597.5 Q529.5156,597.5 529.75,597.7656 Q530,598.0156 530,598.375 Q530,598.7188 529.6563,599.125 Q529.1563,599.7188 528.3594,600.0469 Q527.3125,600.5 526.0313,600.5 Q524.5313,600.5 523.3281,599.9063 Q522.3594,599.4375 521.6719,598.4219 Q521,597.4063 521,596.2031 L521,595.1094 Q521,593.8594 521.5938,592.7656 Q522.2031,591.6719 523.25,591.0938 Q524.3125,590.5 525.5,590.5 Q526.2188,590.5 526.8438,590.75 Q527.4688,591 528,591.5 Z "/><text fill="#000000" font-family="sans-serif" font-size="12" lengthAdjust="spacingAndGlyphs" textLength="188" x="540" y="599.9102">AbstractDefaultSelectionsRequest</text><line style="stroke: #D4AC0D; stroke-width: 1.5;" x1="512" x2="730" y1="611" y2="611"/><line style="stroke: #D4AC0D; stroke-width: 1.5;" x1="512" x2="730" y1="619" y2="619"/><!--MD5=[8f41c7e8d8e3ce316d782de639711bb6]
class AbstractDefaultSelectionsResponse--><rect fill="#FEFECE" height="48" id="AbstractDefaultSelectionsResponse" style="stroke: #D4AC0D; stroke-width: 1.5;" width="231" x="443.5" y="815.5"/><ellipse cx="458.5" cy="831.5" fill="#ADD1B2" rx="11" ry="11" style="stroke: #ADD1B2; stroke-width: 1.0;"/><path d="M460.5,828 Q460.7031,827.5 460.9375,827.25 Q461.1719,827 461.4375,827 Q461.9063,827 462.2031,827.2813 Q462.5,827.5625 462.5,828.2188 L462.5,829.7813 Q462.5,830.4375 462.2188,830.7188 Q461.9375,831 461.5,831 Q461.1094,831 460.8594,830.8281 Q460.6094,830.6563 460.5,830.2031 Q460.4531,829.8906 460.2813,829.7188 Q459.9688,829.3906 459.4063,829.2031 Q458.8438,829 458.2813,829 Q457.5781,829 456.9844,829.2813 Q456.4063,829.5625 455.9531,830.1875 Q455.5,830.8125 455.5,831.6719 L455.5,832.5938 Q455.5,833.625 456.3438,834.3125 Q457.1875,835 458.6875,835 Q459.5781,835 460.2031,834.7969 Q460.5625,834.6875 460.9688,834.3281 Q461.2344,834.125 461.375,834.0625 Q461.5156,834 461.6875,834 Q462.0156,834 462.25,834.2656 Q462.5,834.5156 462.5,834.875 Q462.5,835.2188 462.1563,835.625 Q461.6563,836.2188 460.8594,836.5469 Q459.8125,837 458.5313,837 Q457.0313,837 455.8281,836.4063 Q454.8594,835.9375 454.1719,834.9219 Q453.5,833.9063 453.5,832.7031 L453.5,831.6094 Q453.5,830.3594 454.0938,829.2656 Q454.7031,828.1719 455.75,827.5938 Q456.8125,827 458,827 Q458.7188,827 459.3438,827.25 Q459.9688,827.5 460.5,828 Z "/><text fill="#000000" font-family="sans-serif" font-size="12" lengthAdjust="spacingAndGlyphs" textLength="199" x="472.5" y="836.4102">AbstractDefaultSelectionsResponse</text><line style="stroke: #D4AC0D; stroke-width: 1.5;" x1="444.5" x2="673.5" y1="847.5" y2="847.5"/><line style="stroke: #D4AC0D; stroke-width: 1.5;" x1="444.5" x2="673.5" y1="855.5" y2="855.5"/><!--MD5=[766d3442e39134c1882b7d68f6f3b242]
link EventType_Reader to ReaderEvent--><path d="M461,191.226 C461,210.613 461,232.354 461,253.492 " fill="none" id="EventType_Reader-&gt;ReaderEvent" style="stroke: #A80036; stroke-width: 1.0;"/><ellipse cx="461" cy="260.734" fill="#FFFFFF" rx="8" ry="8" style="stroke: #A80036; stroke-width: 1.0;"/><line style="stroke: #A80036; stroke-width: 1.0;" x1="461" x2="461" y1="252.734" y2="268.734"/><line style="stroke: #A80036; stroke-width: 1.0;" x1="469" x2="453" y1="260.734" y2="260.734"/><!--MD5=[ff05c798c0d0e38364e8144829ad24ca]
reverse link ObservableReader to NotificationMode--><path d="M196.252,717.485 C188.947,739.449 181.582,761.589 175.186,780.818 " fill="none" id="ObservableReader&lt;-NotificationMode" style="stroke: #A80036; stroke-width: 1.0;"/><ellipse cx="198.5083" cy="710.6998" fill="#FFFFFF" rx="8" ry="8" style="stroke: #A80036; stroke-width: 1.0;"/><line style="stroke: #A80036; stroke-width: 1.0;" x1="195.9826" x2="201.034" y1="718.2907" y2="703.109"/><line style="stroke: #A80036; stroke-width: 1.0;" x1="190.9175" x2="206.0991" y1="708.1741" y2="713.2255"/><!--MD5=[aa7d23f4fc0db106291b229919ad88ab]
reverse link ObservableReader to PollingMode--><path d="M285.579,717.041 C299.471,747.485 313.535,778.307 324.019,801.285 " fill="none" id="ObservableReader&lt;-PollingMode" style="stroke: #A80036; stroke-width: 1.0;"/><ellipse cx="282.544" cy="710.3871" fill="#FFFFFF" rx="8" ry="8" style="stroke: #A80036; stroke-width: 1.0;"/><line style="stroke: #A80036; stroke-width: 1.0;" x1="285.865" x2="279.223" y1="717.6652" y2="703.109"/><line style="stroke: #A80036; stroke-width: 1.0;" x1="275.2659" x2="289.8221" y1="713.7081" y2="707.0661"/><!--MD5=[0db10f579d3496420bd952e593413324]
reverse link ReaderObserver to apoint11541--><path d="M234,169.942 C234,231.671 234,338.889 234,352.961 " fill="none" id="ReaderObserver&lt;-apoint11541" style="stroke: #A80036; stroke-width: 1.0;"/><polygon fill="#FFFFFF" points="234,156.777,230,162.777,234,168.777,238,162.777,234,156.777" style="stroke: #A80036; stroke-width: 1.0;"/><text fill="#000000" font-family="sans-serif" font-size="13" lengthAdjust="spacingAndGlyphs" textLength="51" x="235" y="235.4951">observes</text><polygon fill="#000000" points="256,244.3516,259,250.3516,262,244.3516,256,244.3516" style="stroke: #000000; stroke-width: 1.0;"/><text fill="#000000" font-family="sans-serif" font-size="13" lengthAdjust="spacingAndGlyphs" textLength="5" x="228.5234" y="177.8084">*</text><!--MD5=[3741f8deb02b35e0c39c411ed2b0d815]
link apoint11541 to ObservableReader--><path d="M234,357.595 C234,366.504 234,428.306 234,487.528 " fill="none" id="apoint11541-&gt;ObservableReader" style="stroke: #A80036; stroke-width: 1.0;"/><ellipse cx="234" cy="494.898" fill="#FFFFFF" rx="8" ry="8" style="stroke: #A80036; stroke-width: 1.0;"/><line style="stroke: #A80036; stroke-width: 1.0;" x1="234" x2="234" y1="486.898" y2="502.898"/><line style="stroke: #A80036; stroke-width: 1.0;" x1="242" x2="226" y1="494.898" y2="494.898"/><text fill="#000000" font-family="sans-serif" font-size="13" lengthAdjust="spacingAndGlyphs" textLength="7" x="226.732" y="492.1225">1</text><!--MD5=[67d7ae5930cafef7544acaf93aede8fe]
link apoint11541 to ReaderEvent--><path d="M236.217,355.5 C247.924,355.5 259.632,355.5 271.339,355.5 " fill="none" id="apoint11541-ReaderEvent" style="stroke: #A80036; stroke-width: 1.0; stroke-dasharray: 7.0,7.0;"/><!--MD5=[fad704757e92dcc281ead66b52a4dd7e]
reverse link ObservableReader to AbstractDefaultSelectionsRequest--><path d="M434.986,603 C461.071,603 486.974,603 510.795,603 " fill="none" id="ObservableReader&lt;-AbstractDefaultSelectionsRequest" style="stroke: #A80036; stroke-width: 1.0;"/><polygon fill="#A80036" points="429.768,603,438.768,607,434.768,603,438.768,599,429.768,603" style="stroke: #A80036; stroke-width: 1.0;"/><polygon fill="#000000" points="454.75,589.6758,448.75,592.6758,454.75,595.6758,454.75,589.6758" style="stroke: #000000; stroke-width: 1.0;"/><text fill="#000000" font-family="sans-serif" font-size="13" lengthAdjust="spacingAndGlyphs" textLength="32" x="460.75" y="596.4951">is set</text><text fill="#000000" font-family="sans-serif" font-size="13" lengthAdjust="spacingAndGlyphs" textLength="7" x="437.5519" y="600.1857">1</text><text fill="#000000" font-family="sans-serif" font-size="13" lengthAdjust="spacingAndGlyphs" textLength="7" x="496.1554" y="599.9694">1</text><!--MD5=[a9b71dddf3b48afb2529446a6f0fee22]
link AbstractDefaultSelectionsResponse to ObservableReader--><path d="M527.058,815.452 C491.621,789.883 431.998,746.863 375.747,706.276 " fill="none" id="AbstractDefaultSelectionsResponse-&gt;ObservableReader" style="stroke: #A80036; stroke-width: 1.0;"/><polygon fill="#A80036" points="371.358,703.109,376.3154,711.6192,375.4125,706.0349,380.9969,705.132,371.358,703.109" style="stroke: #A80036; stroke-width: 1.0;"/><text fill="#000000" font-family="sans-serif" font-size="13" lengthAdjust="spacingAndGlyphs" textLength="40" x="436" y="747.4951">returns</text><polygon fill="#000000" points="479,740.6758,485,743.6758,479,746.6758,479,740.6758" style="stroke: #000000; stroke-width: 1.0;"/><text fill="#000000" font-family="sans-serif" font-size="13" lengthAdjust="spacingAndGlyphs" textLength="7" x="510.976" y="804.7799">1</text><text fill="#000000" font-family="sans-serif" font-size="13" lengthAdjust="spacingAndGlyphs" textLength="7" x="374.1882" y="724.5491">1</text><!--MD5=[ccedb28a46d36cb0f26e61260b1180d8]
link AbstractDefaultSelectionsRequest to AbstractDefaultSelectionsResponse--><!--MD5=[1319acf2c1fde47d5d81a43aaa878695]
@startuml
skinparam ClassBorderColor #D4AC0D
skinparam stereotypeABorderColor #A9DCDF
skinparam stereotypeIBorderColor #B4A7E5
skinparam stereotypeCBorderColor #ADD1B2
skinparam stereotypeEBorderColor #EB93DF
skinparam shadowing false

skinparam StateBorderColor #D4AC0D
skinparam ActivityBorderColor #D4AC0D

skinparam ClassBackgroundColor<<red>> #FDEDEC
skinparam ClassBorderColor<<red>> #E74C3C
hide <<red>> stereotype
skinparam ClassBackgroundColor<<purple>> #F4ECF7
skinparam ClassBorderColor<<purple>> #8E44AD
hide <<purple>> stereotype
skinparam ClassBackgroundColor<<blue>> #EBF5FB
skinparam ClassBorderColor<<blue>> #3498DB
hide <<blue>> stereotype
skinparam ClassBackgroundColor<<green>> #EAFAF1
skinparam ClassBorderColor<<green>> #2ECC71
hide <<green>> stereotype

skinparam ClassBackgroundColor<<orange>> #FDF2E9
skinparam ClassBorderColor<<orange>> #E67E22
hide <<orange>> stereotype

skinparam ClassBackgroundColor<<grey>> #EAECEE
skinparam ClassBorderColor<<grey>> #2C3E50
hide <<grey>> stereotype

package org.eclipse.keyple.core.seproxy.event #FFFFFF {
+enum "EventType" as EventType_Reader {
  IO_ERROR
  SE_INSERTED
  SE_MATCHED
  SE_REMOVAL
  +EventType(String name)
  +String getName()
}

+class "<b>final</b> ReaderEvent" as ReaderEvent {
  +ReaderEvent(String pluginName, String readerName, EventType
  eventType, DefaultSelectionsResponse[0..1] defaultSelectionsResponse)

  +EventType getEventType()

  +String getPluginName()
  +String getReaderName()

  +AbstractDefaultSelectionsResponse getDefaultSelectionsResponse()
}

  EventType_Reader - -+ ReaderEvent

  +interface ReaderObserver {
    +update(ReaderEvent event)
  }

+enum NotificationMode {
  ALWAYS
  MATCHED_ONLY
  +NotificationMode(String name)
  +String getName()
  +{static}NotificationMode get(String name)
}

+enum PollingMode {
  REPEATING
  SINGLESHOT
}
+interface ObservableReader {
  +addObserver(ReaderObserver observer)
  +removeObserver(ReaderObserver observer)

  +notifyObservers(ReaderEvent event)

  +setDefaultSelectionRequest(AbstractDefaultSelectionsRequest selectionsR,
      NotificationMode notificationM, PollingMode[0..1] pollingM)

  +startSeDetection(PollingMode pollingMode)
  +stopSeDetection()
  +notifySeProcessed()
}

  ObservableReader +-down- NotificationMode
  ObservableReader +-down- PollingMode

  ReaderObserver "1" +-down-o "*" ObservableReader : observes <
  (ReaderObserver, ObservableReader) . ReaderEvent

  AbstractDefaultSelectionsRequest "1" -left-> "1" ObservableReader : is set >
  AbstractDefaultSelectionsResponse "1" - -> "1" ObservableReader : returns <
  AbstractDefaultSelectionsRequest -down[hidden]- AbstractDefaultSelectionsResponse
}
@enduml

PlantUML version 1.2020.09(Sun May 10 14:51:06 MUT 2020)
(GPL source distribution)
Java Runtime: OpenJDK Runtime Environment
JVM: OpenJDK 64-Bit Server VM
Java Version: 11.0.7+10-b765.64
Operating System: Windows 10
Default Encoding: Cp1252
Language: fr
Country: FR
--></g></svg>