<?xml version="1.0" encoding="UTF-8" standalone="no"?><svg xmlns="http://www.w3.org/2000/svg" xmlns:xlink="http://www.w3.org/1999/xlink" contentScriptType="application/ecmascript" contentStyleType="text/css" height="837px" preserveAspectRatio="none" style="width:1394px;height:837px;" version="1.1" viewBox="0 0 1394 837" width="1394px" zoomAndPan="magnify"><defs/><g><!--MD5=[e492621730c6c9a1b92a9fcafcf3a8d9]
cluster SE_ObservationDisabled--><rect fill="#FEFECE" height="186" rx="12.5" ry="12.5" style="stroke: #D4AC0D; stroke-width: 1.5;" width="575" x="22" y="24"/><rect fill="#FFFFFF" height="152.3906" rx="12.5" ry="12.5" style="stroke: #FFFFFF; stroke-width: 1.0;" width="569" x="25" y="54.6094"/><line style="stroke: #D4AC0D; stroke-width: 1.5;" x1="22" x2="597" y1="51.6094" y2="51.6094"/><text fill="#000000" font-family="sans-serif" font-size="14" lengthAdjust="spacingAndGlyphs" textLength="96" x="229.5" y="42.5332">SE observation</text><text fill="#000000" font-family="sans-serif" font-size="14" font-weight="bold" lengthAdjust="spacingAndGlyphs" textLength="60" x="329.5" y="42.5332">disabled</text><!--MD5=[1f63e34000d331c93416f84ee164ac34]
cluster SE_ObservationActivated--><rect fill="#FEFECE" height="464" rx="12.5" ry="12.5" style="stroke: #D4AC0D; stroke-width: 1.5;" width="1110" x="33" y="362"/><rect fill="#FFFFFF" height="410.2969" rx="12.5" ry="12.5" style="stroke: #FFFFFF; stroke-width: 1.0;" width="1104" x="36" y="412.7031"/><line style="stroke: #D4AC0D; stroke-width: 1.5;" x1="33" x2="1143" y1="409.7031" y2="409.7031"/><line style="stroke: #D4AC0D; stroke-width: 1.5;" x1="33" x2="1143" y1="389.6094" y2="389.6094"/><text fill="#000000" font-family="sans-serif" font-size="14" lengthAdjust="spacingAndGlyphs" textLength="96" x="454.5" y="380.5332">SE observation</text><text fill="#000000" font-family="sans-serif" font-size="14" font-weight="bold" lengthAdjust="spacingAndGlyphs" textLength="65" x="554.5" y="380.5332">activated</text><text fill="#000000" font-family="sans-serif" font-size="12" lengthAdjust="spacingAndGlyphs" textLength="267" x="38" y="404.5664">number of observer &gt; 0  &amp;&amp;  PollingMode defined</text><ellipse cx="115" cy="70" fill="#000000" rx="10" ry="10" style="stroke: none; stroke-width: 1.0;"/><rect fill="#FEFECE" height="52.7031" rx="12.5" ry="12.5" style="stroke: #D4AC0D; stroke-width: 1.5;" width="154" x="38" y="141"/><line style="stroke: #D4AC0D; stroke-width: 1.5;" x1="38" x2="192" y1="168.6094" y2="168.6094"/><text fill="#000000" font-family="sans-serif" font-size="14" lengthAdjust="spacingAndGlyphs" textLength="109" x="60.5" y="160.5332">WaitForObserver</text><text fill="#000000" font-family="sans-serif" font-size="12" lengthAdjust="spacingAndGlyphs" textLength="134" x="43" y="186.0664">number of observer == 0</text><rect fill="#FEFECE" height="52.7031" rx="12.5" ry="12.5" style="stroke: #D4AC0D; stroke-width: 1.5;" width="160" x="421" y="141"/><line style="stroke: #D4AC0D; stroke-width: 1.5;" x1="421" x2="581" y1="168.6094" y2="168.6094"/><text fill="#000000" font-family="sans-serif" font-size="14" lengthAdjust="spacingAndGlyphs" textLength="140" x="431" y="160.5332">WaitForStartDetection</text><text fill="#000000" font-family="sans-serif" font-size="12" lengthAdjust="spacingAndGlyphs" textLength="127" x="426" y="186.0664">number of observer &gt; 0</text><rect fill="#FEFECE" height="40" rx="12.5" ry="12.5" style="stroke: #D4AC0D; stroke-width: 1.5;" width="131" x="466.5" y="426"/><text fill="#000000" font-family="sans-serif" font-size="14" lengthAdjust="spacingAndGlyphs" textLength="121" x="471.5" y="451.7285">WaitForSeInsertion</text><rect fill="#FEFECE" height="40" rx="12.5" ry="12.5" style="stroke: #D4AC0D; stroke-width: 1.5;" width="147" x="458.5" y="762"/><text fill="#000000" font-family="sans-serif" font-size="14" lengthAdjust="spacingAndGlyphs" textLength="137" x="463.5" y="787.7285">WaitForSeProcessing</text><rect fill="#FEFECE" height="40" rx="12.5" ry="12.5" style="stroke: #D4AC0D; stroke-width: 1.5;" width="132" x="855" y="762"/><text fill="#000000" font-family="sans-serif" font-size="14" lengthAdjust="spacingAndGlyphs" textLength="122" x="860" y="787.7285">WaitForSeRemoval</text><!--MD5=[f645417660ba964249a87cd24ba2b7cd]
link *start*SE_ObservationDisabled to WaitForObserver--><path d="M115,80.157 C115,92.788 115,116.181 115,135.435 " fill="none" id="*start*SE_ObservationDisabled-&gt;WaitForObserver" style="stroke: #000000; stroke-width: 1.0;"/><polygon fill="#000000" points="115,140.743,119,131.743,115,135.743,111,131.743,115,140.743" style="stroke: #000000; stroke-width: 1.0;"/><!--MD5=[136a2b1d08fde5b6a9585a9cd3ff408d]
link WaitForObserver to WaitForStartDetection--><path d="M179.025,194.008 C192.195,198.364 206.128,202.203 219.5,204.5 C257.608,211.047 355.363,210.879 393.5,204.5 C405.616,202.473 418.195,199.245 430.295,195.519 " fill="none" id="WaitForObserver-&gt;WaitForStartDetection" style="stroke: #0000FF; stroke-width: 1.0;"/><polygon fill="#0000FF" points="435.086,194.011,425.3003,192.8977,430.3167,195.5122,427.7022,200.5286,435.086,194.011" style="stroke: #0000FF; stroke-width: 1.0;"/><text fill="#000000" font-family="sans-serif" font-size="13" lengthAdjust="spacingAndGlyphs" textLength="0" x="308.5" y="184.9951"/><text fill="#000000" font-family="sans-serif" font-size="13" lengthAdjust="spacingAndGlyphs" textLength="172" x="220.5" y="201.3467">addObserver(ReaderObserver)</text><!--MD5=[e9e30b41fcb02c2ebe81f14a1b3c6b24]
reverse link WaitForObserver to WaitForStartDetection--><path d="M197.293,167.5 C263.339,167.5 355.519,167.5 420.961,167.5 " fill="none" id="WaitForObserver&lt;-WaitForStartDetection" style="stroke: #0000FF; stroke-width: 1.0;"/><polygon fill="#0000FF" points="192.185,167.5,201.185,171.5,197.185,167.5,201.185,163.5,192.185,167.5" style="stroke: #0000FF; stroke-width: 1.0;"/><text fill="#000000" font-family="sans-serif" font-size="13" lengthAdjust="spacingAndGlyphs" textLength="192" x="210.5" y="144.9951">removeObserver(ReaderObserver)</text><text fill="#000000" font-family="sans-serif" font-size="13" lengthAdjust="spacingAndGlyphs" textLength="127" x="243" y="161.3467">&amp;&amp; (nb observer == 0)</text><!--MD5=[992ba655eaf93782ef94c02e89306d3d]
link WaitForSeInsertion to WaitForSeProcessing--><path d="M529.066,466.112 C522.928,499.224 505.508,567.054 462,602 C411.371,642.666 359.934,581.587 319,632 C290.984,666.503 291.319,697.228 319,732 C335.827,753.138 399.844,765.9216 453.343,773.1044 " fill="none" id="WaitForSeInsertion-&gt;WaitForSeProcessing" style="stroke: #FF0000; stroke-width: 1.0;"/><polygon fill="#FF0000" points="458.486,773.7822,450.0853,768.6413,453.5288,773.1293,449.0408,776.5728,458.486,773.7822" style="stroke: #FF0000; stroke-width: 1.0;"/><text fill="#000000" font-family="sans-serif" font-size="13" lengthAdjust="spacingAndGlyphs" textLength="121" x="343.5" y="646.4951">notifies 'SE matched'</text><text fill="#000000" font-family="sans-serif" font-size="13" lengthAdjust="spacingAndGlyphs" textLength="6" x="399" y="662.8467">||</text><text fill="#000000" font-family="sans-serif" font-size="13" lengthAdjust="spacingAndGlyphs" textLength="94" x="357" y="679.1982">'SE inserted' &amp;&amp;</text><text fill="#000000" font-family="sans-serif" font-size="13" lengthAdjust="spacingAndGlyphs" textLength="168" x="320" y="695.5498">(NotificationMode == always)</text><text fill="#000000" font-family="sans-serif" font-size="13" lengthAdjust="spacingAndGlyphs" textLength="0" x="406" y="711.9014"/><text fill="#000000" font-family="sans-serif" font-size="13" lengthAdjust="spacingAndGlyphs" textLength="0" x="406" y="728.2529"/><!--MD5=[f1e6c1622d14c41e2c6063e83a3f7583]
reverse link WaitForSeInsertion to WaitForSeProcessing--><path d="M531.078,471.118 C529.348,520.228 526.045,635.367 529,732 C529.302,741.882 529.947,752.8691 530.561,761.931 " fill="none" id="WaitForSeInsertion&lt;-WaitForSeProcessing" style="stroke: #FF0000; stroke-width: 1.0; stroke-dasharray: 7.0,7.0;"/><polygon fill="#FF0000" points="531.26,466.017,526.9411,474.8684,531.0814,471.0138,534.9359,475.1541,531.26,466.017" style="stroke: #FF0000; stroke-width: 1.0;"/><text fill="#000000" font-family="sans-serif" font-size="13" lengthAdjust="spacingAndGlyphs" textLength="141" x="530" y="654.9951">notifies 'SE removed' &amp;&amp;</text><text fill="#000000" font-family="sans-serif" font-size="13" lengthAdjust="spacingAndGlyphs" textLength="113" x="544" y="671.3467">(Observable Reader</text><text fill="#000000" font-family="sans-serif" font-size="13" lengthAdjust="spacingAndGlyphs" textLength="104" x="548.5" y="687.6982">with the capability</text><text fill="#000000" font-family="sans-serif" font-size="13" lengthAdjust="spacingAndGlyphs" textLength="121" x="540" y="704.0498">to detect the removal</text><text fill="#000000" font-family="sans-serif" font-size="13" lengthAdjust="spacingAndGlyphs" textLength="69" x="566" y="720.4014">at any time)</text><!--MD5=[a4b1e4565b5cd840fe49854f8e68b371]
link WaitForSeInsertion to WaitForSeRemoval--><path d="M550.219,466.058 C580.008,498.077 639.474,565.691 676,632 C698.791,673.375 676.73,700.578 712,732 C732.353,750.1324 797.687,763.5417 849.951,771.7052 " fill="none" id="WaitForSeInsertion-&gt;WaitForSeRemoval" style="stroke: #FF0000; stroke-width: 1.0;"/><polygon fill="#FF0000" points="854.966,772.4788,846.6801,767.1549,850.0243,771.7174,845.4618,775.0615,854.966,772.4788" style="stroke: #FF0000; stroke-width: 1.0;"/><text fill="#000000" font-family="sans-serif" font-size="13" lengthAdjust="spacingAndGlyphs" textLength="161" x="732" y="670.9951">'SE inserted' not notified &amp;&amp;</text><text fill="#000000" font-family="sans-serif" font-size="13" lengthAdjust="spacingAndGlyphs" textLength="199" x="713" y="687.3467">((NotificationMode == match_only)</text><text fill="#000000" font-family="sans-serif" font-size="13" lengthAdjust="spacingAndGlyphs" textLength="112" x="756.5" y="703.6982">&amp;&amp; selection failed)</text><!--MD5=[d16b56604473427f1d6ff08eca48d2dd]
reverse link WaitForSeInsertion to WaitForSeRemoval--><path d="M602.899,458.305 C693.403,476.918 846.662,523.425 917,632 C942.888,671.962 933.629,731.452 926.372,761.7544 " fill="none" id="WaitForSeInsertion&lt;-WaitForSeRemoval" style="stroke: #FF0000; stroke-width: 1.0;"/><polygon fill="#FF0000" points="597.834,457.279,605.8604,462.9866,602.7344,458.2719,607.4491,455.146,597.834,457.279" style="stroke: #FF0000; stroke-width: 1.0;"/><text fill="#000000" font-family="sans-serif" font-size="13" lengthAdjust="spacingAndGlyphs" textLength="141" x="945" y="679.4951">notifies 'SE removed' &amp;&amp;</text><text fill="#000000" font-family="sans-serif" font-size="13" lengthAdjust="spacingAndGlyphs" textLength="161" x="935" y="695.8467">(PollingMode == Repeating)</text><!--MD5=[3be551d457db0240ed3ed59c107ad5f2]
link WaitForSeProcessing to WaitForSeRemoval--><path d="M605.625,782 C675.608,782 780.181,782 849.465,782 " fill="none" id="WaitForSeProcessing-&gt;WaitForSeRemoval" style="stroke: #0000FF; stroke-width: 1.0;"/><polygon fill="#0000FF" points="854.807,782,845.807,778,849.807,782,845.807,786,854.807,782" style="stroke: #0000FF; stroke-width: 1.0;"/><text fill="#000000" font-family="sans-serif" font-size="13" lengthAdjust="spacingAndGlyphs" textLength="129" x="665.75" y="742.4951">finalizeSeProcessing()</text><text fill="#000000" font-family="sans-serif" font-size="13" lengthAdjust="spacingAndGlyphs" textLength="6" x="725.25" y="758.8467">||</text><text fill="#000000" font-family="sans-serif" font-size="13" lengthAdjust="spacingAndGlyphs" textLength="178" x="641.25" y="775.1982">'SE channel release requested'</text><!--MD5=[f2e10831cc9a25737cccb2043bcbba7d]
link WaitForStartDetection to WaitForSeInsertion--><path d="M503.861,194.017 C509.817,247.14 523.476,368.975 529.295,420.874 " fill="none" id="WaitForStartDetection-&gt;WaitForSeInsertion" style="stroke: #0000FF; stroke-width: 1.0;"/><polygon fill="#0000FF" points="529.866,425.968,532.8382,416.5783,529.3088,420.9991,524.888,417.4698,529.866,425.968" style="stroke: #0000FF; stroke-width: 1.0;"/><text fill="#000000" font-family="sans-serif" font-size="13" lengthAdjust="spacingAndGlyphs" textLength="176" x="513" y="248.4951">startSeDetection(PollingMode)</text><!--MD5=[1068d7540bf7bac1afc11ff209f6fa86]
reverse link WaitForObserver to SE_ObservationActivated--><path d="M106.855,198.933 C97.393,234.288 81.3004,294.4183 67.3921,346.3864 C66.5228,349.6344 65.6621,352.8505 64.812,356.0267 C64.387,357.6148 63.9647,359.1929 63.5452,360.7601 C63.4404,361.1518 63.3357,361.5429 63.2312,361.9333 " fill="none" id="WaitForObserver&lt;-SE_ObservationActivated" style="stroke: #0000FF; stroke-width: 1.0;"/><polygon fill="#0000FF" points="108.171,194.017,101.9801,201.6768,106.8783,198.847,109.7081,203.7452,108.171,194.017" style="stroke: #0000FF; stroke-width: 1.0;"/><text fill="#000000" font-family="sans-serif" font-size="13" lengthAdjust="spacingAndGlyphs" textLength="192" x="101" y="240.4951">removeObserver(ReaderObserver)</text><text fill="#000000" font-family="sans-serif" font-size="13" lengthAdjust="spacingAndGlyphs" textLength="127" x="133.5" y="256.8467">&amp;&amp; (nb observer == 0)</text><!--MD5=[7084485a9cd647be65346d947e6e82f4]
reverse link WaitForStartDetection to SE_ObservationActivated--><path d="M444.021,196.459 C396.901,220.087 328.616,255.503 271,290 C244.9733,305.5835 217.8273,322.8841 191.6891,340.113 C185.1546,344.4202 178.683,348.7229 172.3077,352.9932 C169.1201,355.1283 165.9565,357.2553 162.8211,359.3708 C162.0372,359.8996 161.2552,360.4277 160.4749,360.9551 C160.0848,361.2188 159.6951,361.4823 159.3059,361.7455 " fill="none" id="WaitForStartDetection&lt;-SE_ObservationActivated" style="stroke: #0000FF; stroke-width: 1.0;"/><polygon fill="#0000FF" points="448.514,194.21,438.6755,194.661,444.0427,196.4478,442.2559,201.815,448.514,194.21" style="stroke: #0000FF; stroke-width: 1.0;"/><text fill="#000000" font-family="sans-serif" font-size="13" lengthAdjust="spacingAndGlyphs" textLength="104" x="384" y="248.4951">stopSeDetection()</text><!--MD5=[16b046d93cd8096a7c5fef4d5ffd097c]
reverse link SE_ObservationActivated to SE_ObservationActivated--><path d="M1149,445.411 C1160.8318,395.501 1184.2213,395.697 1184.2213,446 C1184.2213,496.303 1160.8318,496.499 1149,446.589 " fill="none" id="SE_ObservationActivated&lt;-SE_ObservationActivated" style="stroke: #0000FF; stroke-width: 1.0;"/><polygon fill="#0000FF" points="1149,445.411,1154.9682,437.5764,1150.1533,440.5458,1147.1839,435.731,1149,445.411" style="stroke: #0000FF; stroke-width: 1.0;"/><text fill="#000000" font-family="sans-serif" font-size="13" lengthAdjust="spacingAndGlyphs" textLength="192" x="1190.2213" y="443.4951">removeObserver(ReaderObserver)</text><text fill="#000000" font-family="sans-serif" font-size="13" lengthAdjust="spacingAndGlyphs" textLength="119" x="1226.7213" y="459.8467">&amp;&amp; (nb observer &gt; 0)</text><!--MD5=[468fcc5103ee613552758a9e57699ebf]
reverse link WaitForStartDetection to WaitForSeRemoval--><path d="M586.674,183.673 C622.73,192.491 664.094,205.948 698,226 C917.92,356.063 1007.08,396.008 1105,632 C1122.03,673.051 1132.08,696.761 1105,732 C1090.45,750.9375 1033.7,764.1081 987.027,771.9884 " fill="none" id="WaitForStartDetection&lt;-WaitForSeRemoval" style="stroke: #FF0000; stroke-width: 1.0;"/><polygon fill="#FF0000" points="581.394,182.405,589.2115,188.3955,586.2558,183.5722,591.0791,180.6166,581.394,182.405" style="stroke: #FF0000; stroke-width: 1.0;"/><text fill="#000000" font-family="sans-serif" font-size="13" lengthAdjust="spacingAndGlyphs" textLength="141" x="1104.5" y="304.4951">notifies 'SE removed' &amp;&amp;</text><text fill="#000000" font-family="sans-serif" font-size="13" lengthAdjust="spacingAndGlyphs" textLength="166" x="1092" y="320.8467">(PollingMode == SingleShot)</text><text fill="#000000" font-family="sans-serif" font-size="13" lengthAdjust="spacingAndGlyphs" textLength="0" x="1177" y="337.1982"/><text fill="#000000" font-family="sans-serif" font-size="13" lengthAdjust="spacingAndGlyphs" textLength="0" x="1177" y="353.5498"/><text fill="#000000" font-family="sans-serif" font-size="13" lengthAdjust="spacingAndGlyphs" textLength="0" x="1177" y="369.9014"/><text fill="#000000" font-family="sans-serif" font-size="13" lengthAdjust="spacingAndGlyphs" textLength="0" x="1177" y="386.2529"/><text fill="#000000" font-family="sans-serif" font-size="13" lengthAdjust="spacingAndGlyphs" textLength="0" x="1177" y="402.6045"/><text fill="#000000" font-family="sans-serif" font-size="13" lengthAdjust="spacingAndGlyphs" textLength="0" x="1177" y="418.9561"/><text fill="#000000" font-family="sans-serif" font-size="13" lengthAdjust="spacingAndGlyphs" textLength="0" x="1177" y="435.3076"/><text fill="#000000" font-family="sans-serif" font-size="13" lengthAdjust="spacingAndGlyphs" textLength="0" x="1177" y="451.6592"/><text fill="#000000" font-family="sans-serif" font-size="13" lengthAdjust="spacingAndGlyphs" textLength="0" x="1177" y="468.0107"/><text fill="#000000" font-family="sans-serif" font-size="13" lengthAdjust="spacingAndGlyphs" textLength="0" x="1177" y="484.3623"/><text fill="#000000" font-family="sans-serif" font-size="13" lengthAdjust="spacingAndGlyphs" textLength="0" x="1177" y="500.7139"/><text fill="#000000" font-family="sans-serif" font-size="13" lengthAdjust="spacingAndGlyphs" textLength="0" x="1177" y="517.0654"/><text fill="#000000" font-family="sans-serif" font-size="13" lengthAdjust="spacingAndGlyphs" textLength="0" x="1177" y="533.417"/><text fill="#000000" font-family="sans-serif" font-size="13" lengthAdjust="spacingAndGlyphs" textLength="0" x="1177" y="549.7686"/><text fill="#000000" font-family="sans-serif" font-size="13" lengthAdjust="spacingAndGlyphs" textLength="0" x="1177" y="566.1201"/><text fill="#000000" font-family="sans-serif" font-size="13" lengthAdjust="spacingAndGlyphs" textLength="0" x="1177" y="582.4717"/><text fill="#000000" font-family="sans-serif" font-size="13" lengthAdjust="spacingAndGlyphs" textLength="0" x="1177" y="598.8232"/><!--MD5=[d34b63ab2b9d8592492c4c0536b2980d]
@startuml
skinparam ClassBorderColor #D4AC0D
skinparam stereotypeABorderColor #A9DCDF
skinparam stereotypeIBorderColor #B4A7E5
skinparam stereotypeCBorderColor #ADD1B2
skinparam stereotypeEBorderColor #EB93DF
skinparam shadowing false

skinparam StateBorderColor #D4AC0D
skinparam ActivityBorderColor #D4AC0D

skinparam ClassBackgroundColor<<red>> #FDEDEC
skinparam ClassBorderColor<<red>> #E74C3C
hide <<red>> stereotype
skinparam ClassBackgroundColor<<purple>> #F4ECF7
skinparam ClassBorderColor<<purple>> #8E44AD
hide <<purple>> stereotype
skinparam ClassBackgroundColor<<blue>> #EBF5FB
skinparam ClassBorderColor<<blue>> #3498DB
hide <<blue>> stereotype
skinparam ClassBackgroundColor<<green>> #EAFAF1
skinparam ClassBorderColor<<green>> #2ECC71
hide <<green>> stereotype

skinparam ClassBackgroundColor<<orange>> #FDF2E9
skinparam ClassBorderColor<<orange>> #E67E22
hide <<orange>> stereotype

skinparam ClassBackgroundColor<<grey>> #EAECEE
skinparam ClassBorderColor<<grey>> #2C3E50
hide <<grey>> stereotype
hide empty description

state "SE observation <b>disabled</b>" as SE_ObservationDisabled {
  [*] - -[#Black]> WaitForObserver
  WaitForObserver -right[#Blue]-> WaitForStartDetection : \naddObserver(ReaderObserver)
  WaitForObserver : number of observer == 0
  WaitForStartDetection -left[#Blue]-> WaitForObserver : removeObserver(ReaderObserver)\n&& (nb observer == 0)
  WaitForStartDetection : number of observer > 0
}

state "SE observation <b>activated</b>" as SE_ObservationActivated {
  SE_ObservationActivated : number of observer > 0  &&  PollingMode defined
  WaitForSeInsertion -down[#Red]-> WaitForSeProcessing : notifies 'SE matched'\n|| \n'SE inserted' &&\n(NotificationMode == always)\n\n
  WaitForSeInsertion -down[#Red]-> WaitForSeRemoval : 'SE inserted' not notified &&\n((NotificationMode == match_only)\n&& selection failed)
  WaitForSeRemoval -up[#Red]-> WaitForSeInsertion : notifies 'SE removed' &&\n(PollingMode == Repeating)
  WaitForSeProcessing -up[#Red,dashed]-> WaitForSeInsertion : notifies 'SE removed' &&\n(Observable Reader\nwith the capability\nto detect the removal\nat any time)

  WaitForSeProcessing -right[#Blue]-> WaitForSeRemoval : finalizeSeProcessing()\n|| \n'SE channel release requested'
}

WaitForStartDetection -down[#Blue]-> WaitForSeInsertion : startSeDetection(PollingMode)
SE_ObservationActivated -up[#Blue]-> WaitForObserver : removeObserver(ReaderObserver)\n&& (nb observer == 0)
SE_ObservationActivated -up[#Blue]-> WaitForStartDetection : stopSeDetection()

SE_ObservationActivated -up[#Blue]-> SE_ObservationActivated : removeObserver(ReaderObserver)\n&& (nb observer > 0)

WaitForSeRemoval -left[#Red]-> WaitForStartDetection : notifies 'SE removed' &&\n(PollingMode == SingleShot)\n\n\n\n\n\n\n\n\n\n\n\n\n\n\n\n\n
@enduml

PlantUML version 1.2020.09(Sun May 10 14:51:06 MUT 2020)
(GPL source distribution)
Java Runtime: OpenJDK Runtime Environment
JVM: OpenJDK 64-Bit Server VM
Java Version: 11.0.7+10-b765.64
Operating System: Windows 10
Default Encoding: Cp1252
Language: fr
Country: FR
--></g></svg>