<?xml version="1.0" encoding="UTF-8" standalone="no"?><svg xmlns="http://www.w3.org/2000/svg" xmlns:xlink="http://www.w3.org/1999/xlink" contentScriptType="application/ecmascript" contentStyleType="text/css" height="1173px" preserveAspectRatio="none" style="width:1199px;height:1173px;" version="1.1" viewBox="0 0 1199 1173" width="1199px" zoomAndPan="magnify"><defs/><g><!--MD5=[ce7bfceea28453858a30d77f1599b96e]
cluster org.eclipse.keyple--><polygon fill="#FFFFFF" points="22,24,157,24,164,47.6094,1177,47.6094,1177,1161,22,1161,22,24" style="stroke: #000000; stroke-width: 1.5;"/><line style="stroke: #000000; stroke-width: 1.5;" x1="22" x2="164" y1="47.6094" y2="47.6094"/><text fill="#000000" font-family="sans-serif" font-size="14" font-weight="bold" lengthAdjust="spacingAndGlyphs" textLength="129" x="26" y="40.5332">org.eclipse.keyple</text><!--MD5=[01435ace8273dc3cae88e7f376e4d373]
cluster core--><polygon fill="#FFFFFF" points="382,227,420,227,427,250.6094,1153,250.6094,1153,1137,382,1137,382,227" style="stroke: #000000; stroke-width: 1.5;"/><line style="stroke: #000000; stroke-width: 1.5;" x1="382" x2="427" y1="250.6094" y2="250.6094"/><text fill="#000000" font-family="sans-serif" font-size="14" font-weight="bold" lengthAdjust="spacingAndGlyphs" textLength="32" x="386" y="243.5332">core</text><!--MD5=[50877fe469a156400d2d04beeda3ce9c]
cluster seproxy--><polygon fill="#FFFFFF" points="408,271,470,271,477,294.6094,764,294.6094,764,454,408,454,408,271" style="stroke: #000000; stroke-width: 1.5;"/><line style="stroke: #000000; stroke-width: 1.5;" x1="408" x2="477" y1="294.6094" y2="294.6094"/><text fill="#000000" font-family="sans-serif" font-size="14" font-weight="bold" lengthAdjust="spacingAndGlyphs" textLength="56" x="412" y="287.5332">seproxy</text><!--MD5=[3400e5e1a9d8ffd8780970ed03335273]
cluster selection--><polygon fill="#FFFFFF" points="406,487,477,487,484,510.6094,1129,510.6094,1129,1113,406,1113,406,487" style="stroke: #000000; stroke-width: 1.5;"/><line style="stroke: #000000; stroke-width: 1.5;" x1="406" x2="484" y1="510.6094" y2="510.6094"/><text fill="#000000" font-family="sans-serif" font-size="14" font-weight="bold" lengthAdjust="spacingAndGlyphs" textLength="65" x="410" y="503.5332">selection</text><!--MD5=[e49a056d45e206961a86949c8ace11e3]
cluster calypso.transaction--><polygon fill="#FFFFFF" points="46,68,188,68,195,91.6094,358,91.6094,358,1092,46,1092,46,68" style="stroke: #000000; stroke-width: 1.5;"/><line style="stroke: #000000; stroke-width: 1.5;" x1="46" x2="195" y1="91.6094" y2="91.6094"/><text fill="#000000" font-family="sans-serif" font-size="14" font-weight="bold" lengthAdjust="spacingAndGlyphs" textLength="136" x="50" y="84.5332">calypso.transaction</text><!--MD5=[233c6f1f7c69be3daec88cbd55acc2d5]
class SeSelector--><rect fill="#FEFECE" height="131.0156" id="SeSelector" style="stroke: #D4AC0D; stroke-width: 1.5;" width="323" x="424.5" y="307"/><ellipse cx="546.25" cy="323" fill="#ADD1B2" rx="11" ry="11" style="stroke: #ADD1B2; stroke-width: 1.0;"/><path d="M548.25,319.5 Q548.4531,319 548.6875,318.75 Q548.9219,318.5 549.1875,318.5 Q549.6563,318.5 549.9531,318.7813 Q550.25,319.0625 550.25,319.7188 L550.25,321.2813 Q550.25,321.9375 549.9688,322.2188 Q549.6875,322.5 549.25,322.5 Q548.8594,322.5 548.6094,322.3281 Q548.3594,322.1563 548.25,321.7031 Q548.2031,321.3906 548.0313,321.2188 Q547.7188,320.8906 547.1563,320.7031 Q546.5938,320.5 546.0313,320.5 Q545.3281,320.5 544.7344,320.7813 Q544.1563,321.0625 543.7031,321.6875 Q543.25,322.3125 543.25,323.1719 L543.25,324.0938 Q543.25,325.125 544.0938,325.8125 Q544.9375,326.5 546.4375,326.5 Q547.3281,326.5 547.9531,326.2969 Q548.3125,326.1875 548.7188,325.8281 Q548.9844,325.625 549.125,325.5625 Q549.2656,325.5 549.4375,325.5 Q549.7656,325.5 550,325.7656 Q550.25,326.0156 550.25,326.375 Q550.25,326.7188 549.9063,327.125 Q549.4063,327.7188 548.6094,328.0469 Q547.5625,328.5 546.2813,328.5 Q544.7813,328.5 543.5781,327.9063 Q542.6094,327.4375 541.9219,326.4219 Q541.25,325.4063 541.25,324.2031 L541.25,323.1094 Q541.25,321.8594 541.8438,320.7656 Q542.4531,319.6719 543.5,319.0938 Q544.5625,318.5 545.75,318.5 Q546.4688,318.5 547.0938,318.75 Q547.7188,319 548.25,319.5 Z "/><ellipse cx="571.75" cy="322.5" fill="#84BE84" rx="3" ry="3" style="stroke: #038048; stroke-width: 1.0;"/><text fill="#000000" font-family="sans-serif" font-size="12" lengthAdjust="spacingAndGlyphs" textLength="60" x="577.75" y="327.9102">SeSelector</text><line style="stroke: #D4AC0D; stroke-width: 1.5;" x1="425.5" x2="746.5" y1="339" y2="339"/><line style="stroke: #D4AC0D; stroke-width: 1.5;" x1="425.5" x2="746.5" y1="347" y2="347"/><ellipse cx="435.5" cy="358" fill="#84BE84" rx="3" ry="3" style="stroke: #038048; stroke-width: 1.0;"/><text fill="#000000" font-family="sans-serif" font-size="11" lengthAdjust="spacingAndGlyphs" textLength="297" x="444.5" y="362.4189">SeSelector(SeProtocol[0..1] seProtocol, AtrFilter[0..1] atrFilter,</text><text fill="#000000" font-family="sans-serif" font-size="11" lengthAdjust="spacingAndGlyphs" textLength="141" x="444.5" y="376.2549">AidSelector[0..1] aidSelector)</text><text fill="#000000" font-family="sans-serif" font-size="11" lengthAdjust="spacingAndGlyphs" textLength="0" x="447.5" y="390.0908"/><ellipse cx="435.5" cy="399.5078" fill="#84BE84" rx="3" ry="3" style="stroke: #038048; stroke-width: 1.0;"/><text fill="#000000" font-family="sans-serif" font-size="11" lengthAdjust="spacingAndGlyphs" textLength="130" x="444.5" y="403.9268">SeProtocol getSeProtocol()</text><ellipse cx="435.5" cy="413.3438" fill="#84BE84" rx="3" ry="3" style="stroke: #038048; stroke-width: 1.0;"/><text fill="#000000" font-family="sans-serif" font-size="11" lengthAdjust="spacingAndGlyphs" textLength="102" x="444.5" y="417.7627">AtrFilter getAtrFilter()</text><ellipse cx="435.5" cy="427.1797" fill="#84BE84" rx="3" ry="3" style="stroke: #038048; stroke-width: 1.0;"/><text fill="#000000" font-family="sans-serif" font-size="11" lengthAdjust="spacingAndGlyphs" textLength="138" x="444.5" y="431.5986">AidSelector getAidSelector()</text><!--MD5=[2bff4e731e7da2a8565e3debd2f462d8]
class SeSelection--><rect fill="#FEFECE" height="186.3594" id="SeSelection" style="stroke: #D4AC0D; stroke-width: 1.5;" width="368" x="745" y="760"/><ellipse cx="872.75" cy="776" fill="#ADD1B2" rx="11" ry="11" style="stroke: #ADD1B2; stroke-width: 1.0;"/><path d="M874.75,772.5 Q874.9531,772 875.1875,771.75 Q875.4219,771.5 875.6875,771.5 Q876.1563,771.5 876.4531,771.7813 Q876.75,772.0625 876.75,772.7188 L876.75,774.2813 Q876.75,774.9375 876.4688,775.2188 Q876.1875,775.5 875.75,775.5 Q875.3594,775.5 875.1094,775.3281 Q874.8594,775.1563 874.75,774.7031 Q874.7031,774.3906 874.5313,774.2188 Q874.2188,773.8906 873.6563,773.7031 Q873.0938,773.5 872.5313,773.5 Q871.8281,773.5 871.2344,773.7813 Q870.6563,774.0625 870.2031,774.6875 Q869.75,775.3125 869.75,776.1719 L869.75,777.0938 Q869.75,778.125 870.5938,778.8125 Q871.4375,779.5 872.9375,779.5 Q873.8281,779.5 874.4531,779.2969 Q874.8125,779.1875 875.2188,778.8281 Q875.4844,778.625 875.625,778.5625 Q875.7656,778.5 875.9375,778.5 Q876.2656,778.5 876.5,778.7656 Q876.75,779.0156 876.75,779.375 Q876.75,779.7188 876.4063,780.125 Q875.9063,780.7188 875.1094,781.0469 Q874.0625,781.5 872.7813,781.5 Q871.2813,781.5 870.0781,780.9063 Q869.1094,780.4375 868.4219,779.4219 Q867.75,778.4063 867.75,777.2031 L867.75,776.1094 Q867.75,774.8594 868.3438,773.7656 Q868.9531,772.6719 870,772.0938 Q871.0625,771.5 872.25,771.5 Q872.9688,771.5 873.5938,771.75 Q874.2188,772 874.75,772.5 Z "/><ellipse cx="898.25" cy="775.5" fill="#84BE84" rx="3" ry="3" style="stroke: #038048; stroke-width: 1.0;"/><text fill="#000000" font-family="sans-serif" font-size="12" font-weight="bold" lengthAdjust="spacingAndGlyphs" textLength="24" x="904.25" y="780.9102">final</text><text fill="#000000" font-family="sans-serif" font-size="12" lengthAdjust="spacingAndGlyphs" textLength="66" x="931.25" y="780.9102">SeSelection</text><line style="stroke: #D4AC0D; stroke-width: 1.5;" x1="746" x2="1112" y1="792" y2="792"/><line style="stroke: #D4AC0D; stroke-width: 1.5;" x1="746" x2="1112" y1="800" y2="800"/><ellipse cx="756" cy="811" fill="#84BE84" rx="3" ry="3" style="stroke: #038048; stroke-width: 1.0;"/><text fill="#000000" font-family="sans-serif" font-size="11" lengthAdjust="spacingAndGlyphs" textLength="323" x="765" y="815.4189">SeSelection(MultiSeRequestProcessing multiSeRequestProcessing,</text><text fill="#000000" font-family="sans-serif" font-size="11" lengthAdjust="spacingAndGlyphs" textLength="152" x="765" y="829.2549">ChannelControl channelControl)</text><text fill="#000000" font-family="sans-serif" font-size="11" lengthAdjust="spacingAndGlyphs" textLength="0" x="768" y="843.0908"/><ellipse cx="756" cy="852.5078" fill="#84BE84" rx="3" ry="3" style="stroke: #038048; stroke-width: 1.0;"/><text fill="#000000" font-family="sans-serif" font-size="11" lengthAdjust="spacingAndGlyphs" textLength="342" x="765" y="856.9268">int prepareSelection(AbstractSeSelectionRequest seSelectionRequest)</text><text fill="#000000" font-family="sans-serif" font-size="11" lengthAdjust="spacingAndGlyphs" textLength="0" x="768" y="870.7627"/><ellipse cx="756" cy="880.1797" fill="#84BE84" rx="3" ry="3" style="stroke: #038048; stroke-width: 1.0;"/><text fill="#000000" font-family="sans-serif" font-size="11" lengthAdjust="spacingAndGlyphs" textLength="306" x="765" y="884.5986">SelectionsResult processExplicitSelection(SeReader seReader)</text><text fill="#000000" font-family="sans-serif" font-size="11" lengthAdjust="spacingAndGlyphs" textLength="0" x="768" y="898.4346"/><ellipse cx="756" cy="907.8516" fill="#84BE84" rx="3" ry="3" style="stroke: #038048; stroke-width: 1.0;"/><text fill="#000000" font-family="sans-serif" font-size="11" lengthAdjust="spacingAndGlyphs" textLength="283" x="765" y="912.2705">AbstractDefaultSelectionsRequest getSelectionOperation()</text><ellipse cx="756" cy="921.6875" fill="#84BE84" rx="3" ry="3" style="stroke: #038048; stroke-width: 1.0;"/><text fill="#000000" font-family="sans-serif" font-size="11" lengthAdjust="spacingAndGlyphs" textLength="205" x="765" y="926.1064">SelectionsResult processDefaultSelection(</text><text fill="#000000" font-family="sans-serif" font-size="11" lengthAdjust="spacingAndGlyphs" textLength="274" x="765" y="939.9424">AbstractDefaultSelectionsResponse selectionResponse)</text><!--MD5=[60234a7c460e6555bb7d6c6c7e00297f]
class AbstractSeSelectionRequest--><rect fill="#FEFECE" height="144.8516" id="AbstractSeSelectionRequest" style="stroke: #D4AC0D; stroke-width: 1.5;" width="293" x="428.5" y="523"/><ellipse cx="486.75" cy="539" fill="#A9DCDF" rx="11" ry="11" style="stroke: #A9DCDF; stroke-width: 1.0;"/><path d="M488.5,540.5 L485.2031,540.5 L484.7656,541.5 L484.7656,541.5 L485.2344,541.5 L485.75,542.125 L485.75,542.5 L485.75,542.875 L485.2344,543.5 L484.7656,543.5 L482.875,543.5 L482.2656,543.5 L481.75,542.875 L481.75,542.5 L481.75,542.125 L482.2656,541.5 L482.875,541.5 L485.1875,535.5 L484.3125,535.5 L483.2656,535.5 L482.75,534.875 L482.75,534.5 L482.75,534.125 L483.2656,533.5 L484.3125,533.5 L487.9844,533.5 L490.6719,541.5 L491.2344,541.5 L491.2344,541.5 L491.75,542.125 L491.75,542.5 L491.75,542.875 L491.2344,543.5 L490.6719,543.5 L488.7813,543.5 L488.2656,543.5 L487.75,542.875 L487.75,542.5 L487.75,542.125 L488.2656,541.5 L488.7813,541.5 L488.7813,541.5 L488.5,540.5 Z M487.9531,538.5 L486.75,534.9219 L485.7188,538.5 L487.9531,538.5 Z "/><ellipse cx="512.25" cy="538.5" fill="#84BE84" rx="3" ry="3" style="stroke: #038048; stroke-width: 1.0;"/><text fill="#000000" font-family="sans-serif" font-size="12" font-style="italic" lengthAdjust="spacingAndGlyphs" textLength="157" x="518.25" y="543.9102">AbstractSeSelectionRequest</text><line style="stroke: #D4AC0D; stroke-width: 1.5;" x1="429.5" x2="720.5" y1="555" y2="555"/><line style="stroke: #D4AC0D; stroke-width: 1.5;" x1="429.5" x2="720.5" y1="563" y2="563"/><ellipse cx="439.5" cy="574" fill="#84BE84" rx="3" ry="3" style="stroke: #038048; stroke-width: 1.0;"/><text fill="#000000" font-family="sans-serif" font-size="11" lengthAdjust="spacingAndGlyphs" textLength="255" x="448.5" y="578.4189">AbstractSeSelectionRequest(SeSelector seSelector)</text><text fill="#000000" font-family="sans-serif" font-size="11" lengthAdjust="spacingAndGlyphs" textLength="0" x="451.5" y="592.2549"/><polygon fill="#FFFF44" points="439.5,596.6719,443.5,600.6719,439.5,604.6719,435.5,600.6719" style="stroke: #B38D22; stroke-width: 1.0;"/><text fill="#000000" font-family="sans-serif" font-size="11" font-weight="bold" lengthAdjust="spacingAndGlyphs" textLength="23" x="448.5" y="606.0908">final</text><text fill="#000000" font-family="sans-serif" font-size="11" lengthAdjust="spacingAndGlyphs" textLength="225" x="474.5" y="606.0908">addApduRequest(ApduRequest apduRequest)</text><polygon fill="#4177AF" points="439.5,611.5078,435.5,617.5078,443.5,617.5078" style="stroke: #1963A0; stroke-width: 1.0;"/><text fill="#000000" font-family="sans-serif" font-size="11" font-weight="bold" lengthAdjust="spacingAndGlyphs" textLength="23" x="448.5" y="619.9268">final</text><text fill="#000000" font-family="sans-serif" font-size="11" lengthAdjust="spacingAndGlyphs" textLength="163" x="474.5" y="619.9268">SeRequest getSelectionRequest()</text><polygon fill="#FFFF44" points="439.5,624.3438,443.5,628.3438,439.5,632.3438,435.5,628.3438" style="stroke: #B38D22; stroke-width: 1.0;"/><text fill="#000000" font-family="sans-serif" font-size="11" font-style="italic" lengthAdjust="spacingAndGlyphs" textLength="267" x="448.5" y="633.7627">AbstractMatchingSe parse(SeResponse seResponse)</text><text fill="#000000" font-family="sans-serif" font-size="11" lengthAdjust="spacingAndGlyphs" textLength="0" x="451.5" y="647.5986"/><ellipse cx="439.5" cy="657.0156" fill="#84BE84" rx="3" ry="3" style="stroke: #038048; stroke-width: 1.0;"/><text fill="#000000" font-family="sans-serif" font-size="11" lengthAdjust="spacingAndGlyphs" textLength="132" x="448.5" y="661.4346">SeSelector getSeSelector()</text><!--MD5=[aa5d6839ccbb06c03d79569335a94e56]
class AbstractMatchingSe--><rect fill="#FEFECE" height="158.6875" id="AbstractMatchingSe" style="stroke: #D4AC0D; stroke-width: 1.5;" width="288" x="422" y="773.5"/><ellipse cx="501.75" cy="789.5" fill="#A9DCDF" rx="11" ry="11" style="stroke: #A9DCDF; stroke-width: 1.0;"/><path d="M503.5,791 L500.2031,791 L499.7656,792 L499.7656,792 L500.2344,792 L500.75,792.625 L500.75,793 L500.75,793.375 L500.2344,794 L499.7656,794 L497.875,794 L497.2656,794 L496.75,793.375 L496.75,793 L496.75,792.625 L497.2656,792 L497.875,792 L500.1875,786 L499.3125,786 L498.2656,786 L497.75,785.375 L497.75,785 L497.75,784.625 L498.2656,784 L499.3125,784 L502.9844,784 L505.6719,792 L506.2344,792 L506.2344,792 L506.75,792.625 L506.75,793 L506.75,793.375 L506.2344,794 L505.6719,794 L503.7813,794 L503.2656,794 L502.75,793.375 L502.75,793 L502.75,792.625 L503.2656,792 L503.7813,792 L503.7813,792 L503.5,791 Z M502.9531,789 L501.75,785.4219 L500.7188,789 L502.9531,789 Z "/><ellipse cx="527.25" cy="789" fill="#84BE84" rx="3" ry="3" style="stroke: #038048; stroke-width: 1.0;"/><text fill="#000000" font-family="sans-serif" font-size="12" font-style="italic" lengthAdjust="spacingAndGlyphs" textLength="109" x="533.25" y="794.4102">AbstractMatchingSe</text><line style="stroke: #D4AC0D; stroke-width: 1.5;" x1="423" x2="709" y1="805.5" y2="805.5"/><line style="stroke: #D4AC0D; stroke-width: 1.5;" x1="423" x2="709" y1="813.5" y2="813.5"/><polygon fill="#FFFF44" points="433,819.5,437,823.5,433,827.5,429,823.5" style="stroke: #B38D22; stroke-width: 1.0;"/><text fill="#000000" font-family="sans-serif" font-size="11" lengthAdjust="spacingAndGlyphs" textLength="262" x="442" y="828.9189">AbstractMatchingSe(SeResponse selectionResponse,</text><text fill="#000000" font-family="sans-serif" font-size="11" lengthAdjust="spacingAndGlyphs" textLength="184" x="442" y="842.7549">TransmissionMode transmissionMode)</text><text fill="#000000" font-family="sans-serif" font-size="11" lengthAdjust="spacingAndGlyphs" textLength="0" x="445" y="856.5908"/><ellipse cx="433" cy="866.0078" fill="#84BE84" rx="3" ry="3" style="stroke: #038048; stroke-width: 1.0;"/><text fill="#000000" font-family="sans-serif" font-size="11" lengthAdjust="spacingAndGlyphs" textLength="206" x="442" y="870.4268">TransmissionMode getTransmissionMode()</text><ellipse cx="433" cy="879.8438" fill="#84BE84" rx="3" ry="3" style="stroke: #038048; stroke-width: 1.0;"/><text fill="#000000" font-family="sans-serif" font-size="11" lengthAdjust="spacingAndGlyphs" textLength="82" x="442" y="884.2627">boolean hasAtr()</text><ellipse cx="433" cy="893.6797" fill="#84BE84" rx="3" ry="3" style="stroke: #038048; stroke-width: 1.0;"/><text fill="#000000" font-family="sans-serif" font-size="11" lengthAdjust="spacingAndGlyphs" textLength="96" x="442" y="898.0986">byte[] getAtrBytes()</text><ellipse cx="433" cy="907.5156" fill="#84BE84" rx="3" ry="3" style="stroke: #038048; stroke-width: 1.0;"/><text fill="#000000" font-family="sans-serif" font-size="11" lengthAdjust="spacingAndGlyphs" textLength="81" x="442" y="911.9346">boolean hasFci()</text><ellipse cx="433" cy="921.3516" fill="#84BE84" rx="3" ry="3" style="stroke: #038048; stroke-width: 1.0;"/><text fill="#000000" font-family="sans-serif" font-size="11" lengthAdjust="spacingAndGlyphs" textLength="95" x="442" y="925.7705">byte[] getFciBytes()</text><!--MD5=[d2d35555969a91c84a420819b098404b]
class SeResource_T--><rect fill="#FEFECE" height="89.5078" id="SeResource_T" style="stroke: #D4AC0D; stroke-width: 1.5;" width="308" x="422" y="1007"/><ellipse cx="437" cy="1023" fill="#ADD1B2" rx="11" ry="11" style="stroke: #ADD1B2; stroke-width: 1.0;"/><path d="M439,1019.5 Q439.2031,1019 439.4375,1018.75 Q439.6719,1018.5 439.9375,1018.5 Q440.4063,1018.5 440.7031,1018.7813 Q441,1019.0625 441,1019.7188 L441,1021.2813 Q441,1021.9375 440.7188,1022.2188 Q440.4375,1022.5 440,1022.5 Q439.6094,1022.5 439.3594,1022.3281 Q439.1094,1022.1563 439,1021.7031 Q438.9531,1021.3906 438.7813,1021.2188 Q438.4688,1020.8906 437.9063,1020.7031 Q437.3438,1020.5 436.7813,1020.5 Q436.0781,1020.5 435.4844,1020.7813 Q434.9063,1021.0625 434.4531,1021.6875 Q434,1022.3125 434,1023.1719 L434,1024.0938 Q434,1025.125 434.8438,1025.8125 Q435.6875,1026.5 437.1875,1026.5 Q438.0781,1026.5 438.7031,1026.2969 Q439.0625,1026.1875 439.4688,1025.8281 Q439.7344,1025.625 439.875,1025.5625 Q440.0156,1025.5 440.1875,1025.5 Q440.5156,1025.5 440.75,1025.7656 Q441,1026.0156 441,1026.375 Q441,1026.7188 440.6563,1027.125 Q440.1563,1027.7188 439.3594,1028.0469 Q438.3125,1028.5 437.0313,1028.5 Q435.5313,1028.5 434.3281,1027.9063 Q433.3594,1027.4375 432.6719,1026.4219 Q432,1025.4063 432,1024.2031 L432,1023.1094 Q432,1021.8594 432.5938,1020.7656 Q433.2031,1019.6719 434.25,1019.0938 Q435.3125,1018.5 436.5,1018.5 Q437.2188,1018.5 437.8438,1018.75 Q438.4688,1019 439,1019.5 Z "/><ellipse cx="456" cy="1022.5" fill="#84BE84" rx="3" ry="3" style="stroke: #038048; stroke-width: 1.0;"/><text fill="#000000" font-family="sans-serif" font-size="12" font-weight="bold" lengthAdjust="spacingAndGlyphs" textLength="24" x="462" y="1027.9102">final</text><text fill="#000000" font-family="sans-serif" font-size="12" lengthAdjust="spacingAndGlyphs" textLength="69" x="489" y="1027.9102">SeResource</text><rect fill="#FFFFFF" height="17.0938" style="stroke: #000000; stroke-width: 1.0; stroke-dasharray: 2.0,2.0;" width="167" x="566" y="1004"/><text fill="#000000" font-family="sans-serif" font-size="12" font-style="italic" lengthAdjust="spacingAndGlyphs" textLength="165" x="567" y="1017.457">T extends AbstractMatchingSe</text><line style="stroke: #D4AC0D; stroke-width: 1.5;" x1="423" x2="729" y1="1039" y2="1039"/><line style="stroke: #D4AC0D; stroke-width: 1.5;" x1="423" x2="729" y1="1047" y2="1047"/><polygon fill="#FFFF44" points="433,1053,437,1057,433,1061,429,1057" style="stroke: #B38D22; stroke-width: 1.0;"/><text fill="#000000" font-family="sans-serif" font-size="11" lengthAdjust="spacingAndGlyphs" textLength="240" x="442" y="1062.4189">SeResource(SeReader seReader, T matchingSe);</text><ellipse cx="433" cy="1071.8359" fill="#84BE84" rx="3" ry="3" style="stroke: #038048; stroke-width: 1.0;"/><text fill="#000000" font-family="sans-serif" font-size="11" lengthAdjust="spacingAndGlyphs" textLength="125" x="442" y="1076.2549">SeReader getSeReader();</text><ellipse cx="433" cy="1085.6719" fill="#84BE84" rx="3" ry="3" style="stroke: #038048; stroke-width: 1.0;"/><text fill="#000000" font-family="sans-serif" font-size="11" lengthAdjust="spacingAndGlyphs" textLength="91" x="442" y="1090.0908">T getMatchingSe();</text><!--MD5=[bb5d923135655fe334dd8e21d863bc58]
class InvalidatedPo--><rect fill="#FEFECE" height="75.6719" id="InvalidatedPo" style="stroke: #D4AC0D; stroke-width: 1.5;" width="117" x="143.5" y="104"/><ellipse cx="158.5" cy="120" fill="#EB937F" rx="11" ry="11" style="stroke: #EB93DF; stroke-width: 1.0;"/><path d="M157,121 L157,123 L161,123 L161,122 L161,121.5156 L161.625,121 L162,121 L162.375,121 L163,121.5156 L163,122 L163,125 L155,125 L154.5156,125 L154,124.375 L154,124 L154,123.625 L154.5156,123 L155,123 L155,123 L155,117 L155,117 L154.5156,117 L154,116.375 L154,116 L154,115.625 L154.5156,115 L155,115 L163,115 L163,118 L163,118.4844 L162.375,119 L162,119 L161.625,119 L161,118.4844 L161,118 L161,117 L157,117 L157,119 L158,119 L158,118.5156 L158,118.5156 L158.625,118 L159,118 L159.375,118 L160,118.5156 L160,119 L160,121 L160,121.4844 L159.375,122 L159.375,122 L159,122 L158.625,122 L158,121.4844 L158,121.4844 L158,121 L157,121 Z "/><ellipse cx="177.5" cy="119.5" fill="#84BE84" rx="3" ry="3" style="stroke: #038048; stroke-width: 1.0;"/><text fill="#000000" font-family="sans-serif" font-size="12" lengthAdjust="spacingAndGlyphs" textLength="74" x="183.5" y="124.9102">InvalidatedPo</text><line style="stroke: #D4AC0D; stroke-width: 1.5;" x1="144.5" x2="259.5" y1="136" y2="136"/><text fill="#000000" font-family="sans-serif" font-size="11" lengthAdjust="spacingAndGlyphs" textLength="37" x="149.5" y="151.4189">REJECT</text><text fill="#000000" font-family="sans-serif" font-size="11" lengthAdjust="spacingAndGlyphs" textLength="40" x="149.5" y="165.2549">ACCEPT</text><line style="stroke: #D4AC0D; stroke-width: 1.5;" x1="144.5" x2="259.5" y1="171.6719" y2="171.6719"/><!--MD5=[910d44511a3d946a5594aedf23a2c57e]
class PoSelector--><rect fill="#FEFECE" height="75.6719" id="PoSelector" style="stroke: #D4AC0D; stroke-width: 1.5;" width="280" x="62" y="334.5"/><ellipse cx="148.75" cy="350.5" fill="#ADD1B2" rx="11" ry="11" style="stroke: #ADD1B2; stroke-width: 1.0;"/><path d="M150.75,347 Q150.9531,346.5 151.1875,346.25 Q151.4219,346 151.6875,346 Q152.1563,346 152.4531,346.2813 Q152.75,346.5625 152.75,347.2188 L152.75,348.7813 Q152.75,349.4375 152.4688,349.7188 Q152.1875,350 151.75,350 Q151.3594,350 151.1094,349.8281 Q150.8594,349.6563 150.75,349.2031 Q150.7031,348.8906 150.5313,348.7188 Q150.2188,348.3906 149.6563,348.2031 Q149.0938,348 148.5313,348 Q147.8281,348 147.2344,348.2813 Q146.6563,348.5625 146.2031,349.1875 Q145.75,349.8125 145.75,350.6719 L145.75,351.5938 Q145.75,352.625 146.5938,353.3125 Q147.4375,354 148.9375,354 Q149.8281,354 150.4531,353.7969 Q150.8125,353.6875 151.2188,353.3281 Q151.4844,353.125 151.625,353.0625 Q151.7656,353 151.9375,353 Q152.2656,353 152.5,353.2656 Q152.75,353.5156 152.75,353.875 Q152.75,354.2188 152.4063,354.625 Q151.9063,355.2188 151.1094,355.5469 Q150.0625,356 148.7813,356 Q147.2813,356 146.0781,355.4063 Q145.1094,354.9375 144.4219,353.9219 Q143.75,352.9063 143.75,351.7031 L143.75,350.6094 Q143.75,349.3594 144.3438,348.2656 Q144.9531,347.1719 146,346.5938 Q147.0625,346 148.25,346 Q148.9688,346 149.5938,346.25 Q150.2188,346.5 150.75,347 Z "/><ellipse cx="174.25" cy="350" fill="#84BE84" rx="3" ry="3" style="stroke: #038048; stroke-width: 1.0;"/><text fill="#000000" font-family="sans-serif" font-size="12" font-weight="bold" lengthAdjust="spacingAndGlyphs" textLength="24" x="180.25" y="355.4102">final</text><text fill="#000000" font-family="sans-serif" font-size="12" lengthAdjust="spacingAndGlyphs" textLength="60" x="207.25" y="355.4102">PoSelector</text><line style="stroke: #D4AC0D; stroke-width: 1.5;" x1="63" x2="341" y1="366.5" y2="366.5"/><line style="stroke: #D4AC0D; stroke-width: 1.5;" x1="63" x2="341" y1="374.5" y2="374.5"/><ellipse cx="73" cy="385.5" fill="#84BE84" rx="3" ry="3" style="stroke: #038048; stroke-width: 1.0;"/><text fill="#000000" font-family="sans-serif" font-size="11" lengthAdjust="spacingAndGlyphs" textLength="248" x="82" y="389.9189">PoSelector(SeProtocol seProtocol, AtrFilter atrFilter,</text><text fill="#000000" font-family="sans-serif" font-size="11" lengthAdjust="spacingAndGlyphs" textLength="254" x="82" y="403.7549">AidSelector aidToSelect, InvalidatedPo invalidatedPo)</text><!--MD5=[eb197b32301e657fb343d0b6ac62ab90]
class PoSelectionRequest--><rect fill="#FEFECE" height="172.5234" id="PoSelectionRequest" style="stroke: #D4AC0D; stroke-width: 1.5;" width="273" x="68.5" y="509"/><ellipse cx="125.25" cy="525" fill="#ADD1B2" rx="11" ry="11" style="stroke: #ADD1B2; stroke-width: 1.0;"/><path d="M127.25,521.5 Q127.4531,521 127.6875,520.75 Q127.9219,520.5 128.1875,520.5 Q128.6563,520.5 128.9531,520.7813 Q129.25,521.0625 129.25,521.7188 L129.25,523.2813 Q129.25,523.9375 128.9688,524.2188 Q128.6875,524.5 128.25,524.5 Q127.8594,524.5 127.6094,524.3281 Q127.3594,524.1563 127.25,523.7031 Q127.2031,523.3906 127.0313,523.2188 Q126.7188,522.8906 126.1563,522.7031 Q125.5938,522.5 125.0313,522.5 Q124.3281,522.5 123.7344,522.7813 Q123.1563,523.0625 122.7031,523.6875 Q122.25,524.3125 122.25,525.1719 L122.25,526.0938 Q122.25,527.125 123.0938,527.8125 Q123.9375,528.5 125.4375,528.5 Q126.3281,528.5 126.9531,528.2969 Q127.3125,528.1875 127.7188,527.8281 Q127.9844,527.625 128.125,527.5625 Q128.2656,527.5 128.4375,527.5 Q128.7656,527.5 129,527.7656 Q129.25,528.0156 129.25,528.375 Q129.25,528.7188 128.9063,529.125 Q128.4063,529.7188 127.6094,530.0469 Q126.5625,530.5 125.2813,530.5 Q123.7813,530.5 122.5781,529.9063 Q121.6094,529.4375 120.9219,528.4219 Q120.25,527.4063 120.25,526.2031 L120.25,525.1094 Q120.25,523.8594 120.8438,522.7656 Q121.4531,521.6719 122.5,521.0938 Q123.5625,520.5 124.75,520.5 Q125.4688,520.5 126.0938,520.75 Q126.7188,521 127.25,521.5 Z "/><ellipse cx="150.75" cy="524.5" fill="#84BE84" rx="3" ry="3" style="stroke: #038048; stroke-width: 1.0;"/><text fill="#000000" font-family="sans-serif" font-size="12" font-weight="bold" lengthAdjust="spacingAndGlyphs" textLength="24" x="156.75" y="529.9102">final</text><text fill="#000000" font-family="sans-serif" font-size="12" lengthAdjust="spacingAndGlyphs" textLength="113" x="183.75" y="529.9102">PoSelectionRequest</text><line style="stroke: #D4AC0D; stroke-width: 1.5;" x1="69.5" x2="340.5" y1="541" y2="541"/><line style="stroke: #D4AC0D; stroke-width: 1.5;" x1="69.5" x2="340.5" y1="549" y2="549"/><ellipse cx="79.5" cy="560" fill="#84BE84" rx="3" ry="3" style="stroke: #038048; stroke-width: 1.0;"/><text fill="#000000" font-family="sans-serif" font-size="11" lengthAdjust="spacingAndGlyphs" textLength="211" x="88.5" y="564.4189">PoSelectionRequest(PoSelector seSelector)</text><text fill="#000000" font-family="sans-serif" font-size="11" lengthAdjust="spacingAndGlyphs" textLength="0" x="91.5" y="578.2549"/><ellipse cx="79.5" cy="587.6719" fill="#84BE84" rx="3" ry="3" style="stroke: #038048; stroke-width: 1.0;"/><text fill="#000000" font-family="sans-serif" font-size="11" lengthAdjust="spacingAndGlyphs" textLength="143" x="88.5" y="592.0908">prepareSelectFile(byte[] path)</text><ellipse cx="79.5" cy="601.5078" fill="#84BE84" rx="3" ry="3" style="stroke: #038048; stroke-width: 1.0;"/><text fill="#000000" font-family="sans-serif" font-size="11" lengthAdjust="spacingAndGlyphs" textLength="133" x="88.5" y="605.9268">prepareSelectFile(shord lid)</text><ellipse cx="79.5" cy="615.3438" fill="#84BE84" rx="3" ry="3" style="stroke: #038048; stroke-width: 1.0;"/><text fill="#000000" font-family="sans-serif" font-size="11" lengthAdjust="spacingAndGlyphs" textLength="222" x="88.5" y="619.7627">prepareSelectFile(SelectControl selectControl)</text><text fill="#000000" font-family="sans-serif" font-size="11" lengthAdjust="spacingAndGlyphs" textLength="0" x="91.5" y="633.5986"/><ellipse cx="79.5" cy="643.0156" fill="#84BE84" rx="3" ry="3" style="stroke: #038048; stroke-width: 1.0;"/><text fill="#000000" font-family="sans-serif" font-size="11" lengthAdjust="spacingAndGlyphs" textLength="247" x="88.5" y="647.4346">prepareReadRecordFile(byte sfi, int recordNumber)</text><text fill="#000000" font-family="sans-serif" font-size="11" lengthAdjust="spacingAndGlyphs" textLength="0" x="91.5" y="661.2705"/><polygon fill="#FFFF44" points="79.5,665.6875,83.5,669.6875,79.5,673.6875,75.5,669.6875" style="stroke: #B38D22; stroke-width: 1.0;"/><text fill="#000000" font-family="sans-serif" font-size="11" lengthAdjust="spacingAndGlyphs" textLength="216" x="88.5" y="675.1064">CalypsoPo parse(SeResponse seResponse)</text><!--MD5=[e8e21ba3995782366e9aa9ad2c6b2d5f]
class PoResource--><rect fill="#FEFECE" height="48" id="PoResource" style="stroke: #D4AC0D; stroke-width: 1.5;" width="203" x="129.5" y="1028"/><ellipse cx="144.5" cy="1044" fill="#ADD1B2" rx="11" ry="11" style="stroke: #ADD1B2; stroke-width: 1.0;"/><path d="M146.5,1040.5 Q146.7031,1040 146.9375,1039.75 Q147.1719,1039.5 147.4375,1039.5 Q147.9063,1039.5 148.2031,1039.7813 Q148.5,1040.0625 148.5,1040.7188 L148.5,1042.2813 Q148.5,1042.9375 148.2188,1043.2188 Q147.9375,1043.5 147.5,1043.5 Q147.1094,1043.5 146.8594,1043.3281 Q146.6094,1043.1563 146.5,1042.7031 Q146.4531,1042.3906 146.2813,1042.2188 Q145.9688,1041.8906 145.4063,1041.7031 Q144.8438,1041.5 144.2813,1041.5 Q143.5781,1041.5 142.9844,1041.7813 Q142.4063,1042.0625 141.9531,1042.6875 Q141.5,1043.3125 141.5,1044.1719 L141.5,1045.0938 Q141.5,1046.125 142.3438,1046.8125 Q143.1875,1047.5 144.6875,1047.5 Q145.5781,1047.5 146.2031,1047.2969 Q146.5625,1047.1875 146.9688,1046.8281 Q147.2344,1046.625 147.375,1046.5625 Q147.5156,1046.5 147.6875,1046.5 Q148.0156,1046.5 148.25,1046.7656 Q148.5,1047.0156 148.5,1047.375 Q148.5,1047.7188 148.1563,1048.125 Q147.6563,1048.7188 146.8594,1049.0469 Q145.8125,1049.5 144.5313,1049.5 Q143.0313,1049.5 141.8281,1048.9063 Q140.8594,1048.4375 140.1719,1047.4219 Q139.5,1046.4063 139.5,1045.2031 L139.5,1044.1094 Q139.5,1042.8594 140.0938,1041.7656 Q140.7031,1040.6719 141.75,1040.0938 Q142.8125,1039.5 144,1039.5 Q144.7188,1039.5 145.3438,1039.75 Q145.9688,1040 146.5,1040.5 Z "/><ellipse cx="163.5" cy="1043.5" fill="#84BE84" rx="3" ry="3" style="stroke: #038048; stroke-width: 1.0;"/><text fill="#000000" font-family="sans-serif" font-size="12" font-weight="bold" lengthAdjust="spacingAndGlyphs" textLength="24" x="169.5" y="1048.9102">final</text><text fill="#000000" font-family="sans-serif" font-size="12" lengthAdjust="spacingAndGlyphs" textLength="69" x="196.5" y="1048.9102">SeResource</text><rect fill="#FFFFFF" height="17.0938" style="stroke: #000000; stroke-width: 1.0; stroke-dasharray: 2.0,2.0;" width="62" x="273.5" y="1025"/><text fill="#000000" font-family="sans-serif" font-size="12" font-style="italic" lengthAdjust="spacingAndGlyphs" textLength="60" x="274.5" y="1038.457">CalypsoPo</text><line style="stroke: #D4AC0D; stroke-width: 1.5;" x1="130.5" x2="331.5" y1="1060" y2="1060"/><line style="stroke: #D4AC0D; stroke-width: 1.5;" x1="130.5" x2="331.5" y1="1068" y2="1068"/><!--MD5=[346f733d3079e77ece8ec0605238a57f]
class CalypsoPo--><rect fill="#FEFECE" height="48" id="CalypsoPo" style="stroke: #D4AC0D; stroke-width: 1.5;" width="92" x="185" y="829"/><ellipse cx="200" cy="845" fill="#ADD1B2" rx="11" ry="11" style="stroke: #ADD1B2; stroke-width: 1.0;"/><path d="M202,841.5 Q202.2031,841 202.4375,840.75 Q202.6719,840.5 202.9375,840.5 Q203.4063,840.5 203.7031,840.7813 Q204,841.0625 204,841.7188 L204,843.2813 Q204,843.9375 203.7188,844.2188 Q203.4375,844.5 203,844.5 Q202.6094,844.5 202.3594,844.3281 Q202.1094,844.1563 202,843.7031 Q201.9531,843.3906 201.7813,843.2188 Q201.4688,842.8906 200.9063,842.7031 Q200.3438,842.5 199.7813,842.5 Q199.0781,842.5 198.4844,842.7813 Q197.9063,843.0625 197.4531,843.6875 Q197,844.3125 197,845.1719 L197,846.0938 Q197,847.125 197.8438,847.8125 Q198.6875,848.5 200.1875,848.5 Q201.0781,848.5 201.7031,848.2969 Q202.0625,848.1875 202.4688,847.8281 Q202.7344,847.625 202.875,847.5625 Q203.0156,847.5 203.1875,847.5 Q203.5156,847.5 203.75,847.7656 Q204,848.0156 204,848.375 Q204,848.7188 203.6563,849.125 Q203.1563,849.7188 202.3594,850.0469 Q201.3125,850.5 200.0313,850.5 Q198.5313,850.5 197.3281,849.9063 Q196.3594,849.4375 195.6719,848.4219 Q195,847.4063 195,846.2031 L195,845.1094 Q195,843.8594 195.5938,842.7656 Q196.2031,841.6719 197.25,841.0938 Q198.3125,840.5 199.5,840.5 Q200.2188,840.5 200.8438,840.75 Q201.4688,841 202,841.5 Z "/><text fill="#000000" font-family="sans-serif" font-size="12" lengthAdjust="spacingAndGlyphs" textLength="60" x="214" y="849.9102">CalypsoPo</text><line style="stroke: #D4AC0D; stroke-width: 1.5;" x1="186" x2="276" y1="861" y2="861"/><line style="stroke: #D4AC0D; stroke-width: 1.5;" x1="186" x2="276" y1="869" y2="869"/><!--MD5=[b6f444e9989ed3901bbb997f3cd0228e]
link AbstractSeSelectionRequest to AbstractMatchingSe--><path d="M572.481,668.011 C571.327,700.784 569.955,739.728 568.771,773.329 " fill="none" id="AbstractSeSelectionRequest-AbstractMatchingSe" style="stroke: #A80036; stroke-width: 1.0;"/><text fill="#000000" font-family="sans-serif" font-size="13" lengthAdjust="spacingAndGlyphs" textLength="42" x="571" y="726.4951">selects</text><polygon fill="#000000" points="587.5,735.3516,590.5,741.3516,593.5,735.3516,587.5,735.3516" style="stroke: #000000; stroke-width: 1.0;"/><!--MD5=[88781fa7e55557e435fb378f4fb7ccec]
link AbstractSeSelectionRequest to SeSelection--><path d="M674.079,668.011 C710.164,694.055 751.646,723.994 790.522,752.054 " fill="none" id="AbstractSeSelectionRequest-&gt;SeSelection" style="stroke: #A80036; stroke-width: 1.0;"/><polygon fill="#FFFFFF" points="801.412,759.913,798.8873,753.1583,791.6812,752.8908,794.2059,759.6455,801.412,759.913" style="stroke: #A80036; stroke-width: 1.0;"/><text fill="#000000" font-family="sans-serif" font-size="13" lengthAdjust="spacingAndGlyphs" textLength="5" x="678.586" y="689.456">*</text><text fill="#000000" font-family="sans-serif" font-size="13" lengthAdjust="spacingAndGlyphs" textLength="7" x="783.5563" y="749.0365">1</text><!--MD5=[9ae6c60bb290397dbb57f7e4bfa5525c]
link AbstractMatchingSe to SeResource_T--><path d="M569.995,932.709 C571.034,953.16 572.132,974.799 573.101,993.899 " fill="none" id="AbstractMatchingSe-&gt;SeResource_T" style="stroke: #A80036; stroke-width: 1.0;"/><polygon fill="#A80036" points="573.766,1006.987,577.4569,1000.7921,573.1581,995.0024,569.4672,1001.1973,573.766,1006.987" style="stroke: #A80036; stroke-width: 1.0;"/><text fill="#000000" font-family="sans-serif" font-size="13" lengthAdjust="spacingAndGlyphs" textLength="7" x="563.0375" y="953.7701">1</text><text fill="#000000" font-family="sans-serif" font-size="13" lengthAdjust="spacingAndGlyphs" textLength="7" x="565.8521" y="996.1004">1</text><!--MD5=[d338ce3d336fa3499d15f5ecafc4488f]
link SeSelector to AbstractSeSelectionRequest--><path d="M582.789,438.016 C581.671,460.483 580.399,486.037 579.212,509.886 " fill="none" id="SeSelector-&gt;AbstractSeSelectionRequest" style="stroke: #A80036; stroke-width: 1.0;"/><polygon fill="#FFFFFF" points="578.562,522.93,582.8551,517.1361,579.158,510.9448,574.865,516.7387,578.562,522.93" style="stroke: #A80036; stroke-width: 1.0;"/><text fill="#000000" font-family="sans-serif" font-size="13" lengthAdjust="spacingAndGlyphs" textLength="7" x="575.055" y="459.5703">1</text><text fill="#000000" font-family="sans-serif" font-size="13" lengthAdjust="spacingAndGlyphs" textLength="7" x="571.5684" y="512.1421">1</text><!--MD5=[2974701ccc045126a3331657366aa38c]
link InvalidatedPo to PoSelector--><path d="M192.29,180.221 C188.687,217.982 188.287,276.755 191.088,319.19 " fill="none" id="InvalidatedPo-&gt;PoSelector" style="stroke: #A80036; stroke-width: 1.0;"/><ellipse cx="191.6555" cy="326.3203" fill="#FFFFFF" rx="8" ry="8" style="stroke: #A80036; stroke-width: 1.0;"/><line style="stroke: #A80036; stroke-width: 1.0;" x1="191.02" x2="192.291" y1="318.3456" y2="334.295"/><line style="stroke: #A80036; stroke-width: 1.0;" x1="199.6302" x2="183.6808" y1="325.6848" y2="326.9558"/><!--MD5=[2974701ccc045126a3331657366aa38c]
link InvalidatedPo to PoSelector--><path d="M212.281,180.221 C216.154,218.563 216.532,278.569 213.415,321.136 " fill="none" id="InvalidatedPo-&gt;PoSelector-1" style="stroke: #A80036; stroke-width: 1.0;"/><polygon fill="#A80036" points="212.28,334.295,216.7808,328.6609,213.3112,322.3394,208.8104,327.9734,212.28,334.295" style="stroke: #A80036; stroke-width: 1.0;"/><text fill="#000000" font-family="sans-serif" font-size="13" lengthAdjust="spacingAndGlyphs" textLength="7" x="206.3617" y="201.1368">1</text><text fill="#000000" font-family="sans-serif" font-size="13" lengthAdjust="spacingAndGlyphs" textLength="7" x="206.4877" y="323.6204">1</text><!--MD5=[745a9eb240b2395580f3266b2171dd51]
link PoSelector to PoSelectionRequest--><path d="M202.509,410.99 C202.825,434.268 203.247,465.371 203.654,495.349 " fill="none" id="PoSelector-&gt;PoSelectionRequest" style="stroke: #A80036; stroke-width: 1.0;"/><polygon fill="#FFFFFF" points="203.833,508.554,207.7509,502.5001,203.6695,496.5551,199.7516,502.6091,203.833,508.554" style="stroke: #A80036; stroke-width: 1.0;"/><text fill="#000000" font-family="sans-serif" font-size="13" lengthAdjust="spacingAndGlyphs" textLength="7" x="195.051" y="431.6559">1</text><text fill="#000000" font-family="sans-serif" font-size="13" lengthAdjust="spacingAndGlyphs" textLength="7" x="196.4465" y="498.2207">1</text><!--MD5=[315c59765b6a4685fded372235c6d6fb]
link PoSelectionRequest to CalypsoPo--><path d="M213.73,682.289 C218.997,734.043 225.315,796.135 228.658,828.986 " fill="none" id="PoSelectionRequest-CalypsoPo" style="stroke: #A80036; stroke-width: 1.0;"/><text fill="#000000" font-family="sans-serif" font-size="13" lengthAdjust="spacingAndGlyphs" textLength="42" x="219" y="726.4951">selects</text><polygon fill="#000000" points="235.5,735.3516,238.5,741.3516,241.5,735.3516,235.5,735.3516" style="stroke: #000000; stroke-width: 1.0;"/><!--MD5=[a71187334cf42e66c7bfc6a1e31411da]
link CalypsoPo to PoResource--><path d="M231,877.372 C231,911.379 231,974.8 231,1014.856 " fill="none" id="CalypsoPo-&gt;PoResource" style="stroke: #A80036; stroke-width: 1.0;"/><polygon fill="#A80036" points="231,1027.963,235,1021.963,231,1015.963,227,1021.963,231,1027.963" style="stroke: #A80036; stroke-width: 1.0;"/><text fill="#000000" font-family="sans-serif" font-size="13" lengthAdjust="spacingAndGlyphs" textLength="7" x="223.1906" y="898.3938">1</text><text fill="#000000" font-family="sans-serif" font-size="13" lengthAdjust="spacingAndGlyphs" textLength="7" x="223.1031" y="1017.2937">1</text><!--MD5=[7c16b6c2ba894db9496e807d455aae12]
reverse link SeSelector to PoSelector--><path d="M404.07,372.5 C383.3,372.5 362.372,372.5 342.263,372.5 " fill="none" id="SeSelector&lt;-PoSelector" style="stroke: #A80036; stroke-width: 1.0;"/><polygon fill="none" points="404.326,365.5,424.326,372.5,404.326,379.5,404.326,365.5" style="stroke: #A80036; stroke-width: 1.0;"/><text fill="#000000" font-family="sans-serif" font-size="13" lengthAdjust="spacingAndGlyphs" textLength="46" x="360.25" y="365.9951">extends</text><!--MD5=[bc8f446fcbd76130b2551e864083d71d]
reverse link AbstractSeSelectionRequest to PoSelectionRequest--><path d="M408.038,595.5 C385.852,595.5 363.316,595.5 341.723,595.5 " fill="none" id="AbstractSeSelectionRequest&lt;-PoSelectionRequest" style="stroke: #A80036; stroke-width: 1.0;"/><polygon fill="none" points="408.278,588.5,428.278,595.5,408.278,602.5,408.278,588.5" style="stroke: #A80036; stroke-width: 1.0;"/><text fill="#000000" font-family="sans-serif" font-size="13" lengthAdjust="spacingAndGlyphs" textLength="46" x="362" y="588.9951">extends</text><!--MD5=[fcc76ffbd8d5e4557932e340fc96ea0f]
reverse link AbstractMatchingSe to CalypsoPo--><path d="M401.509,853 C355.857,853 309.906,853 277.229,853 " fill="none" id="AbstractMatchingSe&lt;-CalypsoPo" style="stroke: #A80036; stroke-width: 1.0;"/><polygon fill="none" points="401.713,846,421.713,853,401.713,860,401.713,846" style="stroke: #A80036; stroke-width: 1.0;"/><text fill="#000000" font-family="sans-serif" font-size="13" lengthAdjust="spacingAndGlyphs" textLength="46" x="326.5" y="846.4951">extends</text><!--MD5=[42e8d43fbd835a292c3175b0d4f9e18f]
@startuml
skinparam ClassBorderColor #D4AC0D
skinparam stereotypeABorderColor #A9DCDF
skinparam stereotypeIBorderColor #B4A7E5
skinparam stereotypeCBorderColor #ADD1B2
skinparam stereotypeEBorderColor #EB93DF
skinparam shadowing false

skinparam ClassBackgroundColor<<red>> #FDEDEC
skinparam ClassBorderColor<<red>> #E74C3C
hide <<red>> stereotype
skinparam ClassBackgroundColor<<purple>> #F4ECF7
skinparam ClassBorderColor<<purple>> #8E44AD
hide <<purple>> stereotype
skinparam ClassBackgroundColor<<blue>> #EBF5FB
skinparam ClassBorderColor<<blue>> #3498DB
hide <<blue>> stereotype
skinparam ClassBackgroundColor<<green>> #EAFAF1
skinparam ClassBorderColor<<green>> #2ECC71
hide <<green>> stereotype
skinparam ClassBackgroundColor<<grey>> #EAECEE
skinparam ClassBorderColor<<grey>> #2C3E50
hide <<grey>> stereotype

package org.eclipse.keyple #FFFFFF {
  package core #FFFFFF {
    package seproxy #FFFFFF {
+class SeSelector {
  +SeSelector(SeProtocol[0..1] seProtocol, AtrFilter[0..1] atrFilter,
  AidSelector[0..1] aidSelector)

  +SeProtocol getSeProtocol()
  +AtrFilter getAtrFilter()
  +AidSelector getAidSelector()
}
    }

    package selection #FFFFFF {
+class "<b>final</b> SeSelection" as SeSelection {
  +SeSelection(MultiSeRequestProcessing multiSeRequestProcessing,
    ChannelControl channelControl)

  +int prepareSelection(AbstractSeSelectionRequest seSelectionRequest)

  +SelectionsResult processExplicitSelection(SeReader seReader)

  +AbstractDefaultSelectionsRequest getSelectionOperation()
  +SelectionsResult processDefaultSelection(
    AbstractDefaultSelectionsResponse selectionResponse)
}
+abstract AbstractSeSelectionRequest {
  +AbstractSeSelectionRequest(SeSelector seSelector)

  #<b>final</b> addApduRequest(ApduRequest apduRequest)
  ~<b>final</b> SeRequest getSelectionRequest()
  {abstract} #AbstractMatchingSe parse(SeResponse seResponse)

  +SeSelector getSeSelector()
}

+abstract AbstractMatchingSe {
  #AbstractMatchingSe(SeResponse selectionResponse,
    TransmissionMode transmissionMode)

  +TransmissionMode getTransmissionMode()
  +boolean hasAtr()
  +byte[] getAtrBytes()
  +boolean hasFci()
  +byte[] getFciBytes()
}
+class "<b>final</b> SeResource<T extends AbstractMatchingSe>" as SeResource_T {
  #SeResource(SeReader seReader, T matchingSe);
  +SeReader getSeReader();
  +T getMatchingSe();
}

      AbstractSeSelectionRequest -down- AbstractMatchingSe : selects >
      SeSelection "1" o-up- "*" AbstractSeSelectionRequest
      SeResource_T "1" *-up- "1" AbstractMatchingSe
    }

    AbstractSeSelectionRequest "1" o-up- "1" SeSelector
  }

  package calypso.transaction #FFFFFF {
+enum InvalidatedPo {
  REJECT
  ACCEPT
}
+class "<b>final</b> PoSelector" as PoSelector {
  +PoSelector(SeProtocol seProtocol, AtrFilter atrFilter,
    AidSelector aidToSelect, InvalidatedPo invalidatedPo)
}

+class "<b>final</b> PoSelectionRequest" as PoSelectionRequest {
  +PoSelectionRequest(PoSelector seSelector)

  +prepareSelectFile(byte[] path)
  +prepareSelectFile(shord lid)
  +prepareSelectFile(SelectControl selectControl)

  +prepareReadRecordFile(byte sfi, int recordNumber)

  #CalypsoPo parse(SeResponse seResponse)
}

+class "<b>final</b> SeResource<CalypsoPo>" as PoResource {
}

    InvalidatedPo - -+ PoSelector
    InvalidatedPo "1" - -* "1" PoSelector

    PoSelectionRequest "1" o-up- "1" PoSelector
    PoSelectionRequest -down- CalypsoPo : selects >
    PoResource "1" *-up- "1" CalypsoPo
  }

  PoSelector -left-|> SeSelector : extends
  PoSelectionRequest -left-|> AbstractSeSelectionRequest : extends
  CalypsoPo -left-|> AbstractMatchingSe : extends
}
@enduml

PlantUML version 1.2020.09(Sun May 10 14:51:06 MUT 2020)
(GPL source distribution)
Java Runtime: OpenJDK Runtime Environment
JVM: OpenJDK 64-Bit Server VM
Java Version: 11.0.6+8-b765.40
Operating System: Windows 10
Default Encoding: Cp1252
Language: fr
Country: FR
--></g></svg>