<?xml version="1.0" encoding="UTF-8" standalone="no"?><svg xmlns="http://www.w3.org/2000/svg" xmlns:xlink="http://www.w3.org/1999/xlink" contentScriptType="application/ecmascript" contentStyleType="text/css" height="398px" preserveAspectRatio="none" style="width:801px;height:398px;" version="1.1" viewBox="0 0 801 398" width="801px" zoomAndPan="magnify"><defs/><g><!--MD5=[e8e21ba3995782366e9aa9ad2c6b2d5f]
class PoResource--><rect fill="#FEFECE" height="75.6719" id="PoResource" style="stroke: #D4AC0D; stroke-width: 1.5;" width="188" x="164" y="79"/><ellipse cx="179" cy="95" fill="#ADD1B2" rx="11" ry="11" style="stroke: #ADD1B2; stroke-width: 1.0;"/><path d="M181,91.5 Q181.2031,91 181.4375,90.75 Q181.6719,90.5 181.9375,90.5 Q182.4063,90.5 182.7031,90.7813 Q183,91.0625 183,91.7188 L183,93.2813 Q183,93.9375 182.7188,94.2188 Q182.4375,94.5 182,94.5 Q181.6094,94.5 181.3594,94.3281 Q181.1094,94.1563 181,93.7031 Q180.9531,93.3906 180.7813,93.2188 Q180.4688,92.8906 179.9063,92.7031 Q179.3438,92.5 178.7813,92.5 Q178.0781,92.5 177.4844,92.7813 Q176.9063,93.0625 176.4531,93.6875 Q176,94.3125 176,95.1719 L176,96.0938 Q176,97.125 176.8438,97.8125 Q177.6875,98.5 179.1875,98.5 Q180.0781,98.5 180.7031,98.2969 Q181.0625,98.1875 181.4688,97.8281 Q181.7344,97.625 181.875,97.5625 Q182.0156,97.5 182.1875,97.5 Q182.5156,97.5 182.75,97.7656 Q183,98.0156 183,98.375 Q183,98.7188 182.6563,99.125 Q182.1563,99.7188 181.3594,100.0469 Q180.3125,100.5 179.0313,100.5 Q177.5313,100.5 176.3281,99.9063 Q175.3594,99.4375 174.6719,98.4219 Q174,97.4063 174,96.2031 L174,95.1094 Q174,93.8594 174.5938,92.7656 Q175.2031,91.6719 176.25,91.0938 Q177.3125,90.5 178.5,90.5 Q179.2188,90.5 179.8438,90.75 Q180.4688,91 181,91.5 Z "/><ellipse cx="198" cy="94.5" fill="#84BE84" rx="3" ry="3" style="stroke: #038048; stroke-width: 1.0;"/><text fill="#000000" font-family="sans-serif" font-size="12" lengthAdjust="spacingAndGlyphs" textLength="81" x="204" y="99.9102">CardResource</text><rect fill="#FFFFFF" height="17.0938" style="stroke: #000000; stroke-width: 1.0; stroke-dasharray: 2.0,2.0;" width="62" x="293" y="76"/><text fill="#000000" font-family="sans-serif" font-size="12" font-style="italic" lengthAdjust="spacingAndGlyphs" textLength="60" x="294" y="89.457">CalypsoPo</text><line style="stroke: #D4AC0D; stroke-width: 1.5;" x1="165" x2="351" y1="111" y2="111"/><line style="stroke: #D4AC0D; stroke-width: 1.5;" x1="165" x2="351" y1="119" y2="119"/><ellipse cx="175" cy="130" fill="#84BE84" rx="3" ry="3" style="stroke: #038048; stroke-width: 1.0;"/><text fill="#000000" font-family="sans-serif" font-size="11" lengthAdjust="spacingAndGlyphs" textLength="74" x="184" y="134.4189">CardResource(</text><text fill="#FF0000" font-family="sans-serif" font-size="11" lengthAdjust="spacingAndGlyphs" textLength="85" x="258" y="134.4189">Reader poReader</text><text fill="#000000" font-family="sans-serif" font-size="11" lengthAdjust="spacingAndGlyphs" textLength="3" x="343" y="134.4189">,</text><text fill="#000000" font-family="sans-serif" font-size="11" lengthAdjust="spacingAndGlyphs" textLength="73" x="184" y="148.2549">CalypsoPo po);</text><!--MD5=[43918d86839edc1befb88ea50efcfbfb]
class SamResource--><rect fill="#FEFECE" height="75.6719" id="SamResource" style="stroke: #D4AC0D; stroke-width: 1.5;" width="199" x="588.5" y="79"/><ellipse cx="603.5" cy="95" fill="#ADD1B2" rx="11" ry="11" style="stroke: #ADD1B2; stroke-width: 1.0;"/><path d="M605.5,91.5 Q605.7031,91 605.9375,90.75 Q606.1719,90.5 606.4375,90.5 Q606.9063,90.5 607.2031,90.7813 Q607.5,91.0625 607.5,91.7188 L607.5,93.2813 Q607.5,93.9375 607.2188,94.2188 Q606.9375,94.5 606.5,94.5 Q606.1094,94.5 605.8594,94.3281 Q605.6094,94.1563 605.5,93.7031 Q605.4531,93.3906 605.2813,93.2188 Q604.9688,92.8906 604.4063,92.7031 Q603.8438,92.5 603.2813,92.5 Q602.5781,92.5 601.9844,92.7813 Q601.4063,93.0625 600.9531,93.6875 Q600.5,94.3125 600.5,95.1719 L600.5,96.0938 Q600.5,97.125 601.3438,97.8125 Q602.1875,98.5 603.6875,98.5 Q604.5781,98.5 605.2031,98.2969 Q605.5625,98.1875 605.9688,97.8281 Q606.2344,97.625 606.375,97.5625 Q606.5156,97.5 606.6875,97.5 Q607.0156,97.5 607.25,97.7656 Q607.5,98.0156 607.5,98.375 Q607.5,98.7188 607.1563,99.125 Q606.6563,99.7188 605.8594,100.0469 Q604.8125,100.5 603.5313,100.5 Q602.0313,100.5 600.8281,99.9063 Q599.8594,99.4375 599.1719,98.4219 Q598.5,97.4063 598.5,96.2031 L598.5,95.1094 Q598.5,93.8594 599.0938,92.7656 Q599.7031,91.6719 600.75,91.0938 Q601.8125,90.5 603,90.5 Q603.7188,90.5 604.3438,90.75 Q604.9688,91 605.5,91.5 Z "/><ellipse cx="622.5" cy="94.5" fill="#84BE84" rx="3" ry="3" style="stroke: #038048; stroke-width: 1.0;"/><text fill="#000000" font-family="sans-serif" font-size="12" lengthAdjust="spacingAndGlyphs" textLength="81" x="628.5" y="99.9102">CardResource</text><rect fill="#FFFFFF" height="17.0938" style="stroke: #000000; stroke-width: 1.0; stroke-dasharray: 2.0,2.0;" width="73" x="717.5" y="76"/><text fill="#000000" font-family="sans-serif" font-size="12" font-style="italic" lengthAdjust="spacingAndGlyphs" textLength="71" x="718.5" y="89.457">CalypsoSam</text><line style="stroke: #D4AC0D; stroke-width: 1.5;" x1="589.5" x2="786.5" y1="111" y2="111"/><line style="stroke: #D4AC0D; stroke-width: 1.5;" x1="589.5" x2="786.5" y1="119" y2="119"/><ellipse cx="599.5" cy="130" fill="#84BE84" rx="3" ry="3" style="stroke: #038048; stroke-width: 1.0;"/><text fill="#000000" font-family="sans-serif" font-size="11" lengthAdjust="spacingAndGlyphs" textLength="74" x="608.5" y="134.4189">CardResource(</text><text fill="#FF0000" font-family="sans-serif" font-size="11" lengthAdjust="spacingAndGlyphs" textLength="93" x="682.5" y="134.4189">Reader samReader</text><text fill="#000000" font-family="sans-serif" font-size="11" lengthAdjust="spacingAndGlyphs" textLength="3" x="775.5" y="134.4189">,</text><text fill="#000000" font-family="sans-serif" font-size="11" lengthAdjust="spacingAndGlyphs" textLength="90" x="608.5" y="148.2549">CalypsoSam sam);</text><!--MD5=[e4d4ea7db949ad9d239210033b878e09]
class PoSecuritySetting--><rect fill="#FEFECE" height="48" id="PoSecuritySetting" style="stroke: #D4AC0D; stroke-width: 1.5;" width="166" x="387" y="93"/><ellipse cx="402" cy="109" fill="#ADD1B2" rx="11" ry="11" style="stroke: #ADD1B2; stroke-width: 1.0;"/><path d="M404,105.5 Q404.2031,105 404.4375,104.75 Q404.6719,104.5 404.9375,104.5 Q405.4063,104.5 405.7031,104.7813 Q406,105.0625 406,105.7188 L406,107.2813 Q406,107.9375 405.7188,108.2188 Q405.4375,108.5 405,108.5 Q404.6094,108.5 404.3594,108.3281 Q404.1094,108.1563 404,107.7031 Q403.9531,107.3906 403.7813,107.2188 Q403.4688,106.8906 402.9063,106.7031 Q402.3438,106.5 401.7813,106.5 Q401.0781,106.5 400.4844,106.7813 Q399.9063,107.0625 399.4531,107.6875 Q399,108.3125 399,109.1719 L399,110.0938 Q399,111.125 399.8438,111.8125 Q400.6875,112.5 402.1875,112.5 Q403.0781,112.5 403.7031,112.2969 Q404.0625,112.1875 404.4688,111.8281 Q404.7344,111.625 404.875,111.5625 Q405.0156,111.5 405.1875,111.5 Q405.5156,111.5 405.75,111.7656 Q406,112.0156 406,112.375 Q406,112.7188 405.6563,113.125 Q405.1563,113.7188 404.3594,114.0469 Q403.3125,114.5 402.0313,114.5 Q400.5313,114.5 399.3281,113.9063 Q398.3594,113.4375 397.6719,112.4219 Q397,111.4063 397,110.2031 L397,109.1094 Q397,107.8594 397.5938,106.7656 Q398.2031,105.6719 399.25,105.0938 Q400.3125,104.5 401.5,104.5 Q402.2188,104.5 402.8438,104.75 Q403.4688,105 404,105.5 Z "/><ellipse cx="421" cy="108.5" fill="#84BE84" rx="3" ry="3" style="stroke: #038048; stroke-width: 1.0;"/><text fill="#000000" font-family="sans-serif" font-size="12" font-weight="bold" lengthAdjust="spacingAndGlyphs" textLength="24" x="427" y="113.9102">final</text><text fill="#000000" font-family="sans-serif" font-size="12" lengthAdjust="spacingAndGlyphs" textLength="96" x="454" y="113.9102">PoSecuritySetting</text><line style="stroke: #D4AC0D; stroke-width: 1.5;" x1="388" x2="552" y1="125" y2="125"/><line style="stroke: #D4AC0D; stroke-width: 1.5;" x1="388" x2="552" y1="133" y2="133"/><!--MD5=[346f733d3079e77ece8ec0605238a57f]
class CalypsoPo--><rect fill="#FEFECE" height="172.5234" id="CalypsoPo" style="stroke: #D4AC0D; stroke-width: 1.5;" width="273" x="38.5" y="215"/><ellipse cx="135.25" cy="231" fill="#ADD1B2" rx="11" ry="11" style="stroke: #ADD1B2; stroke-width: 1.0;"/><path d="M137.25,227.5 Q137.4531,227 137.6875,226.75 Q137.9219,226.5 138.1875,226.5 Q138.6563,226.5 138.9531,226.7813 Q139.25,227.0625 139.25,227.7188 L139.25,229.2813 Q139.25,229.9375 138.9688,230.2188 Q138.6875,230.5 138.25,230.5 Q137.8594,230.5 137.6094,230.3281 Q137.3594,230.1563 137.25,229.7031 Q137.2031,229.3906 137.0313,229.2188 Q136.7188,228.8906 136.1563,228.7031 Q135.5938,228.5 135.0313,228.5 Q134.3281,228.5 133.7344,228.7813 Q133.1563,229.0625 132.7031,229.6875 Q132.25,230.3125 132.25,231.1719 L132.25,232.0938 Q132.25,233.125 133.0938,233.8125 Q133.9375,234.5 135.4375,234.5 Q136.3281,234.5 136.9531,234.2969 Q137.3125,234.1875 137.7188,233.8281 Q137.9844,233.625 138.125,233.5625 Q138.2656,233.5 138.4375,233.5 Q138.7656,233.5 139,233.7656 Q139.25,234.0156 139.25,234.375 Q139.25,234.7188 138.9063,235.125 Q138.4063,235.7188 137.6094,236.0469 Q136.5625,236.5 135.2813,236.5 Q133.7813,236.5 132.5781,235.9063 Q131.6094,235.4375 130.9219,234.4219 Q130.25,233.4063 130.25,232.2031 L130.25,231.1094 Q130.25,229.8594 130.8438,228.7656 Q131.4531,227.6719 132.5,227.0938 Q133.5625,226.5 134.75,226.5 Q135.4688,226.5 136.0938,226.75 Q136.7188,227 137.25,227.5 Z "/><ellipse cx="160.75" cy="230.5" fill="#84BE84" rx="3" ry="3" style="stroke: #038048; stroke-width: 1.0;"/><text fill="#000000" font-family="sans-serif" font-size="12" lengthAdjust="spacingAndGlyphs" textLength="60" x="166.75" y="235.9102">CalypsoPo</text><line style="stroke: #D4AC0D; stroke-width: 1.5;" x1="39.5" x2="310.5" y1="247" y2="247"/><line style="stroke: #D4AC0D; stroke-width: 1.5;" x1="39.5" x2="310.5" y1="255" y2="255"/><polygon fill="#4177AF" points="49.5,262,45.5,268,53.5,268" style="stroke: #1963A0; stroke-width: 1.0;"/><text fill="#000000" font-family="sans-serif" font-size="11" lengthAdjust="spacingAndGlyphs" textLength="55" x="58.5" y="270.4189">CalypsoPo(</text><text fill="#FF0000" font-family="sans-serif" font-size="11" lengthAdjust="spacingAndGlyphs" textLength="188" x="113.5" y="270.4189">SelectionResponse selectionResponse</text><text fill="#000000" font-family="sans-serif" font-size="11" lengthAdjust="spacingAndGlyphs" textLength="4" x="301.5" y="270.4189">)</text><text fill="#000000" font-family="sans-serif" font-size="11" lengthAdjust="spacingAndGlyphs" textLength="0" x="61.5" y="284.2549"/><ellipse cx="49.5" cy="293.6719" fill="#84BE84" rx="3" ry="3" style="stroke: #038048; stroke-width: 1.0;"/><text fill="#000000" font-family="sans-serif" font-size="11" font-weight="bold" lengthAdjust="spacingAndGlyphs" textLength="23" x="58.5" y="298.0908">final</text><text fill="#000000" font-family="sans-serif" font-size="11" lengthAdjust="spacingAndGlyphs" textLength="92" x="84.5" y="298.0908">String getDfName()</text><ellipse cx="49.5" cy="307.5078" fill="#84BE84" rx="3" ry="3" style="stroke: #038048; stroke-width: 1.0;"/><text fill="#000000" font-family="sans-serif" font-size="11" font-weight="bold" lengthAdjust="spacingAndGlyphs" textLength="23" x="58.5" y="311.9268">final</text><text fill="#000000" font-family="sans-serif" font-size="11" lengthAdjust="spacingAndGlyphs" textLength="171" x="84.5" y="311.9268">String getApplicationSerialNumber()</text><ellipse cx="49.5" cy="321.3438" fill="#84BE84" rx="3" ry="3" style="stroke: #038048; stroke-width: 1.0;"/><text fill="#000000" font-family="sans-serif" font-size="11" font-weight="bold" lengthAdjust="spacingAndGlyphs" textLength="23" x="58.5" y="325.7627">final</text><text fill="#000000" font-family="sans-serif" font-size="11" lengthAdjust="spacingAndGlyphs" textLength="107" x="84.5" y="325.7627">String getStartupInfo()</text><text fill="#000000" font-family="sans-serif" font-size="11" lengthAdjust="spacingAndGlyphs" textLength="0" x="61.5" y="339.5986"/><ellipse cx="49.5" cy="349.0156" fill="#84BE84" rx="3" ry="3" style="stroke: #038048; stroke-width: 1.0;"/><text fill="#000000" font-family="sans-serif" font-size="11" font-weight="bold" lengthAdjust="spacingAndGlyphs" textLength="23" x="58.5" y="353.4346">final</text><text fill="#000000" font-family="sans-serif" font-size="11" lengthAdjust="spacingAndGlyphs" textLength="0" x="84.5" y="353.4346"/><text fill="#4169E1" font-family="sans-serif" font-size="11" font-style="italic" font-weight="bold" lengthAdjust="spacingAndGlyphs" textLength="89" x="84.5" y="353.4346">boolean is_Xxx()</text><text fill="#000000" font-family="sans-serif" font-size="11" lengthAdjust="spacingAndGlyphs" textLength="0" x="61.5" y="367.2705"/><ellipse cx="49.5" cy="376.6875" fill="#84BE84" rx="3" ry="3" style="stroke: #038048; stroke-width: 1.0;"/><text fill="#000000" font-family="sans-serif" font-size="11" font-weight="bold" lengthAdjust="spacingAndGlyphs" textLength="23" x="58.5" y="381.1064">final</text><text fill="#000000" font-family="sans-serif" font-size="11" lengthAdjust="spacingAndGlyphs" textLength="0" x="84.5" y="381.1064"/><text fill="#4169E1" font-family="sans-serif" font-size="11" font-style="italic" font-weight="bold" lengthAdjust="spacingAndGlyphs" textLength="96" x="84.5" y="381.1064">Xxx getData_Xxx()</text><!--MD5=[8eb5cec01ad571a9feeff1db4f73a667]
class PoTransaction--><rect fill="#FEFECE" height="144.8516" id="PoTransaction" style="stroke: #D4AC0D; stroke-width: 1.5;" width="441" x="346.5" y="229"/><ellipse cx="517.25" cy="245" fill="#ADD1B2" rx="11" ry="11" style="stroke: #ADD1B2; stroke-width: 1.0;"/><path d="M519.25,241.5 Q519.4531,241 519.6875,240.75 Q519.9219,240.5 520.1875,240.5 Q520.6563,240.5 520.9531,240.7813 Q521.25,241.0625 521.25,241.7188 L521.25,243.2813 Q521.25,243.9375 520.9688,244.2188 Q520.6875,244.5 520.25,244.5 Q519.8594,244.5 519.6094,244.3281 Q519.3594,244.1563 519.25,243.7031 Q519.2031,243.3906 519.0313,243.2188 Q518.7188,242.8906 518.1563,242.7031 Q517.5938,242.5 517.0313,242.5 Q516.3281,242.5 515.7344,242.7813 Q515.1563,243.0625 514.7031,243.6875 Q514.25,244.3125 514.25,245.1719 L514.25,246.0938 Q514.25,247.125 515.0938,247.8125 Q515.9375,248.5 517.4375,248.5 Q518.3281,248.5 518.9531,248.2969 Q519.3125,248.1875 519.7188,247.8281 Q519.9844,247.625 520.125,247.5625 Q520.2656,247.5 520.4375,247.5 Q520.7656,247.5 521,247.7656 Q521.25,248.0156 521.25,248.375 Q521.25,248.7188 520.9063,249.125 Q520.4063,249.7188 519.6094,250.0469 Q518.5625,250.5 517.2813,250.5 Q515.7813,250.5 514.5781,249.9063 Q513.6094,249.4375 512.9219,248.4219 Q512.25,247.4063 512.25,246.2031 L512.25,245.1094 Q512.25,243.8594 512.8438,242.7656 Q513.4531,241.6719 514.5,241.0938 Q515.5625,240.5 516.75,240.5 Q517.4688,240.5 518.0938,240.75 Q518.7188,241 519.25,241.5 Z "/><ellipse cx="542.75" cy="244.5" fill="#84BE84" rx="3" ry="3" style="stroke: #038048; stroke-width: 1.0;"/><text fill="#000000" font-family="sans-serif" font-size="12" lengthAdjust="spacingAndGlyphs" textLength="80" x="548.75" y="249.9102">PoTransaction</text><line style="stroke: #D4AC0D; stroke-width: 1.5;" x1="347.5" x2="786.5" y1="261" y2="261"/><line style="stroke: #D4AC0D; stroke-width: 1.5;" x1="347.5" x2="786.5" y1="269" y2="269"/><ellipse cx="357.5" cy="280" fill="#84BE84" rx="3" ry="3" style="stroke: #038048; stroke-width: 1.0;"/><text fill="#000000" font-family="sans-serif" font-size="11" lengthAdjust="spacingAndGlyphs" textLength="415" x="366.5" y="284.4189">PoTransaction(CardResource&lt;CalypsoPo&gt; po, PoSecuritySetting[0..1] securitySetting)</text><text fill="#000000" font-family="sans-serif" font-size="11" lengthAdjust="spacingAndGlyphs" textLength="0" x="369.5" y="298.2549"/><ellipse cx="357.5" cy="307.6719" fill="#84BE84" rx="3" ry="3" style="stroke: #038048; stroke-width: 1.0;"/><text fill="#000000" font-family="sans-serif" font-size="11" font-weight="bold" lengthAdjust="spacingAndGlyphs" textLength="23" x="366.5" y="312.0908">final</text><text fill="#000000" font-family="sans-serif" font-size="11" lengthAdjust="spacingAndGlyphs" textLength="0" x="392.5" y="312.0908"/><text fill="#4169E1" font-family="sans-serif" font-size="11" font-style="italic" font-weight="bold" lengthAdjust="spacingAndGlyphs" textLength="131" x="392.5" y="312.0908">prepareCommand_Xxx()</text><text fill="#000000" font-family="sans-serif" font-size="11" lengthAdjust="spacingAndGlyphs" textLength="0" x="369.5" y="325.9268"/><ellipse cx="357.5" cy="335.3438" fill="#84BE84" rx="3" ry="3" style="stroke: #038048; stroke-width: 1.0;"/><text fill="#000000" font-family="sans-serif" font-size="11" font-weight="bold" lengthAdjust="spacingAndGlyphs" textLength="23" x="366.5" y="339.7627">final</text><text fill="#000000" font-family="sans-serif" font-size="11" lengthAdjust="spacingAndGlyphs" textLength="0" x="392.5" y="339.7627"/><text fill="#4169E1" font-family="sans-serif" font-size="11" font-style="italic" font-weight="bold" lengthAdjust="spacingAndGlyphs" textLength="182" x="392.5" y="339.7627">boolean processCommands_Xxx()</text><text fill="#000000" font-family="sans-serif" font-size="11" lengthAdjust="spacingAndGlyphs" textLength="0" x="369.5" y="353.5986"/><ellipse cx="357.5" cy="363.0156" fill="#84BE84" rx="3" ry="3" style="stroke: #038048; stroke-width: 1.0;"/><text fill="#000000" font-family="sans-serif" font-size="11" font-weight="bold" lengthAdjust="spacingAndGlyphs" textLength="23" x="366.5" y="367.4346">final</text><text fill="#000000" font-family="sans-serif" font-size="11" lengthAdjust="spacingAndGlyphs" textLength="0" x="392.5" y="367.4346"/><text fill="#4169E1" font-family="sans-serif" font-size="11" font-style="italic" font-weight="bold" lengthAdjust="spacingAndGlyphs" textLength="202" x="392.5" y="367.4346">Xxx_SecureData getXxx_SecureData()</text><!--MD5=[e4e6b0c197a4fe408c8d4c7214bc9356]
link PoResource to PoTransaction--><path d="M320.903,155.152 C353.657,174.496 395.005,198.917 434.413,222.192 " fill="none" id="PoResource-&gt;PoTransaction" style="stroke: #A80036; stroke-width: 1.0;"/><polygon fill="#FFFFFF" points="445.742,228.883,442.6099,222.3876,435.4095,222.7806,438.5416,229.2759,445.742,228.883" style="stroke: #A80036; stroke-width: 1.0;"/><text fill="#000000" font-family="sans-serif" font-size="13" lengthAdjust="spacingAndGlyphs" textLength="7" x="323.3704" y="176.0568">1</text><text fill="#000000" font-family="sans-serif" font-size="13" lengthAdjust="spacingAndGlyphs" textLength="7" x="425.8763" y="218.0903">1</text><!--MD5=[7ef23bb65cbd7f21990abf12f0f9fb41]
link PoSecuritySetting to PoTransaction--><path d="M482.285,141.114 C492.545,160.417 507.827,189.17 522.599,216.963 " fill="none" id="PoSecuritySetting-&gt;PoTransaction" style="stroke: #A80036; stroke-width: 1.0;"/><polygon fill="#FFFFFF" points="528.883,228.785,529.5989,221.6095,523.2507,218.1889,522.5348,225.3644,528.883,228.785" style="stroke: #A80036; stroke-width: 1.0;"/><text fill="#000000" font-family="sans-serif" font-size="13" lengthAdjust="spacingAndGlyphs" textLength="22" x="460.5982" y="162.4798">0..1</text><text fill="#000000" font-family="sans-serif" font-size="13" lengthAdjust="spacingAndGlyphs" textLength="7" x="517.5912" y="217.9822">1</text><!--MD5=[37dbed8b9216f61bc352547fd6848c07]
reverse link PoResource to CalypsoPo--><path d="M235.595,167.264 C228.893,182.001 221.341,198.605 213.902,214.963 " fill="none" id="PoResource&lt;-CalypsoPo" style="stroke: #A80036; stroke-width: 1.0;"/><polygon fill="#FFFFFF" points="241.003,155.372,234.878,159.1778,236.0352,166.2954,242.1602,162.4896,241.003,155.372" style="stroke: #A80036; stroke-width: 1.0;"/><text fill="#000000" font-family="sans-serif" font-size="13" lengthAdjust="spacingAndGlyphs" textLength="7" x="230.7363" y="176.3118">1</text><text fill="#000000" font-family="sans-serif" font-size="13" lengthAdjust="spacingAndGlyphs" textLength="7" x="210.055" y="204.0753">1</text><!--MD5=[a40139effe78355afd96e1fe38f816a4]
reverse link PoSecuritySetting to SamResource--><path d="M566.274,117 C573.634,117 580.993,117 588.352,117 " fill="none" id="PoSecuritySetting&lt;-SamResource" style="stroke: #A80036; stroke-width: 1.0;"/><polygon fill="#FFFFFF" points="553.027,117,559.027,121,565.027,117,559.027,113,553.027,117" style="stroke: #A80036; stroke-width: 1.0;"/><text fill="#000000" font-family="sans-serif" font-size="13" lengthAdjust="spacingAndGlyphs" textLength="7" x="564.9114" y="113.7983">1</text><text fill="#000000" font-family="sans-serif" font-size="13" lengthAdjust="spacingAndGlyphs" textLength="22" x="560.9776" y="131.6702">0..1</text><!--MD5=[4fae7473818f03b79e7e0ec0aa516fd0]
link PoResource to SamResource--><!--MD5=[7d576c08e68dca11b1018fc5fb2c3c07]
@startuml
skinparam ClassBorderColor #D4AC0D
skinparam stereotypeABorderColor #A9DCDF
skinparam stereotypeIBorderColor #B4A7E5
skinparam stereotypeCBorderColor #ADD1B2
skinparam stereotypeEBorderColor #EB93DF
skinparam shadowing false

skinparam StateBorderColor #D4AC0D
skinparam ActivityBorderColor #D4AC0D

skinparam ClassBackgroundColor<<red>> #FDEDEC
skinparam ClassBorderColor<<red>> #E74C3C
hide <<red>> stereotype
skinparam ClassBackgroundColor<<purple>> #F4ECF7
skinparam ClassBorderColor<<purple>> #8E44AD
hide <<purple>> stereotype
skinparam ClassBackgroundColor<<blue>> #EBF5FB
skinparam ClassBorderColor<<blue>> #3498DB
hide <<blue>> stereotype
skinparam ClassBackgroundColor<<green>> #EAFAF1
skinparam ClassBorderColor<<green>> #2ECC71
hide <<green>> stereotype

skinparam ClassBackgroundColor<<orange>> #FDF2E9
skinparam ClassBorderColor<<orange>> #E67E22
hide <<orange>> stereotype

skinparam ClassBackgroundColor<<grey>> #EAECEE
skinparam ClassBorderColor<<grey>> #2C3E50
hide <<grey>> stereotype

together {
  +class "CardResource<CalypsoPo>" as PoResource {
    +CardResource(<color:red>Reader poReader</color>,
    CalypsoPo po);
  }

  +class "CardResource<CalypsoSam>" as SamResource {
    +CardResource(<color:red>Reader samReader</color>,
    CalypsoSam sam);
  }

  +class "<b>final</b> PoSecuritySetting" as PoSecuritySetting {
  }

  +class CalypsoPo {
    ~CalypsoPo(<color:red>SelectionResponse selectionResponse</color>)

    +<b>final</b> String getDfName()
    +<b>final</b> String getApplicationSerialNumber()
    +<b>final</b> String getStartupInfo()

    +<b>final</b> <color:royalBlue><b><i>boolean is_Xxx()</i></b></color>

    +<b>final</b> <color:royalBlue><b><i>Xxx getData_Xxx()</i></b></color>
  }

  +class PoTransaction {
    +PoTransaction(CardResource<CalypsoPo> po, PoSecuritySetting[0..1] securitySetting)

    +<b>final</b> <color:royalBlue><b><i>prepareCommand_Xxx()</i></b></color>

    +<b>final</b> <color:royalBlue><b><i>boolean processCommands_Xxx()</i></b></color>

    +<b>final</b> <color:royalBlue><b><i>Xxx_SecureData getXxx_SecureData()</i></b></color>
  }

  PoTransaction "1" o-up- "1" PoResource
  PoTransaction "1" o-up- "0..1" PoSecuritySetting
  PoResource "1" o-down- "1" CalypsoPo
  SamResource "0..1 " -right-o " 1" PoSecuritySetting
  PoResource -right[hidden]- SamResource
}
@enduml

PlantUML version 1.2020.09(Sun May 10 14:51:06 MUT 2020)
(GPL source distribution)
Java Runtime: OpenJDK Runtime Environment
JVM: OpenJDK 64-Bit Server VM
Java Version: 11.0.7+10-b765.64
Operating System: Windows 10
Default Encoding: Cp1252
Language: fr
Country: FR
--></g></svg>