<?xml version="1.0" encoding="UTF-8" standalone="no"?><svg xmlns="http://www.w3.org/2000/svg" xmlns:xlink="http://www.w3.org/1999/xlink" contentScriptType="application/ecmascript" contentStyleType="text/css" height="387.6px" preserveAspectRatio="none" style="width:807px;height:387px;" version="1.1" viewBox="0 0 807 387" width="807.6px" zoomAndPan="magnify"><defs/><g><ellipse cx="180.678" cy="21.6" fill="#000000" rx="12" ry="12" style="stroke: none; stroke-width: 1.2;"/><rect fill="#FEFECE" height="48" rx="15" ry="15" style="stroke: #D4AC0D; stroke-width: 1.7999999999999998;" width="180" x="90.6776" y="106.8"/><text fill="#000000" font-family="sans-serif" font-size="16.8" lengthAdjust="spacingAndGlyphs" textLength="168" x="96.6776" y="137.6742">WaitForStartDetection</text><rect fill="#FEFECE" height="48" rx="15" ry="15" style="stroke: #D4AC0D; stroke-width: 1.7999999999999998;" width="157.2" x="440.478" y="106.8"/><text fill="#000000" font-family="sans-serif" font-size="16.8" lengthAdjust="spacingAndGlyphs" textLength="145.2" x="446.478" y="137.6742">WaitForSeInsertion</text><rect fill="#FEFECE" height="48" rx="15" ry="15" style="stroke: #D4AC0D; stroke-width: 1.7999999999999998;" width="176.4" x="430.878" y="326.4"/><text fill="#000000" font-family="sans-serif" font-size="16.8" lengthAdjust="spacingAndGlyphs" textLength="164.4" x="436.878" y="357.2742">WaitForSeProcessing</text><rect fill="#FEFECE" height="48" rx="15" ry="15" style="stroke: #D4AC0D; stroke-width: 1.7999999999999998;" width="158.4" x="88.2776" y="326.4"/><text fill="#000000" font-family="sans-serif" font-size="16.8" lengthAdjust="spacingAndGlyphs" textLength="146.4" x="94.2776" y="357.2742">WaitForSeRemoval</text><!--MD5=[003c4da03e82b5fcb4d590f29b449743]
link *start to WaitForStartDetection--><path d="M180.678,33.8268 C180.678,49.416 180.678,78.4512 180.678,100.4808 " fill="none" id="*start-&gt;WaitForStartDetection" style="stroke: #A80036; stroke-width: 1.2;"/><polygon fill="#A80036" points="180.678,106.4916,185.478,95.6916,180.678,100.4916,175.878,95.6916,180.678,106.4916" style="stroke: #A80036; stroke-width: 1.2;"/><!--MD5=[f2e10831cc9a25737cccb2043bcbba7d]
link WaitForStartDetection to WaitForSeInsertion--><path d="M270.918,130.8 C321.426,130.8 384.0348,130.8 433.7292,130.8 " fill="none" id="WaitForStartDetection-&gt;WaitForSeInsertion" style="stroke: #0000FF; stroke-width: 1.2;"/><polygon fill="#0000FF" points="440.0328,130.8,429.2328,126,434.0328,130.8,429.2328,135.6,440.0328,130.8" style="stroke: #0000FF; stroke-width: 1.2;"/><text fill="#000000" font-family="sans-serif" font-size="15.6" lengthAdjust="spacingAndGlyphs" textLength="126" x="292.578" y="122.9941">startSeDetection()</text><!--MD5=[06ea0261656a61eae858fedc0865d409]
reverse link WaitForStartDetection to WaitForSeInsertion--><path d="M276.882,153.9672 C281.97,154.758 287.0244,155.4468 291.978,156 C348.1608,162.2808 363.0756,162.9672 419.178,156 C426.1008,155.1408 433.2324,153.9576 440.3496,152.5704 " fill="none" id="WaitForStartDetection&lt;-WaitForSeInsertion" style="stroke: #0000FF; stroke-width: 1.2;"/><polygon fill="#0000FF" points="270.8976,152.9928,280.785,159.4673,276.8195,153.9578,282.329,149.9923,270.8976,152.9928" style="stroke: #0000FF; stroke-width: 1.2;"/><text fill="#000000" font-family="sans-serif" font-size="15.6" lengthAdjust="spacingAndGlyphs" textLength="124.8" x="293.178" y="151.7941">stopSeDetection()</text><!--MD5=[992ba655eaf93782ef94c02e89306d3d]
link WaitForSeInsertion to WaitForSeProcessing--><path d="M517.3512,154.8828 C516.6132,165.7572 515.8404,178.9416 515.478,190.8 C514.1244,235.0464 514.1244,246.1536 515.478,290.4 C515.772,300.0349 516.3384,310.5454 516.9348,319.9807 " fill="none" id="WaitForSeInsertion-&gt;WaitForSeProcessing" style="stroke: #FF0000; stroke-width: 1.2;"/><polygon fill="#FF0000" points="517.3512,326.3172,521.4341,315.2262,516.9585,320.3301,511.8547,315.8545,517.3512,326.3172" style="stroke: #FF0000; stroke-width: 1.2;"/><text fill="#000000" font-family="sans-serif" font-size="15.6" lengthAdjust="spacingAndGlyphs" textLength="86.4" x="516.678" y="237.5941">'SE inserted'</text><text fill="#000000" font-family="sans-serif" font-size="15.6" lengthAdjust="spacingAndGlyphs" textLength="74.4" x="522.678" y="257.216">notification</text><!--MD5=[c072ffad7560f4297d8524ce01a65765]
link WaitForSeProcessing to WaitForSeInsertion--><path d="M572.4996,326.3168 C586.9836,317.3428 600.9048,305.5015 609.078,290.4 C630.1464,251.4684 630.1464,229.7316 609.078,190.8 C601.8624,177.468 590.1672,166.6776 577.56,158.1564 " fill="none" id="WaitForSeProcessing-&gt;WaitForSeInsertion" style="stroke: #FF0000; stroke-width: 1.2; stroke-dasharray: 7.0,7.0;"/><polygon fill="#FF0000" points="572.4996,154.8828,578.9587,164.7803,577.5368,158.1427,584.1744,156.7208,572.4996,154.8828" style="stroke: #FF0000; stroke-width: 1.2;"/><text fill="#000000" font-family="sans-serif" font-size="15.6" lengthAdjust="spacingAndGlyphs" textLength="168" x="625.878" y="208.1941">'SE removed' notification</text><text fill="#000000" font-family="sans-serif" font-size="15.6" lengthAdjust="spacingAndGlyphs" textLength="157.2" x="631.278" y="227.816">(for Observable Reader</text><text fill="#000000" font-family="sans-serif" font-size="15.6" lengthAdjust="spacingAndGlyphs" textLength="124.8" x="647.478" y="247.4379">with the capability</text><text fill="#000000" font-family="sans-serif" font-size="15.6" lengthAdjust="spacingAndGlyphs" textLength="145.2" x="637.278" y="267.0598">to detect the removal</text><text fill="#000000" font-family="sans-serif" font-size="15.6" lengthAdjust="spacingAndGlyphs" textLength="82.8" x="668.478" y="286.6816">at any time)</text><!--MD5=[593e106eef62bf2c22c2a4af8a6c9e3d]
reverse link WaitForSeRemoval to WaitForSeProcessing--><path d="M252.9828,350.4 C306.8832,350.4 376.3272,350.4 430.7568,350.4 " fill="none" id="WaitForSeRemoval&lt;-WaitForSeProcessing" style="stroke: #0000FF; stroke-width: 1.2;"/><polygon fill="#0000FF" points="246.822,350.4,257.622,355.2,252.822,350.4,257.622,345.6,246.822,350.4" style="stroke: #0000FF; stroke-width: 1.2;"/><text fill="#000000" font-family="sans-serif" font-size="15.6" lengthAdjust="spacingAndGlyphs" textLength="140.4" x="268.578" y="342.5941">notifySeProcessed()</text><!--MD5=[950a38ee2783eb41b09649a1e51c5427]
link WaitForSeProcessing to WaitForStartDetection--><path d="M430.7076,344.2944 C347.7276,337.7392 231.8592,322.9156 201.078,290.4 C168.4176,255.9008 170.3376,196.6272 175.1796,161.196 " fill="none" id="WaitForSeProcessing-&gt;WaitForStartDetection" style="stroke: #0000FF; stroke-width: 1.2;"/><polygon fill="#0000FF" points="176.1096,154.8684,169.7901,164.8556,175.2371,160.8046,179.288,166.2516,176.1096,154.8684" style="stroke: #0000FF; stroke-width: 1.2;"/><text fill="#000000" font-family="sans-serif" font-size="15.6" lengthAdjust="spacingAndGlyphs" textLength="124.8" x="202.278" y="247.1941">stopSeDetection()</text><!--MD5=[d16b56604473427f1d6ff08eca48d2dd]
reverse link WaitForSeInsertion to WaitForSeRemoval--><path d="M464.2524,157.8948 C447.4872,167.0892 429.5604,178.2984 414.678,190.8 C370.86,227.6076 379.8912,257.4859 333.078,290.4 C307.3716,308.4737 275.544,321.5222 246.6816,330.6636 " fill="none" id="WaitForSeInsertion&lt;-WaitForSeRemoval" style="stroke: #FF0000; stroke-width: 1.2;"/><polygon fill="#FF0000" points="469.8876,154.8552,458.1035,155.7581,464.6069,157.7038,462.6612,164.2072,469.8876,154.8552" style="stroke: #FF0000; stroke-width: 1.2;"/><text fill="#000000" font-family="sans-serif" font-size="15.6" lengthAdjust="spacingAndGlyphs" textLength="88.8" x="415.878" y="237.5941">'SE removed'</text><text fill="#000000" font-family="sans-serif" font-size="15.6" lengthAdjust="spacingAndGlyphs" textLength="74.4" x="423.078" y="257.216">notification</text><!--MD5=[468fcc5103ee613552758a9e57699ebf]
reverse link WaitForStartDetection to WaitForSeRemoval--><path d="M84.5368,148.65 C61.6211,157.3608 39.7984,170.6208 25.8776,190.8 C0.7408,227.2368 1.3008,253.5828 25.8776,290.4 C40.213,311.875 64.0144,325.5179 88.0501,334.1807 " fill="none" id="WaitForStartDetection&lt;-WaitForSeRemoval" style="stroke: #0000FF; stroke-width: 1.2;"/><polygon fill="#0000FF" points="90.3822,146.532,78.5929,145.6993,84.7413,148.5765,81.8641,154.7248,90.3822,146.532" style="stroke: #0000FF; stroke-width: 1.2;"/><text fill="#000000" font-family="sans-serif" font-size="15.6" lengthAdjust="spacingAndGlyphs" textLength="124.8" x="27.0776" y="247.1941">stopSeDetection()</text><!--MD5=[9f8eeb0cd7f47530ac1c6ee5f63f827d]
@startuml
skinparam ClassBorderColor #D4AC0D
skinparam stereotypeABorderColor #A9DCDF
skinparam stereotypeIBorderColor #B4A7E5
skinparam stereotypeCBorderColor #ADD1B2
skinparam stereotypeEBorderColor #EB93DF
skinparam shadowing false

skinparam StateBorderColor #D4AC0D
skinparam ActivityBorderColor #D4AC0D

skinparam ClassBackgroundColor<<red>> #FDEDEC
skinparam ClassBorderColor<<red>> #E74C3C
hide <<red>> stereotype
skinparam ClassBackgroundColor<<purple>> #F4ECF7
skinparam ClassBorderColor<<purple>> #8E44AD
hide <<purple>> stereotype
skinparam ClassBackgroundColor<<blue>> #EBF5FB
skinparam ClassBorderColor<<blue>> #3498DB
hide <<blue>> stereotype
skinparam ClassBackgroundColor<<green>> #EAFAF1
skinparam ClassBorderColor<<green>> #2ECC71
hide <<green>> stereotype

skinparam ClassBackgroundColor<<orange>> #FDF2E9
skinparam ClassBorderColor<<orange>> #E67E22
hide <<orange>> stereotype

skinparam ClassBackgroundColor<<grey>> #EAECEE
skinparam ClassBorderColor<<grey>> #2C3E50
hide <<grey>> stereotype
hide empty description
[*] -down-> WaitForStartDetection
WaitForStartDetection -right[#Blue]-> WaitForSeInsertion : startSeDetection()

WaitForSeInsertion -down[#Red]-> WaitForSeProcessing : 'SE inserted'\nnotification
WaitForSeInsertion -left[#Blue]-> WaitForStartDetection : stopSeDetection()

WaitForSeProcessing -left[#Blue]-> WaitForSeRemoval : notifySeProcessed()
WaitForSeProcessing -[#Blue]-> WaitForStartDetection : stopSeDetection()
WaitForSeProcessing -[#Red,dashed]-> WaitForSeInsertion : 'SE removed' notification\n(for Observable Reader\nwith the capability\nto detect the removal\nat any time)

WaitForSeRemoval -up[#Red]-> WaitForSeInsertion : 'SE removed'\nnotification
WaitForSeRemoval -up[#Blue]-> WaitForStartDetection : stopSeDetection()
@enduml

PlantUML version 1.2020.09(Sun May 10 14:51:06 MUT 2020)
(GPL source distribution)
Java Runtime: OpenJDK Runtime Environment
JVM: OpenJDK 64-Bit Server VM
Java Version: 11.0.7+10-b765.64
Operating System: Windows 10
Default Encoding: Cp1252
Language: fr
Country: FR
--></g></svg>