<?xml version="1.0" encoding="UTF-8" standalone="no"?><svg xmlns="http://www.w3.org/2000/svg" xmlns:xlink="http://www.w3.org/1999/xlink" contentScriptType="application/ecmascript" contentStyleType="text/css" height="323px" preserveAspectRatio="none" style="width:673px;height:323px;" version="1.1" viewBox="0 0 673 323" width="673px" zoomAndPan="magnify"><defs/><g><ellipse cx="150.565" cy="18" fill="#000000" rx="10" ry="10" style="stroke: none; stroke-width: 1.0;"/><rect fill="#FEFECE" height="40" rx="12.5" ry="12.5" style="stroke: #D4AC0D; stroke-width: 1.5;" width="150" x="75.5647" y="89"/><text fill="#000000" font-family="sans-serif" font-size="14" lengthAdjust="spacingAndGlyphs" textLength="140" x="80.5647" y="114.7285">WaitForStartDetection</text><rect fill="#FEFECE" height="40" rx="12.5" ry="12.5" style="stroke: #D4AC0D; stroke-width: 1.5;" width="131" x="367.065" y="89"/><text fill="#000000" font-family="sans-serif" font-size="14" lengthAdjust="spacingAndGlyphs" textLength="121" x="372.065" y="114.7285">WaitForSeInsertion</text><rect fill="#FEFECE" height="40" rx="12.5" ry="12.5" style="stroke: #D4AC0D; stroke-width: 1.5;" width="147" x="359.065" y="272"/><text fill="#000000" font-family="sans-serif" font-size="14" lengthAdjust="spacingAndGlyphs" textLength="137" x="364.065" y="297.7285">WaitForSeProcessing</text><rect fill="#FEFECE" height="40" rx="12.5" ry="12.5" style="stroke: #D4AC0D; stroke-width: 1.5;" width="132" x="73.5647" y="272"/><text fill="#000000" font-family="sans-serif" font-size="14" lengthAdjust="spacingAndGlyphs" textLength="122" x="78.5647" y="297.7285">WaitForSeRemoval</text><!--MD5=[003c4da03e82b5fcb4d590f29b449743]
link *start to WaitForStartDetection--><path d="M150.565,28.189 C150.565,41.18 150.565,65.376 150.565,83.734 " fill="none" id="*start-&gt;WaitForStartDetection" style="stroke: #A80036; stroke-width: 1.0;"/><polygon fill="#A80036" points="150.565,88.743,154.565,79.743,150.565,83.743,146.565,79.743,150.565,88.743" style="stroke: #A80036; stroke-width: 1.0;"/><!--MD5=[f2e10831cc9a25737cccb2043bcbba7d]
link WaitForStartDetection to WaitForSeInsertion--><path d="M225.765,109 C267.855,109 320.029,109 361.441,109 " fill="none" id="WaitForStartDetection-&gt;WaitForSeInsertion" style="stroke: #0000FF; stroke-width: 1.0;"/><polygon fill="#0000FF" points="366.694,109,357.694,105,361.694,109,357.694,113,366.694,109" style="stroke: #0000FF; stroke-width: 1.0;"/><text fill="#000000" font-family="sans-serif" font-size="13" lengthAdjust="spacingAndGlyphs" textLength="105" x="243.815" y="102.4951">startSeDetection()</text><!--MD5=[06ea0261656a61eae858fedc0865d409]
reverse link WaitForStartDetection to WaitForSeInsertion--><path d="M230.735,128.306 C234.975,128.965 239.187,129.539 243.315,130 C290.134,135.234 302.563,135.806 349.315,130 C355.084,129.284 361.027,128.298 366.958,127.142 " fill="none" id="WaitForStartDetection&lt;-WaitForSeInsertion" style="stroke: #0000FF; stroke-width: 1.0;"/><polygon fill="#0000FF" points="225.748,127.494,233.9875,132.8894,230.6829,128.2982,235.2742,124.9936,225.748,127.494" style="stroke: #0000FF; stroke-width: 1.0;"/><text fill="#000000" font-family="sans-serif" font-size="13" lengthAdjust="spacingAndGlyphs" textLength="104" x="244.315" y="126.4951">stopSeDetection()</text><!--MD5=[992ba655eaf93782ef94c02e89306d3d]
link WaitForSeInsertion to WaitForSeProcessing--><path d="M431.126,129.069 C430.511,138.131 429.867,149.118 429.565,159 C428.437,195.872 428.437,205.128 429.565,242 C429.81,250.0291 430.282,258.7878 430.779,266.6506 " fill="none" id="WaitForSeInsertion-&gt;WaitForSeProcessing" style="stroke: #FF0000; stroke-width: 1.0;"/><polygon fill="#FF0000" points="431.126,271.931,434.5284,262.6885,430.7988,266.9417,426.5455,263.2121,431.126,271.931" style="stroke: #FF0000; stroke-width: 1.0;"/><text fill="#000000" font-family="sans-serif" font-size="13" lengthAdjust="spacingAndGlyphs" textLength="72" x="430.565" y="197.9951">'SE inserted'</text><text fill="#000000" font-family="sans-serif" font-size="13" lengthAdjust="spacingAndGlyphs" textLength="62" x="435.565" y="214.3467">notification</text><!--MD5=[c072ffad7560f4297d8524ce01a65765]
link WaitForSeProcessing to WaitForSeInsertion--><path d="M477.083,271.9307 C489.153,264.4523 500.754,254.5846 507.565,242 C525.122,209.557 525.122,191.443 507.565,159 C501.552,147.89 491.806,138.898 481.3,131.797 " fill="none" id="WaitForSeProcessing-&gt;WaitForSeInsertion" style="stroke: #FF0000; stroke-width: 1.0; stroke-dasharray: 7.0,7.0;"/><polygon fill="#FF0000" points="477.083,129.069,482.4655,137.3169,481.2807,131.7856,486.812,130.6007,477.083,129.069" style="stroke: #FF0000; stroke-width: 1.0;"/><text fill="#000000" font-family="sans-serif" font-size="13" lengthAdjust="spacingAndGlyphs" textLength="140" x="521.565" y="173.4951">'SE removed' notification</text><text fill="#000000" font-family="sans-serif" font-size="13" lengthAdjust="spacingAndGlyphs" textLength="131" x="526.065" y="189.8467">(for Observable Reader</text><text fill="#000000" font-family="sans-serif" font-size="13" lengthAdjust="spacingAndGlyphs" textLength="104" x="539.565" y="206.1982">with the capability</text><text fill="#000000" font-family="sans-serif" font-size="13" lengthAdjust="spacingAndGlyphs" textLength="121" x="531.065" y="222.5498">to detect the removal</text><text fill="#000000" font-family="sans-serif" font-size="13" lengthAdjust="spacingAndGlyphs" textLength="69" x="557.065" y="238.9014">at any time)</text><!--MD5=[593e106eef62bf2c22c2a4af8a6c9e3d]
reverse link WaitForSeRemoval to WaitForSeProcessing--><path d="M210.819,292 C255.736,292 313.606,292 358.964,292 " fill="none" id="WaitForSeRemoval&lt;-WaitForSeProcessing" style="stroke: #0000FF; stroke-width: 1.0;"/><polygon fill="#0000FF" points="205.685,292,214.685,296,210.685,292,214.685,288,205.685,292" style="stroke: #0000FF; stroke-width: 1.0;"/><text fill="#000000" font-family="sans-serif" font-size="13" lengthAdjust="spacingAndGlyphs" textLength="117" x="223.815" y="285.4951">notifySeProcessed()</text><!--MD5=[950a38ee2783eb41b09649a1e51c5427]
link WaitForSeProcessing to WaitForStartDetection--><path d="M358.923,286.912 C289.773,281.4493 193.216,269.0963 167.565,242 C140.348,213.2507 141.948,163.856 145.983,134.33 " fill="none" id="WaitForSeProcessing-&gt;WaitForStartDetection" style="stroke: #0000FF; stroke-width: 1.0;"/><polygon fill="#0000FF" points="146.758,129.057,141.4917,137.3797,146.0309,134.0039,149.4067,138.543,146.758,129.057" style="stroke: #0000FF; stroke-width: 1.0;"/><text fill="#000000" font-family="sans-serif" font-size="13" lengthAdjust="spacingAndGlyphs" textLength="104" x="168.565" y="205.9951">stopSeDetection()</text><!--MD5=[d16b56604473427f1d6ff08eca48d2dd]
reverse link WaitForSeInsertion to WaitForSeRemoval--><path d="M386.877,131.579 C372.906,139.241 357.967,148.582 345.565,159 C309.05,189.673 316.576,214.5716 277.565,242 C256.143,257.0614 229.62,267.9352 205.568,275.553 " fill="none" id="WaitForSeInsertion&lt;-WaitForSeRemoval" style="stroke: #FF0000; stroke-width: 1.0;"/><polygon fill="#FF0000" points="391.573,129.046,381.7529,129.7984,387.1724,131.4198,385.551,136.8393,391.573,129.046" style="stroke: #FF0000; stroke-width: 1.0;"/><text fill="#000000" font-family="sans-serif" font-size="13" lengthAdjust="spacingAndGlyphs" textLength="74" x="346.565" y="197.9951">'SE removed'</text><text fill="#000000" font-family="sans-serif" font-size="13" lengthAdjust="spacingAndGlyphs" textLength="62" x="352.565" y="214.3467">notification</text><!--MD5=[468fcc5103ee613552758a9e57699ebf]
reverse link WaitForStartDetection to WaitForSeRemoval--><path d="M70.4473,123.875 C51.3509,131.134 33.1653,142.184 21.5647,159 C0.6173,189.364 1.084,211.319 21.5647,242 C33.5108,259.8958 53.3453,271.2649 73.3751,278.4839 " fill="none" id="WaitForStartDetection&lt;-WaitForSeRemoval" style="stroke: #0000FF; stroke-width: 1.0;"/><polygon fill="#0000FF" points="75.3185,122.11,65.4941,121.4161,70.6177,123.8137,68.2201,128.9373,75.3185,122.11" style="stroke: #0000FF; stroke-width: 1.0;"/><text fill="#000000" font-family="sans-serif" font-size="13" lengthAdjust="spacingAndGlyphs" textLength="104" x="22.5647" y="205.9951">stopSeDetection()</text><!--MD5=[aa68c04d8e56a902de018f1120b30c44]
@startuml
skinparam ClassBorderColor #D4AC0D
skinparam stereotypeABorderColor #A9DCDF
skinparam stereotypeIBorderColor #B4A7E5
skinparam stereotypeCBorderColor #ADD1B2
skinparam stereotypeEBorderColor #EB93DF
skinparam shadowing false

skinparam StateBorderColor #D4AC0D
skinparam ActivityBorderColor #D4AC0D

skinparam ClassBackgroundColor<<red>> #FDEDEC
skinparam ClassBorderColor<<red>> #E74C3C
hide <<red>> stereotype
skinparam ClassBackgroundColor<<purple>> #F4ECF7
skinparam ClassBorderColor<<purple>> #8E44AD
hide <<purple>> stereotype
skinparam ClassBackgroundColor<<blue>> #EBF5FB
skinparam ClassBorderColor<<blue>> #3498DB
hide <<blue>> stereotype
skinparam ClassBackgroundColor<<green>> #EAFAF1
skinparam ClassBorderColor<<green>> #2ECC71
hide <<green>> stereotype
skinparam ClassBackgroundColor<<grey>> #EAECEE
skinparam ClassBorderColor<<grey>> #2C3E50
hide <<grey>> stereotype
hide empty description
[*] -down-> WaitForStartDetection
WaitForStartDetection -right[#Blue]-> WaitForSeInsertion : startSeDetection()

WaitForSeInsertion -down[#Red]-> WaitForSeProcessing : 'SE inserted'\nnotification
WaitForSeInsertion -left[#Blue]-> WaitForStartDetection : stopSeDetection()

WaitForSeProcessing -left[#Blue]-> WaitForSeRemoval : notifySeProcessed()
WaitForSeProcessing -[#Blue]-> WaitForStartDetection : stopSeDetection()
WaitForSeProcessing -[#Red,dashed]-> WaitForSeInsertion : 'SE removed' notification\n(for Observable Reader\nwith the capability\nto detect the removal\nat any time)

WaitForSeRemoval -up[#Red]-> WaitForSeInsertion : 'SE removed'\nnotification
WaitForSeRemoval -up[#Blue]-> WaitForStartDetection : stopSeDetection()
@enduml

PlantUML version 1.2020.09(Sun May 10 14:51:06 MUT 2020)
(GPL source distribution)
Java Runtime: OpenJDK Runtime Environment
JVM: OpenJDK 64-Bit Server VM
Java Version: 11.0.6+8-b765.40
Operating System: Windows 10
Default Encoding: Cp1252
Language: fr
Country: FR
--></g></svg>