<?xml version="1.0" encoding="UTF-8" standalone="no"?><svg xmlns="http://www.w3.org/2000/svg" xmlns:xlink="http://www.w3.org/1999/xlink" contentScriptType="application/ecmascript" contentStyleType="text/css" height="477.6px" preserveAspectRatio="none" style="width:912px;height:477px;" version="1.1" viewBox="0 0 912 477" width="912px" zoomAndPan="magnify"><defs/><g><!--MD5=[e8e21ba3995782366e9aa9ad2c6b2d5f]
class PoResource--><rect fill="#FEFECE" height="90.8062" id="PoResource" style="stroke: #D4AC0D; stroke-width: 1.7999999999999998;" width="229.2" x="153" y="94.8"/><ellipse cx="179.1" cy="114" fill="#ADD1B2" rx="13.2" ry="13.2" style="stroke: #ADD1B2; stroke-width: 1.2;"/><path d="M181.5,109.8 Q181.7438,109.2 182.025,108.9 Q182.3063,108.6 182.625,108.6 Q183.1875,108.6 183.5438,108.9375 Q183.9,109.275 183.9,110.0625 L183.9,111.9375 Q183.9,112.725 183.5625,113.0625 Q183.225,113.4 182.7,113.4 Q182.2313,113.4 181.9313,113.1938 Q181.6313,112.9875 181.5,112.4438 Q181.4438,112.0688 181.2375,111.8625 Q180.8625,111.4688 180.1875,111.2437 Q179.5125,111 178.8375,111 Q177.9938,111 177.2813,111.3375 Q176.5875,111.675 176.0438,112.425 Q175.5,113.175 175.5,114.2063 L175.5,115.3125 Q175.5,116.55 176.5125,117.375 Q177.525,118.2 179.325,118.2 Q180.3937,118.2 181.1437,117.9563 Q181.575,117.825 182.0625,117.3938 Q182.3813,117.15 182.55,117.075 Q182.7188,117 182.925,117 Q183.3188,117 183.6,117.3188 Q183.9,117.6187 183.9,118.05 Q183.9,118.4625 183.4875,118.95 Q182.8875,119.6625 181.9313,120.0562 Q180.675,120.6 179.1375,120.6 Q177.3375,120.6 175.8937,119.8875 Q174.7313,119.325 173.9063,118.1062 Q173.1,116.8875 173.1,115.4438 L173.1,114.1313 Q173.1,112.6313 173.8125,111.3188 Q174.5438,110.0063 175.8,109.3125 Q177.075,108.6 178.5,108.6 Q179.3625,108.6 180.1125,108.9 Q180.8625,109.2 181.5,109.8 Z "/><ellipse cx="203.7" cy="113.4" fill="#84BE84" rx="3.6" ry="3.6" style="stroke: #038048; stroke-width: 1.2;"/><text fill="#000000" font-family="sans-serif" font-size="14.4" lengthAdjust="spacingAndGlyphs" textLength="82.8" x="210.9" y="119.8922">SeResource</text><rect fill="#FFFFFF" height="20.5125" style="stroke: #000000; stroke-width: 1.2; stroke-dasharray: 2.0,2.0;" width="74.4" x="311.4" y="91.2"/><text fill="#000000" font-family="sans-serif" font-size="14.4" font-style="italic" lengthAdjust="spacingAndGlyphs" textLength="72" x="312.6" y="107.3484">CalypsoPo</text><line style="stroke: #D4AC0D; stroke-width: 1.7999999999999998;" x1="154.2" x2="381" y1="133.2" y2="133.2"/><line style="stroke: #D4AC0D; stroke-width: 1.7999999999999998;" x1="154.2" x2="381" y1="142.8" y2="142.8"/><ellipse cx="166.2" cy="156" fill="#84BE84" rx="3.6" ry="3.6" style="stroke: #038048; stroke-width: 1.2;"/><text fill="#000000" font-family="sans-serif" font-size="13.2" lengthAdjust="spacingAndGlyphs" textLength="76.8" x="177" y="161.3027">SeResource(</text><text fill="#FF0000" font-family="sans-serif" font-size="13.2" lengthAdjust="spacingAndGlyphs" textLength="117.6" x="253.8" y="161.3027">SeReader seReader</text><text fill="#000000" font-family="sans-serif" font-size="13.2" lengthAdjust="spacingAndGlyphs" textLength="3.6" x="371.4" y="161.3027">,</text><text fill="#000000" font-family="sans-serif" font-size="13.2" lengthAdjust="spacingAndGlyphs" textLength="87.6" x="177" y="177.9059">CalypsoPo po);</text><!--MD5=[43918d86839edc1befb88ea50efcfbfb]
class SamResource--><rect fill="#FEFECE" height="90.8062" id="SamResource" style="stroke: #D4AC0D; stroke-width: 1.7999999999999998;" width="229.2" x="666.6" y="94.8"/><ellipse cx="686.76" cy="114" fill="#ADD1B2" rx="13.2" ry="13.2" style="stroke: #ADD1B2; stroke-width: 1.2;"/><path d="M689.16,109.8 Q689.4038,109.2 689.685,108.9 Q689.9663,108.6 690.285,108.6 Q690.8475,108.6 691.2037,108.9375 Q691.56,109.275 691.56,110.0625 L691.56,111.9375 Q691.56,112.725 691.2225,113.0625 Q690.885,113.4 690.36,113.4 Q689.8912,113.4 689.5913,113.1938 Q689.2912,112.9875 689.16,112.4438 Q689.1037,112.0688 688.8975,111.8625 Q688.5225,111.4688 687.8475,111.2437 Q687.1725,111 686.4975,111 Q685.6538,111 684.9413,111.3375 Q684.2475,111.675 683.7037,112.425 Q683.16,113.175 683.16,114.2063 L683.16,115.3125 Q683.16,116.55 684.1725,117.375 Q685.185,118.2 686.985,118.2 Q688.0537,118.2 688.8037,117.9563 Q689.235,117.825 689.7225,117.3938 Q690.0412,117.15 690.21,117.075 Q690.3788,117 690.585,117 Q690.9787,117 691.26,117.3188 Q691.56,117.6187 691.56,118.05 Q691.56,118.4625 691.1475,118.95 Q690.5475,119.6625 689.5913,120.0562 Q688.335,120.6 686.7975,120.6 Q684.9975,120.6 683.5537,119.8875 Q682.3912,119.325 681.5663,118.1062 Q680.76,116.8875 680.76,115.4438 L680.76,114.1313 Q680.76,112.6313 681.4725,111.3188 Q682.2037,110.0063 683.46,109.3125 Q684.735,108.6 686.16,108.6 Q687.0225,108.6 687.7725,108.9 Q688.5225,109.2 689.16,109.8 Z "/><ellipse cx="710.04" cy="113.4" fill="#84BE84" rx="3.6" ry="3.6" style="stroke: #038048; stroke-width: 1.2;"/><text fill="#000000" font-family="sans-serif" font-size="14.4" lengthAdjust="spacingAndGlyphs" textLength="82.8" x="717.24" y="119.8922">SeResource</text><rect fill="#FFFFFF" height="20.5125" style="stroke: #000000; stroke-width: 1.2; stroke-dasharray: 2.0,2.0;" width="87.6" x="811.8" y="91.2"/><text fill="#000000" font-family="sans-serif" font-size="14.4" font-style="italic" lengthAdjust="spacingAndGlyphs" textLength="85.2" x="813" y="107.3484">CalypsoSam</text><line style="stroke: #D4AC0D; stroke-width: 1.7999999999999998;" x1="667.8" x2="894.6" y1="133.2" y2="133.2"/><line style="stroke: #D4AC0D; stroke-width: 1.7999999999999998;" x1="667.8" x2="894.6" y1="142.8" y2="142.8"/><ellipse cx="679.8" cy="156" fill="#84BE84" rx="3.6" ry="3.6" style="stroke: #038048; stroke-width: 1.2;"/><text fill="#000000" font-family="sans-serif" font-size="13.2" lengthAdjust="spacingAndGlyphs" textLength="76.8" x="690.6" y="161.3027">SeResource(</text><text fill="#FF0000" font-family="sans-serif" font-size="13.2" lengthAdjust="spacingAndGlyphs" textLength="117.6" x="767.4" y="161.3027">SeReader seReader</text><text fill="#000000" font-family="sans-serif" font-size="13.2" lengthAdjust="spacingAndGlyphs" textLength="3.6" x="885" y="161.3027">,</text><text fill="#000000" font-family="sans-serif" font-size="13.2" lengthAdjust="spacingAndGlyphs" textLength="108" x="690.6" y="177.9059">CalypsoSam sam);</text><!--MD5=[e4d4ea7db949ad9d239210033b878e09]
class PoSecuritySetting--><rect fill="#FEFECE" height="57.6" id="PoSecuritySetting" style="stroke: #D4AC0D; stroke-width: 1.7999999999999998;" width="199.2" x="424.8" y="111.6"/><ellipse cx="442.8" cy="130.8" fill="#ADD1B2" rx="13.2" ry="13.2" style="stroke: #ADD1B2; stroke-width: 1.2;"/><path d="M445.2,126.6 Q445.4437,126 445.725,125.7 Q446.0062,125.4 446.325,125.4 Q446.8875,125.4 447.2438,125.7375 Q447.6,126.075 447.6,126.8625 L447.6,128.7375 Q447.6,129.525 447.2625,129.8625 Q446.925,130.2 446.4,130.2 Q445.9313,130.2 445.6312,129.9938 Q445.3313,129.7875 445.2,129.2438 Q445.1438,128.8688 444.9375,128.6625 Q444.5625,128.2687 443.8875,128.0438 Q443.2125,127.8 442.5375,127.8 Q441.6937,127.8 440.9813,128.1375 Q440.2875,128.475 439.7438,129.225 Q439.2,129.975 439.2,131.0063 L439.2,132.1125 Q439.2,133.35 440.2125,134.175 Q441.225,135 443.025,135 Q444.0938,135 444.8438,134.7563 Q445.275,134.625 445.7625,134.1938 Q446.0813,133.95 446.25,133.875 Q446.4188,133.8 446.625,133.8 Q447.0188,133.8 447.3,134.1188 Q447.6,134.4188 447.6,134.85 Q447.6,135.2625 447.1875,135.75 Q446.5875,136.4625 445.6312,136.8563 Q444.375,137.4 442.8375,137.4 Q441.0375,137.4 439.5938,136.6875 Q438.4313,136.125 437.6063,134.9063 Q436.8,133.6875 436.8,132.2438 L436.8,130.9313 Q436.8,129.4313 437.5125,128.1188 Q438.2438,126.8062 439.5,126.1125 Q440.775,125.4 442.2,125.4 Q443.0625,125.4 443.8125,125.7 Q444.5625,126 445.2,126.6 Z "/><ellipse cx="465.6" cy="130.2" fill="#84BE84" rx="3.6" ry="3.6" style="stroke: #038048; stroke-width: 1.2;"/><text fill="#000000" font-family="sans-serif" font-size="14.4" font-weight="bold" lengthAdjust="spacingAndGlyphs" textLength="28.8" x="472.8" y="136.6922">final</text><text fill="#000000" font-family="sans-serif" font-size="14.4" lengthAdjust="spacingAndGlyphs" textLength="115.2" x="505.2" y="136.6922">PoSecuritySetting</text><line style="stroke: #D4AC0D; stroke-width: 1.7999999999999998;" x1="426" x2="622.8" y1="150" y2="150"/><line style="stroke: #D4AC0D; stroke-width: 1.7999999999999998;" x1="426" x2="622.8" y1="159.6" y2="159.6"/><!--MD5=[346f733d3079e77ece8ec0605238a57f]
class CalypsoPo--><rect fill="#FEFECE" height="207.0281" id="CalypsoPo" style="stroke: #D4AC0D; stroke-width: 1.7999999999999998;" width="290.4" x="45.6" y="258"/><ellipse cx="143.1" cy="277.2" fill="#ADD1B2" rx="13.2" ry="13.2" style="stroke: #ADD1B2; stroke-width: 1.2;"/><path d="M145.5,273 Q145.7438,272.4 146.025,272.1 Q146.3063,271.8 146.625,271.8 Q147.1875,271.8 147.5438,272.1375 Q147.9,272.475 147.9,273.2625 L147.9,275.1375 Q147.9,275.925 147.5625,276.2625 Q147.225,276.6 146.7,276.6 Q146.2313,276.6 145.9313,276.3938 Q145.6313,276.1875 145.5,275.6438 Q145.4438,275.2688 145.2375,275.0625 Q144.8625,274.6688 144.1875,274.4437 Q143.5125,274.2 142.8375,274.2 Q141.9938,274.2 141.2813,274.5375 Q140.5875,274.875 140.0438,275.625 Q139.5,276.375 139.5,277.4063 L139.5,278.5125 Q139.5,279.75 140.5125,280.575 Q141.525,281.4 143.325,281.4 Q144.3937,281.4 145.1437,281.1563 Q145.575,281.025 146.0625,280.5938 Q146.3813,280.35 146.55,280.275 Q146.7188,280.2 146.925,280.2 Q147.3188,280.2 147.6,280.5188 Q147.9,280.8187 147.9,281.25 Q147.9,281.6625 147.4875,282.15 Q146.8875,282.8625 145.9313,283.2562 Q144.675,283.8 143.1375,283.8 Q141.3375,283.8 139.8937,283.0875 Q138.7313,282.525 137.9063,281.3063 Q137.1,280.0875 137.1,278.6438 L137.1,277.3313 Q137.1,275.8313 137.8125,274.5188 Q138.5438,273.2063 139.8,272.5125 Q141.075,271.8 142.5,271.8 Q143.3625,271.8 144.1125,272.1 Q144.8625,272.4 145.5,273 Z "/><ellipse cx="173.7" cy="276.6" fill="#84BE84" rx="3.6" ry="3.6" style="stroke: #038048; stroke-width: 1.2;"/><text fill="#000000" font-family="sans-serif" font-size="14.4" lengthAdjust="spacingAndGlyphs" textLength="72" x="180.9" y="283.0922">CalypsoPo</text><line style="stroke: #D4AC0D; stroke-width: 1.7999999999999998;" x1="46.8" x2="334.8" y1="296.4" y2="296.4"/><line style="stroke: #D4AC0D; stroke-width: 1.7999999999999998;" x1="46.8" x2="334.8" y1="306" y2="306"/><polygon fill="#4177AF" points="58.8,314.4,54,321.6,63.6,321.6" style="stroke: #1963A0; stroke-width: 1.2;"/><text fill="#000000" font-family="sans-serif" font-size="13.2" lengthAdjust="spacingAndGlyphs" textLength="66" x="69.6" y="324.5027">CalypsoPo(</text><text fill="#FF0000" font-family="sans-serif" font-size="13.2" lengthAdjust="spacingAndGlyphs" textLength="188.4" x="135.6" y="324.5027">SeResponse selectionResponse</text><text fill="#000000" font-family="sans-serif" font-size="13.2" lengthAdjust="spacingAndGlyphs" textLength="4.8" x="324" y="324.5027">)</text><text fill="#000000" font-family="sans-serif" font-size="13.2" lengthAdjust="spacingAndGlyphs" textLength="0" x="73.2" y="341.1059"/><ellipse cx="58.8" cy="352.4063" fill="#84BE84" rx="3.6" ry="3.6" style="stroke: #038048; stroke-width: 1.2;"/><text fill="#000000" font-family="sans-serif" font-size="13.2" font-weight="bold" lengthAdjust="spacingAndGlyphs" textLength="27.6" x="69.6" y="357.709">final</text><text fill="#000000" font-family="sans-serif" font-size="13.2" lengthAdjust="spacingAndGlyphs" textLength="110.4" x="100.8" y="357.709">String getDfName()</text><ellipse cx="58.8" cy="369.0094" fill="#84BE84" rx="3.6" ry="3.6" style="stroke: #038048; stroke-width: 1.2;"/><text fill="#000000" font-family="sans-serif" font-size="13.2" font-weight="bold" lengthAdjust="spacingAndGlyphs" textLength="27.6" x="69.6" y="374.3121">final</text><text fill="#000000" font-family="sans-serif" font-size="13.2" lengthAdjust="spacingAndGlyphs" textLength="205.2" x="100.8" y="374.3121">String getApplicationSerialNumber()</text><ellipse cx="58.8" cy="385.6125" fill="#84BE84" rx="3.6" ry="3.6" style="stroke: #038048; stroke-width: 1.2;"/><text fill="#000000" font-family="sans-serif" font-size="13.2" font-weight="bold" lengthAdjust="spacingAndGlyphs" textLength="27.6" x="69.6" y="390.9152">final</text><text fill="#000000" font-family="sans-serif" font-size="13.2" lengthAdjust="spacingAndGlyphs" textLength="128.4" x="100.8" y="390.9152">String getStartupInfo()</text><text fill="#000000" font-family="sans-serif" font-size="13.2" lengthAdjust="spacingAndGlyphs" textLength="0" x="73.2" y="407.5184"/><ellipse cx="58.8" cy="418.8187" fill="#84BE84" rx="3.6" ry="3.6" style="stroke: #038048; stroke-width: 1.2;"/><text fill="#000000" font-family="sans-serif" font-size="13.2" font-weight="bold" lengthAdjust="spacingAndGlyphs" textLength="27.6" x="69.6" y="424.1215">final</text><text fill="#000000" font-family="sans-serif" font-size="13.2" lengthAdjust="spacingAndGlyphs" textLength="0" x="100.8" y="424.1215"/><text fill="#4169E1" font-family="sans-serif" font-size="13.2" font-style="italic" font-weight="bold" lengthAdjust="spacingAndGlyphs" textLength="106.8" x="100.8" y="424.1215">boolean is_Xxx()</text><text fill="#000000" font-family="sans-serif" font-size="13.2" lengthAdjust="spacingAndGlyphs" textLength="0" x="73.2" y="440.7246"/><ellipse cx="58.8" cy="452.025" fill="#84BE84" rx="3.6" ry="3.6" style="stroke: #038048; stroke-width: 1.2;"/><text fill="#000000" font-family="sans-serif" font-size="13.2" font-weight="bold" lengthAdjust="spacingAndGlyphs" textLength="27.6" x="69.6" y="457.3277">final</text><text fill="#000000" font-family="sans-serif" font-size="13.2" lengthAdjust="spacingAndGlyphs" textLength="0" x="100.8" y="457.3277"/><text fill="#4169E1" font-family="sans-serif" font-size="13.2" font-style="italic" font-weight="bold" lengthAdjust="spacingAndGlyphs" textLength="115.2" x="100.8" y="457.3277">Xxx getData_Xxx()</text><!--MD5=[8eb5cec01ad571a9feeff1db4f73a667]
class PoTransaction--><rect fill="#FEFECE" height="173.8219" id="PoTransaction" style="stroke: #D4AC0D; stroke-width: 1.7999999999999998;" width="517.2" x="378.6" y="274.8"/><ellipse cx="577.5" cy="294" fill="#ADD1B2" rx="13.2" ry="13.2" style="stroke: #ADD1B2; stroke-width: 1.2;"/><path d="M579.9,289.8 Q580.1438,289.2 580.425,288.9 Q580.7063,288.6 581.025,288.6 Q581.5875,288.6 581.9438,288.9375 Q582.3,289.275 582.3,290.0625 L582.3,291.9375 Q582.3,292.725 581.9625,293.0625 Q581.625,293.4 581.1,293.4 Q580.6313,293.4 580.3313,293.1937 Q580.0313,292.9875 579.9,292.4437 Q579.8438,292.0687 579.6375,291.8625 Q579.2625,291.4688 578.5875,291.2438 Q577.9125,291 577.2375,291 Q576.3938,291 575.6813,291.3375 Q574.9875,291.675 574.4438,292.425 Q573.9,293.175 573.9,294.2063 L573.9,295.3125 Q573.9,296.55 574.9125,297.375 Q575.925,298.2 577.725,298.2 Q578.7937,298.2 579.5437,297.9563 Q579.975,297.825 580.4625,297.3938 Q580.7813,297.15 580.95,297.075 Q581.1188,297 581.325,297 Q581.7188,297 582,297.3187 Q582.3,297.6188 582.3,298.05 Q582.3,298.4625 581.8875,298.95 Q581.2875,299.6625 580.3313,300.0563 Q579.075,300.6 577.5375,300.6 Q575.7375,300.6 574.2937,299.8875 Q573.1313,299.325 572.3063,298.1063 Q571.5,296.8875 571.5,295.4437 L571.5,294.1312 Q571.5,292.6312 572.2125,291.3187 Q572.9438,290.0062 574.2,289.3125 Q575.475,288.6 576.9,288.6 Q577.7625,288.6 578.5125,288.9 Q579.2625,289.2 579.9,289.8 Z "/><ellipse cx="608.1" cy="293.4" fill="#84BE84" rx="3.6" ry="3.6" style="stroke: #038048; stroke-width: 1.2;"/><text fill="#000000" font-family="sans-serif" font-size="14.4" lengthAdjust="spacingAndGlyphs" textLength="96" x="615.3" y="299.8922">PoTransaction</text><line style="stroke: #D4AC0D; stroke-width: 1.7999999999999998;" x1="379.8" x2="894.6" y1="313.2" y2="313.2"/><line style="stroke: #D4AC0D; stroke-width: 1.7999999999999998;" x1="379.8" x2="894.6" y1="322.8" y2="322.8"/><ellipse cx="391.8" cy="336" fill="#84BE84" rx="3.6" ry="3.6" style="stroke: #038048; stroke-width: 1.2;"/><text fill="#000000" font-family="sans-serif" font-size="13.2" lengthAdjust="spacingAndGlyphs" textLength="486" x="402.6" y="341.3027">PoTransaction(SeResource&lt;CalypsoPo&gt; po, PoSecuritySetting[0..1] securitySetting)</text><text fill="#000000" font-family="sans-serif" font-size="13.2" lengthAdjust="spacingAndGlyphs" textLength="0" x="406.2" y="357.9059"/><ellipse cx="391.8" cy="369.2063" fill="#84BE84" rx="3.6" ry="3.6" style="stroke: #038048; stroke-width: 1.2;"/><text fill="#000000" font-family="sans-serif" font-size="13.2" font-weight="bold" lengthAdjust="spacingAndGlyphs" textLength="27.6" x="402.6" y="374.509">final</text><text fill="#000000" font-family="sans-serif" font-size="13.2" lengthAdjust="spacingAndGlyphs" textLength="0" x="433.8" y="374.509"/><text fill="#4169E1" font-family="sans-serif" font-size="13.2" font-style="italic" font-weight="bold" lengthAdjust="spacingAndGlyphs" textLength="157.2" x="433.8" y="374.509">prepareCommand_Xxx()</text><text fill="#000000" font-family="sans-serif" font-size="13.2" lengthAdjust="spacingAndGlyphs" textLength="0" x="406.2" y="391.1121"/><ellipse cx="391.8" cy="402.4125" fill="#84BE84" rx="3.6" ry="3.6" style="stroke: #038048; stroke-width: 1.2;"/><text fill="#000000" font-family="sans-serif" font-size="13.2" font-weight="bold" lengthAdjust="spacingAndGlyphs" textLength="27.6" x="402.6" y="407.7152">final</text><text fill="#000000" font-family="sans-serif" font-size="13.2" lengthAdjust="spacingAndGlyphs" textLength="0" x="433.8" y="407.7152"/><text fill="#4169E1" font-family="sans-serif" font-size="13.2" font-style="italic" font-weight="bold" lengthAdjust="spacingAndGlyphs" textLength="218.4" x="433.8" y="407.7152">boolean processCommands_Xxx()</text><text fill="#000000" font-family="sans-serif" font-size="13.2" lengthAdjust="spacingAndGlyphs" textLength="0" x="406.2" y="424.3184"/><ellipse cx="391.8" cy="435.6188" fill="#84BE84" rx="3.6" ry="3.6" style="stroke: #038048; stroke-width: 1.2;"/><text fill="#000000" font-family="sans-serif" font-size="13.2" font-weight="bold" lengthAdjust="spacingAndGlyphs" textLength="27.6" x="402.6" y="440.9215">final</text><text fill="#000000" font-family="sans-serif" font-size="13.2" lengthAdjust="spacingAndGlyphs" textLength="0" x="433.8" y="440.9215"/><text fill="#4169E1" font-family="sans-serif" font-size="13.2" font-style="italic" font-weight="bold" lengthAdjust="spacingAndGlyphs" textLength="242.4" x="433.8" y="440.9215">Xxx_SecureData getXxx_SecureData()</text><!--MD5=[e4e6b0c197a4fe408c8d4c7214bc9356]
link PoResource to PoTransaction--><path d="M342.84,186.1824 C382.0164,209.3952 431.4744,238.7004 478.6104,266.6304 " fill="none" id="PoResource-&gt;PoTransaction" style="stroke: #A80036; stroke-width: 1.2;"/><polygon fill="#FFFFFF" points="492.1608,274.6596,488.4139,266.8596,479.7727,267.3182,483.5196,275.1183,492.1608,274.6596" style="stroke: #A80036; stroke-width: 1.2;"/><text fill="#000000" font-family="sans-serif" font-size="15.6" lengthAdjust="spacingAndGlyphs" textLength="8.4" x="345.762" y="211.2681">1</text><text fill="#000000" font-family="sans-serif" font-size="15.6" lengthAdjust="spacingAndGlyphs" textLength="8.4" x="468.3705" y="261.7083">1</text><!--MD5=[7ef23bb65cbd7f21990abf12f0f9fb41]
link PoSecuritySetting to PoTransaction--><path d="M538.686,169.3368 C550.6164,192.5004 568.3884,227.004 585.5676,260.3556 " fill="none" id="PoSecuritySetting-&gt;PoTransaction" style="stroke: #A80036; stroke-width: 1.2;"/><polygon fill="#FFFFFF" points="592.8744,274.542,593.8447,265.9432,586.2805,261.7404,585.3103,270.3391,592.8744,274.542" style="stroke: #A80036; stroke-width: 1.2;"/><text fill="#000000" font-family="sans-serif" font-size="15.6" lengthAdjust="spacingAndGlyphs" textLength="26.4" x="512.5507" y="194.9757">0..1</text><text fill="#000000" font-family="sans-serif" font-size="15.6" lengthAdjust="spacingAndGlyphs" textLength="8.4" x="579.4702" y="261.5786">1</text><!--MD5=[37dbed8b9216f61bc352547fd6848c07]
reverse link PoResource to CalypsoPo--><path d="M246.6816,201.2484 C240.528,218.7996 233.6112,238.5216 226.7964,257.9556 " fill="none" id="PoResource&lt;-CalypsoPo" style="stroke: #A80036; stroke-width: 1.2;"/><polygon fill="#FFFFFF" points="251.8728,186.4464,244.9609,191.6528,247.1084,200.0354,254.0203,194.829,251.8728,186.4464" style="stroke: #A80036; stroke-width: 1.2;"/><text fill="#000000" font-family="sans-serif" font-size="15.6" lengthAdjust="spacingAndGlyphs" textLength="8.4" x="240.2969" y="211.5742">1</text><text fill="#000000" font-family="sans-serif" font-size="15.6" lengthAdjust="spacingAndGlyphs" textLength="8.4" x="221.2283" y="244.8904">1</text><!--MD5=[a40139effe78355afd96e1fe38f816a4]
reverse link PoSecuritySetting to SamResource--><path d="M640.0788,140.4 C648.894,140.4 657.7092,140.4 666.5244,140.4 " fill="none" id="PoSecuritySetting&lt;-SamResource" style="stroke: #A80036; stroke-width: 1.2;"/><polygon fill="#FFFFFF" points="624.2112,140.4,631.4112,145.2,638.6112,140.4,631.4112,135.6,624.2112,140.4" style="stroke: #A80036; stroke-width: 1.2;"/><text fill="#000000" font-family="sans-serif" font-size="15.6" lengthAdjust="spacingAndGlyphs" textLength="8.4" x="638.4884" y="136.5579">1</text><text fill="#000000" font-family="sans-serif" font-size="15.6" lengthAdjust="spacingAndGlyphs" textLength="26.4" x="633.6154" y="158.0376">0..1</text><!--MD5=[4fae7473818f03b79e7e0ec0aa516fd0]
link PoResource to SamResource--><!--MD5=[e3e0924105533c5f87459e70f3379d92]
@startuml
skinparam ClassBorderColor #D4AC0D
skinparam stereotypeABorderColor #A9DCDF
skinparam stereotypeIBorderColor #B4A7E5
skinparam stereotypeCBorderColor #ADD1B2
skinparam stereotypeEBorderColor #EB93DF
skinparam shadowing false

skinparam StateBorderColor #D4AC0D
skinparam ActivityBorderColor #D4AC0D

skinparam ClassBackgroundColor<<red>> #FDEDEC
skinparam ClassBorderColor<<red>> #E74C3C
hide <<red>> stereotype
skinparam ClassBackgroundColor<<purple>> #F4ECF7
skinparam ClassBorderColor<<purple>> #8E44AD
hide <<purple>> stereotype
skinparam ClassBackgroundColor<<blue>> #EBF5FB
skinparam ClassBorderColor<<blue>> #3498DB
hide <<blue>> stereotype
skinparam ClassBackgroundColor<<green>> #EAFAF1
skinparam ClassBorderColor<<green>> #2ECC71
hide <<green>> stereotype

skinparam ClassBackgroundColor<<orange>> #FDF2E9
skinparam ClassBorderColor<<orange>> #E67E22
hide <<orange>> stereotype

skinparam ClassBackgroundColor<<grey>> #EAECEE
skinparam ClassBorderColor<<grey>> #2C3E50
hide <<grey>> stereotype

together {
  +class "SeResource<CalypsoPo>" as PoResource {
    +SeResource(<color:red>SeReader seReader</color>,
    CalypsoPo po);
  }

  +class "SeResource<CalypsoSam>" as SamResource {
    +SeResource(<color:red>SeReader seReader</color>,
    CalypsoSam sam);
  }

  +class "<b>final</b> PoSecuritySetting" as PoSecuritySetting {
  }

  +class CalypsoPo {
    ~CalypsoPo(<color:red>SeResponse selectionResponse</color>)

    +<b>final</b> String getDfName()
    +<b>final</b> String getApplicationSerialNumber()
    +<b>final</b> String getStartupInfo()

    +<b>final</b> <color:royalBlue><b><i>boolean is_Xxx()</i></b></color>

    +<b>final</b> <color:royalBlue><b><i>Xxx getData_Xxx()</i></b></color>
  }

  +class PoTransaction {
    +PoTransaction(SeResource<CalypsoPo> po, PoSecuritySetting[0..1] securitySetting)

    +<b>final</b> <color:royalBlue><b><i>prepareCommand_Xxx()</i></b></color>

    +<b>final</b> <color:royalBlue><b><i>boolean processCommands_Xxx()</i></b></color>

    +<b>final</b> <color:royalBlue><b><i>Xxx_SecureData getXxx_SecureData()</i></b></color>
  }

  PoTransaction "1" o-up- "1" PoResource
  PoTransaction "1" o-up- "0..1" PoSecuritySetting
  PoResource "1" o-down- "1" CalypsoPo
  SamResource "0..1 " -right-o " 1" PoSecuritySetting
  PoResource -right[hidden]- SamResource
}
@enduml

PlantUML version 1.2020.09(Sun May 10 14:51:06 MUT 2020)
(GPL source distribution)
Java Runtime: OpenJDK Runtime Environment
JVM: OpenJDK 64-Bit Server VM
Java Version: 11.0.7+10-b765.64
Operating System: Windows 10
Default Encoding: Cp1252
Language: fr
Country: FR
--></g></svg>