<?xml version="1.0" encoding="UTF-8" standalone="no"?><svg xmlns="http://www.w3.org/2000/svg" xmlns:xlink="http://www.w3.org/1999/xlink" contentScriptType="application/ecmascript" contentStyleType="text/css" height="1089px" preserveAspectRatio="none" style="width:1294px;height:1089px;" version="1.1" viewBox="0 0 1294 1089" width="1294px" zoomAndPan="magnify"><defs/><g><!--MD5=[51ec0a53efb936c50f40e088b2e2e6a8]
cluster org.eclipse.keyple.seproxy--><polygon fill="#FFFFFF" points="22,24,217,24,224,47.6094,1272,47.6094,1272,1077,22,1077,22,24" style="stroke: #000000; stroke-width: 1.5;"/><line style="stroke: #000000; stroke-width: 1.5;" x1="22" x2="224" y1="47.6094" y2="47.6094"/><text fill="#000000" font-family="sans-serif" font-size="14" font-weight="bold" lengthAdjust="spacingAndGlyphs" textLength="189" x="26" y="40.5332">org.eclipse.keyple.seproxy</text><!--MD5=[88851b7b27e529b39ff5d3ce6ae79142]
cluster message--><polygon fill="#FFFFFF" points="378,68,447,68,454,91.6094,1248,91.6094,1248,1053,378,1053,378,68" style="stroke: #000000; stroke-width: 1.5;"/><line style="stroke: #000000; stroke-width: 1.5;" x1="378" x2="454" y1="91.6094" y2="91.6094"/><text fill="#000000" font-family="sans-serif" font-size="14" font-weight="bold" lengthAdjust="spacingAndGlyphs" textLength="63" x="382" y="84.5332">message</text><!--MD5=[233c6f1f7c69be3daec88cbd55acc2d5]
class SeSelector--><rect fill="#FEFECE" height="131.0156" id="SeSelector" style="stroke: #D4AC0D; stroke-width: 1.5;" width="323" x="38.5" y="173.5"/><ellipse cx="160.25" cy="189.5" fill="#ADD1B2" rx="11" ry="11" style="stroke: #ADD1B2; stroke-width: 1.0;"/><path d="M162.25,186 Q162.4531,185.5 162.6875,185.25 Q162.9219,185 163.1875,185 Q163.6563,185 163.9531,185.2813 Q164.25,185.5625 164.25,186.2188 L164.25,187.7813 Q164.25,188.4375 163.9688,188.7188 Q163.6875,189 163.25,189 Q162.8594,189 162.6094,188.8281 Q162.3594,188.6563 162.25,188.2031 Q162.2031,187.8906 162.0313,187.7188 Q161.7188,187.3906 161.1563,187.2031 Q160.5938,187 160.0313,187 Q159.3281,187 158.7344,187.2813 Q158.1563,187.5625 157.7031,188.1875 Q157.25,188.8125 157.25,189.6719 L157.25,190.5938 Q157.25,191.625 158.0938,192.3125 Q158.9375,193 160.4375,193 Q161.3281,193 161.9531,192.7969 Q162.3125,192.6875 162.7188,192.3281 Q162.9844,192.125 163.125,192.0625 Q163.2656,192 163.4375,192 Q163.7656,192 164,192.2656 Q164.25,192.5156 164.25,192.875 Q164.25,193.2188 163.9063,193.625 Q163.4063,194.2188 162.6094,194.5469 Q161.5625,195 160.2813,195 Q158.7813,195 157.5781,194.4063 Q156.6094,193.9375 155.9219,192.9219 Q155.25,191.9063 155.25,190.7031 L155.25,189.6094 Q155.25,188.3594 155.8438,187.2656 Q156.4531,186.1719 157.5,185.5938 Q158.5625,185 159.75,185 Q160.4688,185 161.0938,185.25 Q161.7188,185.5 162.25,186 Z "/><ellipse cx="185.75" cy="189" fill="#84BE84" rx="3" ry="3" style="stroke: #038048; stroke-width: 1.0;"/><text fill="#000000" font-family="sans-serif" font-size="12" lengthAdjust="spacingAndGlyphs" textLength="60" x="191.75" y="194.4102">SeSelector</text><line style="stroke: #D4AC0D; stroke-width: 1.5;" x1="39.5" x2="360.5" y1="205.5" y2="205.5"/><line style="stroke: #D4AC0D; stroke-width: 1.5;" x1="39.5" x2="360.5" y1="213.5" y2="213.5"/><ellipse cx="49.5" cy="224.5" fill="#84BE84" rx="3" ry="3" style="stroke: #038048; stroke-width: 1.0;"/><text fill="#000000" font-family="sans-serif" font-size="11" lengthAdjust="spacingAndGlyphs" textLength="297" x="58.5" y="228.9189">SeSelector(SeProtocol[0..1] seProtocol, AtrFilter[0..1] atrFilter,</text><text fill="#000000" font-family="sans-serif" font-size="11" lengthAdjust="spacingAndGlyphs" textLength="141" x="58.5" y="242.7549">AidSelector[0..1] aidSelector)</text><text fill="#000000" font-family="sans-serif" font-size="11" lengthAdjust="spacingAndGlyphs" textLength="0" x="61.5" y="256.5908"/><ellipse cx="49.5" cy="266.0078" fill="#84BE84" rx="3" ry="3" style="stroke: #038048; stroke-width: 1.0;"/><text fill="#000000" font-family="sans-serif" font-size="11" lengthAdjust="spacingAndGlyphs" textLength="130" x="58.5" y="270.4268">SeProtocol getSeProtocol()</text><ellipse cx="49.5" cy="279.8438" fill="#84BE84" rx="3" ry="3" style="stroke: #038048; stroke-width: 1.0;"/><text fill="#000000" font-family="sans-serif" font-size="11" lengthAdjust="spacingAndGlyphs" textLength="102" x="58.5" y="284.2627">AtrFilter getAtrFilter()</text><ellipse cx="49.5" cy="293.6797" fill="#84BE84" rx="3" ry="3" style="stroke: #038048; stroke-width: 1.0;"/><text fill="#000000" font-family="sans-serif" font-size="11" lengthAdjust="spacingAndGlyphs" textLength="138" x="58.5" y="298.0986">AidSelector getAidSelector()</text><!--MD5=[ee0d3336d8d2c9dd88a5ad188defe636]
class ChannelControl--><rect fill="#FEFECE" height="75.6719" id="ChannelControl" style="stroke: #D4AC0D; stroke-width: 1.5;" width="130" x="232" y="441.5"/><ellipse cx="247" cy="457.5" fill="#EB937F" rx="11" ry="11" style="stroke: #EB93DF; stroke-width: 1.0;"/><path d="M245.5,458.5 L245.5,460.5 L249.5,460.5 L249.5,459.5 L249.5,459.0156 L250.125,458.5 L250.5,458.5 L250.875,458.5 L251.5,459.0156 L251.5,459.5 L251.5,462.5 L243.5,462.5 L243.0156,462.5 L242.5,461.875 L242.5,461.5 L242.5,461.125 L243.0156,460.5 L243.5,460.5 L243.5,460.5 L243.5,454.5 L243.5,454.5 L243.0156,454.5 L242.5,453.875 L242.5,453.5 L242.5,453.125 L243.0156,452.5 L243.5,452.5 L251.5,452.5 L251.5,455.5 L251.5,455.9844 L250.875,456.5 L250.5,456.5 L250.125,456.5 L249.5,455.9844 L249.5,455.5 L249.5,454.5 L245.5,454.5 L245.5,456.5 L246.5,456.5 L246.5,456.0156 L246.5,456.0156 L247.125,455.5 L247.5,455.5 L247.875,455.5 L248.5,456.0156 L248.5,456.5 L248.5,458.5 L248.5,458.9844 L247.875,459.5 L247.875,459.5 L247.5,459.5 L247.125,459.5 L246.5,458.9844 L246.5,458.9844 L246.5,458.5 L245.5,458.5 Z "/><ellipse cx="266" cy="457" fill="#84BE84" rx="3" ry="3" style="stroke: #038048; stroke-width: 1.0;"/><text fill="#000000" font-family="sans-serif" font-size="12" lengthAdjust="spacingAndGlyphs" textLength="87" x="272" y="462.4102">ChannelControl</text><line style="stroke: #D4AC0D; stroke-width: 1.5;" x1="233" x2="361" y1="473.5" y2="473.5"/><text fill="#000000" font-family="sans-serif" font-size="11" lengthAdjust="spacingAndGlyphs" textLength="58" x="238" y="488.9189">KEEP_OPEN</text><text fill="#000000" font-family="sans-serif" font-size="11" lengthAdjust="spacingAndGlyphs" textLength="73" x="238" y="502.7549">CLOSE_AFTER</text><line style="stroke: #D4AC0D; stroke-width: 1.5;" x1="233" x2="361" y1="509.1719" y2="509.1719"/><!--MD5=[17146a741b3becbcb08fff440a5eba97]
class SelectionStatus--><rect fill="#FEFECE" height="153.0391" id="SelectionStatus" style="stroke: #D4AC0D; stroke-width: 1.5;" width="399" x="648.5" y="884"/><ellipse cx="795.25" cy="904.0938" fill="#ADD1B2" rx="11" ry="11" style="stroke: #ADD1B2; stroke-width: 1.0;"/><path d="M797.25,900.5938 Q797.4531,900.0938 797.6875,899.8438 Q797.9219,899.5938 798.1875,899.5938 Q798.6563,899.5938 798.9531,899.875 Q799.25,900.1563 799.25,900.8125 L799.25,902.375 Q799.25,903.0313 798.9688,903.3125 Q798.6875,903.5938 798.25,903.5938 Q797.8594,903.5938 797.6094,903.4219 Q797.3594,903.25 797.25,902.7969 Q797.2031,902.4844 797.0313,902.3125 Q796.7188,901.9844 796.1563,901.7969 Q795.5938,901.5938 795.0313,901.5938 Q794.3281,901.5938 793.7344,901.875 Q793.1563,902.1563 792.7031,902.7813 Q792.25,903.4063 792.25,904.2656 L792.25,905.1875 Q792.25,906.2188 793.0938,906.9063 Q793.9375,907.5938 795.4375,907.5938 Q796.3281,907.5938 796.9531,907.3906 Q797.3125,907.2813 797.7188,906.9219 Q797.9844,906.7188 798.125,906.6563 Q798.2656,906.5938 798.4375,906.5938 Q798.7656,906.5938 799,906.8594 Q799.25,907.1094 799.25,907.4688 Q799.25,907.8125 798.9063,908.2188 Q798.4063,908.8125 797.6094,909.1406 Q796.5625,909.5938 795.2813,909.5938 Q793.7813,909.5938 792.5781,909 Q791.6094,908.5313 790.9219,907.5156 Q790.25,906.5 790.25,905.2969 L790.25,904.2031 Q790.25,902.9531 790.8438,901.8594 Q791.4531,900.7656 792.5,900.1875 Q793.5625,899.5938 794.75,899.5938 Q795.4688,899.5938 796.0938,899.8438 Q796.7188,900.0938 797.25,900.5938 Z "/><text fill="#000000" font-family="sans-serif" font-size="12" font-style="italic" lengthAdjust="spacingAndGlyphs" textLength="81" x="823.75" y="901.457">«Serializable»</text><ellipse cx="820.75" cy="911.1406" fill="#84BE84" rx="3" ry="3" style="stroke: #038048; stroke-width: 1.0;"/><text fill="#000000" font-family="sans-serif" font-size="12" lengthAdjust="spacingAndGlyphs" textLength="86" x="826.75" y="916.5508">SelectionStatus</text><line style="stroke: #D4AC0D; stroke-width: 1.5;" x1="649.5" x2="1046.5" y1="924.1875" y2="924.1875"/><rect fill="none" height="6" style="stroke: #C82930; stroke-width: 1.0;" width="6" x="656.5" y="932.1875"/><text fill="#000000" font-family="sans-serif" font-size="11" font-weight="bold" lengthAdjust="spacingAndGlyphs" textLength="23" x="668.5" y="939.6064">final</text><text fill="#000000" font-family="sans-serif" font-size="11" lengthAdjust="spacingAndGlyphs" textLength="43" x="694.5" y="939.6064">byte[] atr</text><rect fill="none" height="6" style="stroke: #C82930; stroke-width: 1.0;" width="6" x="656.5" y="946.0234"/><text fill="#000000" font-family="sans-serif" font-size="11" font-weight="bold" lengthAdjust="spacingAndGlyphs" textLength="23" x="668.5" y="953.4424">final</text><text fill="#000000" font-family="sans-serif" font-size="11" lengthAdjust="spacingAndGlyphs" textLength="90" x="694.5" y="953.4424">ApduResponse fci</text><rect fill="none" height="6" style="stroke: #C82930; stroke-width: 1.0;" width="6" x="656.5" y="959.8594"/><text fill="#000000" font-family="sans-serif" font-size="11" font-weight="bold" lengthAdjust="spacingAndGlyphs" textLength="23" x="668.5" y="967.2783">final</text><text fill="#000000" font-family="sans-serif" font-size="11" lengthAdjust="spacingAndGlyphs" textLength="92" x="694.5" y="967.2783">boolean isMatching</text><line style="stroke: #D4AC0D; stroke-width: 1.5;" x1="649.5" x2="1046.5" y1="973.6953" y2="973.6953"/><ellipse cx="659.5" cy="984.6953" fill="#84BE84" rx="3" ry="3" style="stroke: #038048; stroke-width: 1.0;"/><text fill="#000000" font-family="sans-serif" font-size="11" lengthAdjust="spacingAndGlyphs" textLength="373" x="668.5" y="989.1143">SelectionStatus(AnswerToReset atr, ApduResponse fci, boolean isMatching)</text><ellipse cx="659.5" cy="998.5313" fill="#84BE84" rx="3" ry="3" style="stroke: #038048; stroke-width: 1.0;"/><text fill="#000000" font-family="sans-serif" font-size="11" lengthAdjust="spacingAndGlyphs" textLength="121" x="668.5" y="1002.9502">AnswerToReset getAtr()</text><ellipse cx="659.5" cy="1012.3672" fill="#84BE84" rx="3" ry="3" style="stroke: #038048; stroke-width: 1.0;"/><text fill="#000000" font-family="sans-serif" font-size="11" lengthAdjust="spacingAndGlyphs" textLength="115" x="668.5" y="1016.7861">ApduResponse getFci()</text><ellipse cx="659.5" cy="1026.2031" fill="#84BE84" rx="3" ry="3" style="stroke: #038048; stroke-width: 1.0;"/><text fill="#000000" font-family="sans-serif" font-size="11" lengthAdjust="spacingAndGlyphs" textLength="108" x="668.5" y="1030.6221">boolean hasMatched()</text><!--MD5=[96a4004012a1c08588eb87adf87ec875]
class ProxyReader--><rect fill="#FEFECE" height="103.3438" id="ProxyReader" style="stroke: #D4AC0D; stroke-width: 1.5;" width="505" x="418.5" y="428"/><ellipse cx="625.25" cy="444" fill="#B4A7E5" rx="11" ry="11" style="stroke: #B4A7E5; stroke-width: 1.0;"/><path d="M626.25,441 L626.25,447 L628.25,447 L628.7344,447 L629.25,447.625 L629.25,448 L629.25,448.375 L628.7344,449 L628.25,449 L622.25,449 L621.7656,449 L621.25,448.375 L621.25,448 L621.25,447.625 L621.7656,447 L622.25,447 L624.25,447 L624.25,441 L622.25,441 L621.7656,441 L621.25,440.375 L621.25,440 L621.25,439.625 L621.7656,439 L622.25,439 L628.25,439 L628.7344,439 L629.25,439.625 L629.25,440 L629.25,440.375 L628.7344,441 L628.25,441 L626.25,441 Z "/><ellipse cx="650.75" cy="443.5" fill="#84BE84" rx="3" ry="3" style="stroke: #038048; stroke-width: 1.0;"/><text fill="#000000" font-family="sans-serif" font-size="12" font-style="italic" lengthAdjust="spacingAndGlyphs" textLength="72" x="656.75" y="448.9102">ProxyReader</text><line style="stroke: #D4AC0D; stroke-width: 1.5;" x1="419.5" x2="922.5" y1="460" y2="460"/><line style="stroke: #D4AC0D; stroke-width: 1.5;" x1="419.5" x2="922.5" y1="468" y2="468"/><ellipse cx="429.5" cy="479" fill="#84BE84" rx="3" ry="3" style="stroke: #038048; stroke-width: 1.0;"/><text fill="#000000" font-family="sans-serif" font-size="11" lengthAdjust="spacingAndGlyphs" textLength="388" x="438.5" y="483.4189">List&lt;SeResponse&gt; transmitSeRequests(List&lt;SeRequest&gt; seApplicationRequest,</text><text fill="#000000" font-family="sans-serif" font-size="11" lengthAdjust="spacingAndGlyphs" textLength="417" x="438.5" y="497.2549">MultiSeRequestProcessing multiSeRequestProcessing, ChannelControl channelControl)</text><text fill="#000000" font-family="sans-serif" font-size="11" lengthAdjust="spacingAndGlyphs" textLength="0" x="441.5" y="511.0908"/><ellipse cx="429.5" cy="520.5078" fill="#84BE84" rx="3" ry="3" style="stroke: #038048; stroke-width: 1.0;"/><text fill="#000000" font-family="sans-serif" font-size="11" lengthAdjust="spacingAndGlyphs" textLength="479" x="438.5" y="524.9268">SeResponse transmitSeRequest(SeRequest seApplicationRequest, ChannelControl channelControl)</text><!--MD5=[aac5a6cf7ecd97a8ea894835343aad05]
class SeRequest--><rect fill="#FEFECE" height="139.2031" id="SeRequest" style="stroke: #D4AC0D; stroke-width: 1.5;" width="367" x="452.5" y="169.5"/><ellipse cx="581.75" cy="189.5938" fill="#ADD1B2" rx="11" ry="11" style="stroke: #ADD1B2; stroke-width: 1.0;"/><path d="M583.75,186.0938 Q583.9531,185.5938 584.1875,185.3438 Q584.4219,185.0938 584.6875,185.0938 Q585.1563,185.0938 585.4531,185.375 Q585.75,185.6563 585.75,186.3125 L585.75,187.875 Q585.75,188.5313 585.4688,188.8125 Q585.1875,189.0938 584.75,189.0938 Q584.3594,189.0938 584.1094,188.9219 Q583.8594,188.75 583.75,188.2969 Q583.7031,187.9844 583.5313,187.8125 Q583.2188,187.4844 582.6563,187.2969 Q582.0938,187.0938 581.5313,187.0938 Q580.8281,187.0938 580.2344,187.375 Q579.6563,187.6563 579.2031,188.2813 Q578.75,188.9063 578.75,189.7656 L578.75,190.6875 Q578.75,191.7188 579.5938,192.4063 Q580.4375,193.0938 581.9375,193.0938 Q582.8281,193.0938 583.4531,192.8906 Q583.8125,192.7813 584.2188,192.4219 Q584.4844,192.2188 584.625,192.1563 Q584.7656,192.0938 584.9375,192.0938 Q585.2656,192.0938 585.5,192.3594 Q585.75,192.6094 585.75,192.9688 Q585.75,193.3125 585.4063,193.7188 Q584.9063,194.3125 584.1094,194.6406 Q583.0625,195.0938 581.7813,195.0938 Q580.2813,195.0938 579.0781,194.5 Q578.1094,194.0313 577.4219,193.0156 Q576.75,192 576.75,190.7969 L576.75,189.7031 Q576.75,188.4531 577.3438,187.3594 Q577.9531,186.2656 579,185.6875 Q580.0625,185.0938 581.25,185.0938 Q581.9688,185.0938 582.5938,185.3438 Q583.2188,185.5938 583.75,186.0938 Z "/><text fill="#000000" font-family="sans-serif" font-size="12" font-style="italic" lengthAdjust="spacingAndGlyphs" textLength="81" x="611.75" y="186.957">«Serializable»</text><ellipse cx="607.25" cy="196.6406" fill="#84BE84" rx="3" ry="3" style="stroke: #038048; stroke-width: 1.0;"/><text fill="#000000" font-family="sans-serif" font-size="12" font-weight="bold" lengthAdjust="spacingAndGlyphs" textLength="24" x="613.25" y="202.0508">final</text><text fill="#000000" font-family="sans-serif" font-size="12" lengthAdjust="spacingAndGlyphs" textLength="62" x="640.25" y="202.0508">SeRequest</text><line style="stroke: #D4AC0D; stroke-width: 1.5;" x1="453.5" x2="818.5" y1="209.6875" y2="209.6875"/><rect fill="none" height="6" style="stroke: #C82930; stroke-width: 1.0;" width="6" x="460.5" y="217.6875"/><text fill="#000000" font-family="sans-serif" font-size="11" font-weight="bold" lengthAdjust="spacingAndGlyphs" textLength="23" x="472.5" y="225.1064">final</text><text fill="#000000" font-family="sans-serif" font-size="11" lengthAdjust="spacingAndGlyphs" textLength="106" x="498.5" y="225.1064">Selector[0..1] selector</text><rect fill="none" height="6" style="stroke: #C82930; stroke-width: 1.0;" width="6" x="460.5" y="231.5234"/><text fill="#000000" font-family="sans-serif" font-size="11" font-weight="bold" lengthAdjust="spacingAndGlyphs" textLength="23" x="472.5" y="238.9424">final</text><text fill="#000000" font-family="sans-serif" font-size="11" lengthAdjust="spacingAndGlyphs" textLength="168" x="498.5" y="238.9424">List&lt;ApduRequest&gt; apduRequests</text><line style="stroke: #D4AC0D; stroke-width: 1.5;" x1="453.5" x2="818.5" y1="245.3594" y2="245.3594"/><ellipse cx="463.5" cy="256.3594" fill="#84BE84" rx="3" ry="3" style="stroke: #038048; stroke-width: 1.0;"/><text fill="#000000" font-family="sans-serif" font-size="11" lengthAdjust="spacingAndGlyphs" textLength="341" x="472.5" y="260.7783">SeRequest(Selector[0..1] selector, List&lt;ApduRequest&gt; apduRequests)</text><text fill="#000000" font-family="sans-serif" font-size="11" lengthAdjust="spacingAndGlyphs" textLength="0" x="475.5" y="274.6143"/><ellipse cx="463.5" cy="284.0313" fill="#84BE84" rx="3" ry="3" style="stroke: #038048; stroke-width: 1.0;"/><text fill="#000000" font-family="sans-serif" font-size="11" lengthAdjust="spacingAndGlyphs" textLength="132" x="472.5" y="288.4502">SeSelector getSeSelector()</text><ellipse cx="463.5" cy="297.8672" fill="#84BE84" rx="3" ry="3" style="stroke: #038048; stroke-width: 1.0;"/><text fill="#000000" font-family="sans-serif" font-size="11" lengthAdjust="spacingAndGlyphs" textLength="193" x="472.5" y="302.2861">List&lt;ApduRequest&gt; getApduRequests()</text><!--MD5=[5be80dcd0b79afe0527b7f5d314ff4a2]
class SeResponse--><rect fill="#FEFECE" height="194.5469" id="SeResponse" style="stroke: #D4AC0D; stroke-width: 1.5;" width="400" x="418" y="609"/><ellipse cx="558.25" cy="629.0938" fill="#ADD1B2" rx="11" ry="11" style="stroke: #ADD1B2; stroke-width: 1.0;"/><path d="M560.25,625.5938 Q560.4531,625.0938 560.6875,624.8438 Q560.9219,624.5938 561.1875,624.5938 Q561.6563,624.5938 561.9531,624.875 Q562.25,625.1563 562.25,625.8125 L562.25,627.375 Q562.25,628.0313 561.9688,628.3125 Q561.6875,628.5938 561.25,628.5938 Q560.8594,628.5938 560.6094,628.4219 Q560.3594,628.25 560.25,627.7969 Q560.2031,627.4844 560.0313,627.3125 Q559.7188,626.9844 559.1563,626.7969 Q558.5938,626.5938 558.0313,626.5938 Q557.3281,626.5938 556.7344,626.875 Q556.1563,627.1563 555.7031,627.7813 Q555.25,628.4063 555.25,629.2656 L555.25,630.1875 Q555.25,631.2188 556.0938,631.9063 Q556.9375,632.5938 558.4375,632.5938 Q559.3281,632.5938 559.9531,632.3906 Q560.3125,632.2813 560.7188,631.9219 Q560.9844,631.7188 561.125,631.6563 Q561.2656,631.5938 561.4375,631.5938 Q561.7656,631.5938 562,631.8594 Q562.25,632.1094 562.25,632.4688 Q562.25,632.8125 561.9063,633.2188 Q561.4063,633.8125 560.6094,634.1406 Q559.5625,634.5938 558.2813,634.5938 Q556.7813,634.5938 555.5781,634 Q554.6094,633.5313 553.9219,632.5156 Q553.25,631.5 553.25,630.2969 L553.25,629.2031 Q553.25,627.9531 553.8438,626.8594 Q554.4531,625.7656 555.5,625.1875 Q556.5625,624.5938 557.75,624.5938 Q558.4688,624.5938 559.0938,624.8438 Q559.7188,625.0938 560.25,625.5938 Z "/><text fill="#000000" font-family="sans-serif" font-size="12" font-style="italic" lengthAdjust="spacingAndGlyphs" textLength="81" x="593.75" y="626.457">«Serializable»</text><ellipse cx="583.75" cy="636.1406" fill="#84BE84" rx="3" ry="3" style="stroke: #038048; stroke-width: 1.0;"/><text fill="#000000" font-family="sans-serif" font-size="12" font-weight="bold" lengthAdjust="spacingAndGlyphs" textLength="24" x="589.75" y="641.5508">final</text><text fill="#000000" font-family="sans-serif" font-size="12" lengthAdjust="spacingAndGlyphs" textLength="73" x="616.75" y="641.5508">SeResponse</text><line style="stroke: #D4AC0D; stroke-width: 1.5;" x1="419" x2="817" y1="649.1875" y2="649.1875"/><rect fill="none" height="6" style="stroke: #C82930; stroke-width: 1.0;" width="6" x="426" y="657.1875"/><text fill="#000000" font-family="sans-serif" font-size="11" font-weight="bold" lengthAdjust="spacingAndGlyphs" textLength="23" x="438" y="664.6064">final</text><text fill="#000000" font-family="sans-serif" font-size="11" lengthAdjust="spacingAndGlyphs" textLength="155" x="464" y="664.6064">boolean channelPreviouslyOpen</text><rect fill="none" height="6" style="stroke: #C82930; stroke-width: 1.0;" width="6" x="426" y="671.0234"/><text fill="#000000" font-family="sans-serif" font-size="11" font-weight="bold" lengthAdjust="spacingAndGlyphs" textLength="23" x="438" y="678.4424">final</text><text fill="#000000" font-family="sans-serif" font-size="11" lengthAdjust="spacingAndGlyphs" textLength="144" x="464" y="678.4424">boolean logicalChannelIsOpen</text><rect fill="none" height="6" style="stroke: #C82930; stroke-width: 1.0;" width="6" x="426" y="684.8594"/><text fill="#000000" font-family="sans-serif" font-size="11" font-weight="bold" lengthAdjust="spacingAndGlyphs" textLength="23" x="438" y="692.2783">final</text><text fill="#000000" font-family="sans-serif" font-size="11" lengthAdjust="spacingAndGlyphs" textLength="152" x="464" y="692.2783">SelectionStatus selectionStatus</text><rect fill="none" height="6" style="stroke: #C82930; stroke-width: 1.0;" width="6" x="426" y="698.6953"/><text fill="#000000" font-family="sans-serif" font-size="11" font-weight="bold" lengthAdjust="spacingAndGlyphs" textLength="23" x="438" y="706.1143">final</text><text fill="#000000" font-family="sans-serif" font-size="11" lengthAdjust="spacingAndGlyphs" textLength="186" x="464" y="706.1143">List&lt;ApduResponse&gt; apduResponses</text><line style="stroke: #D4AC0D; stroke-width: 1.5;" x1="419" x2="817" y1="712.5313" y2="712.5313"/><ellipse cx="429" cy="723.5313" fill="#84BE84" rx="3" ry="3" style="stroke: #038048; stroke-width: 1.0;"/><text fill="#000000" font-family="sans-serif" font-size="11" lengthAdjust="spacingAndGlyphs" textLength="374" x="438" y="727.9502">SeResponse(boolean logicalChannelIsOpen, boolean channelPreviouslyOpen,</text><text fill="#000000" font-family="sans-serif" font-size="11" lengthAdjust="spacingAndGlyphs" textLength="348" x="438" y="741.7861">SelectionStatus selectionStatus, List&lt;ApduResponse&gt; apduResponses)</text><ellipse cx="429" cy="751.2031" fill="#84BE84" rx="3" ry="3" style="stroke: #038048; stroke-width: 1.0;"/><text fill="#000000" font-family="sans-serif" font-size="11" lengthAdjust="spacingAndGlyphs" textLength="186" x="438" y="755.6221">boolean wasChannelPreviouslyOpen()</text><ellipse cx="429" cy="765.0391" fill="#84BE84" rx="3" ry="3" style="stroke: #038048; stroke-width: 1.0;"/><text fill="#000000" font-family="sans-serif" font-size="11" lengthAdjust="spacingAndGlyphs" textLength="156" x="438" y="769.458">boolean isLogicalChannelOpen()</text><ellipse cx="429" cy="778.875" fill="#84BE84" rx="3" ry="3" style="stroke: #038048; stroke-width: 1.0;"/><text fill="#000000" font-family="sans-serif" font-size="11" lengthAdjust="spacingAndGlyphs" textLength="176" x="438" y="783.2939">SelectionStatus getSelectionStatus()</text><ellipse cx="429" cy="792.7109" fill="#84BE84" rx="3" ry="3" style="stroke: #038048; stroke-width: 1.0;"/><text fill="#000000" font-family="sans-serif" font-size="11" lengthAdjust="spacingAndGlyphs" textLength="211" x="438" y="797.1299">List&lt;ApduResponse&gt; getApduResponses()</text><!--MD5=[8d2debdbb32bf9c83697f345c4529e73]
class ApduRequest--><rect fill="#FEFECE" height="222.2188" id="ApduRequest" style="stroke: #D4AC0D; stroke-width: 1.5;" width="260" x="939" y="128"/><ellipse cx="1008.25" cy="148.0938" fill="#ADD1B2" rx="11" ry="11" style="stroke: #ADD1B2; stroke-width: 1.0;"/><path d="M1010.25,144.5938 Q1010.4531,144.0938 1010.6875,143.8438 Q1010.9219,143.5938 1011.1875,143.5938 Q1011.6563,143.5938 1011.9531,143.875 Q1012.25,144.1563 1012.25,144.8125 L1012.25,146.375 Q1012.25,147.0313 1011.9688,147.3125 Q1011.6875,147.5938 1011.25,147.5938 Q1010.8594,147.5938 1010.6094,147.4219 Q1010.3594,147.25 1010.25,146.7969 Q1010.2031,146.4844 1010.0313,146.3125 Q1009.7188,145.9844 1009.1563,145.7969 Q1008.5938,145.5938 1008.0313,145.5938 Q1007.3281,145.5938 1006.7344,145.875 Q1006.1563,146.1563 1005.7031,146.7813 Q1005.25,147.4063 1005.25,148.2656 L1005.25,149.1875 Q1005.25,150.2188 1006.0938,150.9063 Q1006.9375,151.5938 1008.4375,151.5938 Q1009.3281,151.5938 1009.9531,151.3906 Q1010.3125,151.2813 1010.7188,150.9219 Q1010.9844,150.7188 1011.125,150.6563 Q1011.2656,150.5938 1011.4375,150.5938 Q1011.7656,150.5938 1012,150.8594 Q1012.25,151.1094 1012.25,151.4688 Q1012.25,151.8125 1011.9063,152.2188 Q1011.4063,152.8125 1010.6094,153.1406 Q1009.5625,153.5938 1008.2813,153.5938 Q1006.7813,153.5938 1005.5781,153 Q1004.6094,152.5313 1003.9219,151.5156 Q1003.25,150.5 1003.25,149.2969 L1003.25,148.2031 Q1003.25,146.9531 1003.8438,145.8594 Q1004.4531,144.7656 1005.5,144.1875 Q1006.5625,143.5938 1007.75,143.5938 Q1008.4688,143.5938 1009.0938,143.8438 Q1009.7188,144.0938 1010.25,144.5938 Z "/><text fill="#000000" font-family="sans-serif" font-size="12" font-style="italic" lengthAdjust="spacingAndGlyphs" textLength="81" x="1044.75" y="145.457">«Serializable»</text><ellipse cx="1033.75" cy="155.1406" fill="#84BE84" rx="3" ry="3" style="stroke: #038048; stroke-width: 1.0;"/><text fill="#000000" font-family="sans-serif" font-size="12" font-weight="bold" lengthAdjust="spacingAndGlyphs" textLength="24" x="1039.75" y="160.5508">final</text><text fill="#000000" font-family="sans-serif" font-size="12" lengthAdjust="spacingAndGlyphs" textLength="75" x="1066.75" y="160.5508">ApduRequest</text><line style="stroke: #D4AC0D; stroke-width: 1.5;" x1="940" x2="1198" y1="168.1875" y2="168.1875"/><rect fill="none" height="6" style="stroke: #C82930; stroke-width: 1.0;" width="6" x="947" y="176.1875"/><text fill="#000000" font-family="sans-serif" font-size="11" lengthAdjust="spacingAndGlyphs" textLength="57" x="959" y="183.6064">byte[] bytes</text><rect fill="none" height="6" style="stroke: #C82930; stroke-width: 1.0;" width="6" x="947" y="190.0234"/><text fill="#000000" font-family="sans-serif" font-size="11" font-weight="bold" lengthAdjust="spacingAndGlyphs" textLength="23" x="959" y="197.4424">final</text><text fill="#000000" font-family="sans-serif" font-size="11" lengthAdjust="spacingAndGlyphs" textLength="71" x="985" y="197.4424">boolean case4</text><rect fill="none" height="6" style="stroke: #C82930; stroke-width: 1.0;" width="6" x="947" y="203.8594"/><text fill="#000000" font-family="sans-serif" font-size="11" font-weight="bold" lengthAdjust="spacingAndGlyphs" textLength="23" x="959" y="211.2783">final</text><text fill="#000000" font-family="sans-serif" font-size="11" lengthAdjust="spacingAndGlyphs" textLength="180" x="982" y="211.2783">Set&lt;Integer&gt; successfulStatusCodes</text><rect fill="none" height="6" style="stroke: #C82930; stroke-width: 1.0;" width="6" x="947" y="217.6953"/><text fill="#000000" font-family="sans-serif" font-size="11" lengthAdjust="spacingAndGlyphs" textLength="57" x="959" y="225.1143">String name</text><line style="stroke: #D4AC0D; stroke-width: 1.5;" x1="940" x2="1198" y1="231.5313" y2="231.5313"/><ellipse cx="950" cy="242.5313" fill="#84BE84" rx="3" ry="3" style="stroke: #038048; stroke-width: 1.0;"/><text fill="#000000" font-family="sans-serif" font-size="11" lengthAdjust="spacingAndGlyphs" textLength="211" x="959" y="246.9502">ApduRequest(byte[] buffer, boolean case4)</text><ellipse cx="950" cy="256.3672" fill="#84BE84" rx="3" ry="3" style="stroke: #038048; stroke-width: 1.0;"/><text fill="#000000" font-family="sans-serif" font-size="11" lengthAdjust="spacingAndGlyphs" textLength="142" x="959" y="260.7861">setName(&lt;final&gt; String name)</text><ellipse cx="950" cy="270.2031" fill="#84BE84" rx="3" ry="3" style="stroke: #038048; stroke-width: 1.0;"/><text fill="#000000" font-family="sans-serif" font-size="11" lengthAdjust="spacingAndGlyphs" textLength="234" x="959" y="274.6221">setSuccessfulStatusCodes(Set&lt;Integer&gt; codes)</text><text fill="#000000" font-family="sans-serif" font-size="11" lengthAdjust="spacingAndGlyphs" textLength="0" x="962" y="288.458"/><ellipse cx="950" cy="297.875" fill="#84BE84" rx="3" ry="3" style="stroke: #038048; stroke-width: 1.0;"/><text fill="#000000" font-family="sans-serif" font-size="11" lengthAdjust="spacingAndGlyphs" textLength="81" x="959" y="302.2939">byte[] getBytes()</text><ellipse cx="950" cy="311.7109" fill="#84BE84" rx="3" ry="3" style="stroke: #038048; stroke-width: 1.0;"/><text fill="#000000" font-family="sans-serif" font-size="11" lengthAdjust="spacingAndGlyphs" textLength="88" x="959" y="316.1299">boolean isCase4()</text><ellipse cx="950" cy="325.5469" fill="#84BE84" rx="3" ry="3" style="stroke: #038048; stroke-width: 1.0;"/><text fill="#000000" font-family="sans-serif" font-size="11" lengthAdjust="spacingAndGlyphs" textLength="81" x="959" y="329.9658">String getName()</text><ellipse cx="950" cy="339.3828" fill="#84BE84" rx="3" ry="3" style="stroke: #038048; stroke-width: 1.0;"/><text fill="#000000" font-family="sans-serif" font-size="11" lengthAdjust="spacingAndGlyphs" textLength="204" x="959" y="343.8018">Set&lt;Integer&gt; getSuccessfulStatusCodes()</text><!--MD5=[020bc233d237158d8be37d9dae17a65e]
class ApduResponse--><rect fill="#FEFECE" height="194.5469" id="ApduResponse" style="stroke: #D4AC0D; stroke-width: 1.5;" width="260" x="948" y="609"/><ellipse cx="1011.75" cy="629.0938" fill="#ADD1B2" rx="11" ry="11" style="stroke: #ADD1B2; stroke-width: 1.0;"/><path d="M1013.75,625.5938 Q1013.9531,625.0938 1014.1875,624.8438 Q1014.4219,624.5938 1014.6875,624.5938 Q1015.1563,624.5938 1015.4531,624.875 Q1015.75,625.1563 1015.75,625.8125 L1015.75,627.375 Q1015.75,628.0313 1015.4688,628.3125 Q1015.1875,628.5938 1014.75,628.5938 Q1014.3594,628.5938 1014.1094,628.4219 Q1013.8594,628.25 1013.75,627.7969 Q1013.7031,627.4844 1013.5313,627.3125 Q1013.2188,626.9844 1012.6563,626.7969 Q1012.0938,626.5938 1011.5313,626.5938 Q1010.8281,626.5938 1010.2344,626.875 Q1009.6563,627.1563 1009.2031,627.7813 Q1008.75,628.4063 1008.75,629.2656 L1008.75,630.1875 Q1008.75,631.2188 1009.5938,631.9063 Q1010.4375,632.5938 1011.9375,632.5938 Q1012.8281,632.5938 1013.4531,632.3906 Q1013.8125,632.2813 1014.2188,631.9219 Q1014.4844,631.7188 1014.625,631.6563 Q1014.7656,631.5938 1014.9375,631.5938 Q1015.2656,631.5938 1015.5,631.8594 Q1015.75,632.1094 1015.75,632.4688 Q1015.75,632.8125 1015.4063,633.2188 Q1014.9063,633.8125 1014.1094,634.1406 Q1013.0625,634.5938 1011.7813,634.5938 Q1010.2813,634.5938 1009.0781,634 Q1008.1094,633.5313 1007.4219,632.5156 Q1006.75,631.5 1006.75,630.2969 L1006.75,629.2031 Q1006.75,627.9531 1007.3438,626.8594 Q1007.9531,625.7656 1009,625.1875 Q1010.0625,624.5938 1011.25,624.5938 Q1011.9688,624.5938 1012.5938,624.8438 Q1013.2188,625.0938 1013.75,625.5938 Z "/><text fill="#000000" font-family="sans-serif" font-size="12" font-style="italic" lengthAdjust="spacingAndGlyphs" textLength="81" x="1053.75" y="626.457">«Serializable»</text><ellipse cx="1037.25" cy="636.1406" fill="#84BE84" rx="3" ry="3" style="stroke: #038048; stroke-width: 1.0;"/><text fill="#000000" font-family="sans-serif" font-size="12" font-weight="bold" lengthAdjust="spacingAndGlyphs" textLength="24" x="1043.25" y="641.5508">final</text><text fill="#000000" font-family="sans-serif" font-size="12" lengthAdjust="spacingAndGlyphs" textLength="86" x="1070.25" y="641.5508">ApduResponse</text><line style="stroke: #D4AC0D; stroke-width: 1.5;" x1="949" x2="1207" y1="649.1875" y2="649.1875"/><rect fill="none" height="6" style="stroke: #C82930; stroke-width: 1.0;" width="6" x="956" y="657.1875"/><text fill="#000000" font-family="sans-serif" font-size="11" font-weight="bold" lengthAdjust="spacingAndGlyphs" textLength="23" x="968" y="664.6064">final</text><text fill="#000000" font-family="sans-serif" font-size="11" lengthAdjust="spacingAndGlyphs" textLength="57" x="994" y="664.6064">byte[] bytes</text><rect fill="none" height="6" style="stroke: #C82930; stroke-width: 1.0;" width="6" x="956" y="671.0234"/><text fill="#000000" font-family="sans-serif" font-size="11" font-weight="bold" lengthAdjust="spacingAndGlyphs" textLength="23" x="968" y="678.4424">final</text><text fill="#000000" font-family="sans-serif" font-size="11" lengthAdjust="spacingAndGlyphs" textLength="95" x="994" y="678.4424">boolean successful</text><line style="stroke: #D4AC0D; stroke-width: 1.5;" x1="949" x2="1207" y1="684.8594" y2="684.8594"/><ellipse cx="959" cy="695.8594" fill="#84BE84" rx="3" ry="3" style="stroke: #038048; stroke-width: 1.0;"/><text fill="#000000" font-family="sans-serif" font-size="11" lengthAdjust="spacingAndGlyphs" textLength="143" x="968" y="700.2783">ApduResponse(byte[] buffer)</text><ellipse cx="959" cy="709.6953" fill="#84BE84" rx="3" ry="3" style="stroke: #038048; stroke-width: 1.0;"/><text fill="#000000" font-family="sans-serif" font-size="11" lengthAdjust="spacingAndGlyphs" textLength="234" x="968" y="714.1143">setSuccessfulStatusCodes(Set&lt;Integer&gt; codes)</text><text fill="#000000" font-family="sans-serif" font-size="11" lengthAdjust="spacingAndGlyphs" textLength="0" x="971" y="727.9502"/><ellipse cx="959" cy="737.3672" fill="#84BE84" rx="3" ry="3" style="stroke: #038048; stroke-width: 1.0;"/><text fill="#000000" font-family="sans-serif" font-size="11" lengthAdjust="spacingAndGlyphs" textLength="81" x="968" y="741.7861">byte[] getBytes()</text><ellipse cx="959" cy="751.2031" fill="#84BE84" rx="3" ry="3" style="stroke: #038048; stroke-width: 1.0;"/><text fill="#000000" font-family="sans-serif" font-size="11" lengthAdjust="spacingAndGlyphs" textLength="92" x="968" y="755.6221">byte[] getDataOut()</text><ellipse cx="959" cy="765.0391" fill="#84BE84" rx="3" ry="3" style="stroke: #038048; stroke-width: 1.0;"/><text fill="#000000" font-family="sans-serif" font-size="11" lengthAdjust="spacingAndGlyphs" textLength="93" x="968" y="769.458">int getStatusCode()</text><text fill="#000000" font-family="sans-serif" font-size="11" lengthAdjust="spacingAndGlyphs" textLength="0" x="971" y="783.2939"/><ellipse cx="959" cy="792.7109" fill="#84BE84" rx="3" ry="3" style="stroke: #038048; stroke-width: 1.0;"/><text fill="#000000" font-family="sans-serif" font-size="11" lengthAdjust="spacingAndGlyphs" textLength="112" x="968" y="797.1299">boolean isSuccessful()</text><!--MD5=[e4f572bf50eea03c248ac813cab70dad]
link SeRequest to ProxyReader--><path d="M646.076,308.664 C651.65,346.645 658.457,393.03 663.548,427.722 " fill="none" id="SeRequest-ProxyReader" style="stroke: #A80036; stroke-width: 1.0;"/><polygon fill="#000000" points="672,391,675,385,678,391,672,391" style="stroke: #000000; stroke-width: 1.0;"/><text fill="#000000" font-family="sans-serif" font-size="13" lengthAdjust="spacingAndGlyphs" textLength="35" x="659" y="407.4951">sends</text><text fill="#000000" font-family="sans-serif" font-size="13" lengthAdjust="spacingAndGlyphs" textLength="8" x="638.7026" y="330.1759">+</text><text fill="#000000" font-family="sans-serif" font-size="13" lengthAdjust="spacingAndGlyphs" textLength="7" x="655.0763" y="417.185">1</text><!--MD5=[0d7205b5e2e0e972f66009d5f5360eb0]
link ProxyReader to SeResponse--><path d="M659.04,531.275 C653.636,554.216 647.063,582.118 640.776,608.808 " fill="none" id="ProxyReader-SeResponse" style="stroke: #A80036; stroke-width: 1.0;"/><text fill="#000000" font-family="sans-serif" font-size="13" lengthAdjust="spacingAndGlyphs" textLength="47" x="651" y="575.4951">receives</text><polygon fill="#000000" points="670,584.3516,673,590.3516,676,584.3516,670,584.3516" style="stroke: #000000; stroke-width: 1.0;"/><text fill="#000000" font-family="sans-serif" font-size="13" lengthAdjust="spacingAndGlyphs" textLength="7" x="649.9626" y="552.8029">1</text><text fill="#000000" font-family="sans-serif" font-size="13" lengthAdjust="spacingAndGlyphs" textLength="8" x="634.2135" y="598.2419">+</text><!--MD5=[f2a189b9c1aaca94cfda8cb7f338ac73]
link SeRequest to ApduRequest--><path d="M831.631,239 C831.631,239 896.04,239 925.819,239 " fill="none" id="SeRequest-ApduRequest" style="stroke: #A80036; stroke-width: 1.0;"/><polygon fill="#A80036" points="938.893,239,929.893,235,933.893,239,929.893,243,938.893,239" style="stroke: #A80036; stroke-width: 1.0;"/><line style="stroke: #A80036; stroke-width: 1.0;" x1="933.893" x2="925.893" y1="239" y2="239"/><polygon fill="#FFFFFF" points="819.631,239,825.631,243,831.631,239,825.631,235,819.631,239" style="stroke: #A80036; stroke-width: 1.0;"/><text fill="#000000" font-family="sans-serif" font-size="13" lengthAdjust="spacingAndGlyphs" textLength="83" x="837.75" y="232.4951">apduRequests</text><text fill="#000000" font-family="sans-serif" font-size="13" lengthAdjust="spacingAndGlyphs" textLength="7" x="827.5256" y="236.1607">1</text><text fill="#000000" font-family="sans-serif" font-size="13" lengthAdjust="spacingAndGlyphs" textLength="5" x="925.8123" y="236.0117">*</text><!--MD5=[c5dba62ff8fe09e2ca6fe5dad33389aa]
link SeResponse to ApduResponse--><path d="M830.09,706.5 C830.09,706.5 901.752,706.5 934.513,706.5 " fill="none" id="SeResponse-ApduResponse" style="stroke: #A80036; stroke-width: 1.0;"/><polygon fill="#A80036" points="947.889,706.5,938.889,702.5,942.889,706.5,938.889,710.5,947.889,706.5" style="stroke: #A80036; stroke-width: 1.0;"/><line style="stroke: #A80036; stroke-width: 1.0;" x1="942.889" x2="934.889" y1="706.5" y2="706.5"/><polygon fill="#FFFFFF" points="818.09,706.5,824.09,710.5,830.09,706.5,824.09,702.5,818.09,706.5" style="stroke: #A80036; stroke-width: 1.0;"/><text fill="#000000" font-family="sans-serif" font-size="13" lengthAdjust="spacingAndGlyphs" textLength="93" x="836.5" y="699.9951">apduResponses</text><text fill="#000000" font-family="sans-serif" font-size="13" lengthAdjust="spacingAndGlyphs" textLength="22" x="825.676" y="720.2971">0..1</text><text fill="#000000" font-family="sans-serif" font-size="13" lengthAdjust="spacingAndGlyphs" textLength="5" x="934.808" y="703.5321">*</text><!--MD5=[cf6d4eff384307d1c7ad0d13fb142ba9]
link SeResponse to SelectionStatus--><path d="M714.3547,813.0731 C714.3547,813.0731 752.396,854.751 770.062,874.107 " fill="none" id="SeResponse-SelectionStatus" style="stroke: #A80036; stroke-width: 1.0;"/><polygon fill="#A80036" points="778.895,883.785,775.7825,874.4409,775.5244,880.0919,769.8735,879.8338,778.895,883.785" style="stroke: #A80036; stroke-width: 1.0;"/><line style="stroke: #A80036; stroke-width: 1.0;" x1="775.5244" x2="770.1315" y1="880.0919" y2="874.183"/><polygon fill="#FFFFFF" points="706.266,804.209,707.3557,811.3373,714.3547,813.0731,713.2651,805.9448,706.266,804.209" style="stroke: #A80036; stroke-width: 1.0;"/><text fill="#000000" font-family="sans-serif" font-size="13" lengthAdjust="spacingAndGlyphs" textLength="90" x="747" y="850.4951">selectionStatus</text><text fill="#000000" font-family="sans-serif" font-size="13" lengthAdjust="spacingAndGlyphs" textLength="7" x="705.2261" y="825.1651">1</text><text fill="#000000" font-family="sans-serif" font-size="13" lengthAdjust="spacingAndGlyphs" textLength="22" x="749.26" y="873.2206">0..1</text><!--MD5=[43f90dbc1ca35bf669626933a481bb8f]
link SelectionStatus to ApduResponse--><path d="M925.1944,874.9215 C925.1944,874.9215 962.577,833.964 980.925,813.86 " fill="none" id="SelectionStatus-ApduResponse" style="stroke: #A80036; stroke-width: 1.0;"/><polygon fill="#A80036" points="989.734,804.209,980.7127,808.1608,986.3637,807.9024,986.6222,813.5533,989.734,804.209" style="stroke: #A80036; stroke-width: 1.0;"/><line style="stroke: #A80036; stroke-width: 1.0;" x1="986.3637" x2="980.97" y1="807.9024" y2="813.811"/><polygon fill="#FFFFFF" points="917.105,883.785,924.1042,882.0497,925.1944,874.9215,918.1952,876.6568,917.105,883.785" style="stroke: #A80036; stroke-width: 1.0;"/><text fill="#000000" font-family="sans-serif" font-size="13" lengthAdjust="spacingAndGlyphs" textLength="13" x="957" y="850.4951">fci</text><text fill="#000000" font-family="sans-serif" font-size="13" lengthAdjust="spacingAndGlyphs" textLength="7" x="916.358" y="873.2206">1</text><text fill="#000000" font-family="sans-serif" font-size="13" lengthAdjust="spacingAndGlyphs" textLength="22" x="960.7544" y="825.1651">0..1</text><!--MD5=[854344858b4ac2f7ffb018d87b1fe644]
link SeRequest to SeSelector--><path d="M440.491,239 C440.491,239 396.11,239 374.987,239 " fill="none" id="SeRequest-SeSelector" style="stroke: #A80036; stroke-width: 1.0;"/><polygon fill="#A80036" points="361.731,239,370.731,243,366.731,239,370.731,235,361.731,239" style="stroke: #A80036; stroke-width: 1.0;"/><line style="stroke: #A80036; stroke-width: 1.0;" x1="366.731" x2="374.731" y1="239" y2="239"/><polygon fill="#FFFFFF" points="452.491,239,446.491,235,440.491,239,446.491,243,452.491,239" style="stroke: #A80036; stroke-width: 1.0;"/><text fill="#000000" font-family="sans-serif" font-size="13" lengthAdjust="spacingAndGlyphs" textLength="46" x="384" y="232.4951">selector</text><text fill="#000000" font-family="sans-serif" font-size="13" lengthAdjust="spacingAndGlyphs" textLength="7" x="437.6016" y="236.1607">1</text><text fill="#000000" font-family="sans-serif" font-size="13" lengthAdjust="spacingAndGlyphs" textLength="22" x="369.5579" y="252.8652">0..1</text><!--MD5=[54bf7d93c0d5a4ae5f90815e1c5319c6]
link ChannelControl to ProxyReader--><path d="M362.012,479.5 C380.821,479.5 399.629,479.5 418.438,479.5 " fill="none" id="ChannelControl-ProxyReader" style="stroke: #A80036; stroke-width: 1.0;"/><!--MD5=[cf2717ac6d5283b0c3c8a22e2cfc8cbf]
@startuml
skinparam ClassBorderColor #D4AC0D
skinparam stereotypeABorderColor #A9DCDF
skinparam stereotypeIBorderColor #B4A7E5
skinparam stereotypeCBorderColor #ADD1B2
skinparam stereotypeEBorderColor #EB93DF
skinparam shadowing false

skinparam ClassBackgroundColor<<red>> #FDEDEC
skinparam ClassBorderColor<<red>> #E74C3C
hide <<red>> stereotype
skinparam ClassBackgroundColor<<purple>> #F4ECF7
skinparam ClassBorderColor<<purple>> #8E44AD
hide <<purple>> stereotype
skinparam ClassBackgroundColor<<blue>> #EBF5FB
skinparam ClassBorderColor<<blue>> #3498DB
hide <<blue>> stereotype
skinparam ClassBackgroundColor<<green>> #EAFAF1
skinparam ClassBorderColor<<green>> #2ECC71
hide <<green>> stereotype
skinparam ClassBackgroundColor<<grey>> #EAECEE
skinparam ClassBorderColor<<grey>> #2C3E50
hide <<grey>> stereotype

package org.eclipse.keyple.seproxy #FFFFFF {

+class SeSelector {
  +SeSelector(SeProtocol[0..1] seProtocol, AtrFilter[0..1] atrFilter,
  AidSelector[0..1] aidSelector)

  +SeProtocol getSeProtocol()
  +AtrFilter getAtrFilter()
  +AidSelector getAidSelector()
}
+enum ChannelControl {
	KEEP_OPEN
	CLOSE_AFTER
}

  package message #FFFFFF {
    together {
+interface ProxyReader {
  +List<SeResponse> transmitSeRequests(List<SeRequest> seApplicationRequest,
    MultiSeRequestProcessing multiSeRequestProcessing, ChannelControl channelControl)

  +SeResponse transmitSeRequest(SeRequest seApplicationRequest, ChannelControl channelControl)
}
+class "<b>final</b> SeRequest" as SeRequest {
  -<b>final</b> Selector[0..1] selector
  -<b>final</b> List<ApduRequest> apduRequests

  +SeRequest(Selector[0..1] selector, List<ApduRequest> apduRequests)

  +SeSelector getSeSelector()
  +List<ApduRequest> getApduRequests()
}

+class "<b>final</b> SeResponse" as SeResponse {
  -<b>final</b> boolean channelPreviouslyOpen
  -<b>final</b> boolean logicalChannelIsOpen
  -<b>final</b> SelectionStatus selectionStatus
  -<b>final</b> List<ApduResponse> apduResponses

  +SeResponse(boolean logicalChannelIsOpen, boolean channelPreviouslyOpen,
    SelectionStatus selectionStatus, List<ApduResponse> apduResponses)
  +boolean wasChannelPreviouslyOpen()
  +boolean isLogicalChannelOpen()
  +SelectionStatus getSelectionStatus()
  +List<ApduResponse> getApduResponses()
}
+class "<b>final</b> ApduRequest" as ApduRequest {
  -byte[] bytes
  -<b>final</b> boolean case4
  -<b>final</b>Set<Integer> successfulStatusCodes
  -String name

  +ApduRequest(byte[] buffer, boolean case4)
  +setName(<final> String name)
  +setSuccessfulStatusCodes(Set<Integer> codes)

  +byte[] getBytes()
  +boolean isCase4()
  +String getName()
  +Set<Integer> getSuccessfulStatusCodes()
}

+class "<b>final</b> ApduResponse" as ApduResponse {
  -<b>final</b> byte[] bytes
  -<b>final</b> boolean successful

  +ApduResponse(byte[] buffer)
  +setSuccessfulStatusCodes(Set<Integer> codes)

  +byte[] getBytes()
  +byte[] getDataOut()
  +int getStatusCode()

  +boolean isSuccessful()
}
    }
+class SelectionStatus {
  -<b>final</b> byte[] atr
  -<b>final</b> ApduResponse fci
  -<b>final</b> boolean isMatching

  +SelectionStatus(AnswerToReset atr, ApduResponse fci, boolean isMatching)
  +AnswerToReset getAtr()
  +ApduResponse getFci()
  +boolean hasMatched()
}

    ProxyReader "1" -up- "+" SeRequest : sends >
    ProxyReader "1" -down- "+" SeResponse : receives >
    SeRequest "1" o-right-> "*" ApduRequest : apduRequests
    SeResponse "0..1" o-right-> "*" ApduResponse : apduResponses
    SeResponse "1" o-down-> "0..1" SelectionStatus : selectionStatus
    SelectionStatus "1" o- -> "0..1" ApduResponse : fci
  }

  SeSelector "0..1" <-right-o "1" SeRequest : selector
  ChannelControl -right- ProxyReader
}

    class SeRequest <<Serializable>>
    class SeResponse <<Serializable>>
    class ApduRequest <<Serializable>>
    class ApduResponse <<Serializable>>
    class SelectionStatus <<Serializable>>

@enduml

PlantUML version 1.2020.09(Sun May 10 14:51:06 MUT 2020)
(GPL source distribution)
Java Runtime: OpenJDK Runtime Environment
JVM: OpenJDK 64-Bit Server VM
Java Version: 11.0.6+8-b765.40
Operating System: Windows 10
Default Encoding: Cp1252
Language: fr
Country: FR
--></g></svg>