<?xml version="1.0" encoding="UTF-8" standalone="no"?><svg xmlns="http://www.w3.org/2000/svg" xmlns:xlink="http://www.w3.org/1999/xlink" contentScriptType="application/ecmascript" contentStyleType="text/css" height="719px" preserveAspectRatio="none" style="width:1351px;height:719px;" version="1.1" viewBox="0 0 1351 719" width="1351px" zoomAndPan="magnify"><defs/><g><!--MD5=[e492621730c6c9a1b92a9fcafcf3a8d9]
cluster SE_ObservationDisabled--><rect fill="#FEFECE" height="193" rx="12.5" ry="12.5" style="stroke: #D4AC0D; stroke-width: 1.5;" width="174" x="48" y="24"/><rect fill="#FFFFFF" height="139.2969" rx="12.5" ry="12.5" style="stroke: #FFFFFF; stroke-width: 1.0;" width="168" x="51" y="74.7031"/><line style="stroke: #D4AC0D; stroke-width: 1.5;" x1="48" x2="222" y1="71.7031" y2="71.7031"/><line style="stroke: #D4AC0D; stroke-width: 1.5;" x1="48" x2="222" y1="51.6094" y2="51.6094"/><text fill="#000000" font-family="sans-serif" font-size="14" lengthAdjust="spacingAndGlyphs" textLength="158" x="56" y="42.5332">SE_ObservationDisabled</text><text fill="#000000" font-family="sans-serif" font-size="12" lengthAdjust="spacingAndGlyphs" textLength="134" x="53" y="66.5664">number of observer == 0</text><!--MD5=[1f63e34000d331c93416f84ee164ac34]
cluster SE_ObservationActivated--><rect fill="#FEFECE" height="417" rx="12.5" ry="12.5" style="stroke: #D4AC0D; stroke-width: 1.5;" width="1070" x="30" y="291"/><rect fill="#FFFFFF" height="363.2969" rx="12.5" ry="12.5" style="stroke: #FFFFFF; stroke-width: 1.0;" width="1064" x="33" y="341.7031"/><line style="stroke: #D4AC0D; stroke-width: 1.5;" x1="30" x2="1100" y1="338.7031" y2="338.7031"/><line style="stroke: #D4AC0D; stroke-width: 1.5;" x1="30" x2="1100" y1="318.6094" y2="318.6094"/><text fill="#000000" font-family="sans-serif" font-size="14" lengthAdjust="spacingAndGlyphs" textLength="161" x="484.5" y="309.5332">SE_ObservationActivated</text><text fill="#000000" font-family="sans-serif" font-size="12" lengthAdjust="spacingAndGlyphs" textLength="127" x="35" y="333.5664">number of observer &gt; 0</text><ellipse cx="135" cy="90" fill="#000000" rx="10" ry="10" style="stroke: none; stroke-width: 1.0;"/><rect fill="#FEFECE" height="40" rx="12.5" ry="12.5" style="stroke: #D4AC0D; stroke-width: 1.5;" width="119" x="75.5" y="161"/><text fill="#000000" font-family="sans-serif" font-size="14" lengthAdjust="spacingAndGlyphs" textLength="109" x="80.5" y="186.7285">WaitForObserver</text><rect fill="#FEFECE" height="40" rx="12.5" ry="12.5" style="stroke: #D4AC0D; stroke-width: 1.5;" width="150" x="85" y="461"/><text fill="#000000" font-family="sans-serif" font-size="14" lengthAdjust="spacingAndGlyphs" textLength="140" x="90" y="486.7285">WaitForStartDetection</text><rect fill="#FEFECE" height="40" rx="12.5" ry="12.5" style="stroke: #D4AC0D; stroke-width: 1.5;" width="131" x="478.5" y="461"/><text fill="#000000" font-family="sans-serif" font-size="14" lengthAdjust="spacingAndGlyphs" textLength="121" x="483.5" y="486.7285">WaitForSeInsertion</text><rect fill="#FEFECE" height="40" rx="12.5" ry="12.5" style="stroke: #D4AC0D; stroke-width: 1.5;" width="147" x="620.5" y="644"/><text fill="#000000" font-family="sans-serif" font-size="14" lengthAdjust="spacingAndGlyphs" textLength="137" x="625.5" y="669.7285">WaitForSeProcessing</text><rect fill="#FEFECE" height="40" rx="12.5" ry="12.5" style="stroke: #D4AC0D; stroke-width: 1.5;" width="132" x="253" y="644"/><text fill="#000000" font-family="sans-serif" font-size="14" lengthAdjust="spacingAndGlyphs" textLength="122" x="258" y="669.7285">WaitForSeRemoval</text><!--MD5=[f645417660ba964249a87cd24ba2b7cd]
link *start*SE_ObservationDisabled to WaitForObserver--><path d="M135,100.189 C135,113.18 135,137.376 135,155.734 " fill="none" id="*start*SE_ObservationDisabled-&gt;WaitForObserver" style="stroke: #000000; stroke-width: 1.0;"/><polygon fill="#000000" points="135,160.743,139,151.743,135,155.743,131,151.743,135,160.743" style="stroke: #000000; stroke-width: 1.0;"/><!--MD5=[f2e10831cc9a25737cccb2043bcbba7d]
link WaitForStartDetection to WaitForSeInsertion--><path d="M235.408,481 C304.379,481 405.656,481 473.154,481 " fill="none" id="WaitForStartDetection-&gt;WaitForSeInsertion" style="stroke: #0000FF; stroke-width: 1.0;"/><polygon fill="#0000FF" points="478.36,481,469.36,477,473.36,481,469.36,485,478.36,481" style="stroke: #0000FF; stroke-width: 1.0;"/><text fill="#000000" font-family="sans-serif" font-size="13" lengthAdjust="spacingAndGlyphs" textLength="176" x="268.75" y="474.4951">startSeDetection(PollingMode)</text><!--MD5=[992ba655eaf93782ef94c02e89306d3d]
link WaitForSeInsertion to WaitForSeProcessing--><path d="M536.933,501.181 C528.042,528.952 516.677,580.671 541,614 C558.258,637.6491 587.087,650.1426 615.095,656.6528 " fill="none" id="WaitForSeInsertion-&gt;WaitForSeProcessing" style="stroke: #FF0000; stroke-width: 1.0;"/><polygon fill="#FF0000" points="620.313,657.8001,612.3826,651.9599,615.4298,656.7259,610.6638,659.7731,620.313,657.8001" style="stroke: #FF0000; stroke-width: 1.0;"/><text fill="#000000" font-family="sans-serif" font-size="13" lengthAdjust="spacingAndGlyphs" textLength="117" x="578.5" y="569.9951">notifies 'SE inserted'</text><text fill="#000000" font-family="sans-serif" font-size="13" lengthAdjust="spacingAndGlyphs" textLength="190" x="542" y="586.3467">&amp;&amp; (NotificationMode == always)</text><!--MD5=[992ba655eaf93782ef94c02e89306d3d]
link WaitForSeInsertion to WaitForSeProcessing--><path d="M609.681,490.023 C659.242,497.585 721.294,510.808 737,531 C759.649,560.117 750,579.478 737,614 C733.433,623.473 727.11,632.308 720.392,639.7941 " fill="none" id="WaitForSeInsertion-&gt;WaitForSeProcessing-1" style="stroke: #FF0000; stroke-width: 1.0;"/><polygon fill="#FF0000" points="716.634,643.8098,725.7038,639.9707,720.0501,640.1587,719.8621,634.505,716.634,643.8098" style="stroke: #FF0000; stroke-width: 1.0;"/><text fill="#000000" font-family="sans-serif" font-size="13" lengthAdjust="spacingAndGlyphs" textLength="121" x="751" y="577.9951">notifies 'SE matched'</text><!--MD5=[c072ffad7560f4297d8524ce01a65765]
link WaitForSeProcessing to WaitForSeInsertion--><path d="M767.547,653.0505 C813.617,645.1395 866.852,632.3329 881,614 C903.537,584.796 905.135,558.898 881,531 C847.293,492.038 703.296,483.415 614.796,481.881 " fill="none" id="WaitForSeProcessing-&gt;WaitForSeInsertion" style="stroke: #FFC0CB; stroke-width: 1.0;"/><polygon fill="#FFC0CB" points="609.574,481.797,618.5088,485.9405,614.5734,481.877,618.6369,477.9415,609.574,481.797" style="stroke: #FFC0CB; stroke-width: 1.0;"/><text fill="#000000" font-family="sans-serif" font-size="13" lengthAdjust="spacingAndGlyphs" textLength="119" x="907" y="545.4951">notifies 'SE removed'</text><text fill="#000000" font-family="sans-serif" font-size="13" lengthAdjust="spacingAndGlyphs" textLength="135" x="899" y="561.8467">&amp;&amp; (Observable Reader</text><text fill="#000000" font-family="sans-serif" font-size="13" lengthAdjust="spacingAndGlyphs" textLength="104" x="914.5" y="578.1982">with the capability</text><text fill="#000000" font-family="sans-serif" font-size="13" lengthAdjust="spacingAndGlyphs" textLength="121" x="906" y="594.5498">to detect the removal</text><text fill="#000000" font-family="sans-serif" font-size="13" lengthAdjust="spacingAndGlyphs" textLength="69" x="932" y="610.9014">at any time)</text><!--MD5=[593e106eef62bf2c22c2a4af8a6c9e3d]
reverse link WaitForSeRemoval to WaitForSeProcessing--><path d="M390.267,664 C456.204,664 553.81,664 620.462,664 " fill="none" id="WaitForSeRemoval&lt;-WaitForSeProcessing" style="stroke: #0000FF; stroke-width: 1.0;"/><polygon fill="#0000FF" points="385.179,664,394.179,668,390.179,664,394.179,660,385.179,664" style="stroke: #0000FF; stroke-width: 1.0;"/><text fill="#000000" font-family="sans-serif" font-size="13" lengthAdjust="spacingAndGlyphs" textLength="117" x="444.25" y="657.4951">notifySeProcessed()</text><!--MD5=[d16b56604473427f1d6ff08eca48d2dd]
reverse link WaitForSeInsertion to WaitForSeRemoval--><path d="M473.108,489.642 C419.278,496.995 351.464,510.123 333,531 C305.366,562.245 309.81,615.294 314.785,643.6949 " fill="none" id="WaitForSeInsertion&lt;-WaitForSeRemoval" style="stroke: #FF0000; stroke-width: 1.0;"/><polygon fill="#FF0000" points="478.271,488.948,468.8186,486.1818,473.3155,489.6137,469.8837,494.1106,478.271,488.948" style="stroke: #FF0000; stroke-width: 1.0;"/><text fill="#000000" font-family="sans-serif" font-size="13" lengthAdjust="spacingAndGlyphs" textLength="119" x="366" y="569.9951">notifies 'SE removed'</text><text fill="#000000" font-family="sans-serif" font-size="13" lengthAdjust="spacingAndGlyphs" textLength="183" x="334" y="586.3467">&amp;&amp; (PollingMode == Repeating)</text><!--MD5=[468fcc5103ee613552758a9e57699ebf]
reverse link WaitForStartDetection to WaitForSeRemoval--><path d="M111.626,504.106 C101.3654,511.173 91.8699,520.073 86,531 C68.5429,563.497 62.7541,585.357 86,614 C106.708,639.5165 191.575,652.2388 252.914,658.2166 " fill="none" id="WaitForStartDetection&lt;-WaitForSeRemoval" style="stroke: #FF0000; stroke-width: 1.0;"/><polygon fill="#FF0000" points="116.062,501.188,106.3445,502.7913,111.8845,503.9354,110.7404,509.4753,116.062,501.188" style="stroke: #FF0000; stroke-width: 1.0;"/><text fill="#000000" font-family="sans-serif" font-size="13" lengthAdjust="spacingAndGlyphs" textLength="119" x="121.5" y="569.9951">notifies 'SE removed'</text><text fill="#000000" font-family="sans-serif" font-size="13" lengthAdjust="spacingAndGlyphs" textLength="188" x="87" y="586.3467">&amp;&amp; (PollingMode == SingleShot)</text><!--MD5=[1068d7540bf7bac1afc11ff209f6fa86]
reverse link WaitForObserver to SE_ObservationActivated--><path d="M126.056,205.76 C121.5683,217.6833 115.7759,233.0723 109.5922,249.5008 C106.5004,257.7151 103.3107,266.1892 100.1374,274.62 C98.5507,278.8354 96.9681,283.0399 95.4038,287.1957 C95.0128,288.2347 94.6229,289.2706 94.2343,290.3028 " fill="none" id="WaitForObserver&lt;-SE_ObservationActivated" style="stroke: #0000FF; stroke-width: 1.0;"/><polygon fill="#0000FF" points="127.83,201.049,120.9154,208.0625,126.0683,205.7284,128.4024,210.8812,127.83,201.049" style="stroke: #0000FF; stroke-width: 1.0;"/><text fill="#000000" font-family="sans-serif" font-size="13" lengthAdjust="spacingAndGlyphs" textLength="192" x="117" y="247.4951">removeObserver(ReaderObserver)</text><text fill="#000000" font-family="sans-serif" font-size="13" lengthAdjust="spacingAndGlyphs" textLength="127" x="149.5" y="263.8467">&amp;&amp; (nb observer == 0)</text><!--MD5=[136a2b1d08fde5b6a9585a9cd3ff408d]
link WaitForObserver to WaitForStartDetection--><path d="M194.899,191.299 C241.9,199.887 301.973,214.158 318,233 C370.151,294.313 333.549,332.631 338,413 C338.442,420.988 342.848,424.637 338,431 C325.633,447.231 281.537,459.438 240.332,467.608 " fill="none" id="WaitForObserver-&gt;WaitForStartDetection" style="stroke: #0000FF; stroke-width: 1.0;"/><polygon fill="#0000FF" points="235.323,468.584,244.9223,470.787,240.2305,467.6268,243.3908,462.935,235.323,468.584" style="stroke: #0000FF; stroke-width: 1.0;"/><text fill="#000000" font-family="sans-serif" font-size="13" lengthAdjust="spacingAndGlyphs" textLength="172" x="348" y="366.4951">addObserver(ReaderObserver)</text><!--MD5=[bfb50f0fd7e71ad7ae6d89b0b4872048]
link SE_ObservationActivated to SE_ObservationActivated--><path d="M1106,360.651 C1117.8752,346.001 1141.0816,346.117 1141.0816,361 C1141.0816,375.883 1117.8752,375.999 1106,361.349 " fill="none" id="SE_ObservationActivated-&gt;SE_ObservationActivated" style="stroke: #0000FF; stroke-width: 1.0;"/><polygon fill="#0000FF" points="1106,361.349,1108.5599,370.8593,1109.1485,365.2332,1114.7747,365.8217,1106,361.349" style="stroke: #0000FF; stroke-width: 1.0;"/><text fill="#000000" font-family="sans-serif" font-size="13" lengthAdjust="spacingAndGlyphs" textLength="192" x="1147.0816" y="358.4951">removeObserver(ReaderObserver)</text><text fill="#000000" font-family="sans-serif" font-size="13" lengthAdjust="spacingAndGlyphs" textLength="119" x="1183.5816" y="374.8467">&amp;&amp; (nb observer &gt; 0)</text><!--MD5=[8cf2aa29ed72b7d1a09e46f0fa619bdd]
link SE_ObservationActivated to WaitForStartDetection--><path d="M68.0667,362.086 C70.0483,364.627 115.727,423.215 141.935,456.829 " fill="none" id="SE_ObservationActivated-&gt;WaitForStartDetection" style="stroke: #0000FF; stroke-width: 1.0;"/><polygon fill="#0000FF" points="145.03,460.799,142.6521,451.2415,141.9562,456.8554,136.3424,456.1595,145.03,460.799" style="stroke: #0000FF; stroke-width: 1.0;"/><text fill="#000000" font-family="sans-serif" font-size="13" lengthAdjust="spacingAndGlyphs" textLength="104" x="121" y="427.4951">stopSeDetection()</text><!--MD5=[f4ca323ea8b544aebf8e618a5d98d9d3]
@startuml
skinparam ClassBorderColor #D4AC0D
skinparam stereotypeABorderColor #A9DCDF
skinparam stereotypeIBorderColor #B4A7E5
skinparam stereotypeCBorderColor #ADD1B2
skinparam stereotypeEBorderColor #EB93DF
skinparam shadowing false

skinparam StateBorderColor #D4AC0D

skinparam ClassBackgroundColor<<red>> #FDEDEC
skinparam ClassBorderColor<<red>> #E74C3C
hide <<red>> stereotype
skinparam ClassBackgroundColor<<purple>> #F4ECF7
skinparam ClassBorderColor<<purple>> #8E44AD
hide <<purple>> stereotype
skinparam ClassBackgroundColor<<blue>> #EBF5FB
skinparam ClassBorderColor<<blue>> #3498DB
hide <<blue>> stereotype
skinparam ClassBackgroundColor<<green>> #EAFAF1
skinparam ClassBorderColor<<green>> #2ECC71
hide <<green>> stereotype
skinparam ClassBackgroundColor<<grey>> #EAECEE
skinparam ClassBorderColor<<grey>> #2C3E50
hide <<grey>> stereotype
hide empty description

state SE_ObservationDisabled {
[*] - -[#Black]> WaitForObserver
}

state SE_ObservationActivated {
WaitForStartDetection -right[#Blue]-> WaitForSeInsertion : startSeDetection(PollingMode)
WaitForSeInsertion -down[#Red]-> WaitForSeProcessing : notifies 'SE inserted'\n&& (NotificationMode == always)
WaitForSeInsertion -down[#Red]-> WaitForSeProcessing : notifies 'SE matched'
WaitForSeProcessing -left[#Blue]-> WaitForSeRemoval : notifySeProcessed()
WaitForSeRemoval -up[#Red]-> WaitForSeInsertion : notifies 'SE removed'\n&& (PollingMode == Repeating)
WaitForSeRemoval -up[#Red]-> WaitForStartDetection : notifies 'SE removed'\n&& (PollingMode == SingleShot)
WaitForSeProcessing -[#Pink]-> WaitForSeInsertion : notifies 'SE removed'\n&& (Observable Reader\nwith the capability\nto detect the removal\nat any time)
}

SE_ObservationActivated -up[#Blue]-> WaitForObserver : removeObserver(ReaderObserver)\n&& (nb observer == 0)
WaitForObserver -down[#Blue]-> WaitForStartDetection : addObserver(ReaderObserver)
SE_ObservationActivated -[#Blue]> SE_ObservationActivated : removeObserver(ReaderObserver)\n&& (nb observer > 0)

SE_ObservationActivated -[#Blue]-> WaitForStartDetection : stopSeDetection()
SE_ObservationDisabled : number of observer == 0
SE_ObservationActivated : number of observer > 0
@enduml

PlantUML version 1.2020.09(Sun May 10 14:51:06 MUT 2020)
(GPL source distribution)
Java Runtime: OpenJDK Runtime Environment
JVM: OpenJDK 64-Bit Server VM
Java Version: 11.0.6+8-b765.40
Operating System: Windows 10
Default Encoding: Cp1252
Language: fr
Country: FR
--></g></svg>