<?xml version="1.0" encoding="UTF-8" standalone="no"?><svg xmlns="http://www.w3.org/2000/svg" xmlns:xlink="http://www.w3.org/1999/xlink" contentScriptType="application/ecmascript" contentStyleType="text/css" height="747px" preserveAspectRatio="none" style="width:1092px;height:747px;" version="1.1" viewBox="0 0 1092 747" width="1092px" zoomAndPan="magnify"><defs/><g><!--MD5=[2bcc54f38766b998c5e88efdbc7d1696]
cluster org.eclipse.keyple.core.seproxy--><polygon fill="#FFFFFF" points="22,24,253,24,260,47.6094,1070,47.6094,1070,735,22,735,22,24" style="stroke: #000000; stroke-width: 1.5;"/><line style="stroke: #000000; stroke-width: 1.5;" x1="22" x2="260" y1="47.6094" y2="47.6094"/><text fill="#000000" font-family="sans-serif" font-size="14" font-weight="bold" lengthAdjust="spacingAndGlyphs" textLength="225" x="26" y="40.5332">org.eclipse.keyple.core.seproxy</text><!--MD5=[2e31800f208179cab94650aeb782e4d8]
cluster event--><polygon fill="#FFFFFF" points="324,486,371,486,378,509.6094,1046,509.6094,1046,711,324,711,324,486" style="stroke: #000000; stroke-width: 1.5;"/><line style="stroke: #000000; stroke-width: 1.5;" x1="324" x2="378" y1="509.6094" y2="509.6094"/><text fill="#000000" font-family="sans-serif" font-size="14" font-weight="bold" lengthAdjust="spacingAndGlyphs" textLength="41" x="328" y="502.5332">event</text><!--MD5=[f0c44d4c6fb415056b2c0aabd573961b]
class SeProxyService--><rect fill="#FEFECE" height="180.7109" id="SeProxyService" style="stroke: #D4AC0D; stroke-width: 1.5;" width="298" x="156" y="60"/><ellipse cx="239.75" cy="80.0938" fill="#ADD1B2" rx="11" ry="11" style="stroke: #ADD1B2; stroke-width: 1.0;"/><path d="M241.75,76.5938 Q241.9531,76.0938 242.1875,75.8438 Q242.4219,75.5938 242.6875,75.5938 Q243.1563,75.5938 243.4531,75.875 Q243.75,76.1563 243.75,76.8125 L243.75,78.375 Q243.75,79.0313 243.4688,79.3125 Q243.1875,79.5938 242.75,79.5938 Q242.3594,79.5938 242.1094,79.4219 Q241.8594,79.25 241.75,78.7969 Q241.7031,78.4844 241.5313,78.3125 Q241.2188,77.9844 240.6563,77.7969 Q240.0938,77.5938 239.5313,77.5938 Q238.8281,77.5938 238.2344,77.875 Q237.6563,78.1563 237.2031,78.7813 Q236.75,79.4063 236.75,80.2656 L236.75,81.1875 Q236.75,82.2188 237.5938,82.9063 Q238.4375,83.5938 239.9375,83.5938 Q240.8281,83.5938 241.4531,83.3906 Q241.8125,83.2813 242.2188,82.9219 Q242.4844,82.7188 242.625,82.6563 Q242.7656,82.5938 242.9375,82.5938 Q243.2656,82.5938 243.5,82.8594 Q243.75,83.1094 243.75,83.4688 Q243.75,83.8125 243.4063,84.2188 Q242.9063,84.8125 242.1094,85.1406 Q241.0625,85.5938 239.7813,85.5938 Q238.2813,85.5938 237.0781,85 Q236.1094,84.5313 235.4219,83.5156 Q234.75,82.5 234.75,81.2969 L234.75,80.2031 Q234.75,78.9531 235.3438,77.8594 Q235.9531,76.7656 237,76.1875 Q238.0625,75.5938 239.25,75.5938 Q239.9688,75.5938 240.5938,75.8438 Q241.2188,76.0938 241.75,76.5938 Z "/><text fill="#000000" font-family="sans-serif" font-size="12" font-style="italic" lengthAdjust="spacingAndGlyphs" textLength="66" x="288.25" y="77.457">«Singleton»</text><ellipse cx="265.25" cy="87.1406" fill="#84BE84" rx="3" ry="3" style="stroke: #038048; stroke-width: 1.0;"/><text fill="#000000" font-family="sans-serif" font-size="12" font-weight="bold" lengthAdjust="spacingAndGlyphs" textLength="24" x="271.25" y="92.5508">final</text><text fill="#000000" font-family="sans-serif" font-size="12" lengthAdjust="spacingAndGlyphs" textLength="84" x="298.25" y="92.5508">SeProxyService</text><line style="stroke: #D4AC0D; stroke-width: 1.5;" x1="157" x2="453" y1="100.1875" y2="100.1875"/><line style="stroke: #D4AC0D; stroke-width: 1.5;" x1="157" x2="453" y1="108.1875" y2="108.1875"/><ellipse cx="167" cy="119.1875" fill="#84BE84" rx="3" ry="3" style="stroke: #038048; stroke-width: 1.0;"/><text fill="#000000" font-family="sans-serif" font-size="11" lengthAdjust="spacingAndGlyphs" text-decoration="underline" textLength="145" x="176" y="123.6064">SeProxyService getInstance()</text><ellipse cx="167" cy="133.0234" fill="#84BE84" rx="3" ry="3" style="stroke: #038048; stroke-width: 1.0;"/><text fill="#000000" font-family="sans-serif" font-size="11" lengthAdjust="spacingAndGlyphs" textLength="92" x="176" y="137.4424">String getVersion()</text><text fill="#000000" font-family="sans-serif" font-size="11" lengthAdjust="spacingAndGlyphs" textLength="0" x="179" y="151.2783"/><ellipse cx="167" cy="160.6953" fill="#84BE84" rx="3" ry="3" style="stroke: #038048; stroke-width: 1.0;"/><text fill="#000000" font-family="sans-serif" font-size="11" lengthAdjust="spacingAndGlyphs" textLength="272" x="176" y="165.1143">ReaderPlugin registerPlugin(PluginFactory pluginFactory)</text><ellipse cx="167" cy="174.5313" fill="#84BE84" rx="3" ry="3" style="stroke: #038048; stroke-width: 1.0;"/><text fill="#000000" font-family="sans-serif" font-size="11" lengthAdjust="spacingAndGlyphs" textLength="195" x="176" y="178.9502">boolean isRegistered(String pluginName)</text><ellipse cx="167" cy="188.3672" fill="#84BE84" rx="3" ry="3" style="stroke: #038048; stroke-width: 1.0;"/><text fill="#000000" font-family="sans-serif" font-size="11" lengthAdjust="spacingAndGlyphs" textLength="212" x="176" y="192.7861">boolean unregisterPlugin(String pluginName)</text><text fill="#000000" font-family="sans-serif" font-size="11" lengthAdjust="spacingAndGlyphs" textLength="0" x="179" y="206.6221"/><ellipse cx="167" cy="216.0391" fill="#84BE84" rx="3" ry="3" style="stroke: #038048; stroke-width: 1.0;"/><text fill="#000000" font-family="sans-serif" font-size="11" lengthAdjust="spacingAndGlyphs" textLength="174" x="176" y="220.458">ReaderPlugin getPlugin(String name)</text><ellipse cx="167" cy="229.875" fill="#84BE84" rx="3" ry="3" style="stroke: #038048; stroke-width: 1.0;"/><text fill="#000000" font-family="sans-serif" font-size="11" lengthAdjust="spacingAndGlyphs" textLength="151" x="176" y="234.2939">Set&lt;ReaderPlugin&gt; getPlugins()</text><!--MD5=[f32ad7e99aabd41d9b4c18d27e28445d]
class ProxyElement--><rect fill="#FEFECE" height="117.1797" id="ProxyElement" style="stroke: #D4AC0D; stroke-width: 1.5;" width="256" x="514" y="92"/><ellipse cx="593.75" cy="108" fill="#B4A7E5" rx="11" ry="11" style="stroke: #B4A7E5; stroke-width: 1.0;"/><path d="M594.75,105 L594.75,111 L596.75,111 L597.2344,111 L597.75,111.625 L597.75,112 L597.75,112.375 L597.2344,113 L596.75,113 L590.75,113 L590.2656,113 L589.75,112.375 L589.75,112 L589.75,111.625 L590.2656,111 L590.75,111 L592.75,111 L592.75,105 L590.75,105 L590.2656,105 L589.75,104.375 L589.75,104 L589.75,103.625 L590.2656,103 L590.75,103 L596.75,103 L597.2344,103 L597.75,103.625 L597.75,104 L597.75,104.375 L597.2344,105 L596.75,105 L594.75,105 Z "/><polygon fill="#4177AF" points="619.25,103.5,615.25,109.5,623.25,109.5" style="stroke: #1963A0; stroke-width: 1.0;"/><text fill="#000000" font-family="sans-serif" font-size="12" font-style="italic" lengthAdjust="spacingAndGlyphs" textLength="77" x="625.25" y="112.9102">ProxyElement</text><line style="stroke: #D4AC0D; stroke-width: 1.5;" x1="515" x2="769" y1="124" y2="124"/><line style="stroke: #D4AC0D; stroke-width: 1.5;" x1="515" x2="769" y1="132" y2="132"/><ellipse cx="525" cy="143" fill="#84BE84" rx="3" ry="3" style="stroke: #038048; stroke-width: 1.0;"/><text fill="#000000" font-family="sans-serif" font-size="11" lengthAdjust="spacingAndGlyphs" textLength="81" x="534" y="147.4189">String getName()</text><text fill="#000000" font-family="sans-serif" font-size="11" lengthAdjust="spacingAndGlyphs" textLength="0" x="537" y="161.2549"/><ellipse cx="525" cy="170.6719" fill="#84BE84" rx="3" ry="3" style="stroke: #038048; stroke-width: 1.0;"/><text fill="#000000" font-family="sans-serif" font-size="11" lengthAdjust="spacingAndGlyphs" textLength="175" x="534" y="175.0908">Map&lt;String, String&gt; getParameters()</text><ellipse cx="525" cy="184.5078" fill="#84BE84" rx="3" ry="3" style="stroke: #038048; stroke-width: 1.0;"/><text fill="#000000" font-family="sans-serif" font-size="11" lengthAdjust="spacingAndGlyphs" textLength="183" x="534" y="188.9268">setParameter(String key, String value)</text><ellipse cx="525" cy="198.3438" fill="#84BE84" rx="3" ry="3" style="stroke: #038048; stroke-width: 1.0;"/><text fill="#000000" font-family="sans-serif" font-size="11" lengthAdjust="spacingAndGlyphs" textLength="230" x="534" y="202.7627">setParameters(Map&lt;String, String&gt; parameters)</text><!--MD5=[5c68026ea752d2e8f1e184b2d7c89ced]
class PluginFactory--><rect fill="#FEFECE" height="75.6719" id="PluginFactory" style="stroke: #D4AC0D; stroke-width: 1.5;" width="184" x="105" y="332.5"/><ellipse cx="149.75" cy="348.5" fill="#B4A7E5" rx="11" ry="11" style="stroke: #B4A7E5; stroke-width: 1.0;"/><path d="M150.75,345.5 L150.75,351.5 L152.75,351.5 L153.2344,351.5 L153.75,352.125 L153.75,352.5 L153.75,352.875 L153.2344,353.5 L152.75,353.5 L146.75,353.5 L146.2656,353.5 L145.75,352.875 L145.75,352.5 L145.75,352.125 L146.2656,351.5 L146.75,351.5 L148.75,351.5 L148.75,345.5 L146.75,345.5 L146.2656,345.5 L145.75,344.875 L145.75,344.5 L145.75,344.125 L146.2656,343.5 L146.75,343.5 L152.75,343.5 L153.2344,343.5 L153.75,344.125 L153.75,344.5 L153.75,344.875 L153.2344,345.5 L152.75,345.5 L150.75,345.5 Z "/><ellipse cx="175.25" cy="348" fill="#84BE84" rx="3" ry="3" style="stroke: #038048; stroke-width: 1.0;"/><text fill="#000000" font-family="sans-serif" font-size="12" font-style="italic" lengthAdjust="spacingAndGlyphs" textLength="75" x="181.25" y="353.4102">PluginFactory</text><line style="stroke: #D4AC0D; stroke-width: 1.5;" x1="106" x2="288" y1="364.5" y2="364.5"/><line style="stroke: #D4AC0D; stroke-width: 1.5;" x1="106" x2="288" y1="372.5" y2="372.5"/><ellipse cx="116" cy="383.5" fill="#84BE84" rx="3" ry="3" style="stroke: #038048; stroke-width: 1.0;"/><text fill="#000000" font-family="sans-serif" font-size="11" lengthAdjust="spacingAndGlyphs" textLength="109" x="125" y="387.9189">String getPluginName()</text><ellipse cx="116" cy="397.3359" fill="#84BE84" rx="3" ry="3" style="stroke: #038048; stroke-width: 1.0;"/><text fill="#000000" font-family="sans-serif" font-size="11" lengthAdjust="spacingAndGlyphs" textLength="158" x="125" y="401.7549">ReaderPlugin getPluginInstance()</text><!--MD5=[a0e88443257adb8def549c32ec694d43]
class ReaderPlugin--><rect fill="#F0FFFF" height="89.5078" id="ReaderPlugin" style="stroke: #0000FF; stroke-width: 1.5;" width="207" x="368.5" y="325.5"/><ellipse cx="424.25" cy="341.5" fill="#B4A7E5" rx="11" ry="11" style="stroke: #B4A7E5; stroke-width: 1.0;"/><path d="M425.25,338.5 L425.25,344.5 L427.25,344.5 L427.7344,344.5 L428.25,345.125 L428.25,345.5 L428.25,345.875 L427.7344,346.5 L427.25,346.5 L421.25,346.5 L420.7656,346.5 L420.25,345.875 L420.25,345.5 L420.25,345.125 L420.7656,344.5 L421.25,344.5 L423.25,344.5 L423.25,338.5 L421.25,338.5 L420.7656,338.5 L420.25,337.875 L420.25,337.5 L420.25,337.125 L420.7656,336.5 L421.25,336.5 L427.25,336.5 L427.7344,336.5 L428.25,337.125 L428.25,337.5 L428.25,337.875 L427.7344,338.5 L427.25,338.5 L425.25,338.5 Z "/><ellipse cx="449.75" cy="341" fill="#84BE84" rx="3" ry="3" style="stroke: #038048; stroke-width: 1.0;"/><text fill="#000000" font-family="sans-serif" font-size="12" font-style="italic" lengthAdjust="spacingAndGlyphs" textLength="76" x="455.75" y="346.4102">ReaderPlugin</text><line style="stroke: #0000FF; stroke-width: 1.5;" x1="369.5" x2="574.5" y1="357.5" y2="357.5"/><line style="stroke: #0000FF; stroke-width: 1.5;" x1="369.5" x2="574.5" y1="365.5" y2="365.5"/><ellipse cx="379.5" cy="376.5" fill="#84BE84" rx="3" ry="3" style="stroke: #038048; stroke-width: 1.0;"/><text fill="#000000" font-family="sans-serif" font-size="11" lengthAdjust="spacingAndGlyphs" textLength="181" x="388.5" y="380.9189">Map&lt;String, SeReader&gt; getReaders()</text><ellipse cx="379.5" cy="390.3359" fill="#84BE84" rx="3" ry="3" style="stroke: #038048; stroke-width: 1.0;"/><text fill="#000000" font-family="sans-serif" font-size="11" lengthAdjust="spacingAndGlyphs" textLength="150" x="388.5" y="394.7549">Set&lt;String&gt; getReaderNames()</text><ellipse cx="379.5" cy="404.1719" fill="#84BE84" rx="3" ry="3" style="stroke: #038048; stroke-width: 1.0;"/><text fill="#000000" font-family="sans-serif" font-size="11" lengthAdjust="spacingAndGlyphs" textLength="166" x="388.5" y="408.5908">SeReader getReader(String name)</text><!--MD5=[dd49942b1f02350b5568646d3da64c49]
class SeReader--><rect fill="#EEFFEE" height="103.3438" id="SeReader" style="stroke: #008000; stroke-width: 1.5;" width="340" x="655" y="319"/><ellipse cx="787.25" cy="335" fill="#B4A7E5" rx="11" ry="11" style="stroke: #B4A7E5; stroke-width: 1.0;"/><path d="M788.25,332 L788.25,338 L790.25,338 L790.7344,338 L791.25,338.625 L791.25,339 L791.25,339.375 L790.7344,340 L790.25,340 L784.25,340 L783.7656,340 L783.25,339.375 L783.25,339 L783.25,338.625 L783.7656,338 L784.25,338 L786.25,338 L786.25,332 L784.25,332 L783.7656,332 L783.25,331.375 L783.25,331 L783.25,330.625 L783.7656,330 L784.25,330 L790.25,330 L790.7344,330 L791.25,330.625 L791.25,331 L791.25,331.375 L790.7344,332 L790.25,332 L788.25,332 Z "/><ellipse cx="812.75" cy="334.5" fill="#84BE84" rx="3" ry="3" style="stroke: #038048; stroke-width: 1.0;"/><text fill="#000000" font-family="sans-serif" font-size="12" font-style="italic" lengthAdjust="spacingAndGlyphs" textLength="56" x="818.75" y="339.9102">SeReader</text><line style="stroke: #008000; stroke-width: 1.5;" x1="656" x2="994" y1="351" y2="351"/><line style="stroke: #008000; stroke-width: 1.5;" x1="656" x2="994" y1="359" y2="359"/><ellipse cx="666" cy="370" fill="#84BE84" rx="3" ry="3" style="stroke: #038048; stroke-width: 1.0;"/><text fill="#000000" font-family="sans-serif" font-size="11" lengthAdjust="spacingAndGlyphs" textLength="107" x="675" y="374.4189">boolean isSePresent()</text><ellipse cx="666" cy="383.8359" fill="#84BE84" rx="3" ry="3" style="stroke: #038048; stroke-width: 1.0;"/><text fill="#000000" font-family="sans-serif" font-size="11" lengthAdjust="spacingAndGlyphs" textLength="314" x="675" y="388.2549">addSeProtocolSetting(SeProtocol seProtocol, String protocolRule)</text><ellipse cx="666" cy="397.6719" fill="#84BE84" rx="3" ry="3" style="stroke: #038048; stroke-width: 1.0;"/><text fill="#000000" font-family="sans-serif" font-size="11" lengthAdjust="spacingAndGlyphs" textLength="301" x="675" y="402.0908">setSeProtocolSetting(Map&lt;SeProtocol, String&gt; protocolSetting)</text><ellipse cx="666" cy="411.5078" fill="#84BE84" rx="3" ry="3" style="stroke: #038048; stroke-width: 1.0;"/><text fill="#000000" font-family="sans-serif" font-size="11" lengthAdjust="spacingAndGlyphs" textLength="206" x="675" y="415.9268">TransmissionMode getTransmissionMode()</text><!--MD5=[ec495f5f6ae18812fb155b23e8e93f55]
class ReaderPoolPlugin--><rect fill="#F0FFFF" height="89.5078" id="ReaderPoolPlugin" style="stroke: #0000FF; stroke-width: 1.5;" width="267" x="38.5" y="563.5"/><ellipse cx="111.75" cy="579.5" fill="#B4A7E5" rx="11" ry="11" style="stroke: #B4A7E5; stroke-width: 1.0;"/><path d="M112.75,576.5 L112.75,582.5 L114.75,582.5 L115.2344,582.5 L115.75,583.125 L115.75,583.5 L115.75,583.875 L115.2344,584.5 L114.75,584.5 L108.75,584.5 L108.2656,584.5 L107.75,583.875 L107.75,583.5 L107.75,583.125 L108.2656,582.5 L108.75,582.5 L110.75,582.5 L110.75,576.5 L108.75,576.5 L108.2656,576.5 L107.75,575.875 L107.75,575.5 L107.75,575.125 L108.2656,574.5 L108.75,574.5 L114.75,574.5 L115.2344,574.5 L115.75,575.125 L115.75,575.5 L115.75,575.875 L115.2344,576.5 L114.75,576.5 L112.75,576.5 Z "/><ellipse cx="137.25" cy="579" fill="#84BE84" rx="3" ry="3" style="stroke: #038048; stroke-width: 1.0;"/><text fill="#000000" font-family="sans-serif" font-size="12" font-style="italic" lengthAdjust="spacingAndGlyphs" textLength="101" x="143.25" y="584.4102">ReaderPoolPlugin</text><line style="stroke: #0000FF; stroke-width: 1.5;" x1="39.5" x2="304.5" y1="595.5" y2="595.5"/><line style="stroke: #0000FF; stroke-width: 1.5;" x1="39.5" x2="304.5" y1="603.5" y2="603.5"/><ellipse cx="49.5" cy="614.5" fill="#84BE84" rx="3" ry="3" style="stroke: #038048; stroke-width: 1.0;"/><text fill="#000000" font-family="sans-serif" font-size="11" lengthAdjust="spacingAndGlyphs" textLength="236" x="58.5" y="618.9189">SortedSet&lt;String&gt; getReaderGroupReferences()</text><ellipse cx="49.5" cy="628.3359" fill="#84BE84" rx="3" ry="3" style="stroke: #038048; stroke-width: 1.0;"/><text fill="#000000" font-family="sans-serif" font-size="11" lengthAdjust="spacingAndGlyphs" textLength="241" x="58.5" y="632.7549">SeReader allocateReader(String groupReference)</text><ellipse cx="49.5" cy="642.1719" fill="#84BE84" rx="3" ry="3" style="stroke: #038048; stroke-width: 1.0;"/><text fill="#000000" font-family="sans-serif" font-size="11" lengthAdjust="spacingAndGlyphs" textLength="177" x="58.5" y="646.5908">releaseReader(SeReader seReader)</text><!--MD5=[1fa9a61019755e60a0cb03f0bc3590aa]
class ObservablePlugin--><rect fill="#F0FFFF" height="75.6719" id="ObservablePlugin" style="stroke: #0000FF; stroke-width: 1.5;" width="263" x="340.5" y="570.5"/><ellipse cx="412.25" cy="586.5" fill="#B4A7E5" rx="11" ry="11" style="stroke: #B4A7E5; stroke-width: 1.0;"/><path d="M413.25,583.5 L413.25,589.5 L415.25,589.5 L415.7344,589.5 L416.25,590.125 L416.25,590.5 L416.25,590.875 L415.7344,591.5 L415.25,591.5 L409.25,591.5 L408.7656,591.5 L408.25,590.875 L408.25,590.5 L408.25,590.125 L408.7656,589.5 L409.25,589.5 L411.25,589.5 L411.25,583.5 L409.25,583.5 L408.7656,583.5 L408.25,582.875 L408.25,582.5 L408.25,582.125 L408.7656,581.5 L409.25,581.5 L415.25,581.5 L415.7344,581.5 L416.25,582.125 L416.25,582.5 L416.25,582.875 L415.7344,583.5 L415.25,583.5 L413.25,583.5 Z "/><ellipse cx="437.75" cy="586" fill="#84BE84" rx="3" ry="3" style="stroke: #038048; stroke-width: 1.0;"/><text fill="#000000" font-family="sans-serif" font-size="12" font-style="italic" lengthAdjust="spacingAndGlyphs" textLength="100" x="443.75" y="591.4102">ObservablePlugin</text><line style="stroke: #0000FF; stroke-width: 1.5;" x1="341.5" x2="602.5" y1="602.5" y2="602.5"/><line style="stroke: #0000FF; stroke-width: 1.5;" x1="341.5" x2="602.5" y1="610.5" y2="610.5"/><ellipse cx="351.5" cy="621.5" fill="#84BE84" rx="3" ry="3" style="stroke: #038048; stroke-width: 1.0;"/><text fill="#000000" font-family="sans-serif" font-size="11" lengthAdjust="spacingAndGlyphs" textLength="68" x="360.5" y="625.9189">addObserver(</text><text fill="#000000" font-family="sans-serif" font-size="11" font-weight="bold" lengthAdjust="spacingAndGlyphs" textLength="23" x="428.5" y="625.9189">final</text><text fill="#000000" font-family="sans-serif" font-size="11" lengthAdjust="spacingAndGlyphs" textLength="125" x="454.5" y="625.9189">PluginObserver observer)</text><ellipse cx="351.5" cy="635.3359" fill="#84BE84" rx="3" ry="3" style="stroke: #038048; stroke-width: 1.0;"/><text fill="#000000" font-family="sans-serif" font-size="11" lengthAdjust="spacingAndGlyphs" textLength="86" x="360.5" y="639.7549">removeObserver(</text><text fill="#000000" font-family="sans-serif" font-size="11" font-weight="bold" lengthAdjust="spacingAndGlyphs" textLength="23" x="446.5" y="639.7549">final</text><text fill="#000000" font-family="sans-serif" font-size="11" lengthAdjust="spacingAndGlyphs" textLength="125" x="472.5" y="639.7549">PluginObserver observer)</text><!--MD5=[e2341a3d5316e117132fc49473ae3219]
class ObservableReader--><rect fill="#EEFFEE" height="172.5234" id="ObservableReader" style="stroke: #008000; stroke-width: 1.5;" width="391" x="638.5" y="522"/><ellipse cx="771.25" cy="538" fill="#B4A7E5" rx="11" ry="11" style="stroke: #B4A7E5; stroke-width: 1.0;"/><path d="M772.25,535 L772.25,541 L774.25,541 L774.7344,541 L775.25,541.625 L775.25,542 L775.25,542.375 L774.7344,543 L774.25,543 L768.25,543 L767.7656,543 L767.25,542.375 L767.25,542 L767.25,541.625 L767.7656,541 L768.25,541 L770.25,541 L770.25,535 L768.25,535 L767.7656,535 L767.25,534.375 L767.25,534 L767.25,533.625 L767.7656,533 L768.25,533 L774.25,533 L774.7344,533 L775.25,533.625 L775.25,534 L775.25,534.375 L774.7344,535 L774.25,535 L772.25,535 Z "/><ellipse cx="796.75" cy="537.5" fill="#84BE84" rx="3" ry="3" style="stroke: #038048; stroke-width: 1.0;"/><text fill="#000000" font-family="sans-serif" font-size="12" font-style="italic" lengthAdjust="spacingAndGlyphs" textLength="106" x="802.75" y="542.9102">ObservableReader</text><line style="stroke: #008000; stroke-width: 1.5;" x1="639.5" x2="1028.5" y1="554" y2="554"/><line style="stroke: #008000; stroke-width: 1.5;" x1="639.5" x2="1028.5" y1="562" y2="562"/><ellipse cx="649.5" cy="573" fill="#84BE84" rx="3" ry="3" style="stroke: #038048; stroke-width: 1.0;"/><text fill="#000000" font-family="sans-serif" font-size="11" lengthAdjust="spacingAndGlyphs" textLength="68" x="658.5" y="577.4189">addObserver(</text><text fill="#000000" font-family="sans-serif" font-size="11" font-weight="bold" lengthAdjust="spacingAndGlyphs" textLength="23" x="726.5" y="577.4189">final</text><text fill="#000000" font-family="sans-serif" font-size="11" lengthAdjust="spacingAndGlyphs" textLength="132" x="752.5" y="577.4189">ReaderObserver observer)</text><ellipse cx="649.5" cy="586.8359" fill="#84BE84" rx="3" ry="3" style="stroke: #038048; stroke-width: 1.0;"/><text fill="#000000" font-family="sans-serif" font-size="11" lengthAdjust="spacingAndGlyphs" textLength="86" x="658.5" y="591.2549">removeObserver(</text><text fill="#000000" font-family="sans-serif" font-size="11" font-weight="bold" lengthAdjust="spacingAndGlyphs" textLength="23" x="744.5" y="591.2549">final</text><text fill="#000000" font-family="sans-serif" font-size="11" lengthAdjust="spacingAndGlyphs" textLength="132" x="770.5" y="591.2549">ReaderObserver observer)</text><text fill="#000000" font-family="sans-serif" font-size="11" lengthAdjust="spacingAndGlyphs" textLength="0" x="661.5" y="605.0908"/><ellipse cx="649.5" cy="614.5078" fill="#84BE84" rx="3" ry="3" style="stroke: #038048; stroke-width: 1.0;"/><text fill="#000000" font-family="sans-serif" font-size="11" lengthAdjust="spacingAndGlyphs" textLength="203" x="658.5" y="618.9268">startSeDetection(PollingMode pollingMode)</text><ellipse cx="649.5" cy="628.3438" fill="#84BE84" rx="3" ry="3" style="stroke: #038048; stroke-width: 1.0;"/><text fill="#000000" font-family="sans-serif" font-size="11" lengthAdjust="spacingAndGlyphs" textLength="87" x="658.5" y="632.7627">stopSeDetection()</text><ellipse cx="649.5" cy="642.1797" fill="#84BE84" rx="3" ry="3" style="stroke: #038048; stroke-width: 1.0;"/><text fill="#000000" font-family="sans-serif" font-size="11" lengthAdjust="spacingAndGlyphs" textLength="100" x="658.5" y="646.5986">notifySeProcessed()</text><text fill="#000000" font-family="sans-serif" font-size="11" lengthAdjust="spacingAndGlyphs" textLength="0" x="661.5" y="660.4346"/><ellipse cx="649.5" cy="669.8516" fill="#84BE84" rx="3" ry="3" style="stroke: #038048; stroke-width: 1.0;"/><text fill="#000000" font-family="sans-serif" font-size="11" lengthAdjust="spacingAndGlyphs" textLength="365" x="658.5" y="674.2705">setDefaultSelectionRequest(AbstractDefaultSelectionsRequest selectionsR,</text><text fill="#000000" font-family="sans-serif" font-size="11" lengthAdjust="spacingAndGlyphs" textLength="273" x="658.5" y="688.1064">NotificationMode notificationM, PollingMode[0..1] pollingM)</text><!--MD5=[ac58f1a34eb5ab4662271d4b6552ae6b]
link SeProxyService to PluginFactory--><path d="M255.2786,251.8661 C255.2786,251.8661 231.15,300.568 221.174,320.703 " fill="none" id="SeProxyService-PluginFactory" style="stroke: #A80036; stroke-width: 1.0;"/><polygon fill="#A80036" points="215.393,332.373,222.9725,326.084,217.6126,327.8927,215.804,322.5327,215.393,332.373" style="stroke: #A80036; stroke-width: 1.0;"/><line style="stroke: #A80036; stroke-width: 1.0;" x1="217.6126" x2="221.1645" y1="327.8927" y2="320.724"/><polygon fill="#A80036" points="260.605,241.113,254.3574,244.7141,255.2786,251.8661,261.5261,248.265,260.605,241.113" style="stroke: #A80036; stroke-width: 1.0;"/><text fill="#000000" font-family="sans-serif" font-size="13" lengthAdjust="spacingAndGlyphs" textLength="50" x="246" y="285.4951">registers</text><text fill="#000000" font-family="sans-serif" font-size="13" lengthAdjust="spacingAndGlyphs" textLength="7" x="249.938" y="262.1827">1</text><text fill="#000000" font-family="sans-serif" font-size="13" lengthAdjust="spacingAndGlyphs" textLength="5" x="213.2239" y="321.7123">*</text><!--MD5=[98fb93546a7dc75f66b7a26283e02bb5]
link SeProxyService to ReaderPlugin--><path d="M380.9455,250.6391 C380.9455,250.6391 415.467,295.703 430.175,314.902 " fill="none" id="SeProxyService-ReaderPlugin" style="stroke: #A80036; stroke-width: 1.0;"/><polygon fill="#A80036" points="438.09,325.234,435.7922,315.6569,435.0494,321.2648,429.4415,320.5219,438.09,325.234" style="stroke: #A80036; stroke-width: 1.0;"/><line style="stroke: #A80036; stroke-width: 1.0;" x1="435.0494" x2="430.184" y1="321.2648" y2="314.914"/><polygon fill="#A80036" points="373.648,241.113,374.1214,248.3085,380.9455,250.6391,380.4721,243.4435,373.648,241.113" style="stroke: #A80036; stroke-width: 1.0;"/><text fill="#000000" font-family="sans-serif" font-size="13" lengthAdjust="spacingAndGlyphs" textLength="41" x="409" y="285.4951">plugins</text><text fill="#000000" font-family="sans-serif" font-size="13" lengthAdjust="spacingAndGlyphs" textLength="7" x="371.6359" y="262.1827">1</text><text fill="#000000" font-family="sans-serif" font-size="13" lengthAdjust="spacingAndGlyphs" textLength="5" x="427.5147" y="314.6374">*</text><!--MD5=[8119e6da521221a00c7048597420cfa4]
link PluginFactory to ReaderPlugin--><path d="M289.336,370.5 C312.935,370.5 338.531,370.5 362.885,370.5 " fill="none" id="PluginFactory-&gt;ReaderPlugin" style="stroke: #A80036; stroke-width: 1.0;"/><polygon fill="#A80036" points="368.062,370.5,359.062,366.5,363.062,370.5,359.062,374.5,368.062,370.5" style="stroke: #A80036; stroke-width: 1.0;"/><text fill="#000000" font-family="sans-serif" font-size="13" lengthAdjust="spacingAndGlyphs" textLength="43" x="307.25" y="363.9951">creates</text><text fill="#000000" font-family="sans-serif" font-size="13" lengthAdjust="spacingAndGlyphs" textLength="7" x="296.9729" y="367.3847">1</text><text fill="#000000" font-family="sans-serif" font-size="13" lengthAdjust="spacingAndGlyphs" textLength="7" x="353.5078" y="367.4623">1</text><!--MD5=[c88fac8de0d16551763276c4b9088a93]
link ReaderPlugin to SeReader--><path d="M587.526,370.5 C587.526,370.5 623.616,370.5 641.659,370.5 " fill="none" id="ReaderPlugin-SeReader" style="stroke: #A80036; stroke-width: 1.0;"/><polygon fill="#A80036" points="654.803,370.5,645.803,366.5,649.803,370.5,645.803,374.5,654.803,370.5" style="stroke: #A80036; stroke-width: 1.0;"/><line style="stroke: #A80036; stroke-width: 1.0;" x1="649.803" x2="641.803" y1="370.5" y2="370.5"/><polygon fill="#A80036" points="575.526,370.5,581.526,374.5,587.526,370.5,581.526,366.5,575.526,370.5" style="stroke: #A80036; stroke-width: 1.0;"/><text fill="#000000" font-family="sans-serif" font-size="13" lengthAdjust="spacingAndGlyphs" textLength="43" x="593.75" y="363.9951">readers</text><text fill="#000000" font-family="sans-serif" font-size="13" lengthAdjust="spacingAndGlyphs" textLength="7" x="583.3857" y="367.4386">1</text><text fill="#000000" font-family="sans-serif" font-size="13" lengthAdjust="spacingAndGlyphs" textLength="5" x="641.9777" y="367.6328">*</text><!--MD5=[bc25a197e36279471f37427b8b5d69b0]
reverse link ReaderPlugin to ReaderPoolPlugin--><path d="M391.588,427.548 C369.416,443.491 345.543,461.118 324,478 C289.073,505.371 251.073,537.746 221.804,563.278 " fill="none" id="ReaderPlugin&lt;-ReaderPoolPlugin" style="stroke: #A80036; stroke-width: 1.0;"/><polygon fill="none" points="387.8,421.651,408.144,415.725,395.936,433.045,387.8,421.651" style="stroke: #A80036; stroke-width: 1.0;"/><text fill="#000000" font-family="sans-serif" font-size="13" lengthAdjust="spacingAndGlyphs" textLength="46" x="356" y="466.4951">extends</text><!--MD5=[a087c8f219181ff1dbe7adabc28b3231]
reverse link ReaderPlugin to ObservablePlugin--><path d="M472,435.669 C472,478.804 472,534.153 472,570.206 " fill="none" id="ReaderPlugin&lt;-ObservablePlugin" style="stroke: #A80036; stroke-width: 1.0;"/><polygon fill="none" points="465,435.613,472,415.613,479,435.613,465,435.613" style="stroke: #A80036; stroke-width: 1.0;"/><text fill="#000000" font-family="sans-serif" font-size="13" lengthAdjust="spacingAndGlyphs" textLength="46" x="473" y="466.4951">extends</text><!--MD5=[9bde350185f61a8992bbce085951af21]
reverse link SeReader to ObservableReader--><path d="M827.696,442.195 C828.649,467.182 829.731,495.56 830.727,521.665 " fill="none" id="SeReader&lt;-ObservableReader" style="stroke: #A80036; stroke-width: 1.0;"/><polygon fill="none" points="820.698,442.38,826.931,422.128,834.688,441.847,820.698,442.38" style="stroke: #A80036; stroke-width: 1.0;"/><text fill="#000000" font-family="sans-serif" font-size="13" lengthAdjust="spacingAndGlyphs" textLength="46" x="829" y="466.4951">extends</text><!--MD5=[6ff42eee2d93b23b3557b0570faf0c26]
reverse link ProxyElement to ReaderPlugin--><path d="M584.707,224.969 C558.701,258.318 528.81,296.649 506.348,325.454 " fill="none" id="ProxyElement&lt;-ReaderPlugin" style="stroke: #A80036; stroke-width: 1.0;"/><polygon fill="none" points="579.293,220.529,597.112,209.062,590.333,229.138,579.293,220.529" style="stroke: #A80036; stroke-width: 1.0;"/><text fill="#000000" font-family="sans-serif" font-size="13" lengthAdjust="spacingAndGlyphs" textLength="46" x="547" y="285.4951">extends</text><!--MD5=[e474867e38445a864bdbc7a2e090866a]
reverse link ProxyElement to SeReader--><path d="M703.484,224.743 C729.383,255.595 758.889,290.745 782.341,318.682 " fill="none" id="ProxyElement&lt;-SeReader" style="stroke: #A80036; stroke-width: 1.0;"/><polygon fill="none" points="697.818,228.881,690.32,209.062,708.541,219.88,697.818,228.881" style="stroke: #A80036; stroke-width: 1.0;"/><text fill="#000000" font-family="sans-serif" font-size="13" lengthAdjust="spacingAndGlyphs" textLength="46" x="756" y="285.4951">extends</text><!--MD5=[f4ca7d77e307d811ae33874c9b3a49e4]
@startuml
skinparam ClassBorderColor #D4AC0D
skinparam stereotypeABorderColor #A9DCDF
skinparam stereotypeIBorderColor #B4A7E5
skinparam stereotypeCBorderColor #ADD1B2
skinparam stereotypeEBorderColor #EB93DF
skinparam shadowing false

skinparam StateBorderColor #D4AC0D
skinparam ActivityBorderColor #D4AC0D

skinparam ClassBackgroundColor<<red>> #FDEDEC
skinparam ClassBorderColor<<red>> #E74C3C
hide <<red>> stereotype
skinparam ClassBackgroundColor<<purple>> #F4ECF7
skinparam ClassBorderColor<<purple>> #8E44AD
hide <<purple>> stereotype
skinparam ClassBackgroundColor<<blue>> #EBF5FB
skinparam ClassBorderColor<<blue>> #3498DB
hide <<blue>> stereotype
skinparam ClassBackgroundColor<<green>> #EAFAF1
skinparam ClassBorderColor<<green>> #2ECC71
hide <<green>> stereotype
skinparam ClassBackgroundColor<<grey>> #EAECEE
skinparam ClassBorderColor<<grey>> #2C3E50
hide <<grey>> stereotype

package org.eclipse.keyple.core.seproxy #FFFFFF {
+class "<b>final</b> SeProxyService" as SeProxyService << Singleton >> {
  +{static}SeProxyService getInstance()
  +String getVersion()

  +ReaderPlugin registerPlugin(PluginFactory pluginFactory)
  +boolean isRegistered(String pluginName)
  +boolean unregisterPlugin(String pluginName)

  +ReaderPlugin getPlugin(String name)
  +Set<ReaderPlugin> getPlugins()
}
~interface ProxyElement {
  +String getName()

  +Map<String, String> getParameters()
  +setParameter(String key, String value)
  +setParameters(Map<String, String> parameters)
}

+interface PluginFactory {
  +String getPluginName()
  +ReaderPlugin getPluginInstance()
}
+interface ReaderPlugin {
  +Map<String, SeReader> getReaders()
  +Set<String> getReaderNames()
  +SeReader getReader(String name)
}
+interface SeReader {
  +boolean isSePresent()
  +addSeProtocolSetting(SeProtocol seProtocol, String protocolRule)
  +setSeProtocolSetting(Map<SeProtocol, String> protocolSetting)
  +TransmissionMode getTransmissionMode()
}

  SeProxyService "1" *- -> "*" PluginFactory : registers
  SeProxyService "1" *-down-> "*" ReaderPlugin : plugins
  PluginFactory "1" -right-> "1" ReaderPlugin : creates
  ReaderPlugin "1" *-right-> "*" SeReader : readers

+interface ReaderPoolPlugin {
  +SortedSet<String> getReaderGroupReferences()
  +SeReader allocateReader(String groupReference)
  +releaseReader(SeReader seReader)
}
  ReaderPlugin <|- - ReaderPoolPlugin : extends

  package event #FFFFFF {
+interface ObservablePlugin {
  +addObserver(<b>final</b> PluginObserver observer)
  +removeObserver(<b>final</b> PluginObserver observer)
}
+interface ObservableReader {
  +addObserver(<b>final</b> ReaderObserver observer)
  +removeObserver(<b>final</b> ReaderObserver observer)

  +startSeDetection(PollingMode pollingMode)
  +stopSeDetection()
  +notifySeProcessed()

  +setDefaultSelectionRequest(AbstractDefaultSelectionsRequest selectionsR,
    NotificationMode notificationM, PollingMode[0..1] pollingM)
}
  }
  ReaderPlugin <|- - ObservablePlugin : extends
  SeReader <|- - ObservableReader : extends
}

ProxyElement <|- - ReaderPlugin : extends
ProxyElement <|- - SeReader : extends

interface ReaderPlugin <<Plugin>>
interface ObservablePlugin <<Plugin>>
interface ReaderPoolPlugin <<Plugin>>
hide <<Plugin>> stereotype

interface SeReader <<Reader>>
interface ObservableReader <<Reader>>
hide <<Reader>> stereotype

skinparam class {
  BackgroundColor<<Plugin>> Azure
  BorderColor<<Plugin>> Blue
  BackgroundColor<<Reader>> #EEFFEE
  BorderColor<<Reader>> Green
}
@enduml

PlantUML version 1.2020.09(Sun May 10 14:51:06 MUT 2020)
(GPL source distribution)
Java Runtime: OpenJDK Runtime Environment
JVM: OpenJDK 64-Bit Server VM
Java Version: 11.0.6+8-b765.40
Operating System: Windows 10
Default Encoding: Cp1252
Language: fr
Country: FR
--></g></svg>