<?xml version="1.0" encoding="UTF-8" standalone="no"?><svg xmlns="http://www.w3.org/2000/svg" xmlns:xlink="http://www.w3.org/1999/xlink" contentScriptType="application/ecmascript" contentStyleType="text/css" height="664px" preserveAspectRatio="none" style="width:988px;height:664px;" version="1.1" viewBox="0 0 988 664" width="988px" zoomAndPan="magnify"><defs/><g><!--MD5=[2bcc54f38766b998c5e88efdbc7d1696]
cluster org.eclipse.keyple.core.seproxy--><polygon fill="#FFFFFF" points="22,24,253,24,260,47.6094,966,47.6094,966,438,22,438,22,24" style="stroke: #000000; stroke-width: 1.5;"/><line style="stroke: #000000; stroke-width: 1.5;" x1="22" x2="260" y1="47.6094" y2="47.6094"/><text fill="#000000" font-family="sans-serif" font-size="14" font-weight="bold" lengthAdjust="spacingAndGlyphs" textLength="225" x="26" y="40.5332">org.eclipse.keyple.core.seproxy</text><!--MD5=[fcbadcad9a28152c89ed5c4d71dbb045]
cluster plugin.specific--><polygon fill="#D7BDE2" points="57,488,166,488,173,511.6094,729,511.6094,729,652,57,652,57,488" style="stroke: #000000; stroke-width: 1.5;"/><line style="stroke: #000000; stroke-width: 1.5;" x1="57" x2="173" y1="511.6094" y2="511.6094"/><text fill="#000000" font-family="sans-serif" font-size="14" font-weight="bold" lengthAdjust="spacingAndGlyphs" textLength="103" x="61" y="504.5332">plugin.specific</text><!--MD5=[f0c44d4c6fb415056b2c0aabd573961b]
class SeProxyService--><rect fill="#FEFECE" height="180.7109" id="SeProxyService" style="stroke: #D4AC0D; stroke-width: 1.5;" width="274" x="160" y="60"/><ellipse cx="231.75" cy="80.0938" fill="#ADD1B2" rx="11" ry="11" style="stroke: #ADD1B2; stroke-width: 1.0;"/><path d="M233.75,76.5938 Q233.9531,76.0938 234.1875,75.8438 Q234.4219,75.5938 234.6875,75.5938 Q235.1563,75.5938 235.4531,75.875 Q235.75,76.1563 235.75,76.8125 L235.75,78.375 Q235.75,79.0313 235.4688,79.3125 Q235.1875,79.5938 234.75,79.5938 Q234.3594,79.5938 234.1094,79.4219 Q233.8594,79.25 233.75,78.7969 Q233.7031,78.4844 233.5313,78.3125 Q233.2188,77.9844 232.6563,77.7969 Q232.0938,77.5938 231.5313,77.5938 Q230.8281,77.5938 230.2344,77.875 Q229.6563,78.1563 229.2031,78.7813 Q228.75,79.4063 228.75,80.2656 L228.75,81.1875 Q228.75,82.2188 229.5938,82.9063 Q230.4375,83.5938 231.9375,83.5938 Q232.8281,83.5938 233.4531,83.3906 Q233.8125,83.2813 234.2188,82.9219 Q234.4844,82.7188 234.625,82.6563 Q234.7656,82.5938 234.9375,82.5938 Q235.2656,82.5938 235.5,82.8594 Q235.75,83.1094 235.75,83.4688 Q235.75,83.8125 235.4063,84.2188 Q234.9063,84.8125 234.1094,85.1406 Q233.0625,85.5938 231.7813,85.5938 Q230.2813,85.5938 229.0781,85 Q228.1094,84.5313 227.4219,83.5156 Q226.75,82.5 226.75,81.2969 L226.75,80.2031 Q226.75,78.9531 227.3438,77.8594 Q227.9531,76.7656 229,76.1875 Q230.0625,75.5938 231.25,75.5938 Q231.9688,75.5938 232.5938,75.8438 Q233.2188,76.0938 233.75,76.5938 Z "/><text fill="#000000" font-family="sans-serif" font-size="12" font-style="italic" lengthAdjust="spacingAndGlyphs" textLength="66" x="280.25" y="77.457">«Singleton»</text><ellipse cx="257.25" cy="87.1406" fill="#84BE84" rx="3" ry="3" style="stroke: #038048; stroke-width: 1.0;"/><text fill="#000000" font-family="sans-serif" font-size="12" font-weight="bold" lengthAdjust="spacingAndGlyphs" textLength="24" x="263.25" y="92.5508">final</text><text fill="#000000" font-family="sans-serif" font-size="12" lengthAdjust="spacingAndGlyphs" textLength="84" x="290.25" y="92.5508">SeProxyService</text><line style="stroke: #D4AC0D; stroke-width: 1.5;" x1="161" x2="433" y1="100.1875" y2="100.1875"/><line style="stroke: #D4AC0D; stroke-width: 1.5;" x1="161" x2="433" y1="108.1875" y2="108.1875"/><ellipse cx="171" cy="119.1875" fill="#84BE84" rx="3" ry="3" style="stroke: #038048; stroke-width: 1.0;"/><text fill="#000000" font-family="sans-serif" font-size="11" lengthAdjust="spacingAndGlyphs" text-decoration="underline" textLength="145" x="180" y="123.6064">SeProxyService getInstance()</text><ellipse cx="171" cy="133.0234" fill="#84BE84" rx="3" ry="3" style="stroke: #038048; stroke-width: 1.0;"/><text fill="#000000" font-family="sans-serif" font-size="11" lengthAdjust="spacingAndGlyphs" textLength="92" x="180" y="137.4424">String getVersion()</text><text fill="#000000" font-family="sans-serif" font-size="11" lengthAdjust="spacingAndGlyphs" textLength="0" x="183" y="151.2783"/><ellipse cx="171" cy="160.6953" fill="#84BE84" rx="3" ry="3" style="stroke: #038048; stroke-width: 1.0;"/><text fill="#000000" font-family="sans-serif" font-size="11" lengthAdjust="spacingAndGlyphs" textLength="248" x="180" y="165.1143">registerPlugin(AbstractPluginFactory pluginFactory)</text><ellipse cx="171" cy="174.5313" fill="#84BE84" rx="3" ry="3" style="stroke: #038048; stroke-width: 1.0;"/><text fill="#000000" font-family="sans-serif" font-size="11" lengthAdjust="spacingAndGlyphs" textLength="195" x="180" y="178.9502">boolean isRegistered(String pluginName)</text><ellipse cx="171" cy="188.3672" fill="#84BE84" rx="3" ry="3" style="stroke: #038048; stroke-width: 1.0;"/><text fill="#000000" font-family="sans-serif" font-size="11" lengthAdjust="spacingAndGlyphs" textLength="212" x="180" y="192.7861">boolean unregisterPlugin(String pluginName)</text><text fill="#000000" font-family="sans-serif" font-size="11" lengthAdjust="spacingAndGlyphs" textLength="0" x="183" y="206.6221"/><ellipse cx="171" cy="216.0391" fill="#84BE84" rx="3" ry="3" style="stroke: #038048; stroke-width: 1.0;"/><text fill="#000000" font-family="sans-serif" font-size="11" lengthAdjust="spacingAndGlyphs" textLength="174" x="180" y="220.458">ReaderPlugin getPlugin(String name)</text><ellipse cx="171" cy="229.875" fill="#84BE84" rx="3" ry="3" style="stroke: #038048; stroke-width: 1.0;"/><text fill="#000000" font-family="sans-serif" font-size="11" lengthAdjust="spacingAndGlyphs" textLength="183" x="180" y="234.2939">SortedSet&lt;ReaderPlugin&gt; getPlugins()</text><!--MD5=[589e28272a74d38b4e0a352c82e7b326]
class AbstractPluginFactory--><rect fill="#FEFECE" height="75.6719" id="AbstractPluginFactory" style="stroke: #D4AC0D; stroke-width: 1.5;" width="192" x="38" y="332.5"/><ellipse cx="66.05" cy="348.5" fill="#A9DCDF" rx="11" ry="11" style="stroke: #A9DCDF; stroke-width: 1.0;"/><path d="M67.8,350 L64.5031,350 L64.0656,351 L64.0656,351 L64.5344,351 L65.05,351.625 L65.05,352 L65.05,352.375 L64.5344,353 L64.0656,353 L62.175,353 L61.5656,353 L61.05,352.375 L61.05,352 L61.05,351.625 L61.5656,351 L62.175,351 L64.4875,345 L63.6125,345 L62.5656,345 L62.05,344.375 L62.05,344 L62.05,343.625 L62.5656,343 L63.6125,343 L67.2844,343 L69.9719,351 L70.5344,351 L70.5344,351 L71.05,351.625 L71.05,352 L71.05,352.375 L70.5344,353 L69.9719,353 L68.0813,353 L67.5656,353 L67.05,352.375 L67.05,352 L67.05,351.625 L67.5656,351 L68.0813,351 L68.0813,351 L67.8,350 Z M67.2531,348 L66.05,344.4219 L65.0188,348 L67.2531,348 Z "/><ellipse cx="87.95" cy="348" fill="#84BE84" rx="3" ry="3" style="stroke: #038048; stroke-width: 1.0;"/><text fill="#000000" font-family="sans-serif" font-size="12" font-style="italic" lengthAdjust="spacingAndGlyphs" textLength="120" x="93.95" y="353.4102">AbstractPluginFactory</text><line style="stroke: #D4AC0D; stroke-width: 1.5;" x1="39" x2="229" y1="364.5" y2="364.5"/><line style="stroke: #D4AC0D; stroke-width: 1.5;" x1="39" x2="229" y1="372.5" y2="372.5"/><polygon fill="#FFFF44" points="49,378.5,53,382.5,49,386.5,45,382.5" style="stroke: #B38D22; stroke-width: 1.0;"/><text fill="#000000" font-family="sans-serif" font-size="11" font-style="italic" lengthAdjust="spacingAndGlyphs" textLength="115" x="58" y="387.9189">String getPluginName()</text><polygon fill="#FFFF44" points="49,392.3359,53,396.3359,49,400.3359,45,396.3359" style="stroke: #B38D22; stroke-width: 1.0;"/><text fill="#000000" font-family="sans-serif" font-size="11" font-style="italic" lengthAdjust="spacingAndGlyphs" textLength="166" x="58" y="401.7549">ReaderPlugin getPluginInstance()</text><!--MD5=[a0e88443257adb8def549c32ec694d43]
class ReaderPlugin--><rect fill="#FEFECE" height="89.5078" id="ReaderPlugin" style="stroke: #D4AC0D; stroke-width: 1.5;" width="220" x="310" y="325.5"/><ellipse cx="372.25" cy="341.5" fill="#B4A7E5" rx="11" ry="11" style="stroke: #B4A7E5; stroke-width: 1.0;"/><path d="M373.25,338.5 L373.25,344.5 L375.25,344.5 L375.7344,344.5 L376.25,345.125 L376.25,345.5 L376.25,345.875 L375.7344,346.5 L375.25,346.5 L369.25,346.5 L368.7656,346.5 L368.25,345.875 L368.25,345.5 L368.25,345.125 L368.7656,344.5 L369.25,344.5 L371.25,344.5 L371.25,338.5 L369.25,338.5 L368.7656,338.5 L368.25,337.875 L368.25,337.5 L368.25,337.125 L368.7656,336.5 L369.25,336.5 L375.25,336.5 L375.7344,336.5 L376.25,337.125 L376.25,337.5 L376.25,337.875 L375.7344,338.5 L375.25,338.5 L373.25,338.5 Z "/><ellipse cx="397.75" cy="341" fill="#84BE84" rx="3" ry="3" style="stroke: #038048; stroke-width: 1.0;"/><text fill="#000000" font-family="sans-serif" font-size="12" font-style="italic" lengthAdjust="spacingAndGlyphs" textLength="76" x="403.75" y="346.4102">ReaderPlugin</text><line style="stroke: #D4AC0D; stroke-width: 1.5;" x1="311" x2="529" y1="357.5" y2="357.5"/><line style="stroke: #D4AC0D; stroke-width: 1.5;" x1="311" x2="529" y1="365.5" y2="365.5"/><ellipse cx="321" cy="376.5" fill="#84BE84" rx="3" ry="3" style="stroke: #038048; stroke-width: 1.0;"/><text fill="#000000" font-family="sans-serif" font-size="11" lengthAdjust="spacingAndGlyphs" textLength="182" x="330" y="380.9189">SortedSet&lt;String&gt; getReaderNames()</text><ellipse cx="321" cy="390.3359" fill="#84BE84" rx="3" ry="3" style="stroke: #038048; stroke-width: 1.0;"/><text fill="#000000" font-family="sans-serif" font-size="11" lengthAdjust="spacingAndGlyphs" textLength="166" x="330" y="394.7549">SeReader getReader(String name)</text><ellipse cx="321" cy="404.1719" fill="#84BE84" rx="3" ry="3" style="stroke: #038048; stroke-width: 1.0;"/><text fill="#000000" font-family="sans-serif" font-size="11" lengthAdjust="spacingAndGlyphs" textLength="194" x="330" y="408.5908">Set&lt;? extends SeReader&gt; getReaders()</text><!--MD5=[dd49942b1f02350b5568646d3da64c49]
class SeReader--><rect fill="#FEFECE" height="103.3438" id="SeReader" style="stroke: #D4AC0D; stroke-width: 1.5;" width="340" x="610" y="319"/><ellipse cx="742.25" cy="335" fill="#B4A7E5" rx="11" ry="11" style="stroke: #B4A7E5; stroke-width: 1.0;"/><path d="M743.25,332 L743.25,338 L745.25,338 L745.7344,338 L746.25,338.625 L746.25,339 L746.25,339.375 L745.7344,340 L745.25,340 L739.25,340 L738.7656,340 L738.25,339.375 L738.25,339 L738.25,338.625 L738.7656,338 L739.25,338 L741.25,338 L741.25,332 L739.25,332 L738.7656,332 L738.25,331.375 L738.25,331 L738.25,330.625 L738.7656,330 L739.25,330 L745.25,330 L745.7344,330 L746.25,330.625 L746.25,331 L746.25,331.375 L745.7344,332 L745.25,332 L743.25,332 Z "/><ellipse cx="767.75" cy="334.5" fill="#84BE84" rx="3" ry="3" style="stroke: #038048; stroke-width: 1.0;"/><text fill="#000000" font-family="sans-serif" font-size="12" font-style="italic" lengthAdjust="spacingAndGlyphs" textLength="56" x="773.75" y="339.9102">SeReader</text><line style="stroke: #D4AC0D; stroke-width: 1.5;" x1="611" x2="949" y1="351" y2="351"/><line style="stroke: #D4AC0D; stroke-width: 1.5;" x1="611" x2="949" y1="359" y2="359"/><ellipse cx="621" cy="370" fill="#84BE84" rx="3" ry="3" style="stroke: #038048; stroke-width: 1.0;"/><text fill="#000000" font-family="sans-serif" font-size="11" lengthAdjust="spacingAndGlyphs" textLength="107" x="630" y="374.4189">boolean isSePresent()</text><ellipse cx="621" cy="383.8359" fill="#84BE84" rx="3" ry="3" style="stroke: #038048; stroke-width: 1.0;"/><text fill="#000000" font-family="sans-serif" font-size="11" lengthAdjust="spacingAndGlyphs" textLength="314" x="630" y="388.2549">addSeProtocolSetting(SeProtocol seProtocol, String protocolRule)</text><ellipse cx="621" cy="397.6719" fill="#84BE84" rx="3" ry="3" style="stroke: #038048; stroke-width: 1.0;"/><text fill="#000000" font-family="sans-serif" font-size="11" lengthAdjust="spacingAndGlyphs" textLength="301" x="630" y="402.0908">setSeProtocolSetting(Map&lt;SeProtocol, String&gt; protocolSetting)</text><ellipse cx="621" cy="411.5078" fill="#84BE84" rx="3" ry="3" style="stroke: #038048; stroke-width: 1.0;"/><text fill="#000000" font-family="sans-serif" font-size="11" lengthAdjust="spacingAndGlyphs" textLength="206" x="630" y="415.9268">TransmissionMode getTransmissionMode()</text><!--MD5=[273228bd21fa37477fe0813cbe95870a]
class SpecificPluginFactory--><rect fill="#FEFECE" height="75.6719" id="SpecificPluginFactory" style="stroke: #D4AC0D; stroke-width: 1.5;" width="187" x="73.5" y="542"/><ellipse cx="88.5" cy="558" fill="#ADD1B2" rx="11" ry="11" style="stroke: #ADD1B2; stroke-width: 1.0;"/><path d="M90.5,554.5 Q90.7031,554 90.9375,553.75 Q91.1719,553.5 91.4375,553.5 Q91.9063,553.5 92.2031,553.7813 Q92.5,554.0625 92.5,554.7188 L92.5,556.2813 Q92.5,556.9375 92.2188,557.2188 Q91.9375,557.5 91.5,557.5 Q91.1094,557.5 90.8594,557.3281 Q90.6094,557.1563 90.5,556.7031 Q90.4531,556.3906 90.2813,556.2188 Q89.9688,555.8906 89.4063,555.7031 Q88.8438,555.5 88.2813,555.5 Q87.5781,555.5 86.9844,555.7813 Q86.4063,556.0625 85.9531,556.6875 Q85.5,557.3125 85.5,558.1719 L85.5,559.0938 Q85.5,560.125 86.3438,560.8125 Q87.1875,561.5 88.6875,561.5 Q89.5781,561.5 90.2031,561.2969 Q90.5625,561.1875 90.9688,560.8281 Q91.2344,560.625 91.375,560.5625 Q91.5156,560.5 91.6875,560.5 Q92.0156,560.5 92.25,560.7656 Q92.5,561.0156 92.5,561.375 Q92.5,561.7188 92.1563,562.125 Q91.6563,562.7188 90.8594,563.0469 Q89.8125,563.5 88.5313,563.5 Q87.0313,563.5 85.8281,562.9063 Q84.8594,562.4375 84.1719,561.4219 Q83.5,560.4063 83.5,559.2031 L83.5,558.1094 Q83.5,556.8594 84.0938,555.7656 Q84.7031,554.6719 85.75,554.0938 Q86.8125,553.5 88,553.5 Q88.7188,553.5 89.3438,553.75 Q89.9688,554 90.5,554.5 Z "/><ellipse cx="107.5" cy="557.5" fill="#84BE84" rx="3" ry="3" style="stroke: #038048; stroke-width: 1.0;"/><text fill="#000000" font-family="sans-serif" font-size="12" font-weight="bold" lengthAdjust="spacingAndGlyphs" textLength="24" x="113.5" y="562.9102">final</text><text fill="#000000" font-family="sans-serif" font-size="12" lengthAdjust="spacingAndGlyphs" textLength="117" x="140.5" y="562.9102">SpecificPluginFactory</text><line style="stroke: #D4AC0D; stroke-width: 1.5;" x1="74.5" x2="259.5" y1="574" y2="574"/><line style="stroke: #D4AC0D; stroke-width: 1.5;" x1="74.5" x2="259.5" y1="582" y2="582"/><polygon fill="#FFFF44" points="84.5,588,88.5,592,84.5,596,80.5,592" style="stroke: #B38D22; stroke-width: 1.0;"/><text fill="#000000" font-family="sans-serif" font-size="11" lengthAdjust="spacingAndGlyphs" textLength="109" x="93.5" y="597.4189">String getPluginName()</text><polygon fill="#FFFF44" points="84.5,601.8359,88.5,605.8359,84.5,609.8359,80.5,605.8359" style="stroke: #B38D22; stroke-width: 1.0;"/><text fill="#000000" font-family="sans-serif" font-size="11" lengthAdjust="spacingAndGlyphs" textLength="158" x="93.5" y="611.2549">ReaderPlugin getPluginInstance()</text><!--MD5=[0f8b8cab079f94c46492aeaa0dde1551]
class SpecificPlugin--><rect fill="#FEFECE" height="111.5313" id="SpecificPlugin" style="stroke: #D4AC0D; stroke-width: 1.5;" width="160" x="340" y="524"/><ellipse cx="372.55" cy="544.0938" fill="#ADD1B2" rx="11" ry="11" style="stroke: #ADD1B2; stroke-width: 1.0;"/><path d="M374.55,540.5938 Q374.7531,540.0938 374.9875,539.8438 Q375.2219,539.5938 375.4875,539.5938 Q375.9563,539.5938 376.2531,539.875 Q376.55,540.1563 376.55,540.8125 L376.55,542.375 Q376.55,543.0313 376.2688,543.3125 Q375.9875,543.5938 375.55,543.5938 Q375.1594,543.5938 374.9094,543.4219 Q374.6594,543.25 374.55,542.7969 Q374.5031,542.4844 374.3313,542.3125 Q374.0188,541.9844 373.4563,541.7969 Q372.8938,541.5938 372.3313,541.5938 Q371.6281,541.5938 371.0344,541.875 Q370.4563,542.1563 370.0031,542.7813 Q369.55,543.4063 369.55,544.2656 L369.55,545.1875 Q369.55,546.2188 370.3938,546.9063 Q371.2375,547.5938 372.7375,547.5938 Q373.6281,547.5938 374.2531,547.3906 Q374.6125,547.2813 375.0188,546.9219 Q375.2844,546.7188 375.425,546.6563 Q375.5656,546.5938 375.7375,546.5938 Q376.0656,546.5938 376.3,546.8594 Q376.55,547.1094 376.55,547.4688 Q376.55,547.8125 376.2063,548.2188 Q375.7063,548.8125 374.9094,549.1406 Q373.8625,549.5938 372.5813,549.5938 Q371.0813,549.5938 369.8781,549 Q368.9094,548.5313 368.2219,547.5156 Q367.55,546.5 367.55,545.2969 L367.55,544.2031 Q367.55,542.9531 368.1438,541.8594 Q368.7531,540.7656 369.8,540.1875 Q370.8625,539.5938 372.05,539.5938 Q372.7688,539.5938 373.3938,539.8438 Q374.0188,540.0938 374.55,540.5938 Z "/><text fill="#000000" font-family="sans-serif" font-size="12" font-style="italic" lengthAdjust="spacingAndGlyphs" textLength="66" x="401.95" y="541.457">«Singleton»</text><polygon fill="#4177AF" points="395.45,547.1406,391.45,553.1406,399.45,553.1406" style="stroke: #1963A0; stroke-width: 1.0;"/><text fill="#000000" font-family="sans-serif" font-size="12" lengthAdjust="spacingAndGlyphs" textLength="78" x="401.45" y="556.5508">SpecificPlugin</text><line style="stroke: #D4AC0D; stroke-width: 1.5;" x1="341" x2="499" y1="564.1875" y2="564.1875"/><rect fill="none" height="6" style="stroke: #C82930; stroke-width: 1.0;" width="6" x="348" y="572.1875"/><text fill="#000000" font-family="sans-serif" font-size="11" lengthAdjust="spacingAndGlyphs" textLength="57" x="360" y="579.6064">String name</text><line style="stroke: #D4AC0D; stroke-width: 1.5;" x1="341" x2="499" y1="586.0234" y2="586.0234"/><rect fill="#F24D5C" height="6" style="stroke: #C82930; stroke-width: 1.0;" width="6" x="348" y="594.0234"/><text fill="#000000" font-family="sans-serif" font-size="11" lengthAdjust="spacingAndGlyphs" textLength="75" x="360" y="601.4424">SpecificPlugin()</text><ellipse cx="351" cy="610.8594" fill="#84BE84" rx="3" ry="3" style="stroke: #038048; stroke-width: 1.0;"/><text fill="#000000" font-family="sans-serif" font-size="11" lengthAdjust="spacingAndGlyphs" text-decoration="underline" textLength="134" x="360" y="615.2783">SpecificPlugin getInstance()</text><ellipse cx="351" cy="624.6953" fill="#84BE84" rx="3" ry="3" style="stroke: #038048; stroke-width: 1.0;"/><text fill="#000000" font-family="sans-serif" font-size="11" font-weight="bold" lengthAdjust="spacingAndGlyphs" textLength="23" x="360" y="629.1143">final</text><text fill="#000000" font-family="sans-serif" font-size="11" lengthAdjust="spacingAndGlyphs" textLength="81" x="386" y="629.1143">String getName()</text><!--MD5=[4ab0a37e4eea002adccb7015b38062eb]
class SpecificReader--><rect fill="#FEFECE" height="89.5078" id="SpecificReader" style="stroke: #D4AC0D; stroke-width: 1.5;" width="133" x="579.5" y="535"/><ellipse cx="597.2" cy="551" fill="#ADD1B2" rx="11" ry="11" style="stroke: #ADD1B2; stroke-width: 1.0;"/><path d="M599.2,547.5 Q599.4031,547 599.6375,546.75 Q599.8719,546.5 600.1375,546.5 Q600.6063,546.5 600.9031,546.7813 Q601.2,547.0625 601.2,547.7188 L601.2,549.2813 Q601.2,549.9375 600.9188,550.2188 Q600.6375,550.5 600.2,550.5 Q599.8094,550.5 599.5594,550.3281 Q599.3094,550.1563 599.2,549.7031 Q599.1531,549.3906 598.9813,549.2188 Q598.6688,548.8906 598.1063,548.7031 Q597.5438,548.5 596.9813,548.5 Q596.2781,548.5 595.6844,548.7813 Q595.1063,549.0625 594.6531,549.6875 Q594.2,550.3125 594.2,551.1719 L594.2,552.0938 Q594.2,553.125 595.0438,553.8125 Q595.8875,554.5 597.3875,554.5 Q598.2781,554.5 598.9031,554.2969 Q599.2625,554.1875 599.6688,553.8281 Q599.9344,553.625 600.075,553.5625 Q600.2156,553.5 600.3875,553.5 Q600.7156,553.5 600.95,553.7656 Q601.2,554.0156 601.2,554.375 Q601.2,554.7188 600.8563,555.125 Q600.3563,555.7188 599.5594,556.0469 Q598.5125,556.5 597.2313,556.5 Q595.7313,556.5 594.5281,555.9063 Q593.5594,555.4375 592.8719,554.4219 Q592.2,553.4063 592.2,552.2031 L592.2,551.1094 Q592.2,549.8594 592.7938,548.7656 Q593.4031,547.6719 594.45,547.0938 Q595.5125,546.5 596.7,546.5 Q597.4188,546.5 598.0438,546.75 Q598.6688,547 599.2,547.5 Z "/><polygon fill="#4177AF" points="616.8,546.5,612.8,552.5,620.8,552.5" style="stroke: #1963A0; stroke-width: 1.0;"/><text fill="#000000" font-family="sans-serif" font-size="12" lengthAdjust="spacingAndGlyphs" textLength="84" x="622.8" y="555.9102">SpecificReader</text><line style="stroke: #D4AC0D; stroke-width: 1.5;" x1="580.5" x2="711.5" y1="567" y2="567"/><rect fill="none" height="6" style="stroke: #C82930; stroke-width: 1.0;" width="6" x="587.5" y="575"/><text fill="#000000" font-family="sans-serif" font-size="11" lengthAdjust="spacingAndGlyphs" textLength="57" x="599.5" y="582.4189">String name</text><line style="stroke: #D4AC0D; stroke-width: 1.5;" x1="580.5" x2="711.5" y1="588.8359" y2="588.8359"/><polygon fill="#FFFF44" points="590.5,594.8359,594.5,598.8359,590.5,602.8359,586.5,598.8359" style="stroke: #B38D22; stroke-width: 1.0;"/><text fill="#000000" font-family="sans-serif" font-size="11" lengthAdjust="spacingAndGlyphs" textLength="82" x="599.5" y="604.2549">SpecificReader()</text><ellipse cx="590.5" cy="613.6719" fill="#84BE84" rx="3" ry="3" style="stroke: #038048; stroke-width: 1.0;"/><text fill="#000000" font-family="sans-serif" font-size="11" font-weight="bold" lengthAdjust="spacingAndGlyphs" textLength="23" x="599.5" y="618.0908">final</text><text fill="#000000" font-family="sans-serif" font-size="11" lengthAdjust="spacingAndGlyphs" textLength="81" x="625.5" y="618.0908">String getName()</text><!--MD5=[98fb93546a7dc75f66b7a26283e02bb5]
link SeProxyService to ReaderPlugin--><path d="M353.4583,251.5639 C353.4583,251.5639 378.024,295.103 388.531,313.725 " fill="none" id="SeProxyService-ReaderPlugin" style="stroke: #A80036; stroke-width: 1.0;"/><polygon fill="#A80036" points="395.024,325.234,394.0852,315.43,392.567,320.8793,387.1177,319.3612,395.024,325.234" style="stroke: #A80036; stroke-width: 1.0;"/><line style="stroke: #A80036; stroke-width: 1.0;" x1="392.567" x2="388.636" y1="320.8793" y2="313.912"/><polygon fill="#A80036" points="347.561,241.113,347.026,248.3042,353.4583,251.5639,353.9933,244.3727,347.561,241.113" style="stroke: #A80036; stroke-width: 1.0;"/><text fill="#000000" font-family="sans-serif" font-size="13" lengthAdjust="spacingAndGlyphs" textLength="41" x="374" y="285.4951">plugins</text><text fill="#000000" font-family="sans-serif" font-size="13" lengthAdjust="spacingAndGlyphs" textLength="7" x="344.1641" y="262.1827">1</text><text fill="#000000" font-family="sans-serif" font-size="13" lengthAdjust="spacingAndGlyphs" textLength="5" x="385.8167" y="314.6374">*</text><!--MD5=[628c6eb29572115a3ae82dff7e7e6b47]
link SeProxyService to AbstractPluginFactory--><path d="M222.8095,250.7231 C222.8095,250.7231 185.191,301.036 169.75,321.687 " fill="none" id="SeProxyService-AbstractPluginFactory" style="stroke: #A80036; stroke-width: 1.0;"/><polygon fill="#A80036" points="161.76,332.373,170.3532,327.5609,164.7544,328.3688,163.9465,322.7699,161.76,332.373" style="stroke: #A80036; stroke-width: 1.0;"/><line style="stroke: #A80036; stroke-width: 1.0;" x1="164.7544" x2="169.545" y1="328.3688" y2="321.961"/><polygon fill="#A80036" points="229.996,241.113,223.1994,243.5226,222.8095,250.7231,229.6061,248.3136,229.996,241.113" style="stroke: #A80036; stroke-width: 1.0;"/><text fill="#000000" font-family="sans-serif" font-size="13" lengthAdjust="spacingAndGlyphs" textLength="50" x="207" y="285.4951">registers</text><text fill="#000000" font-family="sans-serif" font-size="13" lengthAdjust="spacingAndGlyphs" textLength="7" x="217.598" y="262.1827">1</text><text fill="#000000" font-family="sans-serif" font-size="13" lengthAdjust="spacingAndGlyphs" textLength="5" x="161.2594" y="321.7123">*</text><!--MD5=[c88fac8de0d16551763276c4b9088a93]
link ReaderPlugin to SeReader--><path d="M542.458,370.5 C542.458,370.5 578.697,370.5 596.679,370.5 " fill="none" id="ReaderPlugin-SeReader" style="stroke: #A80036; stroke-width: 1.0;"/><polygon fill="#A80036" points="609.771,370.5,600.771,366.5,604.771,370.5,600.771,374.5,609.771,370.5" style="stroke: #A80036; stroke-width: 1.0;"/><line style="stroke: #A80036; stroke-width: 1.0;" x1="604.771" x2="596.771" y1="370.5" y2="370.5"/><polygon fill="#A80036" points="530.458,370.5,536.458,374.5,542.458,370.5,536.458,366.5,530.458,370.5" style="stroke: #A80036; stroke-width: 1.0;"/><text fill="#000000" font-family="sans-serif" font-size="13" lengthAdjust="spacingAndGlyphs" textLength="43" x="548.5" y="363.9951">readers</text><text fill="#000000" font-family="sans-serif" font-size="13" lengthAdjust="spacingAndGlyphs" textLength="7" x="538.1146" y="367.486">1</text><text fill="#000000" font-family="sans-serif" font-size="13" lengthAdjust="spacingAndGlyphs" textLength="5" x="596.9442" y="367.6328">*</text><!--MD5=[ed432611766c8e88b892041f7da1367f]
link AbstractPluginFactory to ReaderPlugin--><path d="M230.029,370.5 C253.967,370.5 279.879,370.5 304.642,370.5 " fill="none" id="AbstractPluginFactory-&gt;ReaderPlugin" style="stroke: #A80036; stroke-width: 1.0;"/><polygon fill="#A80036" points="309.908,370.5,300.908,366.5,304.908,370.5,300.908,374.5,309.908,370.5" style="stroke: #A80036; stroke-width: 1.0;"/><text fill="#000000" font-family="sans-serif" font-size="13" lengthAdjust="spacingAndGlyphs" textLength="43" x="248.5" y="363.9951">creates</text><text fill="#000000" font-family="sans-serif" font-size="13" lengthAdjust="spacingAndGlyphs" textLength="7" x="237.9602" y="367.3847">1</text><text fill="#000000" font-family="sans-serif" font-size="13" lengthAdjust="spacingAndGlyphs" textLength="7" x="294.9211" y="367.4623">1</text><!--MD5=[606af266cb1c3ee5489afec7c4e81055]
link SpecificPluginFactory to SpecificPlugin--><path d="M260.848,580 C285.005,580 310.868,580 334.572,580 " fill="none" id="SpecificPluginFactory-&gt;SpecificPlugin" style="stroke: #A80036; stroke-width: 1.0;"/><polygon fill="#A80036" points="339.596,580,330.596,576,334.596,580,330.596,584,339.596,580" style="stroke: #A80036; stroke-width: 1.0;"/><text fill="#000000" font-family="sans-serif" font-size="13" lengthAdjust="spacingAndGlyphs" textLength="43" x="278.75" y="573.4951">creates</text><text fill="#000000" font-family="sans-serif" font-size="13" lengthAdjust="spacingAndGlyphs" textLength="7" x="268.6054" y="576.8847">1</text><text fill="#000000" font-family="sans-serif" font-size="13" lengthAdjust="spacingAndGlyphs" textLength="7" x="325.1233" y="576.8191">1</text><!--MD5=[c0f848f1ce686e4cacbc8a0551faf0fe]
link SpecificPlugin to SpecificReader--><path d="M512.315,580 C512.315,580 549.219,580 566.27,580 " fill="none" id="SpecificPlugin-SpecificReader" style="stroke: #A80036; stroke-width: 1.0;"/><polygon fill="#A80036" points="579.367,580,570.367,576,574.367,580,570.367,584,579.367,580" style="stroke: #A80036; stroke-width: 1.0;"/><line style="stroke: #A80036; stroke-width: 1.0;" x1="574.367" x2="566.367" y1="580" y2="579.9999"/><polygon fill="#A80036" points="500.315,580,506.315,584,512.315,580,506.315,576,500.315,580" style="stroke: #A80036; stroke-width: 1.0;"/><text fill="#000000" font-family="sans-serif" font-size="13" lengthAdjust="spacingAndGlyphs" textLength="43" x="518.25" y="573.4951">readers</text><text fill="#000000" font-family="sans-serif" font-size="13" lengthAdjust="spacingAndGlyphs" textLength="7" x="508.0417" y="576.7954">1</text><text fill="#000000" font-family="sans-serif" font-size="13" lengthAdjust="spacingAndGlyphs" textLength="5" x="566.3735" y="576.6189">*</text><!--MD5=[5e2e42b3428cab7eb3f2532a1d684e48]
reverse link AbstractPluginFactory to SpecificPluginFactory--><path d="M143.079,428.59 C148.826,464.722 156.089,510.392 161.096,541.875 " fill="none" id="AbstractPluginFactory&lt;-SpecificPluginFactory" style="stroke: #A80036; stroke-width: 1.0;"/><polygon fill="none" points="136.128,429.448,139.9,408.597,149.954,427.249,136.128,429.448" style="stroke: #A80036; stroke-width: 1.0;"/><text fill="#000000" font-family="sans-serif" font-size="13" lengthAdjust="spacingAndGlyphs" textLength="46" x="151" y="468.4951">extends</text><!--MD5=[7c148b1c73f50606d6f270d6e2289f39]
reverse link ReaderPlugin to SpecificPlugin--><path d="M420,435.597 C420,463.884 420,496.799 420,523.956 " fill="none" id="ReaderPlugin&lt;-SpecificPlugin" style="stroke: #A80036; stroke-width: 1.0; stroke-dasharray: 7.0,7.0;"/><polygon fill="none" points="413,435.505,420,415.505,427,435.505,413,435.505" style="stroke: #A80036; stroke-width: 1.0;"/><text fill="#000000" font-family="sans-serif" font-size="13" lengthAdjust="spacingAndGlyphs" textLength="67" x="421" y="468.4951">implements</text><!--MD5=[4afba5938fcadf10f22a5ff47d317fb7]
reverse link SeReader to SpecificReader--><path d="M736.349,439.094 C716.076,470.486 692.544,506.926 674.579,534.746 " fill="none" id="SeReader&lt;-SpecificReader" style="stroke: #A80036; stroke-width: 1.0; stroke-dasharray: 7.0,7.0;"/><polygon fill="none" points="730.49,435.264,747.22,422.26,742.25,442.859,730.49,435.264" style="stroke: #A80036; stroke-width: 1.0;"/><text fill="#000000" font-family="sans-serif" font-size="13" lengthAdjust="spacingAndGlyphs" textLength="67" x="726" y="468.4951">implements</text><!--MD5=[b270306ea851b5a3aa320bda7754ada0]
@startuml
skinparam ClassBorderColor #D4AC0D
skinparam stereotypeABorderColor #A9DCDF
skinparam stereotypeIBorderColor #B4A7E5
skinparam stereotypeCBorderColor #ADD1B2
skinparam stereotypeEBorderColor #EB93DF
skinparam shadowing false

skinparam StateBorderColor #D4AC0D
skinparam ActivityBorderColor #D4AC0D

skinparam ClassBackgroundColor<<red>> #FDEDEC
skinparam ClassBorderColor<<red>> #E74C3C
hide <<red>> stereotype
skinparam ClassBackgroundColor<<purple>> #F4ECF7
skinparam ClassBorderColor<<purple>> #8E44AD
hide <<purple>> stereotype
skinparam ClassBackgroundColor<<blue>> #EBF5FB
skinparam ClassBorderColor<<blue>> #3498DB
hide <<blue>> stereotype
skinparam ClassBackgroundColor<<green>> #EAFAF1
skinparam ClassBorderColor<<green>> #2ECC71
hide <<green>> stereotype
skinparam ClassBackgroundColor<<grey>> #EAECEE
skinparam ClassBorderColor<<grey>> #2C3E50
hide <<grey>> stereotype

package org.eclipse.keyple.core.seproxy #FFFFFF {

+class "<b>final</b> SeProxyService" as SeProxyService << Singleton >> {
  +{static}SeProxyService getInstance()
  +String getVersion()

  +registerPlugin(AbstractPluginFactory pluginFactory)
  +boolean isRegistered(String pluginName)
  +boolean unregisterPlugin(String pluginName)

  +ReaderPlugin getPlugin(String name)
  +SortedSet<ReaderPlugin> getPlugins()
}
+abstract AbstractPluginFactory {
  {abstract} #String getPluginName()
  {abstract} #ReaderPlugin getPluginInstance()
}
+interface ReaderPlugin {
  +SortedSet<String> getReaderNames()
  +SeReader getReader(String name)
  +Set<? extends SeReader> getReaders()
}
+interface SeReader {
  +boolean isSePresent()
  +addSeProtocolSetting(SeProtocol seProtocol, String protocolRule)
  +setSeProtocolSetting(Map<SeProtocol, String> protocolSetting)
  +TransmissionMode getTransmissionMode()
}

  SeProxyService "1" *-down-> "*" ReaderPlugin : plugins
  SeProxyService "1" *- -> "*" AbstractPluginFactory : registers
  ReaderPlugin "1" *-right-> "*" SeReader : readers
  AbstractPluginFactory "1" -right-> "1" ReaderPlugin : creates
}

package plugin.specific #D7BDE2 {
  +class "<b>final</b> SpecificPluginFactory" as SpecificPluginFactory {
    #String getPluginName()
    #ReaderPlugin getPluginInstance()
  }

  ~class SpecificPlugin << Singleton >> {
    -String name
    -SpecificPlugin()
    +{static} SpecificPlugin getInstance()
    +<b>final</b> String getName()
  }

  ~class SpecificReader {
    -String name
    #SpecificReader()
    +<b>final</b> String getName()
  }

  SpecificPluginFactory "1" -right-> "1" SpecificPlugin : creates
  SpecificPlugin "1" *-right-> "*" SpecificReader : readers
}

AbstractPluginFactory <|- - SpecificPluginFactory : extends
ReaderPlugin <|.. SpecificPlugin : implements
SeReader <|.. SpecificReader : implements
@enduml

PlantUML version 1.2020.09(Sun May 10 14:51:06 MUT 2020)
(GPL source distribution)
Java Runtime: OpenJDK Runtime Environment
JVM: OpenJDK 64-Bit Server VM
Java Version: 11.0.6+8-b765.40
Operating System: Windows 10
Default Encoding: Cp1252
Language: fr
Country: FR
--></g></svg>