<?xml version="1.0" encoding="UTF-8" standalone="no"?><svg xmlns="http://www.w3.org/2000/svg" xmlns:xlink="http://www.w3.org/1999/xlink" contentScriptType="application/ecmascript" contentStyleType="text/css" height="1111.2px" preserveAspectRatio="none" style="width:848px;height:1111px;" version="1.1" viewBox="0 0 848 1111" width="848.4px" zoomAndPan="magnify"><defs/><g><!--MD5=[3f544705c2d16c925a2869dc8b1fd45c]
cluster org.eclipse.keyple.core.seproxy.event--><polygon fill="#FFFFFF" points="26.4,28.8,357.6,28.8,366,57.1313,822,57.1313,822,1096.8,26.4,1096.8,26.4,28.8" style="stroke: #000000; stroke-width: 1.7999999999999998;"/><line style="stroke: #000000; stroke-width: 1.7999999999999998;" x1="26.4" x2="366" y1="57.1313" y2="57.1313"/><text fill="#000000" font-family="sans-serif" font-size="16.8" font-weight="bold" lengthAdjust="spacingAndGlyphs" textLength="324" x="31.2" y="48.6398">org.eclipse.keyple.core.seproxy.event</text><!--MD5=[071fb05b602bfdbfba7de3999663c7de]
class EventType_Reader--><rect fill="#FEFECE" height="157.2188" id="EventType_Reader" style="stroke: #D4AC0D; stroke-width: 1.7999999999999998;" width="170.4" x="430.8" y="72"/><ellipse cx="472.02" cy="91.2" fill="#EB937F" rx="13.2" ry="13.2" style="stroke: #EB93DF; stroke-width: 1.2;"/><path d="M470.22,92.4 L470.22,94.8 L475.02,94.8 L475.02,93.6 L475.02,93.0188 L475.77,92.4 L476.22,92.4 L476.67,92.4 L477.42,93.0188 L477.42,93.6 L477.42,97.2 L467.82,97.2 L467.2388,97.2 L466.62,96.45 L466.62,96 L466.62,95.55 L467.2388,94.8 L467.82,94.8 L467.82,94.8 L467.82,87.6 L467.82,87.6 L467.2388,87.6 L466.62,86.85 L466.62,86.4 L466.62,85.95 L467.2388,85.2 L467.82,85.2 L477.42,85.2 L477.42,88.8 L477.42,89.3813 L476.67,90 L476.22,90 L475.77,90 L475.02,89.3813 L475.02,88.8 L475.02,87.6 L470.22,87.6 L470.22,90 L471.42,90 L471.42,89.4188 L471.42,89.4188 L472.17,88.8 L472.62,88.8 L473.07,88.8 L473.82,89.4188 L473.82,90 L473.82,92.4 L473.82,92.9813 L473.07,93.6 L473.07,93.6 L472.62,93.6 L472.17,93.6 L471.42,92.9813 L471.42,92.9813 L471.42,92.4 L470.22,92.4 Z "/><ellipse cx="499.98" cy="90.6" fill="#84BE84" rx="3.6" ry="3.6" style="stroke: #038048; stroke-width: 1.2;"/><text fill="#000000" font-family="sans-serif" font-size="14.4" lengthAdjust="spacingAndGlyphs" textLength="67.2" x="507.18" y="97.0922">EventType</text><line style="stroke: #D4AC0D; stroke-width: 1.7999999999999998;" x1="432" x2="600" y1="110.4" y2="110.4"/><text fill="#000000" font-family="sans-serif" font-size="13.2" lengthAdjust="spacingAndGlyphs" textLength="61.2" x="438" y="128.9027">IO_ERROR</text><text fill="#000000" font-family="sans-serif" font-size="13.2" lengthAdjust="spacingAndGlyphs" textLength="80.4" x="438" y="145.5059">SE_INSERTED</text><text fill="#000000" font-family="sans-serif" font-size="13.2" lengthAdjust="spacingAndGlyphs" textLength="81.6" x="438" y="162.109">SE_MATCHED</text><text fill="#000000" font-family="sans-serif" font-size="13.2" lengthAdjust="spacingAndGlyphs" textLength="84" x="438" y="178.7121">SE_REMOVAL</text><line style="stroke: #D4AC0D; stroke-width: 1.7999999999999998;" x1="432" x2="600" y1="186.4125" y2="186.4125"/><ellipse cx="444" cy="199.6125" fill="#84BE84" rx="3.6" ry="3.6" style="stroke: #038048; stroke-width: 1.2;"/><text fill="#000000" font-family="sans-serif" font-size="13.2" lengthAdjust="spacingAndGlyphs" textLength="139.2" x="454.8" y="204.9152">EventType(String name)</text><ellipse cx="444" cy="216.2156" fill="#84BE84" rx="3.6" ry="3.6" style="stroke: #038048; stroke-width: 1.2;"/><text fill="#000000" font-family="sans-serif" font-size="13.2" lengthAdjust="spacingAndGlyphs" textLength="97.2" x="454.8" y="221.5184">String getName()</text><!--MD5=[9a5f54023274c57ee24edb1ade6872b1]
class ReaderEvent--><rect fill="#FEFECE" height="173.8219" id="ReaderEvent" style="stroke: #D4AC0D; stroke-width: 1.7999999999999998;" width="454.8" x="288.6" y="322.8"/><ellipse cx="445.5" cy="342" fill="#ADD1B2" rx="13.2" ry="13.2" style="stroke: #ADD1B2; stroke-width: 1.2;"/><path d="M447.9,337.8 Q448.1438,337.2 448.425,336.9 Q448.7063,336.6 449.025,336.6 Q449.5875,336.6 449.9437,336.9375 Q450.3,337.275 450.3,338.0625 L450.3,339.9375 Q450.3,340.725 449.9625,341.0625 Q449.625,341.4 449.1,341.4 Q448.6312,341.4 448.3313,341.1937 Q448.0313,340.9875 447.9,340.4437 Q447.8438,340.0687 447.6375,339.8625 Q447.2625,339.4688 446.5875,339.2438 Q445.9125,339 445.2375,339 Q444.3938,339 443.6813,339.3375 Q442.9875,339.675 442.4437,340.425 Q441.9,341.175 441.9,342.2063 L441.9,343.3125 Q441.9,344.55 442.9125,345.375 Q443.925,346.2 445.725,346.2 Q446.7938,346.2 447.5438,345.9563 Q447.975,345.825 448.4625,345.3938 Q448.7813,345.15 448.95,345.075 Q449.1188,345 449.325,345 Q449.7188,345 450,345.3187 Q450.3,345.6188 450.3,346.05 Q450.3,346.4625 449.8875,346.95 Q449.2875,347.6625 448.3313,348.0563 Q447.075,348.6 445.5375,348.6 Q443.7375,348.6 442.2938,347.8875 Q441.1312,347.325 440.3063,346.1063 Q439.5,344.8875 439.5,343.4437 L439.5,342.1312 Q439.5,340.6312 440.2125,339.3187 Q440.9437,338.0062 442.2,337.3125 Q443.475,336.6 444.9,336.6 Q445.7625,336.6 446.5125,336.9 Q447.2625,337.2 447.9,337.8 Z "/><ellipse cx="476.1" cy="341.4" fill="#84BE84" rx="3.6" ry="3.6" style="stroke: #038048; stroke-width: 1.2;"/><text fill="#000000" font-family="sans-serif" font-size="14.4" font-weight="bold" lengthAdjust="spacingAndGlyphs" textLength="28.8" x="483.3" y="347.8922">final</text><text fill="#000000" font-family="sans-serif" font-size="14.4" lengthAdjust="spacingAndGlyphs" textLength="85.2" x="515.7" y="347.8922">ReaderEvent</text><line style="stroke: #D4AC0D; stroke-width: 1.7999999999999998;" x1="289.8" x2="742.2" y1="361.2" y2="361.2"/><line style="stroke: #D4AC0D; stroke-width: 1.7999999999999998;" x1="289.8" x2="742.2" y1="370.8" y2="370.8"/><ellipse cx="301.8" cy="384" fill="#84BE84" rx="3.6" ry="3.6" style="stroke: #038048; stroke-width: 1.2;"/><text fill="#000000" font-family="sans-serif" font-size="13.2" lengthAdjust="spacingAndGlyphs" textLength="366" x="312.6" y="389.3027">ReaderEvent(String pluginName, String readerName, EventType</text><text fill="#000000" font-family="sans-serif" font-size="13.2" lengthAdjust="spacingAndGlyphs" textLength="423.6" x="312.6" y="405.9059">eventType, DefaultSelectionsResponse[0..1] defaultSelectionsResponse)</text><text fill="#000000" font-family="sans-serif" font-size="13.2" lengthAdjust="spacingAndGlyphs" textLength="0" x="316.2" y="422.509"/><ellipse cx="301.8" cy="433.8094" fill="#84BE84" rx="3.6" ry="3.6" style="stroke: #038048; stroke-width: 1.2;"/><text fill="#000000" font-family="sans-serif" font-size="13.2" lengthAdjust="spacingAndGlyphs" textLength="130.8" x="312.6" y="439.1121">String getPluginName()</text><ellipse cx="301.8" cy="450.4125" fill="#84BE84" rx="3.6" ry="3.6" style="stroke: #038048; stroke-width: 1.2;"/><text fill="#000000" font-family="sans-serif" font-size="13.2" lengthAdjust="spacingAndGlyphs" textLength="139.2" x="312.6" y="455.7152">String getReaderName()</text><ellipse cx="301.8" cy="467.0156" fill="#84BE84" rx="3.6" ry="3.6" style="stroke: #038048; stroke-width: 1.2;"/><text fill="#000000" font-family="sans-serif" font-size="13.2" lengthAdjust="spacingAndGlyphs" textLength="153.6" x="312.6" y="472.3184">EventType getEventType()</text><ellipse cx="301.8" cy="483.6188" fill="#84BE84" rx="3.6" ry="3.6" style="stroke: #038048; stroke-width: 1.2;"/><text fill="#000000" font-family="sans-serif" font-size="13.2" lengthAdjust="spacingAndGlyphs" textLength="400.8" x="312.6" y="488.9215">AbstractDefaultSelectionsResponse getDefaultSelectionsResponse()</text><!--MD5=[35b709ead7a86e7b2780a25fdb99ded4]
class ReaderObserver--><rect fill="#FEFECE" height="74.2031" id="ReaderObserver" style="stroke: #D4AC0D; stroke-width: 1.7999999999999998;" width="190.8" x="148.2" y="113.4"/><ellipse cx="179.16" cy="132.6" fill="#B4A7E5" rx="13.2" ry="13.2" style="stroke: #B4A7E5; stroke-width: 1.2;"/><path d="M180.36,129 L180.36,136.2 L182.76,136.2 L183.3413,136.2 L183.96,136.95 L183.96,137.4 L183.96,137.85 L183.3413,138.6 L182.76,138.6 L175.56,138.6 L174.9788,138.6 L174.36,137.85 L174.36,137.4 L174.36,136.95 L174.9788,136.2 L175.56,136.2 L177.96,136.2 L177.96,129 L175.56,129 L174.9788,129 L174.36,128.25 L174.36,127.8 L174.36,127.35 L174.9788,126.6 L175.56,126.6 L182.76,126.6 L183.3413,126.6 L183.96,127.35 L183.96,127.8 L183.96,128.25 L183.3413,129 L182.76,129 L180.36,129 Z "/><ellipse cx="204.84" cy="132" fill="#84BE84" rx="3.6" ry="3.6" style="stroke: #038048; stroke-width: 1.2;"/><text fill="#000000" font-family="sans-serif" font-size="14.4" font-style="italic" lengthAdjust="spacingAndGlyphs" textLength="110.4" x="212.04" y="138.4922">ReaderObserver</text><line style="stroke: #D4AC0D; stroke-width: 1.7999999999999998;" x1="149.4" x2="337.8" y1="151.8" y2="151.8"/><line style="stroke: #D4AC0D; stroke-width: 1.7999999999999998;" x1="149.4" x2="337.8" y1="161.4" y2="161.4"/><ellipse cx="161.4" cy="174.6" fill="#84BE84" rx="3.6" ry="3.6" style="stroke: #038048; stroke-width: 1.2;"/><text fill="#000000" font-family="sans-serif" font-size="13.2" lengthAdjust="spacingAndGlyphs" textLength="159.6" x="172.2" y="179.9027">update(ReaderEvent event)</text><!--MD5=[b4b6a5721e02f7cea6ba89274ea67351]
class NotificationMode--><rect fill="#FEFECE" height="140.6156" id="NotificationMode" style="stroke: #D4AC0D; stroke-width: 1.7999999999999998;" width="225.6" x="56.4" y="937.2"/><ellipse cx="103.56" cy="956.4" fill="#EB937F" rx="13.2" ry="13.2" style="stroke: #EB93DF; stroke-width: 1.2;"/><path d="M101.76,957.6 L101.76,960 L106.56,960 L106.56,958.8 L106.56,958.2188 L107.31,957.6 L107.76,957.6 L108.21,957.6 L108.96,958.2188 L108.96,958.8 L108.96,962.4 L99.36,962.4 L98.7787,962.4 L98.16,961.65 L98.16,961.2 L98.16,960.75 L98.7787,960 L99.36,960 L99.36,960 L99.36,952.8 L99.36,952.8 L98.7787,952.8 L98.16,952.05 L98.16,951.6 L98.16,951.15 L98.7787,950.4 L99.36,950.4 L108.96,950.4 L108.96,954 L108.96,954.5813 L108.21,955.2 L107.76,955.2 L107.31,955.2 L106.56,954.5813 L106.56,954 L106.56,952.8 L101.76,952.8 L101.76,955.2 L102.96,955.2 L102.96,954.6188 L102.96,954.6188 L103.71,954 L104.16,954 L104.61,954 L105.36,954.6188 L105.36,955.2 L105.36,957.6 L105.36,958.1813 L104.61,958.8 L104.61,958.8 L104.16,958.8 L103.71,958.8 L102.96,958.1813 L102.96,958.1813 L102.96,957.6 L101.76,957.6 Z "/><ellipse cx="132.84" cy="955.8" fill="#84BE84" rx="3.6" ry="3.6" style="stroke: #038048; stroke-width: 1.2;"/><text fill="#000000" font-family="sans-serif" font-size="14.4" lengthAdjust="spacingAndGlyphs" textLength="109.2" x="140.04" y="962.2922">NotificationMode</text><line style="stroke: #D4AC0D; stroke-width: 1.7999999999999998;" x1="57.6" x2="280.8" y1="975.6" y2="975.6"/><text fill="#000000" font-family="sans-serif" font-size="13.2" lengthAdjust="spacingAndGlyphs" textLength="56.4" x="63.6" y="994.1027">ALWAYS</text><text fill="#000000" font-family="sans-serif" font-size="13.2" lengthAdjust="spacingAndGlyphs" textLength="100.8" x="63.6" y="1010.7059">MATCHED_ONLY</text><line style="stroke: #D4AC0D; stroke-width: 1.7999999999999998;" x1="57.6" x2="280.8" y1="1018.4063" y2="1018.4063"/><ellipse cx="69.6" cy="1031.6063" fill="#84BE84" rx="3.6" ry="3.6" style="stroke: #038048; stroke-width: 1.2;"/><text fill="#000000" font-family="sans-serif" font-size="13.2" lengthAdjust="spacingAndGlyphs" textLength="172.8" x="80.4" y="1036.909">NotificationMode(String name)</text><ellipse cx="69.6" cy="1048.2094" fill="#84BE84" rx="3.6" ry="3.6" style="stroke: #038048; stroke-width: 1.2;"/><text fill="#000000" font-family="sans-serif" font-size="13.2" lengthAdjust="spacingAndGlyphs" textLength="97.2" x="80.4" y="1053.5121">String getName()</text><ellipse cx="69.6" cy="1064.8125" fill="#84BE84" rx="3.6" ry="3.6" style="stroke: #038048; stroke-width: 1.2;"/><text fill="#000000" font-family="sans-serif" font-size="13.2" lengthAdjust="spacingAndGlyphs" text-decoration="underline" textLength="194.4" x="80.4" y="1070.1152">NotificationMode get(String name)</text><!--MD5=[4db98615c12e554c8946e39d7c0e78ca]
class PollingMode--><rect fill="#FEFECE" height="90.8062" id="PollingMode" style="stroke: #D4AC0D; stroke-width: 1.7999999999999998;" width="133.2" x="324.6" y="961.8"/><ellipse cx="342.6" cy="981" fill="#EB937F" rx="13.2" ry="13.2" style="stroke: #EB93DF; stroke-width: 1.2;"/><path d="M340.8,982.2 L340.8,984.6 L345.6,984.6 L345.6,983.4 L345.6,982.8187 L346.35,982.2 L346.8,982.2 L347.25,982.2 L348,982.8187 L348,983.4 L348,987 L338.4,987 L337.8187,987 L337.2,986.25 L337.2,985.8 L337.2,985.35 L337.8187,984.6 L338.4,984.6 L338.4,984.6 L338.4,977.4 L338.4,977.4 L337.8187,977.4 L337.2,976.65 L337.2,976.2 L337.2,975.75 L337.8187,975 L338.4,975 L348,975 L348,978.6 L348,979.1813 L347.25,979.8 L346.8,979.8 L346.35,979.8 L345.6,979.1813 L345.6,978.6 L345.6,977.4 L340.8,977.4 L340.8,979.8 L342,979.8 L342,979.2188 L342,979.2188 L342.75,978.6 L343.2,978.6 L343.65,978.6 L344.4,979.2188 L344.4,979.8 L344.4,982.2 L344.4,982.7813 L343.65,983.4 L343.65,983.4 L343.2,983.4 L342.75,983.4 L342,982.7813 L342,982.7813 L342,982.2 L340.8,982.2 Z "/><ellipse cx="365.4" cy="980.4" fill="#84BE84" rx="3.6" ry="3.6" style="stroke: #038048; stroke-width: 1.2;"/><text fill="#000000" font-family="sans-serif" font-size="14.4" lengthAdjust="spacingAndGlyphs" textLength="81.6" x="372.6" y="986.8922">PollingMode</text><line style="stroke: #D4AC0D; stroke-width: 1.7999999999999998;" x1="325.8" x2="456.6" y1="1000.2" y2="1000.2"/><text fill="#000000" font-family="sans-serif" font-size="13.2" lengthAdjust="spacingAndGlyphs" textLength="67.2" x="331.8" y="1018.7027">REPEATING</text><text fill="#000000" font-family="sans-serif" font-size="13.2" lengthAdjust="spacingAndGlyphs" textLength="76.8" x="331.8" y="1035.3059">SINGLESHOT</text><line style="stroke: #D4AC0D; stroke-width: 1.7999999999999998;" x1="325.8" x2="456.6" y1="1043.0063" y2="1043.0063"/><!--MD5=[e2341a3d5316e117132fc49473ae3219]
class ObservableReader--><rect fill="#FEFECE" height="273.4406" id="ObservableReader" style="stroke: #D4AC0D; stroke-width: 1.7999999999999998;" width="394.8" x="46.2" y="570"/><ellipse cx="168.3" cy="589.2" fill="#B4A7E5" rx="13.2" ry="13.2" style="stroke: #B4A7E5; stroke-width: 1.2;"/><path d="M169.5,585.6 L169.5,592.8 L171.9,592.8 L172.4813,592.8 L173.1,593.55 L173.1,594 L173.1,594.45 L172.4813,595.2 L171.9,595.2 L164.7,595.2 L164.1188,595.2 L163.5,594.45 L163.5,594 L163.5,593.55 L164.1188,592.8 L164.7,592.8 L167.1,592.8 L167.1,585.6 L164.7,585.6 L164.1188,585.6 L163.5,584.85 L163.5,584.4 L163.5,583.95 L164.1188,583.2 L164.7,583.2 L171.9,583.2 L172.4813,583.2 L173.1,583.95 L173.1,584.4 L173.1,584.85 L172.4813,585.6 L171.9,585.6 L169.5,585.6 Z "/><ellipse cx="198.9" cy="588.6" fill="#84BE84" rx="3.6" ry="3.6" style="stroke: #038048; stroke-width: 1.2;"/><text fill="#000000" font-family="sans-serif" font-size="14.4" font-style="italic" lengthAdjust="spacingAndGlyphs" textLength="127.2" x="206.1" y="595.0922">ObservableReader</text><line style="stroke: #D4AC0D; stroke-width: 1.7999999999999998;" x1="47.4" x2="439.8" y1="608.4" y2="608.4"/><text fill="#000000" font-family="sans-serif" font-size="13.2" lengthAdjust="spacingAndGlyphs" textLength="350.4" x="53.4" y="626.9027">defaultSelectionsRequest, NotificationMode notificationMode,</text><line style="stroke: #D4AC0D; stroke-width: 1.7999999999999998;" x1="47.4" x2="439.8" y1="634.6031" y2="634.6031"/><ellipse cx="59.4" cy="647.8031" fill="#84BE84" rx="3.6" ry="3.6" style="stroke: #038048; stroke-width: 1.2;"/><text fill="#000000" font-family="sans-serif" font-size="13.2" lengthAdjust="spacingAndGlyphs" textLength="240" x="70.2" y="653.1059">addObserver(ReaderObserver observer)</text><ellipse cx="59.4" cy="664.4063" fill="#84BE84" rx="3.6" ry="3.6" style="stroke: #038048; stroke-width: 1.2;"/><text fill="#000000" font-family="sans-serif" font-size="13.2" lengthAdjust="spacingAndGlyphs" textLength="261.6" x="70.2" y="669.709">removeObserver(ReaderObserver observer)</text><ellipse cx="59.4" cy="681.0094" fill="#84BE84" rx="3.6" ry="3.6" style="stroke: #038048; stroke-width: 1.2;"/><text fill="#000000" font-family="sans-serif" font-size="13.2" lengthAdjust="spacingAndGlyphs" textLength="214.8" x="70.2" y="686.3121">notifyObservers(ReaderEvent event)</text><text fill="#000000" font-family="sans-serif" font-size="13.2" lengthAdjust="spacingAndGlyphs" textLength="0" x="73.8" y="702.9152"/><ellipse cx="59.4" cy="714.2156" fill="#84BE84" rx="3.6" ry="3.6" style="stroke: #038048; stroke-width: 1.2;"/><text fill="#000000" font-family="sans-serif" font-size="13.2" lengthAdjust="spacingAndGlyphs" textLength="363.6" x="70.2" y="719.5184">setDefaultSelectionRequest(AbstractDefaultSelectionsRequest</text><text fill="#000000" font-family="sans-serif" font-size="13.2" lengthAdjust="spacingAndGlyphs" textLength="351.6" x="70.2" y="736.1215">defaultSelectionsRequest, NotificationMode notificationMode)</text><ellipse cx="59.4" cy="747.4219" fill="#84BE84" rx="3.6" ry="3.6" style="stroke: #038048; stroke-width: 1.2;"/><text fill="#000000" font-family="sans-serif" font-size="13.2" lengthAdjust="spacingAndGlyphs" textLength="363.6" x="70.2" y="752.7246">setDefaultSelectionRequest(AbstractDefaultSelectionsRequest</text><text fill="#000000" font-family="sans-serif" font-size="13.2" lengthAdjust="spacingAndGlyphs" textLength="142.8" x="70.2" y="769.3277">PollingMode pollingMode)</text><text fill="#000000" font-family="sans-serif" font-size="13.2" lengthAdjust="spacingAndGlyphs" textLength="0" x="73.8" y="785.9309"/><ellipse cx="59.4" cy="797.2312" fill="#84BE84" rx="3.6" ry="3.6" style="stroke: #038048; stroke-width: 1.2;"/><text fill="#000000" font-family="sans-serif" font-size="13.2" lengthAdjust="spacingAndGlyphs" textLength="243.6" x="70.2" y="802.534">startSeDetection(PollingMode pollingMode)</text><ellipse cx="59.4" cy="813.8344" fill="#84BE84" rx="3.6" ry="3.6" style="stroke: #038048; stroke-width: 1.2;"/><text fill="#000000" font-family="sans-serif" font-size="13.2" lengthAdjust="spacingAndGlyphs" textLength="104.4" x="70.2" y="819.1371">stopSeDetection()</text><ellipse cx="59.4" cy="830.4375" fill="#84BE84" rx="3.6" ry="3.6" style="stroke: #038048; stroke-width: 1.2;"/><text fill="#000000" font-family="sans-serif" font-size="13.2" lengthAdjust="spacingAndGlyphs" textLength="120" x="70.2" y="835.7402">notifySeProcessed()</text><ellipse cx="243.6" cy="409.8" fill="#000000" rx="2.4" ry="2.4" style="stroke: none; stroke-width: 1.2;"/><!--MD5=[cfa5e1a9c30861ac5ad043f1201ace69]
class AbstractDefaultSelectionsRequest--><rect fill="#FEFECE" height="57.6" id="AbstractDefaultSelectionsRequest" style="stroke: #D4AC0D; stroke-width: 1.7999999999999998;" width="264" x="538.8" y="678"/><ellipse cx="556.8" cy="697.2" fill="#ADD1B2" rx="13.2" ry="13.2" style="stroke: #ADD1B2; stroke-width: 1.2;"/><path d="M559.2,693 Q559.4438,692.4 559.725,692.1 Q560.0063,691.8 560.325,691.8 Q560.8875,691.8 561.2438,692.1375 Q561.6,692.475 561.6,693.2625 L561.6,695.1375 Q561.6,695.925 561.2625,696.2625 Q560.925,696.6 560.4,696.6 Q559.9313,696.6 559.6313,696.3938 Q559.3313,696.1875 559.2,695.6438 Q559.1438,695.2688 558.9375,695.0625 Q558.5625,694.6687 557.8875,694.4438 Q557.2125,694.2 556.5375,694.2 Q555.6938,694.2 554.9812,694.5375 Q554.2875,694.875 553.7438,695.625 Q553.2,696.375 553.2,697.4063 L553.2,698.5125 Q553.2,699.75 554.2125,700.575 Q555.225,701.4 557.025,701.4 Q558.0938,701.4 558.8438,701.1563 Q559.275,701.025 559.7625,700.5938 Q560.0813,700.35 560.25,700.275 Q560.4187,700.2 560.625,700.2 Q561.0188,700.2 561.3,700.5188 Q561.6,700.8188 561.6,701.25 Q561.6,701.6625 561.1875,702.15 Q560.5875,702.8625 559.6313,703.2563 Q558.375,703.8 556.8375,703.8 Q555.0375,703.8 553.5938,703.0875 Q552.4313,702.525 551.6062,701.3063 Q550.8,700.0875 550.8,698.6438 L550.8,697.3313 Q550.8,695.8313 551.5125,694.5188 Q552.2438,693.2063 553.5,692.5125 Q554.775,691.8 556.2,691.8 Q557.0625,691.8 557.8125,692.1 Q558.5625,692.4 559.2,693 Z "/><text fill="#000000" font-family="sans-serif" font-size="14.4" lengthAdjust="spacingAndGlyphs" textLength="225.6" x="573.6" y="703.0922">AbstractDefaultSelectionsRequest</text><line style="stroke: #D4AC0D; stroke-width: 1.7999999999999998;" x1="540" x2="801.6" y1="716.4" y2="716.4"/><line style="stroke: #D4AC0D; stroke-width: 1.7999999999999998;" x1="540" x2="801.6" y1="726" y2="726"/><!--MD5=[8f41c7e8d8e3ce316d782de639711bb6]
class AbstractDefaultSelectionsResponse--><rect fill="#FEFECE" height="57.6" id="AbstractDefaultSelectionsResponse" style="stroke: #D4AC0D; stroke-width: 1.7999999999999998;" width="277.2" x="504.6" y="978.6"/><ellipse cx="522.6" cy="997.8" fill="#ADD1B2" rx="13.2" ry="13.2" style="stroke: #ADD1B2; stroke-width: 1.2;"/><path d="M525,993.6 Q525.2438,993 525.525,992.7 Q525.8063,992.4 526.125,992.4 Q526.6875,992.4 527.0437,992.7375 Q527.4,993.075 527.4,993.8625 L527.4,995.7375 Q527.4,996.525 527.0625,996.8625 Q526.725,997.2 526.2,997.2 Q525.7312,997.2 525.4313,996.9938 Q525.1313,996.7875 525,996.2438 Q524.9438,995.8688 524.7375,995.6625 Q524.3625,995.2688 523.6875,995.0437 Q523.0125,994.8 522.3375,994.8 Q521.4938,994.8 520.7813,995.1375 Q520.0875,995.475 519.5437,996.225 Q519,996.975 519,998.0062 L519,999.1125 Q519,1000.35 520.0125,1001.175 Q521.025,1002 522.825,1002 Q523.8938,1002 524.6438,1001.7562 Q525.075,1001.625 525.5625,1001.1937 Q525.8813,1000.95 526.05,1000.875 Q526.2188,1000.8 526.425,1000.8 Q526.8188,1000.8 527.1,1001.1188 Q527.4,1001.4187 527.4,1001.85 Q527.4,1002.2625 526.9875,1002.75 Q526.3875,1003.4625 525.4313,1003.8562 Q524.175,1004.4 522.6375,1004.4 Q520.8375,1004.4 519.3938,1003.6875 Q518.2312,1003.125 517.4063,1001.9063 Q516.6,1000.6875 516.6,999.2438 L516.6,997.9313 Q516.6,996.4313 517.3125,995.1188 Q518.0437,993.8063 519.3,993.1125 Q520.575,992.4 522,992.4 Q522.8625,992.4 523.6125,992.7 Q524.3625,993 525,993.6 Z "/><text fill="#000000" font-family="sans-serif" font-size="14.4" lengthAdjust="spacingAndGlyphs" textLength="238.8" x="539.4" y="1003.6922">AbstractDefaultSelectionsResponse</text><line style="stroke: #D4AC0D; stroke-width: 1.7999999999999998;" x1="505.8" x2="780.6" y1="1017" y2="1017"/><line style="stroke: #D4AC0D; stroke-width: 1.7999999999999998;" x1="505.8" x2="780.6" y1="1026.6" y2="1026.6"/><!--MD5=[766d3442e39134c1882b7d68f6f3b242]
link EventType_Reader to ReaderEvent--><path d="M516,229.5456 C516,253.0704 516,279.2964 516,304.2636 " fill="none" id="EventType_Reader-&gt;ReaderEvent" style="stroke: #A80036; stroke-width: 1.2;"/><ellipse cx="516" cy="313.002" fill="#FFFFFF" rx="9.6" ry="9.6" style="stroke: #A80036; stroke-width: 1.2;"/><line style="stroke: #A80036; stroke-width: 1.2;" x1="516" x2="516" y1="303.402" y2="322.602"/><line style="stroke: #A80036; stroke-width: 1.2;" x1="525.6" x2="506.4" y1="313.002" y2="313.002"/><!--MD5=[ff05c798c0d0e38364e8144829ad24ca]
reverse link ObservableReader to NotificationMode--><path d="M205.2216,861.8232 C198.6312,888.2376 192.09,914.454 186.4272,937.152 " fill="none" id="ObservableReader&lt;-NotificationMode" style="stroke: #A80036; stroke-width: 1.2;"/><ellipse cx="207.3412" cy="853.3248" fill="#FFFFFF" rx="9.6" ry="9.6" style="stroke: #A80036; stroke-width: 1.2;"/><line style="stroke: #A80036; stroke-width: 1.2;" x1="205.0171" x2="209.6652" y1="862.6393" y2="844.0104"/><line style="stroke: #A80036; stroke-width: 1.2;" x1="198.0267" x2="216.6556" y1="851.0008" y2="855.6489"/><!--MD5=[aa7d23f4fc0db106291b229919ad88ab]
reverse link ObservableReader to PollingMode--><path d="M319.0572,860.4468 C337.3956,897.4968 355.5972,934.2708 369.1308,961.6116 " fill="none" id="ObservableReader&lt;-PollingMode" style="stroke: #A80036; stroke-width: 1.2;"/><ellipse cx="315.1793" cy="852.6144" fill="#FFFFFF" rx="9.6" ry="9.6" style="stroke: #A80036; stroke-width: 1.2;"/><line style="stroke: #A80036; stroke-width: 1.2;" x1="319.4374" x2="310.9212" y1="861.2184" y2="844.0104"/><line style="stroke: #A80036; stroke-width: 1.2;" x1="306.5753" x2="323.7833" y1="856.8725" y2="848.3563"/><!--MD5=[097e263a46ce4ce79a7a61d81475bc6b]
reverse link ReaderObserver to apoint13581--><path d="M243.6,203.8944 C243.6,273.9096 243.6,391.428 243.6,406.9008 " fill="none" id="ReaderObserver&lt;-apoint13581" style="stroke: #A80036; stroke-width: 1.2;"/><polygon fill="#FFFFFF" points="243.6,188.0484,238.8,195.2484,243.6,202.4484,248.4,195.2484,243.6,188.0484" style="stroke: #A80036; stroke-width: 1.2;"/><text fill="#000000" font-family="sans-serif" font-size="15.6" lengthAdjust="spacingAndGlyphs" textLength="61.2" x="244.8" y="282.5941">observes</text><polygon fill="#000000" points="270,293.2219,273.6,300.4219,277.2,293.2219,270,293.2219" style="stroke: #000000; stroke-width: 1.2;"/><text fill="#000000" font-family="sans-serif" font-size="15.6" lengthAdjust="spacingAndGlyphs" textLength="6" x="237.0281" y="213.2701">*</text><!--MD5=[a5733b819f935957014d09e94530ae83]
link apoint13581 to ObservableReader--><path d="M243.6,412.314 C243.6,422.1804 243.6,486.102 243.6,551.76 " fill="none" id="apoint13581-&gt;ObservableReader" style="stroke: #A80036; stroke-width: 1.2;"/><ellipse cx="243.6" cy="560.2236" fill="#FFFFFF" rx="9.6" ry="9.6" style="stroke: #A80036; stroke-width: 1.2;"/><line style="stroke: #A80036; stroke-width: 1.2;" x1="243.6" x2="243.6" y1="550.6236" y2="569.8236"/><line style="stroke: #A80036; stroke-width: 1.2;" x1="253.2" x2="234" y1="560.2236" y2="560.2236"/><text fill="#000000" font-family="sans-serif" font-size="15.6" lengthAdjust="spacingAndGlyphs" textLength="8.4" x="234.9178" y="556.9892">1</text><!--MD5=[d1b85a34e563e0d8e3798ee2a3104ba5]
link apoint13581 to ReaderEvent--><path d="M246.2604,409.8 C260.3088,409.8 274.3584,409.8 288.4068,409.8 " fill="none" id="apoint13581-ReaderEvent" style="stroke: #A80036; stroke-width: 1.2; stroke-dasharray: 7.0,7.0;"/><!--MD5=[fad704757e92dcc281ead66b52a4dd7e]
reverse link ObservableReader to AbstractDefaultSelectionsRequest--><path d="M447.4452,706.8 C478.416,706.8 509.6616,706.8 538.5684,706.8 " fill="none" id="ObservableReader&lt;-AbstractDefaultSelectionsRequest" style="stroke: #A80036; stroke-width: 1.2;"/><polygon fill="#A80036" points="441.2556,706.8,452.0556,711.6,447.2556,706.8,452.0556,702,441.2556,706.8" style="stroke: #A80036; stroke-width: 1.2;"/><polygon fill="#000000" points="471.3,690.8109,464.1,694.4109,471.3,698.0109,471.3,690.8109" style="stroke: #000000; stroke-width: 1.2;"/><text fill="#000000" font-family="sans-serif" font-size="15.6" lengthAdjust="spacingAndGlyphs" textLength="38.4" x="478.5" y="698.9941">is set</text><text fill="#000000" font-family="sans-serif" font-size="15.6" lengthAdjust="spacingAndGlyphs" textLength="8.4" x="450.4022" y="703.3723">1</text><text fill="#000000" font-family="sans-serif" font-size="15.6" lengthAdjust="spacingAndGlyphs" textLength="8.4" x="521.0019" y="703.1633">1</text><!--MD5=[a9b71dddf3b48afb2529446a6f0fee22]
link AbstractDefaultSelectionsResponse to ObservableReader--><path d="M606.0852,978.504 C565.4964,948.2148 497.3556,897.3648 431.0388,847.8756 " fill="none" id="AbstractDefaultSelectionsResponse-&gt;ObservableReader" style="stroke: #A80036; stroke-width: 1.2;"/><polygon fill="#A80036" points="425.8596,844.0104,431.6449,854.3162,430.6684,847.5986,437.3861,846.6221,425.8596,844.0104" style="stroke: #A80036; stroke-width: 1.2;"/><text fill="#000000" font-family="sans-serif" font-size="15.6" lengthAdjust="spacingAndGlyphs" textLength="48" x="492" y="896.9941">returns</text><polygon fill="#000000" points="543.6,888.8109,550.8,892.4109,543.6,896.0109,543.6,888.8109" style="stroke: #000000; stroke-width: 1.2;"/><text fill="#000000" font-family="sans-serif" font-size="15.6" lengthAdjust="spacingAndGlyphs" textLength="8.4" x="587.0983" y="965.6876">1</text><text fill="#000000" font-family="sans-serif" font-size="15.6" lengthAdjust="spacingAndGlyphs" textLength="8.4" x="428.3101" y="869.1685">1</text><!--MD5=[ccedb28a46d36cb0f26e61260b1180d8]
link AbstractDefaultSelectionsRequest to AbstractDefaultSelectionsResponse--><!--MD5=[a5867a4c475ec23f402d1b2a6cd85804]
@startuml
skinparam ClassBorderColor #D4AC0D
skinparam stereotypeABorderColor #A9DCDF
skinparam stereotypeIBorderColor #B4A7E5
skinparam stereotypeCBorderColor #ADD1B2
skinparam stereotypeEBorderColor #EB93DF
skinparam shadowing false

skinparam StateBorderColor #D4AC0D
skinparam ActivityBorderColor #D4AC0D

skinparam ClassBackgroundColor<<red>> #FDEDEC
skinparam ClassBorderColor<<red>> #E74C3C
hide <<red>> stereotype
skinparam ClassBackgroundColor<<purple>> #F4ECF7
skinparam ClassBorderColor<<purple>> #8E44AD
hide <<purple>> stereotype
skinparam ClassBackgroundColor<<blue>> #EBF5FB
skinparam ClassBorderColor<<blue>> #3498DB
hide <<blue>> stereotype
skinparam ClassBackgroundColor<<green>> #EAFAF1
skinparam ClassBorderColor<<green>> #2ECC71
hide <<green>> stereotype

skinparam ClassBackgroundColor<<orange>> #FDF2E9
skinparam ClassBorderColor<<orange>> #E67E22
hide <<orange>> stereotype

skinparam ClassBackgroundColor<<grey>> #EAECEE
skinparam ClassBorderColor<<grey>> #2C3E50
hide <<grey>> stereotype

package org.eclipse.keyple.core.seproxy.event #FFFFFF {
+enum "EventType" as EventType_Reader {
  IO_ERROR
  SE_INSERTED
  SE_MATCHED
  SE_REMOVAL
  +EventType(String name)
  +String getName()
}

+class "<b>final</b> ReaderEvent" as ReaderEvent {
  +ReaderEvent(String pluginName, String readerName, EventType
  eventType, DefaultSelectionsResponse[0..1] defaultSelectionsResponse)

  +String getPluginName()
  +String getReaderName()
  +EventType getEventType()
  +AbstractDefaultSelectionsResponse getDefaultSelectionsResponse()
}

  EventType_Reader - -+ ReaderEvent

  +interface ReaderObserver {
    +update(ReaderEvent event)
  }

+enum NotificationMode {
  ALWAYS
  MATCHED_ONLY
  +NotificationMode(String name)
  +String getName()
  +{static}NotificationMode get(String name)
}

+enum PollingMode {
  REPEATING
  SINGLESHOT
}
+interface ObservableReader {
  +addObserver(ReaderObserver observer)
  +removeObserver(ReaderObserver observer)
  +notifyObservers(ReaderEvent event)

  +setDefaultSelectionRequest(AbstractDefaultSelectionsRequest
    defaultSelectionsRequest, NotificationMode notificationMode)
  +setDefaultSelectionRequest(AbstractDefaultSelectionsRequest
    defaultSelectionsRequest, NotificationMode notificationMode,
    PollingMode pollingMode)

  +startSeDetection(PollingMode pollingMode)
  +stopSeDetection()
  +notifySeProcessed()
}

  ObservableReader +-down- NotificationMode
  ObservableReader +-down- PollingMode

  ReaderObserver "1" +-down-o "*" ObservableReader : observes <
  (ReaderObserver, ObservableReader) . ReaderEvent

  AbstractDefaultSelectionsRequest "1" -left-> "1" ObservableReader : is set >
  AbstractDefaultSelectionsResponse "1" - -> "1" ObservableReader : returns <
  AbstractDefaultSelectionsRequest -down[hidden]- AbstractDefaultSelectionsResponse
}
@enduml

PlantUML version 1.2020.09(Sun May 10 14:51:06 MUT 2020)
(GPL source distribution)
Java Runtime: OpenJDK Runtime Environment
JVM: OpenJDK 64-Bit Server VM
Java Version: 11.0.7+10-b765.64
Operating System: Windows 10
Default Encoding: Cp1252
Language: fr
Country: FR
--></g></svg>