<?xml version="1.0" encoding="UTF-8" standalone="no"?><svg xmlns="http://www.w3.org/2000/svg" xmlns:xlink="http://www.w3.org/1999/xlink" contentScriptType="application/ecmascript" contentStyleType="text/css" height="760px" preserveAspectRatio="none" style="width:1162px;height:760px;" version="1.1" viewBox="0 0 1162 760" width="1162px" zoomAndPan="magnify"><defs/><g><!--MD5=[2bcc54f38766b998c5e88efdbc7d1696]
cluster org.eclipse.keyple.core.seproxy--><polygon fill="#FFFFFF" points="22,24,253,24,260,47.6094,1140,47.6094,1140,748,22,748,22,24" style="stroke: #000000; stroke-width: 1.5;"/><line style="stroke: #000000; stroke-width: 1.5;" x1="22" x2="260" y1="47.6094" y2="47.6094"/><text fill="#000000" font-family="sans-serif" font-size="14" font-weight="bold" lengthAdjust="spacingAndGlyphs" textLength="225" x="26" y="40.5332">org.eclipse.keyple.core.seproxy</text><!--MD5=[2e31800f208179cab94650aeb782e4d8]
cluster event--><polygon fill="#FFFFFF" points="325,458,372,458,379,481.6094,1116,481.6094,1116,724,325,724,325,458" style="stroke: #000000; stroke-width: 1.5;"/><line style="stroke: #000000; stroke-width: 1.5;" x1="325" x2="379" y1="481.6094" y2="481.6094"/><text fill="#000000" font-family="sans-serif" font-size="14" font-weight="bold" lengthAdjust="spacingAndGlyphs" textLength="41" x="329" y="474.5332">event</text><!--MD5=[f0c44d4c6fb415056b2c0aabd573961b]
class SeProxyService--><rect fill="#FEFECE" height="153.0391" id="SeProxyService" style="stroke: #D4AC0D; stroke-width: 1.5;" width="340" x="141" y="60"/><ellipse cx="245.75" cy="80.0938" fill="#ADD1B2" rx="11" ry="11" style="stroke: #ADD1B2; stroke-width: 1.0;"/><path d="M247.75,76.5938 Q247.9531,76.0938 248.1875,75.8438 Q248.4219,75.5938 248.6875,75.5938 Q249.1563,75.5938 249.4531,75.875 Q249.75,76.1563 249.75,76.8125 L249.75,78.375 Q249.75,79.0313 249.4688,79.3125 Q249.1875,79.5938 248.75,79.5938 Q248.3594,79.5938 248.1094,79.4219 Q247.8594,79.25 247.75,78.7969 Q247.7031,78.4844 247.5313,78.3125 Q247.2188,77.9844 246.6563,77.7969 Q246.0938,77.5938 245.5313,77.5938 Q244.8281,77.5938 244.2344,77.875 Q243.6563,78.1563 243.2031,78.7813 Q242.75,79.4063 242.75,80.2656 L242.75,81.1875 Q242.75,82.2188 243.5938,82.9063 Q244.4375,83.5938 245.9375,83.5938 Q246.8281,83.5938 247.4531,83.3906 Q247.8125,83.2813 248.2188,82.9219 Q248.4844,82.7188 248.625,82.6563 Q248.7656,82.5938 248.9375,82.5938 Q249.2656,82.5938 249.5,82.8594 Q249.75,83.1094 249.75,83.4688 Q249.75,83.8125 249.4063,84.2188 Q248.9063,84.8125 248.1094,85.1406 Q247.0625,85.5938 245.7813,85.5938 Q244.2813,85.5938 243.0781,85 Q242.1094,84.5313 241.4219,83.5156 Q240.75,82.5 240.75,81.2969 L240.75,80.2031 Q240.75,78.9531 241.3438,77.8594 Q241.9531,76.7656 243,76.1875 Q244.0625,75.5938 245.25,75.5938 Q245.9688,75.5938 246.5938,75.8438 Q247.2188,76.0938 247.75,76.5938 Z "/><text fill="#000000" font-family="sans-serif" font-size="12" font-style="italic" lengthAdjust="spacingAndGlyphs" textLength="66" x="294.25" y="77.457">«Singleton»</text><ellipse cx="271.25" cy="87.1406" fill="#84BE84" rx="3" ry="3" style="stroke: #038048; stroke-width: 1.0;"/><text fill="#000000" font-family="sans-serif" font-size="12" font-weight="bold" lengthAdjust="spacingAndGlyphs" textLength="24" x="277.25" y="92.5508">final</text><text fill="#000000" font-family="sans-serif" font-size="12" lengthAdjust="spacingAndGlyphs" textLength="84" x="304.25" y="92.5508">SeProxyService</text><line style="stroke: #D4AC0D; stroke-width: 1.5;" x1="142" x2="480" y1="100.1875" y2="100.1875"/><line style="stroke: #D4AC0D; stroke-width: 1.5;" x1="142" x2="480" y1="108.1875" y2="108.1875"/><ellipse cx="152" cy="119.1875" fill="#84BE84" rx="3" ry="3" style="stroke: #038048; stroke-width: 1.0;"/><text fill="#000000" font-family="sans-serif" font-size="11" lengthAdjust="spacingAndGlyphs" text-decoration="underline" textLength="145" x="161" y="123.6064">SeProxyService getInstance()</text><ellipse cx="152" cy="133.0234" fill="#84BE84" rx="3" ry="3" style="stroke: #038048; stroke-width: 1.0;"/><text fill="#000000" font-family="sans-serif" font-size="11" lengthAdjust="spacingAndGlyphs" textLength="92" x="161" y="137.4424">String getVersion()</text><ellipse cx="152" cy="146.8594" fill="#84BE84" rx="3" ry="3" style="stroke: #038048; stroke-width: 1.0;"/><text fill="#000000" font-family="sans-serif" font-size="11" lengthAdjust="spacingAndGlyphs" textLength="314" x="161" y="151.2783">ReaderPlugin registerPlugin(AbstractPluginFactory pluginFactory)</text><ellipse cx="152" cy="160.6953" fill="#84BE84" rx="3" ry="3" style="stroke: #038048; stroke-width: 1.0;"/><text fill="#000000" font-family="sans-serif" font-size="11" lengthAdjust="spacingAndGlyphs" textLength="195" x="161" y="165.1143">boolean isRegistered(String pluginName)</text><ellipse cx="152" cy="174.5313" fill="#84BE84" rx="3" ry="3" style="stroke: #038048; stroke-width: 1.0;"/><text fill="#000000" font-family="sans-serif" font-size="11" lengthAdjust="spacingAndGlyphs" textLength="212" x="161" y="178.9502">boolean unregisterPlugin(String pluginName)</text><ellipse cx="152" cy="188.3672" fill="#84BE84" rx="3" ry="3" style="stroke: #038048; stroke-width: 1.0;"/><text fill="#000000" font-family="sans-serif" font-size="11" lengthAdjust="spacingAndGlyphs" textLength="174" x="161" y="192.7861">ReaderPlugin getPlugin(String name)</text><ellipse cx="152" cy="202.2031" fill="#84BE84" rx="3" ry="3" style="stroke: #038048; stroke-width: 1.0;"/><text fill="#000000" font-family="sans-serif" font-size="11" lengthAdjust="spacingAndGlyphs" textLength="151" x="161" y="206.6221">Set&lt;ReaderPlugin&gt; getPlugins()</text><!--MD5=[f32ad7e99aabd41d9b4c18d27e28445d]
class ProxyElement--><rect fill="#FEFECE" height="117.1797" id="ProxyElement" style="stroke: #D4AC0D; stroke-width: 1.5;" width="256" x="526" y="78"/><ellipse cx="605.75" cy="94" fill="#B4A7E5" rx="11" ry="11" style="stroke: #B4A7E5; stroke-width: 1.0;"/><path d="M606.75,91 L606.75,97 L608.75,97 L609.2344,97 L609.75,97.625 L609.75,98 L609.75,98.375 L609.2344,99 L608.75,99 L602.75,99 L602.2656,99 L601.75,98.375 L601.75,98 L601.75,97.625 L602.2656,97 L602.75,97 L604.75,97 L604.75,91 L602.75,91 L602.2656,91 L601.75,90.375 L601.75,90 L601.75,89.625 L602.2656,89 L602.75,89 L608.75,89 L609.2344,89 L609.75,89.625 L609.75,90 L609.75,90.375 L609.2344,91 L608.75,91 L606.75,91 Z "/><polygon fill="#4177AF" points="631.25,89.5,627.25,95.5,635.25,95.5" style="stroke: #1963A0; stroke-width: 1.0;"/><text fill="#000000" font-family="sans-serif" font-size="12" font-style="italic" lengthAdjust="spacingAndGlyphs" textLength="77" x="637.25" y="98.9102">ProxyElement</text><line style="stroke: #D4AC0D; stroke-width: 1.5;" x1="527" x2="781" y1="110" y2="110"/><line style="stroke: #D4AC0D; stroke-width: 1.5;" x1="527" x2="781" y1="118" y2="118"/><ellipse cx="537" cy="129" fill="#84BE84" rx="3" ry="3" style="stroke: #038048; stroke-width: 1.0;"/><text fill="#000000" font-family="sans-serif" font-size="11" lengthAdjust="spacingAndGlyphs" textLength="81" x="546" y="133.4189">String getName()</text><text fill="#000000" font-family="sans-serif" font-size="11" lengthAdjust="spacingAndGlyphs" textLength="0" x="549" y="147.2549"/><ellipse cx="537" cy="156.6719" fill="#84BE84" rx="3" ry="3" style="stroke: #038048; stroke-width: 1.0;"/><text fill="#000000" font-family="sans-serif" font-size="11" lengthAdjust="spacingAndGlyphs" textLength="178" x="546" y="161.0908">Map&lt;String, String&gt; getParameters();</text><ellipse cx="537" cy="170.5078" fill="#84BE84" rx="3" ry="3" style="stroke: #038048; stroke-width: 1.0;"/><text fill="#000000" font-family="sans-serif" font-size="11" lengthAdjust="spacingAndGlyphs" textLength="183" x="546" y="174.9268">setParameter(String key, String value)</text><ellipse cx="537" cy="184.3438" fill="#84BE84" rx="3" ry="3" style="stroke: #038048; stroke-width: 1.0;"/><text fill="#000000" font-family="sans-serif" font-size="11" lengthAdjust="spacingAndGlyphs" textLength="230" x="546" y="188.7627">setParameters(Map&lt;String, String&gt; parameters)</text><!--MD5=[589e28272a74d38b4e0a352c82e7b326]
class AbstractPluginFactory--><rect fill="#FEFECE" height="75.6719" id="AbstractPluginFactory" style="stroke: #D4AC0D; stroke-width: 1.5;" width="192" x="99" y="304.5"/><ellipse cx="127.05" cy="320.5" fill="#A9DCDF" rx="11" ry="11" style="stroke: #A9DCDF; stroke-width: 1.0;"/><path d="M128.8,322 L125.5031,322 L125.0656,323 L125.0656,323 L125.5344,323 L126.05,323.625 L126.05,324 L126.05,324.375 L125.5344,325 L125.0656,325 L123.175,325 L122.5656,325 L122.05,324.375 L122.05,324 L122.05,323.625 L122.5656,323 L123.175,323 L125.4875,317 L124.6125,317 L123.5656,317 L123.05,316.375 L123.05,316 L123.05,315.625 L123.5656,315 L124.6125,315 L128.2844,315 L130.9719,323 L131.5344,323 L131.5344,323 L132.05,323.625 L132.05,324 L132.05,324.375 L131.5344,325 L130.9719,325 L129.0813,325 L128.5656,325 L128.05,324.375 L128.05,324 L128.05,323.625 L128.5656,323 L129.0813,323 L129.0813,323 L128.8,322 Z M128.2531,320 L127.05,316.4219 L126.0188,320 L128.2531,320 Z "/><ellipse cx="148.95" cy="320" fill="#84BE84" rx="3" ry="3" style="stroke: #038048; stroke-width: 1.0;"/><text fill="#000000" font-family="sans-serif" font-size="12" font-style="italic" lengthAdjust="spacingAndGlyphs" textLength="120" x="154.95" y="325.4102">AbstractPluginFactory</text><line style="stroke: #D4AC0D; stroke-width: 1.5;" x1="100" x2="290" y1="336.5" y2="336.5"/><line style="stroke: #D4AC0D; stroke-width: 1.5;" x1="100" x2="290" y1="344.5" y2="344.5"/><polygon fill="#FFFF44" points="110,350.5,114,354.5,110,358.5,106,354.5" style="stroke: #B38D22; stroke-width: 1.0;"/><text fill="#000000" font-family="sans-serif" font-size="11" font-style="italic" lengthAdjust="spacingAndGlyphs" textLength="115" x="119" y="359.9189">String getPluginName()</text><polygon fill="#FFFF44" points="110,364.3359,114,368.3359,110,372.3359,106,368.3359" style="stroke: #B38D22; stroke-width: 1.0;"/><text fill="#000000" font-family="sans-serif" font-size="11" font-style="italic" lengthAdjust="spacingAndGlyphs" textLength="166" x="119" y="373.7549">ReaderPlugin getPluginInstance()</text><!--MD5=[a0e88443257adb8def549c32ec694d43]
class ReaderPlugin--><rect fill="#F0FFFF" height="89.5078" id="ReaderPlugin" style="stroke: #0000FF; stroke-width: 1.5;" width="207" x="370.5" y="297.5"/><ellipse cx="426.25" cy="313.5" fill="#B4A7E5" rx="11" ry="11" style="stroke: #B4A7E5; stroke-width: 1.0;"/><path d="M427.25,310.5 L427.25,316.5 L429.25,316.5 L429.7344,316.5 L430.25,317.125 L430.25,317.5 L430.25,317.875 L429.7344,318.5 L429.25,318.5 L423.25,318.5 L422.7656,318.5 L422.25,317.875 L422.25,317.5 L422.25,317.125 L422.7656,316.5 L423.25,316.5 L425.25,316.5 L425.25,310.5 L423.25,310.5 L422.7656,310.5 L422.25,309.875 L422.25,309.5 L422.25,309.125 L422.7656,308.5 L423.25,308.5 L429.25,308.5 L429.7344,308.5 L430.25,309.125 L430.25,309.5 L430.25,309.875 L429.7344,310.5 L429.25,310.5 L427.25,310.5 Z "/><ellipse cx="451.75" cy="313" fill="#84BE84" rx="3" ry="3" style="stroke: #038048; stroke-width: 1.0;"/><text fill="#000000" font-family="sans-serif" font-size="12" font-style="italic" lengthAdjust="spacingAndGlyphs" textLength="76" x="457.75" y="318.4102">ReaderPlugin</text><line style="stroke: #0000FF; stroke-width: 1.5;" x1="371.5" x2="576.5" y1="329.5" y2="329.5"/><line style="stroke: #0000FF; stroke-width: 1.5;" x1="371.5" x2="576.5" y1="337.5" y2="337.5"/><ellipse cx="381.5" cy="348.5" fill="#84BE84" rx="3" ry="3" style="stroke: #038048; stroke-width: 1.0;"/><text fill="#000000" font-family="sans-serif" font-size="11" lengthAdjust="spacingAndGlyphs" textLength="181" x="390.5" y="352.9189">Map&lt;String, SeReader&gt; getReaders()</text><ellipse cx="381.5" cy="362.3359" fill="#84BE84" rx="3" ry="3" style="stroke: #038048; stroke-width: 1.0;"/><text fill="#000000" font-family="sans-serif" font-size="11" lengthAdjust="spacingAndGlyphs" textLength="150" x="390.5" y="366.7549">Set&lt;String&gt; getReaderNames()</text><ellipse cx="381.5" cy="376.1719" fill="#84BE84" rx="3" ry="3" style="stroke: #038048; stroke-width: 1.0;"/><text fill="#000000" font-family="sans-serif" font-size="11" lengthAdjust="spacingAndGlyphs" textLength="166" x="390.5" y="380.5908">SeReader getReader(String name)</text><!--MD5=[dd49942b1f02350b5568646d3da64c49]
class SeReader--><rect fill="#EEFFEE" height="103.3438" id="SeReader" style="stroke: #008000; stroke-width: 1.5;" width="340" x="657" y="291"/><ellipse cx="789.25" cy="307" fill="#B4A7E5" rx="11" ry="11" style="stroke: #B4A7E5; stroke-width: 1.0;"/><path d="M790.25,304 L790.25,310 L792.25,310 L792.7344,310 L793.25,310.625 L793.25,311 L793.25,311.375 L792.7344,312 L792.25,312 L786.25,312 L785.7656,312 L785.25,311.375 L785.25,311 L785.25,310.625 L785.7656,310 L786.25,310 L788.25,310 L788.25,304 L786.25,304 L785.7656,304 L785.25,303.375 L785.25,303 L785.25,302.625 L785.7656,302 L786.25,302 L792.25,302 L792.7344,302 L793.25,302.625 L793.25,303 L793.25,303.375 L792.7344,304 L792.25,304 L790.25,304 Z "/><ellipse cx="814.75" cy="306.5" fill="#84BE84" rx="3" ry="3" style="stroke: #038048; stroke-width: 1.0;"/><text fill="#000000" font-family="sans-serif" font-size="12" font-style="italic" lengthAdjust="spacingAndGlyphs" textLength="56" x="820.75" y="311.9102">SeReader</text><line style="stroke: #008000; stroke-width: 1.5;" x1="658" x2="996" y1="323" y2="323"/><line style="stroke: #008000; stroke-width: 1.5;" x1="658" x2="996" y1="331" y2="331"/><ellipse cx="668" cy="342" fill="#84BE84" rx="3" ry="3" style="stroke: #038048; stroke-width: 1.0;"/><text fill="#000000" font-family="sans-serif" font-size="11" lengthAdjust="spacingAndGlyphs" textLength="107" x="677" y="346.4189">boolean isSePresent()</text><ellipse cx="668" cy="355.8359" fill="#84BE84" rx="3" ry="3" style="stroke: #038048; stroke-width: 1.0;"/><text fill="#000000" font-family="sans-serif" font-size="11" lengthAdjust="spacingAndGlyphs" textLength="314" x="677" y="360.2549">addSeProtocolSetting(SeProtocol seProtocol, String protocolRule)</text><ellipse cx="668" cy="369.6719" fill="#84BE84" rx="3" ry="3" style="stroke: #038048; stroke-width: 1.0;"/><text fill="#000000" font-family="sans-serif" font-size="11" lengthAdjust="spacingAndGlyphs" textLength="301" x="677" y="374.0908">setSeProtocolSetting(Map&lt;SeProtocol, String&gt; protocolSetting)</text><ellipse cx="668" cy="383.5078" fill="#84BE84" rx="3" ry="3" style="stroke: #038048; stroke-width: 1.0;"/><text fill="#000000" font-family="sans-serif" font-size="11" lengthAdjust="spacingAndGlyphs" textLength="206" x="677" y="387.9268">TransmissionMode getTransmissionMode()</text><!--MD5=[ec495f5f6ae18812fb155b23e8e93f55]
class ReaderPoolPlugin--><rect fill="#F0FFFF" height="89.5078" id="ReaderPoolPlugin" style="stroke: #0000FF; stroke-width: 1.5;" width="267" x="38.5" y="556"/><ellipse cx="111.75" cy="572" fill="#B4A7E5" rx="11" ry="11" style="stroke: #B4A7E5; stroke-width: 1.0;"/><path d="M112.75,569 L112.75,575 L114.75,575 L115.2344,575 L115.75,575.625 L115.75,576 L115.75,576.375 L115.2344,577 L114.75,577 L108.75,577 L108.2656,577 L107.75,576.375 L107.75,576 L107.75,575.625 L108.2656,575 L108.75,575 L110.75,575 L110.75,569 L108.75,569 L108.2656,569 L107.75,568.375 L107.75,568 L107.75,567.625 L108.2656,567 L108.75,567 L114.75,567 L115.2344,567 L115.75,567.625 L115.75,568 L115.75,568.375 L115.2344,569 L114.75,569 L112.75,569 Z "/><ellipse cx="137.25" cy="571.5" fill="#84BE84" rx="3" ry="3" style="stroke: #038048; stroke-width: 1.0;"/><text fill="#000000" font-family="sans-serif" font-size="12" font-style="italic" lengthAdjust="spacingAndGlyphs" textLength="101" x="143.25" y="576.9102">ReaderPoolPlugin</text><line style="stroke: #0000FF; stroke-width: 1.5;" x1="39.5" x2="304.5" y1="588" y2="588"/><line style="stroke: #0000FF; stroke-width: 1.5;" x1="39.5" x2="304.5" y1="596" y2="596"/><ellipse cx="49.5" cy="607" fill="#84BE84" rx="3" ry="3" style="stroke: #038048; stroke-width: 1.0;"/><text fill="#000000" font-family="sans-serif" font-size="11" lengthAdjust="spacingAndGlyphs" textLength="236" x="58.5" y="611.4189">SortedSet&lt;String&gt; getReaderGroupReferences()</text><ellipse cx="49.5" cy="620.8359" fill="#84BE84" rx="3" ry="3" style="stroke: #038048; stroke-width: 1.0;"/><text fill="#000000" font-family="sans-serif" font-size="11" lengthAdjust="spacingAndGlyphs" textLength="241" x="58.5" y="625.2549">SeReader allocateReader(String groupReference)</text><ellipse cx="49.5" cy="634.6719" fill="#84BE84" rx="3" ry="3" style="stroke: #038048; stroke-width: 1.0;"/><text fill="#000000" font-family="sans-serif" font-size="11" lengthAdjust="spacingAndGlyphs" textLength="177" x="58.5" y="639.0908">releaseReader(SeReader seReader)</text><!--MD5=[1fa9a61019755e60a0cb03f0bc3590aa]
class ObservablePlugin--><rect fill="#F0FFFF" height="89.5078" id="ObservablePlugin" style="stroke: #0000FF; stroke-width: 1.5;" width="266" x="341" y="556"/><ellipse cx="414.25" cy="572" fill="#B4A7E5" rx="11" ry="11" style="stroke: #B4A7E5; stroke-width: 1.0;"/><path d="M415.25,569 L415.25,575 L417.25,575 L417.7344,575 L418.25,575.625 L418.25,576 L418.25,576.375 L417.7344,577 L417.25,577 L411.25,577 L410.7656,577 L410.25,576.375 L410.25,576 L410.25,575.625 L410.7656,575 L411.25,575 L413.25,575 L413.25,569 L411.25,569 L410.7656,569 L410.25,568.375 L410.25,568 L410.25,567.625 L410.7656,567 L411.25,567 L417.25,567 L417.7344,567 L418.25,567.625 L418.25,568 L418.25,568.375 L417.7344,569 L417.25,569 L415.25,569 Z "/><ellipse cx="439.75" cy="571.5" fill="#84BE84" rx="3" ry="3" style="stroke: #038048; stroke-width: 1.0;"/><text fill="#000000" font-family="sans-serif" font-size="12" font-style="italic" lengthAdjust="spacingAndGlyphs" textLength="100" x="445.75" y="576.9102">ObservablePlugin</text><line style="stroke: #0000FF; stroke-width: 1.5;" x1="342" x2="606" y1="588" y2="588"/><line style="stroke: #0000FF; stroke-width: 1.5;" x1="342" x2="606" y1="596" y2="596"/><ellipse cx="352" cy="607" fill="#84BE84" rx="3" ry="3" style="stroke: #038048; stroke-width: 1.0;"/><text fill="#000000" font-family="sans-serif" font-size="11" lengthAdjust="spacingAndGlyphs" textLength="68" x="361" y="611.4189">addObserver(</text><text fill="#000000" font-family="sans-serif" font-size="11" font-weight="bold" lengthAdjust="spacingAndGlyphs" textLength="23" x="429" y="611.4189">final</text><text fill="#000000" font-family="sans-serif" font-size="11" lengthAdjust="spacingAndGlyphs" textLength="128" x="455" y="611.4189">PluginObserver observer);</text><ellipse cx="352" cy="620.8359" fill="#84BE84" rx="3" ry="3" style="stroke: #038048; stroke-width: 1.0;"/><text fill="#000000" font-family="sans-serif" font-size="11" lengthAdjust="spacingAndGlyphs" textLength="86" x="361" y="625.2549">removeObserver(</text><text fill="#000000" font-family="sans-serif" font-size="11" font-weight="bold" lengthAdjust="spacingAndGlyphs" textLength="23" x="447" y="625.2549">final</text><text fill="#000000" font-family="sans-serif" font-size="11" lengthAdjust="spacingAndGlyphs" textLength="128" x="473" y="625.2549">PluginObserver observer);</text><ellipse cx="352" cy="634.6719" fill="#84BE84" rx="3" ry="3" style="stroke: #038048; stroke-width: 1.0;"/><text fill="#000000" font-family="sans-serif" font-size="11" lengthAdjust="spacingAndGlyphs" textLength="83" x="361" y="639.0908">notifyObservers(</text><text fill="#000000" font-family="sans-serif" font-size="11" font-weight="bold" lengthAdjust="spacingAndGlyphs" textLength="23" x="444" y="639.0908">final</text><text fill="#000000" font-family="sans-serif" font-size="11" lengthAdjust="spacingAndGlyphs" textLength="92" x="470" y="639.0908">PluginEvent event);</text><!--MD5=[e2341a3d5316e117132fc49473ae3219]
class ObservableReader--><rect fill="#EEFFEE" height="214.0313" id="ObservableReader" style="stroke: #008000; stroke-width: 1.5;" width="458" x="642" y="494"/><ellipse cx="808.25" cy="510" fill="#B4A7E5" rx="11" ry="11" style="stroke: #B4A7E5; stroke-width: 1.0;"/><path d="M809.25,507 L809.25,513 L811.25,513 L811.7344,513 L812.25,513.625 L812.25,514 L812.25,514.375 L811.7344,515 L811.25,515 L805.25,515 L804.7656,515 L804.25,514.375 L804.25,514 L804.25,513.625 L804.7656,513 L805.25,513 L807.25,513 L807.25,507 L805.25,507 L804.7656,507 L804.25,506.375 L804.25,506 L804.25,505.625 L804.7656,505 L805.25,505 L811.25,505 L811.7344,505 L812.25,505.625 L812.25,506 L812.25,506.375 L811.7344,507 L811.25,507 L809.25,507 Z "/><ellipse cx="833.75" cy="509.5" fill="#84BE84" rx="3" ry="3" style="stroke: #038048; stroke-width: 1.0;"/><text fill="#000000" font-family="sans-serif" font-size="12" font-style="italic" lengthAdjust="spacingAndGlyphs" textLength="106" x="839.75" y="514.9102">ObservableReader</text><line style="stroke: #008000; stroke-width: 1.5;" x1="643" x2="1099" y1="526" y2="526"/><line style="stroke: #008000; stroke-width: 1.5;" x1="643" x2="1099" y1="534" y2="534"/><ellipse cx="653" cy="545" fill="#84BE84" rx="3" ry="3" style="stroke: #038048; stroke-width: 1.0;"/><text fill="#000000" font-family="sans-serif" font-size="11" lengthAdjust="spacingAndGlyphs" textLength="68" x="662" y="549.4189">addObserver(</text><text fill="#000000" font-family="sans-serif" font-size="11" font-weight="bold" lengthAdjust="spacingAndGlyphs" textLength="23" x="730" y="549.4189">final</text><text fill="#000000" font-family="sans-serif" font-size="11" lengthAdjust="spacingAndGlyphs" textLength="135" x="756" y="549.4189">ReaderObserver observer);</text><ellipse cx="653" cy="558.8359" fill="#84BE84" rx="3" ry="3" style="stroke: #038048; stroke-width: 1.0;"/><text fill="#000000" font-family="sans-serif" font-size="11" lengthAdjust="spacingAndGlyphs" textLength="86" x="662" y="563.2549">removeObserver(</text><text fill="#000000" font-family="sans-serif" font-size="11" font-weight="bold" lengthAdjust="spacingAndGlyphs" textLength="23" x="748" y="563.2549">final</text><text fill="#000000" font-family="sans-serif" font-size="11" lengthAdjust="spacingAndGlyphs" textLength="135" x="774" y="563.2549">ReaderObserver observer);</text><ellipse cx="653" cy="572.6719" fill="#84BE84" rx="3" ry="3" style="stroke: #038048; stroke-width: 1.0;"/><text fill="#000000" font-family="sans-serif" font-size="11" lengthAdjust="spacingAndGlyphs" textLength="83" x="662" y="577.0908">notifyObservers(</text><text fill="#000000" font-family="sans-serif" font-size="11" font-weight="bold" lengthAdjust="spacingAndGlyphs" textLength="23" x="745" y="577.0908">final</text><text fill="#000000" font-family="sans-serif" font-size="11" lengthAdjust="spacingAndGlyphs" textLength="99" x="771" y="577.0908">ReaderEvent event);</text><text fill="#000000" font-family="sans-serif" font-size="11" lengthAdjust="spacingAndGlyphs" textLength="0" x="665" y="590.9268"/><ellipse cx="653" cy="600.3438" fill="#84BE84" rx="3" ry="3" style="stroke: #038048; stroke-width: 1.0;"/><text fill="#000000" font-family="sans-serif" font-size="11" lengthAdjust="spacingAndGlyphs" textLength="432" x="662" y="604.7627">setDefaultSelectionRequest(AbstractDefaultSelectionsRequest defaultSelectionsRequest,</text><text fill="#000000" font-family="sans-serif" font-size="11" lengthAdjust="spacingAndGlyphs" textLength="167" x="662" y="618.5986">NotificationMode notificationMode);</text><ellipse cx="653" cy="628.0156" fill="#84BE84" rx="3" ry="3" style="stroke: #038048; stroke-width: 1.0;"/><text fill="#000000" font-family="sans-serif" font-size="11" lengthAdjust="spacingAndGlyphs" textLength="432" x="662" y="632.4346">setDefaultSelectionRequest(AbstractDefaultSelectionsRequest defaultSelectionsRequest,</text><text fill="#000000" font-family="sans-serif" font-size="11" lengthAdjust="spacingAndGlyphs" textLength="288" x="662" y="646.2705">NotificationMode notificationMode, PollingMode pollingMode);</text><text fill="#000000" font-family="sans-serif" font-size="11" lengthAdjust="spacingAndGlyphs" textLength="0" x="665" y="660.1064"/><ellipse cx="653" cy="669.5234" fill="#84BE84" rx="3" ry="3" style="stroke: #038048; stroke-width: 1.0;"/><text fill="#000000" font-family="sans-serif" font-size="11" lengthAdjust="spacingAndGlyphs" textLength="206" x="662" y="673.9424">startSeDetection(PollingMode pollingMode);</text><ellipse cx="653" cy="683.3594" fill="#84BE84" rx="3" ry="3" style="stroke: #038048; stroke-width: 1.0;"/><text fill="#000000" font-family="sans-serif" font-size="11" lengthAdjust="spacingAndGlyphs" textLength="90" x="662" y="687.7783">stopSeDetection();</text><ellipse cx="653" cy="697.1953" fill="#84BE84" rx="3" ry="3" style="stroke: #038048; stroke-width: 1.0;"/><text fill="#000000" font-family="sans-serif" font-size="11" lengthAdjust="spacingAndGlyphs" textLength="103" x="662" y="701.6143">notifySeProcessed();</text><!--MD5=[628c6eb29572115a3ae82dff7e7e6b47]
link SeProxyService to AbstractPluginFactory--><path d="M262.0398,223.6037 C262.0398,223.6037 234.361,272.279 222.748,292.702 " fill="none" id="SeProxyService-AbstractPluginFactory" style="stroke: #A80036; stroke-width: 1.0;"/><polygon fill="#A80036" points="216.191,304.232,224.1167,298.3853,218.6623,299.8855,217.1622,294.4311,216.191,304.232" style="stroke: #A80036; stroke-width: 1.0;"/><line style="stroke: #A80036; stroke-width: 1.0;" x1="218.6623" x2="222.6175" y1="299.8855" y2="292.932"/><polygon fill="#A80036" points="267.971,213.172,261.5282,216.4108,262.0398,223.6037,268.4826,220.3649,267.971,213.172" style="stroke: #A80036; stroke-width: 1.0;"/><text fill="#000000" font-family="sans-serif" font-size="13" lengthAdjust="spacingAndGlyphs" textLength="50" x="251" y="257.4951">registers</text><text fill="#000000" font-family="sans-serif" font-size="13" lengthAdjust="spacingAndGlyphs" textLength="7" x="256.6816" y="234.4872">1</text><text fill="#000000" font-family="sans-serif" font-size="13" lengthAdjust="spacingAndGlyphs" textLength="5" x="214.5203" y="293.5462">*</text><!--MD5=[98fb93546a7dc75f66b7a26283e02bb5]
link SeProxyService to ReaderPlugin--><path d="M378.9554,222.5464 C378.9554,222.5464 414.978,267.632 430.568,287.144 " fill="none" id="SeProxyService-ReaderPlugin" style="stroke: #A80036; stroke-width: 1.0;"/><polygon fill="#A80036" points="438.723,297.35,436.2293,287.8221,435.6016,293.444,429.9797,292.8163,438.723,297.35" style="stroke: #A80036; stroke-width: 1.0;"/><line style="stroke: #A80036; stroke-width: 1.0;" x1="435.6016" x2="430.6085" y1="293.444" y2="287.1935"/><polygon fill="#A80036" points="371.464,213.172,372.0849,220.3563,378.9554,222.5464,378.3345,215.3621,371.464,213.172" style="stroke: #A80036; stroke-width: 1.0;"/><text fill="#000000" font-family="sans-serif" font-size="13" lengthAdjust="spacingAndGlyphs" textLength="41" x="408" y="257.4951">plugins</text><text fill="#000000" font-family="sans-serif" font-size="13" lengthAdjust="spacingAndGlyphs" textLength="7" x="369.7154" y="234.4872">1</text><text fill="#000000" font-family="sans-serif" font-size="13" lengthAdjust="spacingAndGlyphs" textLength="5" x="427.9384" y="286.7711">*</text><!--MD5=[ed432611766c8e88b892041f7da1367f]
link AbstractPluginFactory to ReaderPlugin--><path d="M291.016,342.5 C314.856,342.5 340.578,342.5 364.991,342.5 " fill="none" id="AbstractPluginFactory-&gt;ReaderPlugin" style="stroke: #A80036; stroke-width: 1.0;"/><polygon fill="#A80036" points="370.179,342.5,361.179,338.5,365.179,342.5,361.179,346.5,370.179,342.5" style="stroke: #A80036; stroke-width: 1.0;"/><text fill="#000000" font-family="sans-serif" font-size="13" lengthAdjust="spacingAndGlyphs" textLength="43" x="309.25" y="335.9951">creates</text><text fill="#000000" font-family="sans-serif" font-size="13" lengthAdjust="spacingAndGlyphs" textLength="7" x="298.9462" y="339.3847">1</text><text fill="#000000" font-family="sans-serif" font-size="13" lengthAdjust="spacingAndGlyphs" textLength="7" x="355.633" y="339.4623">1</text><!--MD5=[c88fac8de0d16551763276c4b9088a93]
link ReaderPlugin to SeReader--><path d="M589.526,342.5 C589.526,342.5 625.616,342.5 643.659,342.5 " fill="none" id="ReaderPlugin-SeReader" style="stroke: #A80036; stroke-width: 1.0;"/><polygon fill="#A80036" points="656.803,342.5,647.803,338.5,651.803,342.5,647.803,346.5,656.803,342.5" style="stroke: #A80036; stroke-width: 1.0;"/><line style="stroke: #A80036; stroke-width: 1.0;" x1="651.803" x2="643.803" y1="342.5" y2="342.5"/><polygon fill="#A80036" points="577.526,342.5,583.526,346.5,589.526,342.5,583.526,338.5,577.526,342.5" style="stroke: #A80036; stroke-width: 1.0;"/><text fill="#000000" font-family="sans-serif" font-size="13" lengthAdjust="spacingAndGlyphs" textLength="43" x="595.75" y="335.9951">readers</text><text fill="#000000" font-family="sans-serif" font-size="13" lengthAdjust="spacingAndGlyphs" textLength="7" x="585.3857" y="339.4386">1</text><text fill="#000000" font-family="sans-serif" font-size="13" lengthAdjust="spacingAndGlyphs" textLength="5" x="643.9777" y="339.6328">*</text><!--MD5=[bc25a197e36279471f37427b8b5d69b0]
reverse link ReaderPlugin to ReaderPoolPlugin--><path d="M391.293,399.175 C369.234,414.943 345.77,432.575 325,450 C285.245,483.352 243.385,524.896 213.519,555.801 " fill="none" id="ReaderPlugin&lt;-ReaderPoolPlugin" style="stroke: #A80036; stroke-width: 1.0;"/><polygon fill="none" points="387.442,393.325,407.82,387.514,395.513,404.764,387.442,393.325" style="stroke: #A80036; stroke-width: 1.0;"/><text fill="#000000" font-family="sans-serif" font-size="13" lengthAdjust="spacingAndGlyphs" textLength="46" x="357" y="438.4951">extends</text><!--MD5=[a087c8f219181ff1dbe7adabc28b3231]
reverse link ReaderPlugin to ObservablePlugin--><path d="M474,407.615 C474,453.747 474,514.788 474,555.623 " fill="none" id="ReaderPlugin&lt;-ObservablePlugin" style="stroke: #A80036; stroke-width: 1.0;"/><polygon fill="none" points="467,407.594,474,387.594,481,407.594,467,407.594" style="stroke: #A80036; stroke-width: 1.0;"/><text fill="#000000" font-family="sans-serif" font-size="13" lengthAdjust="spacingAndGlyphs" textLength="46" x="475" y="438.4951">extends</text><!--MD5=[9bde350185f61a8992bbce085951af21]
reverse link SeReader to ObservableReader--><path d="M839.081,413.924 C843.309,438.571 848.155,466.823 852.772,493.742 " fill="none" id="SeReader&lt;-ObservableReader" style="stroke: #A80036; stroke-width: 1.0;"/><polygon fill="none" points="832.175,415.072,835.693,394.176,845.974,412.705,832.175,415.072" style="stroke: #A80036; stroke-width: 1.0;"/><text fill="#000000" font-family="sans-serif" font-size="13" lengthAdjust="spacingAndGlyphs" textLength="46" x="844" y="438.4951">extends</text><!--MD5=[6ff42eee2d93b23b3557b0570faf0c26]
reverse link ProxyElement to ReaderPlugin--><path d="M589.673,210.404 C564.05,239.444 535.396,271.918 513.018,297.28 " fill="none" id="ProxyElement&lt;-ReaderPlugin" style="stroke: #A80036; stroke-width: 1.0;"/><polygon fill="none" points="584.66,205.506,603.141,195.14,595.157,214.768,584.66,205.506" style="stroke: #A80036; stroke-width: 1.0;"/><text fill="#000000" font-family="sans-serif" font-size="13" lengthAdjust="spacingAndGlyphs" textLength="46" x="559" y="257.4951">extends</text><!--MD5=[e474867e38445a864bdbc7a2e090866a]
reverse link ProxyElement to SeReader--><path d="M715.859,210.443 C738.47,237.106 763.532,266.659 784.125,290.942 " fill="none" id="ProxyElement&lt;-SeReader" style="stroke: #A80036; stroke-width: 1.0;"/><polygon fill="none" points="710.478,214.921,702.881,195.14,721.156,205.866,710.478,214.921" style="stroke: #A80036; stroke-width: 1.0;"/><text fill="#000000" font-family="sans-serif" font-size="13" lengthAdjust="spacingAndGlyphs" textLength="46" x="756" y="257.4951">extends</text><!--MD5=[962447930e9ea342b0a34ef5615f646c]
@startuml
skinparam ClassBorderColor #D4AC0D
skinparam stereotypeABorderColor #A9DCDF
skinparam stereotypeIBorderColor #B4A7E5
skinparam stereotypeCBorderColor #ADD1B2
skinparam stereotypeEBorderColor #EB93DF
skinparam shadowing false

skinparam ClassBackgroundColor<<red>> #FDEDEC
skinparam ClassBorderColor<<red>> #E74C3C
hide <<red>> stereotype
skinparam ClassBackgroundColor<<purple>> #F4ECF7
skinparam ClassBorderColor<<purple>> #8E44AD
hide <<purple>> stereotype
skinparam ClassBackgroundColor<<blue>> #EBF5FB
skinparam ClassBorderColor<<blue>> #3498DB
hide <<blue>> stereotype
skinparam ClassBackgroundColor<<green>> #EAFAF1
skinparam ClassBorderColor<<green>> #2ECC71
hide <<green>> stereotype
skinparam ClassBackgroundColor<<grey>> #EAECEE
skinparam ClassBorderColor<<grey>> #2C3E50
hide <<grey>> stereotype

package org.eclipse.keyple.core.seproxy #FFFFFF {
+class "<b>final</b> SeProxyService" as SeProxyService << Singleton >> {
  +{static}SeProxyService getInstance()
  +String getVersion()
  +ReaderPlugin registerPlugin(AbstractPluginFactory pluginFactory)
  +boolean isRegistered(String pluginName)
  +boolean unregisterPlugin(String pluginName)
  +ReaderPlugin getPlugin(String name)
  +Set<ReaderPlugin> getPlugins()
}
~interface ProxyElement {
  +String getName()

  +Map<String, String> getParameters();
  +setParameter(String key, String value)
  +setParameters(Map<String, String> parameters)
}

+abstract AbstractPluginFactory {
  {abstract} #String getPluginName()
  {abstract} #ReaderPlugin getPluginInstance()
}
+interface ReaderPlugin {
  +Map<String, SeReader> getReaders()
  +Set<String> getReaderNames()
  +SeReader getReader(String name)
}
+interface SeReader {
  +boolean isSePresent()
  +addSeProtocolSetting(SeProtocol seProtocol, String protocolRule)
  +setSeProtocolSetting(Map<SeProtocol, String> protocolSetting)
  +TransmissionMode getTransmissionMode()
}

  SeProxyService "1" *- -> "*" AbstractPluginFactory : registers
  SeProxyService "1" *-down-> "*" ReaderPlugin : plugins
  AbstractPluginFactory "1" -right-> "1" ReaderPlugin : creates
  ReaderPlugin "1" *-right-> "*" SeReader : readers

+interface ReaderPoolPlugin {
  +SortedSet<String> getReaderGroupReferences()
  +SeReader allocateReader(String groupReference)
  +releaseReader(SeReader seReader)
}
  ReaderPlugin <|- - ReaderPoolPlugin : extends

  package event #FFFFFF {
+interface ObservablePlugin {
  +addObserver(<b>final</b> PluginObserver observer);
  +removeObserver(<b>final</b> PluginObserver observer);
  +notifyObservers(<b>final</b> PluginEvent event);
}
+interface ObservableReader {
  +addObserver(<b>final</b> ReaderObserver observer);
  +removeObserver(<b>final</b> ReaderObserver observer);
  +notifyObservers(<b>final</b> ReaderEvent event);

  +setDefaultSelectionRequest(AbstractDefaultSelectionsRequest defaultSelectionsRequest,
    NotificationMode notificationMode);
  +setDefaultSelectionRequest(AbstractDefaultSelectionsRequest defaultSelectionsRequest,
    NotificationMode notificationMode, PollingMode pollingMode);

  +startSeDetection(PollingMode pollingMode);
  +stopSeDetection();
  +notifySeProcessed();
}
  }
  ReaderPlugin <|- - ObservablePlugin : extends
  SeReader <|- - ObservableReader : extends
}

ProxyElement <|- - ReaderPlugin : extends
ProxyElement <|- - SeReader : extends

interface ReaderPlugin <<Plugin>>
interface ObservablePlugin <<Plugin>>
interface ReaderPoolPlugin <<Plugin>>
hide <<Plugin>> stereotype

interface SeReader <<Reader>>
interface ObservableReader <<Reader>>
hide <<Reader>> stereotype

skinparam class {
  BackgroundColor<<Plugin>> Azure
  BorderColor<<Plugin>> Blue
  BackgroundColor<<Reader>> #EEFFEE
  BorderColor<<Reader>> Green
}
@enduml

PlantUML version 1.2020.09(Sun May 10 14:51:06 MUT 2020)
(GPL source distribution)
Java Runtime: OpenJDK Runtime Environment
JVM: OpenJDK 64-Bit Server VM
Java Version: 11.0.6+8-b765.40
Operating System: Windows 10
Default Encoding: Cp1252
Language: fr
Country: FR
--></g></svg>