<?xml version="1.0" encoding="UTF-8" standalone="no"?><svg xmlns="http://www.w3.org/2000/svg" xmlns:xlink="http://www.w3.org/1999/xlink" contentScriptType="application/ecmascript" contentStyleType="text/css" height="1024.8px" preserveAspectRatio="none" style="width:1279px;height:1024px;" version="1.1" viewBox="0 0 1279 1024" width="1279.2px" zoomAndPan="magnify"><defs/><g><!--MD5=[43faeb760e7b9692ab91f636f0cf3388]
cluster external.terminalapplication--><polygon fill="#3399FF" points="496.8,66,739.2,66,747.6,94.3313,751.2,94.3313,751.2,186,496.8,186,496.8,66" style="stroke: #000000; stroke-width: 1.7999999999999998;"/><line style="stroke: #000000; stroke-width: 1.7999999999999998;" x1="496.8" x2="747.6" y1="94.3313" y2="94.3313"/><text fill="#000000" font-family="sans-serif" font-size="16.8" font-weight="bold" lengthAdjust="spacingAndGlyphs" textLength="235.2" x="501.6" y="85.8398">external.terminalapplication</text><!--MD5=[7db3c59d38ae5b37b484eb2df9368145]
cluster java.util--><polygon fill="#FFFFFF" points="780,57.6,853.2,57.6,861.6,85.9312,960,85.9312,960,194.4,780,194.4,780,57.6" style="stroke: #000000; stroke-width: 1.7999999999999998;"/><line style="stroke: #000000; stroke-width: 1.7999999999999998;" x1="780" x2="861.6" y1="85.9312" y2="85.9312"/><text fill="#000000" font-family="sans-serif" font-size="16.8" font-weight="bold" lengthAdjust="spacingAndGlyphs" textLength="66" x="784.8" y="77.4398">java.util</text><!--MD5=[2bcc54f38766b998c5e88efdbc7d1696]
cluster org.eclipse.keyple.core.seproxy--><polygon fill="#FFFFFF" points="26.4,283.2,303.6,283.2,312,311.5313,1252.8,311.5313,1252.8,780,26.4,780,26.4,283.2" style="stroke: #000000; stroke-width: 1.7999999999999998;"/><line style="stroke: #000000; stroke-width: 1.7999999999999998;" x1="26.4" x2="312" y1="311.5313" y2="311.5313"/><text fill="#000000" font-family="sans-serif" font-size="16.8" font-weight="bold" lengthAdjust="spacingAndGlyphs" textLength="270" x="31.2" y="303.0398">org.eclipse.keyple.core.seproxy</text><!--MD5=[3e81cc6ee7da4fa8b6adc12b329096f6]
cluster util--><polygon fill="#FFFFFF" points="548.4,840,582,840,590.4,868.3313,1065.6,868.3313,1065.6,1010.4,548.4,1010.4,548.4,840" style="stroke: #000000; stroke-width: 1.7999999999999998;"/><line style="stroke: #000000; stroke-width: 1.7999999999999998;" x1="548.4" x2="590.4" y1="868.3313" y2="868.3313"/><text fill="#000000" font-family="sans-serif" font-size="16.8" font-weight="bold" lengthAdjust="spacingAndGlyphs" textLength="26.4" x="553.2" y="859.8398">util</text><!--MD5=[36749fbd9f1718a5265922a19e14c350]
class SpecificTerminal--><rect fill="#FEFECE" height="57.6" id="SpecificTerminal" style="stroke: #D4AC0D; stroke-width: 1.7999999999999998;" width="148.8" x="523.2" y="109.2"/><ellipse cx="541.2" cy="128.4" fill="#ADD1B2" rx="13.2" ry="13.2" style="stroke: #ADD1B2; stroke-width: 1.2;"/><path d="M543.6,124.2 Q543.8438,123.6 544.125,123.3 Q544.4063,123 544.725,123 Q545.2875,123 545.6438,123.3375 Q546,123.675 546,124.4625 L546,126.3375 Q546,127.125 545.6625,127.4625 Q545.325,127.8 544.8,127.8 Q544.3313,127.8 544.0313,127.5938 Q543.7312,127.3875 543.6,126.8438 Q543.5437,126.4688 543.3375,126.2625 Q542.9625,125.8687 542.2875,125.6438 Q541.6125,125.4 540.9375,125.4 Q540.0938,125.4 539.3813,125.7375 Q538.6875,126.075 538.1438,126.825 Q537.6,127.575 537.6,128.6063 L537.6,129.7125 Q537.6,130.95 538.6125,131.775 Q539.625,132.6 541.425,132.6 Q542.4938,132.6 543.2438,132.3563 Q543.675,132.225 544.1625,131.7938 Q544.4812,131.55 544.65,131.475 Q544.8188,131.4 545.025,131.4 Q545.4187,131.4 545.7,131.7188 Q546,132.0187 546,132.45 Q546,132.8625 545.5875,133.35 Q544.9875,134.0625 544.0313,134.4562 Q542.775,135 541.2375,135 Q539.4375,135 537.9938,134.2875 Q536.8313,133.725 536.0063,132.5063 Q535.2,131.2875 535.2,129.8438 L535.2,128.5313 Q535.2,127.0313 535.9125,125.7188 Q536.6438,124.4063 537.9,123.7125 Q539.175,123 540.6,123 Q541.4625,123 542.2125,123.3 Q542.9625,123.6 543.6,124.2 Z "/><text fill="#000000" font-family="sans-serif" font-size="14.4" lengthAdjust="spacingAndGlyphs" textLength="110.4" x="558" y="134.2922">SpecificTerminal</text><line style="stroke: #D4AC0D; stroke-width: 1.7999999999999998;" x1="524.4" x2="670.8" y1="147.6" y2="147.6"/><line style="stroke: #D4AC0D; stroke-width: 1.7999999999999998;" x1="524.4" x2="670.8" y1="157.2" y2="157.2"/><!--MD5=[7a4729d26b999f6a4650b01106c103c5]
class Comparable--><rect fill="#FEFECE" height="74.2031" id="Comparable" style="stroke: #D4AC0D; stroke-width: 1.7999999999999998;" width="140.4" x="799.8" y="100.8"/><ellipse cx="819.96" cy="120" fill="#B4A7E5" rx="13.2" ry="13.2" style="stroke: #B4A7E5; stroke-width: 1.2;"/><path d="M821.16,116.4 L821.16,123.6 L823.56,123.6 L824.1412,123.6 L824.76,124.35 L824.76,124.8 L824.76,125.25 L824.1412,126 L823.56,126 L816.36,126 L815.7788,126 L815.16,125.25 L815.16,124.8 L815.16,124.35 L815.7788,123.6 L816.36,123.6 L818.76,123.6 L818.76,116.4 L816.36,116.4 L815.7788,116.4 L815.16,115.65 L815.16,115.2 L815.16,114.75 L815.7788,114 L816.36,114 L823.56,114 L824.1412,114 L824.76,114.75 L824.76,115.2 L824.76,115.65 L824.1412,116.4 L823.56,116.4 L821.16,116.4 Z "/><text fill="#000000" font-family="sans-serif" font-size="14.4" font-style="italic" lengthAdjust="spacingAndGlyphs" textLength="84" x="837.24" y="125.8922">Comparable</text><rect fill="#FFFFFF" height="20.5125" style="stroke: #000000; stroke-width: 1.2; stroke-dasharray: 2.0,2.0;" width="10.8" x="933" y="97.2"/><text fill="#000000" font-family="sans-serif" font-size="14.4" font-style="italic" lengthAdjust="spacingAndGlyphs" textLength="8.4" x="934.2" y="113.3484">T</text><line style="stroke: #D4AC0D; stroke-width: 1.7999999999999998;" x1="801" x2="939" y1="139.2" y2="139.2"/><line style="stroke: #D4AC0D; stroke-width: 1.7999999999999998;" x1="801" x2="939" y1="148.8" y2="148.8"/><ellipse cx="813" cy="162" fill="#84BE84" rx="3.6" ry="3.6" style="stroke: #038048; stroke-width: 1.2;"/><text fill="#000000" font-family="sans-serif" font-size="13.2" lengthAdjust="spacingAndGlyphs" textLength="109.2" x="823.8" y="167.3027">int compareTo(T o)</text><!--MD5=[f0c44d4c6fb415056b2c0aabd573961b]
class SeProxyService--><rect fill="#FEFECE" height="216.8531" id="SeProxyService" style="stroke: #D4AC0D; stroke-width: 1.7999999999999998;" width="328.8" x="433.2" y="326.4"/><ellipse cx="519.3" cy="350.5125" fill="#ADD1B2" rx="13.2" ry="13.2" style="stroke: #ADD1B2; stroke-width: 1.2;"/><path d="M521.7,346.3125 Q521.9438,345.7125 522.225,345.4125 Q522.5063,345.1125 522.825,345.1125 Q523.3875,345.1125 523.7438,345.45 Q524.1,345.7875 524.1,346.575 L524.1,348.45 Q524.1,349.2375 523.7625,349.575 Q523.425,349.9125 522.9,349.9125 Q522.4313,349.9125 522.1313,349.7063 Q521.8313,349.5 521.7,348.9563 Q521.6438,348.5813 521.4375,348.375 Q521.0625,347.9813 520.3875,347.7562 Q519.7125,347.5125 519.0375,347.5125 Q518.1938,347.5125 517.4812,347.85 Q516.7875,348.1875 516.2438,348.9375 Q515.7,349.6875 515.7,350.7188 L515.7,351.825 Q515.7,353.0625 516.7125,353.8875 Q517.725,354.7125 519.525,354.7125 Q520.5938,354.7125 521.3438,354.4688 Q521.775,354.3375 522.2625,353.9063 Q522.5813,353.6625 522.75,353.5875 Q522.9187,353.5125 523.125,353.5125 Q523.5188,353.5125 523.8,353.8313 Q524.1,354.1312 524.1,354.5625 Q524.1,354.975 523.6875,355.4625 Q523.0875,356.175 522.1313,356.5687 Q520.875,357.1125 519.3375,357.1125 Q517.5375,357.1125 516.0938,356.4 Q514.9313,355.8375 514.1062,354.6188 Q513.3,353.4 513.3,351.9563 L513.3,350.6438 Q513.3,349.1438 514.0125,347.8313 Q514.7438,346.5188 516,345.825 Q517.275,345.1125 518.7,345.1125 Q519.5625,345.1125 520.3125,345.4125 Q521.0625,345.7125 521.7,346.3125 Z "/><text fill="#000000" font-family="sans-serif" font-size="14.4" font-style="italic" lengthAdjust="spacingAndGlyphs" textLength="79.2" x="577.5" y="347.3484">«Singleton»</text><ellipse cx="549.9" cy="358.9688" fill="#84BE84" rx="3.6" ry="3.6" style="stroke: #038048; stroke-width: 1.2;"/><text fill="#000000" font-family="sans-serif" font-size="14.4" font-weight="bold" lengthAdjust="spacingAndGlyphs" textLength="28.8" x="557.1" y="365.4609">final</text><text fill="#000000" font-family="sans-serif" font-size="14.4" lengthAdjust="spacingAndGlyphs" textLength="100.8" x="589.5" y="365.4609">SeProxyService</text><line style="stroke: #D4AC0D; stroke-width: 1.7999999999999998;" x1="434.4" x2="760.8" y1="374.625" y2="374.625"/><line style="stroke: #D4AC0D; stroke-width: 1.7999999999999998;" x1="434.4" x2="760.8" y1="384.225" y2="384.225"/><ellipse cx="446.4" cy="397.425" fill="#84BE84" rx="3.6" ry="3.6" style="stroke: #038048; stroke-width: 1.2;"/><text fill="#000000" font-family="sans-serif" font-size="13.2" lengthAdjust="spacingAndGlyphs" text-decoration="underline" textLength="174" x="457.2" y="402.7277">SeProxyService getInstance()</text><ellipse cx="446.4" cy="414.0281" fill="#84BE84" rx="3.6" ry="3.6" style="stroke: #038048; stroke-width: 1.2;"/><text fill="#000000" font-family="sans-serif" font-size="13.2" lengthAdjust="spacingAndGlyphs" textLength="110.4" x="457.2" y="419.3309">String getVersion()</text><text fill="#000000" font-family="sans-serif" font-size="13.2" lengthAdjust="spacingAndGlyphs" textLength="0" x="460.8" y="435.934"/><ellipse cx="446.4" cy="447.2344" fill="#84BE84" rx="3.6" ry="3.6" style="stroke: #038048; stroke-width: 1.2;"/><text fill="#000000" font-family="sans-serif" font-size="13.2" lengthAdjust="spacingAndGlyphs" textLength="297.6" x="457.2" y="452.5371">registerPlugin(AbstractPluginFactory pluginFactory)</text><ellipse cx="446.4" cy="463.8375" fill="#84BE84" rx="3.6" ry="3.6" style="stroke: #038048; stroke-width: 1.2;"/><text fill="#000000" font-family="sans-serif" font-size="13.2" lengthAdjust="spacingAndGlyphs" textLength="234" x="457.2" y="469.1402">boolean isRegistered(String pluginName)</text><ellipse cx="446.4" cy="480.4406" fill="#84BE84" rx="3.6" ry="3.6" style="stroke: #038048; stroke-width: 1.2;"/><text fill="#000000" font-family="sans-serif" font-size="13.2" lengthAdjust="spacingAndGlyphs" textLength="254.4" x="457.2" y="485.7434">boolean unregisterPlugin(String pluginName)</text><text fill="#000000" font-family="sans-serif" font-size="13.2" lengthAdjust="spacingAndGlyphs" textLength="0" x="460.8" y="502.3465"/><ellipse cx="446.4" cy="513.6469" fill="#84BE84" rx="3.6" ry="3.6" style="stroke: #038048; stroke-width: 1.2;"/><text fill="#000000" font-family="sans-serif" font-size="13.2" lengthAdjust="spacingAndGlyphs" textLength="208.8" x="457.2" y="518.9496">ReaderPlugin getPlugin(String name)</text><ellipse cx="446.4" cy="530.25" fill="#84BE84" rx="3.6" ry="3.6" style="stroke: #038048; stroke-width: 1.2;"/><text fill="#000000" font-family="sans-serif" font-size="13.2" lengthAdjust="spacingAndGlyphs" textLength="219.6" x="457.2" y="535.5527">SortedSet&lt;ReaderPlugin&gt; getPlugins()</text><!--MD5=[ec495f5f6ae18812fb155b23e8e93f55]
class ReaderPoolPlugin--><rect fill="#FEFECE" height="107.4094" id="ReaderPoolPlugin" style="stroke: #D4AC0D; stroke-width: 1.7999999999999998;" width="320.4" x="46.2" y="645"/><ellipse cx="134.1" cy="664.2" fill="#B4A7E5" rx="13.2" ry="13.2" style="stroke: #B4A7E5; stroke-width: 1.2;"/><path d="M135.3,660.6 L135.3,667.8 L137.7,667.8 L138.2813,667.8 L138.9,668.55 L138.9,669 L138.9,669.45 L138.2813,670.2 L137.7,670.2 L130.5,670.2 L129.9188,670.2 L129.3,669.45 L129.3,669 L129.3,668.55 L129.9188,667.8 L130.5,667.8 L132.9,667.8 L132.9,660.6 L130.5,660.6 L129.9188,660.6 L129.3,659.85 L129.3,659.4 L129.3,658.95 L129.9188,658.2 L130.5,658.2 L137.7,658.2 L138.2813,658.2 L138.9,658.95 L138.9,659.4 L138.9,659.85 L138.2813,660.6 L137.7,660.6 L135.3,660.6 Z "/><ellipse cx="164.7" cy="663.6" fill="#84BE84" rx="3.6" ry="3.6" style="stroke: #038048; stroke-width: 1.2;"/><text fill="#000000" font-family="sans-serif" font-size="14.4" font-style="italic" lengthAdjust="spacingAndGlyphs" textLength="121.2" x="171.9" y="670.0922">ReaderPoolPlugin</text><line style="stroke: #D4AC0D; stroke-width: 1.7999999999999998;" x1="47.4" x2="365.4" y1="683.4" y2="683.4"/><line style="stroke: #D4AC0D; stroke-width: 1.7999999999999998;" x1="47.4" x2="365.4" y1="693" y2="693"/><ellipse cx="59.4" cy="706.2" fill="#84BE84" rx="3.6" ry="3.6" style="stroke: #038048; stroke-width: 1.2;"/><text fill="#000000" font-family="sans-serif" font-size="13.2" lengthAdjust="spacingAndGlyphs" textLength="283.2" x="70.2" y="711.5027">SortedSet&lt;String&gt; getReaderGroupReferences()</text><ellipse cx="59.4" cy="722.8031" fill="#84BE84" rx="3.6" ry="3.6" style="stroke: #038048; stroke-width: 1.2;"/><text fill="#000000" font-family="sans-serif" font-size="13.2" lengthAdjust="spacingAndGlyphs" textLength="289.2" x="70.2" y="728.1059">SeReader allocateReader(String groupReference)</text><ellipse cx="59.4" cy="739.4063" fill="#84BE84" rx="3.6" ry="3.6" style="stroke: #038048; stroke-width: 1.2;"/><text fill="#000000" font-family="sans-serif" font-size="13.2" lengthAdjust="spacingAndGlyphs" textLength="212.4" x="70.2" y="744.709">releaseReader(SeReader seReader)</text><!--MD5=[a0e88443257adb8def549c32ec694d43]
class ReaderPlugin--><rect fill="#FEFECE" height="107.4094" id="ReaderPlugin" style="stroke: #D4AC0D; stroke-width: 1.7999999999999998;" width="264" x="465.6" y="645"/><ellipse cx="540.3" cy="664.2" fill="#B4A7E5" rx="13.2" ry="13.2" style="stroke: #B4A7E5; stroke-width: 1.2;"/><path d="M541.5,660.6 L541.5,667.8 L543.9,667.8 L544.4812,667.8 L545.1,668.55 L545.1,669 L545.1,669.45 L544.4812,670.2 L543.9,670.2 L536.7,670.2 L536.1188,670.2 L535.5,669.45 L535.5,669 L535.5,668.55 L536.1188,667.8 L536.7,667.8 L539.1,667.8 L539.1,660.6 L536.7,660.6 L536.1188,660.6 L535.5,659.85 L535.5,659.4 L535.5,658.95 L536.1188,658.2 L536.7,658.2 L543.9,658.2 L544.4812,658.2 L545.1,658.95 L545.1,659.4 L545.1,659.85 L544.4812,660.6 L543.9,660.6 L541.5,660.6 Z "/><ellipse cx="570.9" cy="663.6" fill="#84BE84" rx="3.6" ry="3.6" style="stroke: #038048; stroke-width: 1.2;"/><text fill="#000000" font-family="sans-serif" font-size="14.4" font-style="italic" lengthAdjust="spacingAndGlyphs" textLength="91.2" x="578.1" y="670.0922">ReaderPlugin</text><line style="stroke: #D4AC0D; stroke-width: 1.7999999999999998;" x1="466.8" x2="728.4" y1="683.4" y2="683.4"/><line style="stroke: #D4AC0D; stroke-width: 1.7999999999999998;" x1="466.8" x2="728.4" y1="693" y2="693"/><ellipse cx="478.8" cy="706.2" fill="#84BE84" rx="3.6" ry="3.6" style="stroke: #038048; stroke-width: 1.2;"/><text fill="#000000" font-family="sans-serif" font-size="13.2" lengthAdjust="spacingAndGlyphs" textLength="218.4" x="489.6" y="711.5027">SortedSet&lt;String&gt; getReaderNames()</text><ellipse cx="478.8" cy="722.8031" fill="#84BE84" rx="3.6" ry="3.6" style="stroke: #038048; stroke-width: 1.2;"/><text fill="#000000" font-family="sans-serif" font-size="13.2" lengthAdjust="spacingAndGlyphs" textLength="199.2" x="489.6" y="728.1059">SeReader getReader(String name)</text><ellipse cx="478.8" cy="739.4063" fill="#84BE84" rx="3.6" ry="3.6" style="stroke: #038048; stroke-width: 1.2;"/><text fill="#000000" font-family="sans-serif" font-size="13.2" lengthAdjust="spacingAndGlyphs" textLength="232.8" x="489.6" y="744.709">Set&lt;? extends SeReader&gt; getReaders()</text><!--MD5=[dd49942b1f02350b5568646d3da64c49]
class SeReader--><rect fill="#FEFECE" height="124.0125" id="SeReader" style="stroke: #D4AC0D; stroke-width: 1.7999999999999998;" width="408" x="825.6" y="637.2"/><ellipse cx="984.3" cy="656.4" fill="#B4A7E5" rx="13.2" ry="13.2" style="stroke: #B4A7E5; stroke-width: 1.2;"/><path d="M985.5,652.8 L985.5,660 L987.9,660 L988.4812,660 L989.1,660.75 L989.1,661.2 L989.1,661.65 L988.4812,662.4 L987.9,662.4 L980.7,662.4 L980.1188,662.4 L979.5,661.65 L979.5,661.2 L979.5,660.75 L980.1188,660 L980.7,660 L983.1,660 L983.1,652.8 L980.7,652.8 L980.1188,652.8 L979.5,652.05 L979.5,651.6 L979.5,651.15 L980.1188,650.4 L980.7,650.4 L987.9,650.4 L988.4812,650.4 L989.1,651.15 L989.1,651.6 L989.1,652.05 L988.4812,652.8 L987.9,652.8 L985.5,652.8 Z "/><ellipse cx="1014.9" cy="655.8" fill="#84BE84" rx="3.6" ry="3.6" style="stroke: #038048; stroke-width: 1.2;"/><text fill="#000000" font-family="sans-serif" font-size="14.4" font-style="italic" lengthAdjust="spacingAndGlyphs" textLength="67.2" x="1022.1" y="662.2922">SeReader</text><line style="stroke: #D4AC0D; stroke-width: 1.7999999999999998;" x1="826.8" x2="1232.4" y1="675.6" y2="675.6"/><line style="stroke: #D4AC0D; stroke-width: 1.7999999999999998;" x1="826.8" x2="1232.4" y1="685.2" y2="685.2"/><ellipse cx="838.8" cy="698.4" fill="#84BE84" rx="3.6" ry="3.6" style="stroke: #038048; stroke-width: 1.2;"/><text fill="#000000" font-family="sans-serif" font-size="13.2" lengthAdjust="spacingAndGlyphs" textLength="128.4" x="849.6" y="703.7027">boolean isSePresent()</text><ellipse cx="838.8" cy="715.0031" fill="#84BE84" rx="3.6" ry="3.6" style="stroke: #038048; stroke-width: 1.2;"/><text fill="#000000" font-family="sans-serif" font-size="13.2" lengthAdjust="spacingAndGlyphs" textLength="376.8" x="849.6" y="720.3059">addSeProtocolSetting(SeProtocol seProtocol, String protocolRule)</text><ellipse cx="838.8" cy="731.6062" fill="#84BE84" rx="3.6" ry="3.6" style="stroke: #038048; stroke-width: 1.2;"/><text fill="#000000" font-family="sans-serif" font-size="13.2" lengthAdjust="spacingAndGlyphs" textLength="361.2" x="849.6" y="736.909">setSeProtocolSetting(Map&lt;SeProtocol, String&gt; protocolSetting)</text><ellipse cx="838.8" cy="748.2094" fill="#84BE84" rx="3.6" ry="3.6" style="stroke: #038048; stroke-width: 1.2;"/><text fill="#000000" font-family="sans-serif" font-size="13.2" lengthAdjust="spacingAndGlyphs" textLength="247.2" x="849.6" y="753.5121">TransmissionMode getTransmissionMode()</text><!--MD5=[8e936f9b0c8a405e1c674edc8f191d2f]
class Nameable--><rect fill="#FEFECE" height="74.2031" id="Nameable" style="stroke: #D4AC0D; stroke-width: 1.7999999999999998;" width="128.4" x="568.2" y="900"/><ellipse cx="588.9" cy="919.2" fill="#B4A7E5" rx="13.2" ry="13.2" style="stroke: #B4A7E5; stroke-width: 1.2;"/><path d="M590.1,915.6 L590.1,922.8 L592.5,922.8 L593.0813,922.8 L593.7,923.55 L593.7,924 L593.7,924.45 L593.0813,925.2 L592.5,925.2 L585.3,925.2 L584.7188,925.2 L584.1,924.45 L584.1,924 L584.1,923.55 L584.7188,922.8 L585.3,922.8 L587.7,922.8 L587.7,915.6 L585.3,915.6 L584.7188,915.6 L584.1,914.85 L584.1,914.4 L584.1,913.95 L584.7188,913.2 L585.3,913.2 L592.5,913.2 L593.0813,913.2 L593.7,913.95 L593.7,914.4 L593.7,914.85 L593.0813,915.6 L592.5,915.6 L590.1,915.6 Z "/><ellipse cx="612.3" cy="918.6" fill="#84BE84" rx="3.6" ry="3.6" style="stroke: #038048; stroke-width: 1.2;"/><text fill="#000000" font-family="sans-serif" font-size="14.4" font-style="italic" lengthAdjust="spacingAndGlyphs" textLength="70.8" x="619.5" y="925.0922">Nameable</text><line style="stroke: #D4AC0D; stroke-width: 1.7999999999999998;" x1="569.4" x2="695.4" y1="938.4" y2="938.4"/><line style="stroke: #D4AC0D; stroke-width: 1.7999999999999998;" x1="569.4" x2="695.4" y1="948" y2="948"/><ellipse cx="581.4" cy="961.2" fill="#84BE84" rx="3.6" ry="3.6" style="stroke: #038048; stroke-width: 1.2;"/><text fill="#000000" font-family="sans-serif" font-size="13.2" lengthAdjust="spacingAndGlyphs" textLength="97.2" x="592.2" y="966.5027">String getName()</text><!--MD5=[d4973a117951818d974fd20d0c16c2e4]
class Configurable--><rect fill="#FEFECE" height="107.4094" id="Configurable" style="stroke: #D4AC0D; stroke-width: 1.7999999999999998;" width="307.2" x="739.2" y="883.2"/><ellipse cx="837.9" cy="902.4" fill="#B4A7E5" rx="13.2" ry="13.2" style="stroke: #B4A7E5; stroke-width: 1.2;"/><path d="M839.1,898.8 L839.1,906 L841.5,906 L842.0813,906 L842.7,906.75 L842.7,907.2 L842.7,907.65 L842.0813,908.4 L841.5,908.4 L834.3,908.4 L833.7188,908.4 L833.1,907.65 L833.1,907.2 L833.1,906.75 L833.7188,906 L834.3,906 L836.7,906 L836.7,898.8 L834.3,898.8 L833.7188,898.8 L833.1,898.05 L833.1,897.6 L833.1,897.15 L833.7188,896.4 L834.3,896.4 L841.5,896.4 L842.0813,896.4 L842.7,897.15 L842.7,897.6 L842.7,898.05 L842.0813,898.8 L841.5,898.8 L839.1,898.8 Z "/><ellipse cx="868.5" cy="901.8" fill="#84BE84" rx="3.6" ry="3.6" style="stroke: #038048; stroke-width: 1.2;"/><text fill="#000000" font-family="sans-serif" font-size="14.4" font-style="italic" lengthAdjust="spacingAndGlyphs" textLength="86.4" x="875.7" y="908.2922">Configurable</text><line style="stroke: #D4AC0D; stroke-width: 1.7999999999999998;" x1="740.4" x2="1045.2" y1="921.6" y2="921.6"/><line style="stroke: #D4AC0D; stroke-width: 1.7999999999999998;" x1="740.4" x2="1045.2" y1="931.2" y2="931.2"/><ellipse cx="752.4" cy="944.4" fill="#84BE84" rx="3.6" ry="3.6" style="stroke: #038048; stroke-width: 1.2;"/><text fill="#000000" font-family="sans-serif" font-size="13.2" lengthAdjust="spacingAndGlyphs" textLength="210" x="763.2" y="949.7027">Map&lt;String, String&gt; getParameters()</text><ellipse cx="752.4" cy="961.0031" fill="#84BE84" rx="3.6" ry="3.6" style="stroke: #038048; stroke-width: 1.2;"/><text fill="#000000" font-family="sans-serif" font-size="13.2" lengthAdjust="spacingAndGlyphs" textLength="219.6" x="763.2" y="966.3059">setParameter(String key, String value)</text><ellipse cx="752.4" cy="977.6062" fill="#84BE84" rx="3.6" ry="3.6" style="stroke: #038048; stroke-width: 1.2;"/><text fill="#000000" font-family="sans-serif" font-size="13.2" lengthAdjust="spacingAndGlyphs" textLength="276" x="763.2" y="982.909">setParameters(Map&lt;String, String&gt; parameters)</text><!--MD5=[98fb93546a7dc75f66b7a26283e02bb5]
link SeProxyService to ReaderPlugin--><path d="M597.6,558.1356 C597.6,558.1356 597.6,607.5432 597.6,628.9356 " fill="none" id="SeProxyService-ReaderPlugin" style="stroke: #A80036; stroke-width: 1.2;"/><polygon fill="#A80036" points="597.6,644.6808,602.4,633.8808,597.6,638.6808,592.8,633.8808,597.6,644.6808" style="stroke: #A80036; stroke-width: 1.2;"/><line style="stroke: #A80036; stroke-width: 1.2;" x1="597.6" x2="597.6" y1="638.6808" y2="629.0808"/><polygon fill="#A80036" points="597.6,543.7356,592.8,550.9356,597.6,558.1356,602.4,550.9356,597.6,543.7356" style="stroke: #A80036; stroke-width: 1.2;"/><text fill="#000000" font-family="sans-serif" font-size="15.6" lengthAdjust="spacingAndGlyphs" textLength="49.2" x="598.8" y="596.9941">plugins</text><text fill="#000000" font-family="sans-serif" font-size="15.6" lengthAdjust="spacingAndGlyphs" textLength="8.4" x="588.8784" y="569.0192">1</text><text fill="#000000" font-family="sans-serif" font-size="15.6" lengthAdjust="spacingAndGlyphs" textLength="6" x="591.1406" y="631.9648">*</text><!--MD5=[4f7f04d81ce91b383557dc30cd7047a0]
link ReaderPoolPlugin to ReaderPlugin--><path d="M366.6444,699 C391.2528,699 416.634,699 441.1584,699 " fill="none" id="ReaderPoolPlugin-&gt;ReaderPlugin" style="stroke: #A80036; stroke-width: 1.2;"/><polygon fill="none" points="441.3372,690.6,465.3372,699,441.3372,707.4,441.3372,690.6" style="stroke: #A80036; stroke-width: 1.2;"/><text fill="#000000" font-family="sans-serif" font-size="15.6" lengthAdjust="spacingAndGlyphs" textLength="55.2" x="388.5" y="691.1941">extends</text><!--MD5=[c88fac8de0d16551763276c4b9088a93]
link ReaderPlugin to SeReader--><path d="M744.5496,699 C744.5496,699 788.0364,699 809.6148,699 " fill="none" id="ReaderPlugin-SeReader" style="stroke: #A80036; stroke-width: 1.2;"/><polygon fill="#A80036" points="825.3252,699,814.5252,694.2,819.3252,699,814.5252,703.8,825.3252,699" style="stroke: #A80036; stroke-width: 1.2;"/><line style="stroke: #A80036; stroke-width: 1.2;" x1="819.3252" x2="809.7252" y1="699" y2="699"/><polygon fill="#A80036" points="730.1496,699,737.3496,703.8,744.5496,699,737.3496,694.2,730.1496,699" style="stroke: #A80036; stroke-width: 1.2;"/><text fill="#000000" font-family="sans-serif" font-size="15.6" lengthAdjust="spacingAndGlyphs" textLength="51.6" x="751.8" y="691.1941">readers</text><text fill="#000000" font-family="sans-serif" font-size="15.6" lengthAdjust="spacingAndGlyphs" textLength="8.4" x="739.3375" y="695.3832">1</text><text fill="#000000" font-family="sans-serif" font-size="15.6" lengthAdjust="spacingAndGlyphs" textLength="6" x="809.9331" y="695.5594">*</text><!--MD5=[f8c43c6217b3f7a11e63ade92879ea46]
link SpecificTerminal to SeProxyService--><path d="M597.6,166.9152 C597.6,201.9492 597.6,264.4152 597.6,320.1108 " fill="none" id="SpecificTerminal-&gt;SeProxyService" style="stroke: #A80036; stroke-width: 1.2;"/><polygon fill="#A80036" points="597.6,326.1696,602.4,315.3696,597.6,320.1696,592.8,315.3696,597.6,326.1696" style="stroke: #A80036; stroke-width: 1.2;"/><text fill="#000000" font-family="sans-serif" font-size="15.6" lengthAdjust="spacingAndGlyphs" textLength="33.6" x="598.8" y="259.7941">uses</text><polygon fill="#000000" points="610.2,270.4219,613.8,277.6219,617.4,270.4219,610.2,270.4219" style="stroke: #000000; stroke-width: 1.2;"/><!--MD5=[ec9dba54342ff9332a3d986f9a58d731]
link ReaderPlugin to Nameable--><path d="M605.4096,753.1176 C610.7664,789.4152 617.8872,837.6612 623.4696,875.4864 " fill="none" id="ReaderPlugin-&gt;Nameable" style="stroke: #A80036; stroke-width: 1.2;"/><polygon fill="none" points="631.8528,874.7628,627.048,899.7324,615.234,877.2156,631.8528,874.7628" style="stroke: #A80036; stroke-width: 1.2;"/><text fill="#000000" font-family="sans-serif" font-size="15.6" lengthAdjust="spacingAndGlyphs" textLength="55.2" x="615.6" y="816.5941">extends</text><!--MD5=[2c94e8471fd98724761199e1e043fbf0]
reverse link Nameable to SeReader--><path d="M665.4504,879.8064 C679.4568,860.9676 697.5072,841.8576 718.8,830.4 C755.6256,810.5856 772.506,833.3388 812.4,820.8 C856.632,806.8968 902.016,783.4044 939.7848,760.8276 " fill="none" id="Nameable&lt;-SeReader" style="stroke: #A80036; stroke-width: 1.2;"/><polygon fill="none" points="672.318,884.6448,651.876,899.766,658.4268,875.196,672.318,884.6448" style="stroke: #A80036; stroke-width: 1.2;"/><text fill="#000000" font-family="sans-serif" font-size="15.6" lengthAdjust="spacingAndGlyphs" textLength="55.2" x="864" y="816.5941">extends</text><!--MD5=[deb23c20a85b85f6166f6f36efa4ac2d]
link ReaderPlugin to Configurable--><path d="M663.8484,753.1176 C706.2396,786.9792 761.6508,831.24 807.342,867.738 " fill="none" id="ReaderPlugin-&gt;Configurable" style="stroke: #A80036; stroke-width: 1.2;"/><polygon fill="none" points="812.7528,861.3096,826.2624,882.8508,802.2684,874.4352,812.7528,861.3096" style="stroke: #A80036; stroke-width: 1.2;"/><text fill="#000000" font-family="sans-serif" font-size="15.6" lengthAdjust="spacingAndGlyphs" textLength="55.2" x="746.4" y="816.5941">extends</text><!--MD5=[4041f5451312927f98f72078ec6163bb]
reverse link Configurable to SeReader--><path d="M943.6176,862.7628 C952.5852,849.012 961.602,834.6132 969.6,820.8 C980.6148,801.7764 991.6296,780.4632 1001.16,761.106 " fill="none" id="Configurable&lt;-SeReader" style="stroke: #A80036; stroke-width: 1.2;"/><polygon fill="none" points="950.4636,867.6384,930.1812,882.9756,936.4728,858.3384,950.4636,867.6384" style="stroke: #A80036; stroke-width: 1.2;"/><text fill="#000000" font-family="sans-serif" font-size="15.6" lengthAdjust="spacingAndGlyphs" textLength="55.2" x="980.4" y="816.5941">extends</text><!--MD5=[1e3cb17105e1bb1ece1cc559abf685ba]
reverse link Comparable to ReaderPlugin--><path d="M862.0896,199.2888 C848.3844,297.258 818.3376,486.2424 783.6,543.6 C759.1548,583.9632 720.2748,618.63 684.3672,644.8116 " fill="none" id="Comparable&lt;-ReaderPlugin" style="stroke: #A80036; stroke-width: 1.2;"/><polygon fill="none" points="853.7868,198.0036,865.3632,175.3644,870.432,200.2812,853.7868,198.0036" style="stroke: #A80036; stroke-width: 1.2;"/><text fill="#000000" font-family="sans-serif" font-size="15.6" lengthAdjust="spacingAndGlyphs" textLength="55.2" x="850.8" y="441.5941">extends</text><!--MD5=[78d3bddb9583ba0db02a971cfde2af88]
reverse link Comparable to SeReader--><path d="M898.158,197.3508 C908.736,220.6848 920.2548,248.058 928.8,273.6 C971.1888,400.302 1003.0428,553.9356 1018.7388,637.1364 " fill="none" id="Comparable&lt;-SeReader" style="stroke: #A80036; stroke-width: 1.2;"/><polygon fill="none" points="890.538,200.8848,888.0384,175.5804,905.772,193.8036,890.538,200.8848" style="stroke: #A80036; stroke-width: 1.2;"/><text fill="#000000" font-family="sans-serif" font-size="15.6" lengthAdjust="spacingAndGlyphs" textLength="55.2" x="1000.8" y="441.5941">extends</text><!--MD5=[72c815a958d202568de5b74891c29199]
@startuml
skinparam ClassBorderColor #D4AC0D
skinparam stereotypeABorderColor #A9DCDF
skinparam stereotypeIBorderColor #B4A7E5
skinparam stereotypeCBorderColor #ADD1B2
skinparam stereotypeEBorderColor #EB93DF
skinparam shadowing false

skinparam StateBorderColor #D4AC0D
skinparam ActivityBorderColor #D4AC0D

skinparam ClassBackgroundColor<<red>> #FDEDEC
skinparam ClassBorderColor<<red>> #E74C3C
hide <<red>> stereotype
skinparam ClassBackgroundColor<<purple>> #F4ECF7
skinparam ClassBorderColor<<purple>> #8E44AD
hide <<purple>> stereotype
skinparam ClassBackgroundColor<<blue>> #EBF5FB
skinparam ClassBorderColor<<blue>> #3498DB
hide <<blue>> stereotype
skinparam ClassBackgroundColor<<green>> #EAFAF1
skinparam ClassBorderColor<<green>> #2ECC71
hide <<green>> stereotype

skinparam ClassBackgroundColor<<orange>> #FDF2E9
skinparam ClassBorderColor<<orange>> #E67E22
hide <<orange>> stereotype

skinparam ClassBackgroundColor<<grey>> #EAECEE
skinparam ClassBorderColor<<grey>> #2C3E50
hide <<grey>> stereotype

together {
  package external.terminalapplication #3399FF {
    class SpecificTerminal
  }

package java.util #FFFFFF {
  interface Comparable<T> {
    +int compareTo(T o)
  }
}
}

package org.eclipse.keyple.core.seproxy #FFFFFF {
+class "<b>final</b> SeProxyService" as SeProxyService << Singleton >> {
  +{static}SeProxyService getInstance()
  +String getVersion()

  +registerPlugin(AbstractPluginFactory pluginFactory)
  +boolean isRegistered(String pluginName)
  +boolean unregisterPlugin(String pluginName)

  +ReaderPlugin getPlugin(String name)
  +SortedSet<ReaderPlugin> getPlugins()
}
+interface ReaderPoolPlugin {
  +SortedSet<String> getReaderGroupReferences()
  +SeReader allocateReader(String groupReference)
  +releaseReader(SeReader seReader)
}
+interface ReaderPlugin {
  +SortedSet<String> getReaderNames()
  +SeReader getReader(String name)
  +Set<? extends SeReader> getReaders()
}
+interface SeReader {
  +boolean isSePresent()
  +addSeProtocolSetting(SeProtocol seProtocol, String protocolRule)
  +setSeProtocolSetting(Map<SeProtocol, String> protocolSetting)
  +TransmissionMode getTransmissionMode()
}

  SeProxyService "1" *-down-> "*" ReaderPlugin : plugins
  ReaderPlugin <|-left- ReaderPoolPlugin : extends
  ReaderPlugin "1" *-right-> "*" SeReader : readers
}

SpecificTerminal -down-> SeProxyService : uses >

package util #FFFFFF {
  +interface Nameable {
    +String getName()
  }

  +interface Configurable {
    +Map<String, String> getParameters()
    +setParameter(String key, String value)
    +setParameters(Map<String, String> parameters)
  }
}
Nameable <|-up- ReaderPlugin : extends
Nameable <|- - SeReader : extends
Configurable <|-up- ReaderPlugin : extends
Configurable <|- - SeReader : extends

Comparable <|- - ReaderPlugin : extends
Comparable <|- - SeReader : extends
@enduml

PlantUML version 1.2020.09(Sun May 10 14:51:06 MUT 2020)
(GPL source distribution)
Java Runtime: OpenJDK Runtime Environment
JVM: OpenJDK 64-Bit Server VM
Java Version: 11.0.7+10-b765.64
Operating System: Windows 10
Default Encoding: Cp1252
Language: fr
Country: FR
--></g></svg>