<?xml version="1.0" encoding="UTF-8" standalone="no"?><svg xmlns="http://www.w3.org/2000/svg" xmlns:xlink="http://www.w3.org/1999/xlink" contentScriptType="application/ecmascript" contentStyleType="text/css" height="796.8px" preserveAspectRatio="none" style="width:1185px;height:796px;" version="1.1" viewBox="0 0 1185 796" width="1185.6px" zoomAndPan="magnify"><defs/><g><!--MD5=[2bcc54f38766b998c5e88efdbc7d1696]
cluster org.eclipse.keyple.core.seproxy--><polygon fill="#FFFFFF" points="26.4,28.8,303.6,28.8,312,57.1313,1159.2,57.1313,1159.2,525.6,26.4,525.6,26.4,28.8" style="stroke: #000000; stroke-width: 1.7999999999999998;"/><line style="stroke: #000000; stroke-width: 1.7999999999999998;" x1="26.4" x2="312" y1="57.1313" y2="57.1313"/><text fill="#000000" font-family="sans-serif" font-size="16.8" font-weight="bold" lengthAdjust="spacingAndGlyphs" textLength="270" x="31.2" y="48.6398">org.eclipse.keyple.core.seproxy</text><!--MD5=[fcbadcad9a28152c89ed5c4d71dbb045]
cluster plugin.specific--><polygon fill="#D7BDE2" points="68.4,585.6,199.2,585.6,207.6,613.9313,874.8,613.9313,874.8,782.4,68.4,782.4,68.4,585.6" style="stroke: #000000; stroke-width: 1.7999999999999998;"/><line style="stroke: #000000; stroke-width: 1.7999999999999998;" x1="68.4" x2="207.6" y1="613.9313" y2="613.9313"/><text fill="#000000" font-family="sans-serif" font-size="16.8" font-weight="bold" lengthAdjust="spacingAndGlyphs" textLength="123.6" x="73.2" y="605.4398">plugin.specific</text><!--MD5=[f0c44d4c6fb415056b2c0aabd573961b]
class SeProxyService--><rect fill="#FEFECE" height="216.8531" id="SeProxyService" style="stroke: #D4AC0D; stroke-width: 1.7999999999999998;" width="328.8" x="192" y="72"/><ellipse cx="278.1" cy="96.1125" fill="#ADD1B2" rx="13.2" ry="13.2" style="stroke: #ADD1B2; stroke-width: 1.2;"/><path d="M280.5,91.9125 Q280.7438,91.3125 281.025,91.0125 Q281.3063,90.7125 281.625,90.7125 Q282.1875,90.7125 282.5438,91.05 Q282.9,91.3875 282.9,92.175 L282.9,94.05 Q282.9,94.8375 282.5625,95.175 Q282.225,95.5125 281.7,95.5125 Q281.2313,95.5125 280.9313,95.3062 Q280.6312,95.1 280.5,94.5562 Q280.4437,94.1812 280.2375,93.975 Q279.8625,93.5813 279.1875,93.3563 Q278.5125,93.1125 277.8375,93.1125 Q276.9938,93.1125 276.2813,93.45 Q275.5875,93.7875 275.0438,94.5375 Q274.5,95.2875 274.5,96.3188 L274.5,97.425 Q274.5,98.6625 275.5125,99.4875 Q276.525,100.3125 278.325,100.3125 Q279.3938,100.3125 280.1438,100.0688 Q280.575,99.9375 281.0625,99.5063 Q281.3812,99.2625 281.55,99.1875 Q281.7188,99.1125 281.925,99.1125 Q282.3187,99.1125 282.6,99.4312 Q282.9,99.7313 282.9,100.1625 Q282.9,100.575 282.4875,101.0625 Q281.8875,101.775 280.9313,102.1688 Q279.675,102.7125 278.1375,102.7125 Q276.3375,102.7125 274.8938,102 Q273.7313,101.4375 272.9063,100.2188 Q272.1,99 272.1,97.5562 L272.1,96.2437 Q272.1,94.7437 272.8125,93.4312 Q273.5438,92.1187 274.8,91.425 Q276.075,90.7125 277.5,90.7125 Q278.3625,90.7125 279.1125,91.0125 Q279.8625,91.3125 280.5,91.9125 Z "/><text fill="#000000" font-family="sans-serif" font-size="14.4" font-style="italic" lengthAdjust="spacingAndGlyphs" textLength="79.2" x="336.3" y="92.9484">«Singleton»</text><ellipse cx="308.7" cy="104.5688" fill="#84BE84" rx="3.6" ry="3.6" style="stroke: #038048; stroke-width: 1.2;"/><text fill="#000000" font-family="sans-serif" font-size="14.4" font-weight="bold" lengthAdjust="spacingAndGlyphs" textLength="28.8" x="315.9" y="111.0609">final</text><text fill="#000000" font-family="sans-serif" font-size="14.4" lengthAdjust="spacingAndGlyphs" textLength="100.8" x="348.3" y="111.0609">SeProxyService</text><line style="stroke: #D4AC0D; stroke-width: 1.7999999999999998;" x1="193.2" x2="519.6" y1="120.225" y2="120.225"/><line style="stroke: #D4AC0D; stroke-width: 1.7999999999999998;" x1="193.2" x2="519.6" y1="129.825" y2="129.825"/><ellipse cx="205.2" cy="143.025" fill="#84BE84" rx="3.6" ry="3.6" style="stroke: #038048; stroke-width: 1.2;"/><text fill="#000000" font-family="sans-serif" font-size="13.2" lengthAdjust="spacingAndGlyphs" text-decoration="underline" textLength="174" x="216" y="148.3277">SeProxyService getInstance()</text><ellipse cx="205.2" cy="159.6281" fill="#84BE84" rx="3.6" ry="3.6" style="stroke: #038048; stroke-width: 1.2;"/><text fill="#000000" font-family="sans-serif" font-size="13.2" lengthAdjust="spacingAndGlyphs" textLength="110.4" x="216" y="164.9309">String getVersion()</text><text fill="#000000" font-family="sans-serif" font-size="13.2" lengthAdjust="spacingAndGlyphs" textLength="0" x="219.6" y="181.534"/><ellipse cx="205.2" cy="192.8344" fill="#84BE84" rx="3.6" ry="3.6" style="stroke: #038048; stroke-width: 1.2;"/><text fill="#000000" font-family="sans-serif" font-size="13.2" lengthAdjust="spacingAndGlyphs" textLength="297.6" x="216" y="198.1371">registerPlugin(AbstractPluginFactory pluginFactory)</text><ellipse cx="205.2" cy="209.4375" fill="#84BE84" rx="3.6" ry="3.6" style="stroke: #038048; stroke-width: 1.2;"/><text fill="#000000" font-family="sans-serif" font-size="13.2" lengthAdjust="spacingAndGlyphs" textLength="234" x="216" y="214.7402">boolean isRegistered(String pluginName)</text><ellipse cx="205.2" cy="226.0406" fill="#84BE84" rx="3.6" ry="3.6" style="stroke: #038048; stroke-width: 1.2;"/><text fill="#000000" font-family="sans-serif" font-size="13.2" lengthAdjust="spacingAndGlyphs" textLength="254.4" x="216" y="231.3434">boolean unregisterPlugin(String pluginName)</text><text fill="#000000" font-family="sans-serif" font-size="13.2" lengthAdjust="spacingAndGlyphs" textLength="0" x="219.6" y="247.9465"/><ellipse cx="205.2" cy="259.2469" fill="#84BE84" rx="3.6" ry="3.6" style="stroke: #038048; stroke-width: 1.2;"/><text fill="#000000" font-family="sans-serif" font-size="13.2" lengthAdjust="spacingAndGlyphs" textLength="208.8" x="216" y="264.5496">ReaderPlugin getPlugin(String name)</text><ellipse cx="205.2" cy="275.85" fill="#84BE84" rx="3.6" ry="3.6" style="stroke: #038048; stroke-width: 1.2;"/><text fill="#000000" font-family="sans-serif" font-size="13.2" lengthAdjust="spacingAndGlyphs" textLength="219.6" x="216" y="281.1527">SortedSet&lt;ReaderPlugin&gt; getPlugins()</text><!--MD5=[589e28272a74d38b4e0a352c82e7b326]
class AbstractPluginFactory--><rect fill="#FEFECE" height="90.8062" id="AbstractPluginFactory" style="stroke: #D4AC0D; stroke-width: 1.7999999999999998;" width="230.4" x="45.6" y="399"/><ellipse cx="79.26" cy="418.2" fill="#A9DCDF" rx="13.2" ry="13.2" style="stroke: #A9DCDF; stroke-width: 1.2;"/><path d="M81.36,420 L77.4037,420 L76.8788,421.2 L76.8788,421.2 L77.4413,421.2 L78.06,421.95 L78.06,422.4 L78.06,422.85 L77.4413,423.6 L76.8788,423.6 L74.61,423.6 L73.8788,423.6 L73.26,422.85 L73.26,422.4 L73.26,421.95 L73.8788,421.2 L74.61,421.2 L77.385,414 L76.335,414 L75.0788,414 L74.46,413.25 L74.46,412.8 L74.46,412.35 L75.0788,411.6 L76.335,411.6 L80.7413,411.6 L83.9662,421.2 L84.6413,421.2 L84.6413,421.2 L85.26,421.95 L85.26,422.4 L85.26,422.85 L84.6413,423.6 L83.9662,423.6 L81.6975,423.6 L81.0788,423.6 L80.46,422.85 L80.46,422.4 L80.46,421.95 L81.0788,421.2 L81.6975,421.2 L81.6975,421.2 L81.36,420 Z M80.7038,417.6 L79.26,413.3063 L78.0225,417.6 L80.7038,417.6 Z "/><ellipse cx="105.54" cy="417.6" fill="#84BE84" rx="3.6" ry="3.6" style="stroke: #038048; stroke-width: 1.2;"/><text fill="#000000" font-family="sans-serif" font-size="14.4" font-style="italic" lengthAdjust="spacingAndGlyphs" textLength="144" x="112.74" y="424.0922">AbstractPluginFactory</text><line style="stroke: #D4AC0D; stroke-width: 1.7999999999999998;" x1="46.8" x2="274.8" y1="437.4" y2="437.4"/><line style="stroke: #D4AC0D; stroke-width: 1.7999999999999998;" x1="46.8" x2="274.8" y1="447" y2="447"/><polygon fill="#FFFF44" points="58.8,454.2,63.6,459,58.8,463.8,54,459" style="stroke: #B38D22; stroke-width: 1.2;"/><text fill="#000000" font-family="sans-serif" font-size="13.2" font-style="italic" lengthAdjust="spacingAndGlyphs" textLength="138" x="69.6" y="465.5027">String getPluginName()</text><polygon fill="#FFFF44" points="58.8,470.8031,63.6,475.6031,58.8,480.4031,54,475.6031" style="stroke: #B38D22; stroke-width: 1.2;"/><text fill="#000000" font-family="sans-serif" font-size="13.2" font-style="italic" lengthAdjust="spacingAndGlyphs" textLength="199.2" x="69.6" y="482.1059">ReaderPlugin getPluginInstance()</text><!--MD5=[a0e88443257adb8def549c32ec694d43]
class ReaderPlugin--><rect fill="#FEFECE" height="107.4094" id="ReaderPlugin" style="stroke: #D4AC0D; stroke-width: 1.7999999999999998;" width="264" x="372" y="390.6"/><ellipse cx="446.7" cy="409.8" fill="#B4A7E5" rx="13.2" ry="13.2" style="stroke: #B4A7E5; stroke-width: 1.2;"/><path d="M447.9,406.2 L447.9,413.4 L450.3,413.4 L450.8812,413.4 L451.5,414.15 L451.5,414.6 L451.5,415.05 L450.8812,415.8 L450.3,415.8 L443.1,415.8 L442.5188,415.8 L441.9,415.05 L441.9,414.6 L441.9,414.15 L442.5188,413.4 L443.1,413.4 L445.5,413.4 L445.5,406.2 L443.1,406.2 L442.5188,406.2 L441.9,405.45 L441.9,405 L441.9,404.55 L442.5188,403.8 L443.1,403.8 L450.3,403.8 L450.8812,403.8 L451.5,404.55 L451.5,405 L451.5,405.45 L450.8812,406.2 L450.3,406.2 L447.9,406.2 Z "/><ellipse cx="477.3" cy="409.2" fill="#84BE84" rx="3.6" ry="3.6" style="stroke: #038048; stroke-width: 1.2;"/><text fill="#000000" font-family="sans-serif" font-size="14.4" font-style="italic" lengthAdjust="spacingAndGlyphs" textLength="91.2" x="484.5" y="415.6922">ReaderPlugin</text><line style="stroke: #D4AC0D; stroke-width: 1.7999999999999998;" x1="373.2" x2="634.8" y1="429" y2="429"/><line style="stroke: #D4AC0D; stroke-width: 1.7999999999999998;" x1="373.2" x2="634.8" y1="438.6" y2="438.6"/><ellipse cx="385.2" cy="451.8" fill="#84BE84" rx="3.6" ry="3.6" style="stroke: #038048; stroke-width: 1.2;"/><text fill="#000000" font-family="sans-serif" font-size="13.2" lengthAdjust="spacingAndGlyphs" textLength="218.4" x="396" y="457.1027">SortedSet&lt;String&gt; getReaderNames()</text><ellipse cx="385.2" cy="468.4031" fill="#84BE84" rx="3.6" ry="3.6" style="stroke: #038048; stroke-width: 1.2;"/><text fill="#000000" font-family="sans-serif" font-size="13.2" lengthAdjust="spacingAndGlyphs" textLength="199.2" x="396" y="473.7059">SeReader getReader(String name)</text><ellipse cx="385.2" cy="485.0062" fill="#84BE84" rx="3.6" ry="3.6" style="stroke: #038048; stroke-width: 1.2;"/><text fill="#000000" font-family="sans-serif" font-size="13.2" lengthAdjust="spacingAndGlyphs" textLength="232.8" x="396" y="490.309">Set&lt;? extends SeReader&gt; getReaders()</text><!--MD5=[dd49942b1f02350b5568646d3da64c49]
class SeReader--><rect fill="#FEFECE" height="124.0125" id="SeReader" style="stroke: #D4AC0D; stroke-width: 1.7999999999999998;" width="408" x="732" y="382.8"/><ellipse cx="890.7" cy="402" fill="#B4A7E5" rx="13.2" ry="13.2" style="stroke: #B4A7E5; stroke-width: 1.2;"/><path d="M891.9,398.4 L891.9,405.6 L894.3,405.6 L894.8813,405.6 L895.5,406.35 L895.5,406.8 L895.5,407.25 L894.8813,408 L894.3,408 L887.1,408 L886.5188,408 L885.9,407.25 L885.9,406.8 L885.9,406.35 L886.5188,405.6 L887.1,405.6 L889.5,405.6 L889.5,398.4 L887.1,398.4 L886.5188,398.4 L885.9,397.65 L885.9,397.2 L885.9,396.75 L886.5188,396 L887.1,396 L894.3,396 L894.8813,396 L895.5,396.75 L895.5,397.2 L895.5,397.65 L894.8813,398.4 L894.3,398.4 L891.9,398.4 Z "/><ellipse cx="921.3" cy="401.4" fill="#84BE84" rx="3.6" ry="3.6" style="stroke: #038048; stroke-width: 1.2;"/><text fill="#000000" font-family="sans-serif" font-size="14.4" font-style="italic" lengthAdjust="spacingAndGlyphs" textLength="67.2" x="928.5" y="407.8922">SeReader</text><line style="stroke: #D4AC0D; stroke-width: 1.7999999999999998;" x1="733.2" x2="1138.8" y1="421.2" y2="421.2"/><line style="stroke: #D4AC0D; stroke-width: 1.7999999999999998;" x1="733.2" x2="1138.8" y1="430.8" y2="430.8"/><ellipse cx="745.2" cy="444" fill="#84BE84" rx="3.6" ry="3.6" style="stroke: #038048; stroke-width: 1.2;"/><text fill="#000000" font-family="sans-serif" font-size="13.2" lengthAdjust="spacingAndGlyphs" textLength="128.4" x="756" y="449.3027">boolean isSePresent()</text><ellipse cx="745.2" cy="460.6031" fill="#84BE84" rx="3.6" ry="3.6" style="stroke: #038048; stroke-width: 1.2;"/><text fill="#000000" font-family="sans-serif" font-size="13.2" lengthAdjust="spacingAndGlyphs" textLength="376.8" x="756" y="465.9059">addSeProtocolSetting(SeProtocol seProtocol, String protocolRule)</text><ellipse cx="745.2" cy="477.2062" fill="#84BE84" rx="3.6" ry="3.6" style="stroke: #038048; stroke-width: 1.2;"/><text fill="#000000" font-family="sans-serif" font-size="13.2" lengthAdjust="spacingAndGlyphs" textLength="361.2" x="756" y="482.509">setSeProtocolSetting(Map&lt;SeProtocol, String&gt; protocolSetting)</text><ellipse cx="745.2" cy="493.8094" fill="#84BE84" rx="3.6" ry="3.6" style="stroke: #038048; stroke-width: 1.2;"/><text fill="#000000" font-family="sans-serif" font-size="13.2" lengthAdjust="spacingAndGlyphs" textLength="247.2" x="756" y="499.1121">TransmissionMode getTransmissionMode()</text><!--MD5=[273228bd21fa37477fe0813cbe95870a]
class SpecificPluginFactory--><rect fill="#FEFECE" height="90.8062" id="SpecificPluginFactory" style="stroke: #D4AC0D; stroke-width: 1.7999999999999998;" width="224.4" x="88.2" y="650.4"/><ellipse cx="106.2" cy="669.6" fill="#ADD1B2" rx="13.2" ry="13.2" style="stroke: #ADD1B2; stroke-width: 1.2;"/><path d="M108.6,665.4 Q108.8438,664.8 109.125,664.5 Q109.4063,664.2 109.725,664.2 Q110.2875,664.2 110.6438,664.5375 Q111,664.875 111,665.6625 L111,667.5375 Q111,668.325 110.6625,668.6625 Q110.325,669 109.8,669 Q109.3313,669 109.0313,668.7937 Q108.7313,668.5875 108.6,668.0437 Q108.5438,667.6687 108.3375,667.4625 Q107.9625,667.0688 107.2875,666.8438 Q106.6125,666.6 105.9375,666.6 Q105.0938,666.6 104.3813,666.9375 Q103.6875,667.275 103.1438,668.025 Q102.6,668.775 102.6,669.8063 L102.6,670.9125 Q102.6,672.15 103.6125,672.975 Q104.625,673.8 106.425,673.8 Q107.4937,673.8 108.2437,673.5563 Q108.675,673.425 109.1625,672.9938 Q109.4813,672.75 109.65,672.675 Q109.8188,672.6 110.025,672.6 Q110.4188,672.6 110.7,672.9187 Q111,673.2188 111,673.65 Q111,674.0625 110.5875,674.55 Q109.9875,675.2625 109.0313,675.6563 Q107.775,676.2 106.2375,676.2 Q104.4375,676.2 102.9937,675.4875 Q101.8313,674.925 101.0063,673.7063 Q100.2,672.4875 100.2,671.0437 L100.2,669.7312 Q100.2,668.2312 100.9125,666.9187 Q101.6438,665.6062 102.9,664.9125 Q104.175,664.2 105.6,664.2 Q106.4625,664.2 107.2125,664.5 Q107.9625,664.8 108.6,665.4 Z "/><ellipse cx="129" cy="669" fill="#84BE84" rx="3.6" ry="3.6" style="stroke: #038048; stroke-width: 1.2;"/><text fill="#000000" font-family="sans-serif" font-size="14.4" font-weight="bold" lengthAdjust="spacingAndGlyphs" textLength="28.8" x="136.2" y="675.4922">final</text><text fill="#000000" font-family="sans-serif" font-size="14.4" lengthAdjust="spacingAndGlyphs" textLength="140.4" x="168.6" y="675.4922">SpecificPluginFactory</text><line style="stroke: #D4AC0D; stroke-width: 1.7999999999999998;" x1="89.4" x2="311.4" y1="688.8" y2="688.8"/><line style="stroke: #D4AC0D; stroke-width: 1.7999999999999998;" x1="89.4" x2="311.4" y1="698.4" y2="698.4"/><polygon fill="#FFFF44" points="101.4,705.6,106.2,710.4,101.4,715.2,96.6,710.4" style="stroke: #B38D22; stroke-width: 1.2;"/><text fill="#000000" font-family="sans-serif" font-size="13.2" lengthAdjust="spacingAndGlyphs" textLength="130.8" x="112.2" y="716.9027">String getPluginName()</text><polygon fill="#FFFF44" points="101.4,722.2031,106.2,727.0031,101.4,731.8031,96.6,727.0031" style="stroke: #B38D22; stroke-width: 1.2;"/><text fill="#000000" font-family="sans-serif" font-size="13.2" lengthAdjust="spacingAndGlyphs" textLength="189.6" x="112.2" y="733.5059">ReaderPlugin getPluginInstance()</text><!--MD5=[0f8b8cab079f94c46492aeaa0dde1551]
class SpecificPlugin--><rect fill="#FEFECE" height="133.8375" id="SpecificPlugin" style="stroke: #D4AC0D; stroke-width: 1.7999999999999998;" width="192" x="408" y="628.8"/><ellipse cx="447.06" cy="652.9125" fill="#ADD1B2" rx="13.2" ry="13.2" style="stroke: #ADD1B2; stroke-width: 1.2;"/><path d="M449.46,648.7125 Q449.7038,648.1125 449.985,647.8125 Q450.2663,647.5125 450.585,647.5125 Q451.1475,647.5125 451.5038,647.85 Q451.86,648.1875 451.86,648.975 L451.86,650.85 Q451.86,651.6375 451.5225,651.975 Q451.185,652.3125 450.66,652.3125 Q450.1913,652.3125 449.8913,652.1062 Q449.5913,651.9 449.46,651.3562 Q449.4038,650.9812 449.1975,650.775 Q448.8225,650.3813 448.1475,650.1563 Q447.4725,649.9125 446.7975,649.9125 Q445.9538,649.9125 445.2413,650.25 Q444.5475,650.5875 444.0038,651.3375 Q443.46,652.0875 443.46,653.1188 L443.46,654.225 Q443.46,655.4625 444.4725,656.2875 Q445.485,657.1125 447.285,657.1125 Q448.3538,657.1125 449.1038,656.8688 Q449.535,656.7375 450.0225,656.3063 Q450.3413,656.0625 450.51,655.9875 Q450.6788,655.9125 450.885,655.9125 Q451.2788,655.9125 451.56,656.2312 Q451.86,656.5313 451.86,656.9625 Q451.86,657.375 451.4475,657.8625 Q450.8475,658.575 449.8913,658.9688 Q448.635,659.5125 447.0975,659.5125 Q445.2975,659.5125 443.8538,658.8 Q442.6913,658.2375 441.8663,657.0188 Q441.06,655.8 441.06,654.3562 L441.06,653.0437 Q441.06,651.5437 441.7725,650.2312 Q442.5038,648.9187 443.76,648.225 Q445.035,647.5125 446.46,647.5125 Q447.3225,647.5125 448.0725,647.8125 Q448.8225,648.1125 449.46,648.7125 Z "/><text fill="#000000" font-family="sans-serif" font-size="14.4" font-style="italic" lengthAdjust="spacingAndGlyphs" textLength="79.2" x="482.34" y="649.7484">«Singleton»</text><polygon fill="#4177AF" points="474.54,656.5688,469.74,663.7688,479.34,663.7688" style="stroke: #1963A0; stroke-width: 1.2;"/><text fill="#000000" font-family="sans-serif" font-size="14.4" lengthAdjust="spacingAndGlyphs" textLength="93.6" x="481.74" y="667.8609">SpecificPlugin</text><line style="stroke: #D4AC0D; stroke-width: 1.7999999999999998;" x1="409.2" x2="598.8" y1="677.025" y2="677.025"/><rect fill="none" height="7.2" style="stroke: #C82930; stroke-width: 1.2;" width="7.2" x="417.6" y="686.625"/><text fill="#000000" font-family="sans-serif" font-size="13.2" lengthAdjust="spacingAndGlyphs" textLength="68.4" x="432" y="695.5277">String name</text><line style="stroke: #D4AC0D; stroke-width: 1.7999999999999998;" x1="409.2" x2="598.8" y1="703.2281" y2="703.2281"/><rect fill="#F24D5C" height="7.2" style="stroke: #C82930; stroke-width: 1.2;" width="7.2" x="417.6" y="712.8281"/><text fill="#000000" font-family="sans-serif" font-size="13.2" lengthAdjust="spacingAndGlyphs" textLength="90" x="432" y="721.7309">SpecificPlugin()</text><ellipse cx="421.2" cy="733.0313" fill="#84BE84" rx="3.6" ry="3.6" style="stroke: #038048; stroke-width: 1.2;"/><text fill="#000000" font-family="sans-serif" font-size="13.2" lengthAdjust="spacingAndGlyphs" text-decoration="underline" textLength="160.8" x="432" y="738.334">SpecificPlugin getInstance()</text><ellipse cx="421.2" cy="749.6344" fill="#84BE84" rx="3.6" ry="3.6" style="stroke: #038048; stroke-width: 1.2;"/><text fill="#000000" font-family="sans-serif" font-size="13.2" font-weight="bold" lengthAdjust="spacingAndGlyphs" textLength="27.6" x="432" y="754.9371">final</text><text fill="#000000" font-family="sans-serif" font-size="13.2" lengthAdjust="spacingAndGlyphs" textLength="97.2" x="463.2" y="754.9371">String getName()</text><!--MD5=[4ab0a37e4eea002adccb7015b38062eb]
class SpecificReader--><rect fill="#FEFECE" height="107.4094" id="SpecificReader" style="stroke: #D4AC0D; stroke-width: 1.7999999999999998;" width="159.6" x="695.4" y="642"/><ellipse cx="716.64" cy="661.2" fill="#ADD1B2" rx="13.2" ry="13.2" style="stroke: #ADD1B2; stroke-width: 1.2;"/><path d="M719.04,657 Q719.2838,656.4 719.565,656.1 Q719.8463,655.8 720.165,655.8 Q720.7275,655.8 721.0838,656.1375 Q721.44,656.475 721.44,657.2625 L721.44,659.1375 Q721.44,659.925 721.1025,660.2625 Q720.765,660.6 720.24,660.6 Q719.7713,660.6 719.4713,660.3938 Q719.1713,660.1875 719.04,659.6438 Q718.9838,659.2688 718.7775,659.0625 Q718.4025,658.6687 717.7275,658.4438 Q717.0525,658.2 716.3775,658.2 Q715.5338,658.2 714.8213,658.5375 Q714.1275,658.875 713.5838,659.625 Q713.04,660.375 713.04,661.4063 L713.04,662.5125 Q713.04,663.75 714.0525,664.575 Q715.065,665.4 716.865,665.4 Q717.9338,665.4 718.6838,665.1563 Q719.115,665.025 719.6025,664.5938 Q719.9213,664.35 720.09,664.275 Q720.2588,664.2 720.465,664.2 Q720.8588,664.2 721.14,664.5188 Q721.44,664.8188 721.44,665.25 Q721.44,665.6625 721.0275,666.15 Q720.4275,666.8625 719.4713,667.2563 Q718.215,667.8 716.6775,667.8 Q714.8775,667.8 713.4338,667.0875 Q712.2713,666.525 711.4463,665.3063 Q710.64,664.0875 710.64,662.6438 L710.64,661.3313 Q710.64,659.8313 711.3525,658.5188 Q712.0838,657.2063 713.34,656.5125 Q714.615,655.8 716.04,655.8 Q716.9025,655.8 717.6525,656.1 Q718.4025,656.4 719.04,657 Z "/><polygon fill="#4177AF" points="740.16,655.8,735.36,663,744.96,663" style="stroke: #1963A0; stroke-width: 1.2;"/><text fill="#000000" font-family="sans-serif" font-size="14.4" lengthAdjust="spacingAndGlyphs" textLength="100.8" x="747.36" y="667.0922">SpecificReader</text><line style="stroke: #D4AC0D; stroke-width: 1.7999999999999998;" x1="696.6" x2="853.8" y1="680.4" y2="680.4"/><rect fill="none" height="7.2" style="stroke: #C82930; stroke-width: 1.2;" width="7.2" x="705" y="690"/><text fill="#000000" font-family="sans-serif" font-size="13.2" lengthAdjust="spacingAndGlyphs" textLength="68.4" x="719.4" y="698.9027">String name</text><line style="stroke: #D4AC0D; stroke-width: 1.7999999999999998;" x1="696.6" x2="853.8" y1="706.6031" y2="706.6031"/><polygon fill="#FFFF44" points="708.6,713.8031,713.4,718.6031,708.6,723.4031,703.8,718.6031" style="stroke: #B38D22; stroke-width: 1.2;"/><text fill="#000000" font-family="sans-serif" font-size="13.2" lengthAdjust="spacingAndGlyphs" textLength="98.4" x="719.4" y="725.1059">SpecificReader()</text><ellipse cx="708.6" cy="736.4063" fill="#84BE84" rx="3.6" ry="3.6" style="stroke: #038048; stroke-width: 1.2;"/><text fill="#000000" font-family="sans-serif" font-size="13.2" font-weight="bold" lengthAdjust="spacingAndGlyphs" textLength="27.6" x="719.4" y="741.709">final</text><text fill="#000000" font-family="sans-serif" font-size="13.2" lengthAdjust="spacingAndGlyphs" textLength="97.2" x="750.6" y="741.709">String getName()</text><!--MD5=[98fb93546a7dc75f66b7a26283e02bb5]
link SeProxyService to ReaderPlugin--><path d="M424.15,301.8767 C424.15,301.8767 453.6288,354.1236 466.2372,376.47 " fill="none" id="SeProxyService-ReaderPlugin" style="stroke: #A80036; stroke-width: 1.2;"/><polygon fill="#A80036" points="474.0288,390.2808,472.9022,378.516,471.0804,385.0552,464.5412,383.2334,474.0288,390.2808" style="stroke: #A80036; stroke-width: 1.2;"/><line style="stroke: #A80036; stroke-width: 1.2;" x1="471.0804" x2="466.3632" y1="385.0552" y2="376.6944"/><polygon fill="#A80036" points="417.0732,289.3356,416.4312,297.9651,424.15,301.8767,424.792,293.2472,417.0732,289.3356" style="stroke: #A80036; stroke-width: 1.2;"/><text fill="#000000" font-family="sans-serif" font-size="15.6" lengthAdjust="spacingAndGlyphs" textLength="49.2" x="448.8" y="342.5941">plugins</text><text fill="#000000" font-family="sans-serif" font-size="15.6" lengthAdjust="spacingAndGlyphs" textLength="8.4" x="412.9969" y="314.6192">1</text><text fill="#000000" font-family="sans-serif" font-size="15.6" lengthAdjust="spacingAndGlyphs" textLength="6" x="462.9801" y="377.5648">*</text><!--MD5=[628c6eb29572115a3ae82dff7e7e6b47]
link SeProxyService to AbstractPluginFactory--><path d="M267.3714,300.8677 C267.3714,300.8677 222.2292,361.2432 203.7,386.0244 " fill="none" id="SeProxyService-AbstractPluginFactory" style="stroke: #A80036; stroke-width: 1.2;"/><polygon fill="#A80036" points="194.112,398.8476,204.4239,393.0731,197.7052,394.0425,196.7358,387.3239,194.112,398.8476" style="stroke: #A80036; stroke-width: 1.2;"/><line style="stroke: #A80036; stroke-width: 1.2;" x1="197.7052" x2="203.454" y1="394.0425" y2="386.3532"/><polygon fill="#A80036" points="275.9952,289.3356,267.8393,292.2271,267.3714,300.8677,275.5274,297.9763,275.9952,289.3356" style="stroke: #A80036; stroke-width: 1.2;"/><text fill="#000000" font-family="sans-serif" font-size="15.6" lengthAdjust="spacingAndGlyphs" textLength="60" x="248.4" y="342.5941">registers</text><text fill="#000000" font-family="sans-serif" font-size="15.6" lengthAdjust="spacingAndGlyphs" textLength="8.4" x="261.1176" y="314.6192">1</text><text fill="#000000" font-family="sans-serif" font-size="15.6" lengthAdjust="spacingAndGlyphs" textLength="6" x="193.5113" y="386.0547">*</text><!--MD5=[c88fac8de0d16551763276c4b9088a93]
link ReaderPlugin to SeReader--><path d="M650.9496,444.6 C650.9496,444.6 694.4364,444.6 716.0148,444.6 " fill="none" id="ReaderPlugin-SeReader" style="stroke: #A80036; stroke-width: 1.2;"/><polygon fill="#A80036" points="731.7252,444.6,720.9252,439.8,725.7252,444.6,720.9252,449.4,731.7252,444.6" style="stroke: #A80036; stroke-width: 1.2;"/><line style="stroke: #A80036; stroke-width: 1.2;" x1="725.7252" x2="716.1252" y1="444.6" y2="444.6"/><polygon fill="#A80036" points="636.5496,444.6,643.7496,449.4,650.9496,444.6,643.7496,439.8,636.5496,444.6" style="stroke: #A80036; stroke-width: 1.2;"/><text fill="#000000" font-family="sans-serif" font-size="15.6" lengthAdjust="spacingAndGlyphs" textLength="51.6" x="658.2" y="436.7941">readers</text><text fill="#000000" font-family="sans-serif" font-size="15.6" lengthAdjust="spacingAndGlyphs" textLength="8.4" x="645.7375" y="440.9832">1</text><text fill="#000000" font-family="sans-serif" font-size="15.6" lengthAdjust="spacingAndGlyphs" textLength="6" x="716.3331" y="441.1594">*</text><!--MD5=[ed432611766c8e88b892041f7da1367f]
link AbstractPluginFactory to ReaderPlugin--><path d="M276.0348,444.6 C304.7604,444.6 335.8548,444.6 365.5704,444.6 " fill="none" id="AbstractPluginFactory-&gt;ReaderPlugin" style="stroke: #A80036; stroke-width: 1.2;"/><polygon fill="#A80036" points="371.8896,444.6,361.0896,439.8,365.8896,444.6,361.0896,449.4,371.8896,444.6" style="stroke: #A80036; stroke-width: 1.2;"/><text fill="#000000" font-family="sans-serif" font-size="15.6" lengthAdjust="spacingAndGlyphs" textLength="51.6" x="298.2" y="436.7941">creates</text><text fill="#000000" font-family="sans-serif" font-size="15.6" lengthAdjust="spacingAndGlyphs" textLength="8.4" x="285.5523" y="440.8616">1</text><text fill="#000000" font-family="sans-serif" font-size="15.6" lengthAdjust="spacingAndGlyphs" textLength="8.4" x="353.9053" y="440.9547">1</text><!--MD5=[606af266cb1c3ee5489afec7c4e81055]
link SpecificPluginFactory to SpecificPlugin--><path d="M313.0176,696 C342.006,696 373.0416,696 401.4864,696 " fill="none" id="SpecificPluginFactory-&gt;SpecificPlugin" style="stroke: #A80036; stroke-width: 1.2;"/><polygon fill="#A80036" points="407.5152,696,396.7152,691.2,401.5152,696,396.7152,700.8,407.5152,696" style="stroke: #A80036; stroke-width: 1.2;"/><text fill="#000000" font-family="sans-serif" font-size="15.6" lengthAdjust="spacingAndGlyphs" textLength="51.6" x="334.5" y="688.1941">creates</text><text fill="#000000" font-family="sans-serif" font-size="15.6" lengthAdjust="spacingAndGlyphs" textLength="8.4" x="322.3265" y="692.2616">1</text><text fill="#000000" font-family="sans-serif" font-size="15.6" lengthAdjust="spacingAndGlyphs" textLength="8.4" x="390.148" y="692.183">1</text><!--MD5=[c0f848f1ce686e4cacbc8a0551faf0fe]
link SpecificPlugin to SpecificReader--><path d="M614.778,696 C614.778,696 659.0628,696 679.524,696 " fill="none" id="SpecificPlugin-SpecificReader" style="stroke: #A80036; stroke-width: 1.2;"/><polygon fill="#A80036" points="695.2404,696,684.4404,691.2,689.2404,696,684.4404,700.8,695.2404,696" style="stroke: #A80036; stroke-width: 1.2;"/><line style="stroke: #A80036; stroke-width: 1.2;" x1="689.2404" x2="679.6404" y1="696" y2="695.9999"/><polygon fill="#A80036" points="600.378,696,607.578,700.8,614.778,696,607.578,691.2,600.378,696" style="stroke: #A80036; stroke-width: 1.2;"/><text fill="#000000" font-family="sans-serif" font-size="15.6" lengthAdjust="spacingAndGlyphs" textLength="51.6" x="621.9" y="688.1941">readers</text><text fill="#000000" font-family="sans-serif" font-size="15.6" lengthAdjust="spacingAndGlyphs" textLength="8.4" x="609.65" y="692.1545">1</text><text fill="#000000" font-family="sans-serif" font-size="15.6" lengthAdjust="spacingAndGlyphs" textLength="6" x="679.6482" y="691.9427">*</text><!--MD5=[5e2e42b3428cab7eb3f2532a1d684e48]
reverse link AbstractPluginFactory to SpecificPluginFactory--><path d="M171.6948,514.308 C178.5912,557.6664 187.3068,612.4704 193.3152,650.25 " fill="none" id="AbstractPluginFactory&lt;-SpecificPluginFactory" style="stroke: #A80036; stroke-width: 1.2;"/><polygon fill="none" points="163.3536,515.3376,167.88,490.3164,179.9448,512.6988,163.3536,515.3376" style="stroke: #A80036; stroke-width: 1.2;"/><text fill="#000000" font-family="sans-serif" font-size="15.6" lengthAdjust="spacingAndGlyphs" textLength="55.2" x="181.2" y="562.1941">extends</text><!--MD5=[7c148b1c73f50606d6f270d6e2289f39]
reverse link ReaderPlugin to SpecificPlugin--><path d="M504,522.7164 C504,556.6608 504,596.1588 504,628.7472 " fill="none" id="ReaderPlugin&lt;-SpecificPlugin" style="stroke: #A80036; stroke-width: 1.2; stroke-dasharray: 7.0,7.0;"/><polygon fill="none" points="495.6,522.606,504,498.606,512.4,522.606,495.6,522.606" style="stroke: #A80036; stroke-width: 1.2;"/><text fill="#000000" font-family="sans-serif" font-size="15.6" lengthAdjust="spacingAndGlyphs" textLength="80.4" x="505.2" y="562.1941">implements</text><!--MD5=[4afba5938fcadf10f22a5ff47d317fb7]
reverse link SeReader to SpecificReader--><path d="M883.6188,526.9128 C859.2912,564.5832 831.0528,608.3112 809.4948,641.6952 " fill="none" id="SeReader&lt;-SpecificReader" style="stroke: #A80036; stroke-width: 1.2; stroke-dasharray: 7.0,7.0;"/><polygon fill="none" points="876.588,522.3168,896.664,506.712,890.7,531.4308,876.588,522.3168" style="stroke: #A80036; stroke-width: 1.2;"/><text fill="#000000" font-family="sans-serif" font-size="15.6" lengthAdjust="spacingAndGlyphs" textLength="80.4" x="871.2" y="562.1941">implements</text><!--MD5=[63e6f8729b70e29cf91b19855ed69fe5]
@startuml
skinparam ClassBorderColor #D4AC0D
skinparam stereotypeABorderColor #A9DCDF
skinparam stereotypeIBorderColor #B4A7E5
skinparam stereotypeCBorderColor #ADD1B2
skinparam stereotypeEBorderColor #EB93DF
skinparam shadowing false

skinparam StateBorderColor #D4AC0D
skinparam ActivityBorderColor #D4AC0D

skinparam ClassBackgroundColor<<red>> #FDEDEC
skinparam ClassBorderColor<<red>> #E74C3C
hide <<red>> stereotype
skinparam ClassBackgroundColor<<purple>> #F4ECF7
skinparam ClassBorderColor<<purple>> #8E44AD
hide <<purple>> stereotype
skinparam ClassBackgroundColor<<blue>> #EBF5FB
skinparam ClassBorderColor<<blue>> #3498DB
hide <<blue>> stereotype
skinparam ClassBackgroundColor<<green>> #EAFAF1
skinparam ClassBorderColor<<green>> #2ECC71
hide <<green>> stereotype

skinparam ClassBackgroundColor<<orange>> #FDF2E9
skinparam ClassBorderColor<<orange>> #E67E22
hide <<orange>> stereotype

skinparam ClassBackgroundColor<<grey>> #EAECEE
skinparam ClassBorderColor<<grey>> #2C3E50
hide <<grey>> stereotype

package org.eclipse.keyple.core.seproxy #FFFFFF {

+class "<b>final</b> SeProxyService" as SeProxyService << Singleton >> {
  +{static}SeProxyService getInstance()
  +String getVersion()

  +registerPlugin(AbstractPluginFactory pluginFactory)
  +boolean isRegistered(String pluginName)
  +boolean unregisterPlugin(String pluginName)

  +ReaderPlugin getPlugin(String name)
  +SortedSet<ReaderPlugin> getPlugins()
}
+abstract AbstractPluginFactory {
  {abstract} #String getPluginName()
  {abstract} #ReaderPlugin getPluginInstance()
}
+interface ReaderPlugin {
  +SortedSet<String> getReaderNames()
  +SeReader getReader(String name)
  +Set<? extends SeReader> getReaders()
}
+interface SeReader {
  +boolean isSePresent()
  +addSeProtocolSetting(SeProtocol seProtocol, String protocolRule)
  +setSeProtocolSetting(Map<SeProtocol, String> protocolSetting)
  +TransmissionMode getTransmissionMode()
}

  SeProxyService "1" *-down-> "*" ReaderPlugin : plugins
  SeProxyService "1" *- -> "*" AbstractPluginFactory : registers
  ReaderPlugin "1" *-right-> "*" SeReader : readers
  AbstractPluginFactory "1" -right-> "1" ReaderPlugin : creates
}

package plugin.specific #D7BDE2 {
  +class "<b>final</b> SpecificPluginFactory" as SpecificPluginFactory {
    #String getPluginName()
    #ReaderPlugin getPluginInstance()
  }

  ~class SpecificPlugin << Singleton >> {
    -String name
    -SpecificPlugin()
    +{static} SpecificPlugin getInstance()
    +<b>final</b> String getName()
  }

  ~class SpecificReader {
    -String name
    #SpecificReader()
    +<b>final</b> String getName()
  }

  SpecificPluginFactory "1" -right-> "1" SpecificPlugin : creates
  SpecificPlugin "1" *-right-> "*" SpecificReader : readers
}

AbstractPluginFactory <|- - SpecificPluginFactory : extends
ReaderPlugin <|.. SpecificPlugin : implements
SeReader <|.. SpecificReader : implements
@enduml

PlantUML version 1.2020.09(Sun May 10 14:51:06 MUT 2020)
(GPL source distribution)
Java Runtime: OpenJDK Runtime Environment
JVM: OpenJDK 64-Bit Server VM
Java Version: 11.0.7+10-b765.64
Operating System: Windows 10
Default Encoding: Cp1252
Language: fr
Country: FR
--></g></svg>