<?xml version="1.0" encoding="UTF-8" standalone="no"?><svg xmlns="http://www.w3.org/2000/svg" xmlns:xlink="http://www.w3.org/1999/xlink" contentScriptType="application/ecmascript" contentStyleType="text/css" height="1009.2px" preserveAspectRatio="none" style="width:1159px;height:1009px;" version="1.1" viewBox="0 0 1159 1009" width="1159.2px" zoomAndPan="magnify"><defs/><g><!--MD5=[43faeb760e7b9692ab91f636f0cf3388]
cluster external.terminalapplication--><polygon fill="#3399FF" points="117.6,28.8,360,28.8,368.4,57.1313,372,57.1313,372,148.8,117.6,148.8,117.6,28.8" style="stroke: #000000; stroke-width: 1.7999999999999998;"/><line style="stroke: #000000; stroke-width: 1.7999999999999998;" x1="117.6" x2="368.4" y1="57.1313" y2="57.1313"/><text fill="#000000" font-family="sans-serif" font-size="16.8" font-weight="bold" lengthAdjust="spacingAndGlyphs" textLength="235.2" x="122.4" y="48.6398">external.terminalapplication</text><!--MD5=[2bcc54f38766b998c5e88efdbc7d1696]
cluster org.eclipse.keyple.core.seproxy--><polygon fill="#FFFFFF" points="26.4,208.8,303.6,208.8,312,237.1313,1132.8,237.1313,1132.8,738,26.4,738,26.4,208.8" style="stroke: #000000; stroke-width: 1.7999999999999998;"/><line style="stroke: #000000; stroke-width: 1.7999999999999998;" x1="26.4" x2="312" y1="237.1313" y2="237.1313"/><text fill="#000000" font-family="sans-serif" font-size="16.8" font-weight="bold" lengthAdjust="spacingAndGlyphs" textLength="270" x="31.2" y="228.6398">org.eclipse.keyple.core.seproxy</text><!--MD5=[fcbadcad9a28152c89ed5c4d71dbb045]
cluster plugin.specific--><polygon fill="#D7BDE2" points="50.4,798,181.2,798,189.6,826.3313,856.8,826.3313,856.8,994.8,50.4,994.8,50.4,798" style="stroke: #000000; stroke-width: 1.7999999999999998;"/><line style="stroke: #000000; stroke-width: 1.7999999999999998;" x1="50.4" x2="189.6" y1="826.3313" y2="826.3313"/><text fill="#000000" font-family="sans-serif" font-size="16.8" font-weight="bold" lengthAdjust="spacingAndGlyphs" textLength="123.6" x="55.2" y="817.8398">plugin.specific</text><!--MD5=[36749fbd9f1718a5265922a19e14c350]
class SpecificTerminal--><rect fill="#FEFECE" height="57.6" id="SpecificTerminal" style="stroke: #D4AC0D; stroke-width: 1.7999999999999998;" width="148.8" x="170.4" y="72"/><ellipse cx="188.4" cy="91.2" fill="#ADD1B2" rx="13.2" ry="13.2" style="stroke: #ADD1B2; stroke-width: 1.2;"/><path d="M190.8,87 Q191.0438,86.4 191.325,86.1 Q191.6063,85.8 191.925,85.8 Q192.4875,85.8 192.8438,86.1375 Q193.2,86.475 193.2,87.2625 L193.2,89.1375 Q193.2,89.925 192.8625,90.2625 Q192.525,90.6 192,90.6 Q191.5313,90.6 191.2313,90.3938 Q190.9313,90.1875 190.8,89.6438 Q190.7438,89.2688 190.5375,89.0625 Q190.1625,88.6688 189.4875,88.4438 Q188.8125,88.2 188.1375,88.2 Q187.2938,88.2 186.5812,88.5375 Q185.8875,88.875 185.3438,89.625 Q184.8,90.375 184.8,91.4063 L184.8,92.5125 Q184.8,93.75 185.8125,94.575 Q186.825,95.4 188.625,95.4 Q189.6938,95.4 190.4438,95.1563 Q190.875,95.025 191.3625,94.5938 Q191.6813,94.35 191.85,94.275 Q192.0187,94.2 192.225,94.2 Q192.6188,94.2 192.9,94.5188 Q193.2,94.8188 193.2,95.25 Q193.2,95.6625 192.7875,96.15 Q192.1875,96.8625 191.2313,97.2563 Q189.975,97.8 188.4375,97.8 Q186.6375,97.8 185.1938,97.0875 Q184.0313,96.525 183.2062,95.3062 Q182.4,94.0875 182.4,92.6438 L182.4,91.3313 Q182.4,89.8313 183.1125,88.5188 Q183.8438,87.2063 185.1,86.5125 Q186.375,85.8 187.8,85.8 Q188.6625,85.8 189.4125,86.1 Q190.1625,86.4 190.8,87 Z "/><text fill="#000000" font-family="sans-serif" font-size="14.4" lengthAdjust="spacingAndGlyphs" textLength="110.4" x="205.2" y="97.0922">SpecificTerminal</text><line style="stroke: #D4AC0D; stroke-width: 1.7999999999999998;" x1="171.6" x2="318" y1="110.4" y2="110.4"/><line style="stroke: #D4AC0D; stroke-width: 1.7999999999999998;" x1="171.6" x2="318" y1="120" y2="120"/><!--MD5=[f0c44d4c6fb415056b2c0aabd573961b]
class SeProxyService--><rect fill="#FEFECE" height="250.0594" id="SeProxyService" style="stroke: #D4AC0D; stroke-width: 1.7999999999999998;" width="357.6" x="66" y="252"/><ellipse cx="166.5" cy="276.1125" fill="#ADD1B2" rx="13.2" ry="13.2" style="stroke: #ADD1B2; stroke-width: 1.2;"/><path d="M168.9,271.9125 Q169.1437,271.3125 169.425,271.0125 Q169.7062,270.7125 170.025,270.7125 Q170.5875,270.7125 170.9438,271.05 Q171.3,271.3875 171.3,272.175 L171.3,274.05 Q171.3,274.8375 170.9625,275.175 Q170.625,275.5125 170.1,275.5125 Q169.6313,275.5125 169.3312,275.3063 Q169.0313,275.1 168.9,274.5563 Q168.8438,274.1813 168.6375,273.975 Q168.2625,273.5813 167.5875,273.3563 Q166.9125,273.1125 166.2375,273.1125 Q165.3937,273.1125 164.6813,273.45 Q163.9875,273.7875 163.4438,274.5375 Q162.9,275.2875 162.9,276.3187 L162.9,277.425 Q162.9,278.6625 163.9125,279.4875 Q164.925,280.3125 166.725,280.3125 Q167.7938,280.3125 168.5438,280.0687 Q168.975,279.9375 169.4625,279.5062 Q169.7813,279.2625 169.95,279.1875 Q170.1188,279.1125 170.325,279.1125 Q170.7188,279.1125 171,279.4313 Q171.3,279.7313 171.3,280.1625 Q171.3,280.575 170.8875,281.0625 Q170.2875,281.775 169.3312,282.1688 Q168.075,282.7125 166.5375,282.7125 Q164.7375,282.7125 163.2938,282 Q162.1313,281.4375 161.3063,280.2188 Q160.5,279 160.5,277.5563 L160.5,276.2438 Q160.5,274.7438 161.2125,273.4313 Q161.9438,272.1188 163.2,271.425 Q164.475,270.7125 165.9,270.7125 Q166.7625,270.7125 167.5125,271.0125 Q168.2625,271.3125 168.9,271.9125 Z "/><text fill="#000000" font-family="sans-serif" font-size="14.4" font-style="italic" lengthAdjust="spacingAndGlyphs" textLength="79.2" x="224.7" y="272.9484">«Singleton»</text><ellipse cx="197.1" cy="284.5687" fill="#84BE84" rx="3.6" ry="3.6" style="stroke: #038048; stroke-width: 1.2;"/><text fill="#000000" font-family="sans-serif" font-size="14.4" font-weight="bold" lengthAdjust="spacingAndGlyphs" textLength="28.8" x="204.3" y="291.0609">final</text><text fill="#000000" font-family="sans-serif" font-size="14.4" lengthAdjust="spacingAndGlyphs" textLength="100.8" x="236.7" y="291.0609">SeProxyService</text><line style="stroke: #D4AC0D; stroke-width: 1.7999999999999998;" x1="67.2" x2="422.4" y1="300.225" y2="300.225"/><rect fill="none" height="7.2" style="stroke: #C82930; stroke-width: 1.2;" width="7.2" x="75.6" y="309.825"/><text fill="#000000" font-family="sans-serif" font-size="13.2" font-weight="bold" lengthAdjust="spacingAndGlyphs" text-decoration="underline" textLength="27.6" x="90" y="318.7277">final</text><text fill="#000000" font-family="sans-serif" font-size="13.2" lengthAdjust="spacingAndGlyphs" text-decoration="underline" textLength="184.8" x="121.2" y="318.7277">SeProxyService uniqueInstance</text><rect fill="none" height="7.2" style="stroke: #C82930; stroke-width: 1.2;" width="7.2" x="75.6" y="326.4281"/><text fill="#000000" font-family="sans-serif" font-size="13.2" font-weight="bold" lengthAdjust="spacingAndGlyphs" textLength="27.6" x="90" y="335.3309">final</text><text fill="#000000" font-family="sans-serif" font-size="13.2" lengthAdjust="spacingAndGlyphs" textLength="264" x="121.2" y="335.3309">ConcurrentMap&lt;String, ReaderPlugin&gt; plugins</text><line style="stroke: #D4AC0D; stroke-width: 1.7999999999999998;" x1="67.2" x2="422.4" y1="343.0313" y2="343.0313"/><ellipse cx="79.2" cy="356.2313" fill="#84BE84" rx="3.6" ry="3.6" style="stroke: #038048; stroke-width: 1.2;"/><text fill="#000000" font-family="sans-serif" font-size="13.2" lengthAdjust="spacingAndGlyphs" text-decoration="underline" textLength="174" x="90" y="361.534">SeProxyService getInstance()</text><ellipse cx="79.2" cy="372.8344" fill="#84BE84" rx="3.6" ry="3.6" style="stroke: #038048; stroke-width: 1.2;"/><text fill="#000000" font-family="sans-serif" font-size="13.2" lengthAdjust="spacingAndGlyphs" textLength="110.4" x="90" y="378.1371">String getVersion()</text><text fill="#000000" font-family="sans-serif" font-size="13.2" lengthAdjust="spacingAndGlyphs" textLength="0" x="93.6" y="394.7402"/><ellipse cx="79.2" cy="406.0406" fill="#84BE84" rx="3.6" ry="3.6" style="stroke: #038048; stroke-width: 1.2;"/><text fill="#000000" font-family="sans-serif" font-size="13.2" lengthAdjust="spacingAndGlyphs" textLength="326.4" x="90" y="411.3434">ReaderPlugin registerPlugin(PluginFactory pluginFactory)</text><ellipse cx="79.2" cy="422.6438" fill="#84BE84" rx="3.6" ry="3.6" style="stroke: #038048; stroke-width: 1.2;"/><text fill="#000000" font-family="sans-serif" font-size="13.2" lengthAdjust="spacingAndGlyphs" textLength="234" x="90" y="427.9465">boolean isRegistered(String pluginName)</text><ellipse cx="79.2" cy="439.2469" fill="#84BE84" rx="3.6" ry="3.6" style="stroke: #038048; stroke-width: 1.2;"/><text fill="#000000" font-family="sans-serif" font-size="13.2" lengthAdjust="spacingAndGlyphs" textLength="254.4" x="90" y="444.5496">boolean unregisterPlugin(String pluginName)</text><text fill="#000000" font-family="sans-serif" font-size="13.2" lengthAdjust="spacingAndGlyphs" textLength="0" x="93.6" y="461.1527"/><ellipse cx="79.2" cy="472.4531" fill="#84BE84" rx="3.6" ry="3.6" style="stroke: #038048; stroke-width: 1.2;"/><text fill="#000000" font-family="sans-serif" font-size="13.2" lengthAdjust="spacingAndGlyphs" textLength="208.8" x="90" y="477.7559">ReaderPlugin getPlugin(String name)</text><ellipse cx="79.2" cy="489.0563" fill="#84BE84" rx="3.6" ry="3.6" style="stroke: #038048; stroke-width: 1.2;"/><text fill="#000000" font-family="sans-serif" font-size="13.2" lengthAdjust="spacingAndGlyphs" textLength="291.6" x="90" y="494.359">ConcurrentMap&lt;String, ReaderPlugin&gt; getPlugins()</text><!--MD5=[5c68026ea752d2e8f1e184b2d7c89ced]
class PluginFactory--><rect fill="#FEFECE" height="90.8062" id="PluginFactory" style="stroke: #D4AC0D; stroke-width: 1.7999999999999998;" width="220.8" x="45.6" y="611.4"/><ellipse cx="99.3" cy="630.6" fill="#B4A7E5" rx="13.2" ry="13.2" style="stroke: #B4A7E5; stroke-width: 1.2;"/><path d="M100.5,627 L100.5,634.2 L102.9,634.2 L103.4813,634.2 L104.1,634.95 L104.1,635.4 L104.1,635.85 L103.4813,636.6 L102.9,636.6 L95.7,636.6 L95.1187,636.6 L94.5,635.85 L94.5,635.4 L94.5,634.95 L95.1187,634.2 L95.7,634.2 L98.1,634.2 L98.1,627 L95.7,627 L95.1187,627 L94.5,626.25 L94.5,625.8 L94.5,625.35 L95.1187,624.6 L95.7,624.6 L102.9,624.6 L103.4813,624.6 L104.1,625.35 L104.1,625.8 L104.1,626.25 L103.4813,627 L102.9,627 L100.5,627 Z "/><ellipse cx="129.9" cy="630" fill="#84BE84" rx="3.6" ry="3.6" style="stroke: #038048; stroke-width: 1.2;"/><text fill="#000000" font-family="sans-serif" font-size="14.4" font-style="italic" lengthAdjust="spacingAndGlyphs" textLength="90" x="137.1" y="636.4922">PluginFactory</text><line style="stroke: #D4AC0D; stroke-width: 1.7999999999999998;" x1="46.8" x2="265.2" y1="649.8" y2="649.8"/><line style="stroke: #D4AC0D; stroke-width: 1.7999999999999998;" x1="46.8" x2="265.2" y1="659.4" y2="659.4"/><ellipse cx="58.8" cy="672.6" fill="#84BE84" rx="3.6" ry="3.6" style="stroke: #038048; stroke-width: 1.2;"/><text fill="#000000" font-family="sans-serif" font-size="13.2" lengthAdjust="spacingAndGlyphs" textLength="130.8" x="69.6" y="677.9027">String getPluginName()</text><ellipse cx="58.8" cy="689.2031" fill="#84BE84" rx="3.6" ry="3.6" style="stroke: #038048; stroke-width: 1.2;"/><text fill="#000000" font-family="sans-serif" font-size="13.2" lengthAdjust="spacingAndGlyphs" textLength="189.6" x="69.6" y="694.5059">ReaderPlugin getPluginInstance()</text><!--MD5=[a0e88443257adb8def549c32ec694d43]
class ReaderPlugin--><rect fill="#FEFECE" height="107.4094" id="ReaderPlugin" style="stroke: #D4AC0D; stroke-width: 1.7999999999999998;" width="248.4" x="361.8" y="603"/><ellipse cx="428.7" cy="622.2" fill="#B4A7E5" rx="13.2" ry="13.2" style="stroke: #B4A7E5; stroke-width: 1.2;"/><path d="M429.9,618.6 L429.9,625.8 L432.3,625.8 L432.8812,625.8 L433.5,626.55 L433.5,627 L433.5,627.45 L432.8812,628.2 L432.3,628.2 L425.1,628.2 L424.5188,628.2 L423.9,627.45 L423.9,627 L423.9,626.55 L424.5188,625.8 L425.1,625.8 L427.5,625.8 L427.5,618.6 L425.1,618.6 L424.5188,618.6 L423.9,617.85 L423.9,617.4 L423.9,616.95 L424.5188,616.2 L425.1,616.2 L432.3,616.2 L432.8812,616.2 L433.5,616.95 L433.5,617.4 L433.5,617.85 L432.8812,618.6 L432.3,618.6 L429.9,618.6 Z "/><ellipse cx="459.3" cy="621.6" fill="#84BE84" rx="3.6" ry="3.6" style="stroke: #038048; stroke-width: 1.2;"/><text fill="#000000" font-family="sans-serif" font-size="14.4" font-style="italic" lengthAdjust="spacingAndGlyphs" textLength="91.2" x="466.5" y="628.0922">ReaderPlugin</text><line style="stroke: #D4AC0D; stroke-width: 1.7999999999999998;" x1="363" x2="609" y1="641.4" y2="641.4"/><line style="stroke: #D4AC0D; stroke-width: 1.7999999999999998;" x1="363" x2="609" y1="651" y2="651"/><ellipse cx="375" cy="664.2" fill="#84BE84" rx="3.6" ry="3.6" style="stroke: #038048; stroke-width: 1.2;"/><text fill="#000000" font-family="sans-serif" font-size="13.2" lengthAdjust="spacingAndGlyphs" textLength="217.2" x="385.8" y="669.5027">Map&lt;String, SeReader&gt; getReaders()</text><ellipse cx="375" cy="680.8031" fill="#84BE84" rx="3.6" ry="3.6" style="stroke: #038048; stroke-width: 1.2;"/><text fill="#000000" font-family="sans-serif" font-size="13.2" lengthAdjust="spacingAndGlyphs" textLength="180" x="385.8" y="686.1059">Set&lt;String&gt; getReaderNames()</text><ellipse cx="375" cy="697.4063" fill="#84BE84" rx="3.6" ry="3.6" style="stroke: #038048; stroke-width: 1.2;"/><text fill="#000000" font-family="sans-serif" font-size="13.2" lengthAdjust="spacingAndGlyphs" textLength="199.2" x="385.8" y="702.709">SeReader getReader(String name)</text><!--MD5=[dd49942b1f02350b5568646d3da64c49]
class SeReader--><rect fill="#FEFECE" height="124.0125" id="SeReader" style="stroke: #D4AC0D; stroke-width: 1.7999999999999998;" width="408" x="705.6" y="595.2"/><ellipse cx="864.3" cy="614.4" fill="#B4A7E5" rx="13.2" ry="13.2" style="stroke: #B4A7E5; stroke-width: 1.2;"/><path d="M865.5,610.8 L865.5,618 L867.9,618 L868.4812,618 L869.1,618.75 L869.1,619.2 L869.1,619.65 L868.4812,620.4 L867.9,620.4 L860.7,620.4 L860.1188,620.4 L859.5,619.65 L859.5,619.2 L859.5,618.75 L860.1188,618 L860.7,618 L863.1,618 L863.1,610.8 L860.7,610.8 L860.1188,610.8 L859.5,610.05 L859.5,609.6 L859.5,609.15 L860.1188,608.4 L860.7,608.4 L867.9,608.4 L868.4812,608.4 L869.1,609.15 L869.1,609.6 L869.1,610.05 L868.4812,610.8 L867.9,610.8 L865.5,610.8 Z "/><ellipse cx="894.9" cy="613.8" fill="#84BE84" rx="3.6" ry="3.6" style="stroke: #038048; stroke-width: 1.2;"/><text fill="#000000" font-family="sans-serif" font-size="14.4" font-style="italic" lengthAdjust="spacingAndGlyphs" textLength="67.2" x="902.1" y="620.2922">SeReader</text><line style="stroke: #D4AC0D; stroke-width: 1.7999999999999998;" x1="706.8" x2="1112.4" y1="633.6" y2="633.6"/><line style="stroke: #D4AC0D; stroke-width: 1.7999999999999998;" x1="706.8" x2="1112.4" y1="643.2" y2="643.2"/><ellipse cx="718.8" cy="656.4" fill="#84BE84" rx="3.6" ry="3.6" style="stroke: #038048; stroke-width: 1.2;"/><text fill="#000000" font-family="sans-serif" font-size="13.2" lengthAdjust="spacingAndGlyphs" textLength="128.4" x="729.6" y="661.7027">boolean isSePresent()</text><ellipse cx="718.8" cy="673.0031" fill="#84BE84" rx="3.6" ry="3.6" style="stroke: #038048; stroke-width: 1.2;"/><text fill="#000000" font-family="sans-serif" font-size="13.2" lengthAdjust="spacingAndGlyphs" textLength="376.8" x="729.6" y="678.3059">addSeProtocolSetting(SeProtocol seProtocol, String protocolRule)</text><ellipse cx="718.8" cy="689.6062" fill="#84BE84" rx="3.6" ry="3.6" style="stroke: #038048; stroke-width: 1.2;"/><text fill="#000000" font-family="sans-serif" font-size="13.2" lengthAdjust="spacingAndGlyphs" textLength="361.2" x="729.6" y="694.909">setSeProtocolSetting(Map&lt;SeProtocol, String&gt; protocolSetting)</text><ellipse cx="718.8" cy="706.2094" fill="#84BE84" rx="3.6" ry="3.6" style="stroke: #038048; stroke-width: 1.2;"/><text fill="#000000" font-family="sans-serif" font-size="13.2" lengthAdjust="spacingAndGlyphs" textLength="247.2" x="729.6" y="711.5121">TransmissionMode getTransmissionMode()</text><!--MD5=[273228bd21fa37477fe0813cbe95870a]
class SpecificPluginFactory--><rect fill="#FEFECE" height="90.8062" id="SpecificPluginFactory" style="stroke: #D4AC0D; stroke-width: 1.7999999999999998;" width="224.4" x="70.2" y="862.8"/><ellipse cx="88.2" cy="882" fill="#ADD1B2" rx="13.2" ry="13.2" style="stroke: #ADD1B2; stroke-width: 1.2;"/><path d="M90.6,877.8 Q90.8438,877.2 91.125,876.9 Q91.4063,876.6 91.725,876.6 Q92.2875,876.6 92.6438,876.9375 Q93,877.275 93,878.0625 L93,879.9375 Q93,880.725 92.6625,881.0625 Q92.325,881.4 91.8,881.4 Q91.3313,881.4 91.0313,881.1938 Q90.7313,880.9875 90.6,880.4438 Q90.5438,880.0688 90.3375,879.8625 Q89.9625,879.4688 89.2875,879.2438 Q88.6125,879 87.9375,879 Q87.0938,879 86.3813,879.3375 Q85.6875,879.675 85.1438,880.425 Q84.6,881.175 84.6,882.2063 L84.6,883.3125 Q84.6,884.55 85.6125,885.375 Q86.625,886.2 88.425,886.2 Q89.4937,886.2 90.2437,885.9563 Q90.675,885.825 91.1625,885.3938 Q91.4813,885.15 91.65,885.075 Q91.8188,885 92.025,885 Q92.4188,885 92.7,885.3188 Q93,885.6188 93,886.05 Q93,886.4625 92.5875,886.95 Q91.9875,887.6625 91.0313,888.0563 Q89.775,888.6 88.2375,888.6 Q86.4375,888.6 84.9937,887.8875 Q83.8313,887.325 83.0063,886.1062 Q82.2,884.8875 82.2,883.4438 L82.2,882.1313 Q82.2,880.6313 82.9125,879.3188 Q83.6438,878.0063 84.9,877.3125 Q86.175,876.6 87.6,876.6 Q88.4625,876.6 89.2125,876.9 Q89.9625,877.2 90.6,877.8 Z "/><ellipse cx="111" cy="881.4" fill="#84BE84" rx="3.6" ry="3.6" style="stroke: #038048; stroke-width: 1.2;"/><text fill="#000000" font-family="sans-serif" font-size="14.4" font-weight="bold" lengthAdjust="spacingAndGlyphs" textLength="28.8" x="118.2" y="887.8922">final</text><text fill="#000000" font-family="sans-serif" font-size="14.4" lengthAdjust="spacingAndGlyphs" textLength="140.4" x="150.6" y="887.8922">SpecificPluginFactory</text><line style="stroke: #D4AC0D; stroke-width: 1.7999999999999998;" x1="71.4" x2="293.4" y1="901.2" y2="901.2"/><line style="stroke: #D4AC0D; stroke-width: 1.7999999999999998;" x1="71.4" x2="293.4" y1="910.8" y2="910.8"/><polygon fill="#FFFF44" points="83.4,918,88.2,922.8,83.4,927.6,78.6,922.8" style="stroke: #B38D22; stroke-width: 1.2;"/><text fill="#000000" font-family="sans-serif" font-size="13.2" lengthAdjust="spacingAndGlyphs" textLength="130.8" x="94.2" y="929.3027">String getPluginName()</text><polygon fill="#FFFF44" points="83.4,934.6031,88.2,939.4031,83.4,944.2031,78.6,939.4031" style="stroke: #B38D22; stroke-width: 1.2;"/><text fill="#000000" font-family="sans-serif" font-size="13.2" lengthAdjust="spacingAndGlyphs" textLength="189.6" x="94.2" y="945.9059">ReaderPlugin getPluginInstance()</text><!--MD5=[0f8b8cab079f94c46492aeaa0dde1551]
class SpecificPlugin--><rect fill="#FEFECE" height="133.8375" id="SpecificPlugin" style="stroke: #D4AC0D; stroke-width: 1.7999999999999998;" width="192" x="390" y="841.2"/><ellipse cx="429.06" cy="865.3125" fill="#ADD1B2" rx="13.2" ry="13.2" style="stroke: #ADD1B2; stroke-width: 1.2;"/><path d="M431.46,861.1125 Q431.7038,860.5125 431.985,860.2125 Q432.2663,859.9125 432.585,859.9125 Q433.1475,859.9125 433.5038,860.25 Q433.86,860.5875 433.86,861.375 L433.86,863.25 Q433.86,864.0375 433.5225,864.375 Q433.185,864.7125 432.66,864.7125 Q432.1913,864.7125 431.8913,864.5063 Q431.5913,864.3 431.46,863.7563 Q431.4038,863.3813 431.1975,863.175 Q430.8225,862.7813 430.1475,862.5563 Q429.4725,862.3125 428.7975,862.3125 Q427.9538,862.3125 427.2413,862.65 Q426.5475,862.9875 426.0038,863.7375 Q425.46,864.4875 425.46,865.5188 L425.46,866.625 Q425.46,867.8625 426.4725,868.6875 Q427.485,869.5125 429.285,869.5125 Q430.3538,869.5125 431.1038,869.2688 Q431.535,869.1375 432.0225,868.7063 Q432.3413,868.4625 432.51,868.3875 Q432.6788,868.3125 432.885,868.3125 Q433.2788,868.3125 433.56,868.6313 Q433.86,868.9313 433.86,869.3625 Q433.86,869.775 433.4475,870.2625 Q432.8475,870.975 431.8913,871.3688 Q430.635,871.9125 429.0975,871.9125 Q427.2975,871.9125 425.8538,871.2 Q424.6913,870.6375 423.8663,869.4187 Q423.06,868.2 423.06,866.7563 L423.06,865.4438 Q423.06,863.9438 423.7725,862.6313 Q424.5038,861.3188 425.76,860.625 Q427.035,859.9125 428.46,859.9125 Q429.3225,859.9125 430.0725,860.2125 Q430.8225,860.5125 431.46,861.1125 Z "/><text fill="#000000" font-family="sans-serif" font-size="14.4" font-style="italic" lengthAdjust="spacingAndGlyphs" textLength="79.2" x="464.34" y="862.1484">«Singleton»</text><polygon fill="#4177AF" points="456.54,868.9688,451.74,876.1687,461.34,876.1687" style="stroke: #1963A0; stroke-width: 1.2;"/><text fill="#000000" font-family="sans-serif" font-size="14.4" lengthAdjust="spacingAndGlyphs" textLength="93.6" x="463.74" y="880.2609">SpecificPlugin</text><line style="stroke: #D4AC0D; stroke-width: 1.7999999999999998;" x1="391.2" x2="580.8" y1="889.425" y2="889.425"/><rect fill="none" height="7.2" style="stroke: #C82930; stroke-width: 1.2;" width="7.2" x="399.6" y="899.025"/><text fill="#000000" font-family="sans-serif" font-size="13.2" lengthAdjust="spacingAndGlyphs" textLength="68.4" x="414" y="907.9277">String name</text><line style="stroke: #D4AC0D; stroke-width: 1.7999999999999998;" x1="391.2" x2="580.8" y1="915.6281" y2="915.6281"/><rect fill="#F24D5C" height="7.2" style="stroke: #C82930; stroke-width: 1.2;" width="7.2" x="399.6" y="925.2281"/><text fill="#000000" font-family="sans-serif" font-size="13.2" lengthAdjust="spacingAndGlyphs" textLength="90" x="414" y="934.1309">SpecificPlugin()</text><ellipse cx="403.2" cy="945.4313" fill="#84BE84" rx="3.6" ry="3.6" style="stroke: #038048; stroke-width: 1.2;"/><text fill="#000000" font-family="sans-serif" font-size="13.2" lengthAdjust="spacingAndGlyphs" text-decoration="underline" textLength="160.8" x="414" y="950.734">SpecificPlugin getInstance()</text><ellipse cx="403.2" cy="962.0344" fill="#84BE84" rx="3.6" ry="3.6" style="stroke: #038048; stroke-width: 1.2;"/><text fill="#000000" font-family="sans-serif" font-size="13.2" font-weight="bold" lengthAdjust="spacingAndGlyphs" textLength="27.6" x="414" y="967.3371">final</text><text fill="#000000" font-family="sans-serif" font-size="13.2" lengthAdjust="spacingAndGlyphs" textLength="97.2" x="445.2" y="967.3371">String getName()</text><!--MD5=[4ab0a37e4eea002adccb7015b38062eb]
class SpecificReader--><rect fill="#FEFECE" height="107.4094" id="SpecificReader" style="stroke: #D4AC0D; stroke-width: 1.7999999999999998;" width="159.6" x="677.4" y="854.4"/><ellipse cx="698.64" cy="873.6" fill="#ADD1B2" rx="13.2" ry="13.2" style="stroke: #ADD1B2; stroke-width: 1.2;"/><path d="M701.04,869.4 Q701.2838,868.8 701.565,868.5 Q701.8463,868.2 702.165,868.2 Q702.7275,868.2 703.0838,868.5375 Q703.44,868.875 703.44,869.6625 L703.44,871.5375 Q703.44,872.325 703.1025,872.6625 Q702.765,873 702.24,873 Q701.7713,873 701.4713,872.7937 Q701.1713,872.5875 701.04,872.0437 Q700.9838,871.6687 700.7775,871.4625 Q700.4025,871.0688 699.7275,870.8438 Q699.0525,870.6 698.3775,870.6 Q697.5338,870.6 696.8213,870.9375 Q696.1275,871.275 695.5838,872.025 Q695.04,872.775 695.04,873.8063 L695.04,874.9125 Q695.04,876.15 696.0525,876.975 Q697.065,877.8 698.865,877.8 Q699.9338,877.8 700.6838,877.5563 Q701.115,877.425 701.6025,876.9938 Q701.9213,876.75 702.09,876.675 Q702.2588,876.6 702.465,876.6 Q702.8588,876.6 703.14,876.9187 Q703.44,877.2188 703.44,877.65 Q703.44,878.0625 703.0275,878.55 Q702.4275,879.2625 701.4713,879.6563 Q700.215,880.2 698.6775,880.2 Q696.8775,880.2 695.4338,879.4875 Q694.2713,878.925 693.4463,877.7063 Q692.64,876.4875 692.64,875.0437 L692.64,873.7312 Q692.64,872.2312 693.3525,870.9187 Q694.0838,869.6062 695.34,868.9125 Q696.615,868.2 698.04,868.2 Q698.9025,868.2 699.6525,868.5 Q700.4025,868.8 701.04,869.4 Z "/><polygon fill="#4177AF" points="722.16,868.2,717.36,875.4,726.96,875.4" style="stroke: #1963A0; stroke-width: 1.2;"/><text fill="#000000" font-family="sans-serif" font-size="14.4" lengthAdjust="spacingAndGlyphs" textLength="100.8" x="729.36" y="879.4922">SpecificReader</text><line style="stroke: #D4AC0D; stroke-width: 1.7999999999999998;" x1="678.6" x2="835.8" y1="892.8" y2="892.8"/><rect fill="none" height="7.2" style="stroke: #C82930; stroke-width: 1.2;" width="7.2" x="687" y="902.4"/><text fill="#000000" font-family="sans-serif" font-size="13.2" lengthAdjust="spacingAndGlyphs" textLength="68.4" x="701.4" y="911.3027">String name</text><line style="stroke: #D4AC0D; stroke-width: 1.7999999999999998;" x1="678.6" x2="835.8" y1="919.0031" y2="919.0031"/><polygon fill="#FFFF44" points="690.6,926.2031,695.4,931.0031,690.6,935.8031,685.8,931.0031" style="stroke: #B38D22; stroke-width: 1.2;"/><text fill="#000000" font-family="sans-serif" font-size="13.2" lengthAdjust="spacingAndGlyphs" textLength="98.4" x="701.4" y="937.5059">SpecificReader()</text><ellipse cx="690.6" cy="948.8063" fill="#84BE84" rx="3.6" ry="3.6" style="stroke: #038048; stroke-width: 1.2;"/><text fill="#000000" font-family="sans-serif" font-size="13.2" font-weight="bold" lengthAdjust="spacingAndGlyphs" textLength="27.6" x="701.4" y="954.109">final</text><text fill="#000000" font-family="sans-serif" font-size="13.2" lengthAdjust="spacingAndGlyphs" textLength="97.2" x="732.6" y="954.109">String getName()</text><!--MD5=[98fb93546a7dc75f66b7a26283e02bb5]
link SeProxyService to ReaderPlugin--><path d="M361.7903,512.7439 C361.7903,512.7439 409.47,567.6576 429.516,590.7444 " fill="none" id="SeProxyService-ReaderPlugin" style="stroke: #A80036; stroke-width: 1.2;"/><polygon fill="#A80036" points="439.98,602.7972,436.5236,591.4953,436.0462,598.2667,429.2748,597.7893,439.98,602.7972" style="stroke: #A80036; stroke-width: 1.2;"/><line style="stroke: #A80036; stroke-width: 1.2;" x1="436.0462" x2="429.753" y1="598.2667" y2="591.018"/><polygon fill="#A80036" points="352.35,501.87,353.4455,510.4537,361.7903,512.7439,360.6948,504.1602,352.35,501.87" style="stroke: #A80036; stroke-width: 1.2;"/><text fill="#000000" font-family="sans-serif" font-size="15.6" lengthAdjust="spacingAndGlyphs" textLength="49.2" x="403.2" y="554.9941">plugins</text><text fill="#000000" font-family="sans-serif" font-size="15.6" lengthAdjust="spacingAndGlyphs" textLength="8.4" x="351.5398" y="527.9526">1</text><text fill="#000000" font-family="sans-serif" font-size="15.6" lengthAdjust="spacingAndGlyphs" textLength="6" x="426.4738" y="590.0991">*</text><!--MD5=[c88fac8de0d16551763276c4b9088a93]
link ReaderPlugin to SeReader--><path d="M624.6312,657 C624.6312,657 667.9392,657 689.5908,657 " fill="none" id="ReaderPlugin-SeReader" style="stroke: #A80036; stroke-width: 1.2;"/><polygon fill="#A80036" points="705.3636,657,694.5636,652.2,699.3636,657,694.5636,661.8,705.3636,657" style="stroke: #A80036; stroke-width: 1.2;"/><line style="stroke: #A80036; stroke-width: 1.2;" x1="699.3636" x2="689.7636" y1="657" y2="657"/><polygon fill="#A80036" points="610.2312,657,617.4312,661.8,624.6312,657,617.4312,652.2,610.2312,657" style="stroke: #A80036; stroke-width: 1.2;"/><text fill="#000000" font-family="sans-serif" font-size="15.6" lengthAdjust="spacingAndGlyphs" textLength="51.6" x="632.1" y="649.1941">readers</text><text fill="#000000" font-family="sans-serif" font-size="15.6" lengthAdjust="spacingAndGlyphs" textLength="8.4" x="619.6629" y="653.3263">1</text><text fill="#000000" font-family="sans-serif" font-size="15.6" lengthAdjust="spacingAndGlyphs" textLength="6" x="689.9732" y="653.5594">*</text><!--MD5=[ac58f1a34eb5ab4662271d4b6552ae6b]
link SeProxyService to PluginFactory--><path d="M200.8195,515.586 C200.8195,515.586 182.5056,572.8788 175.0272,596.2764 " fill="none" id="SeProxyService-PluginFactory" style="stroke: #A80036; stroke-width: 1.2;"/><polygon fill="#A80036" points="170.2164,611.3244,178.0771,602.4989,172.0434,605.6093,168.9329,599.5757,170.2164,611.3244" style="stroke: #A80036; stroke-width: 1.2;"/><line style="stroke: #A80036; stroke-width: 1.2;" x1="172.0434" x2="174.9672" y1="605.6093" y2="596.4654"/><polygon fill="#A80036" points="205.2048,501.87,198.4402,507.2663,200.8195,515.586,207.5842,510.1898,205.2048,501.87" style="stroke: #A80036; stroke-width: 1.2;"/><text fill="#000000" font-family="sans-serif" font-size="15.6" lengthAdjust="spacingAndGlyphs" textLength="60" x="194.4" y="554.9941">registers</text><text fill="#000000" font-family="sans-serif" font-size="15.6" lengthAdjust="spacingAndGlyphs" textLength="8.4" x="193.5886" y="527.9526">1</text><text fill="#000000" font-family="sans-serif" font-size="15.6" lengthAdjust="spacingAndGlyphs" textLength="6" x="166.2844" y="598.2023">*</text><!--MD5=[8119e6da521221a00c7048597420cfa4]
link PluginFactory to ReaderPlugin--><path d="M266.8032,657 C295.122,657 325.8372,657 355.062,657 " fill="none" id="PluginFactory-&gt;ReaderPlugin" style="stroke: #A80036; stroke-width: 1.2;"/><polygon fill="#A80036" points="361.2744,657,350.4744,652.2,355.2744,657,350.4744,661.8,361.2744,657" style="stroke: #A80036; stroke-width: 1.2;"/><text fill="#000000" font-family="sans-serif" font-size="15.6" lengthAdjust="spacingAndGlyphs" textLength="51.6" x="288.3" y="649.1941">creates</text><text fill="#000000" font-family="sans-serif" font-size="15.6" lengthAdjust="spacingAndGlyphs" textLength="8.4" x="275.9675" y="653.2616">1</text><text fill="#000000" font-family="sans-serif" font-size="15.6" lengthAdjust="spacingAndGlyphs" textLength="8.4" x="343.8093" y="653.3547">1</text><!--MD5=[606af266cb1c3ee5489afec7c4e81055]
link SpecificPluginFactory to SpecificPlugin--><path d="M295.0176,908.4 C324.006,908.4 355.0416,908.4 383.4864,908.4 " fill="none" id="SpecificPluginFactory-&gt;SpecificPlugin" style="stroke: #A80036; stroke-width: 1.2;"/><polygon fill="#A80036" points="389.5152,908.4,378.7152,903.6,383.5152,908.4,378.7152,913.2,389.5152,908.4" style="stroke: #A80036; stroke-width: 1.2;"/><text fill="#000000" font-family="sans-serif" font-size="15.6" lengthAdjust="spacingAndGlyphs" textLength="51.6" x="316.5" y="900.5941">creates</text><text fill="#000000" font-family="sans-serif" font-size="15.6" lengthAdjust="spacingAndGlyphs" textLength="8.4" x="304.3265" y="904.6616">1</text><text fill="#000000" font-family="sans-serif" font-size="15.6" lengthAdjust="spacingAndGlyphs" textLength="8.4" x="372.148" y="904.583">1</text><!--MD5=[c0f848f1ce686e4cacbc8a0551faf0fe]
link SpecificPlugin to SpecificReader--><path d="M596.778,908.4 C596.778,908.4 641.0628,908.4 661.524,908.4 " fill="none" id="SpecificPlugin-SpecificReader" style="stroke: #A80036; stroke-width: 1.2;"/><polygon fill="#A80036" points="677.2404,908.4,666.4404,903.6,671.2404,908.4,666.4404,913.2,677.2404,908.4" style="stroke: #A80036; stroke-width: 1.2;"/><line style="stroke: #A80036; stroke-width: 1.2;" x1="671.2404" x2="661.6404" y1="908.4" y2="908.3999"/><polygon fill="#A80036" points="582.378,908.4,589.578,913.2,596.778,908.4,589.578,903.6,582.378,908.4" style="stroke: #A80036; stroke-width: 1.2;"/><text fill="#000000" font-family="sans-serif" font-size="15.6" lengthAdjust="spacingAndGlyphs" textLength="51.6" x="603.9" y="900.5941">readers</text><text fill="#000000" font-family="sans-serif" font-size="15.6" lengthAdjust="spacingAndGlyphs" textLength="8.4" x="591.65" y="904.5545">1</text><text fill="#000000" font-family="sans-serif" font-size="15.6" lengthAdjust="spacingAndGlyphs" textLength="6" x="661.6482" y="904.3427">*</text><!--MD5=[f8c43c6217b3f7a11e63ade92879ea46]
link SpecificTerminal to SeProxyService--><path d="M244.8,129.7404 C244.8,157.3848 244.8,201.8916 244.8,245.4912 " fill="none" id="SpecificTerminal-&gt;SeProxyService" style="stroke: #A80036; stroke-width: 1.2;"/><polygon fill="#A80036" points="244.8,251.9148,249.6,241.1148,244.8,245.9148,240,241.1148,244.8,251.9148" style="stroke: #A80036; stroke-width: 1.2;"/><text fill="#000000" font-family="sans-serif" font-size="15.6" lengthAdjust="spacingAndGlyphs" textLength="33.6" x="246" y="185.3941">uses</text><polygon fill="#000000" points="257.4,196.0219,261,203.2219,264.6,196.0219,257.4,196.0219" style="stroke: #000000; stroke-width: 1.2;"/><!--MD5=[136abeb6498542290e7ac248186897f6]
reverse link PluginFactory to SpecificPluginFactory--><path d="M163.2636,726.708 C167.8608,770.0664 173.6712,824.8704 177.6768,862.65 " fill="none" id="PluginFactory&lt;-SpecificPluginFactory" style="stroke: #A80036; stroke-width: 1.2; stroke-dasharray: 7.0,7.0;"/><polygon fill="none" points="154.8972,727.4676,160.7196,702.7164,171.6036,725.6964,154.8972,727.4676" style="stroke: #A80036; stroke-width: 1.2;"/><text fill="#000000" font-family="sans-serif" font-size="15.6" lengthAdjust="spacingAndGlyphs" textLength="80.4" x="170.4" y="774.5941">implements</text><!--MD5=[7c148b1c73f50606d6f270d6e2289f39]
reverse link ReaderPlugin to SpecificPlugin--><path d="M486,735.1164 C486,769.0608 486,808.5588 486,841.1472 " fill="none" id="ReaderPlugin&lt;-SpecificPlugin" style="stroke: #A80036; stroke-width: 1.2; stroke-dasharray: 7.0,7.0;"/><polygon fill="none" points="477.6,735.006,486,711.006,494.4,735.006,477.6,735.006" style="stroke: #A80036; stroke-width: 1.2;"/><text fill="#000000" font-family="sans-serif" font-size="15.6" lengthAdjust="spacingAndGlyphs" textLength="80.4" x="487.2" y="774.5941">implements</text><!--MD5=[4afba5938fcadf10f22a5ff47d317fb7]
reverse link SeReader to SpecificReader--><path d="M859.6344,739.8372 C836.6508,777.3888 810.0408,820.866 789.7032,854.0952 " fill="none" id="SeReader&lt;-SpecificReader" style="stroke: #A80036; stroke-width: 1.2; stroke-dasharray: 7.0,7.0;"/><polygon fill="none" points="852.6252,735.198,872.3184,719.112,866.9544,743.9676,852.6252,735.198" style="stroke: #A80036; stroke-width: 1.2;"/><text fill="#000000" font-family="sans-serif" font-size="15.6" lengthAdjust="spacingAndGlyphs" textLength="80.4" x="847.2" y="774.5941">implements</text><!--MD5=[2415f176b798bdf4197dc19b7463629b]
@startuml
skinparam ClassBorderColor #D4AC0D
skinparam stereotypeABorderColor #A9DCDF
skinparam stereotypeIBorderColor #B4A7E5
skinparam stereotypeCBorderColor #ADD1B2
skinparam stereotypeEBorderColor #EB93DF
skinparam shadowing false

skinparam StateBorderColor #D4AC0D
skinparam ActivityBorderColor #D4AC0D

skinparam ClassBackgroundColor<<red>> #FDEDEC
skinparam ClassBorderColor<<red>> #E74C3C
hide <<red>> stereotype
skinparam ClassBackgroundColor<<purple>> #F4ECF7
skinparam ClassBorderColor<<purple>> #8E44AD
hide <<purple>> stereotype
skinparam ClassBackgroundColor<<blue>> #EBF5FB
skinparam ClassBorderColor<<blue>> #3498DB
hide <<blue>> stereotype
skinparam ClassBackgroundColor<<green>> #EAFAF1
skinparam ClassBorderColor<<green>> #2ECC71
hide <<green>> stereotype

skinparam ClassBackgroundColor<<orange>> #FDF2E9
skinparam ClassBorderColor<<orange>> #E67E22
hide <<orange>> stereotype

skinparam ClassBackgroundColor<<grey>> #EAECEE
skinparam ClassBorderColor<<grey>> #2C3E50
hide <<grey>> stereotype

package external.terminalapplication #3399FF {
  class SpecificTerminal
}

package org.eclipse.keyple.core.seproxy #FFFFFF {
+class "<b>final</b> SeProxyService" as SeProxyService << Singleton >> {
  -<b>final</b> {static}SeProxyService uniqueInstance
  -<b>final</b> ConcurrentMap<String, ReaderPlugin> plugins
  +{static}SeProxyService getInstance()
  +String getVersion()

  +ReaderPlugin registerPlugin(PluginFactory pluginFactory)
  +boolean isRegistered(String pluginName)
  +boolean unregisterPlugin(String pluginName)

  +ReaderPlugin getPlugin(String name)
  +ConcurrentMap<String, ReaderPlugin> getPlugins()
}
+interface PluginFactory {
  +String getPluginName()
  +ReaderPlugin getPluginInstance()
}
+interface ReaderPlugin {
  +Map<String, SeReader> getReaders()
  +Set<String> getReaderNames()
  +SeReader getReader(String name)
}
+interface SeReader {
  +boolean isSePresent()
  +addSeProtocolSetting(SeProtocol seProtocol, String protocolRule)
  +setSeProtocolSetting(Map<SeProtocol, String> protocolSetting)
  +TransmissionMode getTransmissionMode()
}

  SeProxyService "1" *-down-> "*" ReaderPlugin : plugins
  ReaderPlugin "1" *-right-> "*" SeReader : readers

  SeProxyService "1" *- -> "*" PluginFactory : registers
  PluginFactory "1" -right-> "1" ReaderPlugin : creates
}

package plugin.specific #D7BDE2 {
  +class "<b>final</b> SpecificPluginFactory" as SpecificPluginFactory {
    #String getPluginName()
    #ReaderPlugin getPluginInstance()
  }

  ~class SpecificPlugin << Singleton >> {
    -String name
    -SpecificPlugin()
    +{static} SpecificPlugin getInstance()
    +<b>final</b> String getName()
  }

  ~class SpecificReader {
    -String name
    #SpecificReader()
    +<b>final</b> String getName()
  }

  SpecificPluginFactory "1" -right-> "1" SpecificPlugin : creates
  SpecificPlugin "1" *-right-> "*" SpecificReader : readers
}

SpecificTerminal -down-> SeProxyService : uses >

PluginFactory <|.down. SpecificPluginFactory : implements
ReaderPlugin <|.. SpecificPlugin : implements
SeReader <|.. SpecificReader : implements
@enduml

PlantUML version 1.2020.09(Sun May 10 14:51:06 MUT 2020)
(GPL source distribution)
Java Runtime: OpenJDK Runtime Environment
JVM: OpenJDK 64-Bit Server VM
Java Version: 11.0.7+10-b765.64
Operating System: Windows 10
Default Encoding: Cp1252
Language: fr
Country: FR
--></g></svg>