<?xml version="1.0" encoding="UTF-8" standalone="no"?><svg xmlns="http://www.w3.org/2000/svg" xmlns:xlink="http://www.w3.org/1999/xlink" contentScriptType="application/ecmascript" contentStyleType="text/css" height="1434px" preserveAspectRatio="none" style="width:846px;height:1434px;" version="1.1" viewBox="0 0 846 1434" width="846px" zoomAndPan="magnify"><defs/><g><!--MD5=[2bcc54f38766b998c5e88efdbc7d1696]
cluster org.eclipse.keyple.core.seproxy--><polygon fill="#FFFFFF" points="26.4,28.8,303.6,28.8,312,57.1313,819.6,57.1313,819.6,1419.6,26.4,1419.6,26.4,28.8" style="stroke: #000000; stroke-width: 1.7999999999999998;"/><line style="stroke: #000000; stroke-width: 1.7999999999999998;" x1="26.4" x2="312" y1="57.1313" y2="57.1313"/><text fill="#000000" font-family="sans-serif" font-size="16.8" font-weight="bold" lengthAdjust="spacingAndGlyphs" textLength="270" x="31.2" y="48.6398">org.eclipse.keyple.core.seproxy</text><!--MD5=[59e9faf83e5ffb743ef5750f57e8e967]
cluster protocol--><polygon fill="#FFFFFF" points="55.2,739.2,133.2,739.2,141.6,767.5313,790.8,767.5313,790.8,1390.8,55.2,1390.8,55.2,739.2" style="stroke: #000000; stroke-width: 1.7999999999999998;"/><line style="stroke: #000000; stroke-width: 1.7999999999999998;" x1="55.2" x2="141.6" y1="767.5313" y2="767.5313"/><text fill="#000000" font-family="sans-serif" font-size="16.8" font-weight="bold" lengthAdjust="spacingAndGlyphs" textLength="70.8" x="60" y="759.0398">protocol</text><!--MD5=[986279e3cfc2043660398b1cf71c65a2]
class FileOccurrence--><rect fill="#FEFECE" height="124.0125" id="FileOccurrence" style="stroke: #D4AC0D; stroke-width: 1.7999999999999998;" width="151.2" x="169.2" y="72"/><ellipse cx="187.2" cy="91.2" fill="#EB937F" rx="13.2" ry="13.2" style="stroke: #EB93DF; stroke-width: 1.2;"/><path d="M185.4,92.4 L185.4,94.8 L190.2,94.8 L190.2,93.6 L190.2,93.0188 L190.95,92.4 L191.4,92.4 L191.85,92.4 L192.6,93.0188 L192.6,93.6 L192.6,97.2 L183,97.2 L182.4188,97.2 L181.8,96.45 L181.8,96 L181.8,95.55 L182.4188,94.8 L183,94.8 L183,94.8 L183,87.6 L183,87.6 L182.4188,87.6 L181.8,86.85 L181.8,86.4 L181.8,85.95 L182.4188,85.2 L183,85.2 L192.6,85.2 L192.6,88.8 L192.6,89.3813 L191.85,90 L191.4,90 L190.95,90 L190.2,89.3813 L190.2,88.8 L190.2,87.6 L185.4,87.6 L185.4,90 L186.6,90 L186.6,89.4188 L186.6,89.4188 L187.35,88.8 L187.8,88.8 L188.25,88.8 L189,89.4188 L189,90 L189,92.4 L189,92.9813 L188.25,93.6 L188.25,93.6 L187.8,93.6 L187.35,93.6 L186.6,92.9813 L186.6,92.9813 L186.6,92.4 L185.4,92.4 Z "/><ellipse cx="210" cy="90.6" fill="#84BE84" rx="3.6" ry="3.6" style="stroke: #038048; stroke-width: 1.2;"/><text fill="#000000" font-family="sans-serif" font-size="14.4" lengthAdjust="spacingAndGlyphs" textLength="99.6" x="217.2" y="97.0922">FileOccurrence</text><line style="stroke: #D4AC0D; stroke-width: 1.7999999999999998;" x1="170.4" x2="319.2" y1="110.4" y2="110.4"/><text fill="#000000" font-family="sans-serif" font-size="13.2" lengthAdjust="spacingAndGlyphs" textLength="33.6" x="176.4" y="128.9027">FIRST</text><text fill="#000000" font-family="sans-serif" font-size="13.2" lengthAdjust="spacingAndGlyphs" textLength="32.4" x="176.4" y="145.5059">LAST</text><text fill="#000000" font-family="sans-serif" font-size="13.2" lengthAdjust="spacingAndGlyphs" textLength="31.2" x="176.4" y="162.109">NEXT</text><text fill="#000000" font-family="sans-serif" font-size="13.2" lengthAdjust="spacingAndGlyphs" textLength="61.2" x="176.4" y="178.7121">PREVIOUS</text><line style="stroke: #D4AC0D; stroke-width: 1.7999999999999998;" x1="170.4" x2="319.2" y1="186.4125" y2="186.4125"/><!--MD5=[7db03ef0d09735de9c956eac87f10fc3]
class FileControlInformation--><rect fill="#FEFECE" height="124.0125" id="FileControlInformation" style="stroke: #D4AC0D; stroke-width: 1.7999999999999998;" width="198" x="363" y="72"/><ellipse cx="381" cy="91.2" fill="#EB937F" rx="13.2" ry="13.2" style="stroke: #EB93DF; stroke-width: 1.2;"/><path d="M379.2,92.4 L379.2,94.8 L384,94.8 L384,93.6 L384,93.0188 L384.75,92.4 L385.2,92.4 L385.65,92.4 L386.4,93.0188 L386.4,93.6 L386.4,97.2 L376.8,97.2 L376.2188,97.2 L375.6,96.45 L375.6,96 L375.6,95.55 L376.2188,94.8 L376.8,94.8 L376.8,94.8 L376.8,87.6 L376.8,87.6 L376.2188,87.6 L375.6,86.85 L375.6,86.4 L375.6,85.95 L376.2188,85.2 L376.8,85.2 L386.4,85.2 L386.4,88.8 L386.4,89.3813 L385.65,90 L385.2,90 L384.75,90 L384,89.3813 L384,88.8 L384,87.6 L379.2,87.6 L379.2,90 L380.4,90 L380.4,89.4188 L380.4,89.4188 L381.15,88.8 L381.6,88.8 L382.05,88.8 L382.8,89.4188 L382.8,90 L382.8,92.4 L382.8,92.9813 L382.05,93.6 L382.05,93.6 L381.6,93.6 L381.15,93.6 L380.4,92.9813 L380.4,92.9813 L380.4,92.4 L379.2,92.4 Z "/><ellipse cx="403.8" cy="90.6" fill="#84BE84" rx="3.6" ry="3.6" style="stroke: #038048; stroke-width: 1.2;"/><text fill="#000000" font-family="sans-serif" font-size="14.4" lengthAdjust="spacingAndGlyphs" textLength="146.4" x="411" y="97.0922">FileControlInformation</text><line style="stroke: #D4AC0D; stroke-width: 1.7999999999999998;" x1="364.2" x2="559.8" y1="110.4" y2="110.4"/><text fill="#000000" font-family="sans-serif" font-size="13.2" lengthAdjust="spacingAndGlyphs" textLength="18" x="370.2" y="128.9027">FCI</text><text fill="#000000" font-family="sans-serif" font-size="13.2" lengthAdjust="spacingAndGlyphs" textLength="22.8" x="370.2" y="145.5059">FCP</text><text fill="#000000" font-family="sans-serif" font-size="13.2" lengthAdjust="spacingAndGlyphs" textLength="25.2" x="370.2" y="162.109">FMD</text><text fill="#000000" font-family="sans-serif" font-size="13.2" lengthAdjust="spacingAndGlyphs" textLength="90" x="370.2" y="178.7121">NO_RESPONSE</text><line style="stroke: #D4AC0D; stroke-width: 1.7999999999999998;" x1="364.2" x2="559.8" y1="186.4125" y2="186.4125"/><!--MD5=[32bde9a16d1fd80730cde0df05390289]
class AtrFilter--><rect fill="#FEFECE" height="150.4406" id="AtrFilter" style="stroke: #D4AC0D; stroke-width: 1.7999999999999998;" width="206.4" x="561.6" y="529.2"/><ellipse cx="612.54" cy="553.3125" fill="#ADD1B2" rx="13.2" ry="13.2" style="stroke: #ADD1B2; stroke-width: 1.2;"/><path d="M614.94,549.1125 Q615.1838,548.5125 615.465,548.2125 Q615.7463,547.9125 616.065,547.9125 Q616.6275,547.9125 616.9838,548.25 Q617.34,548.5875 617.34,549.375 L617.34,551.25 Q617.34,552.0375 617.0025,552.375 Q616.665,552.7125 616.14,552.7125 Q615.6713,552.7125 615.3713,552.5063 Q615.0713,552.3 614.94,551.7563 Q614.8838,551.3813 614.6775,551.175 Q614.3025,550.7813 613.6275,550.5563 Q612.9525,550.3125 612.2775,550.3125 Q611.4337,550.3125 610.7212,550.65 Q610.0275,550.9875 609.4838,551.7375 Q608.94,552.4875 608.94,553.5188 L608.94,554.625 Q608.94,555.8625 609.9525,556.6875 Q610.965,557.5125 612.765,557.5125 Q613.8338,557.5125 614.5838,557.2688 Q615.015,557.1375 615.5025,556.7063 Q615.8213,556.4625 615.99,556.3875 Q616.1588,556.3125 616.365,556.3125 Q616.7588,556.3125 617.04,556.6313 Q617.34,556.9313 617.34,557.3625 Q617.34,557.775 616.9275,558.2625 Q616.3275,558.975 615.3713,559.3688 Q614.115,559.9125 612.5775,559.9125 Q610.7775,559.9125 609.3338,559.2 Q608.1713,558.6375 607.3462,557.4187 Q606.54,556.2 606.54,554.7563 L606.54,553.4438 Q606.54,551.9438 607.2525,550.6313 Q607.9838,549.3188 609.24,548.625 Q610.515,547.9125 611.94,547.9125 Q612.8025,547.9125 613.5525,548.2125 Q614.3025,548.5125 614.94,549.1125 Z "/><text fill="#000000" font-family="sans-serif" font-size="14.4" font-style="italic" lengthAdjust="spacingAndGlyphs" textLength="50.4" x="658.86" y="550.1484">«static»</text><ellipse cx="642.66" cy="561.7688" fill="#84BE84" rx="3.6" ry="3.6" style="stroke: #038048; stroke-width: 1.2;"/><text fill="#000000" font-family="sans-serif" font-size="14.4" font-weight="bold" lengthAdjust="spacingAndGlyphs" textLength="28.8" x="649.86" y="568.2609">final</text><text fill="#000000" font-family="sans-serif" font-size="14.4" lengthAdjust="spacingAndGlyphs" textLength="49.2" x="682.26" y="568.2609">AtrFilter</text><line style="stroke: #D4AC0D; stroke-width: 1.7999999999999998;" x1="562.8" x2="766.8" y1="577.425" y2="577.425"/><line style="stroke: #D4AC0D; stroke-width: 1.7999999999999998;" x1="562.8" x2="766.8" y1="587.025" y2="587.025"/><ellipse cx="574.8" cy="600.225" fill="#84BE84" rx="3.6" ry="3.6" style="stroke: #038048; stroke-width: 1.2;"/><text fill="#000000" font-family="sans-serif" font-size="13.2" lengthAdjust="spacingAndGlyphs" textLength="145.2" x="585.6" y="605.5277">AtrFilter(String atrRegex)</text><ellipse cx="574.8" cy="616.8281" fill="#84BE84" rx="3.6" ry="3.6" style="stroke: #038048; stroke-width: 1.2;"/><text fill="#000000" font-family="sans-serif" font-size="13.2" lengthAdjust="spacingAndGlyphs" textLength="172.8" x="585.6" y="622.1309">setAtrRegex(String atrRegex)</text><text fill="#000000" font-family="sans-serif" font-size="13.2" lengthAdjust="spacingAndGlyphs" textLength="0" x="589.2" y="638.734"/><ellipse cx="574.8" cy="650.0344" fill="#84BE84" rx="3.6" ry="3.6" style="stroke: #038048; stroke-width: 1.2;"/><text fill="#000000" font-family="sans-serif" font-size="13.2" lengthAdjust="spacingAndGlyphs" textLength="120" x="585.6" y="655.3371">String getAtrRegex()</text><ellipse cx="574.8" cy="666.6375" fill="#84BE84" rx="3.6" ry="3.6" style="stroke: #038048; stroke-width: 1.2;"/><text fill="#000000" font-family="sans-serif" font-size="13.2" lengthAdjust="spacingAndGlyphs" textLength="175.2" x="585.6" y="671.9402">boolean atrMatches(byte[] atr)</text><!--MD5=[0c38ce21b8fe3613f2a22c03c2bb1923]
class AidSelector--><rect fill="#FEFECE" height="183.6469" id="AidSelector" style="stroke: #D4AC0D; stroke-width: 1.7999999999999998;" width="550.8" x="78.6" y="268.8"/><ellipse cx="288.9" cy="292.9125" fill="#ADD1B2" rx="13.2" ry="13.2" style="stroke: #ADD1B2; stroke-width: 1.2;"/><path d="M291.3,288.7125 Q291.5438,288.1125 291.825,287.8125 Q292.1063,287.5125 292.425,287.5125 Q292.9875,287.5125 293.3438,287.85 Q293.7,288.1875 293.7,288.975 L293.7,290.85 Q293.7,291.6375 293.3625,291.975 Q293.025,292.3125 292.5,292.3125 Q292.0313,292.3125 291.7313,292.1063 Q291.4313,291.9 291.3,291.3563 Q291.2438,290.9813 291.0375,290.775 Q290.6625,290.3812 289.9875,290.1563 Q289.3125,289.9125 288.6375,289.9125 Q287.7938,289.9125 287.0813,290.25 Q286.3875,290.5875 285.8438,291.3375 Q285.3,292.0875 285.3,293.1188 L285.3,294.225 Q285.3,295.4625 286.3125,296.2875 Q287.325,297.1125 289.125,297.1125 Q290.1937,297.1125 290.9437,296.8688 Q291.375,296.7375 291.8625,296.3063 Q292.1813,296.0625 292.35,295.9875 Q292.5188,295.9125 292.725,295.9125 Q293.1188,295.9125 293.4,296.2313 Q293.7,296.5313 293.7,296.9625 Q293.7,297.375 293.2875,297.8625 Q292.6875,298.575 291.7313,298.9688 Q290.475,299.5125 288.9375,299.5125 Q287.1375,299.5125 285.6937,298.8 Q284.5313,298.2375 283.7063,297.0188 Q282.9,295.8 282.9,294.3563 L282.9,293.0438 Q282.9,291.5438 283.6125,290.2313 Q284.3438,288.9188 285.6,288.225 Q286.875,287.5125 288.3,287.5125 Q289.1625,287.5125 289.9125,287.8125 Q290.6625,288.1125 291.3,288.7125 Z "/><text fill="#000000" font-family="sans-serif" font-size="14.4" font-style="italic" lengthAdjust="spacingAndGlyphs" textLength="50.4" x="348.3" y="289.7484">«static»</text><ellipse cx="319.5" cy="301.3688" fill="#84BE84" rx="3.6" ry="3.6" style="stroke: #038048; stroke-width: 1.2;"/><text fill="#000000" font-family="sans-serif" font-size="14.4" font-weight="bold" lengthAdjust="spacingAndGlyphs" textLength="28.8" x="326.7" y="307.8609">final</text><text fill="#000000" font-family="sans-serif" font-size="14.4" lengthAdjust="spacingAndGlyphs" textLength="74.4" x="359.1" y="307.8609">AidSelector</text><line style="stroke: #D4AC0D; stroke-width: 1.7999999999999998;" x1="79.8" x2="628.2" y1="317.025" y2="317.025"/><ellipse cx="91.8" cy="330.225" fill="none" rx="3.6" ry="3.6" style="stroke: #038048; stroke-width: 1.2;"/><text fill="#000000" font-family="sans-serif" font-size="13.2" lengthAdjust="spacingAndGlyphs" text-decoration="underline" textLength="169.2" x="102.6" y="335.5277">final int AID_MIN_LENGTH = 5</text><ellipse cx="91.8" cy="346.8281" fill="none" rx="3.6" ry="3.6" style="stroke: #038048; stroke-width: 1.2;"/><text fill="#000000" font-family="sans-serif" font-size="13.2" lengthAdjust="spacingAndGlyphs" text-decoration="underline" textLength="183.6" x="102.6" y="352.1309">final int AID_MAX_LENGTH = 16</text><line style="stroke: #D4AC0D; stroke-width: 1.7999999999999998;" x1="79.8" x2="628.2" y1="359.8313" y2="359.8313"/><ellipse cx="91.8" cy="373.0313" fill="#84BE84" rx="3.6" ry="3.6" style="stroke: #038048; stroke-width: 1.2;"/><text fill="#000000" font-family="sans-serif" font-size="13.2" lengthAdjust="spacingAndGlyphs" textLength="454.8" x="102.6" y="378.334">AidSelector(byte[] aidToSelect, Set&lt;Integer&gt; successfulSelectionStatusCodes,</text><text fill="#000000" font-family="sans-serif" font-size="13.2" lengthAdjust="spacingAndGlyphs" textLength="519.6" x="102.6" y="394.9371">FileOccurrence fileOccurrence = FIRST, FileControlInformation fileControlInformation = FCI)</text><ellipse cx="91.8" cy="406.2375" fill="#84BE84" rx="3.6" ry="3.6" style="stroke: #038048; stroke-width: 1.2;"/><text fill="#000000" font-family="sans-serif" font-size="13.2" lengthAdjust="spacingAndGlyphs" textLength="133.2" x="102.6" y="411.5402">byte[] getAidToSelect()</text><ellipse cx="91.8" cy="422.8406" fill="#84BE84" rx="3.6" ry="3.6" style="stroke: #038048; stroke-width: 1.2;"/><text fill="#000000" font-family="sans-serif" font-size="13.2" lengthAdjust="spacingAndGlyphs" textLength="130.8" x="102.6" y="428.1434">boolean isSelectNext()</text><ellipse cx="91.8" cy="439.4437" fill="#84BE84" rx="3.6" ry="3.6" style="stroke: #038048; stroke-width: 1.2;"/><text fill="#000000" font-family="sans-serif" font-size="13.2" lengthAdjust="spacingAndGlyphs" textLength="297.6" x="102.6" y="444.7465">Set&lt;Integer&gt; getSuccessfulSelectionStatusCodes()</text><!--MD5=[233c6f1f7c69be3daec88cbd55acc2d5]
class SeSelector--><rect fill="#FEFECE" height="157.2188" id="SeSelector" style="stroke: #D4AC0D; stroke-width: 1.7999999999999998;" width="330" x="189" y="525.6"/><ellipse cx="306.3" cy="544.8" fill="#ADD1B2" rx="13.2" ry="13.2" style="stroke: #ADD1B2; stroke-width: 1.2;"/><path d="M308.7,540.6 Q308.9437,540 309.225,539.7 Q309.5062,539.4 309.825,539.4 Q310.3875,539.4 310.7438,539.7375 Q311.1,540.075 311.1,540.8625 L311.1,542.7375 Q311.1,543.525 310.7625,543.8625 Q310.425,544.2 309.9,544.2 Q309.4313,544.2 309.1312,543.9938 Q308.8313,543.7875 308.7,543.2438 Q308.6438,542.8688 308.4375,542.6625 Q308.0625,542.2688 307.3875,542.0437 Q306.7125,541.8 306.0375,541.8 Q305.1937,541.8 304.4813,542.1375 Q303.7875,542.475 303.2438,543.225 Q302.7,543.975 302.7,545.0063 L302.7,546.1125 Q302.7,547.35 303.7125,548.175 Q304.725,549 306.525,549 Q307.5938,549 308.3438,548.7563 Q308.775,548.625 309.2625,548.1938 Q309.5813,547.95 309.75,547.875 Q309.9188,547.8 310.125,547.8 Q310.5188,547.8 310.8,548.1188 Q311.1,548.4187 311.1,548.85 Q311.1,549.2625 310.6875,549.75 Q310.0875,550.4625 309.1312,550.8562 Q307.875,551.4 306.3375,551.4 Q304.5375,551.4 303.0938,550.6875 Q301.9313,550.125 301.1063,548.9063 Q300.3,547.6875 300.3,546.2438 L300.3,544.9313 Q300.3,543.4313 301.0125,542.1188 Q301.7438,540.8063 303,540.1125 Q304.275,539.4 305.7,539.4 Q306.5625,539.4 307.3125,539.7 Q308.0625,540 308.7,540.6 Z "/><ellipse cx="336.9" cy="544.2" fill="#84BE84" rx="3.6" ry="3.6" style="stroke: #038048; stroke-width: 1.2;"/><text fill="#000000" font-family="sans-serif" font-size="14.4" lengthAdjust="spacingAndGlyphs" textLength="72" x="344.1" y="550.6922">SeSelector</text><line style="stroke: #D4AC0D; stroke-width: 1.7999999999999998;" x1="190.2" x2="517.8" y1="564" y2="564"/><line style="stroke: #D4AC0D; stroke-width: 1.7999999999999998;" x1="190.2" x2="517.8" y1="573.6" y2="573.6"/><ellipse cx="202.2" cy="586.8" fill="#84BE84" rx="3.6" ry="3.6" style="stroke: #038048; stroke-width: 1.2;"/><text fill="#000000" font-family="sans-serif" font-size="13.2" lengthAdjust="spacingAndGlyphs" textLength="298.8" x="213" y="592.1027">SeSelector(SeProtocol seProtocol, AtrFilter atrFilter,</text><text fill="#000000" font-family="sans-serif" font-size="13.2" lengthAdjust="spacingAndGlyphs" textLength="236.4" x="213" y="608.7059">AidSelector aidSelector, String extraInfo)</text><ellipse cx="202.2" cy="620.0063" fill="#84BE84" rx="3.6" ry="3.6" style="stroke: #038048; stroke-width: 1.2;"/><text fill="#000000" font-family="sans-serif" font-size="13.2" lengthAdjust="spacingAndGlyphs" textLength="156" x="213" y="625.309">SeProtocol getSeProtocol()</text><ellipse cx="202.2" cy="636.6094" fill="#84BE84" rx="3.6" ry="3.6" style="stroke: #038048; stroke-width: 1.2;"/><text fill="#000000" font-family="sans-serif" font-size="13.2" lengthAdjust="spacingAndGlyphs" textLength="122.4" x="213" y="641.9121">AtrFilter getAtrFilter()</text><ellipse cx="202.2" cy="653.2125" fill="#84BE84" rx="3.6" ry="3.6" style="stroke: #038048; stroke-width: 1.2;"/><text fill="#000000" font-family="sans-serif" font-size="13.2" lengthAdjust="spacingAndGlyphs" textLength="165.6" x="213" y="658.5152">AidSelector getAidSelector()</text><ellipse cx="202.2" cy="669.8156" fill="#84BE84" rx="3.6" ry="3.6" style="stroke: #038048; stroke-width: 1.2;"/><text fill="#000000" font-family="sans-serif" font-size="13.2" font-weight="bold" lengthAdjust="spacingAndGlyphs" textLength="27.6" x="213" y="675.1184">final</text><text fill="#000000" font-family="sans-serif" font-size="13.2" lengthAdjust="spacingAndGlyphs" textLength="116.4" x="244.2" y="675.1184">String getExtraInfo()</text><!--MD5=[102d0f3d638ad6309248ed4bfa481bde]
class SeCommonProtocols--><rect fill="#FEFECE" height="404.0625" id="SeCommonProtocols" style="stroke: #D4AC0D; stroke-width: 1.7999999999999998;" width="474" x="297" y="967.2"/><ellipse cx="457.5" cy="986.4" fill="#EB937F" rx="13.2" ry="13.2" style="stroke: #EB93DF; stroke-width: 1.2;"/><path d="M455.7,987.6 L455.7,990 L460.5,990 L460.5,988.8 L460.5,988.2188 L461.25,987.6 L461.7,987.6 L462.15,987.6 L462.9,988.2188 L462.9,988.8 L462.9,992.4 L453.3,992.4 L452.7188,992.4 L452.1,991.65 L452.1,991.2 L452.1,990.75 L452.7188,990 L453.3,990 L453.3,990 L453.3,982.8 L453.3,982.8 L452.7188,982.8 L452.1,982.05 L452.1,981.6 L452.1,981.15 L452.7188,980.4 L453.3,980.4 L462.9,980.4 L462.9,984 L462.9,984.5813 L462.15,985.2 L461.7,985.2 L461.25,985.2 L460.5,984.5813 L460.5,984 L460.5,982.8 L455.7,982.8 L455.7,985.2 L456.9,985.2 L456.9,984.6188 L456.9,984.6188 L457.65,984 L458.1,984 L458.55,984 L459.3,984.6188 L459.3,985.2 L459.3,987.6 L459.3,988.1813 L458.55,988.8 L458.55,988.8 L458.1,988.8 L457.65,988.8 L456.9,988.1813 L456.9,988.1813 L456.9,987.6 L455.7,987.6 Z "/><text fill="#000000" font-family="sans-serif" font-size="14.4" lengthAdjust="spacingAndGlyphs" textLength="142.8" x="482.1" y="992.2922">SeCommonProtocols</text><line style="stroke: #D4AC0D; stroke-width: 1.7999999999999998;" x1="298.2" x2="769.8" y1="1005.6" y2="1005.6"/><text fill="#000000" font-family="sans-serif" font-size="13.2" lengthAdjust="spacingAndGlyphs" textLength="333.6" x="304.2" y="1045.5059">PROTOCOL_ISO14443_4("ISO 14443-4", CONTACTLESS)</text><text fill="#000000" font-family="sans-serif" font-size="13.2" lengthAdjust="spacingAndGlyphs" textLength="352.8" x="304.2" y="1062.109">PROTOCOL_ISO15693("ISO 15693 Type V", CONTACTLESS)</text><line style="stroke: #D4AC0D; stroke-width: 1.2; stroke-dasharray: 1.0,2.0;" x1="298.2" x2="414.6" y1="1023.5016" y2="1023.5016"/><text fill="#000000" font-family="sans-serif" font-size="13.2" lengthAdjust="spacingAndGlyphs" textLength="238.8" x="414.6" y="1028.3027">contactless ISO standard / NFC compliant</text><line style="stroke: #D4AC0D; stroke-width: 1.2; stroke-dasharray: 1.0,2.0;" x1="653.4" x2="769.8" y1="1023.5016" y2="1023.5016"/><text fill="#000000" font-family="sans-serif" font-size="13.2" lengthAdjust="spacingAndGlyphs" textLength="388.8" x="304.2" y="1100.1152">PROTOCOL_ISO14443_3A("ISO 14443-3 Type A", CONTACTLESS)</text><text fill="#000000" font-family="sans-serif" font-size="13.2" lengthAdjust="spacingAndGlyphs" textLength="386.4" x="304.2" y="1116.7184">PROTOCOL_ISO14443_3B("ISO 14443-3 Type B", CONTACTLESS)</text><text fill="#000000" font-family="sans-serif" font-size="13.2" lengthAdjust="spacingAndGlyphs" textLength="356.4" x="304.2" y="1133.3215">PROTOCOL_JIS_6319_4("JIS 6319-4 Felica", CONTACTLESS)</text><text fill="#000000" font-family="sans-serif" font-size="13.2" lengthAdjust="spacingAndGlyphs" textLength="310.8" x="304.2" y="1149.9246">PROTOCOL_NDEF("NFC NDEF TAG", CONTACTLESS)</text><text fill="#000000" font-family="sans-serif" font-size="13.2" lengthAdjust="spacingAndGlyphs" textLength="459.6" x="304.2" y="1166.5277">PROTOCOL_NDEF_FORMATABLE("NFC NDEF FORMATABLE", CONTACTLESS)</text><text fill="#000000" font-family="sans-serif" font-size="13.2" lengthAdjust="spacingAndGlyphs" textLength="364.8" x="304.2" y="1183.1309">PROTOCOL_NFC_BARCODE("NFC BARCODE, CONTACTLESS)</text><text fill="#000000" font-family="sans-serif" font-size="13.2" lengthAdjust="spacingAndGlyphs" textLength="355.2" x="304.2" y="1199.734">PROTOCOL_MIFARE_UL("Mifare Ultra Light", CONTACTLESS)</text><text fill="#000000" font-family="sans-serif" font-size="13.2" lengthAdjust="spacingAndGlyphs" textLength="376.8" x="304.2" y="1216.3371">PROTOCOL_MIFARE_CLASSIC("Mifare Classic", CONTACTLESS)</text><text fill="#000000" font-family="sans-serif" font-size="13.2" lengthAdjust="spacingAndGlyphs" textLength="376.8" x="304.2" y="1232.9402">PROTOCOL_MIFARE_DESFIRE("Mifare DESFire", CONTACTLESS)</text><line style="stroke: #D4AC0D; stroke-width: 1.2; stroke-dasharray: 1.0,2.0;" x1="298.2" x2="424.2" y1="1078.1109" y2="1078.1109"/><text fill="#000000" font-family="sans-serif" font-size="13.2" lengthAdjust="spacingAndGlyphs" textLength="219.6" x="424.2" y="1082.9121">contactless proprietary NFC compliant</text><line style="stroke: #D4AC0D; stroke-width: 1.2; stroke-dasharray: 1.0,2.0;" x1="643.8" x2="769.8" y1="1078.1109" y2="1078.1109"/><text fill="#000000" font-family="sans-serif" font-size="13.2" lengthAdjust="spacingAndGlyphs" textLength="387.6" x="304.2" y="1270.9465">PROTOCOL_B_PRIME("Old Calypso card B prime", CONTACTLESS)</text><text fill="#000000" font-family="sans-serif" font-size="13.2" lengthAdjust="spacingAndGlyphs" textLength="361.2" x="304.2" y="1287.5496">PROTOCOL_MEMORY_ST25("Memory ST25", CONTACTLESS)</text><line style="stroke: #D4AC0D; stroke-width: 1.2; stroke-dasharray: 1.0,2.0;" x1="298.2" x2="413.4" y1="1248.9422" y2="1248.9422"/><text fill="#000000" font-family="sans-serif" font-size="13.2" lengthAdjust="spacingAndGlyphs" textLength="241.2" x="413.4" y="1253.7434">contactless proprietary not NFC compliant</text><line style="stroke: #D4AC0D; stroke-width: 1.2; stroke-dasharray: 1.0,2.0;" x1="654.6" x2="769.8" y1="1248.9422" y2="1248.9422"/><text fill="#000000" font-family="sans-serif" font-size="13.2" lengthAdjust="spacingAndGlyphs" textLength="296.4" x="304.2" y="1325.5559">PROTOCOL_ISO7816_3("ISO 7816-3", CONTACTS)</text><line style="stroke: #D4AC0D; stroke-width: 1.2; stroke-dasharray: 1.0,2.0;" x1="298.2" x2="469.2" y1="1303.5516" y2="1303.5516"/><text fill="#000000" font-family="sans-serif" font-size="13.2" lengthAdjust="spacingAndGlyphs" textLength="129.6" x="469.2" y="1308.3527">contacts ISO standard</text><line style="stroke: #D4AC0D; stroke-width: 1.2; stroke-dasharray: 1.0,2.0;" x1="598.8" x2="769.8" y1="1303.5516" y2="1303.5516"/><text fill="#000000" font-family="sans-serif" font-size="13.2" lengthAdjust="spacingAndGlyphs" textLength="320.4" x="304.2" y="1363.5621">PROTOCOL_HSP("Old Calypso SAM HSP", CONTACTS)</text><line style="stroke: #D4AC0D; stroke-width: 1.2; stroke-dasharray: 1.0,2.0;" x1="298.2" x2="475.2" y1="1341.5578" y2="1341.5578"/><text fill="#000000" font-family="sans-serif" font-size="13.2" lengthAdjust="spacingAndGlyphs" textLength="117.6" x="475.2" y="1346.359">contacts proprietary</text><line style="stroke: #D4AC0D; stroke-width: 1.2; stroke-dasharray: 1.0,2.0;" x1="592.8" x2="769.8" y1="1341.5578" y2="1341.5578"/><!--MD5=[029eeeb5f037d1cad7d1ad059afd3aa0]
class SeProtocol--><rect fill="#FEFECE" height="90.8062" id="SeProtocol" style="stroke: #D4AC0D; stroke-width: 1.7999999999999998;" width="278.4" x="214.8" y="782.4"/><ellipse cx="306.3" cy="801.6" fill="#B4A7E5" rx="13.2" ry="13.2" style="stroke: #B4A7E5; stroke-width: 1.2;"/><path d="M307.5,798 L307.5,805.2 L309.9,805.2 L310.4813,805.2 L311.1,805.95 L311.1,806.4 L311.1,806.85 L310.4813,807.6 L309.9,807.6 L302.7,807.6 L302.1188,807.6 L301.5,806.85 L301.5,806.4 L301.5,805.95 L302.1188,805.2 L302.7,805.2 L305.1,805.2 L305.1,798 L302.7,798 L302.1188,798 L301.5,797.25 L301.5,796.8 L301.5,796.35 L302.1188,795.6 L302.7,795.6 L309.9,795.6 L310.4813,795.6 L311.1,796.35 L311.1,796.8 L311.1,797.25 L310.4813,798 L309.9,798 L307.5,798 Z "/><ellipse cx="336.9" cy="801" fill="#84BE84" rx="3.6" ry="3.6" style="stroke: #038048; stroke-width: 1.2;"/><text fill="#000000" font-family="sans-serif" font-size="14.4" font-style="italic" lengthAdjust="spacingAndGlyphs" textLength="72" x="344.1" y="807.4922">SeProtocol</text><line style="stroke: #D4AC0D; stroke-width: 1.7999999999999998;" x1="216" x2="492" y1="820.8" y2="820.8"/><line style="stroke: #D4AC0D; stroke-width: 1.7999999999999998;" x1="216" x2="492" y1="830.4" y2="830.4"/><ellipse cx="228" cy="843.6" fill="#84BE84" rx="3.6" ry="3.6" style="stroke: #038048; stroke-width: 1.2;"/><text fill="#000000" font-family="sans-serif" font-size="13.2" lengthAdjust="spacingAndGlyphs" textLength="97.2" x="238.8" y="848.9027">String getName()</text><ellipse cx="228" cy="860.2031" fill="#84BE84" rx="3.6" ry="3.6" style="stroke: #038048; stroke-width: 1.2;"/><text fill="#000000" font-family="sans-serif" font-size="13.2" lengthAdjust="spacingAndGlyphs" textLength="247.2" x="238.8" y="865.5059">TransmissionMode getTransmissionMode()</text><!--MD5=[389c8dd8ff10073965d91444c463f0b3]
class TransmissionMode--><rect fill="#FEFECE" height="90.8062" id="TransmissionMode" style="stroke: #D4AC0D; stroke-width: 1.7999999999999998;" width="180" x="74.4" y="1123.8"/><ellipse cx="92.4" cy="1143" fill="#EB937F" rx="13.2" ry="13.2" style="stroke: #EB93DF; stroke-width: 1.2;"/><path d="M90.6,1144.2 L90.6,1146.6 L95.4,1146.6 L95.4,1145.4 L95.4,1144.8188 L96.15,1144.2 L96.6,1144.2 L97.05,1144.2 L97.8,1144.8188 L97.8,1145.4 L97.8,1149 L88.2,1149 L87.6187,1149 L87,1148.25 L87,1147.8 L87,1147.35 L87.6187,1146.6 L88.2,1146.6 L88.2,1146.6 L88.2,1139.4 L88.2,1139.4 L87.6187,1139.4 L87,1138.65 L87,1138.2 L87,1137.75 L87.6187,1137 L88.2,1137 L97.8,1137 L97.8,1140.6 L97.8,1141.1812 L97.05,1141.8 L96.6,1141.8 L96.15,1141.8 L95.4,1141.1812 L95.4,1140.6 L95.4,1139.4 L90.6,1139.4 L90.6,1141.8 L91.8,1141.8 L91.8,1141.2188 L91.8,1141.2188 L92.55,1140.6 L93,1140.6 L93.45,1140.6 L94.2,1141.2188 L94.2,1141.8 L94.2,1144.2 L94.2,1144.7813 L93.45,1145.4 L93.45,1145.4 L93,1145.4 L92.55,1145.4 L91.8,1144.7813 L91.8,1144.7813 L91.8,1144.2 L90.6,1144.2 Z "/><ellipse cx="115.2" cy="1142.4" fill="#84BE84" rx="3.6" ry="3.6" style="stroke: #038048; stroke-width: 1.2;"/><text fill="#000000" font-family="sans-serif" font-size="14.4" lengthAdjust="spacingAndGlyphs" textLength="128.4" x="122.4" y="1148.8922">TransmissionMode</text><line style="stroke: #D4AC0D; stroke-width: 1.7999999999999998;" x1="75.6" x2="253.2" y1="1162.2" y2="1162.2"/><text fill="#000000" font-family="sans-serif" font-size="13.2" lengthAdjust="spacingAndGlyphs" textLength="67.2" x="81.6" y="1180.7027">CONTACTS</text><text fill="#000000" font-family="sans-serif" font-size="13.2" lengthAdjust="spacingAndGlyphs" textLength="90" x="81.6" y="1197.3059">CONTACTLESS</text><line style="stroke: #D4AC0D; stroke-width: 1.7999999999999998;" x1="75.6" x2="253.2" y1="1205.0063" y2="1205.0063"/><!--MD5=[71d3e5b5a3908be09db32650c419a9a0]
link FileOccurrence to AidSelector--><path d="M260.5824,195.72 C267.9984,213.264 277.0728,232.956 286.6608,252.432 " fill="none" id="FileOccurrence-&gt;AidSelector" style="stroke: #A80036; stroke-width: 1.2;"/><ellipse cx="290.5083" cy="260.1073" fill="#FFFFFF" rx="9.6" ry="9.6" style="stroke: #A80036; stroke-width: 1.2;"/><line style="stroke: #A80036; stroke-width: 1.2;" x1="286.2067" x2="294.81" y1="251.525" y2="268.6896"/><line style="stroke: #A80036; stroke-width: 1.2;" x1="299.0906" x2="281.926" y1="255.8056" y2="264.409"/><!--MD5=[71d3e5b5a3908be09db32650c419a9a0]
link FileOccurrence to AidSelector--><path d="M288.9288,195.72 C298.9452,213.792 309.3768,234.144 318.9708,254.184 " fill="none" id="FileOccurrence-&gt;AidSelector-1" style="stroke: #A80036; stroke-width: 1.2;"/><polygon fill="#A80036" points="325.7904,268.6896,327.071,260.1316,319.6638,255.6579,318.3832,264.216,325.7904,268.6896" style="stroke: #A80036; stroke-width: 1.2;"/><text fill="#000000" font-family="sans-serif" font-size="15.6" lengthAdjust="spacingAndGlyphs" textLength="8.4" x="286.1438" y="221.9723">1</text><text fill="#000000" font-family="sans-serif" font-size="15.6" lengthAdjust="spacingAndGlyphs" textLength="8.4" x="314.2001" y="255.7098">1</text><!--MD5=[cbb2875f3a0c8787423f0c72d98b8ce6]
link FileControlInformation to AidSelector--><path d="M419.0052,195.72 C409.536,213.096 399.66,232.56 390.4752,251.8476 " fill="none" id="FileControlInformation-&gt;AidSelector" style="stroke: #A80036; stroke-width: 1.2;"/><ellipse cx="386.6713" cy="259.9913" fill="#FFFFFF" rx="9.6" ry="9.6" style="stroke: #A80036; stroke-width: 1.2;"/><line style="stroke: #A80036; stroke-width: 1.2;" x1="390.7333" x2="382.6092" y1="251.2931" y2="268.6896"/><line style="stroke: #A80036; stroke-width: 1.2;" x1="395.3695" x2="377.973" y1="264.0534" y2="255.9293"/><!--MD5=[cbb2875f3a0c8787423f0c72d98b8ce6]
link FileControlInformation to AidSelector--><path d="M447.3516,195.72 C439.878,213.792 430.6188,234.144 420.8112,254.184 " fill="none" id="FileControlInformation-&gt;AidSelector-1" style="stroke: #A80036; stroke-width: 1.2;"/><polygon fill="#A80036" points="413.5896,268.6896,421.095,264.3827,420.006,255.7982,412.5007,260.1051,413.5896,268.6896" style="stroke: #A80036; stroke-width: 1.2;"/><text fill="#000000" font-family="sans-serif" font-size="15.6" lengthAdjust="spacingAndGlyphs" textLength="8.4" x="436.301" y="221.9723">1</text><text fill="#000000" font-family="sans-serif" font-size="15.6" lengthAdjust="spacingAndGlyphs" textLength="8.4" x="410.642" y="255.7098">1</text><!--MD5=[7520d0856e2ce14d109088419cdfb33d]
link AidSelector to SeSelector--><path d="M339.1212,452.6436 C338.6088,470.3844 338.5644,489.042 338.9856,506.946 " fill="none" id="AidSelector-&gt;SeSelector" style="stroke: #A80036; stroke-width: 1.2;"/><ellipse cx="339.2737" cy="515.6657" fill="#FFFFFF" rx="9.6" ry="9.6" style="stroke: #A80036; stroke-width: 1.2;"/><line style="stroke: #A80036; stroke-width: 1.2;" x1="338.9547" x2="339.5928" y1="506.071" y2="525.2604"/><line style="stroke: #A80036; stroke-width: 1.2;" x1="348.8684" x2="329.679" y1="515.3466" y2="515.9848"/><!--MD5=[7520d0856e2ce14d109088419cdfb33d]
link AidSelector to SeSelector--><path d="M369.7536,452.6436 C370.3188,471.132 370.3476,490.6152 369.8388,509.2032 " fill="none" id="AidSelector-&gt;SeSelector-1" style="stroke: #A80036; stroke-width: 1.2;"/><polygon fill="#FFFFFF" points="369.2544,525.2604,374.3139,518.2403,369.7798,510.87,364.7203,517.8901,369.2544,525.2604" style="stroke: #A80036; stroke-width: 1.2;"/><text fill="#000000" font-family="sans-serif" font-size="15.6" lengthAdjust="spacingAndGlyphs" textLength="26.4" x="343.589" y="478.2253">0..1</text><text fill="#000000" font-family="sans-serif" font-size="15.6" lengthAdjust="spacingAndGlyphs" textLength="8.4" x="362.0635" y="512.5926">1</text><!--MD5=[3322093920cb7308333995e7629def3a]
reverse link SeSelector to AtrFilter--><path d="M537.2076,661.2624 C545.214,660.1752 553.2192,658.6188 561.2256,656.5932 " fill="none" id="SeSelector&lt;-AtrFilter" style="stroke: #A80036; stroke-width: 1.2;"/><ellipse cx="528.6728" cy="662.0437" fill="#FFFFFF" rx="9.6" ry="9.6" style="stroke: #A80036; stroke-width: 1.2;"/><line style="stroke: #A80036; stroke-width: 1.2;" x1="538.2327" x2="519.1128" y1="661.1678" y2="662.9196"/><line style="stroke: #A80036; stroke-width: 1.2;" x1="529.5487" x2="527.7969" y1="671.6037" y2="652.4837"/><!--MD5=[3322093920cb7308333995e7629def3a]
reverse link SeSelector to AtrFilter--><path d="M534.9048,546.8376 C543.678,547.9308 552.4512,549.5868 561.2256,551.8068 " fill="none" id="SeSelector&lt;-AtrFilter-1" style="stroke: #A80036; stroke-width: 1.2;"/><polygon fill="#FFFFFF" points="519.1128,545.4804,525.8749,550.8798,533.4598,546.7146,526.6977,541.3152,519.1128,545.4804" style="stroke: #A80036; stroke-width: 1.2;"/><text fill="#000000" font-family="sans-serif" font-size="15.6" lengthAdjust="spacingAndGlyphs" textLength="8.4" x="528.3721" y="538.7493">1</text><text fill="#000000" font-family="sans-serif" font-size="15.6" lengthAdjust="spacingAndGlyphs" textLength="26.4" x="528.695" y="542.7131">0..1</text><!--MD5=[bd28fb3706d2642fabfc924682f1d3a6]
reverse link SeProtocol to TransmissionMode--><path d="M320.7564,887.7852 C306.8796,912.3012 290.6172,941.1084 276,967.2 C245.958,1020.8256 211.6752,1082.67 189.1248,1123.44 " fill="none" id="SeProtocol&lt;-TransmissionMode" style="stroke: #A80036; stroke-width: 1.2;"/><polygon fill="#A80036" points="328.6212,873.8988,320.8963,877.7983,321.5247,886.4288,329.2496,882.5293,328.6212,873.8988" style="stroke: #A80036; stroke-width: 1.2;"/><text fill="#000000" font-family="sans-serif" font-size="15.6" lengthAdjust="spacingAndGlyphs" textLength="8.4" x="315.5071" y="899.0031">1</text><text fill="#000000" font-family="sans-serif" font-size="15.6" lengthAdjust="spacingAndGlyphs" textLength="8.4" x="184.3808" y="1110.6102">1</text><!--MD5=[009dd821b618541acedfd889e51c7fb4]
reverse link SeProtocol to SeCommonProtocols--><path d="M389.142,895.3836 C400.398,916.5828 413.5044,941.2668 427.146,966.9588 " fill="none" id="SeProtocol&lt;-SeCommonProtocols" style="stroke: #A80036; stroke-width: 1.2; stroke-dasharray: 7.0,7.0;"/><polygon fill="none" points="381.5532,899.004,377.7168,873.8664,396.3912,891.1248,381.5532,899.004" style="stroke: #A80036; stroke-width: 1.2;"/><text fill="#000000" font-family="sans-serif" font-size="15.6" lengthAdjust="spacingAndGlyphs" textLength="80.4" x="408" y="926.9941">implements</text><!--MD5=[85c6f18c96ceb47132f2d645c1ed1753]
link TransmissionMode to SeCommonProtocols--><!--MD5=[848abd0da787c3898c4771a3838e6941]
reverse link SeSelector to SeProtocol--><path d="M354,698.7132 C354,727.6908 354,758.2992 354,782.3256 " fill="none" id="SeSelector&lt;-SeProtocol" style="stroke: #A80036; stroke-width: 1.2;"/><polygon fill="#FFFFFF" points="354,682.8348,349.2,690.0348,354,697.2348,358.8,690.0348,354,682.8348" style="stroke: #A80036; stroke-width: 1.2;"/><text fill="#000000" font-family="sans-serif" font-size="15.6" lengthAdjust="spacingAndGlyphs" textLength="8.4" x="345.1406" y="708.7017">1</text><text fill="#000000" font-family="sans-serif" font-size="15.6" lengthAdjust="spacingAndGlyphs" textLength="26.4" x="325.1663" y="769.2037">0..1</text><!--MD5=[8458c8c6f07ec9ea45e9c572c4ed27ac]
@startuml
skinparam ClassBorderColor #D4AC0D
skinparam stereotypeABorderColor #A9DCDF
skinparam stereotypeIBorderColor #B4A7E5
skinparam stereotypeCBorderColor #ADD1B2
skinparam stereotypeEBorderColor #EB93DF
skinparam shadowing false

skinparam StateBorderColor #D4AC0D
skinparam ActivityBorderColor #D4AC0D

skinparam ClassBackgroundColor<<red>> #FDEDEC
skinparam ClassBorderColor<<red>> #E74C3C
hide <<red>> stereotype
skinparam ClassBackgroundColor<<purple>> #F4ECF7
skinparam ClassBorderColor<<purple>> #8E44AD
hide <<purple>> stereotype
skinparam ClassBackgroundColor<<blue>> #EBF5FB
skinparam ClassBorderColor<<blue>> #3498DB
hide <<blue>> stereotype
skinparam ClassBackgroundColor<<green>> #EAFAF1
skinparam ClassBorderColor<<green>> #2ECC71
hide <<green>> stereotype

skinparam ClassBackgroundColor<<orange>> #FDF2E9
skinparam ClassBorderColor<<orange>> #E67E22
hide <<orange>> stereotype

skinparam ClassBackgroundColor<<grey>> #EAECEE
skinparam ClassBorderColor<<grey>> #2C3E50
hide <<grey>> stereotype

package org.eclipse.keyple.core.seproxy #FFFFFF {
+enum FileOccurrence {
  FIRST
  LAST
  NEXT
  PREVIOUS
}

+enum FileControlInformation {
  FCI
  FCP
  FMD
  NO_RESPONSE
}

+class "<b>final</b> AtrFilter" as AtrFilter <<static>> {
  +AtrFilter(String atrRegex)
  +setAtrRegex(String atrRegex)

  +String getAtrRegex()
  +boolean atrMatches(byte[] atr)
}
+class "<b>final</b> AidSelector" as AidSelector <<static>> {
  +{static} final int AID_MIN_LENGTH = 5
  +{static} final int AID_MAX_LENGTH = 16

  +AidSelector(byte[] aidToSelect, Set<Integer> successfulSelectionStatusCodes,
    FileOccurrence fileOccurrence = FIRST, FileControlInformation fileControlInformation = FCI)
  +byte[] getAidToSelect()
  +boolean isSelectNext()
  +Set<Integer> getSuccessfulSelectionStatusCodes()
}
  AidSelector +-up- FileOccurrence

  AidSelector +-up- FileControlInformation
  AidSelector "1" *-up- "1" FileOccurrence
  AidSelector "1" *-up- "1" FileControlInformation

+class SeSelector {
  +SeSelector(SeProtocol seProtocol, AtrFilter atrFilter,
    AidSelector aidSelector, String extraInfo)
  +SeProtocol getSeProtocol()
  +AtrFilter getAtrFilter()
  +AidSelector getAidSelector()
  +<b>final</b> String getExtraInfo()
}
  SeSelector +-up- AidSelector
  SeSelector "1" o-up- "0..1" AidSelector
  SeSelector +-right- AtrFilter
  SeSelector "1" o-right- "0..1" AtrFilter

  package protocol #FFFFFF {
enum SeCommonProtocols {
  .. contactless ISO standard / NFC compliant ..
  PROTOCOL_ISO14443_4("ISO 14443-4", CONTACTLESS)
  PROTOCOL_ISO15693("ISO 15693 Type V", CONTACTLESS)
  .. contactless proprietary NFC compliant ..
  PROTOCOL_ISO14443_3A("ISO 14443-3 Type A", CONTACTLESS)
  PROTOCOL_ISO14443_3B("ISO 14443-3 Type B", CONTACTLESS)
  PROTOCOL_JIS_6319_4("JIS 6319-4 Felica", CONTACTLESS)
  PROTOCOL_NDEF("NFC NDEF TAG", CONTACTLESS)
  PROTOCOL_NDEF_FORMATABLE("NFC NDEF FORMATABLE", CONTACTLESS)
  PROTOCOL_NFC_BARCODE("NFC BARCODE, CONTACTLESS)
  PROTOCOL_MIFARE_UL("Mifare Ultra Light", CONTACTLESS)
  PROTOCOL_MIFARE_CLASSIC("Mifare Classic", CONTACTLESS)
  PROTOCOL_MIFARE_DESFIRE("Mifare DESFire", CONTACTLESS)
  .. contactless proprietary not NFC compliant ..
  PROTOCOL_B_PRIME("Old Calypso card B prime", CONTACTLESS)
  PROTOCOL_MEMORY_ST25("Memory ST25", CONTACTLESS)
  .. contacts ISO standard ..
  PROTOCOL_ISO7816_3("ISO 7816-3", CONTACTS)
  .. contacts proprietary  ..
  PROTOCOL_HSP("Old Calypso SAM HSP", CONTACTS)
}

+interface SeProtocol {
  +String getName()
  +TransmissionMode getTransmissionMode()
}
+enum TransmissionMode {
  CONTACTS
  CONTACTLESS
}

    SeProtocol "1" *-down- "1" TransmissionMode
    SeCommonProtocols .up.|> SeProtocol : implements
    TransmissionMode -right[hidden]- SeCommonProtocols
  }

  SeSelector "1" o-down- "0..1" SeProtocol
}
@enduml

PlantUML version 1.2020.09(Sun May 10 14:51:06 MUT 2020)
(GPL source distribution)
Java Runtime: OpenJDK Runtime Environment
JVM: OpenJDK 64-Bit Server VM
Java Version: 11.0.7+10-b765.64
Operating System: Windows 10
Default Encoding: Cp1252
Language: fr
Country: FR
--></g></svg>