<?xml version="1.0" encoding="UTF-8" standalone="no"?><svg xmlns="http://www.w3.org/2000/svg" xmlns:xlink="http://www.w3.org/1999/xlink" contentScriptType="application/ecmascript" contentStyleType="text/css" height="926px" preserveAspectRatio="none" style="width:707px;height:926px;" version="1.1" viewBox="0 0 707 926" width="707px" zoomAndPan="magnify"><defs/><g><!--MD5=[3f544705c2d16c925a2869dc8b1fd45c]
cluster org.eclipse.keyple.core.seproxy.event--><polygon fill="#FFFFFF" points="22,24,298,24,305,47.6094,685,47.6094,685,914,22,914,22,24" style="stroke: #000000; stroke-width: 1.5;"/><line style="stroke: #000000; stroke-width: 1.5;" x1="22" x2="305" y1="47.6094" y2="47.6094"/><text fill="#000000" font-family="sans-serif" font-size="14" font-weight="bold" lengthAdjust="spacingAndGlyphs" textLength="270" x="26" y="40.5332">org.eclipse.keyple.core.seproxy.event</text><!--MD5=[071fb05b602bfdbfba7de3999663c7de]
class EventType_Reader--><rect fill="#FEFECE" height="131.0156" id="EventType_Reader" style="stroke: #D4AC0D; stroke-width: 1.5;" width="142" x="359" y="60"/><ellipse cx="393.35" cy="76" fill="#EB937F" rx="11" ry="11" style="stroke: #EB93DF; stroke-width: 1.0;"/><path d="M391.85,77 L391.85,79 L395.85,79 L395.85,78 L395.85,77.5156 L396.475,77 L396.85,77 L397.225,77 L397.85,77.5156 L397.85,78 L397.85,81 L389.85,81 L389.3656,81 L388.85,80.375 L388.85,80 L388.85,79.625 L389.3656,79 L389.85,79 L389.85,79 L389.85,73 L389.85,73 L389.3656,73 L388.85,72.375 L388.85,72 L388.85,71.625 L389.3656,71 L389.85,71 L397.85,71 L397.85,74 L397.85,74.4844 L397.225,75 L396.85,75 L396.475,75 L395.85,74.4844 L395.85,74 L395.85,73 L391.85,73 L391.85,75 L392.85,75 L392.85,74.5156 L392.85,74.5156 L393.475,74 L393.85,74 L394.225,74 L394.85,74.5156 L394.85,75 L394.85,77 L394.85,77.4844 L394.225,78 L394.225,78 L393.85,78 L393.475,78 L392.85,77.4844 L392.85,77.4844 L392.85,77 L391.85,77 Z "/><ellipse cx="416.65" cy="75.5" fill="#84BE84" rx="3" ry="3" style="stroke: #038048; stroke-width: 1.0;"/><text fill="#000000" font-family="sans-serif" font-size="12" lengthAdjust="spacingAndGlyphs" textLength="56" x="422.65" y="80.9102">EventType</text><line style="stroke: #D4AC0D; stroke-width: 1.5;" x1="360" x2="500" y1="92" y2="92"/><text fill="#000000" font-family="sans-serif" font-size="11" lengthAdjust="spacingAndGlyphs" textLength="51" x="365" y="107.4189">IO_ERROR</text><text fill="#000000" font-family="sans-serif" font-size="11" lengthAdjust="spacingAndGlyphs" textLength="67" x="365" y="121.2549">SE_INSERTED</text><text fill="#000000" font-family="sans-serif" font-size="11" lengthAdjust="spacingAndGlyphs" textLength="68" x="365" y="135.0908">SE_MATCHED</text><text fill="#000000" font-family="sans-serif" font-size="11" lengthAdjust="spacingAndGlyphs" textLength="70" x="365" y="148.9268">SE_REMOVAL</text><line style="stroke: #D4AC0D; stroke-width: 1.5;" x1="360" x2="500" y1="155.3438" y2="155.3438"/><ellipse cx="370" cy="166.3438" fill="#84BE84" rx="3" ry="3" style="stroke: #038048; stroke-width: 1.0;"/><text fill="#000000" font-family="sans-serif" font-size="11" lengthAdjust="spacingAndGlyphs" textLength="116" x="379" y="170.7627">EventType(String name)</text><ellipse cx="370" cy="180.1797" fill="#84BE84" rx="3" ry="3" style="stroke: #038048; stroke-width: 1.0;"/><text fill="#000000" font-family="sans-serif" font-size="11" lengthAdjust="spacingAndGlyphs" textLength="81" x="379" y="184.5986">String getName()</text><!--MD5=[9a5f54023274c57ee24edb1ade6872b1]
class ReaderEvent--><rect fill="#FEFECE" height="144.8516" id="ReaderEvent" style="stroke: #D4AC0D; stroke-width: 1.5;" width="379" x="240.5" y="269"/><ellipse cx="371.25" cy="285" fill="#ADD1B2" rx="11" ry="11" style="stroke: #ADD1B2; stroke-width: 1.0;"/><path d="M373.25,281.5 Q373.4531,281 373.6875,280.75 Q373.9219,280.5 374.1875,280.5 Q374.6563,280.5 374.9531,280.7813 Q375.25,281.0625 375.25,281.7188 L375.25,283.2813 Q375.25,283.9375 374.9688,284.2188 Q374.6875,284.5 374.25,284.5 Q373.8594,284.5 373.6094,284.3281 Q373.3594,284.1563 373.25,283.7031 Q373.2031,283.3906 373.0313,283.2188 Q372.7188,282.8906 372.1563,282.7031 Q371.5938,282.5 371.0313,282.5 Q370.3281,282.5 369.7344,282.7813 Q369.1563,283.0625 368.7031,283.6875 Q368.25,284.3125 368.25,285.1719 L368.25,286.0938 Q368.25,287.125 369.0938,287.8125 Q369.9375,288.5 371.4375,288.5 Q372.3281,288.5 372.9531,288.2969 Q373.3125,288.1875 373.7188,287.8281 Q373.9844,287.625 374.125,287.5625 Q374.2656,287.5 374.4375,287.5 Q374.7656,287.5 375,287.7656 Q375.25,288.0156 375.25,288.375 Q375.25,288.7188 374.9063,289.125 Q374.4063,289.7188 373.6094,290.0469 Q372.5625,290.5 371.2813,290.5 Q369.7813,290.5 368.5781,289.9063 Q367.6094,289.4375 366.9219,288.4219 Q366.25,287.4063 366.25,286.2031 L366.25,285.1094 Q366.25,283.8594 366.8438,282.7656 Q367.4531,281.6719 368.5,281.0938 Q369.5625,280.5 370.75,280.5 Q371.4688,280.5 372.0938,280.75 Q372.7188,281 373.25,281.5 Z "/><ellipse cx="396.75" cy="284.5" fill="#84BE84" rx="3" ry="3" style="stroke: #038048; stroke-width: 1.0;"/><text fill="#000000" font-family="sans-serif" font-size="12" font-weight="bold" lengthAdjust="spacingAndGlyphs" textLength="24" x="402.75" y="289.9102">final</text><text fill="#000000" font-family="sans-serif" font-size="12" lengthAdjust="spacingAndGlyphs" textLength="71" x="429.75" y="289.9102">ReaderEvent</text><line style="stroke: #D4AC0D; stroke-width: 1.5;" x1="241.5" x2="618.5" y1="301" y2="301"/><line style="stroke: #D4AC0D; stroke-width: 1.5;" x1="241.5" x2="618.5" y1="309" y2="309"/><ellipse cx="251.5" cy="320" fill="#84BE84" rx="3" ry="3" style="stroke: #038048; stroke-width: 1.0;"/><text fill="#000000" font-family="sans-serif" font-size="11" lengthAdjust="spacingAndGlyphs" textLength="305" x="260.5" y="324.4189">ReaderEvent(String pluginName, String readerName, EventType</text><text fill="#000000" font-family="sans-serif" font-size="11" lengthAdjust="spacingAndGlyphs" textLength="353" x="260.5" y="338.2549">eventType, DefaultSelectionsResponse[0..1] defaultSelectionsResponse)</text><text fill="#000000" font-family="sans-serif" font-size="11" lengthAdjust="spacingAndGlyphs" textLength="0" x="263.5" y="352.0908"/><ellipse cx="251.5" cy="361.5078" fill="#84BE84" rx="3" ry="3" style="stroke: #038048; stroke-width: 1.0;"/><text fill="#000000" font-family="sans-serif" font-size="11" lengthAdjust="spacingAndGlyphs" textLength="109" x="260.5" y="365.9268">String getPluginName()</text><ellipse cx="251.5" cy="375.3438" fill="#84BE84" rx="3" ry="3" style="stroke: #038048; stroke-width: 1.0;"/><text fill="#000000" font-family="sans-serif" font-size="11" lengthAdjust="spacingAndGlyphs" textLength="116" x="260.5" y="379.7627">String getReaderName()</text><ellipse cx="251.5" cy="389.1797" fill="#84BE84" rx="3" ry="3" style="stroke: #038048; stroke-width: 1.0;"/><text fill="#000000" font-family="sans-serif" font-size="11" lengthAdjust="spacingAndGlyphs" textLength="128" x="260.5" y="393.5986">EventType getEventType()</text><ellipse cx="251.5" cy="403.0156" fill="#84BE84" rx="3" ry="3" style="stroke: #038048; stroke-width: 1.0;"/><text fill="#000000" font-family="sans-serif" font-size="11" lengthAdjust="spacingAndGlyphs" textLength="334" x="260.5" y="407.4346">AbstractDefaultSelectionsResponse getDefaultSelectionsResponse()</text><!--MD5=[35b709ead7a86e7b2780a25fdb99ded4]
class ReaderObserver--><rect fill="#FEFECE" height="61.8359" id="ReaderObserver" style="stroke: #D4AC0D; stroke-width: 1.5;" width="159" x="123.5" y="94.5"/><ellipse cx="149.3" cy="110.5" fill="#B4A7E5" rx="11" ry="11" style="stroke: #B4A7E5; stroke-width: 1.0;"/><path d="M150.3,107.5 L150.3,113.5 L152.3,113.5 L152.7844,113.5 L153.3,114.125 L153.3,114.5 L153.3,114.875 L152.7844,115.5 L152.3,115.5 L146.3,115.5 L145.8156,115.5 L145.3,114.875 L145.3,114.5 L145.3,114.125 L145.8156,113.5 L146.3,113.5 L148.3,113.5 L148.3,107.5 L146.3,107.5 L145.8156,107.5 L145.3,106.875 L145.3,106.5 L145.3,106.125 L145.8156,105.5 L146.3,105.5 L152.3,105.5 L152.7844,105.5 L153.3,106.125 L153.3,106.5 L153.3,106.875 L152.7844,107.5 L152.3,107.5 L150.3,107.5 Z "/><ellipse cx="170.7" cy="110" fill="#84BE84" rx="3" ry="3" style="stroke: #038048; stroke-width: 1.0;"/><text fill="#000000" font-family="sans-serif" font-size="12" font-style="italic" lengthAdjust="spacingAndGlyphs" textLength="92" x="176.7" y="115.4102">ReaderObserver</text><line style="stroke: #D4AC0D; stroke-width: 1.5;" x1="124.5" x2="281.5" y1="126.5" y2="126.5"/><line style="stroke: #D4AC0D; stroke-width: 1.5;" x1="124.5" x2="281.5" y1="134.5" y2="134.5"/><ellipse cx="134.5" cy="145.5" fill="#84BE84" rx="3" ry="3" style="stroke: #038048; stroke-width: 1.0;"/><text fill="#000000" font-family="sans-serif" font-size="11" lengthAdjust="spacingAndGlyphs" textLength="133" x="143.5" y="149.9189">update(ReaderEvent event)</text><!--MD5=[b4b6a5721e02f7cea6ba89274ea67351]
class NotificationMode--><rect fill="#FEFECE" height="117.1797" id="NotificationMode" style="stroke: #D4AC0D; stroke-width: 1.5;" width="188" x="47" y="781"/><ellipse cx="86.3" cy="797" fill="#EB937F" rx="11" ry="11" style="stroke: #EB93DF; stroke-width: 1.0;"/><path d="M84.8,798 L84.8,800 L88.8,800 L88.8,799 L88.8,798.5156 L89.425,798 L89.8,798 L90.175,798 L90.8,798.5156 L90.8,799 L90.8,802 L82.8,802 L82.3156,802 L81.8,801.375 L81.8,801 L81.8,800.625 L82.3156,800 L82.8,800 L82.8,800 L82.8,794 L82.8,794 L82.3156,794 L81.8,793.375 L81.8,793 L81.8,792.625 L82.3156,792 L82.8,792 L90.8,792 L90.8,795 L90.8,795.4844 L90.175,796 L89.8,796 L89.425,796 L88.8,795.4844 L88.8,795 L88.8,794 L84.8,794 L84.8,796 L85.8,796 L85.8,795.5156 L85.8,795.5156 L86.425,795 L86.8,795 L87.175,795 L87.8,795.5156 L87.8,796 L87.8,798 L87.8,798.4844 L87.175,799 L87.175,799 L86.8,799 L86.425,799 L85.8,798.4844 L85.8,798.4844 L85.8,798 L84.8,798 Z "/><ellipse cx="110.7" cy="796.5" fill="#84BE84" rx="3" ry="3" style="stroke: #038048; stroke-width: 1.0;"/><text fill="#000000" font-family="sans-serif" font-size="12" lengthAdjust="spacingAndGlyphs" textLength="91" x="116.7" y="801.9102">NotificationMode</text><line style="stroke: #D4AC0D; stroke-width: 1.5;" x1="48" x2="234" y1="813" y2="813"/><text fill="#000000" font-family="sans-serif" font-size="11" lengthAdjust="spacingAndGlyphs" textLength="47" x="53" y="828.4189">ALWAYS</text><text fill="#000000" font-family="sans-serif" font-size="11" lengthAdjust="spacingAndGlyphs" textLength="84" x="53" y="842.2549">MATCHED_ONLY</text><line style="stroke: #D4AC0D; stroke-width: 1.5;" x1="48" x2="234" y1="848.6719" y2="848.6719"/><ellipse cx="58" cy="859.6719" fill="#84BE84" rx="3" ry="3" style="stroke: #038048; stroke-width: 1.0;"/><text fill="#000000" font-family="sans-serif" font-size="11" lengthAdjust="spacingAndGlyphs" textLength="144" x="67" y="864.0908">NotificationMode(String name)</text><ellipse cx="58" cy="873.5078" fill="#84BE84" rx="3" ry="3" style="stroke: #038048; stroke-width: 1.0;"/><text fill="#000000" font-family="sans-serif" font-size="11" lengthAdjust="spacingAndGlyphs" textLength="81" x="67" y="877.9268">String getName()</text><ellipse cx="58" cy="887.3438" fill="#84BE84" rx="3" ry="3" style="stroke: #038048; stroke-width: 1.0;"/><text fill="#000000" font-family="sans-serif" font-size="11" lengthAdjust="spacingAndGlyphs" text-decoration="underline" textLength="162" x="67" y="891.7627">NotificationMode get(String name)</text><!--MD5=[4db98615c12e554c8946e39d7c0e78ca]
class PollingMode--><rect fill="#FEFECE" height="75.6719" id="PollingMode" style="stroke: #D4AC0D; stroke-width: 1.5;" width="111" x="270.5" y="801.5"/><ellipse cx="285.5" cy="817.5" fill="#EB937F" rx="11" ry="11" style="stroke: #EB93DF; stroke-width: 1.0;"/><path d="M284,818.5 L284,820.5 L288,820.5 L288,819.5 L288,819.0156 L288.625,818.5 L289,818.5 L289.375,818.5 L290,819.0156 L290,819.5 L290,822.5 L282,822.5 L281.5156,822.5 L281,821.875 L281,821.5 L281,821.125 L281.5156,820.5 L282,820.5 L282,820.5 L282,814.5 L282,814.5 L281.5156,814.5 L281,813.875 L281,813.5 L281,813.125 L281.5156,812.5 L282,812.5 L290,812.5 L290,815.5 L290,815.9844 L289.375,816.5 L289,816.5 L288.625,816.5 L288,815.9844 L288,815.5 L288,814.5 L284,814.5 L284,816.5 L285,816.5 L285,816.0156 L285,816.0156 L285.625,815.5 L286,815.5 L286.375,815.5 L287,816.0156 L287,816.5 L287,818.5 L287,818.9844 L286.375,819.5 L286.375,819.5 L286,819.5 L285.625,819.5 L285,818.9844 L285,818.9844 L285,818.5 L284,818.5 Z "/><ellipse cx="304.5" cy="817" fill="#84BE84" rx="3" ry="3" style="stroke: #038048; stroke-width: 1.0;"/><text fill="#000000" font-family="sans-serif" font-size="12" lengthAdjust="spacingAndGlyphs" textLength="68" x="310.5" y="822.4102">PollingMode</text><line style="stroke: #D4AC0D; stroke-width: 1.5;" x1="271.5" x2="380.5" y1="833.5" y2="833.5"/><text fill="#000000" font-family="sans-serif" font-size="11" lengthAdjust="spacingAndGlyphs" textLength="56" x="276.5" y="848.9189">REPEATING</text><text fill="#000000" font-family="sans-serif" font-size="11" lengthAdjust="spacingAndGlyphs" textLength="64" x="276.5" y="862.7549">SINGLESHOT</text><line style="stroke: #D4AC0D; stroke-width: 1.5;" x1="271.5" x2="380.5" y1="869.1719" y2="869.1719"/><!--MD5=[e2341a3d5316e117132fc49473ae3219]
class ObservableReader--><rect fill="#FEFECE" height="227.8672" id="ObservableReader" style="stroke: #D4AC0D; stroke-width: 1.5;" width="329" x="38.5" y="475"/><ellipse cx="140.25" cy="491" fill="#B4A7E5" rx="11" ry="11" style="stroke: #B4A7E5; stroke-width: 1.0;"/><path d="M141.25,488 L141.25,494 L143.25,494 L143.7344,494 L144.25,494.625 L144.25,495 L144.25,495.375 L143.7344,496 L143.25,496 L137.25,496 L136.7656,496 L136.25,495.375 L136.25,495 L136.25,494.625 L136.7656,494 L137.25,494 L139.25,494 L139.25,488 L137.25,488 L136.7656,488 L136.25,487.375 L136.25,487 L136.25,486.625 L136.7656,486 L137.25,486 L143.25,486 L143.7344,486 L144.25,486.625 L144.25,487 L144.25,487.375 L143.7344,488 L143.25,488 L141.25,488 Z "/><ellipse cx="165.75" cy="490.5" fill="#84BE84" rx="3" ry="3" style="stroke: #038048; stroke-width: 1.0;"/><text fill="#000000" font-family="sans-serif" font-size="12" font-style="italic" lengthAdjust="spacingAndGlyphs" textLength="106" x="171.75" y="495.9102">ObservableReader</text><line style="stroke: #D4AC0D; stroke-width: 1.5;" x1="39.5" x2="366.5" y1="507" y2="507"/><text fill="#000000" font-family="sans-serif" font-size="11" lengthAdjust="spacingAndGlyphs" textLength="292" x="44.5" y="522.4189">defaultSelectionsRequest, NotificationMode notificationMode,</text><line style="stroke: #D4AC0D; stroke-width: 1.5;" x1="39.5" x2="366.5" y1="528.8359" y2="528.8359"/><ellipse cx="49.5" cy="539.8359" fill="#84BE84" rx="3" ry="3" style="stroke: #038048; stroke-width: 1.0;"/><text fill="#000000" font-family="sans-serif" font-size="11" lengthAdjust="spacingAndGlyphs" textLength="200" x="58.5" y="544.2549">addObserver(ReaderObserver observer)</text><ellipse cx="49.5" cy="553.6719" fill="#84BE84" rx="3" ry="3" style="stroke: #038048; stroke-width: 1.0;"/><text fill="#000000" font-family="sans-serif" font-size="11" lengthAdjust="spacingAndGlyphs" textLength="218" x="58.5" y="558.0908">removeObserver(ReaderObserver observer)</text><ellipse cx="49.5" cy="567.5078" fill="#84BE84" rx="3" ry="3" style="stroke: #038048; stroke-width: 1.0;"/><text fill="#000000" font-family="sans-serif" font-size="11" lengthAdjust="spacingAndGlyphs" textLength="179" x="58.5" y="571.9268">notifyObservers(ReaderEvent event)</text><text fill="#000000" font-family="sans-serif" font-size="11" lengthAdjust="spacingAndGlyphs" textLength="0" x="61.5" y="585.7627"/><ellipse cx="49.5" cy="595.1797" fill="#84BE84" rx="3" ry="3" style="stroke: #038048; stroke-width: 1.0;"/><text fill="#000000" font-family="sans-serif" font-size="11" lengthAdjust="spacingAndGlyphs" textLength="303" x="58.5" y="599.5986">setDefaultSelectionRequest(AbstractDefaultSelectionsRequest</text><text fill="#000000" font-family="sans-serif" font-size="11" lengthAdjust="spacingAndGlyphs" textLength="293" x="58.5" y="613.4346">defaultSelectionsRequest, NotificationMode notificationMode)</text><ellipse cx="49.5" cy="622.8516" fill="#84BE84" rx="3" ry="3" style="stroke: #038048; stroke-width: 1.0;"/><text fill="#000000" font-family="sans-serif" font-size="11" lengthAdjust="spacingAndGlyphs" textLength="303" x="58.5" y="627.2705">setDefaultSelectionRequest(AbstractDefaultSelectionsRequest</text><text fill="#000000" font-family="sans-serif" font-size="11" lengthAdjust="spacingAndGlyphs" textLength="119" x="58.5" y="641.1064">PollingMode pollingMode)</text><text fill="#000000" font-family="sans-serif" font-size="11" lengthAdjust="spacingAndGlyphs" textLength="0" x="61.5" y="654.9424"/><ellipse cx="49.5" cy="664.3594" fill="#84BE84" rx="3" ry="3" style="stroke: #038048; stroke-width: 1.0;"/><text fill="#000000" font-family="sans-serif" font-size="11" lengthAdjust="spacingAndGlyphs" textLength="203" x="58.5" y="668.7783">startSeDetection(PollingMode pollingMode)</text><ellipse cx="49.5" cy="678.1953" fill="#84BE84" rx="3" ry="3" style="stroke: #038048; stroke-width: 1.0;"/><text fill="#000000" font-family="sans-serif" font-size="11" lengthAdjust="spacingAndGlyphs" textLength="87" x="58.5" y="682.6143">stopSeDetection()</text><ellipse cx="49.5" cy="692.0313" fill="#84BE84" rx="3" ry="3" style="stroke: #038048; stroke-width: 1.0;"/><text fill="#000000" font-family="sans-serif" font-size="11" lengthAdjust="spacingAndGlyphs" textLength="100" x="58.5" y="696.4502">notifySeProcessed()</text><ellipse cx="203" cy="341.5" fill="#000000" rx="2" ry="2" style="stroke: none; stroke-width: 1.0;"/><!--MD5=[cfa5e1a9c30861ac5ad043f1201ace69]
class AbstractDefaultSelectionsRequest--><rect fill="#FEFECE" height="48" id="AbstractDefaultSelectionsRequest" style="stroke: #D4AC0D; stroke-width: 1.5;" width="220" x="449" y="565"/><ellipse cx="464" cy="581" fill="#ADD1B2" rx="11" ry="11" style="stroke: #ADD1B2; stroke-width: 1.0;"/><path d="M466,577.5 Q466.2031,577 466.4375,576.75 Q466.6719,576.5 466.9375,576.5 Q467.4063,576.5 467.7031,576.7813 Q468,577.0625 468,577.7188 L468,579.2813 Q468,579.9375 467.7188,580.2188 Q467.4375,580.5 467,580.5 Q466.6094,580.5 466.3594,580.3281 Q466.1094,580.1563 466,579.7031 Q465.9531,579.3906 465.7813,579.2188 Q465.4688,578.8906 464.9063,578.7031 Q464.3438,578.5 463.7813,578.5 Q463.0781,578.5 462.4844,578.7813 Q461.9063,579.0625 461.4531,579.6875 Q461,580.3125 461,581.1719 L461,582.0938 Q461,583.125 461.8438,583.8125 Q462.6875,584.5 464.1875,584.5 Q465.0781,584.5 465.7031,584.2969 Q466.0625,584.1875 466.4688,583.8281 Q466.7344,583.625 466.875,583.5625 Q467.0156,583.5 467.1875,583.5 Q467.5156,583.5 467.75,583.7656 Q468,584.0156 468,584.375 Q468,584.7188 467.6563,585.125 Q467.1563,585.7188 466.3594,586.0469 Q465.3125,586.5 464.0313,586.5 Q462.5313,586.5 461.3281,585.9063 Q460.3594,585.4375 459.6719,584.4219 Q459,583.4063 459,582.2031 L459,581.1094 Q459,579.8594 459.5938,578.7656 Q460.2031,577.6719 461.25,577.0938 Q462.3125,576.5 463.5,576.5 Q464.2188,576.5 464.8438,576.75 Q465.4688,577 466,577.5 Z "/><text fill="#000000" font-family="sans-serif" font-size="12" lengthAdjust="spacingAndGlyphs" textLength="188" x="478" y="585.9102">AbstractDefaultSelectionsRequest</text><line style="stroke: #D4AC0D; stroke-width: 1.5;" x1="450" x2="668" y1="597" y2="597"/><line style="stroke: #D4AC0D; stroke-width: 1.5;" x1="450" x2="668" y1="605" y2="605"/><!--MD5=[8f41c7e8d8e3ce316d782de639711bb6]
class AbstractDefaultSelectionsResponse--><rect fill="#FEFECE" height="48" id="AbstractDefaultSelectionsResponse" style="stroke: #D4AC0D; stroke-width: 1.5;" width="231" x="420.5" y="815.5"/><ellipse cx="435.5" cy="831.5" fill="#ADD1B2" rx="11" ry="11" style="stroke: #ADD1B2; stroke-width: 1.0;"/><path d="M437.5,828 Q437.7031,827.5 437.9375,827.25 Q438.1719,827 438.4375,827 Q438.9063,827 439.2031,827.2813 Q439.5,827.5625 439.5,828.2188 L439.5,829.7813 Q439.5,830.4375 439.2188,830.7188 Q438.9375,831 438.5,831 Q438.1094,831 437.8594,830.8281 Q437.6094,830.6563 437.5,830.2031 Q437.4531,829.8906 437.2813,829.7188 Q436.9688,829.3906 436.4063,829.2031 Q435.8438,829 435.2813,829 Q434.5781,829 433.9844,829.2813 Q433.4063,829.5625 432.9531,830.1875 Q432.5,830.8125 432.5,831.6719 L432.5,832.5938 Q432.5,833.625 433.3438,834.3125 Q434.1875,835 435.6875,835 Q436.5781,835 437.2031,834.7969 Q437.5625,834.6875 437.9688,834.3281 Q438.2344,834.125 438.375,834.0625 Q438.5156,834 438.6875,834 Q439.0156,834 439.25,834.2656 Q439.5,834.5156 439.5,834.875 Q439.5,835.2188 439.1563,835.625 Q438.6563,836.2188 437.8594,836.5469 Q436.8125,837 435.5313,837 Q434.0313,837 432.8281,836.4063 Q431.8594,835.9375 431.1719,834.9219 Q430.5,833.9063 430.5,832.7031 L430.5,831.6094 Q430.5,830.3594 431.0938,829.2656 Q431.7031,828.1719 432.75,827.5938 Q433.8125,827 435,827 Q435.7188,827 436.3438,827.25 Q436.9688,827.5 437.5,828 Z "/><text fill="#000000" font-family="sans-serif" font-size="12" lengthAdjust="spacingAndGlyphs" textLength="199" x="449.5" y="836.4102">AbstractDefaultSelectionsResponse</text><line style="stroke: #D4AC0D; stroke-width: 1.5;" x1="421.5" x2="650.5" y1="847.5" y2="847.5"/><line style="stroke: #D4AC0D; stroke-width: 1.5;" x1="421.5" x2="650.5" y1="855.5" y2="855.5"/><!--MD5=[766d3442e39134c1882b7d68f6f3b242]
link EventType_Reader to ReaderEvent--><path d="M430,191.288 C430,210.892 430,232.747 430,253.553 " fill="none" id="EventType_Reader-&gt;ReaderEvent" style="stroke: #A80036; stroke-width: 1.0;"/><ellipse cx="430" cy="260.835" fill="#FFFFFF" rx="8" ry="8" style="stroke: #A80036; stroke-width: 1.0;"/><line style="stroke: #A80036; stroke-width: 1.0;" x1="430" x2="430" y1="252.835" y2="268.835"/><line style="stroke: #A80036; stroke-width: 1.0;" x1="438" x2="422" y1="260.835" y2="260.835"/><!--MD5=[ff05c798c0d0e38364e8144829ad24ca]
reverse link ObservableReader to NotificationMode--><path d="M171.018,718.186 C165.526,740.198 160.075,762.045 155.356,780.96 " fill="none" id="ObservableReader&lt;-NotificationMode" style="stroke: #A80036; stroke-width: 1.0;"/><ellipse cx="172.7843" cy="711.104" fill="#FFFFFF" rx="8" ry="8" style="stroke: #A80036; stroke-width: 1.0;"/><line style="stroke: #A80036; stroke-width: 1.0;" x1="170.8476" x2="174.721" y1="718.8661" y2="703.342"/><line style="stroke: #A80036; stroke-width: 1.0;" x1="165.0223" x2="180.5463" y1="709.1673" y2="713.0407"/><!--MD5=[aa7d23f4fc0db106291b229919ad88ab]
reverse link ObservableReader to PollingMode--><path d="M265.881,717.039 C281.163,747.914 296.331,778.559 307.609,801.343 " fill="none" id="ObservableReader&lt;-PollingMode" style="stroke: #A80036; stroke-width: 1.0;"/><ellipse cx="262.6494" cy="710.512" fill="#FFFFFF" rx="8" ry="8" style="stroke: #A80036; stroke-width: 1.0;"/><line style="stroke: #A80036; stroke-width: 1.0;" x1="266.1978" x2="259.101" y1="717.682" y2="703.342"/><line style="stroke: #A80036; stroke-width: 1.0;" x1="255.4794" x2="269.8194" y1="714.0604" y2="706.9636"/><!--MD5=[ab21bca3e437ea7974a5ed2224068d17]
reverse link ReaderObserver to apoint53158--><path d="M203,169.912 C203,228.258 203,326.19 203,339.084 " fill="none" id="ReaderObserver&lt;-apoint53158" style="stroke: #A80036; stroke-width: 1.0;"/><polygon fill="#FFFFFF" points="203,156.707,199,162.707,203,168.707,207,162.707,203,156.707" style="stroke: #A80036; stroke-width: 1.0;"/><text fill="#000000" font-family="sans-serif" font-size="13" lengthAdjust="spacingAndGlyphs" textLength="51" x="204" y="235.4951">observes</text><polygon fill="#000000" points="225,244.3516,228,250.3516,231,244.3516,225,244.3516" style="stroke: #000000; stroke-width: 1.0;"/><text fill="#000000" font-family="sans-serif" font-size="13" lengthAdjust="spacingAndGlyphs" textLength="5" x="197.5234" y="177.7251">*</text><!--MD5=[f24770f1707ea7249dd39000d9f65f28]
link apoint53158 to ObservableReader--><path d="M203,343.595 C203,351.817 203,405.085 203,459.8 " fill="none" id="apoint53158-&gt;ObservableReader" style="stroke: #A80036; stroke-width: 1.0;"/><ellipse cx="203" cy="466.853" fill="#FFFFFF" rx="8" ry="8" style="stroke: #A80036; stroke-width: 1.0;"/><line style="stroke: #A80036; stroke-width: 1.0;" x1="203" x2="203" y1="458.853" y2="474.853"/><line style="stroke: #A80036; stroke-width: 1.0;" x1="211" x2="195" y1="466.853" y2="466.853"/><text fill="#000000" font-family="sans-serif" font-size="13" lengthAdjust="spacingAndGlyphs" textLength="7" x="195.7648" y="464.1576">1</text><!--MD5=[4adc2ebbe883e6ba9d930928f5c1f5be]
link apoint53158 to ReaderEvent--><path d="M205.217,341.5 C216.924,341.5 228.632,341.5 240.339,341.5 " fill="none" id="apoint53158-ReaderEvent" style="stroke: #A80036; stroke-width: 1.0; stroke-dasharray: 7.0,7.0;"/><!--MD5=[fad704757e92dcc281ead66b52a4dd7e]
reverse link ObservableReader to AbstractDefaultSelectionsRequest--><path d="M372.871,589 C398.68,589 424.718,589 448.807,589 " fill="none" id="ObservableReader&lt;-AbstractDefaultSelectionsRequest" style="stroke: #A80036; stroke-width: 1.0;"/><polygon fill="#A80036" points="367.713,589,376.713,593,372.713,589,376.713,585,367.713,589" style="stroke: #A80036; stroke-width: 1.0;"/><polygon fill="#000000" points="392.75,575.6758,386.75,578.6758,392.75,581.6758,392.75,575.6758" style="stroke: #000000; stroke-width: 1.0;"/><text fill="#000000" font-family="sans-serif" font-size="13" lengthAdjust="spacingAndGlyphs" textLength="32" x="398.75" y="582.4951">is set</text><text fill="#000000" font-family="sans-serif" font-size="13" lengthAdjust="spacingAndGlyphs" textLength="7" x="375.3352" y="586.1436">1</text><text fill="#000000" font-family="sans-serif" font-size="13" lengthAdjust="spacingAndGlyphs" textLength="7" x="434.1683" y="585.9694">1</text><!--MD5=[a9b71dddf3b48afb2529446a6f0fee22]
link AbstractDefaultSelectionsResponse to ObservableReader--><path d="M505.071,815.42 C471.247,790.179 414.463,747.804 359.199,706.563 " fill="none" id="AbstractDefaultSelectionsResponse-&gt;ObservableReader" style="stroke: #A80036; stroke-width: 1.0;"/><polygon fill="#A80036" points="354.883,703.342,359.7041,711.9302,358.8904,706.3322,364.4884,705.5184,354.883,703.342" style="stroke: #A80036; stroke-width: 1.0;"/><text fill="#000000" font-family="sans-serif" font-size="13" lengthAdjust="spacingAndGlyphs" textLength="40" x="410" y="747.4951">returns</text><polygon fill="#000000" points="453,740.6758,459,743.6758,453,746.6758,453,740.6758" style="stroke: #000000; stroke-width: 1.0;"/><text fill="#000000" font-family="sans-serif" font-size="13" lengthAdjust="spacingAndGlyphs" textLength="7" x="489.2486" y="804.7397">1</text><text fill="#000000" font-family="sans-serif" font-size="13" lengthAdjust="spacingAndGlyphs" textLength="7" x="356.9251" y="724.3071">1</text><!--MD5=[ccedb28a46d36cb0f26e61260b1180d8]
link AbstractDefaultSelectionsRequest to AbstractDefaultSelectionsResponse--><!--MD5=[a88f996aaad1b15df5b5c48ffb24453a]
@startuml
skinparam ClassBorderColor #D4AC0D
skinparam stereotypeABorderColor #A9DCDF
skinparam stereotypeIBorderColor #B4A7E5
skinparam stereotypeCBorderColor #ADD1B2
skinparam stereotypeEBorderColor #EB93DF
skinparam shadowing false

skinparam StateBorderColor #D4AC0D
skinparam ActivityBorderColor #D4AC0D

skinparam ClassBackgroundColor<<red>> #FDEDEC
skinparam ClassBorderColor<<red>> #E74C3C
hide <<red>> stereotype
skinparam ClassBackgroundColor<<purple>> #F4ECF7
skinparam ClassBorderColor<<purple>> #8E44AD
hide <<purple>> stereotype
skinparam ClassBackgroundColor<<blue>> #EBF5FB
skinparam ClassBorderColor<<blue>> #3498DB
hide <<blue>> stereotype
skinparam ClassBackgroundColor<<green>> #EAFAF1
skinparam ClassBorderColor<<green>> #2ECC71
hide <<green>> stereotype
skinparam ClassBackgroundColor<<grey>> #EAECEE
skinparam ClassBorderColor<<grey>> #2C3E50
hide <<grey>> stereotype

package org.eclipse.keyple.core.seproxy.event #FFFFFF {
+enum "EventType" as EventType_Reader {
  IO_ERROR
  SE_INSERTED
  SE_MATCHED
  SE_REMOVAL
  +EventType(String name)
  +String getName()
}

+class "<b>final</b> ReaderEvent" as ReaderEvent {
  +ReaderEvent(String pluginName, String readerName, EventType
  eventType, DefaultSelectionsResponse[0..1] defaultSelectionsResponse)

  +String getPluginName()
  +String getReaderName()
  +EventType getEventType()
  +AbstractDefaultSelectionsResponse getDefaultSelectionsResponse()
}

  EventType_Reader - -+ ReaderEvent

  +interface ReaderObserver {
    +update(ReaderEvent event)
  }

+enum NotificationMode {
  ALWAYS
  MATCHED_ONLY
  +NotificationMode(String name)
  +String getName()
  +{static}NotificationMode get(String name)
}

+enum PollingMode {
  REPEATING
  SINGLESHOT
}
+interface ObservableReader {
  +addObserver(ReaderObserver observer)
  +removeObserver(ReaderObserver observer)
  +notifyObservers(ReaderEvent event)

  +setDefaultSelectionRequest(AbstractDefaultSelectionsRequest
    defaultSelectionsRequest, NotificationMode notificationMode)
  +setDefaultSelectionRequest(AbstractDefaultSelectionsRequest
    defaultSelectionsRequest, NotificationMode notificationMode,
    PollingMode pollingMode)

  +startSeDetection(PollingMode pollingMode)
  +stopSeDetection()
  +notifySeProcessed()
}

  ObservableReader +-down- NotificationMode
  ObservableReader +-down- PollingMode

  ReaderObserver "1" +-down-o "*" ObservableReader : observes <
  (ReaderObserver, ObservableReader) . ReaderEvent

  AbstractDefaultSelectionsRequest "1" -left-> "1" ObservableReader : is set >
  AbstractDefaultSelectionsResponse "1" - -> "1" ObservableReader : returns <
  AbstractDefaultSelectionsRequest -down[hidden]- AbstractDefaultSelectionsResponse
}
@enduml

PlantUML version 1.2020.09(Sun May 10 14:51:06 MUT 2020)
(GPL source distribution)
Java Runtime: OpenJDK Runtime Environment
JVM: OpenJDK 64-Bit Server VM
Java Version: 11.0.6+8-b765.40
Operating System: Windows 10
Default Encoding: Cp1252
Language: fr
Country: FR
--></g></svg>