<?xml version="1.0" encoding="UTF-8" standalone="no"?><svg xmlns="http://www.w3.org/2000/svg" xmlns:xlink="http://www.w3.org/1999/xlink" contentScriptType="application/ecmascript" contentStyleType="text/css" height="862.8px" preserveAspectRatio="none" style="width:1936px;height:862px;" version="1.1" viewBox="0 0 1936 862" width="1936.8px" zoomAndPan="magnify"><defs/><g><!--MD5=[e492621730c6c9a1b92a9fcafcf3a8d9]
cluster SE_ObservationDisabled--><rect fill="#FEFECE" height="231.6" rx="15" ry="15" style="stroke: #D4AC0D; stroke-width: 1.7999999999999998;" width="208.8" x="57.6" y="28.8"/><rect fill="#FFFFFF" height="167.1563" rx="15" ry="15" style="stroke: #FFFFFF; stroke-width: 1.2;" width="201.6" x="61.2" y="89.6438"/><line style="stroke: #D4AC0D; stroke-width: 1.7999999999999998;" x1="57.6" x2="266.4" y1="86.0438" y2="86.0438"/><line style="stroke: #D4AC0D; stroke-width: 1.7999999999999998;" x1="57.6" x2="266.4" y1="61.9313" y2="61.9313"/><text fill="#000000" font-family="sans-serif" font-size="16.8" lengthAdjust="spacingAndGlyphs" textLength="189.6" x="67.2" y="51.0398">SE_ObservationDisabled</text><text fill="#000000" font-family="sans-serif" font-size="14.4" lengthAdjust="spacingAndGlyphs" textLength="160.8" x="63.6" y="79.8797">number of observer == 0</text><!--MD5=[1f63e34000d331c93416f84ee164ac34]
cluster SE_ObservationActivated--><rect fill="#FEFECE" height="500.4" rx="15" ry="15" style="stroke: #D4AC0D; stroke-width: 1.7999999999999998;" width="1599.6" x="36" y="349.2"/><rect fill="#FFFFFF" height="435.9563" rx="15" ry="15" style="stroke: #FFFFFF; stroke-width: 1.2;" width="1592.4" x="39.6" y="410.0438"/><line style="stroke: #D4AC0D; stroke-width: 1.7999999999999998;" x1="36" x2="1635.6" y1="406.4437" y2="406.4437"/><line style="stroke: #D4AC0D; stroke-width: 1.7999999999999998;" x1="36" x2="1635.6" y1="382.3313" y2="382.3313"/><text fill="#000000" font-family="sans-serif" font-size="16.8" lengthAdjust="spacingAndGlyphs" textLength="193.2" x="739.2" y="371.4398">SE_ObservationActivated</text><text fill="#000000" font-family="sans-serif" font-size="14.4" lengthAdjust="spacingAndGlyphs" textLength="152.4" x="42" y="400.2797">number of observer &gt; 0</text><ellipse cx="162" cy="108" fill="#000000" rx="12" ry="12" style="stroke: none; stroke-width: 1.2;"/><rect fill="#FEFECE" height="48" rx="15" ry="15" style="stroke: #D4AC0D; stroke-width: 1.7999999999999998;" width="142.8" x="90.6" y="193.2"/><text fill="#000000" font-family="sans-serif" font-size="16.8" lengthAdjust="spacingAndGlyphs" textLength="130.8" x="96.6" y="224.0742">WaitForObserver</text><rect fill="#FEFECE" height="48" rx="15" ry="15" style="stroke: #D4AC0D; stroke-width: 1.7999999999999998;" width="180" x="154.8" y="553.2"/><text fill="#000000" font-family="sans-serif" font-size="16.8" lengthAdjust="spacingAndGlyphs" textLength="168" x="160.8" y="584.0742">WaitForStartDetection</text><rect fill="#FEFECE" height="48" rx="15" ry="15" style="stroke: #D4AC0D; stroke-width: 1.7999999999999998;" width="157.2" x="741" y="553.2"/><text fill="#000000" font-family="sans-serif" font-size="16.8" lengthAdjust="spacingAndGlyphs" textLength="145.2" x="747" y="584.0742">WaitForSeInsertion</text><rect fill="#FEFECE" height="48" rx="15" ry="15" style="stroke: #D4AC0D; stroke-width: 1.7999999999999998;" width="176.4" x="1019.4" y="772.8"/><text fill="#000000" font-family="sans-serif" font-size="16.8" lengthAdjust="spacingAndGlyphs" textLength="164.4" x="1025.4" y="803.6742">WaitForSeProcessing</text><rect fill="#FEFECE" height="48" rx="15" ry="15" style="stroke: #D4AC0D; stroke-width: 1.7999999999999998;" width="158.4" x="438" y="772.8"/><text fill="#000000" font-family="sans-serif" font-size="16.8" lengthAdjust="spacingAndGlyphs" textLength="146.4" x="444" y="803.6742">WaitForSeRemoval</text><!--MD5=[f645417660ba964249a87cd24ba2b7cd]
link *start*SE_ObservationDisabled to WaitForObserver--><path d="M162,120.2268 C162,135.816 162,164.8512 162,186.8808 " fill="none" id="*start*SE_ObservationDisabled-&gt;WaitForObserver" style="stroke: #000000; stroke-width: 1.2;"/><polygon fill="#000000" points="162,192.8916,166.8,182.0916,162,186.8916,157.2,182.0916,162,192.8916" style="stroke: #000000; stroke-width: 1.2;"/><!--MD5=[f2e10831cc9a25737cccb2043bcbba7d]
link WaitForStartDetection to WaitForSeInsertion--><path d="M334.9284,577.2 C444.2808,577.2 627.2664,577.2 734.3652,577.2 " fill="none" id="WaitForStartDetection-&gt;WaitForSeInsertion" style="stroke: #0000FF; stroke-width: 1.2;"/><polygon fill="#0000FF" points="740.6748,577.2,729.8748,572.4,734.6748,577.2,729.8748,582,740.6748,577.2" style="stroke: #0000FF; stroke-width: 1.2;"/><text fill="#000000" font-family="sans-serif" font-size="15.6" lengthAdjust="spacingAndGlyphs" textLength="211.2" x="432.3" y="569.3941">startSeDetection(PollingMode)</text><!--MD5=[992ba655eaf93782ef94c02e89306d3d]
link WaitForSeInsertion to WaitForSeProcessing--><path d="M874.0164,601.4376 C890.9256,610.6296 908.5356,622.5588 921.6,637.2 C953.7252,673.2024 930.3648,703.0008 964.8,736.8 C979.1928,750.9264 997.4556,761.8283 1016.0724,770.1803 " fill="none" id="WaitForSeInsertion-&gt;WaitForSeProcessing" style="stroke: #FF0000; stroke-width: 1.2;"/><polygon fill="#FF0000" points="1021.8576,772.6912,1013.8628,763.987,1016.354,770.3016,1010.0394,772.7928,1021.8576,772.6912" style="stroke: #FF0000; stroke-width: 1.2;"/><text fill="#000000" font-family="sans-serif" font-size="15.6" lengthAdjust="spacingAndGlyphs" textLength="140.4" x="1009.8" y="683.9941">notifies 'SE inserted'</text><text fill="#000000" font-family="sans-serif" font-size="15.6" lengthAdjust="spacingAndGlyphs" textLength="228" x="966" y="703.616">&amp;&amp; (NotificationMode == always)</text><!--MD5=[992ba655eaf93782ef94c02e89306d3d]
link WaitForSeInsertion to WaitForSeProcessing--><path d="M898.3188,579.0024 C998.1552,581.6304 1161.942,592.8072 1200,637.2 C1228.812,670.8072 1221.3,697.9956 1200,736.8 C1192.6488,750.1908 1180.8132,760.9673 1168.0296,769.4521 " fill="none" id="WaitForSeInsertion-&gt;WaitForSeProcessing-1" style="stroke: #FF0000; stroke-width: 1.2;"/><polygon fill="#FF0000" points="1162.8972,772.7106,1174.5876,770.9741,1167.9625,769.4946,1169.442,762.8696,1162.8972,772.7106" style="stroke: #FF0000; stroke-width: 1.2;"/><text fill="#000000" font-family="sans-serif" font-size="15.6" lengthAdjust="spacingAndGlyphs" textLength="145.2" x="1219.2" y="693.5941">notifies 'SE matched'</text><!--MD5=[c072ffad7560f4297d8524ce01a65765]
link WaitForSeProcessing to WaitForSeInsertion--><path d="M1196.0916,787.9645 C1265.112,779.9591 1352.88,764.5552 1375.2,736.8 C1402.944,702.3036 1404.804,670.1076 1375.2,637.2 C1344.324,602.8848 1052.154,587.0904 904.3584,581.2464 " fill="none" id="WaitForSeProcessing-&gt;WaitForSeInsertion" style="stroke: #FF0000; stroke-width: 1.2; stroke-dasharray: 7.0,7.0;"/><polygon fill="#FF0000" points="898.296,581.0088,908.8999,586.2278,904.2914,581.2436,909.2756,576.6351,898.296,581.0088" style="stroke: #FF0000; stroke-width: 1.2;"/><text fill="#000000" font-family="sans-serif" font-size="15.6" lengthAdjust="spacingAndGlyphs" textLength="142.8" x="1406.4" y="654.5941">notifies 'SE removed'</text><text fill="#000000" font-family="sans-serif" font-size="15.6" lengthAdjust="spacingAndGlyphs" textLength="162" x="1396.8" y="674.216">&amp;&amp; (Observable Reader</text><text fill="#000000" font-family="sans-serif" font-size="15.6" lengthAdjust="spacingAndGlyphs" textLength="124.8" x="1415.4" y="693.8379">with the capability</text><text fill="#000000" font-family="sans-serif" font-size="15.6" lengthAdjust="spacingAndGlyphs" textLength="145.2" x="1405.2" y="713.4598">to detect the removal</text><text fill="#000000" font-family="sans-serif" font-size="15.6" lengthAdjust="spacingAndGlyphs" textLength="82.8" x="1436.4" y="733.0816">at any time)</text><!--MD5=[a4b1e4565b5cd840fe49854f8e68b371]
link WaitForSeInsertion to WaitForSeRemoval--><path d="M740.7504,589.5924 C707.4732,597.87 670.4796,612.2472 644.4,637.2 C610.1196,669.9984 635.7192,699.8196 606,736.8 C595.7748,749.5236 582.042,760.4646 568.4364,769.339 " fill="none" id="WaitForSeInsertion-&gt;WaitForSeRemoval" style="stroke: #FF0000; stroke-width: 1.2;"/><polygon fill="#FF0000" points="563.0328,772.763,574.7248,771.0377,568.1012,769.5519,569.587,762.9283,563.0328,772.763" style="stroke: #FF0000; stroke-width: 1.2;"/><text fill="#000000" font-family="sans-serif" font-size="15.6" lengthAdjust="spacingAndGlyphs" textLength="166.8" x="694.8" y="673.7941">'SE inserted' not notified</text><text fill="#000000" font-family="sans-serif" font-size="15.6" lengthAdjust="spacingAndGlyphs" textLength="265.2" x="645.6" y="693.416">&amp;&amp; ((NotificationMode == match_only)</text><text fill="#000000" font-family="sans-serif" font-size="15.6" lengthAdjust="spacingAndGlyphs" textLength="134.4" x="711" y="713.0379">&amp;&amp; selection failed)</text><!--MD5=[d16b56604473427f1d6ff08eca48d2dd]
reverse link WaitForSeInsertion to WaitForSeRemoval--><path d="M734.7276,583.6572 C612.1872,592.1232 397.7424,610.572 374.4,637.2 C345.2196,670.488 349.7688,700.0188 374.4,736.8 C389.0208,758.6315 413.3736,772.3651 437.8656,781.0015 " fill="none" id="WaitForSeInsertion&lt;-WaitForSeRemoval" style="stroke: #FF0000; stroke-width: 1.2;"/><polygon fill="#FF0000" points="740.8536,583.236,729.7499,579.1878,734.8677,583.6474,730.4081,588.7652,740.8536,583.236" style="stroke: #FF0000; stroke-width: 1.2;"/><text fill="#000000" font-family="sans-serif" font-size="15.6" lengthAdjust="spacingAndGlyphs" textLength="142.8" x="414" y="683.9941">notifies 'SE removed'</text><text fill="#000000" font-family="sans-serif" font-size="15.6" lengthAdjust="spacingAndGlyphs" textLength="219.6" x="375.6" y="703.616">&amp;&amp; (PollingMode == Repeating)</text><!--MD5=[593e106eef62bf2c22c2a4af8a6c9e3d]
reverse link WaitForSeRemoval to WaitForSeProcessing--><path d="M602.7252,796.8 C713.7492,796.8 906.5604,796.8 1019.0472,796.8 " fill="none" id="WaitForSeRemoval&lt;-WaitForSeProcessing" style="stroke: #0000FF; stroke-width: 1.2;"/><polygon fill="#0000FF" points="596.5176,796.8,607.3176,801.6,602.5176,796.8,607.3176,792,596.5176,796.8" style="stroke: #0000FF; stroke-width: 1.2;"/><text fill="#000000" font-family="sans-serif" font-size="15.6" lengthAdjust="spacingAndGlyphs" textLength="140.4" x="737.7" y="788.9941">notifySeProcessed()</text><!--MD5=[468fcc5103ee613552758a9e57699ebf]
reverse link WaitForStartDetection to WaitForSeRemoval--><path d="M148.992,600.1956 C130.9224,608.748 114.2494,620.6472 103.2,637.2 C78.6232,674.0172 74.1828,703.3704 103.2,736.8 C145.6128,785.6617 329.6772,794.987 437.5704,796.1443 " fill="none" id="WaitForStartDetection&lt;-WaitForSeRemoval" style="stroke: #FF0000; stroke-width: 1.2;"/><polygon fill="#FF0000" points="154.6404,597.648,142.822,597.7166,149.1718,600.1166,146.7717,606.4664,154.6404,597.648" style="stroke: #FF0000; stroke-width: 1.2;"/><text fill="#000000" font-family="sans-serif" font-size="15.6" lengthAdjust="spacingAndGlyphs" textLength="142.8" x="145.8" y="683.9941">notifies 'SE removed'</text><text fill="#000000" font-family="sans-serif" font-size="15.6" lengthAdjust="spacingAndGlyphs" textLength="225.6" x="104.4" y="703.616">&amp;&amp; (PollingMode == SingleShot)</text><!--MD5=[1068d7540bf7bac1afc11ff209f6fa86]
reverse link WaitForObserver to SE_ObservationActivated--><path d="M151.2672,246.912 C145.8819,261.2199 138.9311,279.6867 131.5107,299.401 C127.8005,309.2581 123.9729,319.4271 120.1648,329.544 C118.2608,334.6025 116.3617,339.6479 114.4846,344.6348 C114.0153,345.8816 113.5474,347.1247 113.0812,348.3634 " fill="none" id="WaitForObserver&lt;-SE_ObservationActivated" style="stroke: #0000FF; stroke-width: 1.2;"/><polygon fill="#0000FF" points="153.396,241.2588,145.0985,249.6749,151.2819,246.874,154.0829,253.0575,153.396,241.2588" style="stroke: #0000FF; stroke-width: 1.2;"/><text fill="#000000" font-family="sans-serif" font-size="15.6" lengthAdjust="spacingAndGlyphs" textLength="230.4" x="140.4" y="296.9941">removeObserver(ReaderObserver)</text><text fill="#000000" font-family="sans-serif" font-size="15.6" lengthAdjust="spacingAndGlyphs" textLength="152.4" x="179.4" y="316.616">&amp;&amp; (nb observer == 0)</text><!--MD5=[136a2b1d08fde5b6a9585a9cd3ff408d]
link WaitForObserver to WaitForStartDetection--><path d="M233.8788,229.5588 C290.28,239.8644 362.3676,256.9896 381.6,279.6 C450.3672,360.4476 466.4124,430.212 405.6,517.2 C390.3204,539.0556 366.0024,552.8148 340.8564,561.4668 " fill="none" id="WaitForObserver-&gt;WaitForStartDetection" style="stroke: #0000FF; stroke-width: 1.2;"/><polygon fill="#0000FF" points="335.1408,563.3436,346.8993,564.5341,340.8412,561.4715,343.9039,555.4134,335.1408,563.3436" style="stroke: #0000FF; stroke-width: 1.2;"/><text fill="#000000" font-family="sans-serif" font-size="15.6" lengthAdjust="spacingAndGlyphs" textLength="206.4" x="445.2" y="439.7941">addObserver(ReaderObserver)</text><!--MD5=[bfb50f0fd7e71ad7ae6d89b0b4872048]
link SE_ObservationActivated to SE_ObservationActivated--><path d="M1642.8,432.7812 C1657.0502,415.2012 1684.8979,415.3404 1684.8979,433.2 C1684.8979,451.0596 1657.0502,451.1988 1642.8,433.6188 " fill="none" id="SE_ObservationActivated-&gt;SE_ObservationActivated" style="stroke: #0000FF; stroke-width: 1.2;"/><polygon fill="#0000FF" points="1642.8,433.6188,1645.8719,445.0312,1646.5782,438.2798,1653.3296,438.9861,1642.8,433.6188" style="stroke: #0000FF; stroke-width: 1.2;"/><text fill="#000000" font-family="sans-serif" font-size="15.6" lengthAdjust="spacingAndGlyphs" textLength="230.4" x="1692.0979" y="430.1941">removeObserver(ReaderObserver)</text><text fill="#000000" font-family="sans-serif" font-size="15.6" lengthAdjust="spacingAndGlyphs" textLength="142.8" x="1735.8979" y="449.816">&amp;&amp; (nb observer &gt; 0)</text><!--MD5=[8cf2aa29ed72b7d1a09e46f0fa619bdd]
link SE_ObservationActivated to WaitForStartDetection--><path d="M81.7183,434.5032 C85.2479,437.5656 166.9236,508.4304 213.3192,548.6856 " fill="none" id="SE_ObservationActivated-&gt;WaitForStartDetection" style="stroke: #0000FF; stroke-width: 1.2;"/><polygon fill="#0000FF" points="218.244,552.9588,213.2341,542.2546,213.7128,549.0259,206.9414,549.5046,218.244,552.9588" style="stroke: #0000FF; stroke-width: 1.2;"/><text fill="#000000" font-family="sans-serif" font-size="15.6" lengthAdjust="spacingAndGlyphs" textLength="124.8" x="175.2" y="512.9941">stopSeDetection()</text><!--MD5=[653f77615ae176be3a3c490f017940a0]
@startuml
skinparam ClassBorderColor #D4AC0D
skinparam stereotypeABorderColor #A9DCDF
skinparam stereotypeIBorderColor #B4A7E5
skinparam stereotypeCBorderColor #ADD1B2
skinparam stereotypeEBorderColor #EB93DF
skinparam shadowing false

skinparam StateBorderColor #D4AC0D
skinparam ActivityBorderColor #D4AC0D

skinparam ClassBackgroundColor<<red>> #FDEDEC
skinparam ClassBorderColor<<red>> #E74C3C
hide <<red>> stereotype
skinparam ClassBackgroundColor<<purple>> #F4ECF7
skinparam ClassBorderColor<<purple>> #8E44AD
hide <<purple>> stereotype
skinparam ClassBackgroundColor<<blue>> #EBF5FB
skinparam ClassBorderColor<<blue>> #3498DB
hide <<blue>> stereotype
skinparam ClassBackgroundColor<<green>> #EAFAF1
skinparam ClassBorderColor<<green>> #2ECC71
hide <<green>> stereotype

skinparam ClassBackgroundColor<<orange>> #FDF2E9
skinparam ClassBorderColor<<orange>> #E67E22
hide <<orange>> stereotype

skinparam ClassBackgroundColor<<grey>> #EAECEE
skinparam ClassBorderColor<<grey>> #2C3E50
hide <<grey>> stereotype
hide empty description

state SE_ObservationDisabled {
[*] - -[#Black]> WaitForObserver
}

state SE_ObservationActivated {
WaitForStartDetection -right[#Blue]-> WaitForSeInsertion : startSeDetection(PollingMode)
WaitForSeInsertion -down[#Red]-> WaitForSeProcessing : notifies 'SE inserted'\n&& (NotificationMode == always)
WaitForSeInsertion -down[#Red]-> WaitForSeProcessing : notifies 'SE matched'
WaitForSeInsertion -down[#Red]-> WaitForSeRemoval : 'SE inserted' not notified\n&& ((NotificationMode == match_only)\n&& selection failed)
WaitForSeProcessing -left[#Blue]-> WaitForSeRemoval : notifySeProcessed()
WaitForSeRemoval -up[#Red]-> WaitForSeInsertion : notifies 'SE removed'\n&& (PollingMode == Repeating)
WaitForSeRemoval -up[#Red]-> WaitForStartDetection : notifies 'SE removed'\n&& (PollingMode == SingleShot)
WaitForSeProcessing -[#Red,dashed]-> WaitForSeInsertion : notifies 'SE removed'\n&& (Observable Reader\nwith the capability\nto detect the removal\nat any time)
}

SE_ObservationActivated -up[#Blue]-> WaitForObserver : removeObserver(ReaderObserver)\n&& (nb observer == 0)
WaitForObserver -down[#Blue]-> WaitForStartDetection : addObserver(ReaderObserver)
SE_ObservationActivated -[#Blue]> SE_ObservationActivated : removeObserver(ReaderObserver)\n&& (nb observer > 0)

SE_ObservationActivated -[#Blue]-> WaitForStartDetection : stopSeDetection()
SE_ObservationDisabled : number of observer == 0
SE_ObservationActivated : number of observer > 0
@enduml

PlantUML version 1.2020.09(Sun May 10 14:51:06 MUT 2020)
(GPL source distribution)
Java Runtime: OpenJDK Runtime Environment
JVM: OpenJDK 64-Bit Server VM
Java Version: 11.0.7+10-b765.64
Operating System: Windows 10
Default Encoding: Cp1252
Language: fr
Country: FR
--></g></svg>