<?xml version="1.0" encoding="UTF-8" standalone="no"?><svg xmlns="http://www.w3.org/2000/svg" xmlns:xlink="http://www.w3.org/1999/xlink" contentScriptType="application/ecmascript" contentStyleType="text/css" height="814px" preserveAspectRatio="none" style="width:974px;height:814px;" version="1.1" viewBox="0 0 974 814" width="974px" zoomAndPan="magnify"><defs/><g><!--MD5=[43faeb760e7b9692ab91f636f0cf3388]
cluster external.terminalapplication--><polygon fill="#3399FF" points="111,24,313,24,320,47.6094,323,47.6094,323,124,111,124,111,24" style="stroke: #000000; stroke-width: 1.5;"/><line style="stroke: #000000; stroke-width: 1.5;" x1="111" x2="320" y1="47.6094" y2="47.6094"/><text fill="#000000" font-family="sans-serif" font-size="14" font-weight="bold" lengthAdjust="spacingAndGlyphs" textLength="196" x="115" y="40.5332">external.terminalapplication</text><!--MD5=[2bcc54f38766b998c5e88efdbc7d1696]
cluster org.eclipse.keyple.core.seproxy--><polygon fill="#FFFFFF" points="22,174,253,174,260,197.6094,952,197.6094,952,588,22,588,22,174" style="stroke: #000000; stroke-width: 1.5;"/><line style="stroke: #000000; stroke-width: 1.5;" x1="22" x2="260" y1="197.6094" y2="197.6094"/><text fill="#000000" font-family="sans-serif" font-size="14" font-weight="bold" lengthAdjust="spacingAndGlyphs" textLength="225" x="26" y="190.5332">org.eclipse.keyple.core.seproxy</text><!--MD5=[fcbadcad9a28152c89ed5c4d71dbb045]
cluster plugin.specific--><polygon fill="#D7BDE2" points="50,638,159,638,166,661.6094,722,661.6094,722,802,50,802,50,638" style="stroke: #000000; stroke-width: 1.5;"/><line style="stroke: #000000; stroke-width: 1.5;" x1="50" x2="166" y1="661.6094" y2="661.6094"/><text fill="#000000" font-family="sans-serif" font-size="14" font-weight="bold" lengthAdjust="spacingAndGlyphs" textLength="103" x="54" y="654.5332">plugin.specific</text><!--MD5=[36749fbd9f1718a5265922a19e14c350]
class SpecificTerminal--><rect fill="#FEFECE" height="48" id="SpecificTerminal" style="stroke: #D4AC0D; stroke-width: 1.5;" width="124" x="155" y="60"/><ellipse cx="170" cy="76" fill="#ADD1B2" rx="11" ry="11" style="stroke: #ADD1B2; stroke-width: 1.0;"/><path d="M172,72.5 Q172.2031,72 172.4375,71.75 Q172.6719,71.5 172.9375,71.5 Q173.4063,71.5 173.7031,71.7813 Q174,72.0625 174,72.7188 L174,74.2813 Q174,74.9375 173.7188,75.2188 Q173.4375,75.5 173,75.5 Q172.6094,75.5 172.3594,75.3281 Q172.1094,75.1563 172,74.7031 Q171.9531,74.3906 171.7813,74.2188 Q171.4688,73.8906 170.9063,73.7031 Q170.3438,73.5 169.7813,73.5 Q169.0781,73.5 168.4844,73.7813 Q167.9063,74.0625 167.4531,74.6875 Q167,75.3125 167,76.1719 L167,77.0938 Q167,78.125 167.8438,78.8125 Q168.6875,79.5 170.1875,79.5 Q171.0781,79.5 171.7031,79.2969 Q172.0625,79.1875 172.4688,78.8281 Q172.7344,78.625 172.875,78.5625 Q173.0156,78.5 173.1875,78.5 Q173.5156,78.5 173.75,78.7656 Q174,79.0156 174,79.375 Q174,79.7188 173.6563,80.125 Q173.1563,80.7188 172.3594,81.0469 Q171.3125,81.5 170.0313,81.5 Q168.5313,81.5 167.3281,80.9063 Q166.3594,80.4375 165.6719,79.4219 Q165,78.4063 165,77.2031 L165,76.1094 Q165,74.8594 165.5938,73.7656 Q166.2031,72.6719 167.25,72.0938 Q168.3125,71.5 169.5,71.5 Q170.2188,71.5 170.8438,71.75 Q171.4688,72 172,72.5 Z "/><text fill="#000000" font-family="sans-serif" font-size="12" lengthAdjust="spacingAndGlyphs" textLength="92" x="184" y="80.9102">SpecificTerminal</text><line style="stroke: #D4AC0D; stroke-width: 1.5;" x1="156" x2="278" y1="92" y2="92"/><line style="stroke: #D4AC0D; stroke-width: 1.5;" x1="156" x2="278" y1="100" y2="100"/><!--MD5=[f0c44d4c6fb415056b2c0aabd573961b]
class SeProxyService--><rect fill="#FEFECE" height="180.7109" id="SeProxyService" style="stroke: #D4AC0D; stroke-width: 1.5;" width="340" x="47" y="210"/><ellipse cx="151.75" cy="230.0938" fill="#ADD1B2" rx="11" ry="11" style="stroke: #ADD1B2; stroke-width: 1.0;"/><path d="M153.75,226.5938 Q153.9531,226.0938 154.1875,225.8438 Q154.4219,225.5938 154.6875,225.5938 Q155.1563,225.5938 155.4531,225.875 Q155.75,226.1563 155.75,226.8125 L155.75,228.375 Q155.75,229.0313 155.4688,229.3125 Q155.1875,229.5938 154.75,229.5938 Q154.3594,229.5938 154.1094,229.4219 Q153.8594,229.25 153.75,228.7969 Q153.7031,228.4844 153.5313,228.3125 Q153.2188,227.9844 152.6563,227.7969 Q152.0938,227.5938 151.5313,227.5938 Q150.8281,227.5938 150.2344,227.875 Q149.6563,228.1563 149.2031,228.7813 Q148.75,229.4063 148.75,230.2656 L148.75,231.1875 Q148.75,232.2188 149.5938,232.9063 Q150.4375,233.5938 151.9375,233.5938 Q152.8281,233.5938 153.4531,233.3906 Q153.8125,233.2813 154.2188,232.9219 Q154.4844,232.7188 154.625,232.6563 Q154.7656,232.5938 154.9375,232.5938 Q155.2656,232.5938 155.5,232.8594 Q155.75,233.1094 155.75,233.4688 Q155.75,233.8125 155.4063,234.2188 Q154.9063,234.8125 154.1094,235.1406 Q153.0625,235.5938 151.7813,235.5938 Q150.2813,235.5938 149.0781,235 Q148.1094,234.5313 147.4219,233.5156 Q146.75,232.5 146.75,231.2969 L146.75,230.2031 Q146.75,228.9531 147.3438,227.8594 Q147.9531,226.7656 149,226.1875 Q150.0625,225.5938 151.25,225.5938 Q151.9688,225.5938 152.5938,225.8438 Q153.2188,226.0938 153.75,226.5938 Z "/><text fill="#000000" font-family="sans-serif" font-size="12" font-style="italic" lengthAdjust="spacingAndGlyphs" textLength="66" x="200.25" y="227.457">«Singleton»</text><ellipse cx="177.25" cy="237.1406" fill="#84BE84" rx="3" ry="3" style="stroke: #038048; stroke-width: 1.0;"/><text fill="#000000" font-family="sans-serif" font-size="12" font-weight="bold" lengthAdjust="spacingAndGlyphs" textLength="24" x="183.25" y="242.5508">final</text><text fill="#000000" font-family="sans-serif" font-size="12" lengthAdjust="spacingAndGlyphs" textLength="84" x="210.25" y="242.5508">SeProxyService</text><line style="stroke: #D4AC0D; stroke-width: 1.5;" x1="48" x2="386" y1="250.1875" y2="250.1875"/><line style="stroke: #D4AC0D; stroke-width: 1.5;" x1="48" x2="386" y1="258.1875" y2="258.1875"/><ellipse cx="58" cy="269.1875" fill="#84BE84" rx="3" ry="3" style="stroke: #038048; stroke-width: 1.0;"/><text fill="#000000" font-family="sans-serif" font-size="11" lengthAdjust="spacingAndGlyphs" text-decoration="underline" textLength="145" x="67" y="273.6064">SeProxyService getInstance()</text><ellipse cx="58" cy="283.0234" fill="#84BE84" rx="3" ry="3" style="stroke: #038048; stroke-width: 1.0;"/><text fill="#000000" font-family="sans-serif" font-size="11" lengthAdjust="spacingAndGlyphs" textLength="92" x="67" y="287.4424">String getVersion()</text><text fill="#000000" font-family="sans-serif" font-size="11" lengthAdjust="spacingAndGlyphs" textLength="0" x="70" y="301.2783"/><ellipse cx="58" cy="310.6953" fill="#84BE84" rx="3" ry="3" style="stroke: #038048; stroke-width: 1.0;"/><text fill="#000000" font-family="sans-serif" font-size="11" lengthAdjust="spacingAndGlyphs" textLength="314" x="67" y="315.1143">ReaderPlugin registerPlugin(AbstractPluginFactory pluginFactory)</text><ellipse cx="58" cy="324.5313" fill="#84BE84" rx="3" ry="3" style="stroke: #038048; stroke-width: 1.0;"/><text fill="#000000" font-family="sans-serif" font-size="11" lengthAdjust="spacingAndGlyphs" textLength="195" x="67" y="328.9502">boolean isRegistered(String pluginName)</text><ellipse cx="58" cy="338.3672" fill="#84BE84" rx="3" ry="3" style="stroke: #038048; stroke-width: 1.0;"/><text fill="#000000" font-family="sans-serif" font-size="11" lengthAdjust="spacingAndGlyphs" textLength="212" x="67" y="342.7861">boolean unregisterPlugin(String pluginName)</text><text fill="#000000" font-family="sans-serif" font-size="11" lengthAdjust="spacingAndGlyphs" textLength="0" x="70" y="356.6221"/><ellipse cx="58" cy="366.0391" fill="#84BE84" rx="3" ry="3" style="stroke: #038048; stroke-width: 1.0;"/><text fill="#000000" font-family="sans-serif" font-size="11" lengthAdjust="spacingAndGlyphs" textLength="174" x="67" y="370.458">ReaderPlugin getPlugin(String name)</text><ellipse cx="58" cy="379.875" fill="#84BE84" rx="3" ry="3" style="stroke: #038048; stroke-width: 1.0;"/><text fill="#000000" font-family="sans-serif" font-size="11" lengthAdjust="spacingAndGlyphs" textLength="151" x="67" y="384.2939">Set&lt;ReaderPlugin&gt; getPlugins()</text><!--MD5=[589e28272a74d38b4e0a352c82e7b326]
class AbstractPluginFactory--><rect fill="#FEFECE" height="75.6719" id="AbstractPluginFactory" style="stroke: #D4AC0D; stroke-width: 1.5;" width="192" x="38" y="482.5"/><ellipse cx="66.05" cy="498.5" fill="#A9DCDF" rx="11" ry="11" style="stroke: #A9DCDF; stroke-width: 1.0;"/><path d="M67.8,500 L64.5031,500 L64.0656,501 L64.0656,501 L64.5344,501 L65.05,501.625 L65.05,502 L65.05,502.375 L64.5344,503 L64.0656,503 L62.175,503 L61.5656,503 L61.05,502.375 L61.05,502 L61.05,501.625 L61.5656,501 L62.175,501 L64.4875,495 L63.6125,495 L62.5656,495 L62.05,494.375 L62.05,494 L62.05,493.625 L62.5656,493 L63.6125,493 L67.2844,493 L69.9719,501 L70.5344,501 L70.5344,501 L71.05,501.625 L71.05,502 L71.05,502.375 L70.5344,503 L69.9719,503 L68.0813,503 L67.5656,503 L67.05,502.375 L67.05,502 L67.05,501.625 L67.5656,501 L68.0813,501 L68.0813,501 L67.8,500 Z M67.2531,498 L66.05,494.4219 L65.0188,498 L67.2531,498 Z "/><ellipse cx="87.95" cy="498" fill="#84BE84" rx="3" ry="3" style="stroke: #038048; stroke-width: 1.0;"/><text fill="#000000" font-family="sans-serif" font-size="12" font-style="italic" lengthAdjust="spacingAndGlyphs" textLength="120" x="93.95" y="503.4102">AbstractPluginFactory</text><line style="stroke: #D4AC0D; stroke-width: 1.5;" x1="39" x2="229" y1="514.5" y2="514.5"/><line style="stroke: #D4AC0D; stroke-width: 1.5;" x1="39" x2="229" y1="522.5" y2="522.5"/><polygon fill="#FFFF44" points="49,528.5,53,532.5,49,536.5,45,532.5" style="stroke: #B38D22; stroke-width: 1.0;"/><text fill="#000000" font-family="sans-serif" font-size="11" font-style="italic" lengthAdjust="spacingAndGlyphs" textLength="115" x="58" y="537.9189">String getPluginName()</text><polygon fill="#FFFF44" points="49,542.3359,53,546.3359,49,550.3359,45,546.3359" style="stroke: #B38D22; stroke-width: 1.0;"/><text fill="#000000" font-family="sans-serif" font-size="11" font-style="italic" lengthAdjust="spacingAndGlyphs" textLength="166" x="58" y="551.7549">ReaderPlugin getPluginInstance()</text><!--MD5=[a0e88443257adb8def549c32ec694d43]
class ReaderPlugin--><rect fill="#FEFECE" height="89.5078" id="ReaderPlugin" style="stroke: #D4AC0D; stroke-width: 1.5;" width="207" x="309.5" y="475.5"/><ellipse cx="365.25" cy="491.5" fill="#B4A7E5" rx="11" ry="11" style="stroke: #B4A7E5; stroke-width: 1.0;"/><path d="M366.25,488.5 L366.25,494.5 L368.25,494.5 L368.7344,494.5 L369.25,495.125 L369.25,495.5 L369.25,495.875 L368.7344,496.5 L368.25,496.5 L362.25,496.5 L361.7656,496.5 L361.25,495.875 L361.25,495.5 L361.25,495.125 L361.7656,494.5 L362.25,494.5 L364.25,494.5 L364.25,488.5 L362.25,488.5 L361.7656,488.5 L361.25,487.875 L361.25,487.5 L361.25,487.125 L361.7656,486.5 L362.25,486.5 L368.25,486.5 L368.7344,486.5 L369.25,487.125 L369.25,487.5 L369.25,487.875 L368.7344,488.5 L368.25,488.5 L366.25,488.5 Z "/><ellipse cx="390.75" cy="491" fill="#84BE84" rx="3" ry="3" style="stroke: #038048; stroke-width: 1.0;"/><text fill="#000000" font-family="sans-serif" font-size="12" font-style="italic" lengthAdjust="spacingAndGlyphs" textLength="76" x="396.75" y="496.4102">ReaderPlugin</text><line style="stroke: #D4AC0D; stroke-width: 1.5;" x1="310.5" x2="515.5" y1="507.5" y2="507.5"/><line style="stroke: #D4AC0D; stroke-width: 1.5;" x1="310.5" x2="515.5" y1="515.5" y2="515.5"/><ellipse cx="320.5" cy="526.5" fill="#84BE84" rx="3" ry="3" style="stroke: #038048; stroke-width: 1.0;"/><text fill="#000000" font-family="sans-serif" font-size="11" lengthAdjust="spacingAndGlyphs" textLength="181" x="329.5" y="530.9189">Map&lt;String, SeReader&gt; getReaders()</text><ellipse cx="320.5" cy="540.3359" fill="#84BE84" rx="3" ry="3" style="stroke: #038048; stroke-width: 1.0;"/><text fill="#000000" font-family="sans-serif" font-size="11" lengthAdjust="spacingAndGlyphs" textLength="150" x="329.5" y="544.7549">Set&lt;String&gt; getReaderNames()</text><ellipse cx="320.5" cy="554.1719" fill="#84BE84" rx="3" ry="3" style="stroke: #038048; stroke-width: 1.0;"/><text fill="#000000" font-family="sans-serif" font-size="11" lengthAdjust="spacingAndGlyphs" textLength="166" x="329.5" y="558.5908">SeReader getReader(String name)</text><!--MD5=[dd49942b1f02350b5568646d3da64c49]
class SeReader--><rect fill="#FEFECE" height="103.3438" id="SeReader" style="stroke: #D4AC0D; stroke-width: 1.5;" width="340" x="596" y="469"/><ellipse cx="728.25" cy="485" fill="#B4A7E5" rx="11" ry="11" style="stroke: #B4A7E5; stroke-width: 1.0;"/><path d="M729.25,482 L729.25,488 L731.25,488 L731.7344,488 L732.25,488.625 L732.25,489 L732.25,489.375 L731.7344,490 L731.25,490 L725.25,490 L724.7656,490 L724.25,489.375 L724.25,489 L724.25,488.625 L724.7656,488 L725.25,488 L727.25,488 L727.25,482 L725.25,482 L724.7656,482 L724.25,481.375 L724.25,481 L724.25,480.625 L724.7656,480 L725.25,480 L731.25,480 L731.7344,480 L732.25,480.625 L732.25,481 L732.25,481.375 L731.7344,482 L731.25,482 L729.25,482 Z "/><ellipse cx="753.75" cy="484.5" fill="#84BE84" rx="3" ry="3" style="stroke: #038048; stroke-width: 1.0;"/><text fill="#000000" font-family="sans-serif" font-size="12" font-style="italic" lengthAdjust="spacingAndGlyphs" textLength="56" x="759.75" y="489.9102">SeReader</text><line style="stroke: #D4AC0D; stroke-width: 1.5;" x1="597" x2="935" y1="501" y2="501"/><line style="stroke: #D4AC0D; stroke-width: 1.5;" x1="597" x2="935" y1="509" y2="509"/><ellipse cx="607" cy="520" fill="#84BE84" rx="3" ry="3" style="stroke: #038048; stroke-width: 1.0;"/><text fill="#000000" font-family="sans-serif" font-size="11" lengthAdjust="spacingAndGlyphs" textLength="107" x="616" y="524.4189">boolean isSePresent()</text><ellipse cx="607" cy="533.8359" fill="#84BE84" rx="3" ry="3" style="stroke: #038048; stroke-width: 1.0;"/><text fill="#000000" font-family="sans-serif" font-size="11" lengthAdjust="spacingAndGlyphs" textLength="314" x="616" y="538.2549">addSeProtocolSetting(SeProtocol seProtocol, String protocolRule)</text><ellipse cx="607" cy="547.6719" fill="#84BE84" rx="3" ry="3" style="stroke: #038048; stroke-width: 1.0;"/><text fill="#000000" font-family="sans-serif" font-size="11" lengthAdjust="spacingAndGlyphs" textLength="301" x="616" y="552.0908">setSeProtocolSetting(Map&lt;SeProtocol, String&gt; protocolSetting)</text><ellipse cx="607" cy="561.5078" fill="#84BE84" rx="3" ry="3" style="stroke: #038048; stroke-width: 1.0;"/><text fill="#000000" font-family="sans-serif" font-size="11" lengthAdjust="spacingAndGlyphs" textLength="206" x="616" y="565.9268">TransmissionMode getTransmissionMode()</text><!--MD5=[273228bd21fa37477fe0813cbe95870a]
class SpecificPluginFactory--><rect fill="#FEFECE" height="75.6719" id="SpecificPluginFactory" style="stroke: #D4AC0D; stroke-width: 1.5;" width="187" x="66.5" y="692"/><ellipse cx="81.5" cy="708" fill="#ADD1B2" rx="11" ry="11" style="stroke: #ADD1B2; stroke-width: 1.0;"/><path d="M83.5,704.5 Q83.7031,704 83.9375,703.75 Q84.1719,703.5 84.4375,703.5 Q84.9063,703.5 85.2031,703.7813 Q85.5,704.0625 85.5,704.7188 L85.5,706.2813 Q85.5,706.9375 85.2188,707.2188 Q84.9375,707.5 84.5,707.5 Q84.1094,707.5 83.8594,707.3281 Q83.6094,707.1563 83.5,706.7031 Q83.4531,706.3906 83.2813,706.2188 Q82.9688,705.8906 82.4063,705.7031 Q81.8438,705.5 81.2813,705.5 Q80.5781,705.5 79.9844,705.7813 Q79.4063,706.0625 78.9531,706.6875 Q78.5,707.3125 78.5,708.1719 L78.5,709.0938 Q78.5,710.125 79.3438,710.8125 Q80.1875,711.5 81.6875,711.5 Q82.5781,711.5 83.2031,711.2969 Q83.5625,711.1875 83.9688,710.8281 Q84.2344,710.625 84.375,710.5625 Q84.5156,710.5 84.6875,710.5 Q85.0156,710.5 85.25,710.7656 Q85.5,711.0156 85.5,711.375 Q85.5,711.7188 85.1563,712.125 Q84.6563,712.7188 83.8594,713.0469 Q82.8125,713.5 81.5313,713.5 Q80.0313,713.5 78.8281,712.9063 Q77.8594,712.4375 77.1719,711.4219 Q76.5,710.4063 76.5,709.2031 L76.5,708.1094 Q76.5,706.8594 77.0938,705.7656 Q77.7031,704.6719 78.75,704.0938 Q79.8125,703.5 81,703.5 Q81.7188,703.5 82.3438,703.75 Q82.9688,704 83.5,704.5 Z "/><ellipse cx="100.5" cy="707.5" fill="#84BE84" rx="3" ry="3" style="stroke: #038048; stroke-width: 1.0;"/><text fill="#000000" font-family="sans-serif" font-size="12" font-weight="bold" lengthAdjust="spacingAndGlyphs" textLength="24" x="106.5" y="712.9102">final</text><text fill="#000000" font-family="sans-serif" font-size="12" lengthAdjust="spacingAndGlyphs" textLength="117" x="133.5" y="712.9102">SpecificPluginFactory</text><line style="stroke: #D4AC0D; stroke-width: 1.5;" x1="67.5" x2="252.5" y1="724" y2="724"/><line style="stroke: #D4AC0D; stroke-width: 1.5;" x1="67.5" x2="252.5" y1="732" y2="732"/><polygon fill="#FFFF44" points="77.5,738,81.5,742,77.5,746,73.5,742" style="stroke: #B38D22; stroke-width: 1.0;"/><text fill="#000000" font-family="sans-serif" font-size="11" lengthAdjust="spacingAndGlyphs" textLength="109" x="86.5" y="747.4189">String getPluginName()</text><polygon fill="#FFFF44" points="77.5,751.8359,81.5,755.8359,77.5,759.8359,73.5,755.8359" style="stroke: #B38D22; stroke-width: 1.0;"/><text fill="#000000" font-family="sans-serif" font-size="11" lengthAdjust="spacingAndGlyphs" textLength="158" x="86.5" y="761.2549">ReaderPlugin getPluginInstance()</text><!--MD5=[0f8b8cab079f94c46492aeaa0dde1551]
class SpecificPlugin--><rect fill="#FEFECE" height="111.5313" id="SpecificPlugin" style="stroke: #D4AC0D; stroke-width: 1.5;" width="160" x="333" y="674"/><ellipse cx="365.55" cy="694.0938" fill="#ADD1B2" rx="11" ry="11" style="stroke: #ADD1B2; stroke-width: 1.0;"/><path d="M367.55,690.5938 Q367.7531,690.0938 367.9875,689.8438 Q368.2219,689.5938 368.4875,689.5938 Q368.9563,689.5938 369.2531,689.875 Q369.55,690.1563 369.55,690.8125 L369.55,692.375 Q369.55,693.0313 369.2688,693.3125 Q368.9875,693.5938 368.55,693.5938 Q368.1594,693.5938 367.9094,693.4219 Q367.6594,693.25 367.55,692.7969 Q367.5031,692.4844 367.3313,692.3125 Q367.0188,691.9844 366.4563,691.7969 Q365.8938,691.5938 365.3313,691.5938 Q364.6281,691.5938 364.0344,691.875 Q363.4563,692.1563 363.0031,692.7813 Q362.55,693.4063 362.55,694.2656 L362.55,695.1875 Q362.55,696.2188 363.3938,696.9063 Q364.2375,697.5938 365.7375,697.5938 Q366.6281,697.5938 367.2531,697.3906 Q367.6125,697.2813 368.0188,696.9219 Q368.2844,696.7188 368.425,696.6563 Q368.5656,696.5938 368.7375,696.5938 Q369.0656,696.5938 369.3,696.8594 Q369.55,697.1094 369.55,697.4688 Q369.55,697.8125 369.2063,698.2188 Q368.7063,698.8125 367.9094,699.1406 Q366.8625,699.5938 365.5813,699.5938 Q364.0813,699.5938 362.8781,699 Q361.9094,698.5313 361.2219,697.5156 Q360.55,696.5 360.55,695.2969 L360.55,694.2031 Q360.55,692.9531 361.1438,691.8594 Q361.7531,690.7656 362.8,690.1875 Q363.8625,689.5938 365.05,689.5938 Q365.7688,689.5938 366.3938,689.8438 Q367.0188,690.0938 367.55,690.5938 Z "/><text fill="#000000" font-family="sans-serif" font-size="12" font-style="italic" lengthAdjust="spacingAndGlyphs" textLength="66" x="394.95" y="691.457">«Singleton»</text><polygon fill="#4177AF" points="388.45,697.1406,384.45,703.1406,392.45,703.1406" style="stroke: #1963A0; stroke-width: 1.0;"/><text fill="#000000" font-family="sans-serif" font-size="12" lengthAdjust="spacingAndGlyphs" textLength="78" x="394.45" y="706.5508">SpecificPlugin</text><line style="stroke: #D4AC0D; stroke-width: 1.5;" x1="334" x2="492" y1="714.1875" y2="714.1875"/><rect fill="none" height="6" style="stroke: #C82930; stroke-width: 1.0;" width="6" x="341" y="722.1875"/><text fill="#000000" font-family="sans-serif" font-size="11" lengthAdjust="spacingAndGlyphs" textLength="57" x="353" y="729.6064">String name</text><line style="stroke: #D4AC0D; stroke-width: 1.5;" x1="334" x2="492" y1="736.0234" y2="736.0234"/><rect fill="#F24D5C" height="6" style="stroke: #C82930; stroke-width: 1.0;" width="6" x="341" y="744.0234"/><text fill="#000000" font-family="sans-serif" font-size="11" lengthAdjust="spacingAndGlyphs" textLength="75" x="353" y="751.4424">SpecificPlugin()</text><ellipse cx="344" cy="760.8594" fill="#84BE84" rx="3" ry="3" style="stroke: #038048; stroke-width: 1.0;"/><text fill="#000000" font-family="sans-serif" font-size="11" lengthAdjust="spacingAndGlyphs" text-decoration="underline" textLength="134" x="353" y="765.2783">SpecificPlugin getInstance()</text><ellipse cx="344" cy="774.6953" fill="#84BE84" rx="3" ry="3" style="stroke: #038048; stroke-width: 1.0;"/><text fill="#000000" font-family="sans-serif" font-size="11" font-weight="bold" lengthAdjust="spacingAndGlyphs" textLength="23" x="353" y="779.1143">final</text><text fill="#000000" font-family="sans-serif" font-size="11" lengthAdjust="spacingAndGlyphs" textLength="81" x="379" y="779.1143">String getName()</text><!--MD5=[4ab0a37e4eea002adccb7015b38062eb]
class SpecificReader--><rect fill="#FEFECE" height="89.5078" id="SpecificReader" style="stroke: #D4AC0D; stroke-width: 1.5;" width="133" x="572.5" y="685"/><ellipse cx="590.2" cy="701" fill="#ADD1B2" rx="11" ry="11" style="stroke: #ADD1B2; stroke-width: 1.0;"/><path d="M592.2,697.5 Q592.4031,697 592.6375,696.75 Q592.8719,696.5 593.1375,696.5 Q593.6063,696.5 593.9031,696.7813 Q594.2,697.0625 594.2,697.7188 L594.2,699.2813 Q594.2,699.9375 593.9188,700.2188 Q593.6375,700.5 593.2,700.5 Q592.8094,700.5 592.5594,700.3281 Q592.3094,700.1563 592.2,699.7031 Q592.1531,699.3906 591.9813,699.2188 Q591.6688,698.8906 591.1063,698.7031 Q590.5438,698.5 589.9813,698.5 Q589.2781,698.5 588.6844,698.7813 Q588.1063,699.0625 587.6531,699.6875 Q587.2,700.3125 587.2,701.1719 L587.2,702.0938 Q587.2,703.125 588.0438,703.8125 Q588.8875,704.5 590.3875,704.5 Q591.2781,704.5 591.9031,704.2969 Q592.2625,704.1875 592.6688,703.8281 Q592.9344,703.625 593.075,703.5625 Q593.2156,703.5 593.3875,703.5 Q593.7156,703.5 593.95,703.7656 Q594.2,704.0156 594.2,704.375 Q594.2,704.7188 593.8563,705.125 Q593.3563,705.7188 592.5594,706.0469 Q591.5125,706.5 590.2313,706.5 Q588.7313,706.5 587.5281,705.9063 Q586.5594,705.4375 585.8719,704.4219 Q585.2,703.4063 585.2,702.2031 L585.2,701.1094 Q585.2,699.8594 585.7938,698.7656 Q586.4031,697.6719 587.45,697.0938 Q588.5125,696.5 589.7,696.5 Q590.4188,696.5 591.0438,696.75 Q591.6688,697 592.2,697.5 Z "/><polygon fill="#4177AF" points="609.8,696.5,605.8,702.5,613.8,702.5" style="stroke: #1963A0; stroke-width: 1.0;"/><text fill="#000000" font-family="sans-serif" font-size="12" lengthAdjust="spacingAndGlyphs" textLength="84" x="615.8" y="705.9102">SpecificReader</text><line style="stroke: #D4AC0D; stroke-width: 1.5;" x1="573.5" x2="704.5" y1="717" y2="717"/><rect fill="none" height="6" style="stroke: #C82930; stroke-width: 1.0;" width="6" x="580.5" y="725"/><text fill="#000000" font-family="sans-serif" font-size="11" lengthAdjust="spacingAndGlyphs" textLength="57" x="592.5" y="732.4189">String name</text><line style="stroke: #D4AC0D; stroke-width: 1.5;" x1="573.5" x2="704.5" y1="738.8359" y2="738.8359"/><polygon fill="#FFFF44" points="583.5,744.8359,587.5,748.8359,583.5,752.8359,579.5,748.8359" style="stroke: #B38D22; stroke-width: 1.0;"/><text fill="#000000" font-family="sans-serif" font-size="11" lengthAdjust="spacingAndGlyphs" textLength="82" x="592.5" y="754.2549">SpecificReader()</text><ellipse cx="583.5" cy="763.6719" fill="#84BE84" rx="3" ry="3" style="stroke: #038048; stroke-width: 1.0;"/><text fill="#000000" font-family="sans-serif" font-size="11" font-weight="bold" lengthAdjust="spacingAndGlyphs" textLength="23" x="592.5" y="768.0908">final</text><text fill="#000000" font-family="sans-serif" font-size="11" lengthAdjust="spacingAndGlyphs" textLength="81" x="618.5" y="768.0908">String getName()</text><!--MD5=[98fb93546a7dc75f66b7a26283e02bb5]
link SeProxyService to ReaderPlugin--><path d="M305.592,400.0367 C305.592,400.0367 346.776,445.843 364.31,465.345 " fill="none" id="SeProxyService-ReaderPlugin" style="stroke: #A80036; stroke-width: 1.0;"/><polygon fill="#A80036" points="373.201,475.234,370.1583,465.8669,369.8581,471.5158,364.2092,471.2156,373.201,475.234" style="stroke: #A80036; stroke-width: 1.0;"/><line style="stroke: #A80036; stroke-width: 1.0;" x1="369.8581" x2="364.5095" y1="471.5158" y2="465.567"/><polygon fill="#A80036" points="297.569,391.113,298.6059,398.2492,305.592,400.0367,304.555,392.9005,297.569,391.113" style="stroke: #A80036; stroke-width: 1.0;"/><text fill="#000000" font-family="sans-serif" font-size="13" lengthAdjust="spacingAndGlyphs" textLength="41" x="339" y="435.4951">plugins</text><text fill="#000000" font-family="sans-serif" font-size="13" lengthAdjust="spacingAndGlyphs" textLength="7" x="296.4696" y="412.1827">1</text><text fill="#000000" font-family="sans-serif" font-size="13" lengthAdjust="spacingAndGlyphs" textLength="5" x="361.724" y="464.6374">*</text><!--MD5=[c88fac8de0d16551763276c4b9088a93]
link ReaderPlugin to SeReader--><path d="M528.526,520.5 C528.526,520.5 564.616,520.5 582.659,520.5 " fill="none" id="ReaderPlugin-SeReader" style="stroke: #A80036; stroke-width: 1.0;"/><polygon fill="#A80036" points="595.803,520.5,586.803,516.5,590.803,520.5,586.803,524.5,595.803,520.5" style="stroke: #A80036; stroke-width: 1.0;"/><line style="stroke: #A80036; stroke-width: 1.0;" x1="590.803" x2="582.803" y1="520.5" y2="520.5"/><polygon fill="#A80036" points="516.526,520.5,522.526,524.5,528.526,520.5,522.526,516.5,516.526,520.5" style="stroke: #A80036; stroke-width: 1.0;"/><text fill="#000000" font-family="sans-serif" font-size="13" lengthAdjust="spacingAndGlyphs" textLength="43" x="534.75" y="513.9951">readers</text><text fill="#000000" font-family="sans-serif" font-size="13" lengthAdjust="spacingAndGlyphs" textLength="7" x="524.3857" y="517.4386">1</text><text fill="#000000" font-family="sans-serif" font-size="13" lengthAdjust="spacingAndGlyphs" textLength="5" x="582.9777" y="517.6328">*</text><!--MD5=[628c6eb29572115a3ae82dff7e7e6b47]
link SeProxyService to AbstractPluginFactory--><path d="M178.6114,402.3277 C178.6114,402.3277 160.386,450.198 152.859,469.967 " fill="none" id="SeProxyService-AbstractPluginFactory" style="stroke: #A80036; stroke-width: 1.0;"/><polygon fill="#A80036" points="148.136,482.373,155.0765,475.3852,149.915,477.7002,147.6,472.5387,148.136,482.373" style="stroke: #A80036; stroke-width: 1.0;"/><line style="stroke: #A80036; stroke-width: 1.0;" x1="149.915" x2="152.7615" y1="477.7002" y2="470.223"/><polygon fill="#A80036" points="182.881,391.113,177.0079,395.2972,178.6114,402.3277,184.4844,398.1436,182.881,391.113" style="stroke: #A80036; stroke-width: 1.0;"/><text fill="#000000" font-family="sans-serif" font-size="13" lengthAdjust="spacingAndGlyphs" textLength="50" x="172" y="435.4951">registers</text><text fill="#000000" font-family="sans-serif" font-size="13" lengthAdjust="spacingAndGlyphs" textLength="7" x="173.0008" y="412.1827">1</text><text fill="#000000" font-family="sans-serif" font-size="13" lengthAdjust="spacingAndGlyphs" textLength="5" x="145.2087" y="471.7123">*</text><!--MD5=[ed432611766c8e88b892041f7da1367f]
link AbstractPluginFactory to ReaderPlugin--><path d="M230.016,520.5 C253.856,520.5 279.578,520.5 303.991,520.5 " fill="none" id="AbstractPluginFactory-&gt;ReaderPlugin" style="stroke: #A80036; stroke-width: 1.0;"/><polygon fill="#A80036" points="309.179,520.5,300.179,516.5,304.179,520.5,300.179,524.5,309.179,520.5" style="stroke: #A80036; stroke-width: 1.0;"/><text fill="#000000" font-family="sans-serif" font-size="13" lengthAdjust="spacingAndGlyphs" textLength="43" x="248.25" y="513.9951">creates</text><text fill="#000000" font-family="sans-serif" font-size="13" lengthAdjust="spacingAndGlyphs" textLength="7" x="237.9462" y="517.3847">1</text><text fill="#000000" font-family="sans-serif" font-size="13" lengthAdjust="spacingAndGlyphs" textLength="7" x="294.633" y="517.4623">1</text><!--MD5=[606af266cb1c3ee5489afec7c4e81055]
link SpecificPluginFactory to SpecificPlugin--><path d="M253.848,730 C278.005,730 303.868,730 327.572,730 " fill="none" id="SpecificPluginFactory-&gt;SpecificPlugin" style="stroke: #A80036; stroke-width: 1.0;"/><polygon fill="#A80036" points="332.596,730,323.596,726,327.596,730,323.596,734,332.596,730" style="stroke: #A80036; stroke-width: 1.0;"/><text fill="#000000" font-family="sans-serif" font-size="13" lengthAdjust="spacingAndGlyphs" textLength="43" x="271.75" y="723.4951">creates</text><text fill="#000000" font-family="sans-serif" font-size="13" lengthAdjust="spacingAndGlyphs" textLength="7" x="261.6054" y="726.8847">1</text><text fill="#000000" font-family="sans-serif" font-size="13" lengthAdjust="spacingAndGlyphs" textLength="7" x="318.1233" y="726.8191">1</text><!--MD5=[c0f848f1ce686e4cacbc8a0551faf0fe]
link SpecificPlugin to SpecificReader--><path d="M505.315,730 C505.315,730 542.219,730 559.27,730 " fill="none" id="SpecificPlugin-SpecificReader" style="stroke: #A80036; stroke-width: 1.0;"/><polygon fill="#A80036" points="572.367,730,563.367,726,567.367,730,563.367,734,572.367,730" style="stroke: #A80036; stroke-width: 1.0;"/><line style="stroke: #A80036; stroke-width: 1.0;" x1="567.367" x2="559.367" y1="730" y2="729.9999"/><polygon fill="#A80036" points="493.315,730,499.315,734,505.315,730,499.315,726,493.315,730" style="stroke: #A80036; stroke-width: 1.0;"/><text fill="#000000" font-family="sans-serif" font-size="13" lengthAdjust="spacingAndGlyphs" textLength="43" x="511.25" y="723.4951">readers</text><text fill="#000000" font-family="sans-serif" font-size="13" lengthAdjust="spacingAndGlyphs" textLength="7" x="501.0417" y="726.7954">1</text><text fill="#000000" font-family="sans-serif" font-size="13" lengthAdjust="spacingAndGlyphs" textLength="5" x="559.3735" y="726.6189">*</text><!--MD5=[f8c43c6217b3f7a11e63ade92879ea46]
link SpecificTerminal to SeProxyService--><path d="M217,108.364 C217,131.649 217,168.961 217,204.464 " fill="none" id="SpecificTerminal-&gt;SeProxyService" style="stroke: #A80036; stroke-width: 1.0;"/><polygon fill="#A80036" points="217,209.687,221,200.687,217,204.687,213,200.687,217,209.687" style="stroke: #A80036; stroke-width: 1.0;"/><text fill="#000000" font-family="sans-serif" font-size="13" lengthAdjust="spacingAndGlyphs" textLength="28" x="218" y="154.4951">uses</text><polygon fill="#000000" points="227.5,163.3516,230.5,169.3516,233.5,163.3516,227.5,163.3516" style="stroke: #000000; stroke-width: 1.0;"/><!--MD5=[5e2e42b3428cab7eb3f2532a1d684e48]
reverse link AbstractPluginFactory to SpecificPluginFactory--><path d="M141.153,578.59 C145.681,614.722 151.403,660.392 155.348,691.875 " fill="none" id="AbstractPluginFactory&lt;-SpecificPluginFactory" style="stroke: #A80036; stroke-width: 1.0;"/><polygon fill="none" points="134.189,579.312,138.648,558.597,148.081,577.571,134.189,579.312" style="stroke: #A80036; stroke-width: 1.0;"/><text fill="#000000" font-family="sans-serif" font-size="13" lengthAdjust="spacingAndGlyphs" textLength="46" x="148" y="618.4951">extends</text><!--MD5=[7c148b1c73f50606d6f270d6e2289f39]
reverse link ReaderPlugin to SpecificPlugin--><path d="M413,585.597 C413,613.884 413,646.799 413,673.956 " fill="none" id="ReaderPlugin&lt;-SpecificPlugin" style="stroke: #A80036; stroke-width: 1.0; stroke-dasharray: 7.0,7.0;"/><polygon fill="none" points="406,585.505,413,565.505,420,585.505,406,585.505" style="stroke: #A80036; stroke-width: 1.0;"/><text fill="#000000" font-family="sans-serif" font-size="13" lengthAdjust="spacingAndGlyphs" textLength="67" x="414" y="618.4951">implements</text><!--MD5=[4afba5938fcadf10f22a5ff47d317fb7]
reverse link SeReader to SpecificReader--><path d="M724.362,589.531 C705.209,620.824 683.034,657.055 666.086,684.746 " fill="none" id="SeReader&lt;-SpecificReader" style="stroke: #A80036; stroke-width: 1.0; stroke-dasharray: 7.0,7.0;"/><polygon fill="none" points="718.521,585.665,734.932,572.26,730.462,592.973,718.521,585.665" style="stroke: #A80036; stroke-width: 1.0;"/><text fill="#000000" font-family="sans-serif" font-size="13" lengthAdjust="spacingAndGlyphs" textLength="67" x="714" y="618.4951">implements</text><!--MD5=[21eccb33791b416f314e364fcd9e63d4]
@startuml
skinparam ClassBorderColor #D4AC0D
skinparam stereotypeABorderColor #A9DCDF
skinparam stereotypeIBorderColor #B4A7E5
skinparam stereotypeCBorderColor #ADD1B2
skinparam stereotypeEBorderColor #EB93DF
skinparam shadowing false

skinparam ClassBackgroundColor<<red>> #FDEDEC
skinparam ClassBorderColor<<red>> #E74C3C
hide <<red>> stereotype
skinparam ClassBackgroundColor<<purple>> #F4ECF7
skinparam ClassBorderColor<<purple>> #8E44AD
hide <<purple>> stereotype
skinparam ClassBackgroundColor<<blue>> #EBF5FB
skinparam ClassBorderColor<<blue>> #3498DB
hide <<blue>> stereotype
skinparam ClassBackgroundColor<<green>> #EAFAF1
skinparam ClassBorderColor<<green>> #2ECC71
hide <<green>> stereotype
skinparam ClassBackgroundColor<<grey>> #EAECEE
skinparam ClassBorderColor<<grey>> #2C3E50
hide <<grey>> stereotype

package external.terminalapplication #3399FF {
  class SpecificTerminal
}

package org.eclipse.keyple.core.seproxy #FFFFFF {
+class "<b>final</b> SeProxyService" as SeProxyService << Singleton >> {
  +{static}SeProxyService getInstance()
  +String getVersion()

  +ReaderPlugin registerPlugin(AbstractPluginFactory pluginFactory)
  +boolean isRegistered(String pluginName)
  +boolean unregisterPlugin(String pluginName)

  +ReaderPlugin getPlugin(String name)
  +Set<ReaderPlugin> getPlugins()
}
+abstract AbstractPluginFactory {
  {abstract} #String getPluginName()
  {abstract} #ReaderPlugin getPluginInstance()
}
+interface ReaderPlugin {
  +Map<String, SeReader> getReaders()
  +Set<String> getReaderNames()
  +SeReader getReader(String name)
}
+interface SeReader {
  +boolean isSePresent()
  +addSeProtocolSetting(SeProtocol seProtocol, String protocolRule)
  +setSeProtocolSetting(Map<SeProtocol, String> protocolSetting)
  +TransmissionMode getTransmissionMode()
}

  SeProxyService "1" *-down-> "*" ReaderPlugin : plugins
  ReaderPlugin "1" *-right-> "*" SeReader : readers

  SeProxyService "1" *- -> "*" AbstractPluginFactory : registers
  AbstractPluginFactory "1" -right-> "1" ReaderPlugin : creates
}

package plugin.specific #D7BDE2 {
  +class "<b>final</b> SpecificPluginFactory" as SpecificPluginFactory {
    #String getPluginName()
    #ReaderPlugin getPluginInstance()
  }

  ~class SpecificPlugin << Singleton >> {
    -String name
    -SpecificPlugin()
    +{static} SpecificPlugin getInstance()
    +<b>final</b> String getName()
  }

  ~class SpecificReader {
    -String name
    #SpecificReader()
    +<b>final</b> String getName()
  }

  SpecificPluginFactory "1" -right-> "1" SpecificPlugin : creates
  SpecificPlugin "1" *-right-> "*" SpecificReader : readers
}

SpecificTerminal -down-> SeProxyService : uses >

AbstractPluginFactory <|-down- SpecificPluginFactory : extends
ReaderPlugin <|.. SpecificPlugin : implements
SeReader <|.. SpecificReader : implements
@enduml

PlantUML version 1.2020.09(Sun May 10 14:51:06 MUT 2020)
(GPL source distribution)
Java Runtime: OpenJDK Runtime Environment
JVM: OpenJDK 64-Bit Server VM
Java Version: 11.0.6+8-b765.40
Operating System: Windows 10
Default Encoding: Cp1252
Language: fr
Country: FR
--></g></svg>