<?xml version="1.0" encoding="UTF-8" standalone="no"?><svg xmlns="http://www.w3.org/2000/svg" xmlns:xlink="http://www.w3.org/1999/xlink" contentScriptType="application/ecmascript" contentStyleType="text/css" height="760px" preserveAspectRatio="none" style="width:1159px;height:760px;" version="1.1" viewBox="0 0 1159 760" width="1159px" zoomAndPan="magnify"><defs/><g><!--MD5=[2bcc54f38766b998c5e88efdbc7d1696]
cluster org.eclipse.keyple.core.seproxy--><polygon fill="#FFFFFF" points="22,24,253,24,260,47.6094,1137,47.6094,1137,748,22,748,22,24" style="stroke: #000000; stroke-width: 1.5;"/><line style="stroke: #000000; stroke-width: 1.5;" x1="22" x2="260" y1="47.6094" y2="47.6094"/><text fill="#000000" font-family="sans-serif" font-size="14" font-weight="bold" lengthAdjust="spacingAndGlyphs" textLength="225" x="26" y="40.5332">org.eclipse.keyple.core.seproxy</text><!--MD5=[2e31800f208179cab94650aeb782e4d8]
cluster event--><polygon fill="#FFFFFF" points="324,458,371,458,378,481.6094,1113,481.6094,1113,724,324,724,324,458" style="stroke: #000000; stroke-width: 1.5;"/><line style="stroke: #000000; stroke-width: 1.5;" x1="324" x2="378" y1="481.6094" y2="481.6094"/><text fill="#000000" font-family="sans-serif" font-size="14" font-weight="bold" lengthAdjust="spacingAndGlyphs" textLength="41" x="328" y="474.5332">event</text><!--MD5=[f0c44d4c6fb415056b2c0aabd573961b]
class SeProxyService--><rect fill="#FEFECE" height="153.0391" id="SeProxyService" style="stroke: #D4AC0D; stroke-width: 1.5;" width="340" x="140" y="60"/><ellipse cx="244.75" cy="80.0938" fill="#ADD1B2" rx="11" ry="11" style="stroke: #ADD1B2; stroke-width: 1.0;"/><path d="M246.75,76.5938 Q246.9531,76.0938 247.1875,75.8438 Q247.4219,75.5938 247.6875,75.5938 Q248.1563,75.5938 248.4531,75.875 Q248.75,76.1563 248.75,76.8125 L248.75,78.375 Q248.75,79.0313 248.4688,79.3125 Q248.1875,79.5938 247.75,79.5938 Q247.3594,79.5938 247.1094,79.4219 Q246.8594,79.25 246.75,78.7969 Q246.7031,78.4844 246.5313,78.3125 Q246.2188,77.9844 245.6563,77.7969 Q245.0938,77.5938 244.5313,77.5938 Q243.8281,77.5938 243.2344,77.875 Q242.6563,78.1563 242.2031,78.7813 Q241.75,79.4063 241.75,80.2656 L241.75,81.1875 Q241.75,82.2188 242.5938,82.9063 Q243.4375,83.5938 244.9375,83.5938 Q245.8281,83.5938 246.4531,83.3906 Q246.8125,83.2813 247.2188,82.9219 Q247.4844,82.7188 247.625,82.6563 Q247.7656,82.5938 247.9375,82.5938 Q248.2656,82.5938 248.5,82.8594 Q248.75,83.1094 248.75,83.4688 Q248.75,83.8125 248.4063,84.2188 Q247.9063,84.8125 247.1094,85.1406 Q246.0625,85.5938 244.7813,85.5938 Q243.2813,85.5938 242.0781,85 Q241.1094,84.5313 240.4219,83.5156 Q239.75,82.5 239.75,81.2969 L239.75,80.2031 Q239.75,78.9531 240.3438,77.8594 Q240.9531,76.7656 242,76.1875 Q243.0625,75.5938 244.25,75.5938 Q244.9688,75.5938 245.5938,75.8438 Q246.2188,76.0938 246.75,76.5938 Z "/><text fill="#000000" font-family="sans-serif" font-size="12" font-style="italic" lengthAdjust="spacingAndGlyphs" textLength="66" x="293.25" y="77.457">«Singleton»</text><ellipse cx="270.25" cy="87.1406" fill="#84BE84" rx="3" ry="3" style="stroke: #038048; stroke-width: 1.0;"/><text fill="#000000" font-family="sans-serif" font-size="12" font-weight="bold" lengthAdjust="spacingAndGlyphs" textLength="24" x="276.25" y="92.5508">final</text><text fill="#000000" font-family="sans-serif" font-size="12" lengthAdjust="spacingAndGlyphs" textLength="84" x="303.25" y="92.5508">SeProxyService</text><line style="stroke: #D4AC0D; stroke-width: 1.5;" x1="141" x2="479" y1="100.1875" y2="100.1875"/><line style="stroke: #D4AC0D; stroke-width: 1.5;" x1="141" x2="479" y1="108.1875" y2="108.1875"/><ellipse cx="151" cy="119.1875" fill="#84BE84" rx="3" ry="3" style="stroke: #038048; stroke-width: 1.0;"/><text fill="#000000" font-family="sans-serif" font-size="11" lengthAdjust="spacingAndGlyphs" text-decoration="underline" textLength="145" x="160" y="123.6064">SeProxyService getInstance()</text><ellipse cx="151" cy="133.0234" fill="#84BE84" rx="3" ry="3" style="stroke: #038048; stroke-width: 1.0;"/><text fill="#000000" font-family="sans-serif" font-size="11" lengthAdjust="spacingAndGlyphs" textLength="92" x="160" y="137.4424">String getVersion()</text><ellipse cx="151" cy="146.8594" fill="#84BE84" rx="3" ry="3" style="stroke: #038048; stroke-width: 1.0;"/><text fill="#000000" font-family="sans-serif" font-size="11" lengthAdjust="spacingAndGlyphs" textLength="314" x="160" y="151.2783">ReaderPlugin registerPlugin(AbstractPluginFactory pluginFactory)</text><ellipse cx="151" cy="160.6953" fill="#84BE84" rx="3" ry="3" style="stroke: #038048; stroke-width: 1.0;"/><text fill="#000000" font-family="sans-serif" font-size="11" lengthAdjust="spacingAndGlyphs" textLength="195" x="160" y="165.1143">boolean isRegistered(String pluginName)</text><ellipse cx="151" cy="174.5313" fill="#84BE84" rx="3" ry="3" style="stroke: #038048; stroke-width: 1.0;"/><text fill="#000000" font-family="sans-serif" font-size="11" lengthAdjust="spacingAndGlyphs" textLength="212" x="160" y="178.9502">boolean unregisterPlugin(String pluginName)</text><ellipse cx="151" cy="188.3672" fill="#84BE84" rx="3" ry="3" style="stroke: #038048; stroke-width: 1.0;"/><text fill="#000000" font-family="sans-serif" font-size="11" lengthAdjust="spacingAndGlyphs" textLength="174" x="160" y="192.7861">ReaderPlugin getPlugin(String name)</text><ellipse cx="151" cy="202.2031" fill="#84BE84" rx="3" ry="3" style="stroke: #038048; stroke-width: 1.0;"/><text fill="#000000" font-family="sans-serif" font-size="11" lengthAdjust="spacingAndGlyphs" textLength="151" x="160" y="206.6221">Set&lt;ReaderPlugin&gt; getPlugins()</text><!--MD5=[f32ad7e99aabd41d9b4c18d27e28445d]
class ProxyElement--><rect fill="#FEFECE" height="117.1797" id="ProxyElement" style="stroke: #D4AC0D; stroke-width: 1.5;" width="256" x="524" y="78"/><ellipse cx="603.75" cy="94" fill="#B4A7E5" rx="11" ry="11" style="stroke: #B4A7E5; stroke-width: 1.0;"/><path d="M604.75,91 L604.75,97 L606.75,97 L607.2344,97 L607.75,97.625 L607.75,98 L607.75,98.375 L607.2344,99 L606.75,99 L600.75,99 L600.2656,99 L599.75,98.375 L599.75,98 L599.75,97.625 L600.2656,97 L600.75,97 L602.75,97 L602.75,91 L600.75,91 L600.2656,91 L599.75,90.375 L599.75,90 L599.75,89.625 L600.2656,89 L600.75,89 L606.75,89 L607.2344,89 L607.75,89.625 L607.75,90 L607.75,90.375 L607.2344,91 L606.75,91 L604.75,91 Z "/><polygon fill="#4177AF" points="629.25,89.5,625.25,95.5,633.25,95.5" style="stroke: #1963A0; stroke-width: 1.0;"/><text fill="#000000" font-family="sans-serif" font-size="12" font-style="italic" lengthAdjust="spacingAndGlyphs" textLength="77" x="635.25" y="98.9102">ProxyElement</text><line style="stroke: #D4AC0D; stroke-width: 1.5;" x1="525" x2="779" y1="110" y2="110"/><line style="stroke: #D4AC0D; stroke-width: 1.5;" x1="525" x2="779" y1="118" y2="118"/><ellipse cx="535" cy="129" fill="#84BE84" rx="3" ry="3" style="stroke: #038048; stroke-width: 1.0;"/><text fill="#000000" font-family="sans-serif" font-size="11" lengthAdjust="spacingAndGlyphs" textLength="81" x="544" y="133.4189">String getName()</text><text fill="#000000" font-family="sans-serif" font-size="11" lengthAdjust="spacingAndGlyphs" textLength="0" x="547" y="147.2549"/><ellipse cx="535" cy="156.6719" fill="#84BE84" rx="3" ry="3" style="stroke: #038048; stroke-width: 1.0;"/><text fill="#000000" font-family="sans-serif" font-size="11" lengthAdjust="spacingAndGlyphs" textLength="175" x="544" y="161.0908">Map&lt;String, String&gt; getParameters()</text><ellipse cx="535" cy="170.5078" fill="#84BE84" rx="3" ry="3" style="stroke: #038048; stroke-width: 1.0;"/><text fill="#000000" font-family="sans-serif" font-size="11" lengthAdjust="spacingAndGlyphs" textLength="183" x="544" y="174.9268">setParameter(String key, String value)</text><ellipse cx="535" cy="184.3438" fill="#84BE84" rx="3" ry="3" style="stroke: #038048; stroke-width: 1.0;"/><text fill="#000000" font-family="sans-serif" font-size="11" lengthAdjust="spacingAndGlyphs" textLength="230" x="544" y="188.7627">setParameters(Map&lt;String, String&gt; parameters)</text><!--MD5=[589e28272a74d38b4e0a352c82e7b326]
class AbstractPluginFactory--><rect fill="#FEFECE" height="75.6719" id="AbstractPluginFactory" style="stroke: #D4AC0D; stroke-width: 1.5;" width="192" x="97" y="304.5"/><ellipse cx="125.05" cy="320.5" fill="#A9DCDF" rx="11" ry="11" style="stroke: #A9DCDF; stroke-width: 1.0;"/><path d="M126.8,322 L123.5031,322 L123.0656,323 L123.0656,323 L123.5344,323 L124.05,323.625 L124.05,324 L124.05,324.375 L123.5344,325 L123.0656,325 L121.175,325 L120.5656,325 L120.05,324.375 L120.05,324 L120.05,323.625 L120.5656,323 L121.175,323 L123.4875,317 L122.6125,317 L121.5656,317 L121.05,316.375 L121.05,316 L121.05,315.625 L121.5656,315 L122.6125,315 L126.2844,315 L128.9719,323 L129.5344,323 L129.5344,323 L130.05,323.625 L130.05,324 L130.05,324.375 L129.5344,325 L128.9719,325 L127.0813,325 L126.5656,325 L126.05,324.375 L126.05,324 L126.05,323.625 L126.5656,323 L127.0813,323 L127.0813,323 L126.8,322 Z M126.2531,320 L125.05,316.4219 L124.0188,320 L126.2531,320 Z "/><ellipse cx="146.95" cy="320" fill="#84BE84" rx="3" ry="3" style="stroke: #038048; stroke-width: 1.0;"/><text fill="#000000" font-family="sans-serif" font-size="12" font-style="italic" lengthAdjust="spacingAndGlyphs" textLength="120" x="152.95" y="325.4102">AbstractPluginFactory</text><line style="stroke: #D4AC0D; stroke-width: 1.5;" x1="98" x2="288" y1="336.5" y2="336.5"/><line style="stroke: #D4AC0D; stroke-width: 1.5;" x1="98" x2="288" y1="344.5" y2="344.5"/><polygon fill="#FFFF44" points="108,350.5,112,354.5,108,358.5,104,354.5" style="stroke: #B38D22; stroke-width: 1.0;"/><text fill="#000000" font-family="sans-serif" font-size="11" font-style="italic" lengthAdjust="spacingAndGlyphs" textLength="115" x="117" y="359.9189">String getPluginName()</text><polygon fill="#FFFF44" points="108,364.3359,112,368.3359,108,372.3359,104,368.3359" style="stroke: #B38D22; stroke-width: 1.0;"/><text fill="#000000" font-family="sans-serif" font-size="11" font-style="italic" lengthAdjust="spacingAndGlyphs" textLength="166" x="117" y="373.7549">ReaderPlugin getPluginInstance()</text><!--MD5=[a0e88443257adb8def549c32ec694d43]
class ReaderPlugin--><rect fill="#F0FFFF" height="89.5078" id="ReaderPlugin" style="stroke: #0000FF; stroke-width: 1.5;" width="207" x="368.5" y="297.5"/><ellipse cx="424.25" cy="313.5" fill="#B4A7E5" rx="11" ry="11" style="stroke: #B4A7E5; stroke-width: 1.0;"/><path d="M425.25,310.5 L425.25,316.5 L427.25,316.5 L427.7344,316.5 L428.25,317.125 L428.25,317.5 L428.25,317.875 L427.7344,318.5 L427.25,318.5 L421.25,318.5 L420.7656,318.5 L420.25,317.875 L420.25,317.5 L420.25,317.125 L420.7656,316.5 L421.25,316.5 L423.25,316.5 L423.25,310.5 L421.25,310.5 L420.7656,310.5 L420.25,309.875 L420.25,309.5 L420.25,309.125 L420.7656,308.5 L421.25,308.5 L427.25,308.5 L427.7344,308.5 L428.25,309.125 L428.25,309.5 L428.25,309.875 L427.7344,310.5 L427.25,310.5 L425.25,310.5 Z "/><ellipse cx="449.75" cy="313" fill="#84BE84" rx="3" ry="3" style="stroke: #038048; stroke-width: 1.0;"/><text fill="#000000" font-family="sans-serif" font-size="12" font-style="italic" lengthAdjust="spacingAndGlyphs" textLength="76" x="455.75" y="318.4102">ReaderPlugin</text><line style="stroke: #0000FF; stroke-width: 1.5;" x1="369.5" x2="574.5" y1="329.5" y2="329.5"/><line style="stroke: #0000FF; stroke-width: 1.5;" x1="369.5" x2="574.5" y1="337.5" y2="337.5"/><ellipse cx="379.5" cy="348.5" fill="#84BE84" rx="3" ry="3" style="stroke: #038048; stroke-width: 1.0;"/><text fill="#000000" font-family="sans-serif" font-size="11" lengthAdjust="spacingAndGlyphs" textLength="181" x="388.5" y="352.9189">Map&lt;String, SeReader&gt; getReaders()</text><ellipse cx="379.5" cy="362.3359" fill="#84BE84" rx="3" ry="3" style="stroke: #038048; stroke-width: 1.0;"/><text fill="#000000" font-family="sans-serif" font-size="11" lengthAdjust="spacingAndGlyphs" textLength="150" x="388.5" y="366.7549">Set&lt;String&gt; getReaderNames()</text><ellipse cx="379.5" cy="376.1719" fill="#84BE84" rx="3" ry="3" style="stroke: #038048; stroke-width: 1.0;"/><text fill="#000000" font-family="sans-serif" font-size="11" lengthAdjust="spacingAndGlyphs" textLength="166" x="388.5" y="380.5908">SeReader getReader(String name)</text><!--MD5=[dd49942b1f02350b5568646d3da64c49]
class SeReader--><rect fill="#EEFFEE" height="103.3438" id="SeReader" style="stroke: #008000; stroke-width: 1.5;" width="340" x="655" y="291"/><ellipse cx="787.25" cy="307" fill="#B4A7E5" rx="11" ry="11" style="stroke: #B4A7E5; stroke-width: 1.0;"/><path d="M788.25,304 L788.25,310 L790.25,310 L790.7344,310 L791.25,310.625 L791.25,311 L791.25,311.375 L790.7344,312 L790.25,312 L784.25,312 L783.7656,312 L783.25,311.375 L783.25,311 L783.25,310.625 L783.7656,310 L784.25,310 L786.25,310 L786.25,304 L784.25,304 L783.7656,304 L783.25,303.375 L783.25,303 L783.25,302.625 L783.7656,302 L784.25,302 L790.25,302 L790.7344,302 L791.25,302.625 L791.25,303 L791.25,303.375 L790.7344,304 L790.25,304 L788.25,304 Z "/><ellipse cx="812.75" cy="306.5" fill="#84BE84" rx="3" ry="3" style="stroke: #038048; stroke-width: 1.0;"/><text fill="#000000" font-family="sans-serif" font-size="12" font-style="italic" lengthAdjust="spacingAndGlyphs" textLength="56" x="818.75" y="311.9102">SeReader</text><line style="stroke: #008000; stroke-width: 1.5;" x1="656" x2="994" y1="323" y2="323"/><line style="stroke: #008000; stroke-width: 1.5;" x1="656" x2="994" y1="331" y2="331"/><ellipse cx="666" cy="342" fill="#84BE84" rx="3" ry="3" style="stroke: #038048; stroke-width: 1.0;"/><text fill="#000000" font-family="sans-serif" font-size="11" lengthAdjust="spacingAndGlyphs" textLength="107" x="675" y="346.4189">boolean isSePresent()</text><ellipse cx="666" cy="355.8359" fill="#84BE84" rx="3" ry="3" style="stroke: #038048; stroke-width: 1.0;"/><text fill="#000000" font-family="sans-serif" font-size="11" lengthAdjust="spacingAndGlyphs" textLength="314" x="675" y="360.2549">addSeProtocolSetting(SeProtocol seProtocol, String protocolRule)</text><ellipse cx="666" cy="369.6719" fill="#84BE84" rx="3" ry="3" style="stroke: #038048; stroke-width: 1.0;"/><text fill="#000000" font-family="sans-serif" font-size="11" lengthAdjust="spacingAndGlyphs" textLength="301" x="675" y="374.0908">setSeProtocolSetting(Map&lt;SeProtocol, String&gt; protocolSetting)</text><ellipse cx="666" cy="383.5078" fill="#84BE84" rx="3" ry="3" style="stroke: #038048; stroke-width: 1.0;"/><text fill="#000000" font-family="sans-serif" font-size="11" lengthAdjust="spacingAndGlyphs" textLength="206" x="675" y="387.9268">TransmissionMode getTransmissionMode()</text><!--MD5=[ec495f5f6ae18812fb155b23e8e93f55]
class ReaderPoolPlugin--><rect fill="#F0FFFF" height="89.5078" id="ReaderPoolPlugin" style="stroke: #0000FF; stroke-width: 1.5;" width="267" x="38.5" y="556"/><ellipse cx="111.75" cy="572" fill="#B4A7E5" rx="11" ry="11" style="stroke: #B4A7E5; stroke-width: 1.0;"/><path d="M112.75,569 L112.75,575 L114.75,575 L115.2344,575 L115.75,575.625 L115.75,576 L115.75,576.375 L115.2344,577 L114.75,577 L108.75,577 L108.2656,577 L107.75,576.375 L107.75,576 L107.75,575.625 L108.2656,575 L108.75,575 L110.75,575 L110.75,569 L108.75,569 L108.2656,569 L107.75,568.375 L107.75,568 L107.75,567.625 L108.2656,567 L108.75,567 L114.75,567 L115.2344,567 L115.75,567.625 L115.75,568 L115.75,568.375 L115.2344,569 L114.75,569 L112.75,569 Z "/><ellipse cx="137.25" cy="571.5" fill="#84BE84" rx="3" ry="3" style="stroke: #038048; stroke-width: 1.0;"/><text fill="#000000" font-family="sans-serif" font-size="12" font-style="italic" lengthAdjust="spacingAndGlyphs" textLength="101" x="143.25" y="576.9102">ReaderPoolPlugin</text><line style="stroke: #0000FF; stroke-width: 1.5;" x1="39.5" x2="304.5" y1="588" y2="588"/><line style="stroke: #0000FF; stroke-width: 1.5;" x1="39.5" x2="304.5" y1="596" y2="596"/><ellipse cx="49.5" cy="607" fill="#84BE84" rx="3" ry="3" style="stroke: #038048; stroke-width: 1.0;"/><text fill="#000000" font-family="sans-serif" font-size="11" lengthAdjust="spacingAndGlyphs" textLength="236" x="58.5" y="611.4189">SortedSet&lt;String&gt; getReaderGroupReferences()</text><ellipse cx="49.5" cy="620.8359" fill="#84BE84" rx="3" ry="3" style="stroke: #038048; stroke-width: 1.0;"/><text fill="#000000" font-family="sans-serif" font-size="11" lengthAdjust="spacingAndGlyphs" textLength="241" x="58.5" y="625.2549">SeReader allocateReader(String groupReference)</text><ellipse cx="49.5" cy="634.6719" fill="#84BE84" rx="3" ry="3" style="stroke: #038048; stroke-width: 1.0;"/><text fill="#000000" font-family="sans-serif" font-size="11" lengthAdjust="spacingAndGlyphs" textLength="177" x="58.5" y="639.0908">releaseReader(SeReader seReader)</text><!--MD5=[1fa9a61019755e60a0cb03f0bc3590aa]
class ObservablePlugin--><rect fill="#F0FFFF" height="89.5078" id="ObservablePlugin" style="stroke: #0000FF; stroke-width: 1.5;" width="263" x="340.5" y="556"/><ellipse cx="412.25" cy="572" fill="#B4A7E5" rx="11" ry="11" style="stroke: #B4A7E5; stroke-width: 1.0;"/><path d="M413.25,569 L413.25,575 L415.25,575 L415.7344,575 L416.25,575.625 L416.25,576 L416.25,576.375 L415.7344,577 L415.25,577 L409.25,577 L408.7656,577 L408.25,576.375 L408.25,576 L408.25,575.625 L408.7656,575 L409.25,575 L411.25,575 L411.25,569 L409.25,569 L408.7656,569 L408.25,568.375 L408.25,568 L408.25,567.625 L408.7656,567 L409.25,567 L415.25,567 L415.7344,567 L416.25,567.625 L416.25,568 L416.25,568.375 L415.7344,569 L415.25,569 L413.25,569 Z "/><ellipse cx="437.75" cy="571.5" fill="#84BE84" rx="3" ry="3" style="stroke: #038048; stroke-width: 1.0;"/><text fill="#000000" font-family="sans-serif" font-size="12" font-style="italic" lengthAdjust="spacingAndGlyphs" textLength="100" x="443.75" y="576.9102">ObservablePlugin</text><line style="stroke: #0000FF; stroke-width: 1.5;" x1="341.5" x2="602.5" y1="588" y2="588"/><line style="stroke: #0000FF; stroke-width: 1.5;" x1="341.5" x2="602.5" y1="596" y2="596"/><ellipse cx="351.5" cy="607" fill="#84BE84" rx="3" ry="3" style="stroke: #038048; stroke-width: 1.0;"/><text fill="#000000" font-family="sans-serif" font-size="11" lengthAdjust="spacingAndGlyphs" textLength="68" x="360.5" y="611.4189">addObserver(</text><text fill="#000000" font-family="sans-serif" font-size="11" font-weight="bold" lengthAdjust="spacingAndGlyphs" textLength="23" x="428.5" y="611.4189">final</text><text fill="#000000" font-family="sans-serif" font-size="11" lengthAdjust="spacingAndGlyphs" textLength="125" x="454.5" y="611.4189">PluginObserver observer)</text><ellipse cx="351.5" cy="620.8359" fill="#84BE84" rx="3" ry="3" style="stroke: #038048; stroke-width: 1.0;"/><text fill="#000000" font-family="sans-serif" font-size="11" lengthAdjust="spacingAndGlyphs" textLength="86" x="360.5" y="625.2549">removeObserver(</text><text fill="#000000" font-family="sans-serif" font-size="11" font-weight="bold" lengthAdjust="spacingAndGlyphs" textLength="23" x="446.5" y="625.2549">final</text><text fill="#000000" font-family="sans-serif" font-size="11" lengthAdjust="spacingAndGlyphs" textLength="125" x="472.5" y="625.2549">PluginObserver observer)</text><ellipse cx="351.5" cy="634.6719" fill="#84BE84" rx="3" ry="3" style="stroke: #038048; stroke-width: 1.0;"/><text fill="#000000" font-family="sans-serif" font-size="11" lengthAdjust="spacingAndGlyphs" textLength="83" x="360.5" y="639.0908">notifyObservers(</text><text fill="#000000" font-family="sans-serif" font-size="11" font-weight="bold" lengthAdjust="spacingAndGlyphs" textLength="23" x="443.5" y="639.0908">final</text><text fill="#000000" font-family="sans-serif" font-size="11" lengthAdjust="spacingAndGlyphs" textLength="89" x="469.5" y="639.0908">PluginEvent event)</text><!--MD5=[e2341a3d5316e117132fc49473ae3219]
class ObservableReader--><rect fill="#EEFFEE" height="214.0313" id="ObservableReader" style="stroke: #008000; stroke-width: 1.5;" width="458" x="639" y="494"/><ellipse cx="805.25" cy="510" fill="#B4A7E5" rx="11" ry="11" style="stroke: #B4A7E5; stroke-width: 1.0;"/><path d="M806.25,507 L806.25,513 L808.25,513 L808.7344,513 L809.25,513.625 L809.25,514 L809.25,514.375 L808.7344,515 L808.25,515 L802.25,515 L801.7656,515 L801.25,514.375 L801.25,514 L801.25,513.625 L801.7656,513 L802.25,513 L804.25,513 L804.25,507 L802.25,507 L801.7656,507 L801.25,506.375 L801.25,506 L801.25,505.625 L801.7656,505 L802.25,505 L808.25,505 L808.7344,505 L809.25,505.625 L809.25,506 L809.25,506.375 L808.7344,507 L808.25,507 L806.25,507 Z "/><ellipse cx="830.75" cy="509.5" fill="#84BE84" rx="3" ry="3" style="stroke: #038048; stroke-width: 1.0;"/><text fill="#000000" font-family="sans-serif" font-size="12" font-style="italic" lengthAdjust="spacingAndGlyphs" textLength="106" x="836.75" y="514.9102">ObservableReader</text><line style="stroke: #008000; stroke-width: 1.5;" x1="640" x2="1096" y1="526" y2="526"/><line style="stroke: #008000; stroke-width: 1.5;" x1="640" x2="1096" y1="534" y2="534"/><ellipse cx="650" cy="545" fill="#84BE84" rx="3" ry="3" style="stroke: #038048; stroke-width: 1.0;"/><text fill="#000000" font-family="sans-serif" font-size="11" lengthAdjust="spacingAndGlyphs" textLength="68" x="659" y="549.4189">addObserver(</text><text fill="#000000" font-family="sans-serif" font-size="11" font-weight="bold" lengthAdjust="spacingAndGlyphs" textLength="23" x="727" y="549.4189">final</text><text fill="#000000" font-family="sans-serif" font-size="11" lengthAdjust="spacingAndGlyphs" textLength="132" x="753" y="549.4189">ReaderObserver observer)</text><ellipse cx="650" cy="558.8359" fill="#84BE84" rx="3" ry="3" style="stroke: #038048; stroke-width: 1.0;"/><text fill="#000000" font-family="sans-serif" font-size="11" lengthAdjust="spacingAndGlyphs" textLength="86" x="659" y="563.2549">removeObserver(</text><text fill="#000000" font-family="sans-serif" font-size="11" font-weight="bold" lengthAdjust="spacingAndGlyphs" textLength="23" x="745" y="563.2549">final</text><text fill="#000000" font-family="sans-serif" font-size="11" lengthAdjust="spacingAndGlyphs" textLength="132" x="771" y="563.2549">ReaderObserver observer)</text><ellipse cx="650" cy="572.6719" fill="#84BE84" rx="3" ry="3" style="stroke: #038048; stroke-width: 1.0;"/><text fill="#000000" font-family="sans-serif" font-size="11" lengthAdjust="spacingAndGlyphs" textLength="83" x="659" y="577.0908">notifyObservers(</text><text fill="#000000" font-family="sans-serif" font-size="11" font-weight="bold" lengthAdjust="spacingAndGlyphs" textLength="23" x="742" y="577.0908">final</text><text fill="#000000" font-family="sans-serif" font-size="11" lengthAdjust="spacingAndGlyphs" textLength="96" x="768" y="577.0908">ReaderEvent event)</text><text fill="#000000" font-family="sans-serif" font-size="11" lengthAdjust="spacingAndGlyphs" textLength="0" x="662" y="590.9268"/><ellipse cx="650" cy="600.3438" fill="#84BE84" rx="3" ry="3" style="stroke: #038048; stroke-width: 1.0;"/><text fill="#000000" font-family="sans-serif" font-size="11" lengthAdjust="spacingAndGlyphs" textLength="432" x="659" y="604.7627">setDefaultSelectionRequest(AbstractDefaultSelectionsRequest defaultSelectionsRequest,</text><text fill="#000000" font-family="sans-serif" font-size="11" lengthAdjust="spacingAndGlyphs" textLength="164" x="659" y="618.5986">NotificationMode notificationMode)</text><ellipse cx="650" cy="628.0156" fill="#84BE84" rx="3" ry="3" style="stroke: #038048; stroke-width: 1.0;"/><text fill="#000000" font-family="sans-serif" font-size="11" lengthAdjust="spacingAndGlyphs" textLength="432" x="659" y="632.4346">setDefaultSelectionRequest(AbstractDefaultSelectionsRequest defaultSelectionsRequest,</text><text fill="#000000" font-family="sans-serif" font-size="11" lengthAdjust="spacingAndGlyphs" textLength="285" x="659" y="646.2705">NotificationMode notificationMode, PollingMode pollingMode)</text><text fill="#000000" font-family="sans-serif" font-size="11" lengthAdjust="spacingAndGlyphs" textLength="0" x="662" y="660.1064"/><ellipse cx="650" cy="669.5234" fill="#84BE84" rx="3" ry="3" style="stroke: #038048; stroke-width: 1.0;"/><text fill="#000000" font-family="sans-serif" font-size="11" lengthAdjust="spacingAndGlyphs" textLength="203" x="659" y="673.9424">startSeDetection(PollingMode pollingMode)</text><ellipse cx="650" cy="683.3594" fill="#84BE84" rx="3" ry="3" style="stroke: #038048; stroke-width: 1.0;"/><text fill="#000000" font-family="sans-serif" font-size="11" lengthAdjust="spacingAndGlyphs" textLength="87" x="659" y="687.7783">stopSeDetection()</text><ellipse cx="650" cy="697.1953" fill="#84BE84" rx="3" ry="3" style="stroke: #038048; stroke-width: 1.0;"/><text fill="#000000" font-family="sans-serif" font-size="11" lengthAdjust="spacingAndGlyphs" textLength="100" x="659" y="701.6143">notifySeProcessed()</text><!--MD5=[628c6eb29572115a3ae82dff7e7e6b47]
link SeProxyService to AbstractPluginFactory--><path d="M260.6293,223.5812 C260.6293,223.5812 232.7,272.279 220.987,292.702 " fill="none" id="SeProxyService-AbstractPluginFactory" style="stroke: #A80036; stroke-width: 1.0;"/><polygon fill="#A80036" points="214.374,304.232,222.3212,298.4146,216.8614,299.8946,215.3814,294.4348,214.374,304.232" style="stroke: #A80036; stroke-width: 1.0;"/><line style="stroke: #A80036; stroke-width: 1.0;" x1="216.8614" x2="220.842" y1="299.8946" y2="292.9555"/><polygon fill="#A80036" points="266.6,213.172,260.1449,216.3863,260.6293,223.5812,267.0844,220.3668,266.6,213.172" style="stroke: #A80036; stroke-width: 1.0;"/><text fill="#000000" font-family="sans-serif" font-size="13" lengthAdjust="spacingAndGlyphs" textLength="50" x="249" y="257.4951">registers</text><text fill="#000000" font-family="sans-serif" font-size="13" lengthAdjust="spacingAndGlyphs" textLength="7" x="255.2764" y="234.4872">1</text><text fill="#000000" font-family="sans-serif" font-size="13" lengthAdjust="spacingAndGlyphs" textLength="5" x="212.7359" y="293.5462">*</text><!--MD5=[98fb93546a7dc75f66b7a26283e02bb5]
link SeProxyService to ReaderPlugin--><path d="M377.5557,222.5693 C377.5557,222.5693 413.341,267.632 428.835,287.144 " fill="none" id="SeProxyService-ReaderPlugin" style="stroke: #A80036; stroke-width: 1.0;"/><polygon fill="#A80036" points="436.94,297.35,434.4754,287.8145,433.8305,293.4345,428.2106,292.7896,436.94,297.35" style="stroke: #A80036; stroke-width: 1.0;"/><line style="stroke: #A80036; stroke-width: 1.0;" x1="433.8305" x2="428.855" y1="293.4345" y2="287.1695"/><polygon fill="#A80036" points="370.093,213.172,370.6919,220.3582,377.5557,222.5693,376.9568,215.3831,370.093,213.172" style="stroke: #A80036; stroke-width: 1.0;"/><text fill="#000000" font-family="sans-serif" font-size="13" lengthAdjust="spacingAndGlyphs" textLength="41" x="406" y="257.4951">plugins</text><text fill="#000000" font-family="sans-serif" font-size="13" lengthAdjust="spacingAndGlyphs" textLength="7" x="368.3102" y="234.4872">1</text><text fill="#000000" font-family="sans-serif" font-size="13" lengthAdjust="spacingAndGlyphs" textLength="5" x="426.1886" y="286.7711">*</text><!--MD5=[ed432611766c8e88b892041f7da1367f]
link AbstractPluginFactory to ReaderPlugin--><path d="M289.016,342.5 C312.856,342.5 338.578,342.5 362.991,342.5 " fill="none" id="AbstractPluginFactory-&gt;ReaderPlugin" style="stroke: #A80036; stroke-width: 1.0;"/><polygon fill="#A80036" points="368.179,342.5,359.179,338.5,363.179,342.5,359.179,346.5,368.179,342.5" style="stroke: #A80036; stroke-width: 1.0;"/><text fill="#000000" font-family="sans-serif" font-size="13" lengthAdjust="spacingAndGlyphs" textLength="43" x="307.25" y="335.9951">creates</text><text fill="#000000" font-family="sans-serif" font-size="13" lengthAdjust="spacingAndGlyphs" textLength="7" x="296.9462" y="339.3847">1</text><text fill="#000000" font-family="sans-serif" font-size="13" lengthAdjust="spacingAndGlyphs" textLength="7" x="353.633" y="339.4623">1</text><!--MD5=[c88fac8de0d16551763276c4b9088a93]
link ReaderPlugin to SeReader--><path d="M587.526,342.5 C587.526,342.5 623.616,342.5 641.659,342.5 " fill="none" id="ReaderPlugin-SeReader" style="stroke: #A80036; stroke-width: 1.0;"/><polygon fill="#A80036" points="654.803,342.5,645.803,338.5,649.803,342.5,645.803,346.5,654.803,342.5" style="stroke: #A80036; stroke-width: 1.0;"/><line style="stroke: #A80036; stroke-width: 1.0;" x1="649.803" x2="641.803" y1="342.5" y2="342.5"/><polygon fill="#A80036" points="575.526,342.5,581.526,346.5,587.526,342.5,581.526,338.5,575.526,342.5" style="stroke: #A80036; stroke-width: 1.0;"/><text fill="#000000" font-family="sans-serif" font-size="13" lengthAdjust="spacingAndGlyphs" textLength="43" x="593.75" y="335.9951">readers</text><text fill="#000000" font-family="sans-serif" font-size="13" lengthAdjust="spacingAndGlyphs" textLength="7" x="583.3857" y="339.4386">1</text><text fill="#000000" font-family="sans-serif" font-size="13" lengthAdjust="spacingAndGlyphs" textLength="5" x="641.9777" y="339.6328">*</text><!--MD5=[bc25a197e36279471f37427b8b5d69b0]
reverse link ReaderPlugin to ReaderPoolPlugin--><path d="M389.836,399.189 C367.925,414.957 344.622,432.586 324,450 C284.485,483.369 242.9,524.912 213.235,555.812 " fill="none" id="ReaderPlugin&lt;-ReaderPoolPlugin" style="stroke: #A80036; stroke-width: 1.0;"/><polygon fill="none" points="385.894,393.403,406.252,387.528,394.001,404.817,385.894,393.403" style="stroke: #A80036; stroke-width: 1.0;"/><text fill="#000000" font-family="sans-serif" font-size="13" lengthAdjust="spacingAndGlyphs" textLength="46" x="356" y="438.4951">extends</text><!--MD5=[a087c8f219181ff1dbe7adabc28b3231]
reverse link ReaderPlugin to ObservablePlugin--><path d="M472,407.615 C472,453.747 472,514.788 472,555.623 " fill="none" id="ReaderPlugin&lt;-ObservablePlugin" style="stroke: #A80036; stroke-width: 1.0;"/><polygon fill="none" points="465,407.594,472,387.594,479,407.594,465,407.594" style="stroke: #A80036; stroke-width: 1.0;"/><text fill="#000000" font-family="sans-serif" font-size="13" lengthAdjust="spacingAndGlyphs" textLength="46" x="473" y="438.4951">extends</text><!--MD5=[9bde350185f61a8992bbce085951af21]
reverse link SeReader to ObservableReader--><path d="M836.806,413.924 C840.938,438.571 845.674,466.823 850.187,493.742 " fill="none" id="SeReader&lt;-ObservableReader" style="stroke: #A80036; stroke-width: 1.0;"/><polygon fill="none" points="829.899,415.058,833.495,394.176,843.706,412.744,829.899,415.058" style="stroke: #A80036; stroke-width: 1.0;"/><text fill="#000000" font-family="sans-serif" font-size="13" lengthAdjust="spacingAndGlyphs" textLength="46" x="842" y="438.4951">extends</text><!--MD5=[6ff42eee2d93b23b3557b0570faf0c26]
reverse link ProxyElement to ReaderPlugin--><path d="M587.673,210.404 C562.05,239.444 533.396,271.918 511.018,297.28 " fill="none" id="ProxyElement&lt;-ReaderPlugin" style="stroke: #A80036; stroke-width: 1.0;"/><polygon fill="none" points="582.66,205.506,601.141,195.14,593.157,214.768,582.66,205.506" style="stroke: #A80036; stroke-width: 1.0;"/><text fill="#000000" font-family="sans-serif" font-size="13" lengthAdjust="spacingAndGlyphs" textLength="46" x="557" y="257.4951">extends</text><!--MD5=[e474867e38445a864bdbc7a2e090866a]
reverse link ProxyElement to SeReader--><path d="M713.859,210.443 C736.47,237.106 761.532,266.659 782.125,290.942 " fill="none" id="ProxyElement&lt;-SeReader" style="stroke: #A80036; stroke-width: 1.0;"/><polygon fill="none" points="708.478,214.921,700.881,195.14,719.156,205.866,708.478,214.921" style="stroke: #A80036; stroke-width: 1.0;"/><text fill="#000000" font-family="sans-serif" font-size="13" lengthAdjust="spacingAndGlyphs" textLength="46" x="754" y="257.4951">extends</text><!--MD5=[5af10cfd9e5e396d056fec89b48524fe]
@startuml
skinparam ClassBorderColor #D4AC0D
skinparam stereotypeABorderColor #A9DCDF
skinparam stereotypeIBorderColor #B4A7E5
skinparam stereotypeCBorderColor #ADD1B2
skinparam stereotypeEBorderColor #EB93DF
skinparam shadowing false

skinparam ClassBackgroundColor<<red>> #FDEDEC
skinparam ClassBorderColor<<red>> #E74C3C
hide <<red>> stereotype
skinparam ClassBackgroundColor<<purple>> #F4ECF7
skinparam ClassBorderColor<<purple>> #8E44AD
hide <<purple>> stereotype
skinparam ClassBackgroundColor<<blue>> #EBF5FB
skinparam ClassBorderColor<<blue>> #3498DB
hide <<blue>> stereotype
skinparam ClassBackgroundColor<<green>> #EAFAF1
skinparam ClassBorderColor<<green>> #2ECC71
hide <<green>> stereotype
skinparam ClassBackgroundColor<<grey>> #EAECEE
skinparam ClassBorderColor<<grey>> #2C3E50
hide <<grey>> stereotype

package org.eclipse.keyple.core.seproxy #FFFFFF {
+class "<b>final</b> SeProxyService" as SeProxyService << Singleton >> {
  +{static}SeProxyService getInstance()
  +String getVersion()
  +ReaderPlugin registerPlugin(AbstractPluginFactory pluginFactory)
  +boolean isRegistered(String pluginName)
  +boolean unregisterPlugin(String pluginName)
  +ReaderPlugin getPlugin(String name)
  +Set<ReaderPlugin> getPlugins()
}
~interface ProxyElement {
  +String getName()

  +Map<String, String> getParameters()
  +setParameter(String key, String value)
  +setParameters(Map<String, String> parameters)
}

+abstract AbstractPluginFactory {
  {abstract} #String getPluginName()
  {abstract} #ReaderPlugin getPluginInstance()
}
+interface ReaderPlugin {
  +Map<String, SeReader> getReaders()
  +Set<String> getReaderNames()
  +SeReader getReader(String name)
}
+interface SeReader {
  +boolean isSePresent()
  +addSeProtocolSetting(SeProtocol seProtocol, String protocolRule)
  +setSeProtocolSetting(Map<SeProtocol, String> protocolSetting)
  +TransmissionMode getTransmissionMode()
}

  SeProxyService "1" *- -> "*" AbstractPluginFactory : registers
  SeProxyService "1" *-down-> "*" ReaderPlugin : plugins
  AbstractPluginFactory "1" -right-> "1" ReaderPlugin : creates
  ReaderPlugin "1" *-right-> "*" SeReader : readers

+interface ReaderPoolPlugin {
  +SortedSet<String> getReaderGroupReferences()
  +SeReader allocateReader(String groupReference)
  +releaseReader(SeReader seReader)
}
  ReaderPlugin <|- - ReaderPoolPlugin : extends

  package event #FFFFFF {
+interface ObservablePlugin {
  +addObserver(<b>final</b> PluginObserver observer)
  +removeObserver(<b>final</b> PluginObserver observer)
  +notifyObservers(<b>final</b> PluginEvent event)
}
+interface ObservableReader {
  +addObserver(<b>final</b> ReaderObserver observer)
  +removeObserver(<b>final</b> ReaderObserver observer)
  +notifyObservers(<b>final</b> ReaderEvent event)

  +setDefaultSelectionRequest(AbstractDefaultSelectionsRequest defaultSelectionsRequest,
    NotificationMode notificationMode)
  +setDefaultSelectionRequest(AbstractDefaultSelectionsRequest defaultSelectionsRequest,
    NotificationMode notificationMode, PollingMode pollingMode)

  +startSeDetection(PollingMode pollingMode)
  +stopSeDetection()
  +notifySeProcessed()
}
  }
  ReaderPlugin <|- - ObservablePlugin : extends
  SeReader <|- - ObservableReader : extends
}

ProxyElement <|- - ReaderPlugin : extends
ProxyElement <|- - SeReader : extends

interface ReaderPlugin <<Plugin>>
interface ObservablePlugin <<Plugin>>
interface ReaderPoolPlugin <<Plugin>>
hide <<Plugin>> stereotype

interface SeReader <<Reader>>
interface ObservableReader <<Reader>>
hide <<Reader>> stereotype

skinparam class {
  BackgroundColor<<Plugin>> Azure
  BorderColor<<Plugin>> Blue
  BackgroundColor<<Reader>> #EEFFEE
  BorderColor<<Reader>> Green
}
@enduml

PlantUML version 1.2020.09(Sun May 10 14:51:06 MUT 2020)
(GPL source distribution)
Java Runtime: OpenJDK Runtime Environment
JVM: OpenJDK 64-Bit Server VM
Java Version: 11.0.6+8-b765.40
Operating System: Windows 10
Default Encoding: Cp1252
Language: fr
Country: FR
--></g></svg>