<?xml version="1.0" encoding="UTF-8" standalone="no"?><svg xmlns="http://www.w3.org/2000/svg" xmlns:xlink="http://www.w3.org/1999/xlink" contentScriptType="application/ecmascript" contentStyleType="text/css" height="1195px" preserveAspectRatio="none" style="width:705px;height:1195px;" version="1.1" viewBox="0 0 705 1195" width="705px" zoomAndPan="magnify"><defs/><g><!--MD5=[2bcc54f38766b998c5e88efdbc7d1696]
cluster org.eclipse.keyple.core.seproxy--><polygon fill="#FFFFFF" points="22,24,253,24,260,47.6094,683,47.6094,683,1183,22,1183,22,24" style="stroke: #000000; stroke-width: 1.5;"/><line style="stroke: #000000; stroke-width: 1.5;" x1="22" x2="260" y1="47.6094" y2="47.6094"/><text fill="#000000" font-family="sans-serif" font-size="14" font-weight="bold" lengthAdjust="spacingAndGlyphs" textLength="225" x="26" y="40.5332">org.eclipse.keyple.core.seproxy</text><!--MD5=[59e9faf83e5ffb743ef5750f57e8e967]
cluster protocol--><polygon fill="#FFFFFF" points="46,616,111,616,118,639.6094,659,639.6094,659,1159,46,1159,46,616" style="stroke: #000000; stroke-width: 1.5;"/><line style="stroke: #000000; stroke-width: 1.5;" x1="46" x2="118" y1="639.6094" y2="639.6094"/><text fill="#000000" font-family="sans-serif" font-size="14" font-weight="bold" lengthAdjust="spacingAndGlyphs" textLength="59" x="50" y="632.5332">protocol</text><!--MD5=[986279e3cfc2043660398b1cf71c65a2]
class FileOccurrence--><rect fill="#FEFECE" height="103.3438" id="FileOccurrence" style="stroke: #D4AC0D; stroke-width: 1.5;" width="126" x="141" y="60"/><ellipse cx="156" cy="76" fill="#EB937F" rx="11" ry="11" style="stroke: #EB93DF; stroke-width: 1.0;"/><path d="M154.5,77 L154.5,79 L158.5,79 L158.5,78 L158.5,77.5156 L159.125,77 L159.5,77 L159.875,77 L160.5,77.5156 L160.5,78 L160.5,81 L152.5,81 L152.0156,81 L151.5,80.375 L151.5,80 L151.5,79.625 L152.0156,79 L152.5,79 L152.5,79 L152.5,73 L152.5,73 L152.0156,73 L151.5,72.375 L151.5,72 L151.5,71.625 L152.0156,71 L152.5,71 L160.5,71 L160.5,74 L160.5,74.4844 L159.875,75 L159.5,75 L159.125,75 L158.5,74.4844 L158.5,74 L158.5,73 L154.5,73 L154.5,75 L155.5,75 L155.5,74.5156 L155.5,74.5156 L156.125,74 L156.5,74 L156.875,74 L157.5,74.5156 L157.5,75 L157.5,77 L157.5,77.4844 L156.875,78 L156.875,78 L156.5,78 L156.125,78 L155.5,77.4844 L155.5,77.4844 L155.5,77 L154.5,77 Z "/><ellipse cx="175" cy="75.5" fill="#84BE84" rx="3" ry="3" style="stroke: #038048; stroke-width: 1.0;"/><text fill="#000000" font-family="sans-serif" font-size="12" lengthAdjust="spacingAndGlyphs" textLength="83" x="181" y="80.9102">FileOccurrence</text><line style="stroke: #D4AC0D; stroke-width: 1.5;" x1="142" x2="266" y1="92" y2="92"/><text fill="#000000" font-family="sans-serif" font-size="11" lengthAdjust="spacingAndGlyphs" textLength="28" x="147" y="107.4189">FIRST</text><text fill="#000000" font-family="sans-serif" font-size="11" lengthAdjust="spacingAndGlyphs" textLength="27" x="147" y="121.2549">LAST</text><text fill="#000000" font-family="sans-serif" font-size="11" lengthAdjust="spacingAndGlyphs" textLength="26" x="147" y="135.0908">NEXT</text><text fill="#000000" font-family="sans-serif" font-size="11" lengthAdjust="spacingAndGlyphs" textLength="51" x="147" y="148.9268">PREVIOUS</text><line style="stroke: #D4AC0D; stroke-width: 1.5;" x1="142" x2="266" y1="155.3438" y2="155.3438"/><!--MD5=[7db03ef0d09735de9c956eac87f10fc3]
class FileControlInformation--><rect fill="#FEFECE" height="103.3438" id="FileControlInformation" style="stroke: #D4AC0D; stroke-width: 1.5;" width="165" x="302.5" y="60"/><ellipse cx="317.5" cy="76" fill="#EB937F" rx="11" ry="11" style="stroke: #EB93DF; stroke-width: 1.0;"/><path d="M316,77 L316,79 L320,79 L320,78 L320,77.5156 L320.625,77 L321,77 L321.375,77 L322,77.5156 L322,78 L322,81 L314,81 L313.5156,81 L313,80.375 L313,80 L313,79.625 L313.5156,79 L314,79 L314,79 L314,73 L314,73 L313.5156,73 L313,72.375 L313,72 L313,71.625 L313.5156,71 L314,71 L322,71 L322,74 L322,74.4844 L321.375,75 L321,75 L320.625,75 L320,74.4844 L320,74 L320,73 L316,73 L316,75 L317,75 L317,74.5156 L317,74.5156 L317.625,74 L318,74 L318.375,74 L319,74.5156 L319,75 L319,77 L319,77.4844 L318.375,78 L318.375,78 L318,78 L317.625,78 L317,77.4844 L317,77.4844 L317,77 L316,77 Z "/><ellipse cx="336.5" cy="75.5" fill="#84BE84" rx="3" ry="3" style="stroke: #038048; stroke-width: 1.0;"/><text fill="#000000" font-family="sans-serif" font-size="12" lengthAdjust="spacingAndGlyphs" textLength="122" x="342.5" y="80.9102">FileControlInformation</text><line style="stroke: #D4AC0D; stroke-width: 1.5;" x1="303.5" x2="466.5" y1="92" y2="92"/><text fill="#000000" font-family="sans-serif" font-size="11" lengthAdjust="spacingAndGlyphs" textLength="15" x="308.5" y="107.4189">FCI</text><text fill="#000000" font-family="sans-serif" font-size="11" lengthAdjust="spacingAndGlyphs" textLength="19" x="308.5" y="121.2549">FCP</text><text fill="#000000" font-family="sans-serif" font-size="11" lengthAdjust="spacingAndGlyphs" textLength="21" x="308.5" y="135.0908">FMD</text><text fill="#000000" font-family="sans-serif" font-size="11" lengthAdjust="spacingAndGlyphs" textLength="75" x="308.5" y="148.9268">NO_RESPONSE</text><line style="stroke: #D4AC0D; stroke-width: 1.5;" x1="303.5" x2="466.5" y1="155.3438" y2="155.3438"/><!--MD5=[32bde9a16d1fd80730cde0df05390289]
class AtrFilter--><rect fill="#FEFECE" height="125.3672" id="AtrFilter" style="stroke: #D4AC0D; stroke-width: 1.5;" width="172" x="468" y="441"/><ellipse cx="510.45" cy="461.0938" fill="#ADD1B2" rx="11" ry="11" style="stroke: #ADD1B2; stroke-width: 1.0;"/><path d="M512.45,457.5938 Q512.6531,457.0938 512.8875,456.8438 Q513.1219,456.5938 513.3875,456.5938 Q513.8563,456.5938 514.1531,456.875 Q514.45,457.1563 514.45,457.8125 L514.45,459.375 Q514.45,460.0313 514.1688,460.3125 Q513.8875,460.5938 513.45,460.5938 Q513.0594,460.5938 512.8094,460.4219 Q512.5594,460.25 512.45,459.7969 Q512.4031,459.4844 512.2313,459.3125 Q511.9188,458.9844 511.3563,458.7969 Q510.7938,458.5938 510.2313,458.5938 Q509.5281,458.5938 508.9344,458.875 Q508.3563,459.1563 507.9031,459.7813 Q507.45,460.4063 507.45,461.2656 L507.45,462.1875 Q507.45,463.2188 508.2938,463.9063 Q509.1375,464.5938 510.6375,464.5938 Q511.5281,464.5938 512.1531,464.3906 Q512.5125,464.2813 512.9188,463.9219 Q513.1844,463.7188 513.325,463.6563 Q513.4656,463.5938 513.6375,463.5938 Q513.9656,463.5938 514.2,463.8594 Q514.45,464.1094 514.45,464.4688 Q514.45,464.8125 514.1063,465.2188 Q513.6063,465.8125 512.8094,466.1406 Q511.7625,466.5938 510.4813,466.5938 Q508.9813,466.5938 507.7781,466 Q506.8094,465.5313 506.1219,464.5156 Q505.45,463.5 505.45,462.2969 L505.45,461.2031 Q505.45,459.9531 506.0438,458.8594 Q506.6531,457.7656 507.7,457.1875 Q508.7625,456.5938 509.95,456.5938 Q510.6688,456.5938 511.2938,456.8438 Q511.9188,457.0938 512.45,457.5938 Z "/><text fill="#000000" font-family="sans-serif" font-size="12" font-style="italic" lengthAdjust="spacingAndGlyphs" textLength="42" x="549.05" y="458.457">«static»</text><ellipse cx="535.55" cy="468.1406" fill="#84BE84" rx="3" ry="3" style="stroke: #038048; stroke-width: 1.0;"/><text fill="#000000" font-family="sans-serif" font-size="12" font-weight="bold" lengthAdjust="spacingAndGlyphs" textLength="24" x="541.55" y="473.5508">final</text><text fill="#000000" font-family="sans-serif" font-size="12" lengthAdjust="spacingAndGlyphs" textLength="41" x="568.55" y="473.5508">AtrFilter</text><line style="stroke: #D4AC0D; stroke-width: 1.5;" x1="469" x2="639" y1="481.1875" y2="481.1875"/><line style="stroke: #D4AC0D; stroke-width: 1.5;" x1="469" x2="639" y1="489.1875" y2="489.1875"/><ellipse cx="479" cy="500.1875" fill="#84BE84" rx="3" ry="3" style="stroke: #038048; stroke-width: 1.0;"/><text fill="#000000" font-family="sans-serif" font-size="11" lengthAdjust="spacingAndGlyphs" textLength="121" x="488" y="504.6064">AtrFilter(String atrRegex)</text><ellipse cx="479" cy="514.0234" fill="#84BE84" rx="3" ry="3" style="stroke: #038048; stroke-width: 1.0;"/><text fill="#000000" font-family="sans-serif" font-size="11" lengthAdjust="spacingAndGlyphs" textLength="144" x="488" y="518.4424">setAtrRegex(String atrRegex)</text><text fill="#000000" font-family="sans-serif" font-size="11" lengthAdjust="spacingAndGlyphs" textLength="0" x="491" y="532.2783"/><ellipse cx="479" cy="541.6953" fill="#84BE84" rx="3" ry="3" style="stroke: #038048; stroke-width: 1.0;"/><text fill="#000000" font-family="sans-serif" font-size="11" lengthAdjust="spacingAndGlyphs" textLength="100" x="488" y="546.1143">String getAtrRegex()</text><ellipse cx="479" cy="555.5313" fill="#84BE84" rx="3" ry="3" style="stroke: #038048; stroke-width: 1.0;"/><text fill="#000000" font-family="sans-serif" font-size="11" lengthAdjust="spacingAndGlyphs" textLength="146" x="488" y="559.9502">boolean atrMatches(byte[] atr)</text><!--MD5=[0c38ce21b8fe3613f2a22c03c2bb1923]
class AidSelector--><rect fill="#FEFECE" height="153.0391" id="AidSelector" style="stroke: #D4AC0D; stroke-width: 1.5;" width="459" x="65.5" y="224"/><ellipse cx="240.75" cy="244.0938" fill="#ADD1B2" rx="11" ry="11" style="stroke: #ADD1B2; stroke-width: 1.0;"/><path d="M242.75,240.5938 Q242.9531,240.0938 243.1875,239.8438 Q243.4219,239.5938 243.6875,239.5938 Q244.1563,239.5938 244.4531,239.875 Q244.75,240.1563 244.75,240.8125 L244.75,242.375 Q244.75,243.0313 244.4688,243.3125 Q244.1875,243.5938 243.75,243.5938 Q243.3594,243.5938 243.1094,243.4219 Q242.8594,243.25 242.75,242.7969 Q242.7031,242.4844 242.5313,242.3125 Q242.2188,241.9844 241.6563,241.7969 Q241.0938,241.5938 240.5313,241.5938 Q239.8281,241.5938 239.2344,241.875 Q238.6563,242.1563 238.2031,242.7813 Q237.75,243.4063 237.75,244.2656 L237.75,245.1875 Q237.75,246.2188 238.5938,246.9063 Q239.4375,247.5938 240.9375,247.5938 Q241.8281,247.5938 242.4531,247.3906 Q242.8125,247.2813 243.2188,246.9219 Q243.4844,246.7188 243.625,246.6563 Q243.7656,246.5938 243.9375,246.5938 Q244.2656,246.5938 244.5,246.8594 Q244.75,247.1094 244.75,247.4688 Q244.75,247.8125 244.4063,248.2188 Q243.9063,248.8125 243.1094,249.1406 Q242.0625,249.5938 240.7813,249.5938 Q239.2813,249.5938 238.0781,249 Q237.1094,248.5313 236.4219,247.5156 Q235.75,246.5 235.75,245.2969 L235.75,244.2031 Q235.75,242.9531 236.3438,241.8594 Q236.9531,240.7656 238,240.1875 Q239.0625,239.5938 240.25,239.5938 Q240.9688,239.5938 241.5938,239.8438 Q242.2188,240.0938 242.75,240.5938 Z "/><text fill="#000000" font-family="sans-serif" font-size="12" font-style="italic" lengthAdjust="spacingAndGlyphs" textLength="42" x="290.25" y="241.457">«static»</text><ellipse cx="266.25" cy="251.1406" fill="#84BE84" rx="3" ry="3" style="stroke: #038048; stroke-width: 1.0;"/><text fill="#000000" font-family="sans-serif" font-size="12" font-weight="bold" lengthAdjust="spacingAndGlyphs" textLength="24" x="272.25" y="256.5508">final</text><text fill="#000000" font-family="sans-serif" font-size="12" lengthAdjust="spacingAndGlyphs" textLength="62" x="299.25" y="256.5508">AidSelector</text><line style="stroke: #D4AC0D; stroke-width: 1.5;" x1="66.5" x2="523.5" y1="264.1875" y2="264.1875"/><ellipse cx="76.5" cy="275.1875" fill="none" rx="3" ry="3" style="stroke: #038048; stroke-width: 1.0;"/><text fill="#000000" font-family="sans-serif" font-size="11" lengthAdjust="spacingAndGlyphs" text-decoration="underline" textLength="141" x="85.5" y="279.6064">final int AID_MIN_LENGTH = 5</text><ellipse cx="76.5" cy="289.0234" fill="none" rx="3" ry="3" style="stroke: #038048; stroke-width: 1.0;"/><text fill="#000000" font-family="sans-serif" font-size="11" lengthAdjust="spacingAndGlyphs" text-decoration="underline" textLength="153" x="85.5" y="293.4424">final int AID_MAX_LENGTH = 16</text><line style="stroke: #D4AC0D; stroke-width: 1.5;" x1="66.5" x2="523.5" y1="299.8594" y2="299.8594"/><ellipse cx="76.5" cy="310.8594" fill="#84BE84" rx="3" ry="3" style="stroke: #038048; stroke-width: 1.0;"/><text fill="#000000" font-family="sans-serif" font-size="11" lengthAdjust="spacingAndGlyphs" textLength="379" x="85.5" y="315.2783">AidSelector(byte[] aidToSelect, Set&lt;Integer&gt; successfulSelectionStatusCodes,</text><text fill="#000000" font-family="sans-serif" font-size="11" lengthAdjust="spacingAndGlyphs" textLength="433" x="85.5" y="329.1143">FileOccurrence fileOccurrence = FIRST, FileControlInformation fileControlInformation = FCI)</text><ellipse cx="76.5" cy="338.5313" fill="#84BE84" rx="3" ry="3" style="stroke: #038048; stroke-width: 1.0;"/><text fill="#000000" font-family="sans-serif" font-size="11" lengthAdjust="spacingAndGlyphs" textLength="111" x="85.5" y="342.9502">byte[] getAidToSelect()</text><ellipse cx="76.5" cy="352.3672" fill="#84BE84" rx="3" ry="3" style="stroke: #038048; stroke-width: 1.0;"/><text fill="#000000" font-family="sans-serif" font-size="11" lengthAdjust="spacingAndGlyphs" textLength="109" x="85.5" y="356.7861">boolean isSelectNext()</text><ellipse cx="76.5" cy="366.2031" fill="#84BE84" rx="3" ry="3" style="stroke: #038048; stroke-width: 1.0;"/><text fill="#000000" font-family="sans-serif" font-size="11" lengthAdjust="spacingAndGlyphs" textLength="248" x="85.5" y="370.6221">Set&lt;Integer&gt; getSuccessfulSelectionStatusCodes()</text><!--MD5=[233c6f1f7c69be3daec88cbd55acc2d5]
class SeSelector--><rect fill="#FEFECE" height="131.0156" id="SeSelector" style="stroke: #D4AC0D; stroke-width: 1.5;" width="275" x="157.5" y="438"/><ellipse cx="255.25" cy="454" fill="#ADD1B2" rx="11" ry="11" style="stroke: #ADD1B2; stroke-width: 1.0;"/><path d="M257.25,450.5 Q257.4531,450 257.6875,449.75 Q257.9219,449.5 258.1875,449.5 Q258.6563,449.5 258.9531,449.7813 Q259.25,450.0625 259.25,450.7188 L259.25,452.2813 Q259.25,452.9375 258.9688,453.2188 Q258.6875,453.5 258.25,453.5 Q257.8594,453.5 257.6094,453.3281 Q257.3594,453.1563 257.25,452.7031 Q257.2031,452.3906 257.0313,452.2188 Q256.7188,451.8906 256.1563,451.7031 Q255.5938,451.5 255.0313,451.5 Q254.3281,451.5 253.7344,451.7813 Q253.1563,452.0625 252.7031,452.6875 Q252.25,453.3125 252.25,454.1719 L252.25,455.0938 Q252.25,456.125 253.0938,456.8125 Q253.9375,457.5 255.4375,457.5 Q256.3281,457.5 256.9531,457.2969 Q257.3125,457.1875 257.7188,456.8281 Q257.9844,456.625 258.125,456.5625 Q258.2656,456.5 258.4375,456.5 Q258.7656,456.5 259,456.7656 Q259.25,457.0156 259.25,457.375 Q259.25,457.7188 258.9063,458.125 Q258.4063,458.7188 257.6094,459.0469 Q256.5625,459.5 255.2813,459.5 Q253.7813,459.5 252.5781,458.9063 Q251.6094,458.4375 250.9219,457.4219 Q250.25,456.4063 250.25,455.2031 L250.25,454.1094 Q250.25,452.8594 250.8438,451.7656 Q251.4531,450.6719 252.5,450.0938 Q253.5625,449.5 254.75,449.5 Q255.4688,449.5 256.0938,449.75 Q256.7188,450 257.25,450.5 Z "/><ellipse cx="280.75" cy="453.5" fill="#84BE84" rx="3" ry="3" style="stroke: #038048; stroke-width: 1.0;"/><text fill="#000000" font-family="sans-serif" font-size="12" lengthAdjust="spacingAndGlyphs" textLength="60" x="286.75" y="458.9102">SeSelector</text><line style="stroke: #D4AC0D; stroke-width: 1.5;" x1="158.5" x2="431.5" y1="470" y2="470"/><line style="stroke: #D4AC0D; stroke-width: 1.5;" x1="158.5" x2="431.5" y1="478" y2="478"/><ellipse cx="168.5" cy="489" fill="#84BE84" rx="3" ry="3" style="stroke: #038048; stroke-width: 1.0;"/><text fill="#000000" font-family="sans-serif" font-size="11" lengthAdjust="spacingAndGlyphs" textLength="249" x="177.5" y="493.4189">SeSelector(SeProtocol seProtocol, AtrFilter atrFilter,</text><text fill="#000000" font-family="sans-serif" font-size="11" lengthAdjust="spacingAndGlyphs" textLength="197" x="177.5" y="507.2549">AidSelector aidSelector, String extraInfo)</text><ellipse cx="168.5" cy="516.6719" fill="#84BE84" rx="3" ry="3" style="stroke: #038048; stroke-width: 1.0;"/><text fill="#000000" font-family="sans-serif" font-size="11" lengthAdjust="spacingAndGlyphs" textLength="130" x="177.5" y="521.0908">SeProtocol getSeProtocol()</text><ellipse cx="168.5" cy="530.5078" fill="#84BE84" rx="3" ry="3" style="stroke: #038048; stroke-width: 1.0;"/><text fill="#000000" font-family="sans-serif" font-size="11" lengthAdjust="spacingAndGlyphs" textLength="102" x="177.5" y="534.9268">AtrFilter getAtrFilter()</text><ellipse cx="168.5" cy="544.3438" fill="#84BE84" rx="3" ry="3" style="stroke: #038048; stroke-width: 1.0;"/><text fill="#000000" font-family="sans-serif" font-size="11" lengthAdjust="spacingAndGlyphs" textLength="138" x="177.5" y="548.7627">AidSelector getAidSelector()</text><ellipse cx="168.5" cy="558.1797" fill="#84BE84" rx="3" ry="3" style="stroke: #038048; stroke-width: 1.0;"/><text fill="#000000" font-family="sans-serif" font-size="11" font-weight="bold" lengthAdjust="spacingAndGlyphs" textLength="23" x="177.5" y="562.5986">final</text><text fill="#000000" font-family="sans-serif" font-size="11" lengthAdjust="spacingAndGlyphs" textLength="97" x="203.5" y="562.5986">String getExtraInfo()</text><!--MD5=[102d0f3d638ad6309248ed4bfa481bde]
class SeCommonProtocols--><rect fill="#FEFECE" height="336.7188" id="SeCommonProtocols" style="stroke: #D4AC0D; stroke-width: 1.5;" width="395" x="247.5" y="806"/><ellipse cx="381.25" cy="822" fill="#EB937F" rx="11" ry="11" style="stroke: #EB93DF; stroke-width: 1.0;"/><path d="M379.75,823 L379.75,825 L383.75,825 L383.75,824 L383.75,823.5156 L384.375,823 L384.75,823 L385.125,823 L385.75,823.5156 L385.75,824 L385.75,827 L377.75,827 L377.2656,827 L376.75,826.375 L376.75,826 L376.75,825.625 L377.2656,825 L377.75,825 L377.75,825 L377.75,819 L377.75,819 L377.2656,819 L376.75,818.375 L376.75,818 L376.75,817.625 L377.2656,817 L377.75,817 L385.75,817 L385.75,820 L385.75,820.4844 L385.125,821 L384.75,821 L384.375,821 L383.75,820.4844 L383.75,820 L383.75,819 L379.75,819 L379.75,821 L380.75,821 L380.75,820.5156 L380.75,820.5156 L381.375,820 L381.75,820 L382.125,820 L382.75,820.5156 L382.75,821 L382.75,823 L382.75,823.4844 L382.125,824 L382.125,824 L381.75,824 L381.375,824 L380.75,823.4844 L380.75,823.4844 L380.75,823 L379.75,823 Z "/><text fill="#000000" font-family="sans-serif" font-size="12" lengthAdjust="spacingAndGlyphs" textLength="119" x="401.75" y="826.9102">SeCommonProtocols</text><line style="stroke: #D4AC0D; stroke-width: 1.5;" x1="248.5" x2="641.5" y1="838" y2="838"/><text fill="#000000" font-family="sans-serif" font-size="11" lengthAdjust="spacingAndGlyphs" textLength="278" x="253.5" y="871.2549">PROTOCOL_ISO14443_4("ISO 14443-4", CONTACTLESS)</text><text fill="#000000" font-family="sans-serif" font-size="11" lengthAdjust="spacingAndGlyphs" textLength="294" x="253.5" y="885.0908">PROTOCOL_ISO15693("ISO 15693 Type V", CONTACTLESS)</text><line style="stroke: #D4AC0D; stroke-width: 1.0; stroke-dasharray: 1.0,2.0;" x1="248.5" x2="345.5" y1="852.918" y2="852.918"/><text fill="#000000" font-family="sans-serif" font-size="11" lengthAdjust="spacingAndGlyphs" textLength="199" x="345.5" y="856.9189">contactless ISO standard / NFC compliant</text><line style="stroke: #D4AC0D; stroke-width: 1.0; stroke-dasharray: 1.0,2.0;" x1="544.5" x2="641.5" y1="852.918" y2="852.918"/><text fill="#000000" font-family="sans-serif" font-size="11" lengthAdjust="spacingAndGlyphs" textLength="324" x="253.5" y="916.7627">PROTOCOL_ISO14443_3A("ISO 14443-3 Type A", CONTACTLESS)</text><text fill="#000000" font-family="sans-serif" font-size="11" lengthAdjust="spacingAndGlyphs" textLength="322" x="253.5" y="930.5986">PROTOCOL_ISO14443_3B("ISO 14443-3 Type B", CONTACTLESS)</text><text fill="#000000" font-family="sans-serif" font-size="11" lengthAdjust="spacingAndGlyphs" textLength="297" x="253.5" y="944.4346">PROTOCOL_JIS_6319_4("JIS 6319-4 Felica", CONTACTLESS)</text><text fill="#000000" font-family="sans-serif" font-size="11" lengthAdjust="spacingAndGlyphs" textLength="259" x="253.5" y="958.2705">PROTOCOL_NDEF("NFC NDEF TAG", CONTACTLESS)</text><text fill="#000000" font-family="sans-serif" font-size="11" lengthAdjust="spacingAndGlyphs" textLength="383" x="253.5" y="972.1064">PROTOCOL_NDEF_FORMATABLE("NFC NDEF FORMATABLE", CONTACTLESS)</text><text fill="#000000" font-family="sans-serif" font-size="11" lengthAdjust="spacingAndGlyphs" textLength="304" x="253.5" y="985.9424">PROTOCOL_NFC_BARCODE("NFC BARCODE, CONTACTLESS)</text><text fill="#000000" font-family="sans-serif" font-size="11" lengthAdjust="spacingAndGlyphs" textLength="296" x="253.5" y="999.7783">PROTOCOL_MIFARE_UL("Mifare Ultra Light", CONTACTLESS)</text><text fill="#000000" font-family="sans-serif" font-size="11" lengthAdjust="spacingAndGlyphs" textLength="314" x="253.5" y="1013.6143">PROTOCOL_MIFARE_CLASSIC("Mifare Classic", CONTACTLESS)</text><text fill="#000000" font-family="sans-serif" font-size="11" lengthAdjust="spacingAndGlyphs" textLength="314" x="253.5" y="1027.4502">PROTOCOL_MIFARE_DESFIRE("Mifare DESFire", CONTACTLESS)</text><line style="stroke: #D4AC0D; stroke-width: 1.0; stroke-dasharray: 1.0,2.0;" x1="248.5" x2="353.5" y1="898.4258" y2="898.4258"/><text fill="#000000" font-family="sans-serif" font-size="11" lengthAdjust="spacingAndGlyphs" textLength="183" x="353.5" y="902.4268">contactless proprietary NFC compliant</text><line style="stroke: #D4AC0D; stroke-width: 1.0; stroke-dasharray: 1.0,2.0;" x1="536.5" x2="641.5" y1="898.4258" y2="898.4258"/><text fill="#000000" font-family="sans-serif" font-size="11" lengthAdjust="spacingAndGlyphs" textLength="323" x="253.5" y="1059.1221">PROTOCOL_B_PRIME("Old Calypso card B prime", CONTACTLESS)</text><text fill="#000000" font-family="sans-serif" font-size="11" lengthAdjust="spacingAndGlyphs" textLength="301" x="253.5" y="1072.958">PROTOCOL_MEMORY_ST25("Memory ST25", CONTACTLESS)</text><line style="stroke: #D4AC0D; stroke-width: 1.0; stroke-dasharray: 1.0,2.0;" x1="248.5" x2="344.5" y1="1040.7852" y2="1040.7852"/><text fill="#000000" font-family="sans-serif" font-size="11" lengthAdjust="spacingAndGlyphs" textLength="201" x="344.5" y="1044.7861">contactless proprietary not NFC compliant</text><line style="stroke: #D4AC0D; stroke-width: 1.0; stroke-dasharray: 1.0,2.0;" x1="545.5" x2="641.5" y1="1040.7852" y2="1040.7852"/><text fill="#000000" font-family="sans-serif" font-size="11" lengthAdjust="spacingAndGlyphs" textLength="247" x="253.5" y="1104.6299">PROTOCOL_ISO7816_3("ISO 7816-3", CONTACTS)</text><line style="stroke: #D4AC0D; stroke-width: 1.0; stroke-dasharray: 1.0,2.0;" x1="248.5" x2="391" y1="1086.293" y2="1086.293"/><text fill="#000000" font-family="sans-serif" font-size="11" lengthAdjust="spacingAndGlyphs" textLength="108" x="391" y="1090.2939">contacts ISO standard</text><line style="stroke: #D4AC0D; stroke-width: 1.0; stroke-dasharray: 1.0,2.0;" x1="499" x2="641.5" y1="1086.293" y2="1086.293"/><text fill="#000000" font-family="sans-serif" font-size="11" lengthAdjust="spacingAndGlyphs" textLength="267" x="253.5" y="1136.3018">PROTOCOL_HSP("Old Calypso SAM HSP", CONTACTS)</text><line style="stroke: #D4AC0D; stroke-width: 1.0; stroke-dasharray: 1.0,2.0;" x1="248.5" x2="396" y1="1117.9648" y2="1117.9648"/><text fill="#000000" font-family="sans-serif" font-size="11" lengthAdjust="spacingAndGlyphs" textLength="98" x="396" y="1121.9658">contacts proprietary</text><line style="stroke: #D4AC0D; stroke-width: 1.0; stroke-dasharray: 1.0,2.0;" x1="494" x2="641.5" y1="1117.9648" y2="1117.9648"/><!--MD5=[029eeeb5f037d1cad7d1ad059afd3aa0]
class SeProtocol--><rect fill="#FEFECE" height="75.6719" id="SeProtocol" style="stroke: #D4AC0D; stroke-width: 1.5;" width="232" x="179" y="652"/><ellipse cx="255.25" cy="668" fill="#B4A7E5" rx="11" ry="11" style="stroke: #B4A7E5; stroke-width: 1.0;"/><path d="M256.25,665 L256.25,671 L258.25,671 L258.7344,671 L259.25,671.625 L259.25,672 L259.25,672.375 L258.7344,673 L258.25,673 L252.25,673 L251.7656,673 L251.25,672.375 L251.25,672 L251.25,671.625 L251.7656,671 L252.25,671 L254.25,671 L254.25,665 L252.25,665 L251.7656,665 L251.25,664.375 L251.25,664 L251.25,663.625 L251.7656,663 L252.25,663 L258.25,663 L258.7344,663 L259.25,663.625 L259.25,664 L259.25,664.375 L258.7344,665 L258.25,665 L256.25,665 Z "/><ellipse cx="280.75" cy="667.5" fill="#84BE84" rx="3" ry="3" style="stroke: #038048; stroke-width: 1.0;"/><text fill="#000000" font-family="sans-serif" font-size="12" font-style="italic" lengthAdjust="spacingAndGlyphs" textLength="60" x="286.75" y="672.9102">SeProtocol</text><line style="stroke: #D4AC0D; stroke-width: 1.5;" x1="180" x2="410" y1="684" y2="684"/><line style="stroke: #D4AC0D; stroke-width: 1.5;" x1="180" x2="410" y1="692" y2="692"/><ellipse cx="190" cy="703" fill="#84BE84" rx="3" ry="3" style="stroke: #038048; stroke-width: 1.0;"/><text fill="#000000" font-family="sans-serif" font-size="11" lengthAdjust="spacingAndGlyphs" textLength="81" x="199" y="707.4189">String getName()</text><ellipse cx="190" cy="716.8359" fill="#84BE84" rx="3" ry="3" style="stroke: #038048; stroke-width: 1.0;"/><text fill="#000000" font-family="sans-serif" font-size="11" lengthAdjust="spacingAndGlyphs" textLength="206" x="199" y="721.2549">TransmissionMode getTransmissionMode()</text><!--MD5=[389c8dd8ff10073965d91444c463f0b3]
class TransmissionMode--><rect fill="#FEFECE" height="75.6719" id="TransmissionMode" style="stroke: #D4AC0D; stroke-width: 1.5;" width="150" x="62" y="936.5"/><ellipse cx="77" cy="952.5" fill="#EB937F" rx="11" ry="11" style="stroke: #EB93DF; stroke-width: 1.0;"/><path d="M75.5,953.5 L75.5,955.5 L79.5,955.5 L79.5,954.5 L79.5,954.0156 L80.125,953.5 L80.5,953.5 L80.875,953.5 L81.5,954.0156 L81.5,954.5 L81.5,957.5 L73.5,957.5 L73.0156,957.5 L72.5,956.875 L72.5,956.5 L72.5,956.125 L73.0156,955.5 L73.5,955.5 L73.5,955.5 L73.5,949.5 L73.5,949.5 L73.0156,949.5 L72.5,948.875 L72.5,948.5 L72.5,948.125 L73.0156,947.5 L73.5,947.5 L81.5,947.5 L81.5,950.5 L81.5,950.9844 L80.875,951.5 L80.5,951.5 L80.125,951.5 L79.5,950.9844 L79.5,950.5 L79.5,949.5 L75.5,949.5 L75.5,951.5 L76.5,951.5 L76.5,951.0156 L76.5,951.0156 L77.125,950.5 L77.5,950.5 L77.875,950.5 L78.5,951.0156 L78.5,951.5 L78.5,953.5 L78.5,953.9844 L77.875,954.5 L77.875,954.5 L77.5,954.5 L77.125,954.5 L76.5,953.9844 L76.5,953.9844 L76.5,953.5 L75.5,953.5 Z "/><ellipse cx="96" cy="952" fill="#84BE84" rx="3" ry="3" style="stroke: #038048; stroke-width: 1.0;"/><text fill="#000000" font-family="sans-serif" font-size="12" lengthAdjust="spacingAndGlyphs" textLength="107" x="102" y="957.4102">TransmissionMode</text><line style="stroke: #D4AC0D; stroke-width: 1.5;" x1="63" x2="211" y1="968.5" y2="968.5"/><text fill="#000000" font-family="sans-serif" font-size="11" lengthAdjust="spacingAndGlyphs" textLength="56" x="68" y="983.9189">CONTACTS</text><text fill="#000000" font-family="sans-serif" font-size="11" lengthAdjust="spacingAndGlyphs" textLength="75" x="68" y="997.7549">CONTACTLESS</text><line style="stroke: #D4AC0D; stroke-width: 1.5;" x1="63" x2="211" y1="1004.1719" y2="1004.1719"/><!--MD5=[71d3e5b5a3908be09db32650c419a9a0]
link FileOccurrence to AidSelector--><path d="M217.152,163.1 C223.332,177.72 230.894,194.13 238.884,210.36 " fill="none" id="FileOccurrence-&gt;AidSelector" style="stroke: #A80036; stroke-width: 1.0;"/><ellipse cx="242.0903" cy="216.7561" fill="#FFFFFF" rx="8" ry="8" style="stroke: #A80036; stroke-width: 1.0;"/><line style="stroke: #A80036; stroke-width: 1.0;" x1="238.5056" x2="245.675" y1="209.6042" y2="223.908"/><line style="stroke: #A80036; stroke-width: 1.0;" x1="249.2422" x2="234.9384" y1="213.1714" y2="220.3408"/><!--MD5=[71d3e5b5a3908be09db32650c419a9a0]
link FileOccurrence to AidSelector--><path d="M240.774,163.1 C249.121,178.16 257.814,195.12 265.809,211.82 " fill="none" id="FileOccurrence-&gt;AidSelector-1" style="stroke: #A80036; stroke-width: 1.0;"/><polygon fill="#A80036" points="271.492,223.908,272.5592,216.7763,266.3865,213.0483,265.3193,220.18,271.492,223.908" style="stroke: #A80036; stroke-width: 1.0;"/><text fill="#000000" font-family="sans-serif" font-size="13" lengthAdjust="spacingAndGlyphs" textLength="7" x="238.4532" y="184.9769">1</text><text fill="#000000" font-family="sans-serif" font-size="13" lengthAdjust="spacingAndGlyphs" textLength="7" x="261.8334" y="213.0915">1</text><!--MD5=[cbb2875f3a0c8787423f0c72d98b8ce6]
link FileControlInformation to AidSelector--><path d="M349.171,163.1 C341.28,177.58 333.05,193.8 325.396,209.873 " fill="none" id="FileControlInformation-&gt;AidSelector" style="stroke: #A80036; stroke-width: 1.0;"/><ellipse cx="322.226" cy="216.6594" fill="#FFFFFF" rx="8" ry="8" style="stroke: #A80036; stroke-width: 1.0;"/><line style="stroke: #A80036; stroke-width: 1.0;" x1="325.6111" x2="318.841" y1="209.4109" y2="223.908"/><line style="stroke: #A80036; stroke-width: 1.0;" x1="329.4746" x2="314.9775" y1="220.0445" y2="213.2744"/><!--MD5=[cbb2875f3a0c8787423f0c72d98b8ce6]
link FileControlInformation to AidSelector--><path d="M372.793,163.1 C366.565,178.16 358.849,195.12 350.676,211.82 " fill="none" id="FileControlInformation-&gt;AidSelector-1" style="stroke: #A80036; stroke-width: 1.0;"/><polygon fill="#A80036" points="344.658,223.908,350.9125,220.3189,350.005,213.1651,343.7506,216.7542,344.658,223.908" style="stroke: #A80036; stroke-width: 1.0;"/><text fill="#000000" font-family="sans-serif" font-size="13" lengthAdjust="spacingAndGlyphs" textLength="7" x="363.5842" y="184.9769">1</text><text fill="#000000" font-family="sans-serif" font-size="13" lengthAdjust="spacingAndGlyphs" textLength="7" x="342.2017" y="213.0915">1</text><!--MD5=[7520d0856e2ce14d109088419cdfb33d]
link AidSelector to SeSelector--><path d="M282.601,377.203 C282.174,391.987 282.137,407.535 282.488,422.455 " fill="none" id="AidSelector-&gt;SeSelector" style="stroke: #A80036; stroke-width: 1.0;"/><ellipse cx="282.7281" cy="429.7214" fill="#FFFFFF" rx="8" ry="8" style="stroke: #A80036; stroke-width: 1.0;"/><line style="stroke: #A80036; stroke-width: 1.0;" x1="282.4622" x2="282.994" y1="421.7258" y2="437.717"/><line style="stroke: #A80036; stroke-width: 1.0;" x1="290.7237" x2="274.7325" y1="429.4555" y2="429.9873"/><!--MD5=[7520d0856e2ce14d109088419cdfb33d]
link AidSelector to SeSelector--><path d="M308.128,377.203 C308.599,392.61 308.623,408.846 308.199,424.336 " fill="none" id="AidSelector-&gt;SeSelector-1" style="stroke: #A80036; stroke-width: 1.0;"/><polygon fill="#FFFFFF" points="307.712,437.717,311.9282,431.8669,308.1498,425.725,303.9336,431.5751,307.712,437.717" style="stroke: #A80036; stroke-width: 1.0;"/><text fill="#000000" font-family="sans-serif" font-size="13" lengthAdjust="spacingAndGlyphs" textLength="22" x="286.3242" y="398.5211">0..1</text><text fill="#000000" font-family="sans-serif" font-size="13" lengthAdjust="spacingAndGlyphs" textLength="7" x="301.7196" y="427.1605">1</text><!--MD5=[3322093920cb7308333995e7629def3a]
reverse link SeSelector to AtrFilter--><path d="M447.673,551.052 C454.345,550.146 461.016,548.849 467.688,547.161 " fill="none" id="SeSelector&lt;-AtrFilter" style="stroke: #A80036; stroke-width: 1.0;"/><ellipse cx="440.5606" cy="551.7031" fill="#FFFFFF" rx="8" ry="8" style="stroke: #A80036; stroke-width: 1.0;"/><line style="stroke: #A80036; stroke-width: 1.0;" x1="448.5273" x2="432.594" y1="550.9732" y2="552.433"/><line style="stroke: #A80036; stroke-width: 1.0;" x1="441.2906" x2="439.8307" y1="559.6697" y2="543.7364"/><!--MD5=[3322093920cb7308333995e7629def3a]
reverse link SeSelector to AtrFilter--><path d="M445.754,455.698 C453.065,456.609 460.376,457.989 467.688,459.839 " fill="none" id="SeSelector&lt;-AtrFilter-1" style="stroke: #A80036; stroke-width: 1.0;"/><polygon fill="#FFFFFF" points="432.594,454.567,438.2291,459.0665,444.5498,455.5955,438.9148,451.096,432.594,454.567" style="stroke: #A80036; stroke-width: 1.0;"/><text fill="#000000" font-family="sans-serif" font-size="13" lengthAdjust="spacingAndGlyphs" textLength="7" x="440.3101" y="448.9578">1</text><text fill="#000000" font-family="sans-serif" font-size="13" lengthAdjust="spacingAndGlyphs" textLength="22" x="440.5792" y="452.261">0..1</text><!--MD5=[bd28fb3706d2642fabfc924682f1d3a6]
reverse link SeProtocol to TransmissionMode--><path d="M267.297,739.821 C255.733,760.251 242.181,784.257 230,806 C204.965,850.688 176.396,902.225 157.604,936.2 " fill="none" id="SeProtocol&lt;-TransmissionMode" style="stroke: #A80036; stroke-width: 1.0;"/><polygon fill="#A80036" points="273.851,728.249,267.4136,731.4986,267.9373,738.6906,274.3747,735.4411,273.851,728.249" style="stroke: #A80036; stroke-width: 1.0;"/><text fill="#000000" font-family="sans-serif" font-size="13" lengthAdjust="spacingAndGlyphs" textLength="7" x="262.9226" y="749.1692">1</text><text fill="#000000" font-family="sans-serif" font-size="13" lengthAdjust="spacingAndGlyphs" textLength="7" x="153.6507" y="925.5085">1</text><!--MD5=[009dd821b618541acedfd889e51c7fb4]
reverse link SeProtocol to SeCommonProtocols--><path d="M324.285,746.153 C333.665,763.819 344.587,784.389 355.955,805.799 " fill="none" id="SeProtocol&lt;-SeCommonProtocols" style="stroke: #A80036; stroke-width: 1.0; stroke-dasharray: 7.0,7.0;"/><polygon fill="none" points="317.961,749.17,314.764,728.222,330.326,742.604,317.961,749.17" style="stroke: #A80036; stroke-width: 1.0;"/><text fill="#000000" font-family="sans-serif" font-size="13" lengthAdjust="spacingAndGlyphs" textLength="67" x="340" y="772.4951">implements</text><!--MD5=[85c6f18c96ceb47132f2d645c1ed1753]
link TransmissionMode to SeCommonProtocols--><!--MD5=[848abd0da787c3898c4771a3838e6941]
reverse link SeSelector to SeProtocol--><path d="M295,582.261 C295,606.409 295,631.916 295,651.938 " fill="none" id="SeSelector&lt;-SeProtocol" style="stroke: #A80036; stroke-width: 1.0;"/><polygon fill="#FFFFFF" points="295,569.029,291,575.029,295,581.029,299,575.029,295,569.029" style="stroke: #A80036; stroke-width: 1.0;"/><text fill="#000000" font-family="sans-serif" font-size="13" lengthAdjust="spacingAndGlyphs" textLength="7" x="287.6172" y="590.5847">1</text><text fill="#000000" font-family="sans-serif" font-size="13" lengthAdjust="spacingAndGlyphs" textLength="22" x="270.9719" y="641.0031">0..1</text><!--MD5=[83179cf8ec797b227fc39abd7b81e3a0]
@startuml
skinparam ClassBorderColor #D4AC0D
skinparam stereotypeABorderColor #A9DCDF
skinparam stereotypeIBorderColor #B4A7E5
skinparam stereotypeCBorderColor #ADD1B2
skinparam stereotypeEBorderColor #EB93DF
skinparam shadowing false

skinparam StateBorderColor #D4AC0D

skinparam ClassBackgroundColor<<red>> #FDEDEC
skinparam ClassBorderColor<<red>> #E74C3C
hide <<red>> stereotype
skinparam ClassBackgroundColor<<purple>> #F4ECF7
skinparam ClassBorderColor<<purple>> #8E44AD
hide <<purple>> stereotype
skinparam ClassBackgroundColor<<blue>> #EBF5FB
skinparam ClassBorderColor<<blue>> #3498DB
hide <<blue>> stereotype
skinparam ClassBackgroundColor<<green>> #EAFAF1
skinparam ClassBorderColor<<green>> #2ECC71
hide <<green>> stereotype
skinparam ClassBackgroundColor<<grey>> #EAECEE
skinparam ClassBorderColor<<grey>> #2C3E50
hide <<grey>> stereotype

package org.eclipse.keyple.core.seproxy #FFFFFF {
+enum FileOccurrence {
  FIRST
  LAST
  NEXT
  PREVIOUS
}

+enum FileControlInformation {
  FCI
  FCP
  FMD
  NO_RESPONSE
}

+class "<b>final</b> AtrFilter" as AtrFilter <<static>> {
  +AtrFilter(String atrRegex)
  +setAtrRegex(String atrRegex)

  +String getAtrRegex()
  +boolean atrMatches(byte[] atr)
}
+class "<b>final</b> AidSelector" as AidSelector <<static>> {
  +{static} final int AID_MIN_LENGTH = 5
  +{static} final int AID_MAX_LENGTH = 16

  +AidSelector(byte[] aidToSelect, Set<Integer> successfulSelectionStatusCodes,
    FileOccurrence fileOccurrence = FIRST, FileControlInformation fileControlInformation = FCI)
  +byte[] getAidToSelect()
  +boolean isSelectNext()
  +Set<Integer> getSuccessfulSelectionStatusCodes()
}
  AidSelector +-up- FileOccurrence

  AidSelector +-up- FileControlInformation
  AidSelector "1" *-up- "1" FileOccurrence
  AidSelector "1" *-up- "1" FileControlInformation

+class SeSelector {
  +SeSelector(SeProtocol seProtocol, AtrFilter atrFilter,
    AidSelector aidSelector, String extraInfo)
  +SeProtocol getSeProtocol()
  +AtrFilter getAtrFilter()
  +AidSelector getAidSelector()
  +<b>final</b> String getExtraInfo()
}
  SeSelector +-up- AidSelector
  SeSelector "1" o-up- "0..1" AidSelector
  SeSelector +-right- AtrFilter
  SeSelector "1" o-right- "0..1" AtrFilter

  package protocol #FFFFFF {
enum SeCommonProtocols {
  .. contactless ISO standard / NFC compliant ..
  PROTOCOL_ISO14443_4("ISO 14443-4", CONTACTLESS)
  PROTOCOL_ISO15693("ISO 15693 Type V", CONTACTLESS)
  .. contactless proprietary NFC compliant ..
  PROTOCOL_ISO14443_3A("ISO 14443-3 Type A", CONTACTLESS)
  PROTOCOL_ISO14443_3B("ISO 14443-3 Type B", CONTACTLESS)
  PROTOCOL_JIS_6319_4("JIS 6319-4 Felica", CONTACTLESS)
  PROTOCOL_NDEF("NFC NDEF TAG", CONTACTLESS)
  PROTOCOL_NDEF_FORMATABLE("NFC NDEF FORMATABLE", CONTACTLESS)
  PROTOCOL_NFC_BARCODE("NFC BARCODE, CONTACTLESS)
  PROTOCOL_MIFARE_UL("Mifare Ultra Light", CONTACTLESS)
  PROTOCOL_MIFARE_CLASSIC("Mifare Classic", CONTACTLESS)
  PROTOCOL_MIFARE_DESFIRE("Mifare DESFire", CONTACTLESS)
  .. contactless proprietary not NFC compliant ..
  PROTOCOL_B_PRIME("Old Calypso card B prime", CONTACTLESS)
  PROTOCOL_MEMORY_ST25("Memory ST25", CONTACTLESS)
  .. contacts ISO standard ..
  PROTOCOL_ISO7816_3("ISO 7816-3", CONTACTS)
  .. contacts proprietary  ..
  PROTOCOL_HSP("Old Calypso SAM HSP", CONTACTS)
}

+interface SeProtocol {
  +String getName()
  +TransmissionMode getTransmissionMode()
}
+enum TransmissionMode {
  CONTACTS
  CONTACTLESS
}

    SeProtocol "1" *-down- "1" TransmissionMode
    SeCommonProtocols .up.|> SeProtocol : implements
    TransmissionMode -right[hidden]- SeCommonProtocols
  }

  SeSelector "1" o-down- "0..1" SeProtocol
}
@enduml

PlantUML version 1.2020.09(Sun May 10 14:51:06 MUT 2020)
(GPL source distribution)
Java Runtime: OpenJDK Runtime Environment
JVM: OpenJDK 64-Bit Server VM
Java Version: 11.0.6+8-b765.40
Operating System: Windows 10
Default Encoding: Cp1252
Language: fr
Country: FR
--></g></svg>