<?xml version="1.0" encoding="UTF-8" standalone="no"?><svg xmlns="http://www.w3.org/2000/svg" xmlns:xlink="http://www.w3.org/1999/xlink" contentScriptType="application/ecmascript" contentStyleType="text/css" height="747px" preserveAspectRatio="none" style="width:1092px;height:747px;" version="1.1" viewBox="0 0 1092 747" width="1092px" zoomAndPan="magnify"><defs/><g><!--MD5=[2bcc54f38766b998c5e88efdbc7d1696]
cluster org.eclipse.keyple.core.seproxy--><polygon fill="#FFFFFF" points="22,24,253,24,260,47.6094,1070,47.6094,1070,735,22,735,22,24" style="stroke: #000000; stroke-width: 1.5;"/><line style="stroke: #000000; stroke-width: 1.5;" x1="22" x2="260" y1="47.6094" y2="47.6094"/><text fill="#000000" font-family="sans-serif" font-size="14" font-weight="bold" lengthAdjust="spacingAndGlyphs" textLength="225" x="26" y="40.5332">org.eclipse.keyple.core.seproxy</text><!--MD5=[2e31800f208179cab94650aeb782e4d8]
cluster event--><polygon fill="#FFFFFF" points="324,486,371,486,378,509.6094,1046,509.6094,1046,711,324,711,324,486" style="stroke: #000000; stroke-width: 1.5;"/><line style="stroke: #000000; stroke-width: 1.5;" x1="324" x2="378" y1="509.6094" y2="509.6094"/><text fill="#000000" font-family="sans-serif" font-size="14" font-weight="bold" lengthAdjust="spacingAndGlyphs" textLength="41" x="328" y="502.5332">event</text><!--MD5=[f0c44d4c6fb415056b2c0aabd573961b]
class SeProxyService--><rect fill="#FEFECE" height="180.7109" id="SeProxyService" style="stroke: #D4AC0D; stroke-width: 1.5;" width="340" x="140" y="60"/><ellipse cx="244.75" cy="80.0938" fill="#ADD1B2" rx="11" ry="11" style="stroke: #ADD1B2; stroke-width: 1.0;"/><path d="M246.75,76.5938 Q246.9531,76.0938 247.1875,75.8438 Q247.4219,75.5938 247.6875,75.5938 Q248.1563,75.5938 248.4531,75.875 Q248.75,76.1563 248.75,76.8125 L248.75,78.375 Q248.75,79.0313 248.4688,79.3125 Q248.1875,79.5938 247.75,79.5938 Q247.3594,79.5938 247.1094,79.4219 Q246.8594,79.25 246.75,78.7969 Q246.7031,78.4844 246.5313,78.3125 Q246.2188,77.9844 245.6563,77.7969 Q245.0938,77.5938 244.5313,77.5938 Q243.8281,77.5938 243.2344,77.875 Q242.6563,78.1563 242.2031,78.7813 Q241.75,79.4063 241.75,80.2656 L241.75,81.1875 Q241.75,82.2188 242.5938,82.9063 Q243.4375,83.5938 244.9375,83.5938 Q245.8281,83.5938 246.4531,83.3906 Q246.8125,83.2813 247.2188,82.9219 Q247.4844,82.7188 247.625,82.6563 Q247.7656,82.5938 247.9375,82.5938 Q248.2656,82.5938 248.5,82.8594 Q248.75,83.1094 248.75,83.4688 Q248.75,83.8125 248.4063,84.2188 Q247.9063,84.8125 247.1094,85.1406 Q246.0625,85.5938 244.7813,85.5938 Q243.2813,85.5938 242.0781,85 Q241.1094,84.5313 240.4219,83.5156 Q239.75,82.5 239.75,81.2969 L239.75,80.2031 Q239.75,78.9531 240.3438,77.8594 Q240.9531,76.7656 242,76.1875 Q243.0625,75.5938 244.25,75.5938 Q244.9688,75.5938 245.5938,75.8438 Q246.2188,76.0938 246.75,76.5938 Z "/><text fill="#000000" font-family="sans-serif" font-size="12" font-style="italic" lengthAdjust="spacingAndGlyphs" textLength="66" x="293.25" y="77.457">«Singleton»</text><ellipse cx="270.25" cy="87.1406" fill="#84BE84" rx="3" ry="3" style="stroke: #038048; stroke-width: 1.0;"/><text fill="#000000" font-family="sans-serif" font-size="12" font-weight="bold" lengthAdjust="spacingAndGlyphs" textLength="24" x="276.25" y="92.5508">final</text><text fill="#000000" font-family="sans-serif" font-size="12" lengthAdjust="spacingAndGlyphs" textLength="84" x="303.25" y="92.5508">SeProxyService</text><line style="stroke: #D4AC0D; stroke-width: 1.5;" x1="141" x2="479" y1="100.1875" y2="100.1875"/><line style="stroke: #D4AC0D; stroke-width: 1.5;" x1="141" x2="479" y1="108.1875" y2="108.1875"/><ellipse cx="151" cy="119.1875" fill="#84BE84" rx="3" ry="3" style="stroke: #038048; stroke-width: 1.0;"/><text fill="#000000" font-family="sans-serif" font-size="11" lengthAdjust="spacingAndGlyphs" text-decoration="underline" textLength="145" x="160" y="123.6064">SeProxyService getInstance()</text><ellipse cx="151" cy="133.0234" fill="#84BE84" rx="3" ry="3" style="stroke: #038048; stroke-width: 1.0;"/><text fill="#000000" font-family="sans-serif" font-size="11" lengthAdjust="spacingAndGlyphs" textLength="92" x="160" y="137.4424">String getVersion()</text><text fill="#000000" font-family="sans-serif" font-size="11" lengthAdjust="spacingAndGlyphs" textLength="0" x="163" y="151.2783"/><ellipse cx="151" cy="160.6953" fill="#84BE84" rx="3" ry="3" style="stroke: #038048; stroke-width: 1.0;"/><text fill="#000000" font-family="sans-serif" font-size="11" lengthAdjust="spacingAndGlyphs" textLength="314" x="160" y="165.1143">ReaderPlugin registerPlugin(AbstractPluginFactory pluginFactory)</text><ellipse cx="151" cy="174.5313" fill="#84BE84" rx="3" ry="3" style="stroke: #038048; stroke-width: 1.0;"/><text fill="#000000" font-family="sans-serif" font-size="11" lengthAdjust="spacingAndGlyphs" textLength="195" x="160" y="178.9502">boolean isRegistered(String pluginName)</text><ellipse cx="151" cy="188.3672" fill="#84BE84" rx="3" ry="3" style="stroke: #038048; stroke-width: 1.0;"/><text fill="#000000" font-family="sans-serif" font-size="11" lengthAdjust="spacingAndGlyphs" textLength="212" x="160" y="192.7861">boolean unregisterPlugin(String pluginName)</text><text fill="#000000" font-family="sans-serif" font-size="11" lengthAdjust="spacingAndGlyphs" textLength="0" x="163" y="206.6221"/><ellipse cx="151" cy="216.0391" fill="#84BE84" rx="3" ry="3" style="stroke: #038048; stroke-width: 1.0;"/><text fill="#000000" font-family="sans-serif" font-size="11" lengthAdjust="spacingAndGlyphs" textLength="174" x="160" y="220.458">ReaderPlugin getPlugin(String name)</text><ellipse cx="151" cy="229.875" fill="#84BE84" rx="3" ry="3" style="stroke: #038048; stroke-width: 1.0;"/><text fill="#000000" font-family="sans-serif" font-size="11" lengthAdjust="spacingAndGlyphs" textLength="151" x="160" y="234.2939">Set&lt;ReaderPlugin&gt; getPlugins()</text><!--MD5=[f32ad7e99aabd41d9b4c18d27e28445d]
class ProxyElement--><rect fill="#FEFECE" height="117.1797" id="ProxyElement" style="stroke: #D4AC0D; stroke-width: 1.5;" width="256" x="524" y="92"/><ellipse cx="603.75" cy="108" fill="#B4A7E5" rx="11" ry="11" style="stroke: #B4A7E5; stroke-width: 1.0;"/><path d="M604.75,105 L604.75,111 L606.75,111 L607.2344,111 L607.75,111.625 L607.75,112 L607.75,112.375 L607.2344,113 L606.75,113 L600.75,113 L600.2656,113 L599.75,112.375 L599.75,112 L599.75,111.625 L600.2656,111 L600.75,111 L602.75,111 L602.75,105 L600.75,105 L600.2656,105 L599.75,104.375 L599.75,104 L599.75,103.625 L600.2656,103 L600.75,103 L606.75,103 L607.2344,103 L607.75,103.625 L607.75,104 L607.75,104.375 L607.2344,105 L606.75,105 L604.75,105 Z "/><polygon fill="#4177AF" points="629.25,103.5,625.25,109.5,633.25,109.5" style="stroke: #1963A0; stroke-width: 1.0;"/><text fill="#000000" font-family="sans-serif" font-size="12" font-style="italic" lengthAdjust="spacingAndGlyphs" textLength="77" x="635.25" y="112.9102">ProxyElement</text><line style="stroke: #D4AC0D; stroke-width: 1.5;" x1="525" x2="779" y1="124" y2="124"/><line style="stroke: #D4AC0D; stroke-width: 1.5;" x1="525" x2="779" y1="132" y2="132"/><ellipse cx="535" cy="143" fill="#84BE84" rx="3" ry="3" style="stroke: #038048; stroke-width: 1.0;"/><text fill="#000000" font-family="sans-serif" font-size="11" lengthAdjust="spacingAndGlyphs" textLength="81" x="544" y="147.4189">String getName()</text><text fill="#000000" font-family="sans-serif" font-size="11" lengthAdjust="spacingAndGlyphs" textLength="0" x="547" y="161.2549"/><ellipse cx="535" cy="170.6719" fill="#84BE84" rx="3" ry="3" style="stroke: #038048; stroke-width: 1.0;"/><text fill="#000000" font-family="sans-serif" font-size="11" lengthAdjust="spacingAndGlyphs" textLength="175" x="544" y="175.0908">Map&lt;String, String&gt; getParameters()</text><ellipse cx="535" cy="184.5078" fill="#84BE84" rx="3" ry="3" style="stroke: #038048; stroke-width: 1.0;"/><text fill="#000000" font-family="sans-serif" font-size="11" lengthAdjust="spacingAndGlyphs" textLength="183" x="544" y="188.9268">setParameter(String key, String value)</text><ellipse cx="535" cy="198.3438" fill="#84BE84" rx="3" ry="3" style="stroke: #038048; stroke-width: 1.0;"/><text fill="#000000" font-family="sans-serif" font-size="11" lengthAdjust="spacingAndGlyphs" textLength="230" x="544" y="202.7627">setParameters(Map&lt;String, String&gt; parameters)</text><!--MD5=[589e28272a74d38b4e0a352c82e7b326]
class AbstractPluginFactory--><rect fill="#FEFECE" height="75.6719" id="AbstractPluginFactory" style="stroke: #D4AC0D; stroke-width: 1.5;" width="192" x="97" y="332.5"/><ellipse cx="125.05" cy="348.5" fill="#A9DCDF" rx="11" ry="11" style="stroke: #A9DCDF; stroke-width: 1.0;"/><path d="M126.8,350 L123.5031,350 L123.0656,351 L123.0656,351 L123.5344,351 L124.05,351.625 L124.05,352 L124.05,352.375 L123.5344,353 L123.0656,353 L121.175,353 L120.5656,353 L120.05,352.375 L120.05,352 L120.05,351.625 L120.5656,351 L121.175,351 L123.4875,345 L122.6125,345 L121.5656,345 L121.05,344.375 L121.05,344 L121.05,343.625 L121.5656,343 L122.6125,343 L126.2844,343 L128.9719,351 L129.5344,351 L129.5344,351 L130.05,351.625 L130.05,352 L130.05,352.375 L129.5344,353 L128.9719,353 L127.0813,353 L126.5656,353 L126.05,352.375 L126.05,352 L126.05,351.625 L126.5656,351 L127.0813,351 L127.0813,351 L126.8,350 Z M126.2531,348 L125.05,344.4219 L124.0188,348 L126.2531,348 Z "/><ellipse cx="146.95" cy="348" fill="#84BE84" rx="3" ry="3" style="stroke: #038048; stroke-width: 1.0;"/><text fill="#000000" font-family="sans-serif" font-size="12" font-style="italic" lengthAdjust="spacingAndGlyphs" textLength="120" x="152.95" y="353.4102">AbstractPluginFactory</text><line style="stroke: #D4AC0D; stroke-width: 1.5;" x1="98" x2="288" y1="364.5" y2="364.5"/><line style="stroke: #D4AC0D; stroke-width: 1.5;" x1="98" x2="288" y1="372.5" y2="372.5"/><polygon fill="#FFFF44" points="108,378.5,112,382.5,108,386.5,104,382.5" style="stroke: #B38D22; stroke-width: 1.0;"/><text fill="#000000" font-family="sans-serif" font-size="11" font-style="italic" lengthAdjust="spacingAndGlyphs" textLength="115" x="117" y="387.9189">String getPluginName()</text><polygon fill="#FFFF44" points="108,392.3359,112,396.3359,108,400.3359,104,396.3359" style="stroke: #B38D22; stroke-width: 1.0;"/><text fill="#000000" font-family="sans-serif" font-size="11" font-style="italic" lengthAdjust="spacingAndGlyphs" textLength="166" x="117" y="401.7549">ReaderPlugin getPluginInstance()</text><!--MD5=[a0e88443257adb8def549c32ec694d43]
class ReaderPlugin--><rect fill="#F0FFFF" height="89.5078" id="ReaderPlugin" style="stroke: #0000FF; stroke-width: 1.5;" width="207" x="368.5" y="325.5"/><ellipse cx="424.25" cy="341.5" fill="#B4A7E5" rx="11" ry="11" style="stroke: #B4A7E5; stroke-width: 1.0;"/><path d="M425.25,338.5 L425.25,344.5 L427.25,344.5 L427.7344,344.5 L428.25,345.125 L428.25,345.5 L428.25,345.875 L427.7344,346.5 L427.25,346.5 L421.25,346.5 L420.7656,346.5 L420.25,345.875 L420.25,345.5 L420.25,345.125 L420.7656,344.5 L421.25,344.5 L423.25,344.5 L423.25,338.5 L421.25,338.5 L420.7656,338.5 L420.25,337.875 L420.25,337.5 L420.25,337.125 L420.7656,336.5 L421.25,336.5 L427.25,336.5 L427.7344,336.5 L428.25,337.125 L428.25,337.5 L428.25,337.875 L427.7344,338.5 L427.25,338.5 L425.25,338.5 Z "/><ellipse cx="449.75" cy="341" fill="#84BE84" rx="3" ry="3" style="stroke: #038048; stroke-width: 1.0;"/><text fill="#000000" font-family="sans-serif" font-size="12" font-style="italic" lengthAdjust="spacingAndGlyphs" textLength="76" x="455.75" y="346.4102">ReaderPlugin</text><line style="stroke: #0000FF; stroke-width: 1.5;" x1="369.5" x2="574.5" y1="357.5" y2="357.5"/><line style="stroke: #0000FF; stroke-width: 1.5;" x1="369.5" x2="574.5" y1="365.5" y2="365.5"/><ellipse cx="379.5" cy="376.5" fill="#84BE84" rx="3" ry="3" style="stroke: #038048; stroke-width: 1.0;"/><text fill="#000000" font-family="sans-serif" font-size="11" lengthAdjust="spacingAndGlyphs" textLength="181" x="388.5" y="380.9189">Map&lt;String, SeReader&gt; getReaders()</text><ellipse cx="379.5" cy="390.3359" fill="#84BE84" rx="3" ry="3" style="stroke: #038048; stroke-width: 1.0;"/><text fill="#000000" font-family="sans-serif" font-size="11" lengthAdjust="spacingAndGlyphs" textLength="150" x="388.5" y="394.7549">Set&lt;String&gt; getReaderNames()</text><ellipse cx="379.5" cy="404.1719" fill="#84BE84" rx="3" ry="3" style="stroke: #038048; stroke-width: 1.0;"/><text fill="#000000" font-family="sans-serif" font-size="11" lengthAdjust="spacingAndGlyphs" textLength="166" x="388.5" y="408.5908">SeReader getReader(String name)</text><!--MD5=[dd49942b1f02350b5568646d3da64c49]
class SeReader--><rect fill="#EEFFEE" height="103.3438" id="SeReader" style="stroke: #008000; stroke-width: 1.5;" width="340" x="655" y="319"/><ellipse cx="787.25" cy="335" fill="#B4A7E5" rx="11" ry="11" style="stroke: #B4A7E5; stroke-width: 1.0;"/><path d="M788.25,332 L788.25,338 L790.25,338 L790.7344,338 L791.25,338.625 L791.25,339 L791.25,339.375 L790.7344,340 L790.25,340 L784.25,340 L783.7656,340 L783.25,339.375 L783.25,339 L783.25,338.625 L783.7656,338 L784.25,338 L786.25,338 L786.25,332 L784.25,332 L783.7656,332 L783.25,331.375 L783.25,331 L783.25,330.625 L783.7656,330 L784.25,330 L790.25,330 L790.7344,330 L791.25,330.625 L791.25,331 L791.25,331.375 L790.7344,332 L790.25,332 L788.25,332 Z "/><ellipse cx="812.75" cy="334.5" fill="#84BE84" rx="3" ry="3" style="stroke: #038048; stroke-width: 1.0;"/><text fill="#000000" font-family="sans-serif" font-size="12" font-style="italic" lengthAdjust="spacingAndGlyphs" textLength="56" x="818.75" y="339.9102">SeReader</text><line style="stroke: #008000; stroke-width: 1.5;" x1="656" x2="994" y1="351" y2="351"/><line style="stroke: #008000; stroke-width: 1.5;" x1="656" x2="994" y1="359" y2="359"/><ellipse cx="666" cy="370" fill="#84BE84" rx="3" ry="3" style="stroke: #038048; stroke-width: 1.0;"/><text fill="#000000" font-family="sans-serif" font-size="11" lengthAdjust="spacingAndGlyphs" textLength="107" x="675" y="374.4189">boolean isSePresent()</text><ellipse cx="666" cy="383.8359" fill="#84BE84" rx="3" ry="3" style="stroke: #038048; stroke-width: 1.0;"/><text fill="#000000" font-family="sans-serif" font-size="11" lengthAdjust="spacingAndGlyphs" textLength="314" x="675" y="388.2549">addSeProtocolSetting(SeProtocol seProtocol, String protocolRule)</text><ellipse cx="666" cy="397.6719" fill="#84BE84" rx="3" ry="3" style="stroke: #038048; stroke-width: 1.0;"/><text fill="#000000" font-family="sans-serif" font-size="11" lengthAdjust="spacingAndGlyphs" textLength="301" x="675" y="402.0908">setSeProtocolSetting(Map&lt;SeProtocol, String&gt; protocolSetting)</text><ellipse cx="666" cy="411.5078" fill="#84BE84" rx="3" ry="3" style="stroke: #038048; stroke-width: 1.0;"/><text fill="#000000" font-family="sans-serif" font-size="11" lengthAdjust="spacingAndGlyphs" textLength="206" x="675" y="415.9268">TransmissionMode getTransmissionMode()</text><!--MD5=[ec495f5f6ae18812fb155b23e8e93f55]
class ReaderPoolPlugin--><rect fill="#F0FFFF" height="89.5078" id="ReaderPoolPlugin" style="stroke: #0000FF; stroke-width: 1.5;" width="267" x="38.5" y="563.5"/><ellipse cx="111.75" cy="579.5" fill="#B4A7E5" rx="11" ry="11" style="stroke: #B4A7E5; stroke-width: 1.0;"/><path d="M112.75,576.5 L112.75,582.5 L114.75,582.5 L115.2344,582.5 L115.75,583.125 L115.75,583.5 L115.75,583.875 L115.2344,584.5 L114.75,584.5 L108.75,584.5 L108.2656,584.5 L107.75,583.875 L107.75,583.5 L107.75,583.125 L108.2656,582.5 L108.75,582.5 L110.75,582.5 L110.75,576.5 L108.75,576.5 L108.2656,576.5 L107.75,575.875 L107.75,575.5 L107.75,575.125 L108.2656,574.5 L108.75,574.5 L114.75,574.5 L115.2344,574.5 L115.75,575.125 L115.75,575.5 L115.75,575.875 L115.2344,576.5 L114.75,576.5 L112.75,576.5 Z "/><ellipse cx="137.25" cy="579" fill="#84BE84" rx="3" ry="3" style="stroke: #038048; stroke-width: 1.0;"/><text fill="#000000" font-family="sans-serif" font-size="12" font-style="italic" lengthAdjust="spacingAndGlyphs" textLength="101" x="143.25" y="584.4102">ReaderPoolPlugin</text><line style="stroke: #0000FF; stroke-width: 1.5;" x1="39.5" x2="304.5" y1="595.5" y2="595.5"/><line style="stroke: #0000FF; stroke-width: 1.5;" x1="39.5" x2="304.5" y1="603.5" y2="603.5"/><ellipse cx="49.5" cy="614.5" fill="#84BE84" rx="3" ry="3" style="stroke: #038048; stroke-width: 1.0;"/><text fill="#000000" font-family="sans-serif" font-size="11" lengthAdjust="spacingAndGlyphs" textLength="236" x="58.5" y="618.9189">SortedSet&lt;String&gt; getReaderGroupReferences()</text><ellipse cx="49.5" cy="628.3359" fill="#84BE84" rx="3" ry="3" style="stroke: #038048; stroke-width: 1.0;"/><text fill="#000000" font-family="sans-serif" font-size="11" lengthAdjust="spacingAndGlyphs" textLength="241" x="58.5" y="632.7549">SeReader allocateReader(String groupReference)</text><ellipse cx="49.5" cy="642.1719" fill="#84BE84" rx="3" ry="3" style="stroke: #038048; stroke-width: 1.0;"/><text fill="#000000" font-family="sans-serif" font-size="11" lengthAdjust="spacingAndGlyphs" textLength="177" x="58.5" y="646.5908">releaseReader(SeReader seReader)</text><!--MD5=[1fa9a61019755e60a0cb03f0bc3590aa]
class ObservablePlugin--><rect fill="#F0FFFF" height="75.6719" id="ObservablePlugin" style="stroke: #0000FF; stroke-width: 1.5;" width="263" x="340.5" y="570.5"/><ellipse cx="412.25" cy="586.5" fill="#B4A7E5" rx="11" ry="11" style="stroke: #B4A7E5; stroke-width: 1.0;"/><path d="M413.25,583.5 L413.25,589.5 L415.25,589.5 L415.7344,589.5 L416.25,590.125 L416.25,590.5 L416.25,590.875 L415.7344,591.5 L415.25,591.5 L409.25,591.5 L408.7656,591.5 L408.25,590.875 L408.25,590.5 L408.25,590.125 L408.7656,589.5 L409.25,589.5 L411.25,589.5 L411.25,583.5 L409.25,583.5 L408.7656,583.5 L408.25,582.875 L408.25,582.5 L408.25,582.125 L408.7656,581.5 L409.25,581.5 L415.25,581.5 L415.7344,581.5 L416.25,582.125 L416.25,582.5 L416.25,582.875 L415.7344,583.5 L415.25,583.5 L413.25,583.5 Z "/><ellipse cx="437.75" cy="586" fill="#84BE84" rx="3" ry="3" style="stroke: #038048; stroke-width: 1.0;"/><text fill="#000000" font-family="sans-serif" font-size="12" font-style="italic" lengthAdjust="spacingAndGlyphs" textLength="100" x="443.75" y="591.4102">ObservablePlugin</text><line style="stroke: #0000FF; stroke-width: 1.5;" x1="341.5" x2="602.5" y1="602.5" y2="602.5"/><line style="stroke: #0000FF; stroke-width: 1.5;" x1="341.5" x2="602.5" y1="610.5" y2="610.5"/><ellipse cx="351.5" cy="621.5" fill="#84BE84" rx="3" ry="3" style="stroke: #038048; stroke-width: 1.0;"/><text fill="#000000" font-family="sans-serif" font-size="11" lengthAdjust="spacingAndGlyphs" textLength="68" x="360.5" y="625.9189">addObserver(</text><text fill="#000000" font-family="sans-serif" font-size="11" font-weight="bold" lengthAdjust="spacingAndGlyphs" textLength="23" x="428.5" y="625.9189">final</text><text fill="#000000" font-family="sans-serif" font-size="11" lengthAdjust="spacingAndGlyphs" textLength="125" x="454.5" y="625.9189">PluginObserver observer)</text><ellipse cx="351.5" cy="635.3359" fill="#84BE84" rx="3" ry="3" style="stroke: #038048; stroke-width: 1.0;"/><text fill="#000000" font-family="sans-serif" font-size="11" lengthAdjust="spacingAndGlyphs" textLength="86" x="360.5" y="639.7549">removeObserver(</text><text fill="#000000" font-family="sans-serif" font-size="11" font-weight="bold" lengthAdjust="spacingAndGlyphs" textLength="23" x="446.5" y="639.7549">final</text><text fill="#000000" font-family="sans-serif" font-size="11" lengthAdjust="spacingAndGlyphs" textLength="125" x="472.5" y="639.7549">PluginObserver observer)</text><!--MD5=[e2341a3d5316e117132fc49473ae3219]
class ObservableReader--><rect fill="#EEFFEE" height="172.5234" id="ObservableReader" style="stroke: #008000; stroke-width: 1.5;" width="391" x="638.5" y="522"/><ellipse cx="771.25" cy="538" fill="#B4A7E5" rx="11" ry="11" style="stroke: #B4A7E5; stroke-width: 1.0;"/><path d="M772.25,535 L772.25,541 L774.25,541 L774.7344,541 L775.25,541.625 L775.25,542 L775.25,542.375 L774.7344,543 L774.25,543 L768.25,543 L767.7656,543 L767.25,542.375 L767.25,542 L767.25,541.625 L767.7656,541 L768.25,541 L770.25,541 L770.25,535 L768.25,535 L767.7656,535 L767.25,534.375 L767.25,534 L767.25,533.625 L767.7656,533 L768.25,533 L774.25,533 L774.7344,533 L775.25,533.625 L775.25,534 L775.25,534.375 L774.7344,535 L774.25,535 L772.25,535 Z "/><ellipse cx="796.75" cy="537.5" fill="#84BE84" rx="3" ry="3" style="stroke: #038048; stroke-width: 1.0;"/><text fill="#000000" font-family="sans-serif" font-size="12" font-style="italic" lengthAdjust="spacingAndGlyphs" textLength="106" x="802.75" y="542.9102">ObservableReader</text><line style="stroke: #008000; stroke-width: 1.5;" x1="639.5" x2="1028.5" y1="554" y2="554"/><line style="stroke: #008000; stroke-width: 1.5;" x1="639.5" x2="1028.5" y1="562" y2="562"/><ellipse cx="649.5" cy="573" fill="#84BE84" rx="3" ry="3" style="stroke: #038048; stroke-width: 1.0;"/><text fill="#000000" font-family="sans-serif" font-size="11" lengthAdjust="spacingAndGlyphs" textLength="68" x="658.5" y="577.4189">addObserver(</text><text fill="#000000" font-family="sans-serif" font-size="11" font-weight="bold" lengthAdjust="spacingAndGlyphs" textLength="23" x="726.5" y="577.4189">final</text><text fill="#000000" font-family="sans-serif" font-size="11" lengthAdjust="spacingAndGlyphs" textLength="132" x="752.5" y="577.4189">ReaderObserver observer)</text><ellipse cx="649.5" cy="586.8359" fill="#84BE84" rx="3" ry="3" style="stroke: #038048; stroke-width: 1.0;"/><text fill="#000000" font-family="sans-serif" font-size="11" lengthAdjust="spacingAndGlyphs" textLength="86" x="658.5" y="591.2549">removeObserver(</text><text fill="#000000" font-family="sans-serif" font-size="11" font-weight="bold" lengthAdjust="spacingAndGlyphs" textLength="23" x="744.5" y="591.2549">final</text><text fill="#000000" font-family="sans-serif" font-size="11" lengthAdjust="spacingAndGlyphs" textLength="132" x="770.5" y="591.2549">ReaderObserver observer)</text><text fill="#000000" font-family="sans-serif" font-size="11" lengthAdjust="spacingAndGlyphs" textLength="0" x="661.5" y="605.0908"/><ellipse cx="649.5" cy="614.5078" fill="#84BE84" rx="3" ry="3" style="stroke: #038048; stroke-width: 1.0;"/><text fill="#000000" font-family="sans-serif" font-size="11" lengthAdjust="spacingAndGlyphs" textLength="203" x="658.5" y="618.9268">startSeDetection(PollingMode pollingMode)</text><ellipse cx="649.5" cy="628.3438" fill="#84BE84" rx="3" ry="3" style="stroke: #038048; stroke-width: 1.0;"/><text fill="#000000" font-family="sans-serif" font-size="11" lengthAdjust="spacingAndGlyphs" textLength="87" x="658.5" y="632.7627">stopSeDetection()</text><ellipse cx="649.5" cy="642.1797" fill="#84BE84" rx="3" ry="3" style="stroke: #038048; stroke-width: 1.0;"/><text fill="#000000" font-family="sans-serif" font-size="11" lengthAdjust="spacingAndGlyphs" textLength="100" x="658.5" y="646.5986">notifySeProcessed()</text><text fill="#000000" font-family="sans-serif" font-size="11" lengthAdjust="spacingAndGlyphs" textLength="0" x="661.5" y="660.4346"/><ellipse cx="649.5" cy="669.8516" fill="#84BE84" rx="3" ry="3" style="stroke: #038048; stroke-width: 1.0;"/><text fill="#000000" font-family="sans-serif" font-size="11" lengthAdjust="spacingAndGlyphs" textLength="365" x="658.5" y="674.2705">setDefaultSelectionRequest(AbstractDefaultSelectionsRequest selectionsR,</text><text fill="#000000" font-family="sans-serif" font-size="11" lengthAdjust="spacingAndGlyphs" textLength="273" x="658.5" y="688.1064">NotificationMode notificationM, PollingMode[0..1] pollingM)</text><!--MD5=[628c6eb29572115a3ae82dff7e7e6b47]
link SeProxyService to AbstractPluginFactory--><path d="M256.2311,251.6869 C256.2311,251.6869 229.995,300.568 219.189,320.703 " fill="none" id="SeProxyService-AbstractPluginFactory" style="stroke: #A80036; stroke-width: 1.0;"/><polygon fill="#A80036" points="212.926,332.373,220.707,326.3351,215.2908,327.9676,213.6583,322.5514,212.926,332.373" style="stroke: #A80036; stroke-width: 1.0;"/><line style="stroke: #A80036; stroke-width: 1.0;" x1="215.2908" x2="219.074" y1="327.9676" y2="320.918"/><polygon fill="#A80036" points="261.905,241.113,255.5434,244.5086,256.2311,251.6869,262.5927,248.2912,261.905,241.113" style="stroke: #A80036; stroke-width: 1.0;"/><text fill="#000000" font-family="sans-serif" font-size="13" lengthAdjust="spacingAndGlyphs" textLength="50" x="246" y="285.4951">registers</text><text fill="#000000" font-family="sans-serif" font-size="13" lengthAdjust="spacingAndGlyphs" textLength="7" x="250.9548" y="262.1827">1</text><text fill="#000000" font-family="sans-serif" font-size="13" lengthAdjust="spacingAndGlyphs" textLength="5" x="211.03" y="321.7123">*</text><!--MD5=[98fb93546a7dc75f66b7a26283e02bb5]
link SeProxyService to ReaderPlugin--><path d="M383.7507,250.7446 C383.7507,250.7446 417.007,295.497 431.229,314.635 " fill="none" id="SeProxyService-ReaderPlugin" style="stroke: #A80036; stroke-width: 1.0;"/><polygon fill="#A80036" points="439.105,325.234,436.9472,315.6244,436.1226,321.2209,430.5262,320.3962,439.105,325.234" style="stroke: #A80036; stroke-width: 1.0;"/><line style="stroke: #A80036; stroke-width: 1.0;" x1="436.1226" x2="431.351" y1="321.2209" y2="314.8"/><polygon fill="#A80036" points="376.593,241.113,376.9613,248.3147,383.7507,250.7446,383.3824,243.5429,376.593,241.113" style="stroke: #A80036; stroke-width: 1.0;"/><text fill="#000000" font-family="sans-serif" font-size="13" lengthAdjust="spacingAndGlyphs" textLength="41" x="411" y="285.4951">plugins</text><text fill="#000000" font-family="sans-serif" font-size="13" lengthAdjust="spacingAndGlyphs" textLength="7" x="374.4236" y="262.1827">1</text><text fill="#000000" font-family="sans-serif" font-size="13" lengthAdjust="spacingAndGlyphs" textLength="5" x="428.6851" y="314.6374">*</text><!--MD5=[ed432611766c8e88b892041f7da1367f]
link AbstractPluginFactory to ReaderPlugin--><path d="M289.016,370.5 C312.856,370.5 338.578,370.5 362.991,370.5 " fill="none" id="AbstractPluginFactory-&gt;ReaderPlugin" style="stroke: #A80036; stroke-width: 1.0;"/><polygon fill="#A80036" points="368.179,370.5,359.179,366.5,363.179,370.5,359.179,374.5,368.179,370.5" style="stroke: #A80036; stroke-width: 1.0;"/><text fill="#000000" font-family="sans-serif" font-size="13" lengthAdjust="spacingAndGlyphs" textLength="43" x="307.25" y="363.9951">creates</text><text fill="#000000" font-family="sans-serif" font-size="13" lengthAdjust="spacingAndGlyphs" textLength="7" x="296.9462" y="367.3847">1</text><text fill="#000000" font-family="sans-serif" font-size="13" lengthAdjust="spacingAndGlyphs" textLength="7" x="353.633" y="367.4623">1</text><!--MD5=[c88fac8de0d16551763276c4b9088a93]
link ReaderPlugin to SeReader--><path d="M587.526,370.5 C587.526,370.5 623.616,370.5 641.659,370.5 " fill="none" id="ReaderPlugin-SeReader" style="stroke: #A80036; stroke-width: 1.0;"/><polygon fill="#A80036" points="654.803,370.5,645.803,366.5,649.803,370.5,645.803,374.5,654.803,370.5" style="stroke: #A80036; stroke-width: 1.0;"/><line style="stroke: #A80036; stroke-width: 1.0;" x1="649.803" x2="641.803" y1="370.5" y2="370.5"/><polygon fill="#A80036" points="575.526,370.5,581.526,374.5,587.526,370.5,581.526,366.5,575.526,370.5" style="stroke: #A80036; stroke-width: 1.0;"/><text fill="#000000" font-family="sans-serif" font-size="13" lengthAdjust="spacingAndGlyphs" textLength="43" x="593.75" y="363.9951">readers</text><text fill="#000000" font-family="sans-serif" font-size="13" lengthAdjust="spacingAndGlyphs" textLength="7" x="583.3857" y="367.4386">1</text><text fill="#000000" font-family="sans-serif" font-size="13" lengthAdjust="spacingAndGlyphs" textLength="5" x="641.9777" y="367.6328">*</text><!--MD5=[bc25a197e36279471f37427b8b5d69b0]
reverse link ReaderPlugin to ReaderPoolPlugin--><path d="M391.588,427.548 C369.416,443.491 345.543,461.118 324,478 C289.073,505.371 251.073,537.746 221.804,563.278 " fill="none" id="ReaderPlugin&lt;-ReaderPoolPlugin" style="stroke: #A80036; stroke-width: 1.0;"/><polygon fill="none" points="387.8,421.651,408.144,415.725,395.936,433.045,387.8,421.651" style="stroke: #A80036; stroke-width: 1.0;"/><text fill="#000000" font-family="sans-serif" font-size="13" lengthAdjust="spacingAndGlyphs" textLength="46" x="356" y="466.4951">extends</text><!--MD5=[a087c8f219181ff1dbe7adabc28b3231]
reverse link ReaderPlugin to ObservablePlugin--><path d="M472,435.669 C472,478.804 472,534.153 472,570.206 " fill="none" id="ReaderPlugin&lt;-ObservablePlugin" style="stroke: #A80036; stroke-width: 1.0;"/><polygon fill="none" points="465,435.613,472,415.613,479,435.613,465,435.613" style="stroke: #A80036; stroke-width: 1.0;"/><text fill="#000000" font-family="sans-serif" font-size="13" lengthAdjust="spacingAndGlyphs" textLength="46" x="473" y="466.4951">extends</text><!--MD5=[9bde350185f61a8992bbce085951af21]
reverse link SeReader to ObservableReader--><path d="M827.696,442.195 C828.649,467.182 829.731,495.56 830.727,521.665 " fill="none" id="SeReader&lt;-ObservableReader" style="stroke: #A80036; stroke-width: 1.0;"/><polygon fill="none" points="820.698,442.38,826.931,422.128,834.688,441.847,820.698,442.38" style="stroke: #A80036; stroke-width: 1.0;"/><text fill="#000000" font-family="sans-serif" font-size="13" lengthAdjust="spacingAndGlyphs" textLength="46" x="829" y="466.4951">extends</text><!--MD5=[6ff42eee2d93b23b3557b0570faf0c26]
reverse link ProxyElement to ReaderPlugin--><path d="M591.712,224.515 C564.089,257.97 532.26,296.518 508.369,325.454 " fill="none" id="ProxyElement&lt;-ReaderPlugin" style="stroke: #A80036; stroke-width: 1.0;"/><polygon fill="none" points="586.34,220.027,604.472,209.062,597.135,228.941,586.34,220.027" style="stroke: #A80036; stroke-width: 1.0;"/><text fill="#000000" font-family="sans-serif" font-size="13" lengthAdjust="spacingAndGlyphs" textLength="46" x="552" y="285.4951">extends</text><!--MD5=[e474867e38445a864bdbc7a2e090866a]
reverse link ProxyElement to SeReader--><path d="M710.124,224.743 C734.608,255.595 762.502,290.745 784.672,318.682 " fill="none" id="ProxyElement&lt;-SeReader" style="stroke: #A80036; stroke-width: 1.0;"/><polygon fill="none" points="704.629,229.08,697.68,209.062,715.596,220.377,704.629,229.08" style="stroke: #A80036; stroke-width: 1.0;"/><text fill="#000000" font-family="sans-serif" font-size="13" lengthAdjust="spacingAndGlyphs" textLength="46" x="760" y="285.4951">extends</text><!--MD5=[1adfb0d01945e841ec974f5cd12437ef]
@startuml
skinparam ClassBorderColor #D4AC0D
skinparam stereotypeABorderColor #A9DCDF
skinparam stereotypeIBorderColor #B4A7E5
skinparam stereotypeCBorderColor #ADD1B2
skinparam stereotypeEBorderColor #EB93DF
skinparam shadowing false

skinparam ClassBackgroundColor<<red>> #FDEDEC
skinparam ClassBorderColor<<red>> #E74C3C
hide <<red>> stereotype
skinparam ClassBackgroundColor<<purple>> #F4ECF7
skinparam ClassBorderColor<<purple>> #8E44AD
hide <<purple>> stereotype
skinparam ClassBackgroundColor<<blue>> #EBF5FB
skinparam ClassBorderColor<<blue>> #3498DB
hide <<blue>> stereotype
skinparam ClassBackgroundColor<<green>> #EAFAF1
skinparam ClassBorderColor<<green>> #2ECC71
hide <<green>> stereotype
skinparam ClassBackgroundColor<<grey>> #EAECEE
skinparam ClassBorderColor<<grey>> #2C3E50
hide <<grey>> stereotype

package org.eclipse.keyple.core.seproxy #FFFFFF {
+class "<b>final</b> SeProxyService" as SeProxyService << Singleton >> {
  +{static}SeProxyService getInstance()
  +String getVersion()

  +ReaderPlugin registerPlugin(AbstractPluginFactory pluginFactory)
  +boolean isRegistered(String pluginName)
  +boolean unregisterPlugin(String pluginName)

  +ReaderPlugin getPlugin(String name)
  +Set<ReaderPlugin> getPlugins()
}
~interface ProxyElement {
  +String getName()

  +Map<String, String> getParameters()
  +setParameter(String key, String value)
  +setParameters(Map<String, String> parameters)
}

+abstract AbstractPluginFactory {
  {abstract} #String getPluginName()
  {abstract} #ReaderPlugin getPluginInstance()
}
+interface ReaderPlugin {
  +Map<String, SeReader> getReaders()
  +Set<String> getReaderNames()
  +SeReader getReader(String name)
}
+interface SeReader {
  +boolean isSePresent()
  +addSeProtocolSetting(SeProtocol seProtocol, String protocolRule)
  +setSeProtocolSetting(Map<SeProtocol, String> protocolSetting)
  +TransmissionMode getTransmissionMode()
}

  SeProxyService "1" *- -> "*" AbstractPluginFactory : registers
  SeProxyService "1" *-down-> "*" ReaderPlugin : plugins
  AbstractPluginFactory "1" -right-> "1" ReaderPlugin : creates
  ReaderPlugin "1" *-right-> "*" SeReader : readers

+interface ReaderPoolPlugin {
  +SortedSet<String> getReaderGroupReferences()
  +SeReader allocateReader(String groupReference)
  +releaseReader(SeReader seReader)
}
  ReaderPlugin <|- - ReaderPoolPlugin : extends

  package event #FFFFFF {
+interface ObservablePlugin {
  +addObserver(<b>final</b> PluginObserver observer)
  +removeObserver(<b>final</b> PluginObserver observer)
}
+interface ObservableReader {
  +addObserver(<b>final</b> ReaderObserver observer)
  +removeObserver(<b>final</b> ReaderObserver observer)

  +startSeDetection(PollingMode pollingMode)
  +stopSeDetection()
  +notifySeProcessed()

  +setDefaultSelectionRequest(AbstractDefaultSelectionsRequest selectionsR,
    NotificationMode notificationM, PollingMode[0..1] pollingM)
}
  }
  ReaderPlugin <|- - ObservablePlugin : extends
  SeReader <|- - ObservableReader : extends
}

ProxyElement <|- - ReaderPlugin : extends
ProxyElement <|- - SeReader : extends

interface ReaderPlugin <<Plugin>>
interface ObservablePlugin <<Plugin>>
interface ReaderPoolPlugin <<Plugin>>
hide <<Plugin>> stereotype

interface SeReader <<Reader>>
interface ObservableReader <<Reader>>
hide <<Reader>> stereotype

skinparam class {
  BackgroundColor<<Plugin>> Azure
  BorderColor<<Plugin>> Blue
  BackgroundColor<<Reader>> #EEFFEE
  BorderColor<<Reader>> Green
}
@enduml

PlantUML version 1.2020.09(Sun May 10 14:51:06 MUT 2020)
(GPL source distribution)
Java Runtime: OpenJDK Runtime Environment
JVM: OpenJDK 64-Bit Server VM
Java Version: 11.0.6+8-b765.40
Operating System: Windows 10
Default Encoding: Cp1252
Language: fr
Country: FR
--></g></svg>