<?xml version="1.0" encoding="UTF-8" standalone="no"?><svg xmlns="http://www.w3.org/2000/svg" xmlns:xlink="http://www.w3.org/1999/xlink" contentScriptType="application/ecmascript" contentStyleType="text/css" height="841px" preserveAspectRatio="none" style="width:966px;height:841px;" version="1.1" viewBox="0 0 966 841" width="966px" zoomAndPan="magnify"><defs/><g><!--MD5=[43faeb760e7b9692ab91f636f0cf3388]
cluster external.terminalapplication--><polygon fill="#3399FF" points="98,24,300,24,307,47.6094,310,47.6094,310,124,98,124,98,24" style="stroke: #000000; stroke-width: 1.5;"/><line style="stroke: #000000; stroke-width: 1.5;" x1="98" x2="307" y1="47.6094" y2="47.6094"/><text fill="#000000" font-family="sans-serif" font-size="14" font-weight="bold" lengthAdjust="spacingAndGlyphs" textLength="196" x="102" y="40.5332">external.terminalapplication</text><!--MD5=[2bcc54f38766b998c5e88efdbc7d1696]
cluster org.eclipse.keyple.core.seproxy--><polygon fill="#FFFFFF" points="22,174,253,174,260,197.6094,944,197.6094,944,615,22,615,22,174" style="stroke: #000000; stroke-width: 1.5;"/><line style="stroke: #000000; stroke-width: 1.5;" x1="22" x2="260" y1="197.6094" y2="197.6094"/><text fill="#000000" font-family="sans-serif" font-size="14" font-weight="bold" lengthAdjust="spacingAndGlyphs" textLength="225" x="26" y="190.5332">org.eclipse.keyple.core.seproxy</text><!--MD5=[fcbadcad9a28152c89ed5c4d71dbb045]
cluster plugin.specific--><polygon fill="#D7BDE2" points="42,665,151,665,158,688.6094,714,688.6094,714,829,42,829,42,665" style="stroke: #000000; stroke-width: 1.5;"/><line style="stroke: #000000; stroke-width: 1.5;" x1="42" x2="158" y1="688.6094" y2="688.6094"/><text fill="#000000" font-family="sans-serif" font-size="14" font-weight="bold" lengthAdjust="spacingAndGlyphs" textLength="103" x="46" y="681.5332">plugin.specific</text><!--MD5=[36749fbd9f1718a5265922a19e14c350]
class SpecificTerminal--><rect fill="#FEFECE" height="48" id="SpecificTerminal" style="stroke: #D4AC0D; stroke-width: 1.5;" width="124" x="142" y="60"/><ellipse cx="157" cy="76" fill="#ADD1B2" rx="11" ry="11" style="stroke: #ADD1B2; stroke-width: 1.0;"/><path d="M159,72.5 Q159.2031,72 159.4375,71.75 Q159.6719,71.5 159.9375,71.5 Q160.4063,71.5 160.7031,71.7813 Q161,72.0625 161,72.7188 L161,74.2813 Q161,74.9375 160.7188,75.2188 Q160.4375,75.5 160,75.5 Q159.6094,75.5 159.3594,75.3281 Q159.1094,75.1563 159,74.7031 Q158.9531,74.3906 158.7813,74.2188 Q158.4688,73.8906 157.9063,73.7031 Q157.3438,73.5 156.7813,73.5 Q156.0781,73.5 155.4844,73.7813 Q154.9063,74.0625 154.4531,74.6875 Q154,75.3125 154,76.1719 L154,77.0938 Q154,78.125 154.8438,78.8125 Q155.6875,79.5 157.1875,79.5 Q158.0781,79.5 158.7031,79.2969 Q159.0625,79.1875 159.4688,78.8281 Q159.7344,78.625 159.875,78.5625 Q160.0156,78.5 160.1875,78.5 Q160.5156,78.5 160.75,78.7656 Q161,79.0156 161,79.375 Q161,79.7188 160.6563,80.125 Q160.1563,80.7188 159.3594,81.0469 Q158.3125,81.5 157.0313,81.5 Q155.5313,81.5 154.3281,80.9063 Q153.3594,80.4375 152.6719,79.4219 Q152,78.4063 152,77.2031 L152,76.1094 Q152,74.8594 152.5938,73.7656 Q153.2031,72.6719 154.25,72.0938 Q155.3125,71.5 156.5,71.5 Q157.2188,71.5 157.8438,71.75 Q158.4688,72 159,72.5 Z "/><text fill="#000000" font-family="sans-serif" font-size="12" lengthAdjust="spacingAndGlyphs" textLength="92" x="171" y="80.9102">SpecificTerminal</text><line style="stroke: #D4AC0D; stroke-width: 1.5;" x1="143" x2="265" y1="92" y2="92"/><line style="stroke: #D4AC0D; stroke-width: 1.5;" x1="143" x2="265" y1="100" y2="100"/><!--MD5=[f0c44d4c6fb415056b2c0aabd573961b]
class SeProxyService--><rect fill="#FEFECE" height="208.3828" id="SeProxyService" style="stroke: #D4AC0D; stroke-width: 1.5;" width="298" x="55" y="210"/><ellipse cx="138.75" cy="230.0938" fill="#ADD1B2" rx="11" ry="11" style="stroke: #ADD1B2; stroke-width: 1.0;"/><path d="M140.75,226.5938 Q140.9531,226.0938 141.1875,225.8438 Q141.4219,225.5938 141.6875,225.5938 Q142.1563,225.5938 142.4531,225.875 Q142.75,226.1563 142.75,226.8125 L142.75,228.375 Q142.75,229.0313 142.4688,229.3125 Q142.1875,229.5938 141.75,229.5938 Q141.3594,229.5938 141.1094,229.4219 Q140.8594,229.25 140.75,228.7969 Q140.7031,228.4844 140.5313,228.3125 Q140.2188,227.9844 139.6563,227.7969 Q139.0938,227.5938 138.5313,227.5938 Q137.8281,227.5938 137.2344,227.875 Q136.6563,228.1563 136.2031,228.7813 Q135.75,229.4063 135.75,230.2656 L135.75,231.1875 Q135.75,232.2188 136.5938,232.9063 Q137.4375,233.5938 138.9375,233.5938 Q139.8281,233.5938 140.4531,233.3906 Q140.8125,233.2813 141.2188,232.9219 Q141.4844,232.7188 141.625,232.6563 Q141.7656,232.5938 141.9375,232.5938 Q142.2656,232.5938 142.5,232.8594 Q142.75,233.1094 142.75,233.4688 Q142.75,233.8125 142.4063,234.2188 Q141.9063,234.8125 141.1094,235.1406 Q140.0625,235.5938 138.7813,235.5938 Q137.2813,235.5938 136.0781,235 Q135.1094,234.5313 134.4219,233.5156 Q133.75,232.5 133.75,231.2969 L133.75,230.2031 Q133.75,228.9531 134.3438,227.8594 Q134.9531,226.7656 136,226.1875 Q137.0625,225.5938 138.25,225.5938 Q138.9688,225.5938 139.5938,225.8438 Q140.2188,226.0938 140.75,226.5938 Z "/><text fill="#000000" font-family="sans-serif" font-size="12" font-style="italic" lengthAdjust="spacingAndGlyphs" textLength="66" x="187.25" y="227.457">«Singleton»</text><ellipse cx="164.25" cy="237.1406" fill="#84BE84" rx="3" ry="3" style="stroke: #038048; stroke-width: 1.0;"/><text fill="#000000" font-family="sans-serif" font-size="12" font-weight="bold" lengthAdjust="spacingAndGlyphs" textLength="24" x="170.25" y="242.5508">final</text><text fill="#000000" font-family="sans-serif" font-size="12" lengthAdjust="spacingAndGlyphs" textLength="84" x="197.25" y="242.5508">SeProxyService</text><line style="stroke: #D4AC0D; stroke-width: 1.5;" x1="56" x2="352" y1="250.1875" y2="250.1875"/><rect fill="none" height="6" style="stroke: #C82930; stroke-width: 1.0;" width="6" x="63" y="258.1875"/><text fill="#000000" font-family="sans-serif" font-size="11" font-weight="bold" lengthAdjust="spacingAndGlyphs" text-decoration="underline" textLength="23" x="75" y="265.6064">final</text><text fill="#000000" font-family="sans-serif" font-size="11" lengthAdjust="spacingAndGlyphs" text-decoration="underline" textLength="154" x="101" y="265.6064">SeProxyService uniqueInstance</text><rect fill="none" height="6" style="stroke: #C82930; stroke-width: 1.0;" width="6" x="63" y="272.0234"/><text fill="#000000" font-family="sans-serif" font-size="11" font-weight="bold" lengthAdjust="spacingAndGlyphs" textLength="23" x="75" y="279.4424">final</text><text fill="#000000" font-family="sans-serif" font-size="11" lengthAdjust="spacingAndGlyphs" textLength="220" x="101" y="279.4424">ConcurrentMap&lt;String, ReaderPlugin&gt; plugins</text><line style="stroke: #D4AC0D; stroke-width: 1.5;" x1="56" x2="352" y1="285.8594" y2="285.8594"/><ellipse cx="66" cy="296.8594" fill="#84BE84" rx="3" ry="3" style="stroke: #038048; stroke-width: 1.0;"/><text fill="#000000" font-family="sans-serif" font-size="11" lengthAdjust="spacingAndGlyphs" text-decoration="underline" textLength="145" x="75" y="301.2783">SeProxyService getInstance()</text><ellipse cx="66" cy="310.6953" fill="#84BE84" rx="3" ry="3" style="stroke: #038048; stroke-width: 1.0;"/><text fill="#000000" font-family="sans-serif" font-size="11" lengthAdjust="spacingAndGlyphs" textLength="92" x="75" y="315.1143">String getVersion()</text><text fill="#000000" font-family="sans-serif" font-size="11" lengthAdjust="spacingAndGlyphs" textLength="0" x="78" y="328.9502"/><ellipse cx="66" cy="338.3672" fill="#84BE84" rx="3" ry="3" style="stroke: #038048; stroke-width: 1.0;"/><text fill="#000000" font-family="sans-serif" font-size="11" lengthAdjust="spacingAndGlyphs" textLength="272" x="75" y="342.7861">ReaderPlugin registerPlugin(PluginFactory pluginFactory)</text><ellipse cx="66" cy="352.2031" fill="#84BE84" rx="3" ry="3" style="stroke: #038048; stroke-width: 1.0;"/><text fill="#000000" font-family="sans-serif" font-size="11" lengthAdjust="spacingAndGlyphs" textLength="195" x="75" y="356.6221">boolean isRegistered(String pluginName)</text><ellipse cx="66" cy="366.0391" fill="#84BE84" rx="3" ry="3" style="stroke: #038048; stroke-width: 1.0;"/><text fill="#000000" font-family="sans-serif" font-size="11" lengthAdjust="spacingAndGlyphs" textLength="212" x="75" y="370.458">boolean unregisterPlugin(String pluginName)</text><text fill="#000000" font-family="sans-serif" font-size="11" lengthAdjust="spacingAndGlyphs" textLength="0" x="78" y="384.2939"/><ellipse cx="66" cy="393.7109" fill="#84BE84" rx="3" ry="3" style="stroke: #038048; stroke-width: 1.0;"/><text fill="#000000" font-family="sans-serif" font-size="11" lengthAdjust="spacingAndGlyphs" textLength="174" x="75" y="398.1299">ReaderPlugin getPlugin(String name)</text><ellipse cx="66" cy="407.5469" fill="#84BE84" rx="3" ry="3" style="stroke: #038048; stroke-width: 1.0;"/><text fill="#000000" font-family="sans-serif" font-size="11" lengthAdjust="spacingAndGlyphs" textLength="243" x="75" y="411.9658">ConcurrentMap&lt;String, ReaderPlugin&gt; getPlugins()</text><!--MD5=[5c68026ea752d2e8f1e184b2d7c89ced]
class PluginFactory--><rect fill="#FEFECE" height="75.6719" id="PluginFactory" style="stroke: #D4AC0D; stroke-width: 1.5;" width="184" x="38" y="509.5"/><ellipse cx="82.75" cy="525.5" fill="#B4A7E5" rx="11" ry="11" style="stroke: #B4A7E5; stroke-width: 1.0;"/><path d="M83.75,522.5 L83.75,528.5 L85.75,528.5 L86.2344,528.5 L86.75,529.125 L86.75,529.5 L86.75,529.875 L86.2344,530.5 L85.75,530.5 L79.75,530.5 L79.2656,530.5 L78.75,529.875 L78.75,529.5 L78.75,529.125 L79.2656,528.5 L79.75,528.5 L81.75,528.5 L81.75,522.5 L79.75,522.5 L79.2656,522.5 L78.75,521.875 L78.75,521.5 L78.75,521.125 L79.2656,520.5 L79.75,520.5 L85.75,520.5 L86.2344,520.5 L86.75,521.125 L86.75,521.5 L86.75,521.875 L86.2344,522.5 L85.75,522.5 L83.75,522.5 Z "/><ellipse cx="108.25" cy="525" fill="#84BE84" rx="3" ry="3" style="stroke: #038048; stroke-width: 1.0;"/><text fill="#000000" font-family="sans-serif" font-size="12" font-style="italic" lengthAdjust="spacingAndGlyphs" textLength="75" x="114.25" y="530.4102">PluginFactory</text><line style="stroke: #D4AC0D; stroke-width: 1.5;" x1="39" x2="221" y1="541.5" y2="541.5"/><line style="stroke: #D4AC0D; stroke-width: 1.5;" x1="39" x2="221" y1="549.5" y2="549.5"/><ellipse cx="49" cy="560.5" fill="#84BE84" rx="3" ry="3" style="stroke: #038048; stroke-width: 1.0;"/><text fill="#000000" font-family="sans-serif" font-size="11" lengthAdjust="spacingAndGlyphs" textLength="109" x="58" y="564.9189">String getPluginName()</text><ellipse cx="49" cy="574.3359" fill="#84BE84" rx="3" ry="3" style="stroke: #038048; stroke-width: 1.0;"/><text fill="#000000" font-family="sans-serif" font-size="11" lengthAdjust="spacingAndGlyphs" textLength="158" x="58" y="578.7549">ReaderPlugin getPluginInstance()</text><!--MD5=[a0e88443257adb8def549c32ec694d43]
class ReaderPlugin--><rect fill="#FEFECE" height="89.5078" id="ReaderPlugin" style="stroke: #D4AC0D; stroke-width: 1.5;" width="207" x="301.5" y="502.5"/><ellipse cx="357.25" cy="518.5" fill="#B4A7E5" rx="11" ry="11" style="stroke: #B4A7E5; stroke-width: 1.0;"/><path d="M358.25,515.5 L358.25,521.5 L360.25,521.5 L360.7344,521.5 L361.25,522.125 L361.25,522.5 L361.25,522.875 L360.7344,523.5 L360.25,523.5 L354.25,523.5 L353.7656,523.5 L353.25,522.875 L353.25,522.5 L353.25,522.125 L353.7656,521.5 L354.25,521.5 L356.25,521.5 L356.25,515.5 L354.25,515.5 L353.7656,515.5 L353.25,514.875 L353.25,514.5 L353.25,514.125 L353.7656,513.5 L354.25,513.5 L360.25,513.5 L360.7344,513.5 L361.25,514.125 L361.25,514.5 L361.25,514.875 L360.7344,515.5 L360.25,515.5 L358.25,515.5 Z "/><ellipse cx="382.75" cy="518" fill="#84BE84" rx="3" ry="3" style="stroke: #038048; stroke-width: 1.0;"/><text fill="#000000" font-family="sans-serif" font-size="12" font-style="italic" lengthAdjust="spacingAndGlyphs" textLength="76" x="388.75" y="523.4102">ReaderPlugin</text><line style="stroke: #D4AC0D; stroke-width: 1.5;" x1="302.5" x2="507.5" y1="534.5" y2="534.5"/><line style="stroke: #D4AC0D; stroke-width: 1.5;" x1="302.5" x2="507.5" y1="542.5" y2="542.5"/><ellipse cx="312.5" cy="553.5" fill="#84BE84" rx="3" ry="3" style="stroke: #038048; stroke-width: 1.0;"/><text fill="#000000" font-family="sans-serif" font-size="11" lengthAdjust="spacingAndGlyphs" textLength="181" x="321.5" y="557.9189">Map&lt;String, SeReader&gt; getReaders()</text><ellipse cx="312.5" cy="567.3359" fill="#84BE84" rx="3" ry="3" style="stroke: #038048; stroke-width: 1.0;"/><text fill="#000000" font-family="sans-serif" font-size="11" lengthAdjust="spacingAndGlyphs" textLength="150" x="321.5" y="571.7549">Set&lt;String&gt; getReaderNames()</text><ellipse cx="312.5" cy="581.1719" fill="#84BE84" rx="3" ry="3" style="stroke: #038048; stroke-width: 1.0;"/><text fill="#000000" font-family="sans-serif" font-size="11" lengthAdjust="spacingAndGlyphs" textLength="166" x="321.5" y="585.5908">SeReader getReader(String name)</text><!--MD5=[dd49942b1f02350b5568646d3da64c49]
class SeReader--><rect fill="#FEFECE" height="103.3438" id="SeReader" style="stroke: #D4AC0D; stroke-width: 1.5;" width="340" x="588" y="496"/><ellipse cx="720.25" cy="512" fill="#B4A7E5" rx="11" ry="11" style="stroke: #B4A7E5; stroke-width: 1.0;"/><path d="M721.25,509 L721.25,515 L723.25,515 L723.7344,515 L724.25,515.625 L724.25,516 L724.25,516.375 L723.7344,517 L723.25,517 L717.25,517 L716.7656,517 L716.25,516.375 L716.25,516 L716.25,515.625 L716.7656,515 L717.25,515 L719.25,515 L719.25,509 L717.25,509 L716.7656,509 L716.25,508.375 L716.25,508 L716.25,507.625 L716.7656,507 L717.25,507 L723.25,507 L723.7344,507 L724.25,507.625 L724.25,508 L724.25,508.375 L723.7344,509 L723.25,509 L721.25,509 Z "/><ellipse cx="745.75" cy="511.5" fill="#84BE84" rx="3" ry="3" style="stroke: #038048; stroke-width: 1.0;"/><text fill="#000000" font-family="sans-serif" font-size="12" font-style="italic" lengthAdjust="spacingAndGlyphs" textLength="56" x="751.75" y="516.9102">SeReader</text><line style="stroke: #D4AC0D; stroke-width: 1.5;" x1="589" x2="927" y1="528" y2="528"/><line style="stroke: #D4AC0D; stroke-width: 1.5;" x1="589" x2="927" y1="536" y2="536"/><ellipse cx="599" cy="547" fill="#84BE84" rx="3" ry="3" style="stroke: #038048; stroke-width: 1.0;"/><text fill="#000000" font-family="sans-serif" font-size="11" lengthAdjust="spacingAndGlyphs" textLength="107" x="608" y="551.4189">boolean isSePresent()</text><ellipse cx="599" cy="560.8359" fill="#84BE84" rx="3" ry="3" style="stroke: #038048; stroke-width: 1.0;"/><text fill="#000000" font-family="sans-serif" font-size="11" lengthAdjust="spacingAndGlyphs" textLength="314" x="608" y="565.2549">addSeProtocolSetting(SeProtocol seProtocol, String protocolRule)</text><ellipse cx="599" cy="574.6719" fill="#84BE84" rx="3" ry="3" style="stroke: #038048; stroke-width: 1.0;"/><text fill="#000000" font-family="sans-serif" font-size="11" lengthAdjust="spacingAndGlyphs" textLength="301" x="608" y="579.0908">setSeProtocolSetting(Map&lt;SeProtocol, String&gt; protocolSetting)</text><ellipse cx="599" cy="588.5078" fill="#84BE84" rx="3" ry="3" style="stroke: #038048; stroke-width: 1.0;"/><text fill="#000000" font-family="sans-serif" font-size="11" lengthAdjust="spacingAndGlyphs" textLength="206" x="608" y="592.9268">TransmissionMode getTransmissionMode()</text><!--MD5=[273228bd21fa37477fe0813cbe95870a]
class SpecificPluginFactory--><rect fill="#FEFECE" height="75.6719" id="SpecificPluginFactory" style="stroke: #D4AC0D; stroke-width: 1.5;" width="187" x="58.5" y="719"/><ellipse cx="73.5" cy="735" fill="#ADD1B2" rx="11" ry="11" style="stroke: #ADD1B2; stroke-width: 1.0;"/><path d="M75.5,731.5 Q75.7031,731 75.9375,730.75 Q76.1719,730.5 76.4375,730.5 Q76.9063,730.5 77.2031,730.7813 Q77.5,731.0625 77.5,731.7188 L77.5,733.2813 Q77.5,733.9375 77.2188,734.2188 Q76.9375,734.5 76.5,734.5 Q76.1094,734.5 75.8594,734.3281 Q75.6094,734.1563 75.5,733.7031 Q75.4531,733.3906 75.2813,733.2188 Q74.9688,732.8906 74.4063,732.7031 Q73.8438,732.5 73.2813,732.5 Q72.5781,732.5 71.9844,732.7813 Q71.4063,733.0625 70.9531,733.6875 Q70.5,734.3125 70.5,735.1719 L70.5,736.0938 Q70.5,737.125 71.3438,737.8125 Q72.1875,738.5 73.6875,738.5 Q74.5781,738.5 75.2031,738.2969 Q75.5625,738.1875 75.9688,737.8281 Q76.2344,737.625 76.375,737.5625 Q76.5156,737.5 76.6875,737.5 Q77.0156,737.5 77.25,737.7656 Q77.5,738.0156 77.5,738.375 Q77.5,738.7188 77.1563,739.125 Q76.6563,739.7188 75.8594,740.0469 Q74.8125,740.5 73.5313,740.5 Q72.0313,740.5 70.8281,739.9063 Q69.8594,739.4375 69.1719,738.4219 Q68.5,737.4063 68.5,736.2031 L68.5,735.1094 Q68.5,733.8594 69.0938,732.7656 Q69.7031,731.6719 70.75,731.0938 Q71.8125,730.5 73,730.5 Q73.7188,730.5 74.3438,730.75 Q74.9688,731 75.5,731.5 Z "/><ellipse cx="92.5" cy="734.5" fill="#84BE84" rx="3" ry="3" style="stroke: #038048; stroke-width: 1.0;"/><text fill="#000000" font-family="sans-serif" font-size="12" font-weight="bold" lengthAdjust="spacingAndGlyphs" textLength="24" x="98.5" y="739.9102">final</text><text fill="#000000" font-family="sans-serif" font-size="12" lengthAdjust="spacingAndGlyphs" textLength="117" x="125.5" y="739.9102">SpecificPluginFactory</text><line style="stroke: #D4AC0D; stroke-width: 1.5;" x1="59.5" x2="244.5" y1="751" y2="751"/><line style="stroke: #D4AC0D; stroke-width: 1.5;" x1="59.5" x2="244.5" y1="759" y2="759"/><polygon fill="#FFFF44" points="69.5,765,73.5,769,69.5,773,65.5,769" style="stroke: #B38D22; stroke-width: 1.0;"/><text fill="#000000" font-family="sans-serif" font-size="11" lengthAdjust="spacingAndGlyphs" textLength="109" x="78.5" y="774.4189">String getPluginName()</text><polygon fill="#FFFF44" points="69.5,778.8359,73.5,782.8359,69.5,786.8359,65.5,782.8359" style="stroke: #B38D22; stroke-width: 1.0;"/><text fill="#000000" font-family="sans-serif" font-size="11" lengthAdjust="spacingAndGlyphs" textLength="158" x="78.5" y="788.2549">ReaderPlugin getPluginInstance()</text><!--MD5=[0f8b8cab079f94c46492aeaa0dde1551]
class SpecificPlugin--><rect fill="#FEFECE" height="111.5313" id="SpecificPlugin" style="stroke: #D4AC0D; stroke-width: 1.5;" width="160" x="325" y="701"/><ellipse cx="357.55" cy="721.0938" fill="#ADD1B2" rx="11" ry="11" style="stroke: #ADD1B2; stroke-width: 1.0;"/><path d="M359.55,717.5938 Q359.7531,717.0938 359.9875,716.8438 Q360.2219,716.5938 360.4875,716.5938 Q360.9563,716.5938 361.2531,716.875 Q361.55,717.1563 361.55,717.8125 L361.55,719.375 Q361.55,720.0313 361.2688,720.3125 Q360.9875,720.5938 360.55,720.5938 Q360.1594,720.5938 359.9094,720.4219 Q359.6594,720.25 359.55,719.7969 Q359.5031,719.4844 359.3313,719.3125 Q359.0188,718.9844 358.4563,718.7969 Q357.8938,718.5938 357.3313,718.5938 Q356.6281,718.5938 356.0344,718.875 Q355.4563,719.1563 355.0031,719.7813 Q354.55,720.4063 354.55,721.2656 L354.55,722.1875 Q354.55,723.2188 355.3938,723.9063 Q356.2375,724.5938 357.7375,724.5938 Q358.6281,724.5938 359.2531,724.3906 Q359.6125,724.2813 360.0188,723.9219 Q360.2844,723.7188 360.425,723.6563 Q360.5656,723.5938 360.7375,723.5938 Q361.0656,723.5938 361.3,723.8594 Q361.55,724.1094 361.55,724.4688 Q361.55,724.8125 361.2063,725.2188 Q360.7063,725.8125 359.9094,726.1406 Q358.8625,726.5938 357.5813,726.5938 Q356.0813,726.5938 354.8781,726 Q353.9094,725.5313 353.2219,724.5156 Q352.55,723.5 352.55,722.2969 L352.55,721.2031 Q352.55,719.9531 353.1438,718.8594 Q353.7531,717.7656 354.8,717.1875 Q355.8625,716.5938 357.05,716.5938 Q357.7688,716.5938 358.3938,716.8438 Q359.0188,717.0938 359.55,717.5938 Z "/><text fill="#000000" font-family="sans-serif" font-size="12" font-style="italic" lengthAdjust="spacingAndGlyphs" textLength="66" x="386.95" y="718.457">«Singleton»</text><polygon fill="#4177AF" points="380.45,724.1406,376.45,730.1406,384.45,730.1406" style="stroke: #1963A0; stroke-width: 1.0;"/><text fill="#000000" font-family="sans-serif" font-size="12" lengthAdjust="spacingAndGlyphs" textLength="78" x="386.45" y="733.5508">SpecificPlugin</text><line style="stroke: #D4AC0D; stroke-width: 1.5;" x1="326" x2="484" y1="741.1875" y2="741.1875"/><rect fill="none" height="6" style="stroke: #C82930; stroke-width: 1.0;" width="6" x="333" y="749.1875"/><text fill="#000000" font-family="sans-serif" font-size="11" lengthAdjust="spacingAndGlyphs" textLength="57" x="345" y="756.6064">String name</text><line style="stroke: #D4AC0D; stroke-width: 1.5;" x1="326" x2="484" y1="763.0234" y2="763.0234"/><rect fill="#F24D5C" height="6" style="stroke: #C82930; stroke-width: 1.0;" width="6" x="333" y="771.0234"/><text fill="#000000" font-family="sans-serif" font-size="11" lengthAdjust="spacingAndGlyphs" textLength="75" x="345" y="778.4424">SpecificPlugin()</text><ellipse cx="336" cy="787.8594" fill="#84BE84" rx="3" ry="3" style="stroke: #038048; stroke-width: 1.0;"/><text fill="#000000" font-family="sans-serif" font-size="11" lengthAdjust="spacingAndGlyphs" text-decoration="underline" textLength="134" x="345" y="792.2783">SpecificPlugin getInstance()</text><ellipse cx="336" cy="801.6953" fill="#84BE84" rx="3" ry="3" style="stroke: #038048; stroke-width: 1.0;"/><text fill="#000000" font-family="sans-serif" font-size="11" font-weight="bold" lengthAdjust="spacingAndGlyphs" textLength="23" x="345" y="806.1143">final</text><text fill="#000000" font-family="sans-serif" font-size="11" lengthAdjust="spacingAndGlyphs" textLength="81" x="371" y="806.1143">String getName()</text><!--MD5=[4ab0a37e4eea002adccb7015b38062eb]
class SpecificReader--><rect fill="#FEFECE" height="89.5078" id="SpecificReader" style="stroke: #D4AC0D; stroke-width: 1.5;" width="133" x="564.5" y="712"/><ellipse cx="582.2" cy="728" fill="#ADD1B2" rx="11" ry="11" style="stroke: #ADD1B2; stroke-width: 1.0;"/><path d="M584.2,724.5 Q584.4031,724 584.6375,723.75 Q584.8719,723.5 585.1375,723.5 Q585.6063,723.5 585.9031,723.7813 Q586.2,724.0625 586.2,724.7188 L586.2,726.2813 Q586.2,726.9375 585.9188,727.2188 Q585.6375,727.5 585.2,727.5 Q584.8094,727.5 584.5594,727.3281 Q584.3094,727.1563 584.2,726.7031 Q584.1531,726.3906 583.9813,726.2188 Q583.6688,725.8906 583.1063,725.7031 Q582.5438,725.5 581.9813,725.5 Q581.2781,725.5 580.6844,725.7813 Q580.1063,726.0625 579.6531,726.6875 Q579.2,727.3125 579.2,728.1719 L579.2,729.0938 Q579.2,730.125 580.0438,730.8125 Q580.8875,731.5 582.3875,731.5 Q583.2781,731.5 583.9031,731.2969 Q584.2625,731.1875 584.6688,730.8281 Q584.9344,730.625 585.075,730.5625 Q585.2156,730.5 585.3875,730.5 Q585.7156,730.5 585.95,730.7656 Q586.2,731.0156 586.2,731.375 Q586.2,731.7188 585.8563,732.125 Q585.3563,732.7188 584.5594,733.0469 Q583.5125,733.5 582.2313,733.5 Q580.7313,733.5 579.5281,732.9063 Q578.5594,732.4375 577.8719,731.4219 Q577.2,730.4063 577.2,729.2031 L577.2,728.1094 Q577.2,726.8594 577.7938,725.7656 Q578.4031,724.6719 579.45,724.0938 Q580.5125,723.5 581.7,723.5 Q582.4188,723.5 583.0438,723.75 Q583.6688,724 584.2,724.5 Z "/><polygon fill="#4177AF" points="601.8,723.5,597.8,729.5,605.8,729.5" style="stroke: #1963A0; stroke-width: 1.0;"/><text fill="#000000" font-family="sans-serif" font-size="12" lengthAdjust="spacingAndGlyphs" textLength="84" x="607.8" y="732.9102">SpecificReader</text><line style="stroke: #D4AC0D; stroke-width: 1.5;" x1="565.5" x2="696.5" y1="744" y2="744"/><rect fill="none" height="6" style="stroke: #C82930; stroke-width: 1.0;" width="6" x="572.5" y="752"/><text fill="#000000" font-family="sans-serif" font-size="11" lengthAdjust="spacingAndGlyphs" textLength="57" x="584.5" y="759.4189">String name</text><line style="stroke: #D4AC0D; stroke-width: 1.5;" x1="565.5" x2="696.5" y1="765.8359" y2="765.8359"/><polygon fill="#FFFF44" points="575.5,771.8359,579.5,775.8359,575.5,779.8359,571.5,775.8359" style="stroke: #B38D22; stroke-width: 1.0;"/><text fill="#000000" font-family="sans-serif" font-size="11" lengthAdjust="spacingAndGlyphs" textLength="82" x="584.5" y="781.2549">SpecificReader()</text><ellipse cx="575.5" cy="790.6719" fill="#84BE84" rx="3" ry="3" style="stroke: #038048; stroke-width: 1.0;"/><text fill="#000000" font-family="sans-serif" font-size="11" font-weight="bold" lengthAdjust="spacingAndGlyphs" textLength="23" x="584.5" y="795.0908">final</text><text fill="#000000" font-family="sans-serif" font-size="11" lengthAdjust="spacingAndGlyphs" textLength="81" x="610.5" y="795.0908">String getName()</text><!--MD5=[98fb93546a7dc75f66b7a26283e02bb5]
link SeProxyService to ReaderPlugin--><path d="M301.4919,427.2866 C301.4919,427.2866 341.225,473.048 357.93,492.287 " fill="none" id="SeProxyService-ReaderPlugin" style="stroke: #A80036; stroke-width: 1.0;"/><polygon fill="#A80036" points="366.65,502.331,363.7697,492.9127,363.3719,498.5556,357.729,498.1578,366.65,502.331" style="stroke: #A80036; stroke-width: 1.0;"/><line style="stroke: #A80036; stroke-width: 1.0;" x1="363.3719" x2="358.1275" y1="498.5556" y2="492.515"/><polygon fill="#A80036" points="293.625,418.225,294.5379,425.3781,301.4919,427.2866,300.579,420.1335,293.625,418.225" style="stroke: #A80036; stroke-width: 1.0;"/><text fill="#000000" font-family="sans-serif" font-size="13" lengthAdjust="spacingAndGlyphs" textLength="41" x="336" y="462.4951">plugins</text><text fill="#000000" font-family="sans-serif" font-size="13" lengthAdjust="spacingAndGlyphs" textLength="7" x="292.9498" y="439.9605">1</text><text fill="#000000" font-family="sans-serif" font-size="13" lengthAdjust="spacingAndGlyphs" textLength="5" x="355.3948" y="491.7492">*</text><!--MD5=[c88fac8de0d16551763276c4b9088a93]
link ReaderPlugin to SeReader--><path d="M520.526,547.5 C520.526,547.5 556.616,547.5 574.659,547.5 " fill="none" id="ReaderPlugin-SeReader" style="stroke: #A80036; stroke-width: 1.0;"/><polygon fill="#A80036" points="587.803,547.5,578.803,543.5,582.803,547.5,578.803,551.5,587.803,547.5" style="stroke: #A80036; stroke-width: 1.0;"/><line style="stroke: #A80036; stroke-width: 1.0;" x1="582.803" x2="574.803" y1="547.5" y2="547.5"/><polygon fill="#A80036" points="508.526,547.5,514.526,551.5,520.526,547.5,514.526,543.5,508.526,547.5" style="stroke: #A80036; stroke-width: 1.0;"/><text fill="#000000" font-family="sans-serif" font-size="13" lengthAdjust="spacingAndGlyphs" textLength="43" x="526.75" y="540.9951">readers</text><text fill="#000000" font-family="sans-serif" font-size="13" lengthAdjust="spacingAndGlyphs" textLength="7" x="516.3857" y="544.4386">1</text><text fill="#000000" font-family="sans-serif" font-size="13" lengthAdjust="spacingAndGlyphs" textLength="5" x="574.9777" y="544.6328">*</text><!--MD5=[ac58f1a34eb5ab4662271d4b6552ae6b]
link SeProxyService to PluginFactory--><path d="M167.3496,429.655 C167.3496,429.655 152.088,477.399 145.856,496.897 " fill="none" id="SeProxyService-PluginFactory" style="stroke: #A80036; stroke-width: 1.0;"/><polygon fill="#A80036" points="141.847,509.437,148.3976,502.0824,143.3695,504.6744,140.7775,499.6464,141.847,509.437" style="stroke: #A80036; stroke-width: 1.0;"/><line style="stroke: #A80036; stroke-width: 1.0;" x1="143.3695" x2="145.806" y1="504.6744" y2="497.0545"/><polygon fill="#A80036" points="171.004,418.225,165.3668,422.7219,167.3496,429.655,172.9868,425.1581,171.004,418.225" style="stroke: #A80036; stroke-width: 1.0;"/><text fill="#000000" font-family="sans-serif" font-size="13" lengthAdjust="spacingAndGlyphs" textLength="50" x="162" y="462.4951">registers</text><text fill="#000000" font-family="sans-serif" font-size="13" lengthAdjust="spacingAndGlyphs" textLength="7" x="161.3238" y="439.9605">1</text><text fill="#000000" font-family="sans-serif" font-size="13" lengthAdjust="spacingAndGlyphs" textLength="5" x="138.5704" y="498.5019">*</text><!--MD5=[8119e6da521221a00c7048597420cfa4]
link PluginFactory to ReaderPlugin--><path d="M222.336,547.5 C245.935,547.5 271.531,547.5 295.885,547.5 " fill="none" id="PluginFactory-&gt;ReaderPlugin" style="stroke: #A80036; stroke-width: 1.0;"/><polygon fill="#A80036" points="301.062,547.5,292.062,543.5,296.062,547.5,292.062,551.5,301.062,547.5" style="stroke: #A80036; stroke-width: 1.0;"/><text fill="#000000" font-family="sans-serif" font-size="13" lengthAdjust="spacingAndGlyphs" textLength="43" x="240.25" y="540.9951">creates</text><text fill="#000000" font-family="sans-serif" font-size="13" lengthAdjust="spacingAndGlyphs" textLength="7" x="229.9729" y="544.3847">1</text><text fill="#000000" font-family="sans-serif" font-size="13" lengthAdjust="spacingAndGlyphs" textLength="7" x="286.5078" y="544.4623">1</text><!--MD5=[606af266cb1c3ee5489afec7c4e81055]
link SpecificPluginFactory to SpecificPlugin--><path d="M245.848,757 C270.005,757 295.868,757 319.572,757 " fill="none" id="SpecificPluginFactory-&gt;SpecificPlugin" style="stroke: #A80036; stroke-width: 1.0;"/><polygon fill="#A80036" points="324.596,757,315.596,753,319.596,757,315.596,761,324.596,757" style="stroke: #A80036; stroke-width: 1.0;"/><text fill="#000000" font-family="sans-serif" font-size="13" lengthAdjust="spacingAndGlyphs" textLength="43" x="263.75" y="750.4951">creates</text><text fill="#000000" font-family="sans-serif" font-size="13" lengthAdjust="spacingAndGlyphs" textLength="7" x="253.6054" y="753.8847">1</text><text fill="#000000" font-family="sans-serif" font-size="13" lengthAdjust="spacingAndGlyphs" textLength="7" x="310.1233" y="753.8191">1</text><!--MD5=[c0f848f1ce686e4cacbc8a0551faf0fe]
link SpecificPlugin to SpecificReader--><path d="M497.315,757 C497.315,757 534.219,757 551.27,757 " fill="none" id="SpecificPlugin-SpecificReader" style="stroke: #A80036; stroke-width: 1.0;"/><polygon fill="#A80036" points="564.367,757,555.367,753,559.367,757,555.367,761,564.367,757" style="stroke: #A80036; stroke-width: 1.0;"/><line style="stroke: #A80036; stroke-width: 1.0;" x1="559.367" x2="551.367" y1="757" y2="756.9999"/><polygon fill="#A80036" points="485.315,757,491.315,761,497.315,757,491.315,753,485.315,757" style="stroke: #A80036; stroke-width: 1.0;"/><text fill="#000000" font-family="sans-serif" font-size="13" lengthAdjust="spacingAndGlyphs" textLength="43" x="503.25" y="750.4951">readers</text><text fill="#000000" font-family="sans-serif" font-size="13" lengthAdjust="spacingAndGlyphs" textLength="7" x="493.0417" y="753.7954">1</text><text fill="#000000" font-family="sans-serif" font-size="13" lengthAdjust="spacingAndGlyphs" textLength="5" x="551.3735" y="753.6189">*</text><!--MD5=[f8c43c6217b3f7a11e63ade92879ea46]
link SpecificTerminal to SeProxyService--><path d="M204,108.117 C204,131.154 204,168.243 204,204.576 " fill="none" id="SpecificTerminal-&gt;SeProxyService" style="stroke: #A80036; stroke-width: 1.0;"/><polygon fill="#A80036" points="204,209.929,208,200.929,204,204.929,200,200.929,204,209.929" style="stroke: #A80036; stroke-width: 1.0;"/><text fill="#000000" font-family="sans-serif" font-size="13" lengthAdjust="spacingAndGlyphs" textLength="28" x="205" y="154.4951">uses</text><polygon fill="#000000" points="214.5,163.3516,217.5,169.3516,220.5,163.3516,214.5,163.3516" style="stroke: #000000; stroke-width: 1.0;"/><!--MD5=[136abeb6498542290e7ac248186897f6]
reverse link PluginFactory to SpecificPluginFactory--><path d="M136.053,605.59 C139.884,641.722 144.726,687.392 148.064,718.875 " fill="none" id="PluginFactory&lt;-SpecificPluginFactory" style="stroke: #A80036; stroke-width: 1.0; stroke-dasharray: 7.0,7.0;"/><polygon fill="none" points="129.081,606.223,133.933,585.597,143.003,604.747,129.081,606.223" style="stroke: #A80036; stroke-width: 1.0;"/><text fill="#000000" font-family="sans-serif" font-size="13" lengthAdjust="spacingAndGlyphs" textLength="67" x="142" y="645.4951">implements</text><!--MD5=[7c148b1c73f50606d6f270d6e2289f39]
reverse link ReaderPlugin to SpecificPlugin--><path d="M405,612.597 C405,640.884 405,673.799 405,700.956 " fill="none" id="ReaderPlugin&lt;-SpecificPlugin" style="stroke: #A80036; stroke-width: 1.0; stroke-dasharray: 7.0,7.0;"/><polygon fill="none" points="398,612.505,405,592.505,412,612.505,398,612.505" style="stroke: #A80036; stroke-width: 1.0;"/><text fill="#000000" font-family="sans-serif" font-size="13" lengthAdjust="spacingAndGlyphs" textLength="67" x="406" y="645.4951">implements</text><!--MD5=[4afba5938fcadf10f22a5ff47d317fb7]
reverse link SeReader to SpecificReader--><path d="M716.362,616.531 C697.209,647.824 675.034,684.055 658.086,711.746 " fill="none" id="SeReader&lt;-SpecificReader" style="stroke: #A80036; stroke-width: 1.0; stroke-dasharray: 7.0,7.0;"/><polygon fill="none" points="710.521,612.665,726.932,599.26,722.462,619.973,710.521,612.665" style="stroke: #A80036; stroke-width: 1.0;"/><text fill="#000000" font-family="sans-serif" font-size="13" lengthAdjust="spacingAndGlyphs" textLength="67" x="706" y="645.4951">implements</text><!--MD5=[2415f176b798bdf4197dc19b7463629b]
@startuml
skinparam ClassBorderColor #D4AC0D
skinparam stereotypeABorderColor #A9DCDF
skinparam stereotypeIBorderColor #B4A7E5
skinparam stereotypeCBorderColor #ADD1B2
skinparam stereotypeEBorderColor #EB93DF
skinparam shadowing false

skinparam StateBorderColor #D4AC0D
skinparam ActivityBorderColor #D4AC0D

skinparam ClassBackgroundColor<<red>> #FDEDEC
skinparam ClassBorderColor<<red>> #E74C3C
hide <<red>> stereotype
skinparam ClassBackgroundColor<<purple>> #F4ECF7
skinparam ClassBorderColor<<purple>> #8E44AD
hide <<purple>> stereotype
skinparam ClassBackgroundColor<<blue>> #EBF5FB
skinparam ClassBorderColor<<blue>> #3498DB
hide <<blue>> stereotype
skinparam ClassBackgroundColor<<green>> #EAFAF1
skinparam ClassBorderColor<<green>> #2ECC71
hide <<green>> stereotype

skinparam ClassBackgroundColor<<orange>> #FDF2E9
skinparam ClassBorderColor<<orange>> #E67E22
hide <<orange>> stereotype

skinparam ClassBackgroundColor<<grey>> #EAECEE
skinparam ClassBorderColor<<grey>> #2C3E50
hide <<grey>> stereotype

package external.terminalapplication #3399FF {
  class SpecificTerminal
}

package org.eclipse.keyple.core.seproxy #FFFFFF {
+class "<b>final</b> SeProxyService" as SeProxyService << Singleton >> {
  -<b>final</b> {static}SeProxyService uniqueInstance
  -<b>final</b> ConcurrentMap<String, ReaderPlugin> plugins
  +{static}SeProxyService getInstance()
  +String getVersion()

  +ReaderPlugin registerPlugin(PluginFactory pluginFactory)
  +boolean isRegistered(String pluginName)
  +boolean unregisterPlugin(String pluginName)

  +ReaderPlugin getPlugin(String name)
  +ConcurrentMap<String, ReaderPlugin> getPlugins()
}
+interface PluginFactory {
  +String getPluginName()
  +ReaderPlugin getPluginInstance()
}
+interface ReaderPlugin {
  +Map<String, SeReader> getReaders()
  +Set<String> getReaderNames()
  +SeReader getReader(String name)
}
+interface SeReader {
  +boolean isSePresent()
  +addSeProtocolSetting(SeProtocol seProtocol, String protocolRule)
  +setSeProtocolSetting(Map<SeProtocol, String> protocolSetting)
  +TransmissionMode getTransmissionMode()
}

  SeProxyService "1" *-down-> "*" ReaderPlugin : plugins
  ReaderPlugin "1" *-right-> "*" SeReader : readers

  SeProxyService "1" *- -> "*" PluginFactory : registers
  PluginFactory "1" -right-> "1" ReaderPlugin : creates
}

package plugin.specific #D7BDE2 {
  +class "<b>final</b> SpecificPluginFactory" as SpecificPluginFactory {
    #String getPluginName()
    #ReaderPlugin getPluginInstance()
  }

  ~class SpecificPlugin << Singleton >> {
    -String name
    -SpecificPlugin()
    +{static} SpecificPlugin getInstance()
    +<b>final</b> String getName()
  }

  ~class SpecificReader {
    -String name
    #SpecificReader()
    +<b>final</b> String getName()
  }

  SpecificPluginFactory "1" -right-> "1" SpecificPlugin : creates
  SpecificPlugin "1" *-right-> "*" SpecificReader : readers
}

SpecificTerminal -down-> SeProxyService : uses >

PluginFactory <|.down. SpecificPluginFactory : implements
ReaderPlugin <|.. SpecificPlugin : implements
SeReader <|.. SpecificReader : implements
@enduml

PlantUML version 1.2020.09(Sun May 10 14:51:06 MUT 2020)
(GPL source distribution)
Java Runtime: OpenJDK Runtime Environment
JVM: OpenJDK 64-Bit Server VM
Java Version: 11.0.7+10-b765.64
Operating System: Windows 10
Default Encoding: Cp1252
Language: fr
Country: FR
--></g></svg>