<?xml version="1.0" encoding="UTF-8" standalone="no"?><svg xmlns="http://www.w3.org/2000/svg" xmlns:xlink="http://www.w3.org/1999/xlink" contentScriptType="application/ecmascript" contentStyleType="text/css" height="719px" preserveAspectRatio="none" style="width:1614px;height:719px;" version="1.1" viewBox="0 0 1614 719" width="1614px" zoomAndPan="magnify"><defs/><g><!--MD5=[e492621730c6c9a1b92a9fcafcf3a8d9]
cluster SE_ObservationDisabled--><rect fill="#FEFECE" height="193" rx="12.5" ry="12.5" style="stroke: #D4AC0D; stroke-width: 1.5;" width="174" x="48" y="24"/><rect fill="#FFFFFF" height="139.2969" rx="12.5" ry="12.5" style="stroke: #FFFFFF; stroke-width: 1.0;" width="168" x="51" y="74.7031"/><line style="stroke: #D4AC0D; stroke-width: 1.5;" x1="48" x2="222" y1="71.7031" y2="71.7031"/><line style="stroke: #D4AC0D; stroke-width: 1.5;" x1="48" x2="222" y1="51.6094" y2="51.6094"/><text fill="#000000" font-family="sans-serif" font-size="14" lengthAdjust="spacingAndGlyphs" textLength="158" x="56" y="42.5332">SE_ObservationDisabled</text><text fill="#000000" font-family="sans-serif" font-size="12" lengthAdjust="spacingAndGlyphs" textLength="134" x="53" y="66.5664">number of observer == 0</text><!--MD5=[1f63e34000d331c93416f84ee164ac34]
cluster SE_ObservationActivated--><rect fill="#FEFECE" height="417" rx="12.5" ry="12.5" style="stroke: #D4AC0D; stroke-width: 1.5;" width="1333" x="30" y="291"/><rect fill="#FFFFFF" height="363.2969" rx="12.5" ry="12.5" style="stroke: #FFFFFF; stroke-width: 1.0;" width="1327" x="33" y="341.7031"/><line style="stroke: #D4AC0D; stroke-width: 1.5;" x1="30" x2="1363" y1="338.7031" y2="338.7031"/><line style="stroke: #D4AC0D; stroke-width: 1.5;" x1="30" x2="1363" y1="318.6094" y2="318.6094"/><text fill="#000000" font-family="sans-serif" font-size="14" lengthAdjust="spacingAndGlyphs" textLength="161" x="616" y="309.5332">SE_ObservationActivated</text><text fill="#000000" font-family="sans-serif" font-size="12" lengthAdjust="spacingAndGlyphs" textLength="127" x="35" y="333.5664">number of observer &gt; 0</text><ellipse cx="135" cy="90" fill="#000000" rx="10" ry="10" style="stroke: none; stroke-width: 1.0;"/><rect fill="#FEFECE" height="40" rx="12.5" ry="12.5" style="stroke: #D4AC0D; stroke-width: 1.5;" width="119" x="75.5" y="161"/><text fill="#000000" font-family="sans-serif" font-size="14" lengthAdjust="spacingAndGlyphs" textLength="109" x="80.5" y="186.7285">WaitForObserver</text><rect fill="#FEFECE" height="40" rx="12.5" ry="12.5" style="stroke: #D4AC0D; stroke-width: 1.5;" width="150" x="129" y="461"/><text fill="#000000" font-family="sans-serif" font-size="14" lengthAdjust="spacingAndGlyphs" textLength="140" x="134" y="486.7285">WaitForStartDetection</text><rect fill="#FEFECE" height="40" rx="12.5" ry="12.5" style="stroke: #D4AC0D; stroke-width: 1.5;" width="131" x="617.5" y="461"/><text fill="#000000" font-family="sans-serif" font-size="14" lengthAdjust="spacingAndGlyphs" textLength="121" x="622.5" y="486.7285">WaitForSeInsertion</text><rect fill="#FEFECE" height="40" rx="12.5" ry="12.5" style="stroke: #D4AC0D; stroke-width: 1.5;" width="147" x="849.5" y="644"/><text fill="#000000" font-family="sans-serif" font-size="14" lengthAdjust="spacingAndGlyphs" textLength="137" x="854.5" y="669.7285">WaitForSeProcessing</text><rect fill="#FEFECE" height="40" rx="12.5" ry="12.5" style="stroke: #D4AC0D; stroke-width: 1.5;" width="132" x="365" y="644"/><text fill="#000000" font-family="sans-serif" font-size="14" lengthAdjust="spacingAndGlyphs" textLength="122" x="370" y="669.7285">WaitForSeRemoval</text><!--MD5=[f645417660ba964249a87cd24ba2b7cd]
link *start*SE_ObservationDisabled to WaitForObserver--><path d="M135,100.189 C135,113.18 135,137.376 135,155.734 " fill="none" id="*start*SE_ObservationDisabled-&gt;WaitForObserver" style="stroke: #000000; stroke-width: 1.0;"/><polygon fill="#000000" points="135,160.743,139,151.743,135,155.743,131,151.743,135,160.743" style="stroke: #000000; stroke-width: 1.0;"/><!--MD5=[f2e10831cc9a25737cccb2043bcbba7d]
link WaitForStartDetection to WaitForSeInsertion--><path d="M279.107,481 C370.234,481 522.722,481 611.971,481 " fill="none" id="WaitForStartDetection-&gt;WaitForSeInsertion" style="stroke: #0000FF; stroke-width: 1.0;"/><polygon fill="#0000FF" points="617.229,481,608.229,477,612.229,481,608.229,485,617.229,481" style="stroke: #0000FF; stroke-width: 1.0;"/><text fill="#000000" font-family="sans-serif" font-size="13" lengthAdjust="spacingAndGlyphs" textLength="176" x="360.25" y="474.4951">startSeDetection(PollingMode)</text><!--MD5=[992ba655eaf93782ef94c02e89306d3d]
link WaitForSeInsertion to WaitForSeProcessing--><path d="M728.347,501.198 C742.438,508.858 757.113,518.799 768,531 C794.771,561.002 775.304,585.834 804,614 C815.994,625.772 831.213,634.8569 846.727,641.8169 " fill="none" id="WaitForSeInsertion-&gt;WaitForSeProcessing" style="stroke: #FF0000; stroke-width: 1.0;"/><polygon fill="#FF0000" points="851.548,643.9093,844.8856,636.6558,846.9617,641.918,841.6995,643.994,851.548,643.9093" style="stroke: #FF0000; stroke-width: 1.0;"/><text fill="#000000" font-family="sans-serif" font-size="13" lengthAdjust="spacingAndGlyphs" textLength="117" x="841.5" y="569.9951">notifies 'SE inserted'</text><text fill="#000000" font-family="sans-serif" font-size="13" lengthAdjust="spacingAndGlyphs" textLength="190" x="805" y="586.3467">&amp;&amp; (NotificationMode == always)</text><!--MD5=[992ba655eaf93782ef94c02e89306d3d]
link WaitForSeInsertion to WaitForSeProcessing--><path d="M748.599,482.502 C831.796,484.692 968.285,494.006 1000,531 C1024.01,559.006 1017.75,581.663 1000,614 C993.874,625.159 984.011,634.1394 973.358,641.2101 " fill="none" id="WaitForSeInsertion-&gt;WaitForSeProcessing-1" style="stroke: #FF0000; stroke-width: 1.0;"/><polygon fill="#FF0000" points="969.081,643.9255,978.823,642.4784,973.3021,641.2455,974.535,635.7247,969.081,643.9255" style="stroke: #FF0000; stroke-width: 1.0;"/><text fill="#000000" font-family="sans-serif" font-size="13" lengthAdjust="spacingAndGlyphs" textLength="121" x="1016" y="577.9951">notifies 'SE matched'</text><!--MD5=[c072ffad7560f4297d8524ce01a65765]
link WaitForSeProcessing to WaitForSeInsertion--><path d="M996.743,656.6371 C1054.26,649.9659 1127.4,637.1293 1146,614 C1169.12,585.253 1170.67,558.423 1146,531 C1120.27,502.404 876.795,489.242 753.632,484.372 " fill="none" id="WaitForSeProcessing-&gt;WaitForSeInsertion" style="stroke: #FF0000; stroke-width: 1.0; stroke-dasharray: 7.0,7.0;"/><polygon fill="#FF0000" points="748.58,484.174,757.4166,488.5232,753.5762,484.3697,757.7296,480.5293,748.58,484.174" style="stroke: #FF0000; stroke-width: 1.0;"/><text fill="#000000" font-family="sans-serif" font-size="13" lengthAdjust="spacingAndGlyphs" textLength="119" x="1172" y="545.4951">notifies 'SE removed'</text><text fill="#000000" font-family="sans-serif" font-size="13" lengthAdjust="spacingAndGlyphs" textLength="135" x="1164" y="561.8467">&amp;&amp; (Observable Reader</text><text fill="#000000" font-family="sans-serif" font-size="13" lengthAdjust="spacingAndGlyphs" textLength="104" x="1179.5" y="578.1982">with the capability</text><text fill="#000000" font-family="sans-serif" font-size="13" lengthAdjust="spacingAndGlyphs" textLength="121" x="1171" y="594.5498">to detect the removal</text><text fill="#000000" font-family="sans-serif" font-size="13" lengthAdjust="spacingAndGlyphs" textLength="69" x="1197" y="610.9014">at any time)</text><!--MD5=[a4b1e4565b5cd840fe49854f8e68b371]
link WaitForSeInsertion to WaitForSeRemoval--><path d="M617.292,491.327 C589.561,498.225 558.733,510.206 537,531 C508.433,558.332 529.766,583.183 505,614 C496.479,624.603 485.035,633.7205 473.697,641.1158 " fill="none" id="WaitForSeInsertion-&gt;WaitForSeRemoval" style="stroke: #FF0000; stroke-width: 1.0;"/><polygon fill="#FF0000" points="469.194,643.9692,478.9373,642.5314,473.4177,641.2932,474.6558,635.7736,469.194,643.9692" style="stroke: #FF0000; stroke-width: 1.0;"/><text fill="#000000" font-family="sans-serif" font-size="13" lengthAdjust="spacingAndGlyphs" textLength="139" x="579" y="561.4951">'SE inserted' not notified</text><text fill="#000000" font-family="sans-serif" font-size="13" lengthAdjust="spacingAndGlyphs" textLength="221" x="538" y="577.8467">&amp;&amp; ((NotificationMode == match_only)</text><text fill="#000000" font-family="sans-serif" font-size="13" lengthAdjust="spacingAndGlyphs" textLength="112" x="592.5" y="594.1982">&amp;&amp; selection failed)</text><!--MD5=[d16b56604473427f1d6ff08eca48d2dd]
reverse link WaitForSeInsertion to WaitForSeRemoval--><path d="M612.273,486.381 C510.156,493.436 331.452,508.81 312,531 C287.683,558.74 291.474,583.349 312,614 C324.184,632.1929 344.478,643.6376 364.888,650.8346 " fill="none" id="WaitForSeInsertion&lt;-WaitForSeRemoval" style="stroke: #FF0000; stroke-width: 1.0;"/><polygon fill="#FF0000" points="617.378,486.03,608.1249,482.6565,612.3898,486.3728,608.6734,490.6377,617.378,486.03" style="stroke: #FF0000; stroke-width: 1.0;"/><text fill="#000000" font-family="sans-serif" font-size="13" lengthAdjust="spacingAndGlyphs" textLength="119" x="345" y="569.9951">notifies 'SE removed'</text><text fill="#000000" font-family="sans-serif" font-size="13" lengthAdjust="spacingAndGlyphs" textLength="183" x="313" y="586.3467">&amp;&amp; (PollingMode == Repeating)</text><!--MD5=[593e106eef62bf2c22c2a4af8a6c9e3d]
reverse link WaitForSeRemoval to WaitForSeProcessing--><path d="M502.271,664 C594.791,664 755.467,664 849.206,664 " fill="none" id="WaitForSeRemoval&lt;-WaitForSeProcessing" style="stroke: #0000FF; stroke-width: 1.0;"/><polygon fill="#0000FF" points="497.098,664,506.098,668,502.098,664,506.098,660,497.098,664" style="stroke: #0000FF; stroke-width: 1.0;"/><text fill="#000000" font-family="sans-serif" font-size="13" lengthAdjust="spacingAndGlyphs" textLength="117" x="614.75" y="657.4951">notifySeProcessed()</text><!--MD5=[468fcc5103ee613552758a9e57699ebf]
reverse link WaitForStartDetection to WaitForSeRemoval--><path d="M124.16,500.163 C109.102,507.29 95.2078,517.206 86,531 C65.5193,561.681 61.819,586.142 86,614 C121.344,654.7181 274.731,662.4892 364.642,663.4536 " fill="none" id="WaitForStartDetection&lt;-WaitForSeRemoval" style="stroke: #FF0000; stroke-width: 1.0;"/><polygon fill="#FF0000" points="128.867,498.04,119.0183,498.0971,124.3098,500.0972,122.3098,505.3887,128.867,498.04" style="stroke: #FF0000; stroke-width: 1.0;"/><text fill="#000000" font-family="sans-serif" font-size="13" lengthAdjust="spacingAndGlyphs" textLength="119" x="121.5" y="569.9951">notifies 'SE removed'</text><text fill="#000000" font-family="sans-serif" font-size="13" lengthAdjust="spacingAndGlyphs" textLength="188" x="87" y="586.3467">&amp;&amp; (PollingMode == SingleShot)</text><!--MD5=[1068d7540bf7bac1afc11ff209f6fa86]
reverse link WaitForObserver to SE_ObservationActivated--><path d="M126.056,205.76 C121.5683,217.6833 115.7759,233.0723 109.5922,249.5008 C106.5004,257.7151 103.3107,266.1892 100.1374,274.62 C98.5507,278.8354 96.9681,283.0399 95.4038,287.1957 C95.0128,288.2347 94.6229,289.2706 94.2343,290.3028 " fill="none" id="WaitForObserver&lt;-SE_ObservationActivated" style="stroke: #0000FF; stroke-width: 1.0;"/><polygon fill="#0000FF" points="127.83,201.049,120.9154,208.0625,126.0683,205.7284,128.4024,210.8812,127.83,201.049" style="stroke: #0000FF; stroke-width: 1.0;"/><text fill="#000000" font-family="sans-serif" font-size="13" lengthAdjust="spacingAndGlyphs" textLength="192" x="117" y="247.4951">removeObserver(ReaderObserver)</text><text fill="#000000" font-family="sans-serif" font-size="13" lengthAdjust="spacingAndGlyphs" textLength="127" x="149.5" y="263.8467">&amp;&amp; (nb observer == 0)</text><!--MD5=[136a2b1d08fde5b6a9585a9cd3ff408d]
link WaitForObserver to WaitForStartDetection--><path d="M194.899,191.299 C241.9,199.887 301.973,214.158 318,233 C375.306,300.373 388.677,358.51 338,431 C325.267,449.213 305.002,460.679 284.047,467.889 " fill="none" id="WaitForObserver-&gt;WaitForStartDetection" style="stroke: #0000FF; stroke-width: 1.0;"/><polygon fill="#0000FF" points="279.284,469.453,289.0828,470.4451,284.0344,467.8929,286.5866,462.8445,279.284,469.453" style="stroke: #0000FF; stroke-width: 1.0;"/><text fill="#000000" font-family="sans-serif" font-size="13" lengthAdjust="spacingAndGlyphs" textLength="172" x="371" y="366.4951">addObserver(ReaderObserver)</text><!--MD5=[bfb50f0fd7e71ad7ae6d89b0b4872048]
link SE_ObservationActivated to SE_ObservationActivated--><path d="M1369,360.651 C1380.8752,346.001 1404.0816,346.117 1404.0816,361 C1404.0816,375.883 1380.8752,375.999 1369,361.349 " fill="none" id="SE_ObservationActivated-&gt;SE_ObservationActivated" style="stroke: #0000FF; stroke-width: 1.0;"/><polygon fill="#0000FF" points="1369,361.349,1371.5599,370.8593,1372.1485,365.2332,1377.7747,365.8217,1369,361.349" style="stroke: #0000FF; stroke-width: 1.0;"/><text fill="#000000" font-family="sans-serif" font-size="13" lengthAdjust="spacingAndGlyphs" textLength="192" x="1410.0816" y="358.4951">removeObserver(ReaderObserver)</text><text fill="#000000" font-family="sans-serif" font-size="13" lengthAdjust="spacingAndGlyphs" textLength="119" x="1446.5816" y="374.8467">&amp;&amp; (nb observer &gt; 0)</text><!--MD5=[8cf2aa29ed72b7d1a09e46f0fa619bdd]
link SE_ObservationActivated to WaitForStartDetection--><path d="M68.0986,362.086 C71.0399,364.638 139.103,423.692 177.766,457.238 " fill="none" id="SE_ObservationActivated-&gt;WaitForStartDetection" style="stroke: #0000FF; stroke-width: 1.0;"/><polygon fill="#0000FF" points="181.87,460.799,177.6951,451.8788,178.094,457.5216,172.4512,457.9205,181.87,460.799" style="stroke: #0000FF; stroke-width: 1.0;"/><text fill="#000000" font-family="sans-serif" font-size="13" lengthAdjust="spacingAndGlyphs" textLength="104" x="146" y="427.4951">stopSeDetection()</text><!--MD5=[76f0cefd4eb9eb9face8b9bfaae8da26]
@startuml
skinparam ClassBorderColor #D4AC0D
skinparam stereotypeABorderColor #A9DCDF
skinparam stereotypeIBorderColor #B4A7E5
skinparam stereotypeCBorderColor #ADD1B2
skinparam stereotypeEBorderColor #EB93DF
skinparam shadowing false

skinparam StateBorderColor #D4AC0D
skinparam ActivityBorderColor #D4AC0D

skinparam ClassBackgroundColor<<red>> #FDEDEC
skinparam ClassBorderColor<<red>> #E74C3C
hide <<red>> stereotype
skinparam ClassBackgroundColor<<purple>> #F4ECF7
skinparam ClassBorderColor<<purple>> #8E44AD
hide <<purple>> stereotype
skinparam ClassBackgroundColor<<blue>> #EBF5FB
skinparam ClassBorderColor<<blue>> #3498DB
hide <<blue>> stereotype
skinparam ClassBackgroundColor<<green>> #EAFAF1
skinparam ClassBorderColor<<green>> #2ECC71
hide <<green>> stereotype
skinparam ClassBackgroundColor<<grey>> #EAECEE
skinparam ClassBorderColor<<grey>> #2C3E50
hide <<grey>> stereotype
hide empty description

state SE_ObservationDisabled {
[*] - -[#Black]> WaitForObserver
}

state SE_ObservationActivated {
WaitForStartDetection -right[#Blue]-> WaitForSeInsertion : startSeDetection(PollingMode)
WaitForSeInsertion -down[#Red]-> WaitForSeProcessing : notifies 'SE inserted'\n&& (NotificationMode == always)
WaitForSeInsertion -down[#Red]-> WaitForSeProcessing : notifies 'SE matched'
WaitForSeInsertion -down[#Red]-> WaitForSeRemoval : 'SE inserted' not notified\n&& ((NotificationMode == match_only)\n&& selection failed)
WaitForSeProcessing -left[#Blue]-> WaitForSeRemoval : notifySeProcessed()
WaitForSeRemoval -up[#Red]-> WaitForSeInsertion : notifies 'SE removed'\n&& (PollingMode == Repeating)
WaitForSeRemoval -up[#Red]-> WaitForStartDetection : notifies 'SE removed'\n&& (PollingMode == SingleShot)
WaitForSeProcessing -[#Red,dashed]-> WaitForSeInsertion : notifies 'SE removed'\n&& (Observable Reader\nwith the capability\nto detect the removal\nat any time)
}

SE_ObservationActivated -up[#Blue]-> WaitForObserver : removeObserver(ReaderObserver)\n&& (nb observer == 0)
WaitForObserver -down[#Blue]-> WaitForStartDetection : addObserver(ReaderObserver)
SE_ObservationActivated -[#Blue]> SE_ObservationActivated : removeObserver(ReaderObserver)\n&& (nb observer > 0)

SE_ObservationActivated -[#Blue]-> WaitForStartDetection : stopSeDetection()
SE_ObservationDisabled : number of observer == 0
SE_ObservationActivated : number of observer > 0
@enduml

PlantUML version 1.2020.09(Sun May 10 14:51:06 MUT 2020)
(GPL source distribution)
Java Runtime: OpenJDK Runtime Environment
JVM: OpenJDK 64-Bit Server VM
Java Version: 11.0.6+8-b765.40
Operating System: Windows 10
Default Encoding: Cp1252
Language: fr
Country: FR
--></g></svg>