<?xml version="1.0" encoding="UTF-8" standalone="no"?><svg xmlns="http://www.w3.org/2000/svg" xmlns:xlink="http://www.w3.org/1999/xlink" contentScriptType="application/ecmascript" contentStyleType="text/css" height="928.8px" preserveAspectRatio="none" style="width:1310px;height:928px;" version="1.1" viewBox="0 0 1310 928" width="1310.4px" zoomAndPan="magnify"><defs/><g><!--MD5=[2bcc54f38766b998c5e88efdbc7d1696]
cluster org.eclipse.keyple.core.seproxy--><polygon fill="#FFFFFF" points="26.4,28.8,303.6,28.8,312,57.1313,1284,57.1313,1284,914.4,26.4,914.4,26.4,28.8" style="stroke: #000000; stroke-width: 1.7999999999999998;"/><line style="stroke: #000000; stroke-width: 1.7999999999999998;" x1="26.4" x2="312" y1="57.1313" y2="57.1313"/><text fill="#000000" font-family="sans-serif" font-size="16.8" font-weight="bold" lengthAdjust="spacingAndGlyphs" textLength="270" x="31.2" y="48.6398">org.eclipse.keyple.core.seproxy</text><!--MD5=[2e31800f208179cab94650aeb782e4d8]
cluster event--><polygon fill="#FFFFFF" points="388.8,615.6,445.2,615.6,453.6,643.9313,1255.2,643.9313,1255.2,885.6,388.8,885.6,388.8,615.6" style="stroke: #000000; stroke-width: 1.7999999999999998;"/><line style="stroke: #000000; stroke-width: 1.7999999999999998;" x1="388.8" x2="453.6" y1="643.9313" y2="643.9313"/><text fill="#000000" font-family="sans-serif" font-size="16.8" font-weight="bold" lengthAdjust="spacingAndGlyphs" textLength="49.2" x="393.6" y="635.4398">event</text><!--MD5=[f0c44d4c6fb415056b2c0aabd573961b]
class SeProxyService--><rect fill="#FEFECE" height="250.0594" id="SeProxyService" style="stroke: #D4AC0D; stroke-width: 1.7999999999999998;" width="357.6" x="187.2" y="72"/><ellipse cx="287.7" cy="96.1125" fill="#ADD1B2" rx="13.2" ry="13.2" style="stroke: #ADD1B2; stroke-width: 1.2;"/><path d="M290.1,91.9125 Q290.3438,91.3125 290.625,91.0125 Q290.9063,90.7125 291.225,90.7125 Q291.7875,90.7125 292.1438,91.05 Q292.5,91.3875 292.5,92.175 L292.5,94.05 Q292.5,94.8375 292.1625,95.175 Q291.825,95.5125 291.3,95.5125 Q290.8313,95.5125 290.5313,95.3062 Q290.2313,95.1 290.1,94.5562 Q290.0438,94.1812 289.8375,93.975 Q289.4625,93.5813 288.7875,93.3563 Q288.1125,93.1125 287.4375,93.1125 Q286.5938,93.1125 285.8812,93.45 Q285.1875,93.7875 284.6438,94.5375 Q284.1,95.2875 284.1,96.3188 L284.1,97.425 Q284.1,98.6625 285.1125,99.4875 Q286.125,100.3125 287.925,100.3125 Q288.9938,100.3125 289.7438,100.0688 Q290.175,99.9375 290.6625,99.5063 Q290.9813,99.2625 291.15,99.1875 Q291.3187,99.1125 291.525,99.1125 Q291.9188,99.1125 292.2,99.4312 Q292.5,99.7313 292.5,100.1625 Q292.5,100.575 292.0875,101.0625 Q291.4875,101.775 290.5313,102.1688 Q289.275,102.7125 287.7375,102.7125 Q285.9375,102.7125 284.4938,102 Q283.3313,101.4375 282.5062,100.2188 Q281.7,99 281.7,97.5562 L281.7,96.2437 Q281.7,94.7437 282.4125,93.4312 Q283.1438,92.1187 284.4,91.425 Q285.675,90.7125 287.1,90.7125 Q287.9625,90.7125 288.7125,91.0125 Q289.4625,91.3125 290.1,91.9125 Z "/><text fill="#000000" font-family="sans-serif" font-size="14.4" font-style="italic" lengthAdjust="spacingAndGlyphs" textLength="79.2" x="345.9" y="92.9484">«Singleton»</text><ellipse cx="318.3" cy="104.5688" fill="#84BE84" rx="3.6" ry="3.6" style="stroke: #038048; stroke-width: 1.2;"/><text fill="#000000" font-family="sans-serif" font-size="14.4" font-weight="bold" lengthAdjust="spacingAndGlyphs" textLength="28.8" x="325.5" y="111.0609">final</text><text fill="#000000" font-family="sans-serif" font-size="14.4" lengthAdjust="spacingAndGlyphs" textLength="100.8" x="357.9" y="111.0609">SeProxyService</text><line style="stroke: #D4AC0D; stroke-width: 1.7999999999999998;" x1="188.4" x2="543.6" y1="120.225" y2="120.225"/><rect fill="none" height="7.2" style="stroke: #C82930; stroke-width: 1.2;" width="7.2" x="196.8" y="129.825"/><text fill="#000000" font-family="sans-serif" font-size="13.2" font-weight="bold" lengthAdjust="spacingAndGlyphs" text-decoration="underline" textLength="27.6" x="211.2" y="138.7277">final</text><text fill="#000000" font-family="sans-serif" font-size="13.2" lengthAdjust="spacingAndGlyphs" text-decoration="underline" textLength="184.8" x="242.4" y="138.7277">SeProxyService uniqueInstance</text><rect fill="none" height="7.2" style="stroke: #C82930; stroke-width: 1.2;" width="7.2" x="196.8" y="146.4281"/><text fill="#000000" font-family="sans-serif" font-size="13.2" font-weight="bold" lengthAdjust="spacingAndGlyphs" textLength="27.6" x="211.2" y="155.3309">final</text><text fill="#000000" font-family="sans-serif" font-size="13.2" lengthAdjust="spacingAndGlyphs" textLength="264" x="242.4" y="155.3309">ConcurrentMap&lt;String, ReaderPlugin&gt; plugins</text><line style="stroke: #D4AC0D; stroke-width: 1.7999999999999998;" x1="188.4" x2="543.6" y1="163.0313" y2="163.0313"/><ellipse cx="200.4" cy="176.2313" fill="#84BE84" rx="3.6" ry="3.6" style="stroke: #038048; stroke-width: 1.2;"/><text fill="#000000" font-family="sans-serif" font-size="13.2" lengthAdjust="spacingAndGlyphs" text-decoration="underline" textLength="174" x="211.2" y="181.534">SeProxyService getInstance()</text><ellipse cx="200.4" cy="192.8344" fill="#84BE84" rx="3.6" ry="3.6" style="stroke: #038048; stroke-width: 1.2;"/><text fill="#000000" font-family="sans-serif" font-size="13.2" lengthAdjust="spacingAndGlyphs" textLength="110.4" x="211.2" y="198.1371">String getVersion()</text><text fill="#000000" font-family="sans-serif" font-size="13.2" lengthAdjust="spacingAndGlyphs" textLength="0" x="214.8" y="214.7402"/><ellipse cx="200.4" cy="226.0406" fill="#84BE84" rx="3.6" ry="3.6" style="stroke: #038048; stroke-width: 1.2;"/><text fill="#000000" font-family="sans-serif" font-size="13.2" lengthAdjust="spacingAndGlyphs" textLength="326.4" x="211.2" y="231.3434">ReaderPlugin registerPlugin(PluginFactory pluginFactory)</text><ellipse cx="200.4" cy="242.6437" fill="#84BE84" rx="3.6" ry="3.6" style="stroke: #038048; stroke-width: 1.2;"/><text fill="#000000" font-family="sans-serif" font-size="13.2" lengthAdjust="spacingAndGlyphs" textLength="234" x="211.2" y="247.9465">boolean isRegistered(String pluginName)</text><ellipse cx="200.4" cy="259.2469" fill="#84BE84" rx="3.6" ry="3.6" style="stroke: #038048; stroke-width: 1.2;"/><text fill="#000000" font-family="sans-serif" font-size="13.2" lengthAdjust="spacingAndGlyphs" textLength="254.4" x="211.2" y="264.5496">boolean unregisterPlugin(String pluginName)</text><text fill="#000000" font-family="sans-serif" font-size="13.2" lengthAdjust="spacingAndGlyphs" textLength="0" x="214.8" y="281.1527"/><ellipse cx="200.4" cy="292.4531" fill="#84BE84" rx="3.6" ry="3.6" style="stroke: #038048; stroke-width: 1.2;"/><text fill="#000000" font-family="sans-serif" font-size="13.2" lengthAdjust="spacingAndGlyphs" textLength="208.8" x="211.2" y="297.7559">ReaderPlugin getPlugin(String name)</text><ellipse cx="200.4" cy="309.0563" fill="#84BE84" rx="3.6" ry="3.6" style="stroke: #038048; stroke-width: 1.2;"/><text fill="#000000" font-family="sans-serif" font-size="13.2" lengthAdjust="spacingAndGlyphs" textLength="291.6" x="211.2" y="314.359">ConcurrentMap&lt;String, ReaderPlugin&gt; getPlugins()</text><!--MD5=[f32ad7e99aabd41d9b4c18d27e28445d]
class ProxyElement--><rect fill="#FEFECE" height="140.6156" id="ProxyElement" style="stroke: #D4AC0D; stroke-width: 1.7999999999999998;" width="307.2" x="616.8" y="126.6"/><ellipse cx="712.5" cy="145.8" fill="#B4A7E5" rx="13.2" ry="13.2" style="stroke: #B4A7E5; stroke-width: 1.2;"/><path d="M713.7,142.2 L713.7,149.4 L716.1,149.4 L716.6813,149.4 L717.3,150.15 L717.3,150.6 L717.3,151.05 L716.6813,151.8 L716.1,151.8 L708.9,151.8 L708.3188,151.8 L707.7,151.05 L707.7,150.6 L707.7,150.15 L708.3188,149.4 L708.9,149.4 L711.3,149.4 L711.3,142.2 L708.9,142.2 L708.3188,142.2 L707.7,141.45 L707.7,141 L707.7,140.55 L708.3188,139.8 L708.9,139.8 L716.1,139.8 L716.6813,139.8 L717.3,140.55 L717.3,141 L717.3,141.45 L716.6813,142.2 L716.1,142.2 L713.7,142.2 Z "/><polygon fill="#4177AF" points="743.1,140.4,738.3,147.6,747.9,147.6" style="stroke: #1963A0; stroke-width: 1.2;"/><text fill="#000000" font-family="sans-serif" font-size="14.4" font-style="italic" lengthAdjust="spacingAndGlyphs" textLength="92.4" x="750.3" y="151.6922">ProxyElement</text><line style="stroke: #D4AC0D; stroke-width: 1.7999999999999998;" x1="618" x2="922.8" y1="165" y2="165"/><line style="stroke: #D4AC0D; stroke-width: 1.7999999999999998;" x1="618" x2="922.8" y1="174.6" y2="174.6"/><ellipse cx="630" cy="187.8" fill="#84BE84" rx="3.6" ry="3.6" style="stroke: #038048; stroke-width: 1.2;"/><text fill="#000000" font-family="sans-serif" font-size="13.2" lengthAdjust="spacingAndGlyphs" textLength="97.2" x="640.8" y="193.1027">String getName()</text><text fill="#000000" font-family="sans-serif" font-size="13.2" lengthAdjust="spacingAndGlyphs" textLength="0" x="644.4" y="209.7059"/><ellipse cx="630" cy="221.0063" fill="#84BE84" rx="3.6" ry="3.6" style="stroke: #038048; stroke-width: 1.2;"/><text fill="#000000" font-family="sans-serif" font-size="13.2" lengthAdjust="spacingAndGlyphs" textLength="210" x="640.8" y="226.309">Map&lt;String, String&gt; getParameters()</text><ellipse cx="630" cy="237.6094" fill="#84BE84" rx="3.6" ry="3.6" style="stroke: #038048; stroke-width: 1.2;"/><text fill="#000000" font-family="sans-serif" font-size="13.2" lengthAdjust="spacingAndGlyphs" textLength="219.6" x="640.8" y="242.9121">setParameter(String key, String value)</text><ellipse cx="630" cy="254.2125" fill="#84BE84" rx="3.6" ry="3.6" style="stroke: #038048; stroke-width: 1.2;"/><text fill="#000000" font-family="sans-serif" font-size="13.2" lengthAdjust="spacingAndGlyphs" textLength="276" x="640.8" y="259.5152">setParameters(Map&lt;String, String&gt; parameters)</text><!--MD5=[5c68026ea752d2e8f1e184b2d7c89ced]
class PluginFactory--><rect fill="#FEFECE" height="90.8062" id="PluginFactory" style="stroke: #D4AC0D; stroke-width: 1.7999999999999998;" width="220.8" x="126" y="431.4"/><ellipse cx="179.7" cy="450.6" fill="#B4A7E5" rx="13.2" ry="13.2" style="stroke: #B4A7E5; stroke-width: 1.2;"/><path d="M180.9,447 L180.9,454.2 L183.3,454.2 L183.8813,454.2 L184.5,454.95 L184.5,455.4 L184.5,455.85 L183.8813,456.6 L183.3,456.6 L176.1,456.6 L175.5187,456.6 L174.9,455.85 L174.9,455.4 L174.9,454.95 L175.5187,454.2 L176.1,454.2 L178.5,454.2 L178.5,447 L176.1,447 L175.5187,447 L174.9,446.25 L174.9,445.8 L174.9,445.35 L175.5187,444.6 L176.1,444.6 L183.3,444.6 L183.8813,444.6 L184.5,445.35 L184.5,445.8 L184.5,446.25 L183.8813,447 L183.3,447 L180.9,447 Z "/><ellipse cx="210.3" cy="450" fill="#84BE84" rx="3.6" ry="3.6" style="stroke: #038048; stroke-width: 1.2;"/><text fill="#000000" font-family="sans-serif" font-size="14.4" font-style="italic" lengthAdjust="spacingAndGlyphs" textLength="90" x="217.5" y="456.4922">PluginFactory</text><line style="stroke: #D4AC0D; stroke-width: 1.7999999999999998;" x1="127.2" x2="345.6" y1="469.8" y2="469.8"/><line style="stroke: #D4AC0D; stroke-width: 1.7999999999999998;" x1="127.2" x2="345.6" y1="479.4" y2="479.4"/><ellipse cx="139.2" cy="492.6" fill="#84BE84" rx="3.6" ry="3.6" style="stroke: #038048; stroke-width: 1.2;"/><text fill="#000000" font-family="sans-serif" font-size="13.2" lengthAdjust="spacingAndGlyphs" textLength="130.8" x="150" y="497.9027">String getPluginName()</text><ellipse cx="139.2" cy="509.2031" fill="#84BE84" rx="3.6" ry="3.6" style="stroke: #038048; stroke-width: 1.2;"/><text fill="#000000" font-family="sans-serif" font-size="13.2" lengthAdjust="spacingAndGlyphs" textLength="189.6" x="150" y="514.5059">ReaderPlugin getPluginInstance()</text><!--MD5=[a0e88443257adb8def549c32ec694d43]
class ReaderPlugin--><rect fill="#F0FFFF" height="107.4094" id="ReaderPlugin" style="stroke: #0000FF; stroke-width: 1.7999999999999998;" width="248.4" x="442.2" y="423"/><ellipse cx="509.1" cy="442.2" fill="#B4A7E5" rx="13.2" ry="13.2" style="stroke: #B4A7E5; stroke-width: 1.2;"/><path d="M510.3,438.6 L510.3,445.8 L512.7,445.8 L513.2813,445.8 L513.9,446.55 L513.9,447 L513.9,447.45 L513.2813,448.2 L512.7,448.2 L505.5,448.2 L504.9188,448.2 L504.3,447.45 L504.3,447 L504.3,446.55 L504.9188,445.8 L505.5,445.8 L507.9,445.8 L507.9,438.6 L505.5,438.6 L504.9188,438.6 L504.3,437.85 L504.3,437.4 L504.3,436.95 L504.9188,436.2 L505.5,436.2 L512.7,436.2 L513.2813,436.2 L513.9,436.95 L513.9,437.4 L513.9,437.85 L513.2813,438.6 L512.7,438.6 L510.3,438.6 Z "/><ellipse cx="539.7" cy="441.6" fill="#84BE84" rx="3.6" ry="3.6" style="stroke: #038048; stroke-width: 1.2;"/><text fill="#000000" font-family="sans-serif" font-size="14.4" font-style="italic" lengthAdjust="spacingAndGlyphs" textLength="91.2" x="546.9" y="448.0922">ReaderPlugin</text><line style="stroke: #0000FF; stroke-width: 1.7999999999999998;" x1="443.4" x2="689.4" y1="461.4" y2="461.4"/><line style="stroke: #0000FF; stroke-width: 1.7999999999999998;" x1="443.4" x2="689.4" y1="471" y2="471"/><ellipse cx="455.4" cy="484.2" fill="#84BE84" rx="3.6" ry="3.6" style="stroke: #038048; stroke-width: 1.2;"/><text fill="#000000" font-family="sans-serif" font-size="13.2" lengthAdjust="spacingAndGlyphs" textLength="217.2" x="466.2" y="489.5027">Map&lt;String, SeReader&gt; getReaders()</text><ellipse cx="455.4" cy="500.8031" fill="#84BE84" rx="3.6" ry="3.6" style="stroke: #038048; stroke-width: 1.2;"/><text fill="#000000" font-family="sans-serif" font-size="13.2" lengthAdjust="spacingAndGlyphs" textLength="180" x="466.2" y="506.1059">Set&lt;String&gt; getReaderNames()</text><ellipse cx="455.4" cy="517.4063" fill="#84BE84" rx="3.6" ry="3.6" style="stroke: #038048; stroke-width: 1.2;"/><text fill="#000000" font-family="sans-serif" font-size="13.2" lengthAdjust="spacingAndGlyphs" textLength="199.2" x="466.2" y="522.709">SeReader getReader(String name)</text><!--MD5=[dd49942b1f02350b5568646d3da64c49]
class SeReader--><rect fill="#EEFFEE" height="124.0125" id="SeReader" style="stroke: #008000; stroke-width: 1.7999999999999998;" width="408" x="786" y="415.2"/><ellipse cx="944.7" cy="434.4" fill="#B4A7E5" rx="13.2" ry="13.2" style="stroke: #B4A7E5; stroke-width: 1.2;"/><path d="M945.9,430.8 L945.9,438 L948.3,438 L948.8812,438 L949.5,438.75 L949.5,439.2 L949.5,439.65 L948.8812,440.4 L948.3,440.4 L941.1,440.4 L940.5188,440.4 L939.9,439.65 L939.9,439.2 L939.9,438.75 L940.5188,438 L941.1,438 L943.5,438 L943.5,430.8 L941.1,430.8 L940.5188,430.8 L939.9,430.05 L939.9,429.6 L939.9,429.15 L940.5188,428.4 L941.1,428.4 L948.3,428.4 L948.8812,428.4 L949.5,429.15 L949.5,429.6 L949.5,430.05 L948.8812,430.8 L948.3,430.8 L945.9,430.8 Z "/><ellipse cx="975.3" cy="433.8" fill="#84BE84" rx="3.6" ry="3.6" style="stroke: #038048; stroke-width: 1.2;"/><text fill="#000000" font-family="sans-serif" font-size="14.4" font-style="italic" lengthAdjust="spacingAndGlyphs" textLength="67.2" x="982.5" y="440.2922">SeReader</text><line style="stroke: #008000; stroke-width: 1.7999999999999998;" x1="787.2" x2="1192.8" y1="453.6" y2="453.6"/><line style="stroke: #008000; stroke-width: 1.7999999999999998;" x1="787.2" x2="1192.8" y1="463.2" y2="463.2"/><ellipse cx="799.2" cy="476.4" fill="#84BE84" rx="3.6" ry="3.6" style="stroke: #038048; stroke-width: 1.2;"/><text fill="#000000" font-family="sans-serif" font-size="13.2" lengthAdjust="spacingAndGlyphs" textLength="128.4" x="810" y="481.7027">boolean isSePresent()</text><ellipse cx="799.2" cy="493.0031" fill="#84BE84" rx="3.6" ry="3.6" style="stroke: #038048; stroke-width: 1.2;"/><text fill="#000000" font-family="sans-serif" font-size="13.2" lengthAdjust="spacingAndGlyphs" textLength="376.8" x="810" y="498.3059">addSeProtocolSetting(SeProtocol seProtocol, String protocolRule)</text><ellipse cx="799.2" cy="509.6063" fill="#84BE84" rx="3.6" ry="3.6" style="stroke: #038048; stroke-width: 1.2;"/><text fill="#000000" font-family="sans-serif" font-size="13.2" lengthAdjust="spacingAndGlyphs" textLength="361.2" x="810" y="514.909">setSeProtocolSetting(Map&lt;SeProtocol, String&gt; protocolSetting)</text><ellipse cx="799.2" cy="526.2094" fill="#84BE84" rx="3.6" ry="3.6" style="stroke: #038048; stroke-width: 1.2;"/><text fill="#000000" font-family="sans-serif" font-size="13.2" lengthAdjust="spacingAndGlyphs" textLength="247.2" x="810" y="531.5121">TransmissionMode getTransmissionMode()</text><!--MD5=[ec495f5f6ae18812fb155b23e8e93f55]
class ReaderPoolPlugin--><rect fill="#F0FFFF" height="107.4094" id="ReaderPoolPlugin" style="stroke: #0000FF; stroke-width: 1.7999999999999998;" width="320.4" x="46.2" y="708.6"/><ellipse cx="134.1" cy="727.8" fill="#B4A7E5" rx="13.2" ry="13.2" style="stroke: #B4A7E5; stroke-width: 1.2;"/><path d="M135.3,724.2 L135.3,731.4 L137.7,731.4 L138.2813,731.4 L138.9,732.15 L138.9,732.6 L138.9,733.05 L138.2813,733.8 L137.7,733.8 L130.5,733.8 L129.9188,733.8 L129.3,733.05 L129.3,732.6 L129.3,732.15 L129.9188,731.4 L130.5,731.4 L132.9,731.4 L132.9,724.2 L130.5,724.2 L129.9188,724.2 L129.3,723.45 L129.3,723 L129.3,722.55 L129.9188,721.8 L130.5,721.8 L137.7,721.8 L138.2813,721.8 L138.9,722.55 L138.9,723 L138.9,723.45 L138.2813,724.2 L137.7,724.2 L135.3,724.2 Z "/><ellipse cx="164.7" cy="727.2" fill="#84BE84" rx="3.6" ry="3.6" style="stroke: #038048; stroke-width: 1.2;"/><text fill="#000000" font-family="sans-serif" font-size="14.4" font-style="italic" lengthAdjust="spacingAndGlyphs" textLength="121.2" x="171.9" y="733.6922">ReaderPoolPlugin</text><line style="stroke: #0000FF; stroke-width: 1.7999999999999998;" x1="47.4" x2="365.4" y1="747" y2="747"/><line style="stroke: #0000FF; stroke-width: 1.7999999999999998;" x1="47.4" x2="365.4" y1="756.6" y2="756.6"/><ellipse cx="59.4" cy="769.8" fill="#84BE84" rx="3.6" ry="3.6" style="stroke: #038048; stroke-width: 1.2;"/><text fill="#000000" font-family="sans-serif" font-size="13.2" lengthAdjust="spacingAndGlyphs" textLength="283.2" x="70.2" y="775.1027">SortedSet&lt;String&gt; getReaderGroupReferences()</text><ellipse cx="59.4" cy="786.4031" fill="#84BE84" rx="3.6" ry="3.6" style="stroke: #038048; stroke-width: 1.2;"/><text fill="#000000" font-family="sans-serif" font-size="13.2" lengthAdjust="spacingAndGlyphs" textLength="289.2" x="70.2" y="791.7059">SeReader allocateReader(String groupReference)</text><ellipse cx="59.4" cy="803.0063" fill="#84BE84" rx="3.6" ry="3.6" style="stroke: #038048; stroke-width: 1.2;"/><text fill="#000000" font-family="sans-serif" font-size="13.2" lengthAdjust="spacingAndGlyphs" textLength="212.4" x="70.2" y="808.309">releaseReader(SeReader seReader)</text><!--MD5=[1fa9a61019755e60a0cb03f0bc3590aa]
class ObservablePlugin--><rect fill="#F0FFFF" height="90.8062" id="ObservablePlugin" style="stroke: #0000FF; stroke-width: 1.7999999999999998;" width="315.6" x="408.6" y="717"/><ellipse cx="494.7" cy="736.2" fill="#B4A7E5" rx="13.2" ry="13.2" style="stroke: #B4A7E5; stroke-width: 1.2;"/><path d="M495.9,732.6 L495.9,739.8 L498.3,739.8 L498.8812,739.8 L499.5,740.55 L499.5,741 L499.5,741.45 L498.8812,742.2 L498.3,742.2 L491.1,742.2 L490.5187,742.2 L489.9,741.45 L489.9,741 L489.9,740.55 L490.5187,739.8 L491.1,739.8 L493.5,739.8 L493.5,732.6 L491.1,732.6 L490.5187,732.6 L489.9,731.85 L489.9,731.4 L489.9,730.95 L490.5187,730.2 L491.1,730.2 L498.3,730.2 L498.8812,730.2 L499.5,730.95 L499.5,731.4 L499.5,731.85 L498.8812,732.6 L498.3,732.6 L495.9,732.6 Z "/><ellipse cx="525.3" cy="735.6" fill="#84BE84" rx="3.6" ry="3.6" style="stroke: #038048; stroke-width: 1.2;"/><text fill="#000000" font-family="sans-serif" font-size="14.4" font-style="italic" lengthAdjust="spacingAndGlyphs" textLength="120" x="532.5" y="742.0922">ObservablePlugin</text><line style="stroke: #0000FF; stroke-width: 1.7999999999999998;" x1="409.8" x2="723" y1="755.4" y2="755.4"/><line style="stroke: #0000FF; stroke-width: 1.7999999999999998;" x1="409.8" x2="723" y1="765" y2="765"/><ellipse cx="421.8" cy="778.2" fill="#84BE84" rx="3.6" ry="3.6" style="stroke: #038048; stroke-width: 1.2;"/><text fill="#000000" font-family="sans-serif" font-size="13.2" lengthAdjust="spacingAndGlyphs" textLength="81.6" x="432.6" y="783.5027">addObserver(</text><text fill="#000000" font-family="sans-serif" font-size="13.2" font-weight="bold" lengthAdjust="spacingAndGlyphs" textLength="27.6" x="514.2" y="783.5027">final</text><text fill="#000000" font-family="sans-serif" font-size="13.2" lengthAdjust="spacingAndGlyphs" textLength="150" x="545.4" y="783.5027">PluginObserver observer)</text><ellipse cx="421.8" cy="794.8031" fill="#84BE84" rx="3.6" ry="3.6" style="stroke: #038048; stroke-width: 1.2;"/><text fill="#000000" font-family="sans-serif" font-size="13.2" lengthAdjust="spacingAndGlyphs" textLength="103.2" x="432.6" y="800.1059">removeObserver(</text><text fill="#000000" font-family="sans-serif" font-size="13.2" font-weight="bold" lengthAdjust="spacingAndGlyphs" textLength="27.6" x="535.8" y="800.1059">final</text><text fill="#000000" font-family="sans-serif" font-size="13.2" lengthAdjust="spacingAndGlyphs" textLength="150" x="567" y="800.1059">PluginObserver observer)</text><!--MD5=[e2341a3d5316e117132fc49473ae3219]
class ObservableReader--><rect fill="#EEFFEE" height="207.0281" id="ObservableReader" style="stroke: #008000; stroke-width: 1.7999999999999998;" width="469.2" x="766.2" y="658.8"/><ellipse cx="925.5" cy="678" fill="#B4A7E5" rx="13.2" ry="13.2" style="stroke: #B4A7E5; stroke-width: 1.2;"/><path d="M926.7,674.4 L926.7,681.6 L929.1,681.6 L929.6813,681.6 L930.3,682.35 L930.3,682.8 L930.3,683.25 L929.6813,684 L929.1,684 L921.9,684 L921.3188,684 L920.7,683.25 L920.7,682.8 L920.7,682.35 L921.3188,681.6 L921.9,681.6 L924.3,681.6 L924.3,674.4 L921.9,674.4 L921.3188,674.4 L920.7,673.65 L920.7,673.2 L920.7,672.75 L921.3188,672 L921.9,672 L929.1,672 L929.6813,672 L930.3,672.75 L930.3,673.2 L930.3,673.65 L929.6813,674.4 L929.1,674.4 L926.7,674.4 Z "/><ellipse cx="956.1" cy="677.4" fill="#84BE84" rx="3.6" ry="3.6" style="stroke: #038048; stroke-width: 1.2;"/><text fill="#000000" font-family="sans-serif" font-size="14.4" font-style="italic" lengthAdjust="spacingAndGlyphs" textLength="127.2" x="963.3" y="683.8922">ObservableReader</text><line style="stroke: #008000; stroke-width: 1.7999999999999998;" x1="767.4" x2="1234.2" y1="697.2" y2="697.2"/><line style="stroke: #008000; stroke-width: 1.7999999999999998;" x1="767.4" x2="1234.2" y1="706.8" y2="706.8"/><ellipse cx="779.4" cy="720" fill="#84BE84" rx="3.6" ry="3.6" style="stroke: #038048; stroke-width: 1.2;"/><text fill="#000000" font-family="sans-serif" font-size="13.2" lengthAdjust="spacingAndGlyphs" textLength="81.6" x="790.2" y="725.3027">addObserver(</text><text fill="#000000" font-family="sans-serif" font-size="13.2" font-weight="bold" lengthAdjust="spacingAndGlyphs" textLength="27.6" x="871.8" y="725.3027">final</text><text fill="#000000" font-family="sans-serif" font-size="13.2" lengthAdjust="spacingAndGlyphs" textLength="158.4" x="903" y="725.3027">ReaderObserver observer)</text><ellipse cx="779.4" cy="736.6031" fill="#84BE84" rx="3.6" ry="3.6" style="stroke: #038048; stroke-width: 1.2;"/><text fill="#000000" font-family="sans-serif" font-size="13.2" lengthAdjust="spacingAndGlyphs" textLength="103.2" x="790.2" y="741.9059">removeObserver(</text><text fill="#000000" font-family="sans-serif" font-size="13.2" font-weight="bold" lengthAdjust="spacingAndGlyphs" textLength="27.6" x="893.4" y="741.9059">final</text><text fill="#000000" font-family="sans-serif" font-size="13.2" lengthAdjust="spacingAndGlyphs" textLength="158.4" x="924.6" y="741.9059">ReaderObserver observer)</text><text fill="#000000" font-family="sans-serif" font-size="13.2" lengthAdjust="spacingAndGlyphs" textLength="0" x="793.8" y="758.509"/><ellipse cx="779.4" cy="769.8094" fill="#84BE84" rx="3.6" ry="3.6" style="stroke: #038048; stroke-width: 1.2;"/><text fill="#000000" font-family="sans-serif" font-size="13.2" lengthAdjust="spacingAndGlyphs" textLength="243.6" x="790.2" y="775.1121">startSeDetection(PollingMode pollingMode)</text><ellipse cx="779.4" cy="786.4125" fill="#84BE84" rx="3.6" ry="3.6" style="stroke: #038048; stroke-width: 1.2;"/><text fill="#000000" font-family="sans-serif" font-size="13.2" lengthAdjust="spacingAndGlyphs" textLength="104.4" x="790.2" y="791.7152">stopSeDetection()</text><ellipse cx="779.4" cy="803.0156" fill="#84BE84" rx="3.6" ry="3.6" style="stroke: #038048; stroke-width: 1.2;"/><text fill="#000000" font-family="sans-serif" font-size="13.2" lengthAdjust="spacingAndGlyphs" textLength="120" x="790.2" y="808.3184">notifySeProcessed()</text><text fill="#000000" font-family="sans-serif" font-size="13.2" lengthAdjust="spacingAndGlyphs" textLength="0" x="793.8" y="824.9215"/><ellipse cx="779.4" cy="836.2219" fill="#84BE84" rx="3.6" ry="3.6" style="stroke: #038048; stroke-width: 1.2;"/><text fill="#000000" font-family="sans-serif" font-size="13.2" lengthAdjust="spacingAndGlyphs" textLength="438" x="790.2" y="841.5246">setDefaultSelectionRequest(AbstractDefaultSelectionsRequest selectionsR,</text><text fill="#000000" font-family="sans-serif" font-size="13.2" lengthAdjust="spacingAndGlyphs" textLength="327.6" x="790.2" y="858.1277">NotificationMode notificationM, PollingMode[0..1] pollingM)</text><!--MD5=[ac58f1a34eb5ab4662271d4b6552ae6b]
link SeProxyService to PluginFactory--><path d="M302.1241,334.92 C302.1241,334.92 274.8792,393.3192 263.7612,417.15 " fill="none" id="SeProxyService-PluginFactory" style="stroke: #A80036; stroke-width: 1.2;"/><polygon fill="#A80036" points="257.1492,431.3244,266.0659,423.5674,259.6864,425.8873,257.3665,419.5078,257.1492,431.3244" style="stroke: #A80036; stroke-width: 1.2;"/><line style="stroke: #A80036; stroke-width: 1.2;" x1="259.6864" x2="263.7444" y1="425.8873" y2="417.1872"/><polygon fill="#A80036" points="308.2116,321.87,300.8179,326.3658,302.1241,334.92,309.5179,330.4242,308.2116,321.87" style="stroke: #A80036; stroke-width: 1.2;"/><text fill="#000000" font-family="sans-serif" font-size="15.6" lengthAdjust="spacingAndGlyphs" textLength="60" x="291.6" y="374.9941">registers</text><text fill="#000000" font-family="sans-serif" font-size="15.6" lengthAdjust="spacingAndGlyphs" textLength="8.4" x="295.2593" y="347.9526">1</text><text fill="#000000" font-family="sans-serif" font-size="15.6" lengthAdjust="spacingAndGlyphs" textLength="6" x="254.4217" y="418.2023">*</text><!--MD5=[98fb93546a7dc75f66b7a26283e02bb5]
link SeProxyService to ReaderPlugin--><path d="M463.7816,333.5483 C463.7816,333.5483 502.518,387.246 518.8632,409.9032 " fill="none" id="SeProxyService-ReaderPlugin" style="stroke: #A80036; stroke-width: 1.2;"/><polygon fill="#A80036" points="528.1644,422.7972,525.7385,411.2302,524.6541,417.9312,517.953,416.8468,528.1644,422.7972" style="stroke: #A80036; stroke-width: 1.2;"/><line style="stroke: #A80036; stroke-width: 1.2;" x1="524.6541" x2="519.0384" y1="417.9312" y2="410.1456"/><polygon fill="#A80036" points="455.3568,321.87,455.6764,330.5174,463.7816,333.5483,463.462,324.9009,455.3568,321.87" style="stroke: #A80036; stroke-width: 1.2;"/><text fill="#000000" font-family="sans-serif" font-size="15.6" lengthAdjust="spacingAndGlyphs" textLength="49.2" x="496.8" y="374.9941">plugins</text><text fill="#000000" font-family="sans-serif" font-size="15.6" lengthAdjust="spacingAndGlyphs" textLength="8.4" x="453.2105" y="347.9526">1</text><text fill="#000000" font-family="sans-serif" font-size="15.6" lengthAdjust="spacingAndGlyphs" textLength="6" x="515.8502" y="410.0991">*</text><!--MD5=[8119e6da521221a00c7048597420cfa4]
link PluginFactory to ReaderPlugin--><path d="M347.2032,477 C375.522,477 406.2372,477 435.462,477 " fill="none" id="PluginFactory-&gt;ReaderPlugin" style="stroke: #A80036; stroke-width: 1.2;"/><polygon fill="#A80036" points="441.6744,477,430.8744,472.2,435.6744,477,430.8744,481.8,441.6744,477" style="stroke: #A80036; stroke-width: 1.2;"/><text fill="#000000" font-family="sans-serif" font-size="15.6" lengthAdjust="spacingAndGlyphs" textLength="51.6" x="368.7" y="469.1941">creates</text><text fill="#000000" font-family="sans-serif" font-size="15.6" lengthAdjust="spacingAndGlyphs" textLength="8.4" x="356.3675" y="473.2616">1</text><text fill="#000000" font-family="sans-serif" font-size="15.6" lengthAdjust="spacingAndGlyphs" textLength="8.4" x="424.2093" y="473.3547">1</text><!--MD5=[c88fac8de0d16551763276c4b9088a93]
link ReaderPlugin to SeReader--><path d="M705.0312,477 C705.0312,477 748.3392,477 769.9908,477 " fill="none" id="ReaderPlugin-SeReader" style="stroke: #A80036; stroke-width: 1.2;"/><polygon fill="#A80036" points="785.7636,477,774.9636,472.2,779.7636,477,774.9636,481.8,785.7636,477" style="stroke: #A80036; stroke-width: 1.2;"/><line style="stroke: #A80036; stroke-width: 1.2;" x1="779.7636" x2="770.1636" y1="477" y2="477"/><polygon fill="#A80036" points="690.6312,477,697.8312,481.8,705.0312,477,697.8312,472.2,690.6312,477" style="stroke: #A80036; stroke-width: 1.2;"/><text fill="#000000" font-family="sans-serif" font-size="15.6" lengthAdjust="spacingAndGlyphs" textLength="51.6" x="712.5" y="469.1941">readers</text><text fill="#000000" font-family="sans-serif" font-size="15.6" lengthAdjust="spacingAndGlyphs" textLength="8.4" x="700.0629" y="473.3263">1</text><text fill="#000000" font-family="sans-serif" font-size="15.6" lengthAdjust="spacingAndGlyphs" textLength="6" x="770.3732" y="473.5594">*</text><!--MD5=[bc25a197e36279471f37427b8b5d69b0]
reverse link ReaderPlugin to ReaderPoolPlugin--><path d="M469.9056,545.4576 C443.2992,564.5892 414.6516,585.7416 388.8,606 C346.8876,638.8452 301.2876,677.6952 266.1648,708.3336 " fill="none" id="ReaderPlugin&lt;-ReaderPoolPlugin" style="stroke: #A80036; stroke-width: 1.2;"/><polygon fill="none" points="465.36,538.3812,489.7728,531.27,475.1232,552.054,465.36,538.3812" style="stroke: #A80036; stroke-width: 1.2;"/><text fill="#000000" font-family="sans-serif" font-size="15.6" lengthAdjust="spacingAndGlyphs" textLength="55.2" x="427.2" y="592.1941">extends</text><!--MD5=[a087c8f219181ff1dbe7adabc28b3231]
reverse link ReaderPlugin to ObservablePlugin--><path d="M566.4,555.2028 C566.4,606.9648 566.4,673.3836 566.4,716.6472 " fill="none" id="ReaderPlugin&lt;-ObservablePlugin" style="stroke: #A80036; stroke-width: 1.2;"/><polygon fill="none" points="558,555.1356,566.4,531.1356,574.8,555.1356,558,555.1356" style="stroke: #A80036; stroke-width: 1.2;"/><text fill="#000000" font-family="sans-serif" font-size="15.6" lengthAdjust="spacingAndGlyphs" textLength="55.2" x="567.6" y="592.1941">extends</text><!--MD5=[9bde350185f61a8992bbce085951af21]
reverse link SeReader to ObservableReader--><path d="M993.2352,563.034 C994.3788,593.0184 995.6772,627.072 996.8724,658.398 " fill="none" id="SeReader&lt;-ObservableReader" style="stroke: #A80036; stroke-width: 1.2;"/><polygon fill="none" points="984.8376,563.256,992.3172,538.9536,1001.6256,562.6164,984.8376,563.256" style="stroke: #A80036; stroke-width: 1.2;"/><text fill="#000000" font-family="sans-serif" font-size="15.6" lengthAdjust="spacingAndGlyphs" textLength="55.2" x="994.8" y="592.1941">extends</text><!--MD5=[6ff42eee2d93b23b3557b0570faf0c26]
reverse link ProxyElement to ReaderPlugin--><path d="M705.2976,286.6548 C672.3684,331.4964 633.5088,384.4128 605.2788,422.856 " fill="none" id="ProxyElement&lt;-ReaderPlugin" style="stroke: #A80036; stroke-width: 1.2;"/><polygon fill="none" points="698.7348,281.3988,719.7108,267.0264,712.2756,291.3432,698.7348,281.3988" style="stroke: #A80036; stroke-width: 1.2;"/><text fill="#000000" font-family="sans-serif" font-size="15.6" lengthAdjust="spacingAndGlyphs" textLength="55.2" x="650.4" y="374.9941">extends</text><!--MD5=[e474867e38445a864bdbc7a2e090866a]
reverse link ProxyElement to SeReader--><path d="M840.2508,286.3632 C873.438,328.3452 912.2628,377.46 942.0624,415.158 " fill="none" id="ProxyElement&lt;-SeReader" style="stroke: #A80036; stroke-width: 1.2;"/><polygon fill="none" points="833.2584,291.0636,824.9652,267.0264,846.438,280.6452,833.2584,291.0636" style="stroke: #A80036; stroke-width: 1.2;"/><text fill="#000000" font-family="sans-serif" font-size="15.6" lengthAdjust="spacingAndGlyphs" textLength="55.2" x="913.2" y="374.9941">extends</text><!--MD5=[654a95f5891946df0dd834b987985945]
@startuml
skinparam ClassBorderColor #D4AC0D
skinparam stereotypeABorderColor #A9DCDF
skinparam stereotypeIBorderColor #B4A7E5
skinparam stereotypeCBorderColor #ADD1B2
skinparam stereotypeEBorderColor #EB93DF
skinparam shadowing false

skinparam StateBorderColor #D4AC0D
skinparam ActivityBorderColor #D4AC0D

skinparam ClassBackgroundColor<<red>> #FDEDEC
skinparam ClassBorderColor<<red>> #E74C3C
hide <<red>> stereotype
skinparam ClassBackgroundColor<<purple>> #F4ECF7
skinparam ClassBorderColor<<purple>> #8E44AD
hide <<purple>> stereotype
skinparam ClassBackgroundColor<<blue>> #EBF5FB
skinparam ClassBorderColor<<blue>> #3498DB
hide <<blue>> stereotype
skinparam ClassBackgroundColor<<green>> #EAFAF1
skinparam ClassBorderColor<<green>> #2ECC71
hide <<green>> stereotype

skinparam ClassBackgroundColor<<orange>> #FDF2E9
skinparam ClassBorderColor<<orange>> #E67E22
hide <<orange>> stereotype

skinparam ClassBackgroundColor<<grey>> #EAECEE
skinparam ClassBorderColor<<grey>> #2C3E50
hide <<grey>> stereotype

package org.eclipse.keyple.core.seproxy #FFFFFF {
+class "<b>final</b> SeProxyService" as SeProxyService << Singleton >> {
  -<b>final</b> {static}SeProxyService uniqueInstance
  -<b>final</b> ConcurrentMap<String, ReaderPlugin> plugins
  +{static}SeProxyService getInstance()
  +String getVersion()

  +ReaderPlugin registerPlugin(PluginFactory pluginFactory)
  +boolean isRegistered(String pluginName)
  +boolean unregisterPlugin(String pluginName)

  +ReaderPlugin getPlugin(String name)
  +ConcurrentMap<String, ReaderPlugin> getPlugins()
}
~interface ProxyElement {
  +String getName()

  +Map<String, String> getParameters()
  +setParameter(String key, String value)
  +setParameters(Map<String, String> parameters)
}

+interface PluginFactory {
  +String getPluginName()
  +ReaderPlugin getPluginInstance()
}
+interface ReaderPlugin {
  +Map<String, SeReader> getReaders()
  +Set<String> getReaderNames()
  +SeReader getReader(String name)
}
+interface SeReader {
  +boolean isSePresent()
  +addSeProtocolSetting(SeProtocol seProtocol, String protocolRule)
  +setSeProtocolSetting(Map<SeProtocol, String> protocolSetting)
  +TransmissionMode getTransmissionMode()
}

  SeProxyService "1" *- -> "*" PluginFactory : registers
  SeProxyService "1" *-down-> "*" ReaderPlugin : plugins
  PluginFactory "1" -right-> "1" ReaderPlugin : creates
  ReaderPlugin "1" *-right-> "*" SeReader : readers

+interface ReaderPoolPlugin {
  +SortedSet<String> getReaderGroupReferences()
  +SeReader allocateReader(String groupReference)
  +releaseReader(SeReader seReader)
}
  ReaderPlugin <|- - ReaderPoolPlugin : extends

  package event #FFFFFF {
+interface ObservablePlugin {
  +addObserver(<b>final</b> PluginObserver observer)
  +removeObserver(<b>final</b> PluginObserver observer)
}
+interface ObservableReader {
  +addObserver(<b>final</b> ReaderObserver observer)
  +removeObserver(<b>final</b> ReaderObserver observer)

  +startSeDetection(PollingMode pollingMode)
  +stopSeDetection()
  +notifySeProcessed()

  +setDefaultSelectionRequest(AbstractDefaultSelectionsRequest selectionsR,
    NotificationMode notificationM, PollingMode[0..1] pollingM)
}
  }
  ReaderPlugin <|- - ObservablePlugin : extends
  SeReader <|- - ObservableReader : extends
}

ProxyElement <|- - ReaderPlugin : extends
ProxyElement <|- - SeReader : extends

interface ReaderPlugin <<Plugin>>
interface ObservablePlugin <<Plugin>>
interface ReaderPoolPlugin <<Plugin>>
hide <<Plugin>> stereotype

interface SeReader <<Reader>>
interface ObservableReader <<Reader>>
hide <<Reader>> stereotype

skinparam class {
  BackgroundColor<<Plugin>> Azure
  BorderColor<<Plugin>> Blue
  BackgroundColor<<Reader>> #EEFFEE
  BorderColor<<Reader>> Green
}
@enduml

PlantUML version 1.2020.09(Sun May 10 14:51:06 MUT 2020)
(GPL source distribution)
Java Runtime: OpenJDK Runtime Environment
JVM: OpenJDK 64-Bit Server VM
Java Version: 11.0.7+10-b765.64
Operating System: Windows 10
Default Encoding: Cp1252
Language: fr
Country: FR
--></g></svg>